<svg width="1161" height="818" viewBox="0 0 1161 818" fill="none" xmlns="http://www.w3.org/2000/svg">
<g filter="url(#filter0_dd_102_657)">
<path d="M1126.38 10.6514H34.6169C27.2637 10.6514 21.3027 16.6124 21.3027 23.9656V772.225C21.3027 779.578 27.2637 785.539 34.6169 785.539H1126.38C1133.74 785.539 1139.7 779.578 1139.7 772.225V23.9656C1139.7 16.6124 1133.74 10.6514 1126.38 10.6514Z" fill="white"/>
<path d="M21.3027 23.9656C21.3027 16.6124 27.2637 10.6514 34.6169 10.6514H1126.38C1133.74 10.6514 1139.7 16.6124 1139.7 23.9656V154.445H21.3027V23.9656Z" fill="#F1F3F5"/>
<path d="M67.6096 44.576H58.9021V48.8099H66.9172V52.245H58.9021V59.9139H54.9078V41.1409H67.6096V44.576ZM81.9675 53.9492C82.7486 55.1741 83.3877 55.9996 83.8847 56.4256C84.3996 56.8517 84.9322 57.047 85.4825 57.0114V59.8341C85.0741 59.9938 84.5327 60.0737 83.8581 60.0737C82.8462 60.0737 81.9941 59.7808 81.3018 59.195C80.6094 58.6092 79.8106 57.5973 78.9052 56.1593L77.0412 53.2036C75.4791 55.2629 74.1654 57.4997 73.1002 59.9139H68.7598C69.8782 57.0736 71.8753 53.816 74.7512 50.1413L69.0793 41.1409H73.4464L77.4407 47.4785C79.1449 45.2417 80.3698 43.1291 81.1154 41.1409H85.4558C84.87 42.6676 84.0978 44.1942 83.1391 45.721C82.1805 47.2477 81.0444 48.8365 79.7307 50.4875L81.9675 53.9492ZM98.9887 60.127C97.3732 60.127 96.1839 59.7631 95.4204 59.0352C94.6571 58.3073 94.2754 57.1978 94.2754 55.7067V48.7566H92.1185V45.8541H94.2754V42.0995H98.0567V45.8541H100.959V48.7566H98.0567V54.9611C98.0567 55.6889 98.2076 56.2126 98.5093 56.5321C98.8112 56.8517 99.3171 57.0114 100.027 57.0114C100.347 57.0114 100.657 56.9759 100.959 56.9049V59.8074C100.48 60.0205 99.8231 60.127 98.9887 60.127ZM110.388 45.6411C110.743 45.6411 111.063 45.6677 111.347 45.721C111.649 45.7742 111.879 45.8452 112.039 45.934L111.294 49.7153C110.903 49.6087 110.468 49.5555 109.989 49.5555C109.048 49.5555 108.276 49.9106 107.672 50.6206C107.086 51.313 106.793 52.4136 106.793 53.9225V59.9139H103.012V45.8541H106.607V49.0495C106.82 48.1265 107.228 47.3276 107.832 46.653C108.453 45.9784 109.305 45.6411 110.388 45.6411ZM124.499 55.8664C124.499 56.4167 124.569 56.7807 124.712 56.9582C124.853 57.1357 125.138 57.2245 125.564 57.2245V59.8607C125.031 60.0028 124.499 60.0737 123.966 60.0737C123.167 60.0737 122.528 59.9229 122.049 59.621C121.587 59.3192 121.267 58.9198 121.09 58.4228C120.291 59.5944 119.004 60.1802 117.229 60.1802C115.755 60.1802 114.574 59.7985 113.687 59.0352C112.817 58.2541 112.382 57.1978 112.382 55.8664C112.382 54.4462 112.888 53.3278 113.9 52.5112C114.93 51.6947 116.332 51.2863 118.108 51.2863C119.101 51.2863 119.989 51.4106 120.771 51.6591V50.9668C120.771 50.2212 120.539 49.6443 120.078 49.2359C119.634 48.8276 118.96 48.6235 118.054 48.6235C117.256 48.6235 116.537 48.7655 115.898 49.0495C115.276 49.3335 114.787 49.6531 114.433 50.0082L112.941 47.4785C113.492 46.9103 114.246 46.44 115.205 46.0672C116.181 45.6766 117.273 45.4813 118.481 45.4813C120.379 45.4813 121.853 45.9163 122.901 46.7861C123.966 47.6559 124.499 48.9164 124.499 50.5674V55.8664ZM118.268 57.5174C119.048 57.5174 119.66 57.2867 120.105 56.825C120.548 56.3634 120.771 55.7156 120.771 54.8812V54.0291C120.238 53.8337 119.59 53.7361 118.827 53.7361C117.975 53.7361 117.317 53.9136 116.856 54.2687C116.412 54.606 116.19 55.0853 116.19 55.7067C116.19 56.2569 116.377 56.7008 116.75 57.0381C117.14 57.3576 117.646 57.5174 118.268 57.5174ZM140.9 40.342V59.9139H137.279V57.9701C136.32 59.4968 134.89 60.2601 132.992 60.2601C131.837 60.2601 130.808 59.9938 129.903 59.4613C128.997 58.911 128.278 58.0855 127.746 56.9848C127.231 55.8841 126.974 54.5173 126.974 52.884C126.974 51.2508 127.231 49.8839 127.746 48.7833C128.278 47.6826 128.997 46.866 129.903 46.3334C130.808 45.7832 131.837 45.508 132.992 45.508C134.767 45.508 136.142 46.1914 137.119 47.5584V40.342H140.9ZM133.95 57.1446C134.944 57.1446 135.716 56.7895 136.267 56.0795C136.834 55.3694 137.119 54.3043 137.119 52.884C137.119 51.4817 136.834 50.4253 136.267 49.7153C135.716 49.0052 134.944 48.6501 133.95 48.6501C132.956 48.6501 132.184 49.0052 131.634 49.7153C131.082 50.4076 130.808 51.4638 130.808 52.884C130.808 54.322 131.082 55.396 131.634 56.1061C132.184 56.7984 132.956 57.1446 133.95 57.1446ZM155.742 58.1298C154.481 59.5501 152.67 60.2601 150.31 60.2601C148.161 60.2601 146.422 59.6477 145.09 58.4228C143.776 57.1801 143.12 55.3605 143.12 52.9639C143.12 51.313 143.43 49.9283 144.052 48.8099C144.691 47.6915 145.534 46.866 146.582 46.3334C147.628 45.7832 148.8 45.508 150.097 45.508C151.765 45.508 153.096 45.9251 154.091 46.7595C155.103 47.5761 155.609 48.6767 155.609 50.0614C155.609 51.5171 155.049 52.6267 153.931 53.39C152.813 54.1356 151.223 54.5084 149.164 54.5084C148.366 54.5084 147.593 54.4551 146.848 54.3486C147.309 56.2126 148.56 57.1446 150.602 57.1446C151.951 57.1446 153.113 56.6919 154.091 55.7865L155.742 58.1298ZM149.963 48.4371C149.093 48.4371 148.366 48.73 147.78 49.3158C147.211 49.8839 146.865 50.7271 146.741 51.8455C147.557 51.9165 148.179 51.952 148.605 51.952C149.812 51.952 150.69 51.8012 151.242 51.4994C151.791 51.1798 152.067 50.7094 152.067 50.088C152.067 49.5555 151.871 49.1471 151.481 48.8631C151.108 48.5792 150.602 48.4371 149.963 48.4371ZM162.358 60.2867C161.133 60.2867 160.041 60.1181 159.082 59.7808C158.141 59.4257 157.359 58.9553 156.739 58.3695L158.39 55.8398C158.816 56.2481 159.349 56.6031 159.988 56.9049C160.644 57.1889 161.372 57.331 162.171 57.331C163.556 57.331 164.248 56.8606 164.248 55.9197C164.248 55.5113 164.07 55.2007 163.716 54.9877C163.377 54.7747 162.748 54.5173 161.825 54.2155C160.138 53.7006 158.94 53.1237 158.23 52.4846C157.519 51.8455 157.165 50.9579 157.165 49.8218C157.165 49.0585 157.369 48.3483 157.777 47.6915C158.204 47.0169 158.833 46.4843 159.668 46.0938C160.52 45.6854 161.559 45.4813 162.784 45.4813C163.83 45.4813 164.771 45.6234 165.606 45.9074C166.458 46.1914 167.141 46.5731 167.657 47.0524L166.192 49.5289C165.287 48.801 164.176 48.4371 162.863 48.4371C162.278 48.4371 161.816 48.5613 161.479 48.8099C161.141 49.0406 160.973 49.3514 160.973 49.7419C160.973 50.1147 161.15 50.4076 161.505 50.6206C161.878 50.8336 162.544 51.091 163.503 51.3928C165.135 51.8899 166.289 52.4846 166.964 53.1769C167.638 53.8693 167.976 54.748 167.976 55.8132C167.976 57.1801 167.478 58.2719 166.485 59.0885C165.49 59.8873 164.115 60.2867 162.358 60.2867Z" fill="#21252A"/>
<path fill-rule="evenodd" clip-rule="evenodd" d="M1078.45 50.594C1078.45 43.2408 1084.41 37.2798 1091.77 37.2798C1099.12 37.2798 1105.08 43.2408 1105.08 50.594C1105.08 57.9472 1099.12 63.9082 1091.77 63.9082C1084.41 63.9082 1078.45 57.9472 1078.45 50.594ZM1102.12 50.594C1102.12 44.8749 1097.49 40.2385 1091.77 40.2385C1086.05 40.2385 1081.41 44.8749 1081.41 50.594C1081.41 56.3131 1086.05 60.9495 1091.77 60.9495C1097.49 60.9495 1102.12 56.3131 1102.12 50.594ZM1086.93 46.5526C1087.74 44.239 1090.1 42.8497 1092.52 43.2643C1094.94 43.679 1096.7 45.7767 1096.7 48.227C1096.7 49.8613 1095.75 51.135 1094.27 52.1208C1093.47 52.6499 1092.7 52.995 1092.14 53.181C1091.36 53.4393 1090.53 53.0204 1090.27 52.2454C1090.01 51.4702 1090.43 50.6324 1091.2 50.3741C1091.53 50.2641 1092.09 50.0175 1092.63 49.6589C1093.37 49.1655 1093.74 48.6638 1093.74 48.2249C1093.74 47.215 1093.02 46.3512 1092.02 46.1805C1091.1 46.0219 1090.19 46.5039 1089.8 47.3363L1089.72 47.5344C1089.45 48.3052 1088.6 48.7102 1087.83 48.4391C1087.06 48.1679 1086.66 47.3234 1086.93 46.5526ZM1093.26 56.5114C1093.26 55.6944 1092.6 55.032 1091.78 55.032L1091.58 55.0436C1090.85 55.135 1090.29 55.7573 1090.29 56.5114C1090.29 57.3285 1090.95 57.9909 1091.78 57.9909L1091.96 57.9793C1092.69 57.8879 1093.26 57.2656 1093.26 56.5114Z" fill="#21252A"/>
<path d="M288.919 83.2139H57.2511C55.4128 83.2139 53.9226 84.7041 53.9226 86.5424V126.485C53.9226 128.323 55.4128 129.814 57.2511 129.814H288.919C290.757 129.814 292.247 128.323 292.247 126.485V86.5424C292.247 84.7041 290.757 83.2139 288.919 83.2139Z" fill="url(#paint0_linear_102_657)"/>
<path d="M77.2065 100.03V113.171H75.6967L71.7077 107.001C70.3656 104.951 69.3342 103.317 68.6135 102.099V113.171H67.0105V100.03H68.9304L72.4533 105.454C73.8203 107.579 74.8641 109.238 75.5848 110.431V100.03H77.2065ZM81.3689 108.641C81.4186 109.76 81.7231 110.605 82.2823 111.176C82.8415 111.736 83.5871 112.015 84.5191 112.015C85.5504 112.015 86.4203 111.661 87.1286 110.953L87.9488 111.978C87.5387 112.451 87.0229 112.805 86.4017 113.04C85.7927 113.276 85.1279 113.395 84.4072 113.395C83.0279 113.395 81.9095 112.966 81.052 112.108C80.207 111.251 79.7845 109.983 79.7845 108.306C79.7845 107.175 79.977 106.23 80.3624 105.473C80.7475 104.715 81.2632 104.149 81.9095 103.776C82.568 103.404 83.3075 103.217 84.1276 103.217C85.3453 103.217 86.3209 103.602 87.0541 104.373C87.7872 105.144 88.1538 106.206 88.1538 107.56C88.1538 107.996 88.1289 108.355 88.0793 108.641H81.3689ZM84.0903 104.541C83.3571 104.541 82.7544 104.79 82.2823 105.286C81.81 105.771 81.518 106.491 81.4062 107.448H86.644C86.5695 105.51 85.7181 104.541 84.0903 104.541ZM97.504 113.171H95.7519L93.2541 109.126L90.7191 113.171H89.0601L92.2662 108.138L89.2465 103.422H90.9987L93.31 107.094L95.6214 103.422H97.299L94.298 108.064L97.504 113.171ZM102.742 113.301C101.773 113.301 101.071 113.071 100.636 112.612C100.201 112.139 99.9831 111.463 99.9831 110.58V104.69H98.3615V103.422H99.9831V100.813H101.586V103.422H103.916V104.69H101.586V110.207C101.586 110.804 101.698 111.244 101.922 111.531C102.158 111.803 102.574 111.941 103.171 111.941C103.432 111.941 103.68 111.91 103.916 111.847V113.115C103.643 113.239 103.251 113.301 102.742 113.301ZM120.649 103.217C121.632 103.217 122.415 103.528 122.998 104.149C123.595 104.758 123.893 105.596 123.893 106.666V113.171H122.29V106.926C122.29 106.23 122.122 105.671 121.786 105.249C121.451 104.814 120.936 104.596 120.239 104.596C119.556 104.596 119.009 104.82 118.599 105.268C118.189 105.715 117.984 106.281 117.984 106.964V113.171H116.381V106.926C116.381 106.23 116.213 105.671 115.878 105.249C115.542 104.814 115.027 104.596 114.331 104.596C113.647 104.596 113.101 104.82 112.69 105.268C112.28 105.715 112.075 106.281 112.075 106.964V113.171H110.472V103.422H112.001V104.802C112.2 104.354 112.523 103.981 112.97 103.683C113.417 103.373 114.008 103.217 114.741 103.217C115.412 103.217 115.996 103.366 116.493 103.664C117.003 103.963 117.382 104.391 117.63 104.951C117.891 104.441 118.27 104.025 118.767 103.702C119.277 103.379 119.904 103.217 120.649 103.217ZM130.53 113.395C129.212 113.395 128.144 112.966 127.324 112.108C126.504 111.251 126.094 109.983 126.094 108.306C126.094 106.628 126.504 105.361 127.324 104.503C128.144 103.646 129.212 103.217 130.53 103.217C131.387 103.217 132.145 103.404 132.804 103.776C133.475 104.149 134.002 104.715 134.388 105.473C134.773 106.23 134.966 107.175 134.966 108.306C134.966 109.436 134.773 110.382 134.388 111.139C134.002 111.897 133.475 112.463 132.804 112.835C132.145 113.208 131.387 113.395 130.53 113.395ZM130.53 112.034C131.399 112.034 132.082 111.724 132.58 111.102C133.077 110.468 133.326 109.536 133.326 108.306C133.326 107.076 133.077 106.15 132.58 105.528C132.082 104.895 131.399 104.578 130.53 104.578C129.659 104.578 128.976 104.895 128.48 105.528C127.982 106.15 127.734 107.076 127.734 108.306C127.734 109.536 127.982 110.468 128.48 111.102C128.976 111.724 129.659 112.034 130.53 112.034ZM141.667 103.217C142.723 103.217 143.569 103.534 144.202 104.168C144.836 104.79 145.153 105.64 145.153 106.721V113.171H143.55V107.001C143.55 106.281 143.37 105.696 143.009 105.249C142.649 104.802 142.089 104.578 141.332 104.578C140.561 104.578 139.952 104.814 139.505 105.286C139.058 105.746 138.834 106.318 138.834 107.001V113.171H137.231V103.422H138.759V104.839C138.958 104.403 139.3 104.025 139.785 103.702C140.281 103.379 140.91 103.217 141.667 103.217ZM151.052 113.301C150.083 113.301 149.382 113.071 148.946 112.612C148.512 112.139 148.294 111.463 148.294 110.58V104.69H146.672V103.422H148.294V100.813H149.897V103.422H152.227V104.69H149.897V110.207C149.897 110.804 150.009 111.244 150.232 111.531C150.469 111.803 150.885 111.941 151.481 111.941C151.742 111.941 151.991 111.91 152.227 111.847V113.115C151.954 113.239 151.562 113.301 151.052 113.301ZM158.651 103.217C159.707 103.217 160.546 103.534 161.167 104.168C161.801 104.79 162.118 105.64 162.118 106.721V113.171H160.515V107.001C160.515 106.281 160.335 105.696 159.974 105.249C159.627 104.802 159.073 104.578 158.315 104.578C157.545 104.578 156.936 104.814 156.489 105.286C156.041 105.746 155.818 106.318 155.818 107.001V113.171H154.196V99.4705H155.818V104.708C156.053 104.298 156.407 103.951 156.88 103.664C157.353 103.366 157.943 103.217 158.651 103.217Z" fill="#21252A"/>
<path fill-rule="evenodd" clip-rule="evenodd" d="M273.489 103.51C273.921 103.077 274.624 103.077 275.057 103.51C275.455 103.907 275.487 104.531 275.157 104.965L275.057 105.08L269.731 110.405C269.335 110.802 268.712 110.836 268.276 110.504L268.163 110.405L262.837 105.08C262.403 104.646 262.403 103.944 262.837 103.51C263.234 103.113 263.857 103.08 264.293 103.411L264.406 103.51L268.947 108.05L273.489 103.51Z" fill="#21252A"/>
<path d="M288.919 83.2139H57.2511C55.4128 83.2139 53.9226 84.7041 53.9226 86.5424V126.485C53.9226 128.323 55.4128 129.814 57.2511 129.814H288.919C290.757 129.814 292.247 128.323 292.247 126.485V86.5424C292.247 84.7041 290.757 83.2139 288.919 83.2139Z" stroke="#CED4D9" stroke-width="1.33095"/>
</g>
<defs>
<filter id="filter0_dd_102_657" x="-7.25048e-05" y="-5.72407e-06" width="1161" height="817.493" filterUnits="userSpaceOnUse" color-interpolation-filters="sRGB">
<feFlood flood-opacity="0" result="BackgroundImageFix"/>
<feColorMatrix in="SourceAlpha" type="matrix" values="0 0 0 0 0 0 0 0 0 0 0 0 0 0 0 0 0 0 127 0" result="hardAlpha"/>
<feOffset dy="10.6476"/>
<feGaussianBlur stdDeviation="10.6476"/>
<feColorMatrix type="matrix" values="0 0 0 0 0.0352941 0 0 0 0 0.117647 0 0 0 0 0.258824 0 0 0 0.25 0"/>
<feBlend mode="normal" in2="BackgroundImageFix" result="effect1_dropShadow_102_657"/>
<feColorMatrix in="SourceAlpha" type="matrix" values="0 0 0 0 0 0 0 0 0 0 0 0 0 0 0 0 0 0 127 0" result="hardAlpha"/>
<feOffset/>
<feGaussianBlur stdDeviation="0.665476"/>
<feColorMatrix type="matrix" values="0 0 0 0 0.0352941 0 0 0 0 0.117647 0 0 0 0 0.258824 0 0 0 0.5 0"/>
<feBlend mode="normal" in2="effect1_dropShadow_102_657" result="effect2_dropShadow_102_657"/>
<feBlend mode="normal" in="SourceGraphic" in2="effect2_dropShadow_102_657" result="shape"/>
</filter>
<linearGradient id="paint0_linear_102_657" x1="173.085" y1="82.5481" x2="173.085" y2="130.479" gradientUnits="userSpaceOnUse">
<stop stop-color="white"/>
<stop offset="1" stop-color="#F8F9FA"/>
</linearGradient>
</defs>
</svg>
