<svg width="579" height="457" viewBox="0 0 579 457" fill="none" xmlns="http://www.w3.org/2000/svg">
<g filter="url(#filter0_d_102_3180)">
<path d="M557.519 3.90559H21.4805C17.1665 3.90559 13.6694 7.40275 13.6694 11.7167V425.707C13.6694 430.021 17.1665 433.518 21.4805 433.518H557.519C561.833 433.518 565.331 430.021 565.331 425.707V11.7167C565.331 7.40275 561.833 3.90559 557.519 3.90559Z" fill="white"/>
<path d="M557.52 4.39377H21.4806C17.4362 4.39377 14.1576 7.67236 14.1576 11.7167V425.707C14.1576 429.751 17.4362 433.03 21.4806 433.03H557.52C561.564 433.03 564.842 429.751 564.842 425.707V11.7167C564.842 7.67236 561.564 4.39377 557.52 4.39377Z" stroke="#F2F3F5" stroke-width="0.975"/>
<path d="M38.6317 47.8432V35.3649H43.1309C44.2792 35.3649 45.1931 35.6988 45.8726 36.3667C46.5639 37.0228 46.9096 37.8723 46.9096 38.9151C46.9096 39.7938 46.6635 40.5203 46.1714 41.0944C45.691 41.6568 44.9939 42.0376 44.08 42.2367L48.7198 47.8432H46.189L41.6195 42.3598H40.688V47.8432H38.6317ZM40.688 40.5671H42.8849C43.4941 40.5671 43.9745 40.4265 44.326 40.1453C44.6775 39.8524 44.8533 39.4423 44.8533 38.9151C44.8533 38.3878 44.6775 37.9836 44.326 37.7024C43.9745 37.4095 43.4941 37.263 42.8849 37.263H40.688V40.5671ZM53.2889 48.0189C51.9766 48.0189 50.8987 47.5913 50.0551 46.736C49.2115 45.8689 48.7897 44.7734 48.7897 43.4494C48.7897 42.1254 49.2056 41.0358 50.0375 40.1805C50.8694 39.3134 51.9591 38.8799 53.3065 38.8799C54.6656 38.8799 55.7611 39.3544 56.593 40.3035C57.4249 41.2408 57.794 42.4477 57.7003 43.924H50.7054C50.7288 44.6035 50.9866 45.1718 51.4787 45.6287C51.9708 46.0857 52.5976 46.3142 53.3592 46.3142C54.4372 46.3142 55.1753 45.9041 55.5737 45.0839H57.5948C57.3253 45.9392 56.8098 46.6422 56.0482 47.1929C55.2866 47.7436 54.3669 48.0189 53.2889 48.0189ZM53.2538 40.4968C52.6211 40.4968 52.0762 40.6784 51.6193 41.0416C51.1741 41.3931 50.887 41.897 50.7581 42.5531H55.6264C55.4858 41.8735 55.1987 41.3639 54.7652 41.0241C54.3317 40.6726 53.8279 40.4968 53.2538 40.4968ZM68.0337 51.5164H66.1004V46.6657C65.831 47.0406 65.4443 47.3628 64.9405 47.6323C64.4367 47.8901 63.886 48.0189 63.2884 48.0189C62.0933 48.0189 61.0857 47.5737 60.2655 46.6832C59.4571 45.7928 59.0528 44.7148 59.0528 43.4494C59.0528 42.184 59.4571 41.1061 60.2655 40.2156C61.0857 39.3252 62.0933 38.8799 63.2884 38.8799C63.886 38.8799 64.4367 39.0147 64.9405 39.2841C65.4443 39.5419 65.831 39.8583 66.1004 40.2332V39.0557H68.0337V51.5164ZM61.7594 45.453C62.2515 45.992 62.8784 46.2614 63.6399 46.2614C64.4015 46.2614 65.0284 45.992 65.5205 45.453C66.0126 44.914 66.2586 44.2462 66.2586 43.4494C66.2586 42.6527 66.0126 41.9848 65.5205 41.4459C65.0284 40.9069 64.4015 40.6374 63.6399 40.6374C62.8784 40.6374 62.2515 40.9069 61.7594 41.4459C61.2673 41.9848 61.0213 42.6527 61.0213 43.4494C61.0213 44.2462 61.2673 44.914 61.7594 45.453ZM73.7987 48.0189C72.7911 48.0189 71.9943 47.685 71.4085 47.0172C70.8227 46.3376 70.5297 45.4354 70.5297 44.3106V39.0557H72.463V43.9943C72.463 44.6973 72.6153 45.2538 72.92 45.6639C73.2246 46.0623 73.6581 46.2614 74.2205 46.2614C74.8766 46.2614 75.398 46.0154 75.7847 45.5233C76.1713 45.0195 76.3647 44.3047 76.3647 43.3791V39.0557H78.2979V47.8432H76.3647V46.6481C75.8491 47.562 74.9938 48.0189 73.7987 48.0189ZM84.7832 48.0189C83.4709 48.0189 82.393 47.5913 81.5494 46.736C80.7058 45.8689 80.284 44.7734 80.284 43.4494C80.284 42.1254 80.6999 41.0358 81.5318 40.1805C82.3637 39.3134 83.4534 38.8799 84.8008 38.8799C86.1599 38.8799 87.2554 39.3544 88.0873 40.3035C88.9192 41.2408 89.2883 42.4477 89.1945 43.924H82.1997C82.2231 44.6035 82.4809 45.1718 82.973 45.6287C83.4651 46.0857 84.0919 46.3142 84.8535 46.3142C85.9314 46.3142 86.6696 45.9041 87.068 45.0839H89.0891C88.8196 45.9392 88.3041 46.6422 87.5425 47.1929C86.7809 47.7436 85.8611 48.0189 84.7832 48.0189ZM84.7481 40.4968C84.1154 40.4968 83.5705 40.6784 83.1136 41.0416C82.6683 41.3931 82.3813 41.897 82.2524 42.5531H87.1207C86.9801 41.8735 86.693 41.3639 86.2595 41.0241C85.826 40.6726 85.3222 40.4968 84.7481 40.4968ZM94.273 48.0189C93.2303 48.0189 92.3515 47.7612 91.6368 47.2456C90.9338 46.7301 90.5589 46.0388 90.512 45.1718H92.5155C92.6561 46.0388 93.2596 46.4723 94.3258 46.4723C94.7593 46.4723 95.1049 46.3962 95.3627 46.2439C95.6205 46.0798 95.7494 45.8455 95.7494 45.5409C95.7494 45.2362 95.6498 44.996 95.4506 44.8203C95.2514 44.6445 94.9175 44.4981 94.4488 44.3809L93.0076 43.9943C91.5079 43.5959 90.758 42.7113 90.758 41.3404C90.758 40.6023 91.0568 40.0106 91.6544 39.5653C92.2519 39.1084 93.0428 38.8799 94.027 38.8799C94.9761 38.8799 95.7552 39.1201 96.3645 39.6005C96.9738 40.0809 97.3135 40.7194 97.3838 41.5162H95.4506C95.2631 40.7897 94.7827 40.4265 94.0094 40.4265C93.6228 40.4265 93.3123 40.5085 93.0779 40.6726C92.8436 40.8249 92.7264 41.0416 92.7264 41.3228C92.7264 41.8267 93.119 42.1782 93.904 42.3774L95.3803 42.764C96.9386 43.1624 97.7181 44.047 97.7181 45.4178C97.7181 46.2497 97.3955 46.8941 96.7511 47.3511C96.1184 47.7963 95.2924 48.0189 94.273 48.0189ZM103.318 47.9311C102.427 47.9311 101.701 47.685 101.138 47.1929C100.588 46.6891 100.312 45.9627 100.312 45.0136V40.778H98.4845V39.0557H100.312V36.6127H102.246V39.0557H104.759V40.778H102.246V44.6973C102.246 45.2362 102.363 45.6229 102.597 45.8572C102.831 46.0798 103.206 46.1911 103.722 46.1911C104.144 46.1911 104.489 46.1326 104.759 46.0154V47.7377C104.337 47.8666 103.857 47.9311 103.318 47.9311ZM109.686 48.0189C108.643 48.0189 107.764 47.7612 107.049 47.2456C106.346 46.7301 105.971 46.0388 105.925 45.1718H107.928C108.069 46.0388 108.672 46.4723 109.738 46.4723C110.172 46.4723 110.518 46.3962 110.775 46.2439C111.033 46.0798 111.162 45.8455 111.162 45.5409C111.162 45.2362 111.062 44.996 110.863 44.8203C110.664 44.6445 110.33 44.4981 109.861 44.3809L108.42 43.9943C106.921 43.5959 106.171 42.7113 106.171 41.3404C106.171 40.6023 106.469 40.0106 107.067 39.5653C107.665 39.1084 108.455 38.8799 109.44 38.8799C110.389 38.8799 111.168 39.1201 111.777 39.6005C112.386 40.0809 112.726 40.7194 112.796 41.5162H110.863C110.676 40.7897 110.195 40.4265 109.422 40.4265C109.035 40.4265 108.725 40.5085 108.491 40.6726C108.256 40.8249 108.139 41.0416 108.139 41.3228C108.139 41.8267 108.532 42.1782 109.317 42.3774L110.793 42.764C112.351 43.1624 113.13 44.047 113.13 45.4178C113.13 46.2497 112.808 46.8941 112.164 47.3511C111.531 47.7963 110.705 48.0189 109.686 48.0189ZM119.453 47.8432V35.3649H123.952C125.1 35.3649 126.014 35.6988 126.693 36.3667C127.385 37.0228 127.73 37.8723 127.73 38.9151C127.73 39.7938 127.484 40.5203 126.992 41.0944C126.512 41.6568 125.815 42.0376 124.901 42.2367L129.541 47.8432H127.01L122.44 42.3598H121.509V47.8432H119.453ZM121.509 40.5671H123.706C124.315 40.5671 124.795 40.4265 125.147 40.1453C125.498 39.8524 125.674 39.4423 125.674 38.9151C125.674 38.3878 125.498 37.9836 125.147 37.7024C124.795 37.4095 124.315 37.263 123.706 37.263H121.509V40.5671ZM134.11 48.0189C132.798 48.0189 131.72 47.5913 130.876 46.736C130.033 45.8689 129.611 44.7734 129.611 43.4494C129.611 42.1254 130.027 41.0358 130.859 40.1805C131.691 39.3134 132.78 38.8799 134.128 38.8799C135.487 38.8799 136.582 39.3544 137.414 40.3035C138.246 41.2408 138.615 42.4477 138.521 43.924H131.527C131.55 44.6035 131.808 45.1718 132.3 45.6287C132.792 46.0857 133.419 46.3142 134.18 46.3142C135.258 46.3142 135.997 45.9041 136.395 45.0839H138.416C138.147 45.9392 137.631 46.6422 136.869 47.1929C136.108 47.7436 135.188 48.0189 134.11 48.0189ZM134.075 40.4968C133.442 40.4968 132.897 40.6784 132.44 41.0416C131.995 41.3931 131.708 41.897 131.579 42.5531H136.448C136.307 41.8735 136.02 41.3639 135.586 41.0241C135.153 40.6726 134.649 40.4968 134.075 40.4968ZM144.478 48.0189C143.154 48.0189 142.053 47.5796 141.174 46.7008C140.307 45.8103 139.874 44.7265 139.874 43.4494C139.874 42.1723 140.307 41.0944 141.174 40.2156C142.053 39.3252 143.154 38.8799 144.478 38.8799C145.615 38.8799 146.582 39.1963 147.378 39.829C148.187 40.4617 148.708 41.276 148.942 42.2719H146.904C146.728 41.7798 146.423 41.3873 145.99 41.0944C145.568 40.7897 145.064 40.6374 144.478 40.6374C143.705 40.6374 143.072 40.901 142.58 41.4283C142.088 41.9555 141.842 42.6293 141.842 43.4494C141.842 44.2696 142.088 44.9433 142.58 45.4706C143.072 45.9978 143.705 46.2614 144.478 46.2614C145.064 46.2614 145.568 46.115 145.99 45.8221C146.423 45.5174 146.728 45.1191 146.904 44.627H148.942C148.708 45.6229 148.187 46.4372 147.378 47.0699C146.582 47.7026 145.615 48.0189 144.478 48.0189ZM154.654 48.0189C153.342 48.0189 152.264 47.5913 151.421 46.736C150.577 45.8689 150.155 44.7734 150.155 43.4494C150.155 42.1254 150.571 41.0358 151.403 40.1805C152.235 39.3134 153.325 38.8799 154.672 38.8799C156.031 38.8799 157.127 39.3544 157.958 40.3035C158.79 41.2408 159.159 42.4477 159.066 43.924H152.071C152.094 44.6035 152.352 45.1718 152.844 45.6287C153.336 46.0857 153.963 46.3142 154.725 46.3142C155.803 46.3142 156.541 45.9041 156.939 45.0839H158.96C158.691 45.9392 158.175 46.6422 157.414 47.1929C156.652 47.7436 155.732 48.0189 154.654 48.0189ZM154.619 40.4968C153.987 40.4968 153.442 40.6784 152.985 41.0416C152.54 41.3931 152.252 41.897 152.124 42.5531H156.992C156.851 41.8735 156.564 41.3639 156.131 41.0241C155.697 40.6726 155.193 40.4968 154.619 40.4968ZM162.017 37.14C161.666 37.14 161.361 37.017 161.103 36.7709C160.846 36.5131 160.717 36.2027 160.717 35.8394C160.717 35.4879 160.846 35.1892 161.103 34.9431C161.361 34.6853 161.666 34.5565 162.017 34.5565C162.381 34.5565 162.685 34.6853 162.931 34.9431C163.177 35.1892 163.3 35.4879 163.3 35.8394C163.3 36.2027 163.177 36.5131 162.931 36.7709C162.685 37.017 162.381 37.14 162.017 37.14ZM161.051 47.8432V39.0557H162.984V47.8432H161.051ZM168.324 47.8432L164.352 39.0557H166.496L169.167 45.2245L171.856 39.0557H174.018L170.029 47.8432H168.324ZM179.026 48.0189C177.714 48.0189 176.636 47.5913 175.792 46.736C174.949 45.8689 174.527 44.7734 174.527 43.4494C174.527 42.1254 174.943 41.0358 175.775 40.1805C176.607 39.3134 177.696 38.8799 179.044 38.8799C180.403 38.8799 181.498 39.3544 182.33 40.3035C183.162 41.2408 183.531 42.4477 183.437 43.924H176.443C176.466 44.6035 176.724 45.1718 177.216 45.6287C177.708 46.0857 178.335 46.3142 179.096 46.3142C180.174 46.3142 180.912 45.9041 181.311 45.0839H183.332C183.062 45.9392 182.547 46.6422 181.785 47.1929C181.024 47.7436 180.104 48.0189 179.026 48.0189ZM178.991 40.4968C178.358 40.4968 177.813 40.6784 177.356 41.0416C176.911 41.3931 176.624 41.897 176.495 42.5531H181.364C181.223 41.8735 180.936 41.3639 180.502 41.0241C180.069 40.6726 179.565 40.4968 178.991 40.4968ZM189.025 48.0189C187.83 48.0189 186.823 47.5737 186.002 46.6832C185.194 45.7928 184.79 44.7148 184.79 43.4494C184.79 42.184 185.194 41.1061 186.002 40.2156C186.823 39.3252 187.83 38.8799 189.025 38.8799C189.623 38.8799 190.174 39.0147 190.677 39.2841C191.181 39.5419 191.568 39.8583 191.837 40.2332V34.6619H193.771V47.8432H191.837V46.6657C191.568 47.0406 191.181 47.3628 190.677 47.6323C190.174 47.8901 189.623 48.0189 189.025 48.0189ZM187.496 45.453C187.988 45.992 188.615 46.2614 189.377 46.2614C190.138 46.2614 190.765 45.992 191.257 45.453C191.749 44.914 191.995 44.2462 191.995 43.4494C191.995 42.6527 191.749 41.9848 191.257 41.4459C190.765 40.9069 190.138 40.6374 189.377 40.6374C188.615 40.6374 187.988 40.9069 187.496 41.4459C187.004 41.9848 186.758 42.6527 186.758 43.4494C186.758 44.2462 187.004 44.914 187.496 45.453ZM200.755 47.8432V35.3649H205.061C206.15 35.3649 207.041 35.6988 207.732 36.3667C208.435 37.0345 208.787 37.8488 208.787 38.8096C208.787 39.8407 208.4 40.6433 207.627 41.2174C208.962 41.7681 209.63 42.7581 209.63 44.1876C209.63 45.2304 209.249 46.1033 208.488 46.8063C207.738 47.4975 206.777 47.8432 205.605 47.8432H200.755ZM202.811 45.9627H205.553C206.209 45.9627 206.719 45.7986 207.082 45.4706C207.445 45.1425 207.627 44.709 207.627 44.17C207.627 43.6428 207.445 43.2151 207.082 42.887C206.719 42.5472 206.209 42.3774 205.553 42.3774H202.811V45.9627ZM202.811 40.6198H204.955C205.506 40.6198 205.945 40.4617 206.273 40.1453C206.601 39.829 206.765 39.4247 206.765 38.9326C206.765 38.464 206.601 38.0656 206.273 37.7375C205.945 37.4095 205.506 37.2454 204.955 37.2454H202.811V40.6198ZM214.34 51.5164H212.214L214.094 47.3687L210.316 39.0557H212.442L215.131 45.2772L217.838 39.0557H219.982L214.34 51.5164ZM225.298 35.3649H227.179L231.537 41.2701L235.914 35.3649H237.794V47.8432H235.72V38.8975L231.555 44.5567L227.355 38.8799V47.8432H225.298V35.3649ZM247.689 46.7008C246.81 47.5796 245.72 48.0189 244.42 48.0189C243.119 48.0189 242.024 47.5796 241.133 46.7008C240.255 45.8103 239.815 44.7265 239.815 43.4494C239.815 42.1723 240.255 41.0944 241.133 40.2156C242.024 39.3252 243.119 38.8799 244.42 38.8799C245.72 38.8799 246.81 39.3252 247.689 40.2156C248.579 41.0944 249.025 42.1723 249.025 43.4494C249.025 44.7265 248.579 45.8103 247.689 46.7008ZM244.42 46.2263C245.182 46.2263 245.808 45.9627 246.3 45.4354C246.804 44.8964 247.056 44.2344 247.056 43.4494C247.056 42.6644 246.804 42.0083 246.3 41.481C245.808 40.9421 245.182 40.6726 244.42 40.6726C243.647 40.6726 243.008 40.9421 242.504 41.481C242.012 42.0083 241.766 42.6644 241.766 43.4494C241.766 44.2344 242.012 44.8964 242.504 45.4354C243.008 45.9627 243.647 46.2263 244.42 46.2263ZM250.969 47.8432V39.0557H252.902V40.2508C253.453 39.3369 254.343 38.8799 255.573 38.8799C256.593 38.8799 257.407 39.2138 258.016 39.8817C258.625 40.5495 258.93 41.44 258.93 42.5531V47.8432H256.997V42.8695C256.997 42.1664 256.833 41.6216 256.505 41.235C256.177 40.8366 255.731 40.6374 255.169 40.6374C254.501 40.6374 253.956 40.8893 253.535 41.3931C253.113 41.897 252.902 42.6058 252.902 43.5197V47.8432H250.969ZM265.115 47.9311C264.224 47.9311 263.498 47.685 262.935 47.1929C262.385 46.6891 262.109 45.9627 262.109 45.0136V40.778H260.281V39.0557H262.109V36.6127H264.042V39.0557H266.556V40.778H264.042V44.6973C264.042 45.2362 264.16 45.6229 264.394 45.8572C264.628 46.0798 265.003 46.1911 265.519 46.1911C265.941 46.1911 266.286 46.1326 266.556 46.0154V47.7377C266.134 47.8666 265.653 47.9311 265.115 47.9311ZM270.323 47.8432H268.389V34.6619H270.323V40.2508C270.873 39.3369 271.764 38.8799 272.994 38.8799C274.013 38.8799 274.828 39.2138 275.437 39.8817C276.046 40.5495 276.351 41.44 276.351 42.5531V47.8432H274.418V42.8695C274.418 42.1664 274.254 41.6216 273.925 41.235C273.597 40.8366 273.152 40.6374 272.59 40.6374C271.922 40.6374 271.377 40.8893 270.955 41.3931C270.533 41.897 270.323 42.6058 270.323 43.5197V47.8432Z" fill="#242F44"/>
<path d="M38.4843 72.253H37.4024L40.5314 63.7317H41.5965L44.7254 72.253H43.6436L41.0972 65.0798H41.0306L38.4843 72.253ZM38.8837 68.9244H43.2442V69.8397H38.8837V68.9244ZM46.9014 63.7317V72.253H45.9195V63.7317H46.9014ZM49.6819 63.7317V72.253H48.7V63.7317H49.6819ZM57.5551 65.862V66.6942H54.2431V65.862H57.5551ZM55.2084 64.3309H56.1903V70.4222C56.1903 70.6996 56.2306 70.9077 56.311 71.0463C56.3942 71.1823 56.4997 71.2739 56.6272 71.321C56.7576 71.3653 56.8949 71.3875 57.0391 71.3875C57.1473 71.3875 57.2361 71.382 57.3055 71.3709C57.3748 71.357 57.4303 71.3459 57.4719 71.3376L57.6716 72.2197C57.605 72.2447 57.5121 72.2696 57.3928 72.2946C57.2736 72.3223 57.1224 72.3362 56.9393 72.3362C56.6619 72.3362 56.3901 72.2765 56.1238 72.1573C55.8602 72.038 55.6411 71.8564 55.4664 71.6123C55.2944 71.3682 55.2084 71.0602 55.2084 70.6885V64.3309ZM59.0321 72.253V65.862H60.0141V72.253H59.0321ZM59.5315 64.7969C59.3401 64.7969 59.175 64.7317 59.0363 64.6014C58.9004 64.4709 58.8325 64.3142 58.8325 64.1312C58.8325 63.9481 58.9004 63.7914 59.0363 63.661C59.175 63.5307 59.3401 63.4655 59.5315 63.4655C59.7228 63.4655 59.8865 63.5307 60.0224 63.661C60.1611 63.7914 60.2305 63.9481 60.2305 64.1312C60.2305 64.3142 60.1611 64.4709 60.0224 64.6014C59.8865 64.7317 59.7228 64.7969 59.5315 64.7969ZM61.8126 72.253V65.862H62.7613V66.8607H62.8445C62.9776 66.5194 63.1925 66.2545 63.4894 66.066C63.7862 65.8745 64.1426 65.7788 64.5587 65.7788C64.9803 65.7788 65.3312 65.8745 65.6114 66.066C65.8943 66.2545 66.1148 66.5194 66.273 66.8607H66.3394C66.5032 66.5305 66.7487 66.2684 67.0759 66.0743C67.4032 65.8773 67.7957 65.7788 68.2535 65.7788C68.8249 65.7788 69.2923 65.9578 69.6556 66.3155C70.019 66.6707 70.2007 67.224 70.2007 67.9757V72.253H69.2187V67.9757C69.2187 67.5042 69.0898 67.1671 68.8318 66.9646C68.5738 66.7621 68.2701 66.6609 67.9206 66.6609C67.4712 66.6609 67.1231 66.7968 66.8763 67.0686C66.6293 67.3377 66.5059 67.6789 66.5059 68.0922V72.253H65.5074V67.8758C65.5074 67.5125 65.3894 67.2199 65.1536 66.9979C64.9179 66.7733 64.6142 66.6609 64.2425 66.6609C63.9872 66.6609 63.7487 66.7288 63.5269 66.8648C63.3077 67.0007 63.1302 67.1893 62.9942 67.4307C62.8611 67.6692 62.7946 67.9452 62.7946 68.2587V72.253H61.8126ZM74.6756 72.3862C74.0598 72.3862 73.5286 72.2502 73.082 71.9784C72.6382 71.7038 72.2956 71.321 72.0543 70.83C71.8157 70.3362 71.6964 69.7621 71.6964 69.1074C71.6964 68.4529 71.8157 67.8758 72.0543 67.3766C72.2956 66.8745 72.6312 66.4834 73.0612 66.2033C73.494 65.9203 73.9988 65.7788 74.5757 65.7788C74.9086 65.7788 75.2373 65.8343 75.5618 65.9453C75.8863 66.0562 76.1818 66.2366 76.448 66.4862C76.7143 66.733 76.9266 67.0603 77.0846 67.4681C77.2427 67.8758 77.3218 68.3779 77.3218 68.9743V69.3904H72.3955V68.5416H76.3233C76.3233 68.1809 76.2511 67.8592 76.1069 67.5763C75.9654 67.2934 75.7629 67.0701 75.4994 66.9064C75.2387 66.7427 74.9307 66.6609 74.5757 66.6609C74.1846 66.6609 73.8461 66.758 73.5605 66.9521C73.2776 67.1435 73.0598 67.3932 72.9072 67.7011C72.7546 68.009 72.6784 68.3391 72.6784 68.6914V69.2572C72.6784 69.7398 72.7617 70.1491 72.928 70.4846C73.0973 70.8175 73.3317 71.0713 73.6312 71.2461C73.9308 71.4181 74.2789 71.5041 74.6756 71.5041C74.9336 71.5041 75.1665 71.468 75.3746 71.3959C75.5854 71.321 75.7671 71.21 75.9196 71.0629C76.0722 70.9132 76.1901 70.7274 76.2733 70.5054L77.2219 70.7718C77.1221 71.0935 76.9543 71.3765 76.7185 71.6206C76.4827 71.8618 76.1914 72.0505 75.8447 72.1864C75.498 72.3196 75.1083 72.3862 74.6756 72.3862Z" fill="#818999"/>
<path d="M109.356 105.45C111.513 105.45 113.261 103.702 113.261 101.545C113.261 99.3877 111.513 97.6392 109.356 97.6392C107.199 97.6392 105.45 99.3877 105.45 101.545C105.45 103.702 107.199 105.45 109.356 105.45Z" fill="#D67FF5"/>
<path d="M130.276 99.592H129.072C129.001 99.2454 128.877 98.9417 128.698 98.6791C128.523 98.4174 128.31 98.1967 128.057 98.019C127.808 97.8384 127.532 97.7017 127.227 97.6115C126.923 97.5209 126.606 97.4755 126.276 97.4755C125.674 97.4755 125.129 97.6277 124.64 97.9321C124.155 98.2358 123.768 98.6839 123.48 99.2766C123.195 99.8683 123.052 100.595 123.052 101.456C123.052 102.317 123.195 103.044 123.48 103.635C123.768 104.228 124.155 104.676 124.64 104.98C125.129 105.284 125.674 105.437 126.276 105.437C126.606 105.437 126.923 105.391 127.227 105.301C127.532 105.21 127.808 105.075 128.057 104.898C128.31 104.716 128.523 104.494 128.698 104.233C128.877 103.967 129.001 103.664 129.072 103.32H130.276C130.185 103.829 130.02 104.283 129.781 104.684C129.542 105.085 129.244 105.427 128.887 105.708C128.532 105.986 128.132 106.198 127.688 106.344C127.249 106.49 126.777 106.562 126.276 106.562C125.428 106.562 124.674 106.355 124.014 105.941C123.354 105.527 122.835 104.938 122.456 104.174C122.077 103.411 121.888 102.505 121.888 101.456C121.888 100.407 122.077 99.5012 122.456 98.7376C122.835 97.9741 123.354 97.3849 124.014 96.9707C124.674 96.5565 125.428 96.3494 126.276 96.3494C126.777 96.3494 127.249 96.4222 127.688 96.5678C128.132 96.7134 128.532 96.927 128.887 97.2085C129.244 97.4869 129.542 97.8267 129.781 98.228C130.02 98.6263 130.185 99.0803 130.276 99.592ZM135.095 106.582C134.422 106.582 133.831 106.422 133.323 106.102C132.818 105.781 132.424 105.333 132.139 104.757C131.858 104.181 131.716 103.507 131.716 102.738C131.716 101.961 131.858 101.283 132.139 100.703C132.424 100.124 132.818 99.675 133.323 99.3537C133.831 99.0335 134.422 98.8734 135.095 98.8734C135.768 98.8734 136.357 99.0335 136.862 99.3537C137.37 99.675 137.765 100.124 138.046 100.703C138.331 101.283 138.474 101.961 138.474 102.738C138.474 103.507 138.331 104.181 138.046 104.757C137.765 105.333 137.37 105.781 136.862 106.102C136.357 106.422 135.768 106.582 135.095 106.582ZM135.095 105.553C135.606 105.553 136.027 105.422 136.357 105.159C136.687 104.898 136.932 104.553 137.09 104.125C137.248 103.699 137.328 103.236 137.328 102.738C137.328 102.239 137.248 101.775 137.09 101.345C136.932 100.914 136.687 100.566 136.357 100.301C136.027 100.035 135.606 99.9025 135.095 99.9025C134.584 99.9025 134.163 100.035 133.833 100.301C133.503 100.566 133.259 100.914 133.099 101.345C132.941 101.775 132.862 102.239 132.862 102.738C132.862 103.236 132.941 103.699 133.099 104.125C133.259 104.553 133.503 104.898 133.833 105.159C134.163 105.422 134.584 105.553 135.095 105.553ZM141.368 101.941V106.427H140.222V98.971H141.329V100.136H141.426C141.601 99.757 141.867 99.4524 142.222 99.2229C142.578 98.9905 143.037 98.8734 143.601 98.8734C144.105 98.8734 144.548 98.9768 144.926 99.1838C145.304 99.3879 145.599 99.6984 145.809 100.116C146.02 100.53 146.125 101.055 146.125 101.689V106.427H144.979V101.766C144.979 101.181 144.827 100.725 144.523 100.397C144.219 100.067 143.802 99.9025 143.271 99.9025C142.905 99.9025 142.578 99.9816 142.29 100.141C142.005 100.299 141.781 100.53 141.616 100.835C141.451 101.139 141.368 101.508 141.368 101.941ZM151.461 98.971V99.9415H147.597V98.971H151.461ZM148.723 97.1843H149.869V104.29C149.869 104.615 149.916 104.858 150.01 105.019C150.106 105.178 150.229 105.284 150.379 105.339C150.531 105.391 150.691 105.417 150.859 105.417C150.985 105.417 151.089 105.41 151.17 105.398C151.251 105.381 151.315 105.368 151.364 105.359L151.597 106.388C151.519 106.417 151.411 106.446 151.272 106.476C151.132 106.508 150.956 106.523 150.743 106.523C150.419 106.523 150.101 106.454 149.791 106.315C149.483 106.176 149.228 105.964 149.024 105.679C148.823 105.395 148.723 105.035 148.723 104.602V97.1843ZM153.184 106.427V98.971H154.291V100.097H154.368C154.505 99.7277 154.75 99.4289 155.106 99.1985C155.463 98.969 155.864 98.8538 156.31 98.8538C156.394 98.8538 156.5 98.8558 156.626 98.8587C156.752 98.8626 156.847 98.8675 156.912 98.8734V100.038C156.874 100.028 156.785 100.015 156.645 99.9952C156.509 99.9718 156.365 99.9611 156.214 99.9611C155.85 99.9611 155.527 100.037 155.242 100.19C154.961 100.338 154.737 100.545 154.572 100.811C154.41 101.072 154.33 101.372 154.33 101.709V106.427H153.184ZM160.464 106.601C159.992 106.601 159.563 106.513 159.178 106.335C158.793 106.153 158.487 105.893 158.26 105.553C158.034 105.21 157.92 104.796 157.92 104.31C157.92 103.883 158.005 103.537 158.173 103.271C158.341 103.003 158.567 102.793 158.848 102.64C159.129 102.488 159.44 102.375 159.779 102.3C160.123 102.223 160.468 102.162 160.813 102.116C161.266 102.058 161.635 102.014 161.916 101.985C162.201 101.953 162.408 101.899 162.537 101.825C162.669 101.751 162.736 101.621 162.736 101.436V101.397C162.736 100.919 162.605 100.547 162.342 100.281C162.084 100.016 161.691 99.8829 161.163 99.8829C160.616 99.8829 160.188 100.003 159.877 100.242C159.567 100.481 159.348 100.737 159.222 101.01L158.134 100.621C158.328 100.168 158.587 99.8156 158.911 99.5627C159.237 99.3069 159.594 99.1292 159.979 99.0286C160.367 98.9251 160.749 98.8734 161.125 98.8734C161.364 98.8734 161.639 98.9026 161.95 98.9612C162.263 99.0159 162.566 99.1311 162.857 99.3059C163.152 99.4807 163.396 99.7443 163.59 100.097C163.785 100.449 163.881 100.922 163.881 101.514V106.427H162.736V105.417H162.678C162.6 105.579 162.47 105.752 162.29 105.937C162.108 106.121 161.867 106.278 161.566 106.407C161.265 106.537 160.898 106.601 160.464 106.601ZM160.639 105.572C161.092 105.572 161.474 105.484 161.785 105.306C162.098 105.127 162.335 104.898 162.494 104.616C162.655 104.334 162.736 104.038 162.736 103.728V102.679C162.687 102.738 162.581 102.791 162.416 102.839C162.254 102.884 162.066 102.925 161.852 102.961C161.642 102.993 161.436 103.022 161.236 103.048C161.039 103.071 160.879 103.09 160.756 103.106C160.458 103.145 160.18 103.209 159.921 103.295C159.665 103.379 159.458 103.507 159.299 103.679C159.144 103.847 159.067 104.078 159.067 104.368C159.067 104.767 159.213 105.068 159.508 105.272C159.806 105.472 160.183 105.572 160.639 105.572ZM169.001 106.582C168.302 106.582 167.701 106.417 167.196 106.087C166.691 105.757 166.303 105.302 166.031 104.723C165.759 104.144 165.623 103.482 165.623 102.738C165.623 101.98 165.763 101.312 166.041 100.732C166.322 100.15 166.714 99.6955 167.216 99.3684C167.72 99.0384 168.309 98.8734 168.982 98.8734C169.506 98.8734 169.979 98.971 170.4 99.1643C170.82 99.3586 171.165 99.631 171.434 99.9806C171.702 100.33 171.869 100.737 171.934 101.204H170.788C170.7 100.864 170.506 100.563 170.205 100.301C169.907 100.035 169.506 99.9025 169.001 99.9025C168.555 99.9025 168.164 100.019 167.827 100.252C167.494 100.481 167.233 100.808 167.046 101.227C166.861 101.645 166.768 102.135 166.768 102.699C166.768 103.275 166.859 103.777 167.041 104.203C167.225 104.631 167.484 104.962 167.817 105.198C168.154 105.435 168.548 105.553 169.001 105.553C169.299 105.553 169.57 105.501 169.813 105.398C170.055 105.294 170.261 105.146 170.429 104.951C170.597 104.757 170.717 104.524 170.788 104.252H171.934C171.869 104.692 171.709 105.088 171.453 105.442C171.2 105.791 170.865 106.069 170.448 106.276C170.034 106.48 169.552 106.582 169.001 106.582ZM176.851 98.971V99.9415H172.987V98.971H176.851ZM174.113 97.1843H175.259V104.29C175.259 104.615 175.306 104.858 175.4 105.019C175.496 105.178 175.619 105.284 175.769 105.339C175.92 105.391 176.08 105.417 176.249 105.417C176.375 105.417 176.479 105.41 176.56 105.398C176.641 105.381 176.705 105.368 176.754 105.359L176.987 106.388C176.909 106.417 176.801 106.446 176.661 106.476C176.523 106.508 176.346 106.523 176.133 106.523C175.809 106.523 175.491 106.454 175.181 106.315C174.873 106.176 174.618 105.964 174.415 105.679C174.213 105.395 174.113 105.035 174.113 104.602V97.1843ZM182.574 106.427V96.4853H185.933C186.71 96.4853 187.348 96.618 187.846 96.8834C188.344 97.1454 188.713 97.5063 188.952 97.9663C189.192 98.4252 189.311 98.9476 189.311 99.5334C189.311 100.119 189.192 100.639 188.952 101.092C188.713 101.545 188.346 101.901 187.851 102.16C187.356 102.416 186.723 102.544 185.953 102.544H183.234V101.456H185.913C186.445 101.456 186.871 101.379 187.195 101.223C187.523 101.067 187.758 100.848 187.904 100.563C188.053 100.274 188.127 99.9318 188.127 99.5334C188.127 99.136 188.053 98.7874 187.904 98.4896C187.755 98.1928 187.518 97.9624 187.191 97.8003C186.864 97.6357 186.432 97.5532 185.894 97.5532H183.778V106.427H182.574ZM187.253 101.961L189.7 106.427H188.302L185.894 101.961H187.253ZM194.208 106.582C193.49 106.582 192.87 106.424 192.349 106.106C191.831 105.786 191.432 105.339 191.15 104.767C190.872 104.191 190.733 103.521 190.733 102.756C190.733 101.993 190.872 101.32 191.15 100.737C191.432 100.151 191.824 99.6955 192.324 99.3684C192.83 99.0384 193.419 98.8734 194.092 98.8734C194.48 98.8734 194.864 98.9378 195.242 99.0677C195.621 99.1975 195.965 99.4074 196.276 99.6984C196.587 99.9864 196.834 100.368 197.019 100.845C197.204 101.32 197.295 101.906 197.295 102.601V103.087H191.548V102.096H196.13C196.13 101.676 196.046 101.301 195.879 100.971C195.714 100.641 195.477 100.38 195.17 100.19C194.865 99.9982 194.506 99.9025 194.092 99.9025C193.636 99.9025 193.24 100.016 192.907 100.242C192.577 100.466 192.324 100.757 192.146 101.116C191.967 101.475 191.878 101.86 191.878 102.271V102.931C191.878 103.495 191.976 103.972 192.169 104.364C192.367 104.752 192.641 105.048 192.99 105.252C193.34 105.452 193.746 105.553 194.208 105.553C194.51 105.553 194.781 105.511 195.024 105.427C195.27 105.339 195.482 105.21 195.66 105.038C195.838 104.864 195.975 104.647 196.073 104.388L197.179 104.699C197.063 105.074 196.867 105.404 196.592 105.689C196.317 105.971 195.977 106.19 195.572 106.349C195.168 106.505 194.714 106.582 194.208 106.582ZM204.908 98.971L202.151 106.427H200.986L198.229 98.971H199.472L201.53 104.912H201.607L203.665 98.971H204.908ZM206.421 106.427V98.971H207.566V106.427H206.421ZM207.003 97.728C206.78 97.728 206.587 97.6519 206.426 97.4998C206.266 97.3477 206.187 97.1649 206.187 96.9513C206.187 96.7377 206.266 96.5548 206.426 96.4028C206.587 96.2507 206.78 96.1746 207.003 96.1746C207.226 96.1746 207.418 96.2507 207.576 96.4028C207.738 96.5548 207.819 96.7377 207.819 96.9513C207.819 97.1649 207.738 97.3477 207.576 97.4998C207.418 97.6519 207.226 97.728 207.003 97.728ZM212.791 106.582C212.072 106.582 211.452 106.424 210.932 106.106C210.413 105.786 210.014 105.339 209.733 104.767C209.454 104.191 209.315 103.521 209.315 102.756C209.315 101.993 209.454 101.32 209.733 100.737C210.014 100.151 210.405 99.6955 210.907 99.3684C211.412 99.0384 212.001 98.8734 212.673 98.8734C213.062 98.8734 213.446 98.9378 213.825 99.0677C214.202 99.1975 214.547 99.4074 214.859 99.6984C215.169 99.9864 215.416 100.368 215.601 100.845C215.785 101.32 215.878 101.906 215.878 102.601V103.087H210.13V102.096H214.712C214.712 101.676 214.628 101.301 214.46 100.971C214.295 100.641 214.059 100.38 213.751 100.19C213.448 99.9982 213.088 99.9025 212.673 99.9025C212.217 99.9025 211.823 100.016 211.489 100.242C211.159 100.466 210.905 100.757 210.727 101.116C210.55 101.475 210.46 101.86 210.46 102.271V102.931C210.46 103.495 210.558 103.972 210.752 104.364C210.949 104.752 211.223 105.048 211.572 105.252C211.922 105.452 212.328 105.553 212.791 105.553C213.091 105.553 213.363 105.511 213.606 105.427C213.852 105.339 214.064 105.21 214.242 105.038C214.42 104.864 214.557 104.647 214.655 104.388L215.761 104.699C215.645 105.074 215.448 105.404 215.174 105.689C214.899 105.971 214.559 106.19 214.155 106.349C213.749 106.505 213.295 106.582 212.791 106.582ZM219.31 106.427L217.038 98.971H218.242L219.853 104.679H219.931L221.523 98.971H222.746L224.319 104.659H224.397L226.008 98.971H227.212L224.941 106.427H223.814L222.183 100.699H222.066L220.436 106.427H219.31Z" fill="#475467"/>
<path d="M240.192 105.45C242.349 105.45 244.098 103.702 244.098 101.545C244.098 99.3877 242.349 97.6392 240.192 97.6392C238.035 97.6392 236.287 99.3877 236.287 101.545C236.287 103.702 238.035 105.45 240.192 105.45Z" fill="#FFB13E"/>
<path d="M253.113 96.4853H254.55L257.928 104.738H258.044L261.423 96.4853H262.86V106.427H261.733V98.8734H261.637L258.53 106.427H257.443L254.336 98.8734H254.238V106.427H253.113V96.4853ZM267.312 106.601C266.84 106.601 266.411 106.513 266.026 106.335C265.641 106.153 265.335 105.893 265.109 105.553C264.882 105.21 264.769 104.796 264.769 104.31C264.769 103.883 264.853 103.537 265.022 103.271C265.19 103.003 265.414 102.793 265.696 102.64C265.978 102.488 266.288 102.375 266.628 102.3C266.971 102.223 267.315 102.162 267.662 102.116C268.115 102.058 268.482 102.014 268.764 101.985C269.048 101.953 269.255 101.899 269.385 101.825C269.518 101.751 269.584 101.621 269.584 101.436V101.397C269.584 100.919 269.454 100.547 269.191 100.281C268.932 100.016 268.539 99.8829 268.011 99.8829C267.465 99.8829 267.036 100.003 266.726 100.242C266.414 100.481 266.196 100.737 266.069 101.01L264.983 100.621C265.177 100.168 265.436 99.8156 265.759 99.5627C266.086 99.3069 266.442 99.1292 266.827 99.0286C267.216 98.9251 267.597 98.8734 267.972 98.8734C268.213 98.8734 268.487 98.9026 268.797 98.9612C269.112 99.0159 269.415 99.1311 269.705 99.3059C270 99.4807 270.244 99.7443 270.439 100.097C270.633 100.449 270.73 100.922 270.73 101.514V106.427H269.584V105.417H269.526C269.449 105.579 269.319 105.752 269.137 105.937C268.957 106.121 268.715 106.278 268.415 106.407C268.113 106.537 267.746 106.601 267.312 106.601ZM267.487 105.572C267.94 105.572 268.322 105.484 268.632 105.306C268.947 105.127 269.183 104.898 269.341 104.616C269.503 104.334 269.584 104.038 269.584 103.728V102.679C269.536 102.738 269.429 102.791 269.264 102.839C269.102 102.884 268.915 102.925 268.701 102.961C268.491 102.993 268.285 103.022 268.085 103.048C267.886 103.071 267.726 103.09 267.603 103.106C267.306 103.145 267.027 103.209 266.768 103.295C266.513 103.379 266.306 103.507 266.148 103.679C265.992 103.847 265.914 104.078 265.914 104.368C265.914 104.767 266.062 105.068 266.356 105.272C266.654 105.472 267.031 105.572 267.487 105.572ZM272.821 106.427V98.971H273.927V100.097H274.006C274.141 99.7277 274.387 99.4289 274.743 99.1985C275.099 98.969 275.5 98.8538 275.947 98.8538C276.031 98.8538 276.136 98.8558 276.262 98.8587C276.389 98.8626 276.485 98.8675 276.549 98.8734V100.038C276.51 100.028 276.421 100.015 276.281 99.9952C276.146 99.9718 276.002 99.9611 275.85 99.9611C275.488 99.9611 275.164 100.037 274.879 100.19C274.597 100.338 274.375 100.545 274.209 100.811C274.047 101.072 273.966 101.372 273.966 101.709V106.427H272.821ZM278.974 103.708L278.955 102.291H279.188L282.45 98.971H283.868L280.392 102.485H280.295L278.974 103.708ZM277.907 106.427V96.4853H279.052V106.427H277.907ZM282.645 106.427L279.732 102.738L280.547 101.941L284.1 106.427H282.645ZM288.161 106.582C287.443 106.582 286.824 106.424 286.302 106.106C285.785 105.786 285.384 105.339 285.103 104.767C284.825 104.191 284.685 103.521 284.685 102.756C284.685 101.993 284.825 101.32 285.103 100.737C285.384 100.151 285.776 99.6955 286.278 99.3684C286.783 99.0384 287.371 98.8734 288.045 98.8734C288.433 98.8734 288.816 98.9378 289.195 99.0677C289.574 99.1975 289.919 99.4074 290.229 99.6984C290.54 99.9864 290.788 100.368 290.972 100.845C291.157 101.32 291.249 101.906 291.249 102.601V103.087H285.502V102.096H290.084C290.084 101.676 290 101.301 289.831 100.971C289.666 100.641 289.43 100.38 289.122 100.19C288.818 99.9982 288.459 99.9025 288.045 99.9025C287.588 99.9025 287.194 100.016 286.861 100.242C286.531 100.466 286.276 100.757 286.098 101.116C285.92 101.475 285.832 101.86 285.832 102.271V102.931C285.832 103.495 285.928 103.972 286.123 104.364C286.32 104.752 286.593 105.048 286.943 105.252C287.292 105.452 287.698 105.553 288.161 105.553C288.462 105.553 288.734 105.511 288.977 105.427C289.223 105.339 289.434 105.21 289.613 105.038C289.791 104.864 289.929 104.647 290.025 104.388L291.132 104.699C291.015 105.074 290.82 105.404 290.545 105.689C290.269 105.971 289.929 106.19 289.525 106.349C289.121 106.505 288.666 106.582 288.161 106.582ZM296.234 98.971V99.9415H292.369V98.971H296.234ZM293.496 97.1843H294.642V104.29C294.642 104.615 294.688 104.858 294.782 105.019C294.88 105.178 295.003 105.284 295.151 105.339C295.304 105.391 295.464 105.417 295.632 105.417C295.759 105.417 295.862 105.41 295.943 105.398C296.023 105.381 296.089 105.368 296.136 105.359L296.37 106.388C296.292 106.417 296.183 106.446 296.045 106.476C295.905 106.508 295.729 106.523 295.515 106.523C295.192 106.523 294.875 106.454 294.564 106.315C294.257 106.176 294.001 105.964 293.797 105.679C293.597 105.395 293.496 105.035 293.496 104.602V97.1843ZM297.957 106.427V98.971H299.103V106.427H297.957ZM298.539 97.728C298.317 97.728 298.123 97.6519 297.962 97.4998C297.803 97.3477 297.724 97.1649 297.724 96.9513C297.724 96.7377 297.803 96.5548 297.962 96.4028C298.123 96.2507 298.317 96.1746 298.539 96.1746C298.763 96.1746 298.954 96.2507 299.112 96.4028C299.275 96.5548 299.356 96.7377 299.356 96.9513C299.356 97.1649 299.275 97.3477 299.112 97.4998C298.954 97.6519 298.763 97.728 298.539 97.728ZM302.346 101.941V106.427H301.201V98.971H302.308V100.136H302.405C302.58 99.757 302.845 99.4524 303.201 99.2229C303.557 98.9905 304.017 98.8734 304.579 98.8734C305.084 98.8734 305.526 98.9768 305.904 99.1838C306.283 99.3879 306.578 99.6984 306.788 100.116C306.999 100.53 307.103 101.055 307.103 101.689V106.427H305.958V101.766C305.958 101.181 305.806 100.725 305.502 100.397C305.197 100.067 304.78 99.9025 304.249 99.9025C303.884 99.9025 303.557 99.9816 303.269 100.141C302.984 100.299 302.759 100.53 302.594 100.835C302.429 101.139 302.346 101.508 302.346 101.941ZM312.207 109.378C311.653 109.378 311.178 109.307 310.779 109.165C310.382 109.025 310.05 108.841 309.784 108.611C309.523 108.384 309.314 108.142 309.159 107.883L310.07 107.242C310.174 107.378 310.306 107.534 310.464 107.708C310.622 107.886 310.84 108.04 311.114 108.17C311.393 108.302 311.757 108.369 312.207 108.369C312.808 108.369 313.305 108.222 313.697 107.931C314.088 107.64 314.285 107.184 314.285 106.562V105.048H314.187C314.103 105.184 313.983 105.353 313.828 105.553C313.676 105.75 313.456 105.927 313.168 106.082C312.883 106.234 312.498 106.311 312.013 106.311C311.411 106.311 310.87 106.168 310.391 105.883C309.915 105.599 309.538 105.184 309.26 104.64C308.985 104.097 308.848 103.436 308.848 102.66C308.848 101.896 308.982 101.231 309.25 100.665C309.519 100.095 309.893 99.6554 310.372 99.344C310.851 99.0306 311.404 98.8734 312.032 98.8734C312.517 98.8734 312.902 98.9544 313.187 99.1165C313.475 99.2746 313.695 99.4563 313.847 99.6603C314.002 99.8605 314.122 100.025 314.206 100.155H314.323V98.971H315.43V106.641C315.43 107.281 315.284 107.802 314.993 108.204C314.705 108.608 314.317 108.904 313.828 109.091C313.342 109.283 312.802 109.378 312.207 109.378ZM312.168 105.281C312.628 105.281 313.015 105.176 313.333 104.966C313.65 104.755 313.891 104.452 314.056 104.058C314.221 103.664 314.304 103.191 314.304 102.64C314.304 102.103 314.223 101.629 314.061 101.218C313.899 100.808 313.66 100.485 313.342 100.252C313.025 100.019 312.634 99.9025 312.168 99.9025C311.683 99.9025 311.278 100.025 310.954 100.272C310.634 100.518 310.393 100.848 310.231 101.262C310.072 101.676 309.993 102.135 309.993 102.64C309.993 103.158 310.074 103.616 310.236 104.014C310.401 104.409 310.644 104.72 310.964 104.947C311.288 105.169 311.689 105.281 312.168 105.281ZM321.526 106.427V96.4853H324.886C325.662 96.4853 326.3 96.618 326.798 96.8834C327.297 97.1454 327.666 97.5063 327.905 97.9663C328.144 98.4252 328.265 98.9476 328.265 99.5334C328.265 100.119 328.144 100.639 327.905 101.092C327.666 101.545 327.299 101.901 326.803 102.16C326.308 102.416 325.675 102.544 324.906 102.544H322.187V101.456H324.867C325.397 101.456 325.825 101.379 326.148 101.223C326.475 101.067 326.711 100.848 326.857 100.563C327.006 100.274 327.08 99.9318 327.08 99.5334C327.08 99.136 327.006 98.7874 326.857 98.4896C326.708 98.1928 326.47 97.9624 326.143 97.8003C325.817 97.6357 325.384 97.5532 324.847 97.5532H322.73V106.427H321.526ZM326.206 101.961L328.653 106.427H327.255L324.847 101.961H326.206ZM333.161 106.582C332.443 106.582 331.823 106.424 331.302 106.106C330.785 105.786 330.384 105.339 330.103 104.767C329.825 104.191 329.685 103.521 329.685 102.756C329.685 101.993 329.825 101.32 330.103 100.737C330.384 100.151 330.776 99.6955 331.278 99.3684C331.783 99.0384 332.371 98.8734 333.045 98.8734C333.433 98.8734 333.816 98.9378 334.195 99.0677C334.574 99.1975 334.919 99.4074 335.229 99.6984C335.54 99.9864 335.788 100.368 335.972 100.845C336.156 101.32 336.249 101.906 336.249 102.601V103.087H330.501V102.096H335.084C335.084 101.676 335 101.301 334.831 100.971C334.666 100.641 334.429 100.38 334.122 100.19C333.818 99.9982 333.459 99.9025 333.045 99.9025C332.588 99.9025 332.194 100.016 331.861 100.242C331.531 100.466 331.276 100.757 331.098 101.116C330.92 101.475 330.831 101.86 330.831 102.271V102.931C330.831 103.495 330.928 103.972 331.122 104.364C331.32 104.752 331.593 105.048 331.943 105.252C332.292 105.452 332.698 105.553 333.161 105.553C333.462 105.553 333.734 105.511 333.976 105.427C334.223 105.339 334.434 105.21 334.612 105.038C334.791 104.864 334.928 104.647 335.025 104.388L336.132 104.699C336.015 105.074 335.82 105.404 335.545 105.689C335.269 105.971 334.929 106.19 334.525 106.349C334.121 106.505 333.666 106.582 333.161 106.582ZM343.861 98.971L341.104 106.427H339.939L337.182 98.971H338.424L340.482 104.912H340.56L342.619 98.971H343.861ZM345.373 106.427V98.971H346.519V106.427H345.373ZM345.956 97.728C345.732 97.728 345.54 97.6519 345.378 97.4998C345.22 97.3477 345.141 97.1649 345.141 96.9513C345.141 96.7377 345.22 96.5548 345.378 96.4028C345.54 96.2507 345.732 96.1746 345.956 96.1746C346.179 96.1746 346.37 96.2507 346.528 96.4028C346.69 96.5548 346.771 96.7377 346.771 96.9513C346.771 97.1649 346.69 97.3477 346.528 97.4998C346.37 97.6519 346.179 97.728 345.956 97.728ZM351.743 106.582C351.024 106.582 350.405 106.424 349.884 106.106C349.366 105.786 348.966 105.339 348.685 104.767C348.407 104.191 348.268 103.521 348.268 102.756C348.268 101.993 348.407 101.32 348.685 100.737C348.966 100.151 349.359 99.6955 349.859 99.3684C350.364 99.0384 350.954 98.8734 351.627 98.8734C352.015 98.8734 352.398 98.9378 352.777 99.0677C353.156 99.1975 353.5 99.4074 353.811 99.6984C354.121 99.9864 354.369 100.368 354.554 100.845C354.738 101.32 354.83 101.906 354.83 102.601V103.087H349.083V102.096H353.665C353.665 101.676 353.581 101.301 353.413 100.971C353.248 100.641 353.011 100.38 352.705 100.19C352.4 99.9982 352.041 99.9025 351.627 99.9025C351.171 99.9025 350.775 100.016 350.442 100.242C350.112 100.466 349.858 100.757 349.68 101.116C349.502 101.475 349.413 101.86 349.413 102.271V102.931C349.413 103.495 349.51 103.972 349.704 104.364C349.901 104.752 350.175 105.048 350.524 105.252C350.874 105.452 351.28 105.553 351.743 105.553C352.044 105.553 352.316 105.511 352.558 105.427C352.804 105.339 353.016 105.21 353.195 105.038C353.372 104.864 353.51 104.647 353.607 104.388L354.714 104.699C354.598 105.074 354.402 105.404 354.126 105.689C353.852 105.971 353.512 106.19 353.107 106.349C352.703 106.505 352.248 106.582 351.743 106.582ZM358.262 106.427L355.99 98.971H357.194L358.806 104.679H358.883L360.476 98.971H361.699L363.272 104.659H363.349L364.961 98.971H366.165L363.893 106.427H362.767L361.136 100.699H361.02L359.388 106.427H358.262Z" fill="#475467"/>
<path d="M378.84 105.45C380.997 105.45 382.745 103.702 382.745 101.545C382.745 99.3877 380.997 97.6392 378.84 97.6392C376.683 97.6392 374.934 99.3877 374.934 101.545C374.934 103.702 376.683 105.45 378.84 105.45Z" fill="#1CC2D4"/>
<path d="M391.76 106.427V96.4853H392.964V105.359H397.585V106.427H391.76ZM402.42 106.582C401.702 106.582 401.082 106.424 400.56 106.106C400.043 105.786 399.644 105.339 399.361 104.767C399.083 104.191 398.945 103.521 398.945 102.756C398.945 101.993 399.083 101.32 399.361 100.737C399.644 100.151 400.035 99.6955 400.537 99.3684C401.042 99.0384 401.631 98.8734 402.303 98.8734C402.692 98.8734 403.076 98.9378 403.454 99.0677C403.832 99.1975 404.177 99.4074 404.488 99.6984C404.799 99.9864 405.046 100.368 405.231 100.845C405.415 101.32 405.507 101.906 405.507 102.601V103.087H399.76V102.096H404.342C404.342 101.676 404.258 101.301 404.09 100.971C403.925 100.641 403.689 100.38 403.381 100.19C403.077 99.9982 402.717 99.9025 402.303 99.9025C401.847 99.9025 401.453 100.016 401.119 100.242C400.789 100.466 400.535 100.757 400.357 101.116C400.179 101.475 400.09 101.86 400.09 102.271V102.931C400.09 103.495 400.187 103.972 400.381 104.364C400.579 104.752 400.852 105.048 401.202 105.252C401.552 105.452 401.958 105.553 402.42 105.553C402.721 105.553 402.993 105.511 403.236 105.427C403.482 105.339 403.694 105.21 403.871 105.038C404.049 104.864 404.187 104.647 404.284 104.388L405.391 104.699C405.274 105.074 405.078 105.404 404.804 105.689C404.529 105.971 404.189 106.19 403.785 106.349C403.379 106.505 402.925 106.582 402.42 106.582ZM410.26 109.378C409.706 109.378 409.231 109.307 408.832 109.165C408.434 109.025 408.103 108.841 407.838 108.611C407.575 108.384 407.367 108.142 407.212 107.883L408.124 107.242C408.227 107.378 408.358 107.534 408.517 107.708C408.675 107.886 408.892 108.04 409.167 108.17C409.446 108.302 409.81 108.369 410.26 108.369C410.861 108.369 411.358 108.222 411.75 107.931C412.141 107.64 412.338 107.184 412.338 106.562V105.048H412.24C412.156 105.184 412.036 105.353 411.881 105.553C411.728 105.75 411.509 105.927 411.221 106.082C410.936 106.234 410.551 106.311 410.066 106.311C409.463 106.311 408.923 106.168 408.444 105.883C407.968 105.599 407.591 105.184 407.313 104.64C407.038 104.097 406.9 103.436 406.9 102.66C406.9 101.896 407.035 101.231 407.303 100.665C407.572 100.095 407.946 99.6554 408.424 99.344C408.904 99.0306 409.457 98.8734 410.085 98.8734C410.57 98.8734 410.955 98.9544 411.24 99.1165C411.528 99.2746 411.748 99.4563 411.9 99.6603C412.056 99.8605 412.176 100.025 412.26 100.155H412.376V98.971H413.483V106.641C413.483 107.281 413.338 107.802 413.046 108.204C412.758 108.608 412.37 108.904 411.881 109.091C411.395 109.283 410.856 109.378 410.26 109.378ZM410.221 105.281C410.681 105.281 411.068 105.176 411.386 104.966C411.703 104.755 411.944 104.452 412.109 104.058C412.274 103.664 412.356 103.191 412.356 102.64C412.356 102.103 412.276 101.629 412.114 101.218C411.952 100.808 411.713 100.485 411.395 100.252C411.078 100.019 410.687 99.9025 410.221 99.9025C409.736 99.9025 409.33 100.025 409.007 100.272C408.687 100.518 408.446 100.848 408.284 101.262C408.126 101.676 408.046 102.135 408.046 102.64C408.046 103.158 408.128 103.616 408.289 104.014C408.454 104.409 408.697 104.72 409.017 104.947C409.34 105.169 409.741 105.281 410.221 105.281ZM417.774 106.601C417.302 106.601 416.873 106.513 416.487 106.335C416.103 106.153 415.797 105.893 415.571 105.553C415.344 105.21 415.231 104.796 415.231 104.31C415.231 103.883 415.315 103.537 415.483 103.271C415.651 103.003 415.876 102.793 416.157 102.64C416.44 102.488 416.75 102.375 417.09 102.3C417.432 102.223 417.777 102.162 418.124 102.116C418.577 102.058 418.944 102.014 419.225 101.985C419.51 101.953 419.717 101.899 419.847 101.825C419.979 101.751 420.045 101.621 420.045 101.436V101.397C420.045 100.919 419.914 100.547 419.653 100.281C419.394 100.016 419.001 99.8829 418.473 99.8829C417.926 99.8829 417.497 100.003 417.186 100.242C416.876 100.481 416.657 100.737 416.531 101.01L415.444 100.621C415.638 100.168 415.897 99.8156 416.221 99.5627C416.548 99.3069 416.903 99.1292 417.289 99.0286C417.677 98.9251 418.058 98.8734 418.434 98.8734C418.674 98.8734 418.949 98.9026 419.259 98.9612C419.574 99.0159 419.875 99.1311 420.167 99.3059C420.461 99.4807 420.706 99.7443 420.9 100.097C421.094 100.449 421.192 100.922 421.192 101.514V106.427H420.045V105.417H419.988C419.91 105.579 419.781 105.752 419.599 105.937C419.418 106.121 419.177 106.278 418.876 106.407C418.575 106.537 418.208 106.601 417.774 106.601ZM417.949 105.572C418.402 105.572 418.784 105.484 419.094 105.306C419.408 105.127 419.644 104.898 419.803 104.616C419.965 104.334 420.045 104.038 420.045 103.728V102.679C419.997 102.738 419.89 102.791 419.725 102.839C419.564 102.884 419.376 102.925 419.163 102.961C418.952 102.993 418.747 103.022 418.546 103.048C418.348 103.071 418.188 103.09 418.065 103.106C417.767 103.145 417.489 103.209 417.23 103.295C416.975 103.379 416.768 103.507 416.609 103.679C416.453 103.847 416.376 104.078 416.376 104.368C416.376 104.767 416.523 105.068 416.817 105.272C417.115 105.472 417.492 105.572 417.949 105.572ZM424.428 96.4853V106.427H423.282V96.4853H424.428ZM430.934 106.427H429.672L433.322 96.4853H434.564L438.215 106.427H436.953L433.982 98.0581H433.904L430.934 106.427ZM431.4 102.544H436.487V103.611H431.4V102.544ZM442.423 106.582C441.802 106.582 441.254 106.425 440.778 106.111C440.303 105.794 439.931 105.348 439.662 104.772C439.394 104.192 439.259 103.507 439.259 102.718C439.259 101.935 439.394 101.256 439.662 100.68C439.931 100.104 440.304 99.6584 440.783 99.344C441.262 99.0306 441.815 98.8734 442.443 98.8734C442.928 98.8734 443.312 98.9544 443.594 99.1165C443.878 99.2746 444.095 99.4563 444.244 99.6603C444.397 99.8605 444.515 100.025 444.599 100.155H444.695V96.4853H445.841V106.427H444.734V105.281H444.599C444.515 105.417 444.395 105.589 444.239 105.796C444.084 105.999 443.862 106.183 443.574 106.344C443.286 106.503 442.903 106.582 442.423 106.582ZM442.579 105.553C443.038 105.553 443.427 105.433 443.744 105.194C444.062 104.951 444.302 104.616 444.467 104.189C444.633 103.758 444.715 103.262 444.715 102.699C444.715 102.142 444.634 101.655 444.472 101.237C444.311 100.816 444.07 100.49 443.754 100.257C443.437 100.021 443.045 99.9025 442.579 99.9025C442.093 99.9025 441.689 100.027 441.366 100.276C441.046 100.522 440.804 100.857 440.642 101.281C440.483 101.702 440.404 102.175 440.404 102.699C440.404 103.229 440.485 103.711 440.647 104.145C440.812 104.575 441.054 104.918 441.376 105.174C441.699 105.427 442.1 105.553 442.579 105.553ZM454.196 98.971L451.438 106.427H450.273L447.516 98.971H448.758L450.816 104.912H450.894L452.953 98.971H454.196ZM455.707 106.427V98.971H456.853V106.427H455.707ZM456.29 97.728C456.066 97.728 455.874 97.6519 455.712 97.4998C455.554 97.3477 455.475 97.1649 455.475 96.9513C455.475 96.7377 455.554 96.5548 455.712 96.4028C455.874 96.2507 456.066 96.1746 456.29 96.1746C456.513 96.1746 456.704 96.2507 456.862 96.4028C457.024 96.5548 457.105 96.7377 457.105 96.9513C457.105 97.1649 457.024 97.3477 456.862 97.4998C456.704 97.6519 456.513 97.728 456.29 97.728ZM461.98 106.582C461.281 106.582 460.679 106.417 460.174 106.087C459.669 105.757 459.282 105.302 459.009 104.723C458.738 104.144 458.602 103.482 458.602 102.738C458.602 101.98 458.741 101.312 459.019 100.732C459.3 100.15 459.692 99.6955 460.194 99.3684C460.698 99.0384 461.287 98.8734 461.961 98.8734C462.485 98.8734 462.958 98.971 463.379 99.1643C463.798 99.3586 464.143 99.631 464.413 99.9806C464.681 100.33 464.847 100.737 464.912 101.204H463.766C463.679 100.864 463.485 100.563 463.184 100.301C462.886 100.035 462.485 99.9025 461.98 99.9025C461.533 99.9025 461.142 100.019 460.806 100.252C460.472 100.481 460.211 100.808 460.024 101.227C459.839 101.645 459.747 102.135 459.747 102.699C459.747 103.275 459.838 103.777 460.019 104.203C460.203 104.631 460.462 104.962 460.796 105.198C461.132 105.435 461.527 105.553 461.98 105.553C462.278 105.553 462.548 105.501 462.791 105.398C463.034 105.294 463.239 105.146 463.407 104.951C463.576 104.757 463.695 104.524 463.766 104.252H464.912C464.847 104.692 464.687 105.088 464.431 105.442C464.179 105.791 463.844 106.069 463.426 106.276C463.012 106.48 462.53 106.582 461.98 106.582ZM469.712 106.582C468.995 106.582 468.375 106.424 467.853 106.106C467.336 105.786 466.937 105.339 466.654 104.767C466.376 104.191 466.237 103.521 466.237 102.756C466.237 101.993 466.376 101.32 466.654 100.737C466.937 100.151 467.328 99.6955 467.83 99.3684C468.335 99.0384 468.923 98.8734 469.596 98.8734C469.985 98.8734 470.369 98.9378 470.746 99.0677C471.125 99.1975 471.47 99.4074 471.78 99.6984C472.092 99.9864 472.339 100.368 472.523 100.845C472.708 101.32 472.8 101.906 472.8 102.601V103.087H467.053V102.096H471.635C471.635 101.676 471.551 101.301 471.383 100.971C471.218 100.641 470.982 100.38 470.674 100.19C470.37 99.9982 470.01 99.9025 469.596 99.9025C469.14 99.9025 468.745 100.016 468.412 100.242C468.082 100.466 467.828 100.757 467.65 101.116C467.472 101.475 467.383 101.86 467.383 102.271V102.931C467.383 103.495 467.48 103.972 467.674 104.364C467.872 104.752 468.145 105.048 468.495 105.252C468.844 105.452 469.251 105.553 469.712 105.553C470.014 105.553 470.286 105.511 470.529 105.427C470.775 105.339 470.987 105.21 471.164 105.038C471.342 104.864 471.48 104.647 471.577 104.388L472.684 104.699C472.567 105.074 472.371 105.404 472.097 105.689C471.821 105.971 471.482 106.19 471.077 106.349C470.672 106.505 470.218 106.582 469.712 106.582Z" fill="#475467"/>
<path d="M62.3298 139.808V139.058L65.1425 135.979C65.4726 135.619 65.7444 135.305 65.958 135.039C66.1716 134.769 66.3297 134.517 66.4323 134.281C66.5377 134.043 66.5904 133.793 66.5904 133.532C66.5904 133.234 66.5183 132.974 66.374 132.754C66.2326 132.535 66.0384 132.366 65.7916 132.247C65.5447 132.127 65.2673 132.068 64.9594 132.068C64.6321 132.068 64.3463 132.136 64.1022 132.272C63.861 132.406 63.6737 132.592 63.5406 132.833C63.4102 133.075 63.3451 133.358 63.3451 133.683H62.3631C62.3631 133.183 62.4782 132.745 62.7084 132.367C62.9387 131.991 63.2521 131.697 63.6488 131.486C64.0481 131.275 64.4962 131.169 64.9927 131.169C65.4919 131.169 65.9344 131.275 66.32 131.486C66.7055 131.697 67.0079 131.981 67.227 132.338C67.4462 132.696 67.5557 133.094 67.5557 133.532C67.5557 133.846 67.4988 134.152 67.3852 134.452C67.2741 134.749 67.08 135.081 66.8026 135.447C66.528 135.81 66.1466 136.254 65.6584 136.778L63.7445 138.825V138.892H67.7055V139.808H62.3298ZM72.0868 139.924C71.5986 139.924 71.1589 139.826 70.7678 139.633C70.3767 139.438 70.0633 139.172 69.8275 138.833C69.5917 138.495 69.4627 138.11 69.4406 137.677H70.4391C70.478 138.063 70.6528 138.381 70.9633 138.634C71.2769 138.883 71.6513 139.008 72.0868 139.008C72.4363 139.008 72.7469 138.927 73.0187 138.763C73.2934 138.599 73.5084 138.374 73.6638 138.089C73.8218 137.8 73.9009 137.474 73.9009 137.111C73.9009 136.739 73.819 136.408 73.6554 136.117C73.4945 135.823 73.2726 135.591 72.9897 135.422C72.7067 135.253 72.3836 135.167 72.0202 135.164C71.7595 135.161 71.4918 135.201 71.2172 135.284C70.9425 135.365 70.7165 135.468 70.539 135.596L69.5736 135.48L70.0896 131.286H74.5166V132.201H70.955L70.6555 134.715H70.7054C70.8802 134.576 71.0993 134.461 71.3628 134.369C71.6263 134.277 71.901 134.231 72.1867 134.231C72.7082 134.231 73.1727 134.356 73.5805 134.606C73.991 134.853 74.3128 135.191 74.5458 135.622C74.7815 136.051 74.8995 136.543 74.8995 137.094C74.8995 137.638 74.7774 138.123 74.5333 138.551C74.292 138.975 73.9591 139.311 73.5348 139.558C73.1103 139.802 72.6277 139.924 72.0868 139.924ZM79.3317 139.924C78.7049 139.924 78.1709 139.753 77.7298 139.412C77.2888 139.067 76.9517 138.57 76.7188 137.918C76.4857 137.263 76.3692 136.473 76.3692 135.547C76.3692 134.626 76.4857 133.839 76.7188 133.188C76.9545 132.532 77.2929 132.034 77.7339 131.69C78.1778 131.342 78.7103 131.169 79.3317 131.169C79.9531 131.169 80.4842 131.342 80.9253 131.69C81.369 132.034 81.7075 132.532 81.9405 133.188C82.1763 133.839 82.2942 134.626 82.2942 135.547C82.2942 136.473 82.1777 137.263 81.9446 137.918C81.7117 138.57 81.3746 139.067 80.9336 139.412C80.4925 139.753 79.9585 139.924 79.3317 139.924ZM79.3317 139.008C79.9531 139.008 80.4357 138.708 80.7797 138.11C81.1236 137.51 81.2956 136.656 81.2956 135.547C81.2956 134.808 81.2165 134.181 81.0585 133.661C80.9031 133.143 80.6784 132.747 80.3844 132.476C80.0931 132.204 79.7423 132.068 79.3317 132.068C78.7159 132.068 78.2346 132.371 77.8879 132.98C77.5412 133.584 77.3678 134.439 77.3678 135.547C77.3678 136.285 77.4455 136.912 77.6009 137.427C77.7562 137.943 77.9795 138.335 78.2708 138.605C78.5647 138.874 78.9184 139.008 79.3317 139.008Z" fill="#969DAA"/>
<path d="M90.8042 135.902H541.897" stroke="#D5D8DD" stroke-width="0.975" stroke-dasharray="3.9 3.9"/>
<path d="M62.1352 189.334V188.585L64.9479 185.507C65.2779 185.145 65.5497 184.832 65.7634 184.566C65.9769 184.297 66.1351 184.044 66.2377 183.809C66.343 183.57 66.3958 183.32 66.3958 183.06C66.3958 182.76 66.3237 182.501 66.1794 182.282C66.0379 182.063 65.8438 181.893 65.5969 181.774C65.3501 181.655 65.0727 181.595 64.7648 181.595C64.4374 181.595 64.1517 181.664 63.9076 181.799C63.6664 181.932 63.4791 182.119 63.3459 182.361C63.2156 182.602 63.1504 182.885 63.1504 183.209H62.1685C62.1685 182.71 62.2836 182.272 62.5138 181.895C62.7441 181.517 63.0575 181.223 63.4541 181.012C63.8535 180.801 64.3015 180.697 64.7981 180.697C65.2973 180.697 65.7397 180.801 66.1253 181.012C66.5109 181.223 66.8133 181.507 67.0324 181.866C67.2515 182.223 67.3611 182.621 67.3611 183.06C67.3611 183.373 67.3042 183.68 67.1905 183.979C67.0795 184.276 66.8853 184.607 66.608 184.973C66.3334 185.337 65.952 185.781 65.4638 186.305L63.5498 188.352V188.419H67.5109V189.334H62.1352ZM72.0087 189.45C71.3818 189.45 70.8478 189.28 70.4068 188.939C69.9657 188.595 69.6287 188.097 69.3957 187.445C69.1627 186.791 69.0462 186 69.0462 185.073C69.0462 184.152 69.1627 183.366 69.3957 182.714C69.6314 182.06 69.9699 181.56 70.4109 181.216C70.8548 180.87 71.3873 180.697 72.0087 180.697C72.63 180.697 73.1612 180.87 73.6022 181.216C74.046 181.56 74.3844 182.06 74.6175 182.714C74.8533 183.366 74.9711 184.152 74.9711 185.073C74.9711 186 74.8546 186.791 74.6216 187.445C74.3886 188.097 74.0516 188.595 73.6105 188.939C73.1695 189.28 72.6355 189.45 72.0087 189.45ZM72.0087 188.535C72.63 188.535 73.1127 188.236 73.4566 187.636C73.8005 187.038 73.9726 186.183 73.9726 185.073C73.9726 184.336 73.8935 183.707 73.7354 183.189C73.5801 182.67 73.3554 182.275 73.0613 182.003C72.77 181.731 72.4192 181.595 72.0087 181.595C71.3928 181.595 70.9116 181.899 70.5649 182.506C70.2181 183.111 70.0447 183.967 70.0447 185.073C70.0447 185.811 70.1225 186.438 70.2778 186.955C70.4332 187.47 70.6564 187.863 70.9477 188.132C71.2417 188.401 71.5953 188.535 72.0087 188.535ZM79.3316 189.45C78.7047 189.45 78.1708 189.28 77.7297 188.939C77.2887 188.595 76.9516 188.097 76.7187 187.445C76.4856 186.791 76.3691 186 76.3691 185.073C76.3691 184.152 76.4856 183.366 76.7187 182.714C76.9544 182.06 77.2928 181.56 77.7338 181.216C78.1777 180.87 78.7102 180.697 79.3316 180.697C79.953 180.697 80.4841 180.87 80.9252 181.216C81.3689 181.56 81.7073 182.06 81.9404 182.714C82.1762 183.366 82.2941 184.152 82.2941 185.073C82.2941 186 82.1776 186.791 81.9445 187.445C81.7115 188.097 81.3745 188.595 80.9335 188.939C80.4924 189.28 79.9584 189.45 79.3316 189.45ZM79.3316 188.535C79.953 188.535 80.4356 188.236 80.7796 187.636C81.1235 187.038 81.2955 186.183 81.2955 185.073C81.2955 184.336 81.2164 183.707 81.0583 183.189C80.903 182.67 80.6783 182.275 80.3842 182.003C80.093 181.731 79.7422 181.595 79.3316 181.595C78.7158 181.595 78.2345 181.899 77.8878 182.506C77.5411 183.111 77.3677 183.967 77.3677 185.073C77.3677 185.811 77.4454 186.438 77.6007 186.955C77.7561 187.47 77.9794 187.863 78.2706 188.132C78.5646 188.401 78.9183 188.535 79.3316 188.535Z" fill="#969DAA"/>
<path d="M90.8042 185.428H541.897" stroke="#D5D8DD" stroke-width="0.975" stroke-dasharray="3.9 3.9"/>
<path d="M66.9732 230.34V238.862H65.9413V231.421H65.8913L63.8109 232.803V231.754L65.9413 230.34H66.9732ZM72.0867 238.978C71.5985 238.978 71.1588 238.881 70.7677 238.687C70.3767 238.492 70.0632 238.226 69.8274 237.888C69.5916 237.549 69.4627 237.164 69.4405 236.731H70.4391C70.4779 237.117 70.6527 237.435 70.9633 237.688C71.2768 237.938 71.6512 238.063 72.0867 238.063C72.4363 238.063 72.7469 237.981 73.0187 237.817C73.2933 237.654 73.5083 237.428 73.6637 237.143C73.8218 236.854 73.9008 236.529 73.9008 236.165C73.9008 235.794 73.8189 235.462 73.6553 235.171C73.4945 234.877 73.2725 234.645 72.9896 234.476C72.7066 234.307 72.3835 234.221 72.0201 234.218C71.7594 234.215 71.4917 234.255 71.2171 234.339C70.9425 234.419 70.7164 234.523 70.5389 234.65L69.5736 234.534L70.0895 230.34H74.5166V231.255H70.955L70.6554 233.769H70.7053C70.8801 233.63 71.0992 233.515 71.3627 233.423C71.6263 233.331 71.9009 233.285 72.1866 233.285C72.7081 233.285 73.1727 233.41 73.5804 233.66C73.991 233.907 74.3127 234.245 74.5458 234.676C74.7815 235.105 74.8994 235.596 74.8994 236.148C74.8994 236.692 74.7774 237.177 74.5333 237.605C74.2919 238.029 73.959 238.365 73.5347 238.612C73.1103 238.856 72.6276 238.978 72.0867 238.978ZM79.3316 238.978C78.7048 238.978 78.1708 238.807 77.7298 238.466C77.2887 238.122 76.9517 237.624 76.7187 236.972C76.4857 236.318 76.3692 235.527 76.3692 234.601C76.3692 233.68 76.4857 232.894 76.7187 232.242C76.9544 231.586 77.2928 231.087 77.7339 230.744C78.1777 230.397 78.7103 230.223 79.3316 230.223C79.953 230.223 80.4842 230.397 80.9252 230.744C81.369 231.087 81.7074 231.586 81.9405 232.242C82.1763 232.894 82.2941 233.68 82.2941 234.601C82.2941 235.527 82.1776 236.318 81.9446 236.972C81.7116 237.624 81.3745 238.122 80.9335 238.466C80.4925 238.807 79.9585 238.978 79.3316 238.978ZM79.3316 238.063C79.953 238.063 80.4356 237.763 80.7796 237.164C81.1235 236.564 81.2956 235.71 81.2956 234.601C81.2956 233.862 81.2165 233.235 81.0584 232.716C80.903 232.197 80.6784 231.802 80.3843 231.53C80.093 231.258 79.7422 231.123 79.3316 231.123C78.7158 231.123 78.2346 231.426 77.8878 232.034C77.5411 232.638 77.3677 233.494 77.3677 234.601C77.3677 235.339 77.4454 235.966 77.6008 236.481C77.7561 236.998 77.9794 237.39 78.2707 237.659C78.5647 237.928 78.9183 238.063 79.3316 238.063Z" fill="#969DAA"/>
<path d="M90.8042 234.956H541.897" stroke="#D5D8DD" stroke-width="0.975" stroke-dasharray="3.9 3.9"/>
<path d="M66.7788 279.867V288.388H65.7468V280.949H65.6969L63.6165 282.331V281.282L65.7468 279.867H66.7788ZM72.0088 288.505C71.382 288.505 70.848 288.334 70.407 287.993C69.9659 287.649 69.6289 287.151 69.3959 286.5C69.1628 285.845 69.0464 285.055 69.0464 284.128C69.0464 283.207 69.1628 282.42 69.3959 281.768C69.6316 281.114 69.97 280.615 70.4111 280.27C70.8549 279.924 71.3875 279.751 72.0088 279.751C72.6302 279.751 73.1614 279.924 73.6024 280.27C74.0462 280.615 74.3846 281.114 74.6176 281.768C74.8534 282.42 74.9713 283.207 74.9713 284.128C74.9713 285.055 74.8548 285.845 74.6217 286.5C74.3888 287.151 74.0517 287.649 73.6107 287.993C73.1697 288.334 72.6357 288.505 72.0088 288.505ZM72.0088 287.589C72.6302 287.589 73.1128 287.29 73.4568 286.691C73.8007 286.092 73.9727 285.237 73.9727 284.128C73.9727 283.39 73.8937 282.762 73.7356 282.243C73.5802 281.724 73.3556 281.329 73.0615 281.057C72.7702 280.785 72.4194 280.649 72.0088 280.649C71.393 280.649 70.9118 280.953 70.565 281.56C70.2183 282.165 70.0449 283.021 70.0449 284.128C70.0449 284.865 70.1226 285.492 70.278 286.009C70.4333 286.524 70.6566 286.917 70.9479 287.186C71.2419 287.455 71.5955 287.589 72.0088 287.589ZM79.3318 288.505C78.7049 288.505 78.1709 288.334 77.7299 287.993C77.2889 287.649 76.9518 287.151 76.7188 286.5C76.4858 285.845 76.3693 285.055 76.3693 284.128C76.3693 283.207 76.4858 282.42 76.7188 281.768C76.9545 281.114 77.293 280.615 77.734 280.27C78.1779 279.924 78.7104 279.751 79.3318 279.751C79.9531 279.751 80.4843 279.924 80.9253 280.27C81.3691 280.615 81.7075 281.114 81.9406 281.768C82.1764 282.42 82.2942 283.207 82.2942 284.128C82.2942 285.055 82.1777 285.845 81.9447 286.5C81.7117 287.151 81.3747 287.649 80.9336 287.993C80.4926 288.334 79.9586 288.505 79.3318 288.505ZM79.3318 287.589C79.9531 287.589 80.4358 287.29 80.7798 286.691C81.1236 286.092 81.2957 285.237 81.2957 284.128C81.2957 283.39 81.2166 282.762 81.0585 282.243C80.9032 281.724 80.6785 281.329 80.3844 281.057C80.0932 280.785 79.7423 280.649 79.3318 280.649C78.716 280.649 78.2347 280.953 77.888 281.56C77.5413 282.165 77.3678 283.021 77.3678 284.128C77.3678 284.865 77.4456 285.492 77.6009 286.009C77.7563 286.524 77.9796 286.917 78.2708 287.186C78.5648 287.455 78.9185 287.589 79.3318 287.589Z" fill="#969DAA"/>
<path d="M90.8042 284.482H541.897" stroke="#D5D8DD" stroke-width="0.975" stroke-dasharray="3.9 3.9"/>
<path d="M72.0867 338.032C71.5985 338.032 71.1589 337.935 70.7677 337.741C70.3767 337.546 70.0633 337.28 69.8275 336.942C69.5917 336.603 69.4627 336.218 69.4405 335.785H70.4391C70.4779 336.171 70.6527 336.49 70.9633 336.742C71.2768 336.992 71.6513 337.117 72.0867 337.117C72.4363 337.117 72.7469 337.035 73.0187 336.871C73.2934 336.708 73.5084 336.483 73.6637 336.197C73.8218 335.909 73.9009 335.583 73.9009 335.22C73.9009 334.848 73.819 334.516 73.6553 334.225C73.4945 333.931 73.2726 333.699 72.9896 333.53C72.7067 333.361 72.3836 333.275 72.0202 333.272C71.7595 333.269 71.4917 333.31 71.2172 333.393C70.9425 333.473 70.7165 333.577 70.539 333.704L69.5736 333.588L70.0895 329.395H74.5166V330.309H70.955L70.6554 332.823H70.7053C70.8801 332.684 71.0992 332.569 71.3627 332.477C71.6263 332.386 71.9009 332.34 72.1866 332.34C72.7081 332.34 73.1727 332.465 73.5804 332.714C73.991 332.961 74.3127 333.3 74.5458 333.73C74.7815 334.159 74.8994 334.65 74.8994 335.203C74.8994 335.746 74.7774 336.232 74.5333 336.659C74.2919 337.084 73.9591 337.419 73.5347 337.666C73.1103 337.91 72.6277 338.032 72.0867 338.032ZM79.3317 338.032C78.7048 338.032 78.1708 337.862 77.7298 337.52C77.2888 337.176 76.9517 336.678 76.7187 336.026C76.4857 335.372 76.3692 334.581 76.3692 333.655C76.3692 332.734 76.4857 331.948 76.7187 331.296C76.9544 330.641 77.2929 330.141 77.7339 329.798C78.1778 329.451 78.7103 329.277 79.3317 329.277C79.953 329.277 80.4842 329.451 80.9252 329.798C81.369 330.141 81.7074 330.641 81.9405 331.296C82.1763 331.948 82.2941 332.734 82.2941 333.655C82.2941 334.581 82.1776 335.372 81.9446 336.026C81.7116 336.678 81.3746 337.176 80.9335 337.52C80.4925 337.862 79.9585 338.032 79.3317 338.032ZM79.3317 337.117C79.953 337.117 80.4357 336.817 80.7797 336.218C81.1235 335.619 81.2956 334.765 81.2956 333.655C81.2956 332.917 81.2165 332.289 81.0584 331.77C80.9031 331.252 80.6784 330.856 80.3843 330.584C80.0931 330.312 79.7422 330.177 79.3317 330.177C78.7159 330.177 78.2346 330.48 77.8879 331.088C77.5412 331.692 77.3677 332.548 77.3677 333.655C77.3677 334.393 77.4455 335.02 77.6008 335.535C77.7562 336.052 77.9795 336.444 78.2707 336.713C78.5647 336.982 78.9184 337.117 79.3317 337.117Z" fill="#969DAA"/>
<path d="M90.8042 334.01H541.897" stroke="#D5D8DD" stroke-width="0.975" stroke-dasharray="3.9 3.9"/>
<path d="M79.3316 387.559C78.7047 387.559 78.1707 387.388 77.7297 387.047C77.2887 386.703 76.9516 386.206 76.7186 385.554C76.4856 384.898 76.3691 384.109 76.3691 383.182C76.3691 382.261 76.4856 381.474 76.7186 380.823C76.9543 380.168 77.2928 379.669 77.7338 379.325C78.1777 378.979 78.7102 378.805 79.3316 378.805C79.9529 378.805 80.4841 378.979 80.9251 379.325C81.3689 379.669 81.7073 380.168 81.9404 380.823C82.1762 381.474 82.294 382.261 82.294 383.182C82.294 384.109 82.1776 384.898 81.9445 385.554C81.7115 386.206 81.3745 386.703 80.9334 387.047C80.4924 387.388 79.9584 387.559 79.3316 387.559ZM79.3316 386.643C79.9529 386.643 80.4356 386.344 80.7796 385.745C81.1234 385.145 81.2955 384.291 81.2955 383.182C81.2955 382.444 81.2164 381.816 81.0583 381.298C80.903 380.778 80.6783 380.383 80.3842 380.111C80.093 379.84 79.7421 379.703 79.3316 379.703C78.7158 379.703 78.2345 380.007 77.8878 380.615C77.5411 381.219 77.3677 382.075 77.3677 383.182C77.3677 383.92 77.4454 384.547 77.6007 385.062C77.7561 385.578 77.9794 385.971 78.2706 386.24C78.5646 386.509 78.9183 386.643 79.3316 386.643Z" fill="#969DAA"/>
<path d="M90.8042 383.537H541.897" stroke="#D5D8DD" stroke-width="0.975"/>
<path d="M206.234 202.443H125.844V238.699H206.234V202.443Z" fill="#D67FF5"/>
<path d="M206.234 238.699H125.844V274.955H206.234V238.699Z" fill="#FCAE49"/>
<path d="M206.234 274.956H125.844V311.211H206.234V274.956Z" fill="#FCAE49"/>
<path d="M206.234 311.209H125.844V347.465H206.234V311.209Z" fill="#FCAE49"/>
<path d="M206.234 347.466H125.844V383.721H206.234V347.466Z" fill="#1CC2D4"/>
<path d="M353.994 172.231H273.604V214.529H353.994V172.231Z" fill="#D67FF5"/>
<path d="M353.994 214.53H273.604V256.828H353.994V214.53Z" fill="#FCAE49"/>
<path d="M273.604 256.827H353.995V299.125H273.604V256.827Z" fill="#1CC2D4"/>
<path d="M273.604 257.315H353.995V256.339H273.604V257.315ZM353.995 298.637H273.604V299.614H353.995V298.637Z" fill="#1CC2D4"/>
<path d="M353.506 299.613H274.093V340.934H353.506V299.613Z" fill="#1CC2D4" stroke="#1CC2D4" stroke-width="0.975"/>
<path d="M273.604 341.425H353.995V383.723H273.604V341.425Z" fill="#1CC2D4"/>
<mask id="mask0_102_3180" style="mask-type:luminance" maskUnits="userSpaceOnUse" x="273" y="341" width="81" height="43">
<path d="M273.604 341.425H353.995V383.723H273.604V341.425Z" fill="white"/>
</mask>
<g mask="url(#mask0_102_3180)">
<path d="M273.604 342.401H353.995V340.448H273.604V342.401Z" fill="#1CC2D4"/>
</g>
<path d="M501.754 172.231H421.365V214.529H501.754V172.231Z" fill="#D67FF5"/>
<path d="M501.266 215.018H421.853V256.34H501.266V215.018Z" fill="#FCAE49" stroke="#FCAE49" stroke-width="0.975"/>
<path d="M501.266 257.315H421.853V298.637H501.266V257.315Z" fill="#FCAE49" stroke="#FCAE49" stroke-width="0.975"/>
<path d="M501.266 299.613H421.853V340.934H501.266V299.613Z" fill="#1CC2D4" stroke="#1CC2D4" stroke-width="0.975"/>
<path d="M501.266 341.913H421.853V383.235H501.266V341.913Z" fill="#1CC2D4" stroke="#1CC2D4" stroke-width="0.975"/>
<path d="M146.422 398.989C146.422 399.888 146.259 400.664 145.935 401.319C145.61 401.974 145.165 402.478 144.6 402.834C144.033 403.189 143.387 403.366 142.66 403.366C141.934 403.366 141.288 403.189 140.721 402.834C140.156 402.478 139.711 401.974 139.386 401.319C139.061 400.664 138.899 399.888 138.899 398.989C138.899 398.09 139.061 397.313 139.386 396.659C139.711 396.005 140.156 395.499 140.721 395.145C141.288 394.789 141.934 394.612 142.66 394.612C143.387 394.612 144.033 394.789 144.6 395.145C145.165 395.499 145.61 396.005 145.935 396.659C146.259 397.313 146.422 398.09 146.422 398.989ZM145.423 398.989C145.423 398.252 145.3 397.629 145.053 397.121C144.808 396.613 144.478 396.229 144.059 395.969C143.643 395.708 143.176 395.577 142.66 395.577C142.144 395.577 141.677 395.708 141.258 395.969C140.842 396.229 140.51 396.613 140.263 397.121C140.019 397.629 139.897 398.252 139.897 398.989C139.897 399.727 140.019 400.35 140.263 400.858C140.51 401.365 140.842 401.749 141.258 402.01C141.677 402.27 142.144 402.401 142.66 402.401C143.176 402.401 143.643 402.27 144.059 402.01C144.478 401.749 144.808 401.365 145.053 400.858C145.3 400.35 145.423 399.727 145.423 398.989ZM150.62 403.382C150.02 403.382 149.505 403.241 149.072 402.959C148.639 402.676 148.307 402.286 148.074 401.789C147.84 401.293 147.724 400.726 147.724 400.087C147.724 399.439 147.843 398.866 148.081 398.369C148.324 397.87 148.658 397.48 149.089 397.2C149.522 396.917 150.026 396.775 150.603 396.775C151.053 396.775 151.458 396.859 151.818 397.025C152.178 397.191 152.474 397.425 152.705 397.724C152.935 398.024 153.078 398.374 153.133 398.773H152.151C152.076 398.481 151.91 398.223 151.652 397.999C151.396 397.771 151.053 397.658 150.62 397.658C150.237 397.658 149.901 397.758 149.613 397.958C149.327 398.154 149.104 398.433 148.944 398.793C148.785 399.152 148.706 399.572 148.706 400.054C148.706 400.548 148.783 400.978 148.939 401.344C149.097 401.71 149.318 401.994 149.605 402.197C149.894 402.399 150.231 402.501 150.62 402.501C150.875 402.501 151.106 402.457 151.314 402.368C151.523 402.279 151.699 402.151 151.843 401.985C151.987 401.818 152.09 401.619 152.151 401.386H153.133C153.078 401.763 152.94 402.102 152.721 402.405C152.504 402.705 152.217 402.943 151.86 403.121C151.505 403.296 151.092 403.382 150.62 403.382ZM157.347 396.859V397.691H154.035V396.859H157.347ZM155.001 395.327H155.983V401.419C155.983 401.696 156.023 401.904 156.103 402.043C156.187 402.179 156.292 402.27 156.42 402.317C156.551 402.362 156.687 402.385 156.832 402.385C156.94 402.385 157.029 402.379 157.098 402.368C157.168 402.353 157.223 402.343 157.264 402.334L157.464 403.217C157.398 403.241 157.304 403.266 157.185 403.292C157.066 403.319 156.915 403.333 156.732 403.333C156.455 403.333 156.182 403.273 155.917 403.154C155.653 403.035 155.434 402.853 155.259 402.609C155.087 402.365 155.001 402.057 155.001 401.686V395.327ZM162.103 403.25V402.501L164.916 399.422C165.246 399.061 165.518 398.748 165.732 398.481C165.945 398.213 166.104 397.96 166.206 397.724C166.312 397.486 166.364 397.236 166.364 396.975C166.364 396.676 166.292 396.416 166.148 396.197C166.006 395.979 165.812 395.809 165.566 395.69C165.319 395.57 165.041 395.511 164.733 395.511C164.406 395.511 164.121 395.578 163.876 395.715C163.634 395.848 163.448 396.035 163.314 396.276C163.184 396.518 163.119 396.801 163.119 397.125H162.137C162.137 396.626 162.252 396.187 162.482 395.811C162.713 395.433 163.026 395.139 163.422 394.928C163.822 394.717 164.27 394.612 164.766 394.612C165.266 394.612 165.708 394.717 166.094 394.928C166.48 395.139 166.781 395.423 167.001 395.781C167.22 396.139 167.329 396.537 167.329 396.975C167.329 397.289 167.272 397.595 167.159 397.895C167.048 398.192 166.853 398.523 166.576 398.889C166.302 399.252 165.92 399.697 165.432 400.221L163.518 402.267V402.334H167.479V403.25H162.103ZM171.977 403.366C171.35 403.366 170.816 403.196 170.375 402.854C169.934 402.511 169.597 402.013 169.364 401.36C169.131 400.706 169.014 399.915 169.014 398.989C169.014 398.068 169.131 397.282 169.364 396.63C169.6 395.976 169.938 395.476 170.379 395.132C170.823 394.785 171.356 394.612 171.977 394.612C172.599 394.612 173.13 394.785 173.571 395.132C174.014 395.476 174.353 395.976 174.586 396.63C174.822 397.282 174.94 398.068 174.94 398.989C174.94 399.915 174.823 400.706 174.59 401.36C174.357 402.013 174.02 402.511 173.579 402.854C173.138 403.196 172.603 403.366 171.977 403.366ZM171.977 402.451C172.599 402.451 173.081 402.151 173.425 401.552C173.769 400.953 173.941 400.099 173.941 398.989C173.941 398.252 173.862 397.623 173.704 397.104C173.549 396.586 173.324 396.19 173.03 395.918C172.738 395.647 172.388 395.511 171.977 395.511C171.361 395.511 170.88 395.814 170.533 396.422C170.187 397.026 170.013 397.882 170.013 398.989C170.013 399.727 170.091 400.354 170.246 400.869C170.402 401.386 170.624 401.778 170.916 402.047C171.21 402.316 171.564 402.451 171.977 402.451ZM176.521 403.25V402.501L179.334 399.422C179.664 399.061 179.935 398.748 180.149 398.481C180.362 398.213 180.52 397.96 180.624 397.724C180.728 397.486 180.781 397.236 180.781 396.975C180.781 396.676 180.709 396.416 180.565 396.197C180.423 395.979 180.229 395.809 179.982 395.69C179.735 395.57 179.458 395.511 179.15 395.511C178.823 395.511 178.537 395.578 178.293 395.715C178.052 395.848 177.864 396.035 177.731 396.276C177.601 396.518 177.536 396.801 177.536 397.125H176.554C176.554 396.626 176.669 396.187 176.9 395.811C177.129 395.433 177.442 395.139 177.84 394.928C178.239 394.717 178.687 394.612 179.183 394.612C179.682 394.612 180.126 394.717 180.51 394.928C180.896 395.139 181.199 395.423 181.417 395.781C181.637 396.139 181.746 396.537 181.746 396.975C181.746 397.289 181.69 397.595 181.576 397.895C181.465 398.192 181.271 398.523 180.994 398.889C180.719 399.252 180.337 399.697 179.849 400.221L177.936 402.267V402.334H181.897V403.25H176.521ZM186.494 403.366C185.945 403.366 185.455 403.272 185.025 403.084C184.598 402.894 184.259 402.633 184.006 402.297C183.756 401.959 183.62 401.566 183.598 401.119H184.646C184.669 401.394 184.763 401.631 184.929 401.831C185.095 402.028 185.314 402.181 185.583 402.289C185.852 402.396 186.15 402.451 186.477 402.451C186.843 402.451 187.168 402.387 187.45 402.26C187.734 402.132 187.955 401.954 188.116 401.727C188.277 401.499 188.358 401.236 188.358 400.937C188.358 400.623 188.28 400.347 188.125 400.109C187.97 399.867 187.742 399.678 187.443 399.542C187.143 399.407 186.777 399.338 186.344 399.338H185.662V398.423H186.344C186.682 398.423 186.979 398.362 187.235 398.24C187.492 398.118 187.694 397.946 187.838 397.724C187.985 397.503 188.059 397.242 188.059 396.942C188.059 396.653 187.994 396.402 187.867 396.188C187.739 395.976 187.559 395.809 187.326 395.69C187.096 395.57 186.824 395.511 186.51 395.511C186.216 395.511 185.939 395.565 185.678 395.673C185.421 395.778 185.21 395.933 185.046 396.135C184.883 396.335 184.794 396.576 184.78 396.859H183.781C183.798 396.412 183.933 396.021 184.184 395.686C184.437 395.347 184.767 395.083 185.174 394.895C185.586 394.706 186.037 394.612 186.527 394.612C187.054 394.612 187.506 394.719 187.884 394.933C188.261 395.143 188.551 395.422 188.753 395.769C188.956 396.115 189.057 396.49 189.057 396.892C189.057 397.372 188.931 397.781 188.679 398.12C188.429 398.458 188.089 398.692 187.658 398.823V398.889C188.197 398.978 188.617 399.206 188.92 399.576C189.222 399.942 189.373 400.396 189.373 400.937C189.373 401.399 189.247 401.815 188.994 402.184C188.745 402.551 188.403 402.84 187.971 403.05C187.538 403.26 187.046 403.366 186.494 403.366Z" fill="#424F66"/>
<path d="M294.402 394.729V403.25H293.403L288.76 396.559H288.676V403.25H287.644V394.729H288.643L293.303 401.436H293.386V394.729H294.402ZM298.929 403.382C298.352 403.382 297.846 403.246 297.411 402.97C296.978 402.696 296.64 402.312 296.395 401.818C296.154 401.324 296.033 400.747 296.033 400.087C296.033 399.422 296.154 398.84 296.395 398.344C296.64 397.847 296.978 397.462 297.411 397.187C297.846 396.913 298.352 396.775 298.929 396.775C299.506 396.775 300.011 396.913 300.444 397.187C300.88 397.462 301.218 397.847 301.459 398.344C301.703 398.84 301.825 399.422 301.825 400.087C301.825 400.747 301.703 401.324 301.459 401.818C301.218 402.312 300.88 402.696 300.444 402.97C300.011 403.246 299.506 403.382 298.929 403.382ZM298.929 402.501C299.368 402.501 299.729 402.389 300.011 402.164C300.294 401.939 300.504 401.644 300.64 401.277C300.776 400.911 300.844 400.515 300.844 400.087C300.844 399.66 300.776 399.262 300.64 398.893C300.504 398.525 300.294 398.226 300.011 397.999C299.729 397.771 299.368 397.658 298.929 397.658C298.491 397.658 298.131 397.771 297.847 397.999C297.565 398.226 297.355 398.525 297.22 398.893C297.084 399.262 297.015 399.66 297.015 400.087C297.015 400.515 297.084 400.911 297.22 401.277C297.355 401.644 297.565 401.939 297.847 402.164C298.131 402.389 298.491 402.501 298.929 402.501ZM308.321 396.859L305.958 403.25H304.959L302.597 396.859H303.662L305.425 401.951H305.493L307.256 396.859H308.321ZM312.897 403.25V402.501L315.709 399.422C316.039 399.061 316.311 398.748 316.525 398.481C316.738 398.213 316.896 397.96 316.998 397.724C317.104 397.486 317.157 397.236 317.157 396.975C317.157 396.676 317.084 396.416 316.941 396.197C316.799 395.979 316.605 395.809 316.358 395.69C316.111 395.57 315.833 395.511 315.526 395.511C315.199 395.511 314.913 395.578 314.669 395.715C314.427 395.848 314.24 396.035 314.107 396.276C313.976 396.518 313.911 396.801 313.911 397.125H312.93C312.93 396.626 313.045 396.187 313.274 395.811C313.505 395.433 313.818 395.139 314.216 394.928C314.615 394.717 315.062 394.612 315.559 394.612C316.058 394.612 316.5 394.717 316.886 394.928C317.272 395.139 317.574 395.423 317.793 395.781C318.013 396.139 318.122 396.537 318.122 396.975C318.122 397.289 318.066 397.595 317.951 397.895C317.841 398.192 317.647 398.523 317.369 398.889C317.094 399.252 316.713 399.697 316.225 400.221L314.311 402.267V402.334H318.272V403.25H312.897ZM322.77 403.366C322.143 403.366 321.609 403.196 321.168 402.854C320.727 402.511 320.389 402.013 320.157 401.36C319.924 400.706 319.807 399.915 319.807 398.989C319.807 398.068 319.924 397.282 320.157 396.63C320.392 395.976 320.731 395.476 321.172 395.132C321.616 394.785 322.149 394.612 322.77 394.612C323.391 394.612 323.922 394.785 324.363 395.132C324.807 395.476 325.145 395.976 325.379 396.63C325.614 397.282 325.732 398.068 325.732 398.989C325.732 399.915 325.616 400.706 325.383 401.36C325.149 402.013 324.812 402.511 324.372 402.854C323.931 403.196 323.397 403.366 322.77 403.366ZM322.77 402.451C323.391 402.451 323.874 402.151 324.218 401.552C324.561 400.953 324.733 400.099 324.733 398.989C324.733 398.252 324.654 397.623 324.496 397.104C324.341 396.586 324.116 396.19 323.822 395.918C323.531 395.647 323.18 395.511 322.77 395.511C322.154 395.511 321.672 395.814 321.326 396.422C320.979 397.026 320.806 397.882 320.806 398.989C320.806 399.727 320.883 400.354 321.039 400.869C321.194 401.386 321.417 401.778 321.708 402.047C322.002 402.316 322.357 402.451 322.77 402.451ZM327.313 403.25V402.501L330.126 399.422C330.456 399.061 330.727 398.748 330.941 398.481C331.155 398.213 331.313 397.96 331.416 397.724C331.521 397.486 331.574 397.236 331.574 396.975C331.574 396.676 331.502 396.416 331.357 396.197C331.216 395.979 331.022 395.809 330.775 395.69C330.528 395.57 330.251 395.511 329.942 395.511C329.615 395.511 329.33 395.578 329.086 395.715C328.844 395.848 328.657 396.035 328.524 396.276C328.394 396.518 328.328 396.801 328.328 397.125H327.346C327.346 396.626 327.461 396.187 327.692 395.811C327.922 395.433 328.236 395.139 328.632 394.928C329.031 394.717 329.48 394.612 329.977 394.612C330.475 394.612 330.918 394.717 331.303 394.928C331.689 395.139 331.991 395.423 332.211 395.781C332.429 396.139 332.54 396.537 332.54 396.975C332.54 397.289 332.482 397.595 332.369 397.895C332.257 398.192 332.063 398.523 331.786 398.889C331.511 399.252 331.13 399.697 330.641 400.221L328.728 402.267V402.334H332.689V403.25H327.313ZM337.287 403.366C336.737 403.366 336.248 403.272 335.818 403.084C335.391 402.894 335.051 402.633 334.798 402.297C334.549 401.959 334.413 401.566 334.391 401.119H335.439C335.461 401.394 335.556 401.631 335.723 401.831C335.889 402.028 336.106 402.181 336.376 402.289C336.644 402.396 336.943 402.451 337.27 402.451C337.636 402.451 337.96 402.387 338.244 402.26C338.527 402.132 338.748 401.954 338.91 401.727C339.07 401.499 339.151 401.236 339.151 400.937C339.151 400.623 339.073 400.347 338.917 400.109C338.762 399.867 338.535 399.678 338.235 399.542C337.936 399.407 337.57 399.338 337.136 399.338H336.455V398.423H337.136C337.475 398.423 337.772 398.362 338.027 398.24C338.286 398.118 338.486 397.946 338.63 397.724C338.778 397.503 338.851 397.242 338.851 396.942C338.851 396.653 338.787 396.402 338.66 396.188C338.532 395.976 338.352 395.809 338.119 395.69C337.888 395.57 337.617 395.511 337.303 395.511C337.009 395.511 336.732 395.565 336.471 395.673C336.213 395.778 336.002 395.933 335.839 396.135C335.675 396.335 335.586 396.576 335.572 396.859H334.573C334.59 396.412 334.725 396.021 334.978 395.686C335.229 395.347 335.56 395.083 335.968 394.895C336.378 394.706 336.829 394.612 337.32 394.612C337.847 394.612 338.299 394.719 338.676 394.933C339.053 395.143 339.343 395.422 339.546 395.769C339.748 396.115 339.85 396.49 339.85 396.892C339.85 397.372 339.724 397.781 339.471 398.12C339.221 398.458 338.881 398.692 338.452 398.823V398.889C338.99 398.978 339.41 399.206 339.712 399.576C340.015 399.942 340.166 400.396 340.166 400.937C340.166 401.399 340.039 401.815 339.787 402.184C339.537 402.551 339.197 402.84 338.764 403.05C338.331 403.26 337.838 403.366 337.287 403.366Z" fill="#424F66"/>
<path d="M435.266 403.25H432.637V394.729H435.382C436.209 394.729 436.916 394.899 437.504 395.24C438.093 395.578 438.543 396.065 438.856 396.701C439.17 397.333 439.327 398.09 439.327 398.972C439.327 399.86 439.169 400.624 438.853 401.265C438.536 401.903 438.076 402.394 437.471 402.738C436.867 403.079 436.131 403.25 435.266 403.25ZM433.668 402.334H435.2C435.904 402.334 436.488 402.198 436.952 401.927C437.414 401.654 437.76 401.268 437.987 400.766C438.215 400.264 438.328 399.666 438.328 398.972C438.328 398.285 438.216 397.692 437.991 397.196C437.767 396.696 437.431 396.313 436.985 396.048C436.538 395.778 435.982 395.644 435.316 395.644H433.668V402.334ZM443.604 403.382C442.989 403.382 442.457 403.247 442.01 402.975C441.567 402.701 441.224 402.317 440.983 401.827C440.744 401.333 440.625 400.759 440.625 400.104C440.625 399.45 440.744 398.873 440.983 398.374C441.224 397.871 441.56 397.48 441.99 397.2C442.422 396.917 442.927 396.775 443.504 396.775C443.837 396.775 444.166 396.831 444.49 396.942C444.815 397.053 445.11 397.233 445.377 397.483C445.643 397.73 445.855 398.057 446.013 398.464C446.172 398.873 446.251 399.374 446.251 399.971V400.387H441.324V399.538H445.252C445.252 399.178 445.18 398.856 445.035 398.573C444.894 398.29 444.691 398.067 444.428 397.903C444.167 397.74 443.86 397.658 443.504 397.658C443.114 397.658 442.775 397.755 442.489 397.949C442.206 398.14 441.989 398.39 441.835 398.698C441.683 399.005 441.607 399.335 441.607 399.688V400.254C441.607 400.736 441.69 401.146 441.857 401.481C442.026 401.814 442.26 402.068 442.56 402.243C442.86 402.415 443.207 402.501 443.604 402.501C443.862 402.501 444.095 402.465 444.303 402.392C444.514 402.317 444.695 402.207 444.849 402.06C445.001 401.91 445.119 401.724 445.202 401.502L446.15 401.769C446.051 402.09 445.883 402.373 445.647 402.617C445.411 402.858 445.12 403.048 444.773 403.183C444.427 403.316 444.037 403.382 443.604 403.382ZM450.341 403.382C449.741 403.382 449.226 403.241 448.792 402.959C448.36 402.676 448.027 402.286 447.794 401.789C447.561 401.293 447.445 400.726 447.445 400.087C447.445 399.439 447.564 398.866 447.802 398.369C448.043 397.87 448.379 397.48 448.809 397.2C449.242 396.917 449.747 396.775 450.324 396.775C450.773 396.775 451.179 396.859 451.539 397.025C451.899 397.191 452.195 397.425 452.425 397.724C452.655 398.024 452.798 398.374 452.853 398.773H451.872C451.797 398.481 451.631 398.223 451.372 397.999C451.117 397.771 450.773 397.658 450.341 397.658C449.958 397.658 449.622 397.758 449.333 397.958C449.048 398.154 448.824 398.433 448.663 398.793C448.505 399.152 448.426 399.572 448.426 400.054C448.426 400.548 448.504 400.978 448.659 401.344C448.818 401.71 449.039 401.994 449.325 402.197C449.613 402.399 449.952 402.501 450.341 402.501C450.596 402.501 450.827 402.457 451.035 402.368C451.243 402.279 451.42 402.151 451.563 401.985C451.708 401.818 451.81 401.619 451.872 401.386H452.853C452.798 401.763 452.661 402.102 452.442 402.405C452.225 402.705 451.938 402.943 451.58 403.121C451.225 403.296 450.812 403.382 450.341 403.382ZM457.568 403.25V402.501L460.38 399.422C460.71 399.061 460.982 398.748 461.196 398.481C461.409 398.213 461.567 397.96 461.67 397.724C461.775 397.486 461.828 397.236 461.828 396.975C461.828 396.676 461.756 396.416 461.612 396.197C461.471 395.979 461.276 395.809 461.029 395.69C460.782 395.57 460.505 395.511 460.197 395.511C459.87 395.511 459.584 395.578 459.34 395.715C459.099 395.848 458.912 396.035 458.779 396.276C458.648 396.518 458.583 396.801 458.583 397.125H457.601C457.601 396.626 457.716 396.187 457.946 395.811C458.176 395.433 458.49 395.139 458.886 394.928C459.286 394.717 459.734 394.612 460.231 394.612C460.73 394.612 461.172 394.717 461.558 394.928C461.943 395.139 462.246 395.423 462.465 395.781C462.684 396.139 462.794 396.537 462.794 396.975C462.794 397.289 462.737 397.595 462.623 397.895C462.512 398.192 462.318 398.523 462.041 398.889C461.766 399.252 461.385 399.697 460.897 400.221L458.982 402.267V402.334H462.943V403.25H457.568ZM467.441 403.366C466.814 403.366 466.28 403.196 465.839 402.854C465.398 402.511 465.061 402.013 464.828 401.36C464.595 400.706 464.479 399.915 464.479 398.989C464.479 398.068 464.595 397.282 464.828 396.63C465.064 395.976 465.403 395.476 465.843 395.132C466.287 394.785 466.819 394.612 467.441 394.612C468.062 394.612 468.593 394.785 469.035 395.132C469.478 395.476 469.817 395.976 470.05 396.63C470.286 397.282 470.404 398.068 470.404 398.989C470.404 399.915 470.288 400.706 470.054 401.36C469.821 402.013 469.484 402.511 469.043 402.854C468.602 403.196 468.068 403.366 467.441 403.366ZM467.441 402.451C468.062 402.451 468.545 402.151 468.889 401.552C469.233 400.953 469.405 400.099 469.405 398.989C469.405 398.252 469.326 397.623 469.168 397.104C469.012 396.586 468.788 396.19 468.494 395.918C468.203 395.647 467.851 395.511 467.441 395.511C466.825 395.511 466.344 395.814 465.997 396.422C465.651 397.026 465.477 397.882 465.477 398.989C465.477 399.727 465.555 400.354 465.71 400.869C465.865 401.386 466.089 401.778 466.38 402.047C466.674 402.316 467.028 402.451 467.441 402.451ZM471.984 403.25V402.501L474.797 399.422C475.127 399.061 475.399 398.748 475.613 398.481C475.827 398.213 475.985 397.96 476.087 397.724C476.193 397.486 476.245 397.236 476.245 396.975C476.245 396.676 476.173 396.416 476.029 396.197C475.887 395.979 475.694 395.809 475.447 395.69C475.2 395.57 474.922 395.511 474.614 395.511C474.287 395.511 474.002 395.578 473.758 395.715C473.515 395.848 473.329 396.035 473.195 396.276C473.065 396.518 473 396.801 473 397.125H472.018C472.018 396.626 472.133 396.187 472.363 395.811C472.594 395.433 472.907 395.139 473.304 394.928C473.703 394.717 474.151 394.612 474.647 394.612C475.147 394.612 475.589 394.717 475.975 394.928C476.361 395.139 476.662 395.423 476.882 395.781C477.101 396.139 477.21 396.537 477.21 396.975C477.21 397.289 477.154 397.595 477.04 397.895C476.929 398.192 476.735 398.523 476.457 398.889C476.183 399.252 475.801 399.697 475.313 400.221L473.399 402.267V402.334H477.36V403.25H471.984ZM481.958 403.366C481.409 403.366 480.919 403.272 480.489 403.084C480.062 402.894 479.722 402.633 479.469 402.297C479.22 401.959 479.085 401.566 479.062 401.119H480.111C480.132 401.394 480.227 401.631 480.393 401.831C480.56 402.028 480.778 402.181 481.046 402.289C481.316 402.396 481.614 402.451 481.942 402.451C482.308 402.451 482.632 402.387 482.915 402.26C483.198 402.132 483.42 401.954 483.581 401.727C483.741 401.499 483.822 401.236 483.822 400.937C483.822 400.623 483.744 400.347 483.589 400.109C483.434 399.867 483.206 399.678 482.906 399.542C482.607 399.407 482.24 399.338 481.808 399.338H481.125V398.423H481.808C482.147 398.423 482.444 398.362 482.698 398.24C482.956 398.118 483.157 397.946 483.302 397.724C483.449 397.503 483.522 397.242 483.522 396.942C483.522 396.653 483.459 396.402 483.331 396.188C483.203 395.976 483.024 395.809 482.79 395.69C482.56 395.57 482.288 395.511 481.975 395.511C481.681 395.511 481.404 395.565 481.142 395.673C480.884 395.778 480.673 395.933 480.51 396.135C480.346 396.335 480.257 396.576 480.244 396.859H479.245C479.262 396.412 479.396 396.021 479.649 395.686C479.901 395.347 480.231 395.083 480.639 394.895C481.049 394.706 481.5 394.612 481.992 394.612C482.519 394.612 482.971 394.719 483.348 394.933C483.725 395.143 484.015 395.422 484.218 395.769C484.42 396.115 484.521 396.49 484.521 396.892C484.521 397.372 484.394 397.781 484.142 398.12C483.893 398.458 483.553 398.692 483.123 398.823V398.889C483.661 398.978 484.081 399.206 484.384 399.576C484.686 399.942 484.838 400.396 484.838 400.937C484.838 401.399 484.711 401.815 484.459 402.184C484.209 402.551 483.868 402.84 483.435 403.05C483.002 403.26 482.51 403.366 481.958 403.366Z" fill="#424F66"/>
</g>
<defs>
<filter id="filter0_d_102_3180" x="-9.83687e-05" y="2.38759e-05" width="579" height="456.951" filterUnits="userSpaceOnUse" color-interpolation-filters="sRGB">
<feFlood flood-opacity="0" result="BackgroundImageFix"/>
<feColorMatrix in="SourceAlpha" type="matrix" values="0 0 0 0 0 0 0 0 0 0 0 0 0 0 0 0 0 0 127 0" result="hardAlpha"/>
<feOffset dy="9.75"/>
<feGaussianBlur stdDeviation="6.825"/>
<feComposite in2="hardAlpha" operator="out"/>
<feColorMatrix type="matrix" values="0 0 0 0 0 0 0 0 0 0 0 0 0 0 0 0 0 0 0.05 0"/>
<feBlend mode="normal" in2="BackgroundImageFix" result="effect1_dropShadow_102_3180"/>
<feBlend mode="normal" in="SourceGraphic" in2="effect1_dropShadow_102_3180" result="shape"/>
</filter>
</defs>
</svg>
