<svg width="40" height="13" viewBox="0 0 40 13" fill="none" xmlns="http://www.w3.org/2000/svg">
<g filter="url(#filter0_d_102_3039)">
<path d="M0 1.20862C0 0.541474 0.541161 0.000312915 1.2083 0.000312915H37.5836C38.2507 0.000312915 38.7918 0.541474 38.7918 1.20862V10.197C38.7918 10.8641 38.2507 11.4053 37.5836 11.4053H1.2083C0.541161 11.4053 0 10.8641 0 10.197V1.20862Z" fill="#FCFDFF"/>
<path d="M1.20825 0.120785H37.5835C38.1849 0.120785 38.6713 0.607155 38.6713 1.20857V10.197C38.6713 10.7973 38.1849 11.2837 37.5835 11.2837H1.20825C0.607932 11.2837 0.121536 10.7973 0.121536 10.197V1.20857C0.121536 0.607155 0.607932 0.120785 1.20825 0.120785Z" stroke="#326DE3" stroke-width="0.235626"/>
<path d="M2.86254 6.79775V3.16732H4.27568C4.70292 3.16732 5.03157 3.25387 5.25943 3.42805C5.48729 3.60223 5.6023 3.86954 5.6023 4.23214C5.6023 4.54435 5.51794 4.78316 5.35143 4.94967C5.18821 5.1129 4.95272 5.21806 4.6449 5.26516L5.78637 6.79775H5.2375L4.15078 5.29803H3.32918V6.79775H2.86254ZM3.32918 4.90147H4.18261C4.49811 4.90147 4.73359 4.85217 4.88914 4.75467C5.04908 4.65279 5.12905 4.48082 5.12905 4.23762C5.12905 3.99114 5.05458 3.81914 4.90559 3.72165C4.7577 3.61977 4.51673 3.56937 4.18261 3.56937H3.32918V4.90147ZM6.31766 7.78805V4.24311H6.74164V4.67253C6.82161 4.52793 6.94317 4.41179 7.1053 4.32525C7.26853 4.23432 7.45918 4.18831 7.67718 4.18831C7.9127 4.18831 8.12188 4.2431 8.30702 4.35156C8.49215 4.4611 8.63679 4.61447 8.74196 4.81384C8.84713 5.00993 8.89969 5.24545 8.89969 5.52041C8.89969 5.79209 8.84713 6.02764 8.74196 6.22701C8.63679 6.42639 8.49215 6.58085 8.30702 6.6893C8.12188 6.79775 7.9127 6.85251 7.67718 6.85251C7.46684 6.85251 7.28169 6.81087 7.12175 6.72761C6.9629 6.64436 6.84127 6.53374 6.75802 6.39571V7.78805H6.31766ZM7.595 6.46692C7.76151 6.46692 7.90828 6.42856 8.03536 6.35188C8.16572 6.27629 8.26761 6.16784 8.33992 6.02653C8.41222 5.88521 8.44837 5.7165 8.44837 5.52041C8.44837 5.32542 8.41222 5.15672 8.33992 5.0154C8.26761 4.87408 8.16572 4.76453 8.03536 4.68894C7.90828 4.61336 7.76151 4.57501 7.595 4.57501C7.42849 4.57501 7.27946 4.61336 7.1491 4.68894C7.02202 4.76453 6.92239 4.87408 6.85009 5.0154C6.77779 5.15672 6.74164 5.32542 6.74164 5.52041C6.74164 5.7165 6.77779 5.88521 6.85009 6.02653C6.92239 6.16784 7.02202 6.27629 7.1491 6.35188C7.27946 6.42856 7.42849 6.46692 7.595 6.46692ZM12.2354 6.85251C11.9418 6.85251 11.6855 6.79226 11.4686 6.67285C11.255 6.55345 11.0895 6.37269 10.9734 6.1295C10.8584 5.88301 10.8003 5.573 10.8003 5.19944C10.8003 4.78316 10.8541 4.41945 10.9636 4.10724C11.0753 3.79174 11.2462 3.54747 11.4741 3.37329C11.7063 3.19911 11.9977 3.11256 12.3493 3.11256C12.5816 3.11256 12.7898 3.15637 12.9749 3.24291C13.1633 3.32617 13.3254 3.44777 13.4635 3.60771L13.2728 3.91117C13.1359 3.77423 12.9924 3.67015 12.8434 3.60223C12.6988 3.53321 12.5465 3.49816 12.3877 3.49816C12.1807 3.49816 11.9955 3.54746 11.8323 3.64495C11.6734 3.73916 11.5442 3.89036 11.4467 4.09631C11.3492 4.29897 11.2933 4.56625 11.278 4.89598C11.3722 4.75795 11.5014 4.64953 11.6647 4.56956C11.8312 4.48959 12.0284 4.45015 12.2573 4.45015C12.5323 4.45015 12.7656 4.50055 12.9584 4.60242C13.1534 4.70321 13.3024 4.84342 13.4043 5.02088C13.5083 5.19835 13.5609 5.4032 13.5609 5.63435C13.5609 5.86659 13.5072 6.07474 13.3988 6.25988C13.2936 6.44173 13.1414 6.5863 12.942 6.69475C12.7426 6.79992 12.5071 6.85251 12.2354 6.85251ZM12.1806 6.46692C12.4633 6.46692 12.6846 6.39461 12.8434 6.24891C13.0034 6.10431 13.0833 5.90275 13.0833 5.64531C13.0833 5.38459 13.0034 5.1819 12.8434 5.0373C12.6846 4.8916 12.4633 4.81933 12.1806 4.81933C11.898 4.81933 11.6767 4.8916 11.5179 5.0373C11.3579 5.17861 11.278 5.37911 11.278 5.63983C11.3185 5.88631 11.4083 6.08568 11.5496 6.23795C11.6953 6.39022 11.9057 6.46692 12.1806 6.46692ZM14.0222 6.79775V6.41212L15.6095 4.91681C15.7256 4.80836 15.8089 4.69991 15.8593 4.59146C15.9108 4.48191 15.936 4.37565 15.936 4.27049C15.936 4.11493 15.9008 3.98018 15.8329 3.86844C15.7672 3.75232 15.6763 3.66141 15.5602 3.59678C15.4452 3.53105 15.3093 3.49816 15.1527 3.49816C15.0004 3.49816 14.8525 3.5365 14.7068 3.61209C14.5622 3.68549 14.3979 3.79724 14.2128 3.94951L14.0222 3.60771C14.2073 3.43353 14.3924 3.30866 14.5764 3.23198C14.7649 3.15201 14.9632 3.11256 15.1691 3.11256C15.409 3.11256 15.6226 3.15966 15.8111 3.25388C15.9995 3.34809 16.1463 3.48174 16.2514 3.65592C16.3599 3.8301 16.4146 4.03496 16.4146 4.27049C16.4146 4.41509 16.3741 4.56405 16.2941 4.71632C16.2186 4.86421 16.0838 5.02965 15.8921 5.2104L14.6202 6.41212H16.4683V6.79775H14.0222ZM17.4291 6.83062C17.3458 6.83062 17.279 6.80542 17.2275 6.75503C17.1771 6.70354 17.1519 6.64219 17.1519 6.56989C17.1519 6.4932 17.1771 6.43075 17.2275 6.37926C17.279 6.32887 17.3458 6.30367 17.4291 6.30367C17.5123 6.30367 17.5792 6.32887 17.6307 6.37926C17.681 6.43075 17.7062 6.4932 17.7062 6.56989C17.7062 6.64219 17.681 6.70354 17.6307 6.75503C17.5792 6.80542 17.5123 6.83062 17.4291 6.83062ZM18.3964 6.79775V6.41212L19.9837 4.91681C20.0998 4.80836 20.1831 4.69991 20.2335 4.59146C20.285 4.48191 20.3102 4.37565 20.3102 4.27049C20.3102 4.11493 20.2751 3.98018 20.2072 3.86844C20.1415 3.75232 20.0506 3.66141 19.9355 3.59678C19.8194 3.53105 19.6835 3.49816 19.5269 3.49816C19.3746 3.49816 19.2267 3.5365 19.081 3.61209C18.9364 3.68549 18.7721 3.79724 18.587 3.94951L18.3964 3.60771C18.5815 3.43353 18.7666 3.30866 18.9507 3.23198C19.1391 3.15201 19.3374 3.11256 19.5433 3.11256C19.7832 3.11256 19.9968 3.15966 20.1853 3.25388C20.3737 3.34809 20.5205 3.48174 20.6256 3.65592C20.7341 3.8301 20.7889 4.03496 20.7889 4.27049C20.7889 4.41509 20.7483 4.56405 20.6684 4.71632C20.5928 4.86421 20.4592 5.02965 20.2664 5.2104L18.9945 6.41212H20.8425V6.79775H18.3964ZM23.2931 6.79775V5.91697H21.4067V5.44482L23.2383 3.16732H23.7445V5.53138H24.2221V5.91697H23.7445V6.79775H23.2931ZM21.8142 5.53138H23.2931V3.66688L21.8142 5.53138ZM26.0603 6.85251C25.8686 6.85251 25.6977 6.8339 25.5487 6.79775C25.4008 6.76598 25.265 6.71339 25.1412 6.63999C25.0218 6.5644 24.9046 6.4702 24.7885 6.35736L24.9835 6.02653C25.1576 6.18537 25.3285 6.30041 25.495 6.36833C25.6615 6.43406 25.8313 6.46692 26.0055 6.46692C26.2881 6.46692 26.5095 6.39461 26.6694 6.24891C26.8282 6.10431 26.9082 5.90275 26.9082 5.64531C26.9082 5.38459 26.8282 5.1819 26.6694 5.0373C26.5095 4.8916 26.2881 4.81933 26.0055 4.81933C25.8171 4.81933 25.6583 4.85767 25.5279 4.93326C25.3976 5.00556 25.3077 5.11508 25.2606 5.25968L24.8586 5.18409L25.2234 3.11256H27.1152V3.49816H25.5816L25.3702 4.66705C25.4567 4.59475 25.5619 4.53995 25.6856 4.5038C25.8083 4.46765 25.9409 4.45015 26.0822 4.45015C26.3572 4.45015 26.5916 4.50055 26.7833 4.60242C26.9794 4.70321 27.1273 4.84342 27.2292 5.02088C27.3343 5.19835 27.387 5.4032 27.387 5.63435C27.387 5.86659 27.3321 6.07474 27.2237 6.25988C27.1185 6.44173 26.9663 6.5863 26.7669 6.69475C26.5675 6.79992 26.332 6.85251 26.0603 6.85251ZM28.3488 6.83062C28.2655 6.83062 28.1986 6.80542 28.1483 6.75503C28.0968 6.70354 28.0716 6.64219 28.0716 6.56989C28.0716 6.4932 28.0968 6.43075 28.1483 6.37926C28.1986 6.32887 28.2655 6.30367 28.3488 6.30367C28.432 6.30367 28.4988 6.32887 28.5503 6.37926C28.6007 6.43075 28.6259 6.4932 28.6259 6.56989C28.6259 6.64219 28.6007 6.70354 28.5503 6.75503C28.4988 6.80542 28.432 6.83062 28.3488 6.83062ZM29.3161 6.79775V6.41212L30.9034 4.91681C31.0195 4.80836 31.1028 4.69991 31.1543 4.59146C31.2046 4.48191 31.2299 4.37565 31.2299 4.27049C31.2299 4.11493 31.1959 3.98018 31.1268 3.86844C31.0611 3.75232 30.9713 3.66141 30.8552 3.59678C30.7391 3.53105 30.6032 3.49816 30.4466 3.49816C30.2954 3.49816 30.1464 3.5365 30.0018 3.61209C29.8561 3.68549 29.6918 3.79724 29.5067 3.94951L29.3161 3.60771C29.5012 3.43353 29.6863 3.30866 29.8704 3.23198C30.0599 3.15201 30.2571 3.11256 30.463 3.11256C30.7029 3.11256 30.9166 3.15966 31.105 3.25388C31.2934 3.34809 31.4402 3.48174 31.5453 3.65592C31.6538 3.8301 31.7085 4.03496 31.7085 4.27049C31.7085 4.41509 31.6681 4.56405 31.5892 4.71632C31.5125 4.86421 31.3788 5.02965 31.186 5.2104L29.9142 6.41212H31.7622V6.79775H29.3161ZM33.2455 6.79775V3.6833L32.4129 4.1401L32.218 3.76985L33.354 3.16732H33.7067V6.79775H33.2455ZM35.3576 6.79775V3.6833L34.5261 4.1401L34.33 3.76985L35.4672 3.16732H35.8199V6.79775H35.3576Z" fill="#00246B"/>
</g>
<defs>
<filter id="filter0_d_102_3039" x="0" y="0" width="40" height="12.6133" filterUnits="userSpaceOnUse" color-interpolation-filters="sRGB">
<feFlood flood-opacity="0" result="BackgroundImageFix"/>
<feColorMatrix in="SourceAlpha" type="matrix" values="0 0 0 0 0 0 0 0 0 0 0 0 0 0 0 0 0 0 127 0" result="hardAlpha"/>
<feOffset dx="0.589065" dy="0.589065"/>
<feGaussianBlur stdDeviation="0.294533"/>
<feComposite in2="hardAlpha" operator="out"/>
<feColorMatrix type="matrix" values="0 0 0 0 0 0 0 0 0 0 0 0 0 0 0 0 0 0 0.15 0"/>
<feBlend mode="normal" in2="BackgroundImageFix" result="effect1_dropShadow_102_3039"/>
<feBlend mode="normal" in="SourceGraphic" in2="effect1_dropShadow_102_3039" result="shape"/>
</filter>
</defs>
</svg>
