<svg width="200" height="76" viewBox="0 0 200 76" fill="none" xmlns="http://www.w3.org/2000/svg">
<path d="M0 6.80568C0 3.04693 3.04688 0 6.80563 0H192.839C196.594 0 199.639 3.04693 199.639 6.80568V69.1944C199.639 72.9531 196.594 76 192.839 76H6.80563C3.04688 76 0 72.9531 0 69.1944V6.80568Z" fill="white"/>
<path d="M14.4754 17.6612V24.113H13.6339V17.6612H14.4754ZM16.5491 17.6612V18.3617H11.5643V17.6612H16.5491ZM16.722 21.7686V21.6668C16.722 21.3212 16.7724 21.0013 16.8732 20.706C16.973 20.4077 17.118 20.1485 17.3073 19.9304C17.4965 19.7082 17.725 19.5375 17.9934 19.4161C18.263 19.2926 18.5643 19.2299 18.8976 19.2299C19.235 19.2299 19.5374 19.2926 19.8059 19.4161C20.0775 19.5375 20.3079 19.7082 20.4972 19.9304C20.6895 20.1485 20.8356 20.4077 20.9364 20.706C21.0362 21.0013 21.0866 21.3212 21.0866 21.6668V21.7686C21.0866 22.1143 21.0362 22.4352 20.9364 22.7304C20.8356 23.0257 20.6895 23.2849 20.4972 23.5061C20.3079 23.7241 20.0796 23.8959 19.8101 24.0204C19.5447 24.1408 19.2433 24.2014 18.9069 24.2014C18.5695 24.2014 18.267 24.1408 17.9985 24.0204C17.729 23.8959 17.4986 23.7241 17.3073 23.5061C17.118 23.2849 16.973 23.0257 16.8732 22.7304C16.7724 22.4352 16.722 22.1143 16.722 21.7686ZM17.5418 21.6668V21.7686C17.5418 22.0083 17.5696 22.2346 17.6262 22.4465C17.6817 22.6564 17.7661 22.8426 17.8782 23.0051C17.9935 23.1676 18.1374 23.2962 18.3082 23.3909C18.48 23.4824 18.6796 23.5287 18.9069 23.5287C19.1312 23.5287 19.3276 23.4824 19.4963 23.3909C19.6671 23.2962 19.809 23.1676 19.9211 23.0051C20.0333 22.8426 20.1176 22.6564 20.1742 22.4465C20.2329 22.2346 20.2627 22.0083 20.2627 21.7686V21.6668C20.2627 21.4312 20.2329 21.208 20.1742 20.9982C20.1176 20.7852 20.0323 20.598 19.9171 20.4355C19.8049 20.2699 19.663 20.1403 19.4912 20.0456C19.3235 19.951 19.125 19.9037 18.8976 19.9037C18.6734 19.9037 18.4749 19.951 18.3041 20.0456C18.1354 20.1403 17.9935 20.2699 17.8782 20.4355C17.7661 20.598 17.6817 20.7852 17.6262 20.9982C17.5696 21.208 17.5418 21.4312 17.5418 21.6668ZM24.1222 19.3184V19.9479H21.53V19.3184H24.1222ZM22.4074 18.1529H23.2273V22.9259C23.2273 23.0884 23.2519 23.2108 23.3024 23.2931C23.3528 23.3765 23.4176 23.431 23.4968 23.4577C23.577 23.4834 23.6624 23.4968 23.754 23.4968C23.8219 23.4968 23.8928 23.4917 23.9669 23.4793C24.044 23.4649 24.1017 23.4526 24.1397 23.4443L24.1439 24.113C24.0791 24.1335 23.9937 24.1531 23.8867 24.1706C23.7838 24.1912 23.6583 24.2014 23.5102 24.2014C23.3096 24.2014 23.1254 24.1613 22.9567 24.0821C22.788 24.0019 22.6533 23.8692 22.5535 23.683C22.4558 23.4937 22.4074 23.2407 22.4074 22.9208V18.1529ZM27.9108 23.2931V20.8254C27.9108 20.6361 27.8717 20.4725 27.7956 20.3337C27.7216 20.1917 27.6094 20.0827 27.4582 20.0055C27.308 19.9284 27.1218 19.8903 26.9007 19.8903C26.6929 19.8903 26.5118 19.9263 26.3555 19.9962C26.2012 20.0672 26.0808 20.1608 25.9913 20.276C25.9059 20.3913 25.8638 20.5147 25.8638 20.6484H25.0439C25.0439 20.4766 25.0881 20.3069 25.1766 20.1382C25.2651 19.9705 25.3926 19.8183 25.5572 19.6825C25.7259 19.5436 25.9265 19.4336 26.16 19.3544C26.3966 19.271 26.6589 19.2299 26.949 19.2299C27.2977 19.2299 27.6043 19.2895 27.8707 19.4078C28.1392 19.5251 28.349 19.7041 28.5002 19.9438C28.6535 20.1793 28.7307 20.4766 28.7307 20.8346V23.0678C28.7307 23.2273 28.743 23.397 28.7697 23.577C28.7996 23.7571 28.8428 23.9124 28.8983 24.042V24.113H28.0435C28.0023 24.0183 27.9695 23.8928 27.9458 23.7365C27.9221 23.577 27.9108 23.4289 27.9108 23.2931ZM28.0517 21.206L28.061 21.782H27.2329C26.9994 21.782 26.7906 21.8016 26.6075 21.8396C26.4244 21.8756 26.2711 21.9301 26.1466 22.0042C26.0232 22.0783 25.9286 22.1708 25.8638 22.283C25.798 22.392 25.766 22.5206 25.766 22.6687C25.766 22.8189 25.8 22.9568 25.8679 23.0802C25.9358 23.2047 26.0376 23.3034 26.1734 23.3775C26.3122 23.4485 26.482 23.4834 26.6826 23.4834C26.9346 23.4834 27.1558 23.431 27.3481 23.324C27.5395 23.218 27.6917 23.0884 27.8038 22.9341C27.919 22.7809 27.9818 22.6317 27.99 22.4866L28.3398 22.8817C28.3192 23.0051 28.2636 23.1429 28.1721 23.2931C28.0805 23.4443 27.9581 23.5884 27.8038 23.7272C27.6537 23.863 27.4736 23.9772 27.2638 24.0687C27.057 24.1572 26.8235 24.2014 26.5633 24.2014C26.2382 24.2014 25.9533 24.1387 25.7085 24.0111C25.4657 23.8846 25.2774 23.7138 25.1406 23.5019C25.0079 23.2859 24.942 23.0452 24.942 22.7798C24.942 22.5227 24.9915 22.2963 25.0923 22.1009C25.1931 21.9034 25.3371 21.7398 25.5264 21.6092C25.7157 21.4765 25.943 21.3757 26.2094 21.3078C26.4748 21.2399 26.7721 21.206 27.0992 21.206H28.0517ZM30.9104 17.3073V24.113H30.0864V17.3073H30.9104ZM36.6843 23.1337L38.5843 17.6612H39.5111L37.1225 24.113H36.4621L36.6843 23.1337ZM34.9068 17.6612L36.7902 23.1337L37.0248 24.113H36.3644L33.981 17.6612H34.9068ZM42.8779 23.2931V20.8254C42.8779 20.6361 42.8399 20.4725 42.7627 20.3337C42.6897 20.1917 42.5775 20.0827 42.4263 20.0055C42.2761 19.9284 42.09 19.8903 41.8678 19.8903C41.661 19.8903 41.4799 19.9263 41.3226 19.9962C41.1693 20.0672 41.0479 20.1608 40.9595 20.276C40.8741 20.3913 40.8309 20.5147 40.8309 20.6484H40.011C40.011 20.4766 40.0563 20.3069 40.1448 20.1382C40.2332 19.9705 40.3598 19.8183 40.5254 19.6825C40.6941 19.5436 40.8947 19.4336 41.1282 19.3544C41.3648 19.271 41.627 19.2299 41.9171 19.2299C42.2658 19.2299 42.5724 19.2895 42.8388 19.4078C43.1073 19.5251 43.3172 19.7041 43.4673 19.9438C43.6216 20.1793 43.6978 20.4766 43.6978 20.8346V23.0678C43.6978 23.2273 43.7111 23.397 43.7379 23.577C43.7677 23.7571 43.8099 23.9124 43.8665 24.042V24.113H43.0117C42.9695 24.0183 42.9376 23.8928 42.9139 23.7365C42.8902 23.577 42.8779 23.4289 42.8779 23.2931ZM43.0199 21.206L43.0291 21.782H42.2C41.9676 21.782 41.7587 21.8016 41.5756 21.8396C41.3925 21.8756 41.2393 21.9301 41.1148 22.0042C40.9903 22.0783 40.8967 22.1708 40.8309 22.283C40.7661 22.392 40.7342 22.5206 40.7342 22.6687C40.7342 22.8189 40.7681 22.9568 40.836 23.0802C40.9039 23.2047 41.0058 23.3034 41.1415 23.3775C41.2804 23.4485 41.4501 23.4834 41.6507 23.4834C41.9017 23.4834 42.1239 23.431 42.3152 23.324C42.5076 23.218 42.6598 23.0884 42.7719 22.9341C42.8872 22.7809 42.9489 22.6317 42.9582 22.4866L43.3079 22.8817C43.2873 23.0051 43.2318 23.1429 43.1402 23.2931C43.0487 23.4443 42.9252 23.5884 42.7719 23.7272C42.6218 23.863 42.4408 23.9772 42.2319 24.0687C42.0241 24.1572 41.7916 24.2014 41.5314 24.2014C41.2063 24.2014 40.9214 24.1387 40.6766 24.0111C40.4338 23.8846 40.2445 23.7138 40.1087 23.5019C39.976 23.2859 39.9092 23.0452 39.9092 22.7798C39.9092 22.5227 39.9596 22.2963 40.0604 22.1009C40.1602 21.9034 40.3052 21.7398 40.4945 21.6092C40.6838 21.4765 40.9111 21.3757 41.1765 21.3078C41.4429 21.2399 41.7392 21.206 42.0673 21.206H43.0199ZM45.8785 17.3073V24.113H45.0535V17.3073H45.8785ZM50.1279 23.0051V19.3184H50.9519V24.113H50.1671L50.1279 23.0051ZM50.2823 21.9949L50.6238 21.9867C50.6238 22.3056 50.5898 22.6008 50.5219 22.8724C50.4571 23.1409 50.3501 23.3744 50.203 23.5729C50.0549 23.7704 49.8615 23.9258 49.6218 24.0379C49.3832 24.1469 49.0921 24.2014 48.7496 24.2014C48.5161 24.2014 48.3021 24.1675 48.1066 24.0996C47.9153 24.0317 47.7497 23.9268 47.6108 23.7848C47.472 23.6439 47.364 23.4587 47.2868 23.2314C47.2138 23.0041 47.1767 22.7304 47.1767 22.4116V19.3184H47.9966V22.4208C47.9966 22.6358 48.0202 22.8148 48.0675 22.9567C48.1169 23.0956 48.1838 23.2067 48.2661 23.289C48.3525 23.3682 48.4471 23.4248 48.55 23.4577C48.6559 23.4896 48.766 23.5061 48.8782 23.5061C49.2269 23.5061 49.5025 23.4392 49.7062 23.3065C49.9099 23.1707 50.057 22.9886 50.1455 22.7613C50.237 22.5309 50.2823 22.2758 50.2823 21.9949ZM54.1912 24.2014C53.8569 24.2014 53.5545 24.1459 53.2819 24.0338C53.0134 23.9186 52.7819 23.7571 52.5865 23.5503C52.3951 23.3435 52.247 23.0987 52.1432 22.8148C52.0403 22.5309 51.9888 22.2212 51.9888 21.8838V21.6987C51.9888 21.3078 52.0465 20.9611 52.1617 20.6567C52.2769 20.3501 52.4332 20.0899 52.6307 19.8769C52.8293 19.664 53.0535 19.5035 53.3045 19.3945C53.5555 19.2844 53.8157 19.2299 54.0842 19.2299C54.4268 19.2299 54.722 19.2895 54.9709 19.4078C55.2219 19.5251 55.4266 19.6907 55.5861 19.9037C55.7455 20.1135 55.8638 20.3614 55.9409 20.6484C56.0181 20.9313 56.0562 21.242 56.0562 21.5783V21.9466H52.4754V21.2769H55.2363V21.2152C55.225 21.0023 55.1808 20.7955 55.1036 20.5949C55.0296 20.3943 54.9113 20.2287 54.7487 20.0981C54.5862 19.9685 54.365 19.9037 54.0842 19.9037C53.898 19.9037 53.7273 19.9438 53.5699 20.023C53.4135 20.1001 53.2798 20.2154 53.1667 20.3686C53.0545 20.5229 52.9681 20.7101 52.9054 20.9313C52.8436 21.1535 52.8128 21.4086 52.8128 21.6987V21.8838C52.8128 22.1122 52.8436 22.3262 52.9054 22.5268C52.9712 22.7243 53.0638 22.8992 53.1852 23.0493C53.3086 23.2006 53.4578 23.3188 53.6327 23.4042C53.8096 23.4896 54.0102 23.5328 54.2355 23.5328C54.5245 23.5328 54.7693 23.4731 54.9709 23.3559C55.1715 23.2376 55.3474 23.0792 55.4976 22.8817L55.9944 23.2756C55.8905 23.432 55.7589 23.5812 55.5995 23.7231C55.44 23.8651 55.2435 23.9803 55.01 24.0687C54.7796 24.1572 54.507 24.2014 54.1912 24.2014Z" fill="#4B4B4B"/>
<path d="M14.8437 37.1267H16.2078C16.6449 37.1267 17.006 37.0537 17.2899 36.9055C17.5728 36.7523 17.7827 36.5393 17.9185 36.2678C18.0604 35.99 18.1314 35.668 18.1314 35.3018C18.1314 34.9706 18.0665 34.6785 17.9359 34.4244C17.8125 34.1641 17.6201 33.9635 17.3599 33.8216C17.1006 33.6735 16.7725 33.6004 16.3765 33.6004C16.0637 33.6004 15.7737 33.6621 15.5083 33.7866C15.2418 33.91 15.0299 34.0849 14.8705 34.3092C14.7111 34.5334 14.6308 34.805 14.6308 35.1239H12.0694C12.0694 34.4151 12.2587 33.7979 12.6372 33.2723C13.0209 32.7466 13.5353 32.3362 14.1792 32.0399C14.8232 31.7447 15.5319 31.5976 16.3054 31.5976C17.1798 31.5976 17.9452 31.7396 18.6015 32.0224C19.2567 32.3002 19.768 32.7106 20.1342 33.2548C20.5004 33.7979 20.6835 34.4717 20.6835 35.2751C20.6835 35.6824 20.5889 36.0785 20.3996 36.4622C20.2113 36.8407 19.9387 37.1833 19.5849 37.4908C19.2362 37.7922 18.8103 38.034 18.3083 38.2171C17.8063 38.394 17.2426 38.4835 16.6161 38.4835H14.8437V37.1267ZM14.8437 39.0678V37.748H16.6161C17.3187 37.748 17.9359 37.8272 18.4678 37.9867C18.9996 38.1461 19.446 38.3765 19.806 38.6779C20.1671 38.9731 20.4387 39.3249 20.6218 39.7323C20.8049 40.1345 20.8964 40.5799 20.8964 41.0706C20.8964 41.6734 20.7812 42.2114 20.5508 42.6835C20.3203 43.1506 19.9953 43.5466 19.5756 43.8717C19.1621 44.1957 18.6776 44.4446 18.1221 44.6154C17.5666 44.781 16.9617 44.8633 16.3054 44.8633C15.7623 44.8633 15.2274 44.7903 14.7018 44.6421C14.1813 44.4889 13.7091 44.2615 13.2843 43.9601C12.8646 43.6526 12.5272 43.2689 12.2731 42.808C12.0252 42.341 11.9018 41.7886 11.9018 41.1508H14.4621C14.4621 41.481 14.5454 41.7773 14.711 42.0365C14.8756 42.2968 15.103 42.5005 15.3931 42.6486C15.6883 42.7957 16.0164 42.8697 16.3765 42.8697C16.7838 42.8697 17.1325 42.7957 17.4226 42.6486C17.7178 42.4943 17.9421 42.2824 18.0954 42.0098C18.2559 41.732 18.335 41.4101 18.335 41.0439C18.335 40.5717 18.2496 40.1931 18.0779 39.9103C17.9071 39.6202 17.6612 39.4072 17.3423 39.2715C17.0235 39.1357 16.6449 39.0678 16.2078 39.0678H14.8437ZM24.4587 42.7453H24.6274C25.3361 42.7453 25.9451 42.6599 26.4522 42.4891C26.9666 42.3112 27.3893 42.0571 27.7195 41.7269C28.0508 41.3957 28.2956 40.9914 28.4551 40.512C28.6155 40.0275 28.6947 39.4782 28.6947 38.8641V36.4179C28.6947 35.9519 28.6474 35.5405 28.5528 35.1866C28.4643 34.8317 28.3347 34.5396 28.1629 34.3092C27.9973 34.0726 27.8029 33.8957 27.5787 33.7774C27.3596 33.6591 27.1178 33.6004 26.8514 33.6004C26.5674 33.6004 26.3165 33.6714 26.0984 33.8123C25.8793 33.9491 25.6931 34.1343 25.5398 34.3709C25.3927 34.6075 25.2775 34.8791 25.1942 35.1866C25.1171 35.488 25.079 35.8038 25.079 36.1351C25.079 36.4653 25.1171 36.7811 25.1942 37.0825C25.2714 37.3787 25.3866 37.641 25.5398 37.8714C25.6931 38.0957 25.8855 38.2767 26.1159 38.4125C26.3463 38.5421 26.6179 38.6069 26.9316 38.6069C27.233 38.6069 27.5015 38.5514 27.7381 38.4393C27.9798 38.321 28.1835 38.1667 28.3491 37.9784C28.5209 37.7892 28.6505 37.5793 28.739 37.3489C28.8336 37.1185 28.8809 36.885 28.8809 36.6484L29.7224 37.1092C29.7224 37.5227 29.6339 37.9311 29.457 38.3323C29.2801 38.7345 29.0311 39.1007 28.7122 39.4309C28.3995 39.756 28.0364 40.0162 27.6229 40.2117C27.2093 40.4061 26.766 40.5038 26.2928 40.5038C25.6911 40.5038 25.1561 40.3948 24.6891 40.1757C24.2221 39.9514 23.8271 39.6438 23.502 39.254C23.1831 38.8579 22.9404 38.3971 22.7747 37.8714C22.6091 37.3458 22.5269 36.7759 22.5269 36.1608C22.5269 35.5353 22.6276 34.9469 22.8282 34.3976C23.035 33.8483 23.3272 33.3638 23.7057 32.9441C24.0894 32.5244 24.5472 32.1973 25.079 31.9607C25.617 31.718 26.2136 31.5976 26.8689 31.5976C27.5252 31.5976 28.1218 31.7241 28.6598 31.9782C29.1967 32.2323 29.6576 32.5923 30.0423 33.0593C30.426 33.5202 30.7212 34.0726 30.928 34.7165C31.1409 35.3605 31.2469 36.0754 31.2469 36.8613V37.748C31.2469 38.5864 31.1553 39.3661 30.9722 40.0872C30.7953 40.8083 30.5257 41.4605 30.1657 42.0458C29.8118 42.6249 29.3685 43.1207 28.8367 43.5343C28.311 43.9478 27.699 44.2636 27.0026 44.4827C26.3052 44.7008 25.5254 44.8108 24.6624 44.8108H24.4587V42.7453ZM39.2941 31.757V44.6864H36.742V34.699L33.6756 35.6742V33.6621L39.0195 31.757H39.2941ZM46.0196 42.5334L46.0114 44.243C46.0114 44.8993 45.8457 45.5607 45.5145 46.2283C45.1904 46.8959 44.7759 47.4422 44.2739 47.868L42.9449 47.186C43.093 46.9134 43.237 46.6419 43.379 46.3703C43.5209 46.0987 43.6392 45.8004 43.7338 45.4754C43.8285 45.1503 43.8758 44.781 43.8758 44.3675V42.5334H46.0196ZM54.1821 31.757V44.6864H51.6299V34.699L48.5634 35.6742V33.6621L53.9074 31.757H54.1821ZM60.784 38.8106L58.7462 38.3241L59.4817 31.7838H66.7308V33.8483H61.5813L61.2624 36.7111C61.4342 36.6103 61.6944 36.5044 62.0421 36.3912C62.3908 36.2739 62.7807 36.2143 63.2127 36.2143C63.8382 36.2143 64.3937 36.312 64.8782 36.5064C65.3627 36.7019 65.7731 36.9858 66.1105 37.3571C66.453 37.7295 66.7133 38.1852 66.8902 38.7222C67.0672 39.2601 67.1556 39.8681 67.1556 40.548C67.1556 41.121 67.0672 41.6672 66.8902 42.1877C66.7133 42.701 66.4438 43.1619 66.0838 43.5703C65.7237 43.9714 65.271 44.2872 64.7279 44.5177C64.1837 44.7481 63.5398 44.8633 62.7961 44.8633C62.2406 44.8633 61.7026 44.781 61.1831 44.6154C60.6688 44.4498 60.2049 44.205 59.7914 43.8799C59.384 43.5548 59.0559 43.1619 58.808 42.701C58.5652 42.235 58.4387 41.7032 58.4263 41.1066H60.9609C60.9969 41.4728 61.0916 41.7886 61.2449 42.054C61.4043 42.3143 61.6141 42.5148 61.8744 42.6568C62.1336 42.7988 62.4381 42.8697 62.7869 42.8697C63.1119 42.8697 63.3897 42.808 63.6201 42.6835C63.8505 42.5601 64.0367 42.3883 64.1786 42.1692C64.3195 41.945 64.4235 41.6847 64.4883 41.3895C64.5592 41.0881 64.5952 40.7641 64.5952 40.4153C64.5952 40.0666 64.553 39.7508 64.4707 39.4669C64.3884 39.183 64.2609 38.9382 64.0891 38.7314C63.9184 38.5247 63.6992 38.3652 63.4339 38.2531C63.1736 38.1399 62.8692 38.0844 62.5215 38.0844C62.0483 38.0844 61.682 38.1584 61.4218 38.3055C61.1677 38.4537 60.9558 38.6224 60.784 38.8106ZM77.6305 42.6928V44.6864H68.8045V42.9849L72.9778 38.5092C73.3975 38.0432 73.7288 37.6328 73.9705 37.2779C74.2133 36.9179 74.3871 36.5959 74.4941 36.312C74.6062 36.0219 74.6618 35.7472 74.6618 35.488C74.6618 35.0982 74.597 34.7638 74.4674 34.4861C74.3367 34.2032 74.1454 33.9841 73.8913 33.8308C73.6434 33.6765 73.3358 33.6004 72.9696 33.6004C72.5798 33.6004 72.2424 33.6951 71.9595 33.8833C71.6817 34.0726 71.4688 34.3359 71.3207 34.6723C71.1798 35.0087 71.1087 35.3903 71.1087 35.8151H68.5474C68.5474 35.0477 68.7305 34.3442 69.0967 33.7064C69.4629 33.0624 69.9803 32.5512 70.6479 32.1737C71.3155 31.7889 72.1066 31.5976 73.0221 31.5976C73.9263 31.5976 74.6885 31.7447 75.3088 32.0399C75.9353 32.33 76.4074 32.7497 76.7274 33.299C77.0514 33.8422 77.2139 34.4923 77.2139 35.2483C77.2139 35.6742 77.146 36.0908 77.0102 36.4982C76.8744 36.8994 76.68 37.3016 76.4259 37.7027C76.177 38.0988 75.8756 38.501 75.5218 38.9083C75.1669 39.3157 74.7739 39.7385 74.3429 40.1757L72.1004 42.6928H77.6305Z" fill="#4B4B4B"/>
<path d="M15.8292 52.4528L13.6463 57.4933H18.1149L15.8292 52.4528Z" fill="#0C9D61"/>
<path d="M22.9907 54.4597L22.0988 54.2468L22.4208 51.385H25.5922V52.2892H23.3394L23.1995 53.5411C23.2746 53.4969 23.3887 53.4506 23.541 53.4012C23.6932 53.3498 23.864 53.3241 24.0522 53.3241C24.3269 53.3241 24.5697 53.3662 24.7816 53.4516C24.9935 53.537 25.1735 53.6615 25.3206 53.824C25.4708 53.9865 25.5839 54.1861 25.6621 54.4217C25.7392 54.6562 25.7784 54.9226 25.7784 55.2199C25.7784 55.4709 25.7392 55.7095 25.6621 55.9369C25.5839 56.1622 25.4667 56.3638 25.3093 56.5417C25.1509 56.7176 24.9534 56.8565 24.7157 56.9563C24.4781 57.0571 24.1962 57.1075 23.8702 57.1075C23.6274 57.1075 23.3918 57.0715 23.1645 56.9995C22.9403 56.9275 22.7366 56.8195 22.5566 56.6775C22.3776 56.5356 22.2346 56.3638 22.1255 56.1622C22.0196 55.9574 21.9641 55.725 21.9589 55.4637H23.0678C23.0833 55.6242 23.1244 55.763 23.1923 55.8793C23.2622 55.9924 23.3538 56.0809 23.4669 56.1426C23.5811 56.2043 23.7138 56.2352 23.8661 56.2352C24.0091 56.2352 24.1304 56.2084 24.2312 56.1539C24.332 56.1004 24.4133 56.0253 24.475 55.9297C24.5378 55.8309 24.5831 55.7178 24.6108 55.5882C24.6417 55.4565 24.6571 55.3145 24.6571 55.1613C24.6571 55.009 24.6396 54.8712 24.6036 54.7467C24.5666 54.6233 24.511 54.5153 24.437 54.4247C24.3619 54.3342 24.2662 54.2653 24.15 54.2159C24.0358 54.1665 23.9031 54.1419 23.7498 54.1419C23.543 54.1419 23.3836 54.1748 23.2694 54.2385C23.1583 54.3034 23.0658 54.3774 22.9907 54.4597ZM29.2213 51.3737V57.0304H28.1042V52.6606L26.7628 53.0875V52.2069L29.1009 51.3737H29.2213ZM31.0431 52.7696V52.4713C31.0431 52.2563 31.0894 52.0609 31.183 51.886C31.2755 51.7101 31.4123 51.5692 31.5934 51.4632C31.7744 51.3573 31.9967 51.3038 32.261 51.3038C32.5316 51.3038 32.7579 51.3573 32.9389 51.4632C33.1231 51.5692 33.2598 51.7101 33.3504 51.886C33.4429 52.0609 33.4892 52.2563 33.4892 52.4713V52.7696C33.4892 52.9784 33.4429 53.1718 33.3504 53.3467C33.2598 53.5226 33.1241 53.6635 32.943 53.7695C32.762 53.8754 32.5388 53.9289 32.2723 53.9289C32.0039 53.9289 31.7775 53.8754 31.5934 53.7695C31.4123 53.6635 31.2755 53.5226 31.183 53.3467C31.0894 53.1718 31.0431 52.9784 31.0431 52.7696ZM31.7837 52.4713V52.7696C31.7837 52.8601 31.8002 52.9465 31.8341 53.0288C31.8701 53.1091 31.9246 53.1749 31.9967 53.2274C32.0717 53.2757 32.1622 53.3004 32.2682 53.3004C32.3793 53.3004 32.4699 53.2757 32.5398 53.2274C32.6098 53.1749 32.6612 53.1091 32.6951 53.0288C32.7281 52.9465 32.7455 52.8601 32.7455 52.7696V52.4713C32.7455 52.3756 32.727 52.2872 32.691 52.2069C32.657 52.1246 32.6046 52.0588 32.5316 52.0094C32.4627 51.958 32.3721 51.9323 32.261 51.9323C32.1571 51.9323 32.0697 51.958 31.9967 52.0094C31.9246 52.0588 31.8701 52.1246 31.8341 52.2069C31.8002 52.2872 31.7837 52.3756 31.7837 52.4713ZM33.7413 55.9451V55.6468C33.7413 55.4349 33.7886 55.2405 33.8811 55.0646C33.9768 54.8887 34.1147 54.7477 34.2957 54.6418C34.4798 54.5358 34.7041 54.4834 34.9705 54.4834C35.239 54.4834 35.4643 54.5358 35.6453 54.6418C35.8264 54.7477 35.9632 54.8887 36.0558 55.0646C36.1494 55.2405 36.1956 55.4349 36.1956 55.6468V55.9451C36.1956 56.157 36.1494 56.3504 36.0558 56.5263C35.9663 56.7022 35.8305 56.8431 35.6495 56.9491C35.4684 57.055 35.2441 57.1075 34.9787 57.1075C34.7092 57.1075 34.483 57.055 34.2999 56.9491C34.1167 56.8431 33.9768 56.7022 33.8811 56.5263C33.7886 56.3504 33.7413 56.157 33.7413 55.9451ZM34.486 55.6468V55.9451C34.486 56.0377 34.5066 56.1262 34.5477 56.2085C34.5889 56.2907 34.6465 56.3576 34.7185 56.4059C34.7936 56.4553 34.88 56.48 34.9787 56.48C35.1022 56.48 35.1989 56.4553 35.2688 56.4059C35.3388 56.3576 35.3871 56.2907 35.4128 56.2085C35.4406 56.1262 35.455 56.0377 35.455 55.9451V55.6468C35.455 55.5532 35.4376 55.4668 35.4005 55.3865C35.3645 55.3042 35.311 55.2384 35.238 55.189C35.168 55.1376 35.0796 55.1109 34.9705 55.1109C34.8625 55.1109 34.772 55.1376 34.699 55.189C34.629 55.2384 34.5766 55.3042 34.5406 55.3865C34.5046 55.4668 34.486 55.5532 34.486 55.6468ZM35.2462 52.1915L32.4894 56.6045L31.9462 56.3175L34.7031 51.9045L35.2462 52.1915Z" fill="#0B9D61"/>
<path d="M41.0727 57.412L42.2207 53.8641H42.9531L41.445 58.059H40.9647L41.0727 57.412ZM40.1149 53.8641L41.2979 57.4315L41.3792 58.059H40.8988L39.3785 53.8641H40.1149ZM46.0864 56.946C46.0864 56.8431 46.0627 56.7475 46.0164 56.659C45.9722 56.5695 45.8807 56.4872 45.7408 56.4152C45.604 56.3401 45.3972 56.2753 45.1205 56.2218C44.888 56.1725 44.6771 56.1138 44.4888 56.0469C44.3027 55.9801 44.1432 55.8978 44.0116 55.8032C43.883 55.7075 43.7832 55.5943 43.7133 55.4658C43.6433 55.3361 43.6083 55.1849 43.6083 55.0121C43.6083 54.8465 43.6443 54.6901 43.7173 54.543C43.7924 54.3949 43.8963 54.2643 44.0311 54.1511C44.1679 54.0369 44.3325 53.9485 44.5238 53.8837C44.7151 53.8189 44.9281 53.787 45.1637 53.787C45.499 53.787 45.786 53.8456 46.0236 53.9649C46.2623 54.0843 46.4443 54.2427 46.5709 54.4422C46.6974 54.6387 46.7601 54.8568 46.7601 55.0975H46.0431C46.0431 54.9802 46.0082 54.8681 45.9382 54.7601C45.8714 54.649 45.7716 54.5564 45.6399 54.4844C45.5114 54.4124 45.3519 54.3754 45.1637 54.3754C44.9641 54.3754 44.8026 54.4073 44.6781 54.469C44.5568 54.5286 44.4683 54.6048 44.4107 54.6973C44.3572 54.7909 44.3294 54.8887 44.3294 54.9926C44.3294 55.0697 44.3428 55.1397 44.3685 55.2014C44.3973 55.2611 44.4456 55.3166 44.5156 55.368C44.5855 55.4174 44.6843 55.4637 44.8108 55.5079C44.9373 55.5522 45.0988 55.5954 45.2953 55.6396C45.6389 55.7178 45.9218 55.8104 46.144 55.9194C46.3662 56.0274 46.5318 56.1611 46.6409 56.3185C46.7489 56.4759 46.8033 56.6672 46.8033 56.8925C46.8033 57.0756 46.7643 57.2433 46.6871 57.3966C46.612 57.5488 46.502 57.6805 46.3579 57.7916C46.215 57.9006 46.0442 57.985 45.8457 58.0477C45.6492 58.1074 45.428 58.1362 45.1822 58.1362C44.8129 58.1362 44.5002 58.0703 44.244 57.9387C43.9889 57.807 43.7945 57.6362 43.6628 57.4274C43.5312 57.2176 43.4653 56.9964 43.4653 56.7639H44.1864C44.1967 56.9604 44.2533 57.1168 44.3572 57.233C44.46 57.3472 44.5866 57.4285 44.7368 57.4778C44.887 57.5241 45.0351 57.5478 45.1822 57.5478C45.3787 57.5478 45.5432 57.521 45.6749 57.4696C45.8097 57.4182 45.9115 57.3472 45.9814 57.2567C46.0514 57.1661 46.0864 57.0622 46.0864 56.946ZM53.247 57.4501V58.059H50.4243V57.4501H53.247ZM50.5714 52.4137V58.059H49.8235V52.4137H50.5714ZM56.4687 57.342V55.1818C56.4687 55.0173 56.4358 54.8732 56.3679 54.7519C56.3031 54.6274 56.2054 54.5328 56.0737 54.4649C55.9421 54.398 55.7785 54.3641 55.5851 54.3641C55.404 54.3641 55.2446 54.3949 55.1078 54.4577C54.974 54.5194 54.8681 54.6006 54.79 54.7014C54.7149 54.8023 54.6778 54.9113 54.6778 55.0275H53.9608C53.9608 54.8774 53.9989 54.7282 54.0771 54.5811C54.1542 54.434 54.2653 54.3013 54.4104 54.182C54.5575 54.0606 54.7334 53.9649 54.9371 53.895C55.1438 53.823 55.3742 53.787 55.6273 53.787C55.9328 53.787 56.2012 53.8384 56.4337 53.9413C56.6693 54.0452 56.8524 54.2015 56.9851 54.4103C57.1188 54.6171 57.1867 54.8774 57.1867 55.1901V57.1445C57.1867 57.2834 57.198 57.4326 57.2207 57.5899C57.2474 57.7473 57.2844 57.8831 57.3338 57.9973V58.059H56.585C56.549 57.9767 56.5212 57.8667 56.4996 57.7298C56.479 57.5899 56.4687 57.4603 56.4687 57.342ZM56.5932 55.5162L56.6004 56.0202H55.8762C55.6715 56.0202 55.4894 56.0367 55.329 56.0706C55.1685 56.1015 55.0347 56.1488 54.9257 56.2136C54.8177 56.2784 54.7344 56.3597 54.6778 56.4574C54.6212 56.5531 54.5924 56.6662 54.5924 56.7948C54.5924 56.9275 54.6222 57.0468 54.6819 57.1559C54.7416 57.2639 54.83 57.3513 54.9494 57.4151C55.0708 57.4778 55.2189 57.5087 55.3948 57.5087C55.6149 57.5087 55.8083 57.4624 55.977 57.3688C56.1447 57.2762 56.2774 57.162 56.3762 57.0283C56.477 56.8935 56.5314 56.7629 56.5386 56.6364L56.8452 56.981C56.8267 57.09 56.7784 57.2104 56.6981 57.342C56.6179 57.4737 56.5099 57.6002 56.3762 57.7216C56.2445 57.8409 56.086 57.9407 55.9029 58.0199C55.7219 58.0981 55.5182 58.1362 55.2899 58.1362C55.0059 58.1362 54.757 58.0806 54.542 57.9695C54.3301 57.8584 54.1645 57.7103 54.0462 57.5241C53.93 57.3359 53.8714 57.125 53.8714 56.8925C53.8714 56.6672 53.9156 56.4697 54.003 56.299C54.0915 56.1262 54.218 55.9822 54.3826 55.869C54.5482 55.7528 54.7478 55.6643 54.9803 55.6046C55.2127 55.545 55.473 55.5162 55.76 55.5162H56.5932ZM60.7572 56.946C60.7572 56.8431 60.7336 56.7475 60.6873 56.659C60.643 56.5695 60.5515 56.4872 60.4116 56.4152C60.2748 56.3401 60.0681 56.2753 59.7913 56.2218C59.5589 56.1725 59.348 56.1138 59.1597 56.0469C58.9735 55.9801 58.8151 55.8978 58.6824 55.8032C58.5538 55.7075 58.454 55.5943 58.3841 55.4658C58.3141 55.3361 58.2792 55.1849 58.2792 55.0121C58.2792 54.8465 58.3162 54.6901 58.3882 54.543C58.4633 54.3949 58.5682 54.2643 58.702 54.1511C58.8388 54.0369 59.0034 53.9485 59.1947 53.8837C59.386 53.8189 59.599 53.787 59.8345 53.787C60.1699 53.787 60.4569 53.8456 60.6955 53.9649C60.9331 54.0843 61.1152 54.2427 61.2417 54.4422C61.3683 54.6387 61.432 54.8568 61.432 55.0975H60.714C60.714 54.9802 60.679 54.8681 60.6101 54.7601C60.5422 54.649 60.4435 54.5564 60.3108 54.4844C60.1822 54.4124 60.0228 54.3754 59.8345 54.3754C59.635 54.3754 59.4735 54.4073 59.35 54.469C59.2286 54.5286 59.1391 54.6048 59.0826 54.6973C59.028 54.7909 59.0002 54.8887 59.0002 54.9926C59.0002 55.0697 59.0136 55.1397 59.0394 55.2014C59.0682 55.2611 59.1175 55.3166 59.1865 55.368C59.2564 55.4174 59.3552 55.4637 59.4817 55.5079C59.6082 55.5522 59.7697 55.5954 59.9662 55.6396C60.3098 55.7178 60.5927 55.8104 60.8149 55.9194C61.0371 56.0274 61.2026 56.1611 61.3117 56.3185C61.4197 56.4759 61.4742 56.6672 61.4742 56.8925C61.4742 57.0756 61.4351 57.2433 61.3579 57.3966C61.2829 57.5488 61.1728 57.6805 61.0288 57.7916C60.8858 57.9006 60.7161 57.985 60.5165 58.0477C60.32 58.1074 60.0989 58.1362 59.8541 58.1362C59.4837 58.1362 59.171 58.0703 58.9159 57.9387C58.6598 57.807 58.4654 57.6362 58.3337 57.4274C58.2021 57.2176 58.1362 56.9964 58.1362 56.7639H58.8573C58.8676 56.9604 58.9242 57.1168 59.0281 57.233C59.1309 57.3472 59.2574 57.4285 59.4076 57.4778C59.5578 57.5241 59.7059 57.5478 59.8541 57.5478C60.0505 57.5478 60.2141 57.521 60.3458 57.4696C60.4805 57.4182 60.5824 57.3472 60.6523 57.2567C60.7223 57.1661 60.7572 57.0622 60.7572 56.946ZM64.1724 53.8641V54.4145H61.9052V53.8641H64.1724ZM62.6726 52.8447H63.3896V57.0201C63.3896 57.162 63.4112 57.269 63.4554 57.342C63.4996 57.414 63.5562 57.4624 63.6262 57.485C63.6961 57.5087 63.7712 57.52 63.8514 57.52C63.9101 57.52 63.9729 57.5149 64.0377 57.5046C64.1045 57.4922 64.1549 57.4819 64.1879 57.4737L64.1919 58.059C64.1354 58.0775 64.0603 58.094 63.9677 58.1094C63.8772 58.1279 63.7671 58.1362 63.6375 58.1362C63.4616 58.1362 63.3001 58.1022 63.153 58.0323C63.0059 57.9623 62.8886 57.8461 62.8002 57.6836C62.7148 57.5179 62.6726 57.2957 62.6726 57.016V52.8447ZM67.3284 52.4137H68.0536L69.9031 57.016L71.7485 52.4137H72.4779L70.1819 58.059H69.6161L67.3284 52.4137ZM67.0928 52.4137H67.7316L67.8365 55.8566V58.059H67.0928V52.4137ZM72.0705 52.4137H72.7103V58.059H71.9656V55.8566L72.0705 52.4137ZM73.7256 56.0079V55.9194C73.7256 55.617 73.7699 55.3362 73.8584 55.078C73.9458 54.8167 74.0723 54.5904 74.238 54.399C74.4036 54.2056 74.6031 54.0555 74.8387 53.9495C75.0742 53.8405 75.3376 53.787 75.6297 53.787C75.9239 53.787 76.1893 53.8405 76.4249 53.9495C76.6625 54.0555 76.8641 54.2056 77.0297 54.399C77.1974 54.5904 77.325 54.8167 77.4134 55.078C77.5009 55.3362 77.5451 55.617 77.5451 55.9194V56.0079C77.5451 56.3103 77.5009 56.5911 77.4134 56.8493C77.325 57.1075 77.1974 57.3338 77.0297 57.5282C76.8641 57.7196 76.6635 57.8687 76.428 57.9778C76.1955 58.0837 75.9321 58.1362 75.6379 58.1362C75.3427 58.1362 75.0783 58.0837 74.8428 57.9778C74.6072 57.8687 74.4056 57.7196 74.238 57.5282C74.0723 57.3338 73.9458 57.1075 73.8584 56.8493C73.7699 56.5911 73.7256 56.3103 73.7256 56.0079ZM74.4436 55.9194V56.0079C74.4436 56.2177 74.4684 56.4152 74.5167 56.6014C74.5661 56.7845 74.6401 56.9481 74.7378 57.09C74.8387 57.232 74.9642 57.3441 75.1144 57.4274C75.2635 57.5077 75.4384 57.5478 75.6379 57.5478C75.8344 57.5478 76.0062 57.5077 76.1533 57.4274C76.3035 57.3441 76.427 57.232 76.5257 57.09C76.6234 56.9481 76.6975 56.7845 76.7468 56.6014C76.7983 56.4152 76.824 56.2177 76.824 56.0079V55.9194C76.824 55.7126 76.7983 55.5172 76.7468 55.3331C76.6975 55.1479 76.6224 54.9833 76.5216 54.8414C76.4228 54.6963 76.2994 54.5832 76.1492 54.4998C76.0021 54.4175 75.8293 54.3754 75.6297 54.3754C75.4332 54.3754 75.2604 54.4175 75.1102 54.4998C74.9631 54.5832 74.8387 54.6963 74.7378 54.8414C74.6401 54.9833 74.5661 55.1479 74.5167 55.3331C74.4684 55.5172 74.4436 55.7126 74.4436 55.9194ZM79.1622 54.7601V58.059H78.4442V53.8641H79.1231L79.1622 54.7601ZM78.9914 55.8032L78.6931 55.7908C78.6952 55.5038 78.7383 55.2394 78.8206 54.9967C78.9029 54.7508 79.0191 54.5379 79.1693 54.3569C79.3195 54.1758 79.4975 54.0359 79.7043 53.9382C79.9141 53.8374 80.1455 53.787 80.3986 53.787C80.6054 53.787 80.7916 53.8147 80.9572 53.8723C81.1228 53.9258 81.2637 54.0143 81.38 54.1357C81.4983 54.2571 81.5888 54.4145 81.6505 54.6089C81.7133 54.8002 81.7441 55.0337 81.7441 55.3104V58.059H81.023V55.3022C81.023 55.0831 80.9901 54.9072 80.9263 54.7755C80.8615 54.6408 80.7669 54.5441 80.6424 54.4844C80.5189 54.4227 80.3667 54.3918 80.1857 54.3918C80.0067 54.3918 79.8441 54.4289 79.697 54.5039C79.552 54.579 79.4265 54.6819 79.3206 54.8136C79.2177 54.9463 79.1364 55.0975 79.0768 55.2672C79.0192 55.4359 78.9914 55.6139 78.9914 55.8032ZM84.5894 53.8641V54.4145H82.3212V53.8641H84.5894ZM83.0896 52.8447H83.8066V57.0201C83.8066 57.162 83.8282 57.269 83.8724 57.342C83.9167 57.414 83.9732 57.4624 84.0432 57.485C84.1131 57.5087 84.1882 57.52 84.2685 57.52C84.3271 57.52 84.3898 57.5149 84.4536 57.5046C84.5215 57.4922 84.5719 57.4819 84.6048 57.4737L84.6089 58.059C84.5524 58.0775 84.4773 58.094 84.3847 58.1094C84.2942 58.1279 84.1841 58.1362 84.0545 58.1362C83.8786 58.1362 83.7171 58.1022 83.57 58.0323C83.4229 57.9623 83.3056 57.8461 83.2171 57.6836C83.1318 57.5179 83.0896 57.2957 83.0896 57.016V52.8447ZM86.1489 52.1041V58.059H85.4309V52.1041H86.1489ZM85.9781 55.8032L85.6787 55.7908C85.6818 55.5038 85.724 55.2394 85.8073 54.9967C85.8896 54.7508 86.0059 54.5379 86.1561 54.3569C86.3063 54.1758 86.4842 54.0359 86.691 53.9382C86.9008 53.8374 87.1322 53.787 87.3853 53.787C87.5921 53.787 87.7783 53.8147 87.9439 53.8723C88.1085 53.9258 88.2494 54.0143 88.3656 54.1357C88.4849 54.2571 88.5755 54.4145 88.6372 54.6089C88.7 54.8002 88.7308 55.0337 88.7308 55.3104V58.059H88.0098V55.3022C88.0098 55.0831 87.9768 54.9072 87.912 54.7755C87.8482 54.6408 87.7536 54.5441 87.6291 54.4844C87.5057 54.4227 87.3524 54.3918 87.1724 54.3918C86.9934 54.3918 86.8309 54.4289 86.6838 54.5039C86.5388 54.579 86.4132 54.6819 86.3073 54.8136C86.2044 54.9463 86.1221 55.0975 86.0635 55.2672C86.0059 55.4359 85.9781 55.6139 85.9781 55.8032Z" fill="#4B4B4B"/>
<path d="M188.3 38.0006C188.3 27.977 180.174 19.8512 170.15 19.8512C160.127 19.8512 152.001 27.977 152.001 38.0006C152.001 48.0242 160.127 56.15 170.15 56.15C180.174 56.15 188.3 48.0242 188.3 38.0006Z" fill="#EBF2FF"/>
<path fill-rule="evenodd" clip-rule="evenodd" d="M170.692 31.4001L177.913 35.6403C178.15 35.7792 178.284 36.0168 178.284 36.2935V44.7749C178.284 45.0516 178.15 45.2892 177.913 45.4281L170.692 49.6682C170.455 49.8071 170.188 49.8071 169.951 49.6682L162.73 45.4281C162.494 45.2892 162.36 45.0526 162.36 44.7749V36.2935C162.36 36.0168 162.494 35.7792 162.73 35.6403L169.951 31.4001C170.188 31.2613 170.455 31.2613 170.692 31.4001Z" fill="url(#paint0_linear_102_3145)"/>
<path fill-rule="evenodd" clip-rule="evenodd" d="M174.302 33.5212L177.913 35.6413C178.036 35.7102 178.129 35.8038 178.191 35.9159L170.321 40.5347L162.452 35.9159C162.524 35.8048 162.617 35.7102 162.73 35.6413L166.341 33.5212L169.951 31.4001C170.188 31.2622 170.455 31.2622 170.692 31.4001L174.302 33.5212Z" fill="#1D5AD3"/>
<path fill-rule="evenodd" clip-rule="evenodd" d="M177.913 35.6413C178.037 35.7102 178.129 35.8038 178.191 35.9149L170.322 40.5347V31.2962C170.445 31.2962 170.579 31.3302 170.692 31.4001L177.913 35.6413Z" fill="#1D5AD3"/>
<path fill-rule="evenodd" clip-rule="evenodd" d="M178.191 35.915C178.253 36.026 178.284 36.1557 178.284 36.2935V44.7749C178.284 45.0516 178.15 45.2892 177.913 45.4281L176.134 46.4722L170.692 49.6693C170.579 49.7382 170.445 49.7721 170.322 49.7721V40.5347L178.191 35.915Z" fill="url(#paint1_linear_102_3145)"/>
<path fill-rule="evenodd" clip-rule="evenodd" d="M170.322 40.5347L178.191 35.915L179.353 37.9558C179.456 38.1359 179.395 38.3673 179.209 38.4712L171.988 42.7124C171.813 42.8163 171.587 42.7546 171.484 42.5745L170.322 40.5337V40.5347Z" fill="#2F72F6"/>
<path fill-rule="evenodd" clip-rule="evenodd" d="M170.322 40.5347L162.452 35.915L161.3 37.9558C161.197 38.1359 161.259 38.3673 161.434 38.4712L168.655 42.7124C168.84 42.8163 169.067 42.7546 169.169 42.5745L170.322 40.5337V40.5347Z" fill="#2F72F6"/>
<path d="M170.321 37.8622C172.873 37.8622 174.94 35.7627 174.94 33.1725C174.94 30.5823 172.873 28.4818 170.321 28.4818C167.781 28.4818 165.713 30.5823 165.713 33.1725C165.713 35.7627 167.781 37.8622 170.321 37.8622Z" fill="url(#paint2_linear_102_3145)"/>
<path fill-rule="evenodd" clip-rule="evenodd" d="M170.322 28.4818C172.873 28.4818 174.94 30.5823 174.94 33.1725C174.94 35.7627 172.873 37.8622 170.322 37.8622C170.219 37.8622 170.116 37.8591 170.003 37.8519C172.41 37.6863 174.303 35.6547 174.303 33.1725C174.303 30.6903 172.41 28.6587 170.003 28.4931C170.116 28.4859 170.219 28.4818 170.322 28.4818Z" fill="url(#paint3_linear_102_3145)"/>
<path fill-rule="evenodd" clip-rule="evenodd" d="M169.746 33.5695L171.895 31.3559C172.153 31.0946 172.564 31.0935 172.821 31.3528C173.078 31.613 173.078 32.0348 172.832 32.2971C171.957 33.193 171.083 34.0962 170.208 34.9891C169.951 35.2504 169.54 35.2504 169.283 34.9891L167.822 33.5078C167.565 33.2465 167.565 32.8238 167.822 32.5625C168.079 32.3012 168.491 32.3012 168.748 32.5625L169.746 33.5695Z" fill="white"/>
<path fill-rule="evenodd" clip-rule="evenodd" d="M172.153 31.1943C172.379 31.1162 172.647 31.1686 172.821 31.3538C173.079 31.613 173.079 32.0347 172.832 32.2971C171.957 33.1941 171.083 34.0972 170.209 34.9901C170.023 35.1753 169.766 35.2288 169.53 35.1506C169.622 35.1187 169.715 35.0652 169.787 34.9901C170.661 34.0972 171.536 33.1941 172.41 32.2971C172.657 32.0358 172.657 31.613 172.4 31.3538C172.328 31.2797 172.245 31.2262 172.153 31.1943ZM168.079 32.402C168.172 32.4339 168.254 32.4874 168.326 32.5625L169.53 33.7855L169.746 33.5695L168.748 32.5625C168.573 32.3773 168.306 32.3228 168.079 32.402Z" fill="#ECEFF1"/>
<path d="M184.291 12.2113L186.029 13.9425L187.768 12.2113L188.303 12.7441L186.029 15.0134L183.766 12.7441L184.291 12.2113Z" fill="black"/>
<defs>
<linearGradient id="paint0_linear_102_3145" x1="170.322" y1="31.2962" x2="170.322" y2="49.7732" gradientUnits="userSpaceOnUse">
<stop stop-color="#3E7BF3"/>
<stop offset="1" stop-color="#1546A7"/>
</linearGradient>
<linearGradient id="paint1_linear_102_3145" x1="174.303" y1="35.915" x2="174.303" y2="49.7721" gradientUnits="userSpaceOnUse">
<stop stop-color="#316DE3"/>
<stop offset="1" stop-color="#1351CB"/>
</linearGradient>
<linearGradient id="paint2_linear_102_3145" x1="170.321" y1="28.4818" x2="170.321" y2="37.8622" gradientUnits="userSpaceOnUse">
<stop stop-color="#FFAD0D"/>
<stop offset="1" stop-color="#EA9F0C"/>
</linearGradient>
<linearGradient id="paint3_linear_102_3145" x1="172.472" y1="28.4818" x2="172.472" y2="37.8622" gradientUnits="userSpaceOnUse">
<stop stop-color="#FFAD0D"/>
<stop offset="1" stop-color="#EA9F0C"/>
</linearGradient>
</defs>
</svg>
