<svg width="439" height="270" viewBox="0 0 439 270" fill="none" xmlns="http://www.w3.org/2000/svg">
<path d="M432.164 0H6.58536C2.94837 0 0 2.94835 0 6.58534V263.415C0 267.052 2.94837 270 6.58536 270H432.164C435.801 270 438.749 267.052 438.749 263.415V6.58534C438.749 2.94835 435.801 0 432.164 0Z" fill="white"/>
<path d="M20.726 19.4221V28.2008H19.5805V19.4221H20.726ZM23.5476 19.4221V20.3746H16.765V19.4221H23.5476ZM23.7827 25.0103V24.873C23.7827 24.4027 23.8511 23.9652 23.9877 23.5636C24.1245 23.1575 24.3214 22.8067 24.5787 22.5096C24.8359 22.208 25.1473 21.9736 25.5131 21.8094C25.8789 21.6407 26.2889 21.5555 26.743 21.5555C27.2012 21.5555 27.6133 21.6407 27.9791 21.8094C28.3489 21.9736 28.6624 22.208 28.9196 22.5096C29.1809 22.8067 29.3798 23.1575 29.5165 23.5636C29.6531 23.9652 29.7215 24.4027 29.7215 24.873V25.0103C29.7215 25.4806 29.6531 25.918 29.5165 26.3196C29.3798 26.7213 29.1809 27.0736 28.9196 27.3737C28.6624 27.6723 28.3508 27.9052 27.985 28.0739C27.6233 28.2381 27.2133 28.3202 26.7551 28.3202C26.2969 28.3202 25.885 28.2381 25.5192 28.0739C25.1535 27.9052 24.8399 27.6723 24.5787 27.3737C24.3214 27.0736 24.1245 26.7213 23.9877 26.3196C23.8511 25.918 23.7827 25.4806 23.7827 25.0103ZM24.8982 24.873V25.0103C24.8982 25.3373 24.9364 25.6433 25.0127 25.933C25.0891 26.2181 25.2036 26.4719 25.3563 26.6929C25.5131 26.9138 25.7081 27.0885 25.9411 27.2169C26.1743 27.3424 26.4456 27.4051 26.7551 27.4051C27.0606 27.4051 27.3278 27.3424 27.557 27.2169C27.7902 27.0885 27.9831 26.9138 28.1358 26.6929C28.2885 26.4719 28.4031 26.2181 28.4795 25.933C28.5598 25.6433 28.6 25.3373 28.6 25.0103V24.873C28.6 24.5505 28.5598 24.2474 28.4795 23.9623C28.4031 23.6726 28.2865 23.4173 28.1297 23.1964C27.977 22.9709 27.7841 22.7947 27.551 22.6664C27.3218 22.5365 27.0525 22.4723 26.743 22.4723C26.4376 22.4723 26.1684 22.5365 25.9352 22.6664C25.706 22.7947 25.5131 22.9709 25.3563 23.1964C25.2036 23.4173 25.0891 23.6726 25.0127 23.9623C24.9364 24.2474 24.8982 24.5505 24.8982 24.873ZM32.2355 22.9306V30.709H31.1142V21.6765H32.1391L32.2355 22.9306ZM36.6307 24.8849V25.0103C36.6307 25.4851 36.5746 25.9255 36.462 26.3316C36.3494 26.7332 36.1846 27.0825 35.9675 27.3796C35.7545 27.6782 35.4913 27.9097 35.1777 28.0739C34.8642 28.2381 34.5045 28.3202 34.0986 28.3202C33.6846 28.3202 33.3188 28.2531 33.0013 28.1157C32.6837 27.9798 32.4144 27.7798 32.1934 27.5185C31.9723 27.2572 31.7954 26.9437 31.6628 26.5779C31.5341 26.2122 31.4457 25.8001 31.3975 25.3433V24.6669C31.4457 24.1847 31.5362 23.7532 31.6688 23.371C31.8015 22.9888 31.9763 22.6634 32.1934 22.3946C32.4144 22.1214 32.6818 21.9139 32.9952 21.7736C33.3087 21.6287 33.6704 21.5555 34.0804 21.5555C34.4904 21.5555 34.8542 21.6362 35.1718 21.7974C35.4893 21.9542 35.7566 22.1796 35.9736 22.4723C36.1906 22.7664 36.3534 23.1172 36.462 23.5278C36.5746 23.9339 36.6307 24.3862 36.6307 24.8849ZM35.5093 25.0103V24.8849C35.5093 24.5594 35.4751 24.2534 35.4069 23.9682C35.3385 23.6786 35.2321 23.4248 35.0873 23.2083C34.9466 22.9873 34.7658 22.8141 34.5447 22.6902C34.3236 22.5618 34.0604 22.4961 33.7549 22.4961C33.4735 22.4961 33.2284 22.5454 33.0193 22.641C32.8144 22.738 32.6395 22.8679 32.4949 23.0336C32.3502 23.1949 32.2315 23.3785 32.1391 23.5875C32.0507 23.7936 31.9844 24.0055 31.9401 24.2265V25.7882C32.0205 26.0703 32.1331 26.3361 32.2778 26.5839C32.4224 26.8302 32.6153 27.0288 32.8566 27.1811C33.0977 27.3304 33.4012 27.4051 33.767 27.4051C34.0684 27.4051 34.3276 27.3424 34.5447 27.2169C34.7658 27.0885 34.9466 26.9138 35.0873 26.6929C35.2321 26.4719 35.3385 26.2181 35.4069 25.933C35.4751 25.6433 35.5093 25.3373 35.5093 25.0103ZM44.5229 24.758H42.1775V23.8115H44.5229C44.977 23.8115 45.3447 23.7383 45.6262 23.5935C45.9074 23.4502 46.1124 23.2486 46.2411 22.9918C46.3737 22.7335 46.4401 22.4409 46.4401 22.1109C46.4401 21.8094 46.3737 21.5257 46.2411 21.2614C46.1124 20.9957 45.9074 20.7822 45.6262 20.6224C45.3447 20.4567 44.977 20.3746 44.5229 20.3746H42.4488V28.2008H41.2852V19.4221H44.5229C45.186 19.4221 45.7466 19.5371 46.205 19.7655C46.6632 19.9954 47.0108 20.3119 47.248 20.718C47.4851 21.1196 47.6036 21.581 47.6036 22.099C47.6036 22.6619 47.4851 23.1426 47.248 23.5397C47.0108 23.9384 46.6632 24.2414 46.205 24.4505C45.7466 24.655 45.186 24.758 44.5229 24.758ZM50.0213 22.7022V28.2008H48.9059V21.6765H49.9912L50.0213 22.7022ZM52.0591 21.6407L52.0531 22.6783C51.9607 22.6574 51.8723 22.6455 51.7878 22.641C51.7075 22.6335 51.6151 22.629 51.5106 22.629C51.2533 22.629 51.0263 22.6693 50.8292 22.75C50.6323 22.8306 50.4655 22.9425 50.3289 23.0873C50.1921 23.2322 50.0836 23.4054 50.0033 23.6069C49.9268 23.8025 49.8767 24.0205 49.8525 24.2579L49.539 24.4385C49.539 24.0443 49.5772 23.6741 49.6536 23.3292C49.7339 22.9829 49.8565 22.6783 50.0213 22.4125C50.1862 22.1438 50.3952 21.9348 50.6484 21.7855C50.9056 21.6332 51.2111 21.5555 51.5648 21.5555C51.6451 21.5555 51.7377 21.566 51.8422 21.5869C51.9467 21.6019 52.0189 21.6213 52.0591 21.6407ZM52.6742 25.0103V24.873C52.6742 24.4027 52.7424 23.9652 52.8792 23.5636C53.0158 23.1575 53.2127 22.8067 53.47 22.5096C53.7272 22.208 54.0388 21.9736 54.4044 21.8094C54.7702 21.6407 55.1802 21.5555 55.6345 21.5555C56.0927 21.5555 56.5046 21.6407 56.8704 21.8094C57.2402 21.9736 57.5537 22.208 57.8109 22.5096C58.0722 22.8067 58.2711 23.1575 58.4078 23.5636C58.5444 23.9652 58.6128 24.4027 58.6128 24.873V25.0103C58.6128 25.4806 58.5444 25.918 58.4078 26.3196C58.2711 26.7213 58.0722 27.0736 57.8109 27.3737C57.5537 27.6723 57.2421 27.9052 56.8763 28.0739C56.5146 28.2381 56.1046 28.3202 55.6464 28.3202C55.1882 28.3202 54.7763 28.2381 54.4105 28.0739C54.0448 27.9052 53.7312 27.6723 53.47 27.3737C53.2127 27.0736 53.0158 26.7213 52.8792 26.3196C52.7424 25.918 52.6742 25.4806 52.6742 25.0103ZM53.7895 24.873V25.0103C53.7895 25.3373 53.8277 25.6433 53.9041 25.933C53.9804 26.2181 54.0949 26.4719 54.2476 26.6929C54.4044 26.9138 54.5994 27.0885 54.8326 27.2169C55.0656 27.3424 55.3369 27.4051 55.6464 27.4051C55.9519 27.4051 56.2193 27.3424 56.4483 27.2169C56.6815 27.0885 56.8744 26.9138 57.0271 26.6929C57.1798 26.4719 57.2944 26.2181 57.3708 25.933C57.4511 25.6433 57.4914 25.3373 57.4914 25.0103V24.873C57.4914 24.5505 57.4511 24.2474 57.3708 23.9623C57.2944 23.6726 57.1779 23.4173 57.0211 23.1964C56.8684 22.9709 56.6754 22.7947 56.4423 22.6664C56.2131 22.5365 55.944 22.4723 55.6345 22.4723C55.3289 22.4723 55.0597 22.5365 54.8265 22.6664C54.5974 22.7947 54.4044 22.9709 54.2476 23.1964C54.0949 23.4173 53.9804 23.6726 53.9041 23.9623C53.8277 24.2474 53.7895 24.5505 53.7895 24.873ZM64.1234 26.9348V18.9399H65.2447V28.2008H64.2198L64.1234 26.9348ZM59.7342 25.0103V24.8849C59.7342 24.3862 59.7945 23.9339 59.915 23.5278C60.0396 23.1172 60.2145 22.7664 60.4396 22.4723C60.6686 22.1796 60.9401 21.9542 61.2536 21.7974C61.571 21.6362 61.9247 21.5555 62.3146 21.5555C62.7246 21.5555 63.0823 21.6287 63.3878 21.7736C63.6973 21.9139 63.9585 22.1214 64.1716 22.3946C64.3887 22.6634 64.5595 22.9888 64.684 23.371C64.8086 23.7532 64.8951 24.1847 64.9433 24.6669V25.2223C64.8991 25.7001 64.8127 26.13 64.684 26.5122C64.5595 26.8944 64.3887 27.2199 64.1716 27.4887C63.9585 27.7589 63.6973 27.9649 63.3878 28.1097C63.0783 28.2501 62.7165 28.3202 62.3025 28.3202C61.9208 28.3202 61.571 28.2381 61.2536 28.0739C60.9401 27.9097 60.6686 27.6782 60.4396 27.3796C60.2145 27.0825 60.0396 26.7332 59.915 26.3316C59.7945 25.9255 59.7342 25.4851 59.7342 25.0103ZM60.8555 24.8849V25.0103C60.8555 25.3373 60.8878 25.6418 60.952 25.927C61.0204 26.2122 61.1249 26.4645 61.2655 26.681C61.4063 26.8974 61.5852 27.0691 61.8021 27.193C62.0192 27.314 62.2785 27.3737 62.5799 27.3737C62.9497 27.3737 63.2531 27.2961 63.4904 27.1393C63.7315 26.9825 63.9244 26.775 64.069 26.5182C64.2138 26.2614 64.3263 25.9822 64.4067 25.6806V24.2265C64.3585 24.0055 64.2882 23.7936 64.1956 23.5875C64.1073 23.3785 63.9906 23.1949 63.846 23.0336C63.7053 22.8679 63.5305 22.738 63.3215 22.641C63.1165 22.5454 62.8733 22.4961 62.592 22.4961C62.2864 22.4961 62.0232 22.5618 61.8021 22.6902C61.5852 22.8141 61.4063 22.9873 61.2655 23.2083C61.1249 23.4248 61.0204 23.6786 60.952 23.9682C60.8878 24.2534 60.8555 24.5594 60.8555 24.8849ZM70.9724 26.6929V21.6765H72.0938V28.2008H71.0266L70.9724 26.6929ZM71.1834 25.3179L71.6477 25.3059C71.6477 25.7404 71.6014 26.142 71.509 26.5122C71.4206 26.878 71.2758 27.196 71.0748 27.4648C70.8739 27.7335 70.6106 27.9455 70.285 28.0978C69.9596 28.2471 69.5636 28.3202 69.0974 28.3202C68.7798 28.3202 68.4884 28.2755 68.2231 28.1829C67.9618 28.0903 67.7368 27.947 67.5478 27.7544C67.3589 27.5618 67.2122 27.3095 67.1077 27.0004C67.0072 26.6914 66.957 26.3197 66.957 25.8852V21.6765H68.0724V25.8971C68.0724 26.1913 68.1045 26.4331 68.1689 26.6272C68.2371 26.8153 68.3276 26.9661 68.4402 27.0796C68.5568 27.1871 68.6853 27.2632 68.8261 27.308C68.9708 27.3528 69.1195 27.3737 69.2722 27.3737C69.7465 27.3737 70.1223 27.2841 70.3995 27.1034C70.6769 26.9183 70.8759 26.6705 70.9964 26.3615C71.1211 26.0479 71.1834 25.7001 71.1834 25.3179ZM76.4046 27.4051C76.6699 27.4051 76.915 27.3498 77.1402 27.2423C77.3652 27.1333 77.5501 26.984 77.6948 26.7959C77.8395 26.6033 77.9219 26.3838 77.942 26.139H79.0031C78.9829 26.5242 78.8523 26.884 78.6112 27.2169C78.3741 27.5469 78.0625 27.8141 77.6767 28.0202C77.2908 28.2202 76.8668 28.3202 76.4046 28.3202C75.9141 28.3202 75.4861 28.2351 75.1203 28.0619C74.7586 27.8888 74.4571 27.6514 74.216 27.3498C73.9789 27.0482 73.7999 26.7033 73.6795 26.3137C73.5629 25.9195 73.5046 25.503 73.5046 25.0656V24.8117C73.5046 24.3743 73.5629 23.9593 73.6795 23.5696C73.7999 23.1755 73.9789 22.8291 74.216 22.5275C74.4571 22.2259 74.7586 21.9885 75.1203 21.8153C75.4861 21.6422 75.9141 21.5555 76.4046 21.5555C76.915 21.5555 77.3611 21.6601 77.743 21.8691C78.1249 22.0751 78.4243 22.3558 78.6414 22.7141C78.8625 23.0679 78.9829 23.4696 79.0031 23.9204H77.942C77.9219 23.6502 77.8454 23.4068 77.7129 23.1904C77.5843 22.9724 77.4074 22.8007 77.1823 22.6723C76.9613 22.5394 76.702 22.4723 76.4046 22.4723C76.063 22.4723 75.7756 22.5409 75.5424 22.6783C75.3134 22.8097 75.1305 22.9918 74.9937 23.2202C74.8611 23.4457 74.7647 23.6965 74.7044 23.9742C74.6481 24.2474 74.62 24.5266 74.62 24.8117V25.0656C74.62 25.3507 74.6481 25.6314 74.7044 25.9091C74.7607 26.1868 74.855 26.4376 74.9877 26.663C75.1243 26.8885 75.3072 27.0691 75.5364 27.205C75.7695 27.3379 76.059 27.4051 76.4046 27.4051ZM82.9883 21.6765V22.5335H79.4613V21.6765H82.9883ZM80.6551 20.091H81.7705V26.5839C81.7705 26.8064 81.8047 26.9721 81.8729 27.0855C81.9413 27.1975 82.0297 27.2722 82.1382 27.308C82.2467 27.3439 82.3633 27.3617 82.4879 27.3617C82.5804 27.3617 82.6769 27.3543 82.7773 27.3379C82.8818 27.3185 82.9602 27.302 83.0125 27.2901L83.0185 28.2008C82.9301 28.2292 82.8135 28.2546 82.6688 28.2784C82.5282 28.3068 82.3572 28.3202 82.1563 28.3202C81.8831 28.3202 81.6318 28.2665 81.4026 28.1575C81.1736 28.05 80.9907 27.8694 80.8541 27.6156C80.7214 27.3588 80.6551 27.0124 80.6551 26.5779V20.091ZM92.2068 25.9823C92.2068 25.7762 92.1746 25.5956 92.1104 25.4388C92.0501 25.2776 91.9415 25.1343 91.7848 25.0044C91.632 24.876 91.419 24.7535 91.1456 24.6371C90.8764 24.5206 90.5347 24.4027 90.1207 24.2817C89.6867 24.1534 89.2948 24.01 88.9451 23.8532C88.5953 23.692 88.296 23.5099 88.0466 23.3054C87.7975 23.0993 87.6065 22.8649 87.4739 22.5991C87.3414 22.3334 87.2749 22.0303 87.2749 21.6885C87.2749 21.3481 87.3454 21.0315 87.486 20.7419C87.6267 20.4523 87.8276 20.2015 88.0889 19.9894C88.3542 19.7715 88.6697 19.6028 89.0354 19.4818C89.4012 19.3624 89.8093 19.3012 90.2594 19.3012C90.9185 19.3012 91.4772 19.4281 91.9354 19.6819C92.3978 19.9312 92.7494 20.2582 92.9905 20.6643C93.2317 21.0659 93.3522 21.4959 93.3522 21.9542H92.1947C92.1947 21.6243 92.1244 21.3331 91.9838 21.0793C91.843 20.8225 91.6299 20.6225 91.3446 20.4776C91.0592 20.3283 90.6976 20.2537 90.2594 20.2537C89.8454 20.2537 89.5038 20.3164 89.2345 20.4403C88.9651 20.5657 88.7642 20.7344 88.6316 20.9479C88.5029 21.1599 88.4385 21.4033 88.4385 21.6765C88.4385 21.8616 88.4768 22.0303 88.5532 22.1826C88.6335 22.3319 88.7561 22.4708 88.9209 22.5991C89.0898 22.7275 89.3028 22.847 89.5601 22.9545C89.8213 23.0635 90.1328 23.168 90.4945 23.268C90.9929 23.4098 91.423 23.5666 91.7848 23.7383C92.1465 23.9115 92.4439 24.107 92.6771 24.3235C92.9142 24.537 93.089 24.7804 93.2016 25.0536C93.3182 25.3224 93.3764 25.6284 93.3764 25.9703C93.3764 26.3271 93.304 26.6511 93.1593 26.9407C93.0147 27.2304 92.8077 27.4767 92.5384 27.6813C92.2691 27.8873 91.9455 28.0456 91.5677 28.1575C91.1938 28.2665 90.7758 28.3202 90.3136 28.3202C89.9076 28.3202 89.5078 28.265 89.1138 28.1516C88.724 28.0396 88.3682 27.8708 88.0466 27.6454C87.7292 27.42 87.4739 27.1438 87.281 26.8138C87.092 26.4794 86.9977 26.0942 86.9977 25.6568H88.1552C88.1552 25.9569 88.2136 26.2167 88.33 26.4331C88.4466 26.6466 88.6055 26.8243 88.8064 26.9646C89.0114 27.105 89.2425 27.2095 89.4998 27.2781C89.761 27.3423 90.0323 27.3737 90.3136 27.3737C90.7197 27.3737 91.0632 27.3185 91.3446 27.205C91.6259 27.093 91.8389 26.9318 91.9838 26.7228C92.1325 26.5138 92.2068 26.2674 92.2068 25.9823ZM98.5373 27.0855V23.7263C98.5373 23.4696 98.4851 23.2471 98.3806 23.0575C98.2801 22.8649 98.1274 22.7156 97.9224 22.6111C97.7174 22.5066 97.4642 22.4544 97.1626 22.4544C96.8813 22.4544 96.6341 22.5036 96.421 22.5991C96.212 22.6962 96.0473 22.8231 95.9267 22.9799C95.8101 23.1366 95.7519 23.3054 95.7519 23.486H94.6365C94.6365 23.2531 94.6968 23.0217 94.8174 22.7917C94.9379 22.5633 95.1108 22.3558 95.3358 22.1707C95.565 21.9826 95.8383 21.8333 96.1559 21.7258C96.4773 21.6123 96.835 21.5555 97.229 21.5555C97.7034 21.5555 98.1212 21.6362 98.483 21.7974C98.8488 21.9587 99.1342 22.202 99.3392 22.5275C99.5482 22.8485 99.6527 23.2531 99.6527 23.7383V26.778C99.6527 26.9945 99.6708 27.2259 99.7069 27.4707C99.7471 27.7156 99.8055 27.9276 99.8818 28.1038V28.2008H98.7181C98.6618 28.0724 98.6176 27.9007 98.5855 27.6872C98.5535 27.4708 98.5373 27.2692 98.5373 27.0855ZM98.7302 24.2459L98.7423 25.0297H97.6148C97.2973 25.0297 97.0139 25.0551 96.7647 25.1074C96.5155 25.1552 96.3065 25.2298 96.1377 25.3298C95.969 25.4313 95.8403 25.5582 95.7519 25.7105C95.6635 25.8583 95.6192 26.0345 95.6192 26.2345C95.6192 26.4406 95.6654 26.6272 95.7579 26.7959C95.8503 26.9646 95.989 27.099 96.174 27.199C96.3628 27.2961 96.5939 27.3438 96.8673 27.3438C97.2089 27.3438 97.5103 27.2722 97.7716 27.1274C98.0329 26.9825 98.2399 26.8064 98.3927 26.5973C98.5494 26.3883 98.6338 26.1853 98.6459 25.9882L99.1221 26.5242C99.0941 26.6929 99.0176 26.8795 98.893 27.0855C98.7684 27.2901 98.6017 27.4872 98.3927 27.6753C98.1877 27.8604 97.9424 28.0157 97.6571 28.1396C97.3757 28.2605 97.0582 28.3202 96.7044 28.3202C96.2623 28.3202 95.8745 28.2351 95.5408 28.0619C95.2113 27.8888 94.954 27.6573 94.7691 27.3677C94.5883 27.0751 94.4978 26.7466 94.4978 26.3853C94.4978 26.036 94.5662 25.7284 94.7028 25.4627C94.8395 25.1939 95.0365 24.9715 95.2937 24.7938C95.5509 24.6132 95.8604 24.4758 96.2222 24.3833C96.5839 24.2922 96.9878 24.2459 97.434 24.2459H98.7302ZM102.619 18.9399V28.2008H101.498V18.9399H102.619ZM107.117 28.3202C106.663 28.3202 106.25 28.2441 105.881 28.0918C105.515 27.9351 105.199 27.7156 104.934 27.4349C104.673 27.1527 104.472 26.8198 104.331 26.4331C104.191 26.048 104.12 25.6254 104.12 25.1671V24.9147C104.12 24.3832 104.199 23.9115 104.355 23.4979C104.512 23.0799 104.725 22.7261 104.994 22.4364C105.264 22.1468 105.569 21.9288 105.911 21.7795C106.253 21.6302 106.606 21.5555 106.972 21.5555C107.438 21.5555 107.84 21.6362 108.178 21.7974C108.52 21.9587 108.799 22.1826 109.016 22.4723C109.233 22.7574 109.394 23.0963 109.498 23.486C109.603 23.8712 109.655 24.2937 109.655 24.752V25.2522H104.783V24.3415H108.54V24.2579C108.523 23.9682 108.463 23.6861 108.359 23.4128C108.258 23.1396 108.097 22.9142 107.876 22.738C107.655 22.5618 107.354 22.4723 106.972 22.4723C106.719 22.4723 106.486 22.5275 106.273 22.635C106.06 22.7395 105.877 22.8963 105.724 23.1053C105.571 23.3143 105.453 23.5696 105.368 23.8712C105.284 24.1728 105.242 24.5206 105.242 24.9147V25.1671C105.242 25.4776 105.284 25.7687 105.368 26.0419C105.457 26.3107 105.583 26.5481 105.748 26.7541C105.917 26.9587 106.12 27.1184 106.357 27.2364C106.598 27.3528 106.872 27.411 107.177 27.411C107.571 27.411 107.904 27.3304 108.178 27.1691C108.451 27.0079 108.69 26.7929 108.895 26.5242L109.571 27.0602C109.43 27.2737 109.251 27.4767 109.034 27.6693C108.817 27.8634 108.55 28.0201 108.232 28.1396C107.919 28.2605 107.547 28.3202 107.117 28.3202ZM114.756 26.4705C114.756 26.3092 114.719 26.1599 114.647 26.024C114.579 25.8837 114.436 25.7568 114.219 25.6433C114.006 25.5269 113.684 25.4269 113.254 25.3433C112.893 25.2656 112.565 25.176 112.271 25.0715C111.982 24.967 111.735 24.8401 111.53 24.6908C111.329 24.543 111.174 24.3683 111.066 24.1668C110.957 23.9652 110.903 23.7308 110.903 23.4621C110.903 23.2038 110.959 22.9605 111.072 22.7321C111.188 22.5036 111.351 22.3006 111.56 22.1229C111.773 21.9467 112.028 21.8079 112.326 21.7064C112.623 21.6063 112.955 21.5555 113.321 21.5555C113.843 21.5555 114.289 21.6481 114.659 21.8332C115.029 22.0184 115.312 22.2662 115.509 22.5753C115.706 22.8813 115.805 23.2202 115.805 23.5935H114.689C114.689 23.4128 114.635 23.2381 114.526 23.0694C114.422 22.8963 114.267 22.7544 114.062 22.641C113.861 22.529 113.614 22.4723 113.321 22.4723C113.011 22.4723 112.76 22.5215 112.567 22.6171C112.378 22.7097 112.239 22.8291 112.151 22.9724C112.067 23.1172 112.024 23.271 112.024 23.4307C112.024 23.5517 112.044 23.6607 112.085 23.7562C112.129 23.8488 112.205 23.9354 112.314 24.016C112.422 24.0921 112.575 24.1653 112.772 24.2325C112.969 24.3012 113.22 24.3698 113.526 24.4385C114.06 24.5594 114.5 24.7028 114.846 24.873C115.192 25.0417 115.449 25.2477 115.618 25.494C115.787 25.7389 115.871 26.036 115.871 26.3853C115.871 26.6705 115.811 26.9318 115.69 27.1691C115.574 27.4065 115.403 27.6111 115.178 27.7843C114.956 27.953 114.691 28.0859 114.382 28.1829C114.076 28.2755 113.733 28.3202 113.351 28.3202C112.776 28.3202 112.29 28.2187 111.892 28.0142C111.494 27.8082 111.192 27.5439 110.987 27.2169C110.782 26.8915 110.68 26.5481 110.68 26.1868H111.801C111.817 26.4928 111.906 26.7347 112.067 26.9168C112.227 27.093 112.424 27.2199 112.657 27.296C112.89 27.3677 113.122 27.4051 113.351 27.4051C113.656 27.4051 113.911 27.3647 114.116 27.2841C114.325 27.2035 114.484 27.093 114.593 26.9527C114.701 26.8123 114.756 26.6511 114.756 26.4705Z" fill="#212529"/>
<mask id="mask0_102_3069" style="mask-type:luminance" maskUnits="userSpaceOnUse" x="0" y="39" width="439" height="231">
<path d="M438.749 39.5116H0V269.998H438.749V39.5116Z" fill="white"/>
</mask>
<g mask="url(#mask0_102_3069)">
<path d="M230.247 154.756C230.247 203.627 190.628 243.246 141.755 243.246C92.8833 243.246 53.2645 203.627 53.2645 154.756C53.2645 105.883 92.8833 66.2641 141.755 66.2641C190.628 66.2641 230.247 105.883 230.247 154.756ZM97.1656 154.756C97.1656 179.381 117.129 199.345 141.755 199.345C166.382 199.345 186.344 179.381 186.344 154.756C186.344 130.129 166.382 110.165 141.755 110.165C117.129 110.165 97.1656 130.129 97.1656 154.756Z" fill="#1939B5"/>
<path d="M171.474 238.106C159.271 242.458 146.259 244.076 133.362 242.847C120.462 241.619 107.991 237.571 96.8284 230.993C85.6656 224.415 76.0835 215.466 68.7593 204.778C61.4349 194.09 56.5472 181.923 54.4412 169.139C52.3352 156.353 53.0625 143.263 56.5715 130.791C60.0806 118.317 66.2859 106.767 74.749 96.9568C83.212 87.145 93.7263 79.3113 105.549 74.0113C117.372 68.7097 130.214 66.0686 143.17 66.2762L142.467 110.171C135.94 110.067 129.468 111.397 123.511 114.069C117.554 116.74 112.256 120.688 107.991 125.631C103.727 130.574 100.6 136.395 98.832 142.679C97.0637 148.965 96.6973 155.561 97.7585 162.003C98.8197 168.445 101.283 174.575 104.973 179.962C108.664 185.347 113.492 189.856 119.117 193.172C124.741 196.486 131.027 198.525 137.526 199.143C144.024 199.763 150.582 198.948 156.731 196.755L171.474 238.106Z" fill="#FEDC60"/>
<path d="M55.1973 173.149C52.4514 160.227 52.6334 146.855 55.7298 134.014C58.8261 121.171 64.7583 109.186 73.091 98.9363C81.4236 88.6856 91.9455 80.4309 103.885 74.777C115.824 69.1246 128.877 66.2163 142.087 66.2656L141.922 110.167C135.265 110.141 128.689 111.607 122.672 114.456C116.657 117.304 111.355 121.464 107.156 126.628C102.957 131.794 99.968 137.833 98.4079 144.303C96.8475 150.774 96.7559 157.513 98.1394 164.024L55.1973 173.149Z" fill="#F2A1A6"/>
<path d="M53.9299 143.924C56.6105 122.188 67.2567 102.217 83.8095 87.875C100.362 73.5335 121.645 65.8402 143.542 66.2821L142.655 110.174C131.622 109.952 120.898 113.829 112.557 121.055C104.216 128.282 98.8515 138.345 97.5008 149.297L53.9299 143.924Z" fill="#F6CBC7"/>
<path d="M94.8932 79.692C109.399 70.6356 126.219 65.9761 143.317 66.2791L142.542 110.173C133.926 110.02 125.452 112.369 118.142 116.931L94.8932 79.692Z" fill="#FF8074"/>
<path d="M284.567 95.4877H271.405V108.657H284.567V95.4877Z" fill="#1939B5"/>
<path d="M273.873 95.4877H282.099C282.753 95.4877 283.38 95.7475 283.843 96.2103C284.306 96.6731 284.567 97.3016 284.567 97.9571V106.188C284.567 106.843 284.306 107.472 283.843 107.935C283.38 108.397 282.753 108.657 282.099 108.657H273.873C273.217 108.657 272.59 108.397 272.128 107.935C271.665 107.472 271.405 106.843 271.405 106.188V97.9571C271.405 97.3016 271.665 96.6731 272.128 96.2103C272.59 95.7475 273.217 95.4877 273.873 95.4877Z" fill="#1939B5" stroke="white" stroke-width="0.822474"/>
<path d="M289.476 107.325V100.741H291.78C292.238 100.741 292.616 100.821 292.914 100.979C293.211 101.136 293.434 101.346 293.58 101.612C293.725 101.876 293.798 102.169 293.798 102.49C293.798 102.773 293.747 103.006 293.647 103.191C293.549 103.375 293.417 103.521 293.255 103.629C293.093 103.735 292.919 103.815 292.731 103.866V103.93C292.932 103.944 293.135 104.014 293.338 104.142C293.543 104.271 293.713 104.456 293.85 104.696C293.988 104.937 294.055 105.229 294.055 105.577C294.055 105.907 293.98 106.204 293.831 106.467C293.68 106.731 293.444 106.94 293.12 107.094C292.796 107.249 292.375 107.325 291.856 107.325H289.476ZM290.275 106.619H291.856C292.377 106.619 292.747 106.518 292.965 106.316C293.186 106.113 293.297 105.867 293.297 105.577C293.297 105.355 293.24 105.149 293.126 104.959C293.013 104.769 292.852 104.617 292.641 104.502C292.431 104.387 292.183 104.329 291.895 104.329H290.275V106.619ZM290.275 103.635H291.753C291.993 103.635 292.21 103.587 292.402 103.493C292.598 103.399 292.752 103.266 292.867 103.094C292.981 102.923 293.04 102.721 293.04 102.49C293.04 102.2 292.938 101.955 292.737 101.754C292.535 101.551 292.217 101.448 291.78 101.448H290.275V103.635ZM297.334 107.428C296.857 107.428 296.447 107.324 296.102 107.113C295.76 106.901 295.494 106.606 295.308 106.227C295.124 105.844 295.031 105.401 295.031 104.895C295.031 104.389 295.124 103.944 295.308 103.557C295.494 103.169 295.754 102.867 296.087 102.651C296.421 102.432 296.811 102.323 297.257 102.323C297.514 102.323 297.768 102.366 298.019 102.451C298.27 102.538 298.498 102.676 298.704 102.869C298.91 103.06 299.073 103.314 299.195 103.629C299.318 103.944 299.379 104.332 299.379 104.792V105.114H295.572V104.457H298.607C298.607 104.18 298.552 103.93 298.44 103.712C298.331 103.493 298.174 103.321 297.971 103.194C297.769 103.067 297.531 103.005 297.257 103.005C296.954 103.005 296.693 103.079 296.472 103.23C296.254 103.378 296.085 103.571 295.967 103.808C295.85 104.047 295.79 104.302 295.79 104.574V105.011C295.79 105.385 295.854 105.7 295.984 105.959C296.114 106.216 296.296 106.413 296.527 106.548C296.759 106.68 297.027 106.748 297.334 106.748C297.534 106.748 297.713 106.719 297.874 106.664C298.037 106.606 298.177 106.521 298.295 106.407C298.413 106.291 298.504 106.148 298.568 105.976L299.301 106.182C299.225 106.43 299.095 106.649 298.913 106.837C298.731 107.024 298.505 107.17 298.237 107.275C297.97 107.378 297.668 107.428 297.334 107.428ZM302.398 107.428C301.987 107.428 301.623 107.325 301.308 107.116C300.993 106.907 300.746 106.612 300.569 106.23C300.391 105.846 300.302 105.392 300.302 104.87C300.302 104.351 300.391 103.901 300.569 103.518C300.746 103.138 300.994 102.842 301.311 102.635C301.629 102.427 301.995 102.323 302.411 102.323C302.732 102.323 302.987 102.376 303.173 102.484C303.362 102.588 303.505 102.709 303.604 102.844C303.706 102.976 303.783 103.085 303.838 103.172H303.903V100.741H304.663V107.325H303.929V106.567H303.838C303.783 106.657 303.704 106.772 303.601 106.907C303.498 107.043 303.352 107.164 303.161 107.272C302.969 107.376 302.716 107.428 302.398 107.428ZM302.501 106.748C302.805 106.748 303.062 106.669 303.273 106.509C303.483 106.349 303.643 106.127 303.752 105.844C303.861 105.559 303.916 105.229 303.916 104.856C303.916 104.487 303.862 104.165 303.755 103.889C303.647 103.609 303.489 103.393 303.28 103.239C303.07 103.082 302.81 103.005 302.501 103.005C302.18 103.005 301.911 103.087 301.697 103.253C301.485 103.415 301.326 103.636 301.218 103.917C301.114 104.196 301.06 104.51 301.06 104.856C301.06 105.208 301.114 105.528 301.221 105.815C301.33 106.1 301.491 106.327 301.703 106.497C301.918 106.664 302.184 106.748 302.501 106.748Z" fill="black"/>
<path d="M363.611 107.417C363.186 107.417 362.808 107.343 362.475 107.197C362.145 107.052 361.882 106.849 361.688 106.589C361.494 106.328 361.389 106.025 361.373 105.68H362.182C362.2 105.892 362.273 106.076 362.402 106.23C362.53 106.382 362.699 106.5 362.906 106.583C363.114 106.667 363.345 106.709 363.598 106.709C363.881 106.709 364.132 106.66 364.35 106.561C364.568 106.463 364.74 106.325 364.865 106.149C364.989 105.973 365.052 105.77 365.052 105.538C365.052 105.297 364.991 105.083 364.871 104.898C364.752 104.711 364.575 104.566 364.344 104.46C364.113 104.356 363.829 104.304 363.495 104.304H362.968V103.596H363.495C363.756 103.596 363.986 103.55 364.183 103.454C364.383 103.36 364.538 103.227 364.649 103.056C364.762 102.884 364.819 102.682 364.819 102.451C364.819 102.228 364.77 102.034 364.671 101.87C364.572 101.704 364.434 101.576 364.253 101.483C364.075 101.391 363.866 101.345 363.623 101.345C363.396 101.345 363.181 101.386 362.981 101.47C362.781 101.552 362.618 101.672 362.491 101.828C362.364 101.982 362.296 102.169 362.285 102.387H361.513C361.527 102.042 361.631 101.74 361.825 101.48C362.021 101.219 362.276 101.015 362.591 100.87C362.908 100.724 363.257 100.65 363.636 100.65C364.044 100.65 364.393 100.734 364.684 100.898C364.976 101.061 365.2 101.277 365.356 101.545C365.513 101.813 365.591 102.102 365.591 102.414C365.591 102.784 365.494 103.1 365.298 103.362C365.106 103.623 364.843 103.804 364.511 103.905V103.956C364.926 104.025 365.252 104.202 365.485 104.487C365.719 104.769 365.836 105.12 365.836 105.538C365.836 105.897 365.739 106.218 365.543 106.503C365.35 106.786 365.086 107.009 364.752 107.172C364.417 107.334 364.037 107.417 363.611 107.417ZM367.514 107.378C367.355 107.378 367.218 107.321 367.105 107.208C366.991 107.094 366.934 106.958 366.934 106.798C366.934 106.64 366.991 106.504 367.105 106.391C367.218 106.277 367.355 106.221 367.514 106.221C367.672 106.221 367.808 106.277 367.921 106.391C368.035 106.504 368.091 106.64 368.091 106.798C368.091 106.904 368.066 107 368.012 107.088C367.96 107.176 367.89 107.246 367.803 107.3C367.717 107.352 367.621 107.378 367.514 107.378ZM371.419 107.417C370.994 107.417 370.616 107.343 370.283 107.197C369.953 107.052 369.69 106.849 369.496 106.589C369.302 106.328 369.198 106.025 369.181 105.68H369.991C370.008 105.892 370.082 106.076 370.21 106.23C370.338 106.382 370.507 106.5 370.715 106.583C370.922 106.667 371.152 106.709 371.406 106.709C371.688 106.709 371.939 106.66 372.158 106.561C372.376 106.463 372.548 106.325 372.672 106.149C372.797 105.973 372.859 105.77 372.859 105.538C372.859 105.297 372.799 105.083 372.679 104.898C372.558 104.711 372.384 104.566 372.152 104.46C371.921 104.356 371.637 104.304 371.303 104.304H370.776V103.596H371.303C371.564 103.596 371.794 103.55 371.991 103.454C372.19 103.36 372.346 103.227 372.457 103.056C372.57 102.884 372.627 102.682 372.627 102.451C372.627 102.228 372.578 102.034 372.479 101.87C372.381 101.704 372.242 101.576 372.061 101.483C371.884 101.391 371.673 101.345 371.431 101.345C371.204 101.345 370.989 101.386 370.788 101.47C370.589 101.552 370.426 101.672 370.3 101.828C370.173 101.982 370.104 102.169 370.094 102.387H369.322C369.335 102.042 369.44 101.74 369.634 101.48C369.829 101.219 370.085 101.015 370.4 100.87C370.716 100.724 371.065 100.65 371.445 100.65C371.852 100.65 372.202 100.734 372.493 100.898C372.784 101.061 373.008 101.277 373.165 101.545C373.321 101.813 373.399 102.102 373.399 102.414C373.399 102.784 373.302 103.1 373.106 103.362C372.914 103.623 372.651 103.804 372.32 103.905V103.956C372.735 104.025 373.06 104.202 373.293 104.487C373.527 104.769 373.644 105.12 373.644 105.538C373.644 105.897 373.547 106.218 373.351 106.503C373.159 106.786 372.894 107.009 372.56 107.172C372.225 107.334 371.845 107.417 371.419 107.417ZM378.315 106.091V105.744C378.315 105.504 378.365 105.285 378.463 105.085C378.565 104.883 378.711 104.723 378.901 104.602C379.095 104.48 379.328 104.419 379.602 104.419C379.88 104.419 380.114 104.48 380.302 104.602C380.492 104.723 380.634 104.883 380.731 105.085C380.827 105.285 380.876 105.504 380.876 105.744V106.091C380.876 106.331 380.827 106.552 380.728 106.754C380.631 106.954 380.488 107.113 380.297 107.236C380.108 107.357 379.877 107.417 379.602 107.417C379.323 107.417 379.089 107.357 378.898 107.236C378.706 107.113 378.562 106.954 378.463 106.754C378.365 106.552 378.315 106.331 378.315 106.091ZM378.972 105.744V106.091C378.972 106.291 379.019 106.47 379.113 106.628C379.208 106.785 379.371 106.863 379.602 106.863C379.828 106.863 379.986 106.785 380.079 106.628C380.173 106.47 380.219 106.291 380.219 106.091V105.744C380.219 105.544 380.174 105.367 380.085 105.21C379.995 105.052 379.834 104.973 379.602 104.973C379.377 104.973 379.216 105.052 379.117 105.21C379.02 105.367 378.972 105.544 378.972 105.744ZM375.035 102.323V101.976C375.035 101.736 375.086 101.516 375.185 101.316C375.285 101.115 375.431 100.953 375.621 100.834C375.815 100.712 376.048 100.65 376.322 100.65C376.601 100.65 376.834 100.712 377.024 100.834C377.212 100.953 377.354 101.115 377.451 101.316C377.548 101.516 377.596 101.736 377.596 101.976V102.323C377.596 102.563 377.546 102.784 377.448 102.985C377.351 103.184 377.208 103.345 377.016 103.468C376.828 103.587 376.597 103.648 376.322 103.648C376.043 103.648 375.809 103.587 375.618 103.468C375.428 103.345 375.283 103.184 375.185 102.985C375.086 102.784 375.035 102.563 375.035 102.323ZM375.692 101.976V102.323C375.692 102.523 375.738 102.702 375.834 102.86C375.928 103.017 376.091 103.094 376.322 103.094C376.548 103.094 376.706 103.017 376.798 102.86C376.893 102.702 376.94 102.523 376.94 102.323V101.976C376.94 101.776 376.894 101.598 376.804 101.442C376.715 101.283 376.554 101.204 376.322 101.204C376.097 101.204 375.936 101.283 375.837 101.442C375.74 101.598 375.692 101.776 375.692 101.976ZM375.28 107.325L379.808 100.741H380.541L376.013 107.325H375.28Z" fill="black"/>
<path d="M284.567 121.828H271.405V134.999H284.567V121.828Z" fill="#FEDC60"/>
<path d="M273.873 121.828H282.099C282.753 121.828 283.38 122.089 283.843 122.552C284.306 123.015 284.567 123.644 284.567 124.298V132.53C284.567 133.185 284.306 133.812 283.843 134.277C283.38 134.739 282.753 134.999 282.099 134.999H273.873C273.217 134.999 272.59 134.739 272.128 134.277C271.665 133.812 271.405 133.185 271.405 132.53V124.298C271.405 123.644 271.665 123.015 272.128 122.552C272.59 122.089 273.217 121.828 273.873 121.828Z" fill="#FEDC60" stroke="white" stroke-width="0.822474"/>
<path d="M294.776 129.141H293.979C293.931 128.911 293.849 128.709 293.731 128.536C293.615 128.361 293.474 128.217 293.307 128.099C293.141 127.978 292.958 127.888 292.756 127.828C292.555 127.769 292.346 127.739 292.126 127.739C291.728 127.739 291.366 127.839 291.042 128.04C290.721 128.242 290.464 128.539 290.275 128.932C290.085 129.323 289.991 129.805 289.991 130.375C289.991 130.946 290.085 131.427 290.275 131.819C290.464 132.21 290.721 132.507 291.042 132.709C291.366 132.911 291.728 133.012 292.126 133.012C292.346 133.012 292.555 132.982 292.756 132.921C292.958 132.861 293.141 132.773 293.307 132.655C293.474 132.534 293.615 132.388 293.731 132.215C293.849 132.039 293.931 131.837 293.979 131.61H294.776C294.716 131.946 294.606 132.248 294.448 132.513C294.289 132.779 294.092 133.005 293.856 133.191C293.621 133.376 293.356 133.517 293.062 133.612C292.771 133.709 292.459 133.757 292.126 133.757C291.565 133.757 291.065 133.62 290.629 133.347C290.191 133.072 289.846 132.682 289.596 132.176C289.345 131.67 289.219 131.07 289.219 130.375C289.219 129.68 289.345 129.08 289.596 128.573C289.846 128.069 290.191 127.678 290.629 127.404C291.065 127.13 291.565 126.992 292.126 126.992C292.459 126.992 292.771 127.04 293.062 127.137C293.356 127.233 293.621 127.375 293.856 127.561C294.092 127.746 294.289 127.97 294.448 128.236C294.606 128.5 294.716 128.802 294.776 129.141ZM297.416 133.784C297.102 133.784 296.819 133.724 296.563 133.606C296.308 133.487 296.105 133.314 295.956 133.088C295.805 132.861 295.73 132.587 295.73 132.266C295.73 131.982 295.785 131.754 295.897 131.577C296.009 131.4 296.159 131.261 296.344 131.159C296.53 131.059 296.736 130.983 296.962 130.934C297.189 130.883 297.417 130.843 297.647 130.811C297.947 130.774 298.191 130.744 298.377 130.725C298.565 130.704 298.703 130.668 298.788 130.619C298.876 130.57 298.921 130.485 298.921 130.362V130.337C298.921 130.019 298.833 129.772 298.659 129.596C298.488 129.422 298.228 129.333 297.879 129.333C297.516 129.333 297.232 129.413 297.026 129.571C296.82 129.729 296.675 129.899 296.592 130.078L295.872 129.822C296 129.522 296.172 129.289 296.386 129.121C296.602 128.951 296.838 128.833 297.093 128.768C297.352 128.699 297.604 128.665 297.853 128.665C298.011 128.665 298.194 128.684 298.4 128.723C298.607 128.759 298.807 128.835 299 128.95C299.195 129.066 299.357 129.241 299.486 129.475C299.615 129.708 299.679 130.022 299.679 130.413V133.668H298.921V132.999H298.882C298.83 133.106 298.744 133.221 298.624 133.344C298.504 133.464 298.344 133.569 298.146 133.654C297.946 133.741 297.702 133.784 297.416 133.784ZM297.531 133.102C297.831 133.102 298.085 133.042 298.289 132.925C298.498 132.808 298.655 132.655 298.759 132.469C298.867 132.282 298.921 132.085 298.921 131.88V131.185C298.888 131.224 298.818 131.259 298.707 131.291C298.601 131.322 298.476 131.347 298.335 131.371C298.195 131.394 298.059 131.413 297.926 131.43C297.795 131.444 297.689 131.458 297.608 131.468C297.411 131.494 297.226 131.536 297.054 131.594C296.886 131.649 296.748 131.734 296.644 131.848C296.541 131.96 296.489 132.112 296.489 132.304C296.489 132.567 296.587 132.767 296.781 132.902C296.978 133.034 297.229 133.102 297.531 133.102ZM301.168 133.668V127.082H301.926V129.513H301.99C302.045 129.427 302.123 129.318 302.222 129.186C302.322 129.05 302.466 128.93 302.653 128.824C302.841 128.718 303.097 128.665 303.417 128.665C303.834 128.665 304.2 128.768 304.518 128.977C304.834 129.184 305.082 129.478 305.26 129.86C305.437 130.243 305.527 130.692 305.527 131.212C305.527 131.734 305.437 132.188 305.26 132.572C305.082 132.952 304.836 133.248 304.521 133.458C304.206 133.666 303.841 133.771 303.431 133.771C303.113 133.771 302.859 133.718 302.668 133.612C302.478 133.506 302.331 133.385 302.228 133.249C302.125 133.112 302.045 132.999 301.99 132.909H301.901V133.668H301.168ZM301.913 131.198C301.913 131.571 301.968 131.9 302.077 132.185C302.186 132.469 302.346 132.69 302.556 132.851C302.767 133.009 303.023 133.088 303.328 133.088C303.644 133.088 303.91 133.005 304.122 132.837C304.336 132.669 304.497 132.442 304.604 132.157C304.713 131.868 304.769 131.549 304.769 131.198C304.769 130.85 304.715 130.538 304.607 130.259C304.503 129.978 304.343 129.756 304.128 129.593C303.916 129.429 303.649 129.345 303.328 129.345C303.019 129.345 302.759 129.424 302.55 129.581C302.34 129.735 302.181 129.952 302.074 130.231C301.966 130.507 301.913 130.829 301.913 131.198ZM306.689 133.668V128.729H307.447V133.668H306.689ZM307.074 127.905C306.926 127.905 306.798 127.855 306.692 127.754C306.586 127.654 306.533 127.533 306.533 127.391C306.533 127.249 306.586 127.128 306.692 127.028C306.798 126.927 306.926 126.876 307.074 126.876C307.222 126.876 307.348 126.927 307.453 127.028C307.56 127.128 307.614 127.249 307.614 127.391C307.614 127.533 307.56 127.654 307.453 127.754C307.348 127.855 307.222 127.905 307.074 127.905ZM309.595 130.697V133.668H308.837V128.729H309.57V129.501H309.634C309.749 129.25 309.925 129.048 310.161 128.896C310.397 128.741 310.702 128.665 311.075 128.665C311.409 128.665 311.702 128.733 311.953 128.871C312.204 129.005 312.398 129.211 312.538 129.487C312.677 129.762 312.747 130.11 312.747 130.529V133.668H311.987V130.58C311.987 130.193 311.887 129.89 311.686 129.674C311.484 129.456 311.208 129.345 310.856 129.345C310.614 129.345 310.397 129.399 310.206 129.504C310.018 129.608 309.869 129.762 309.76 129.963C309.651 130.165 309.595 130.41 309.595 130.697ZM316.205 133.771C315.729 133.771 315.318 133.666 314.973 133.456C314.63 133.244 314.365 132.948 314.179 132.567C313.994 132.186 313.901 131.743 313.901 131.237C313.901 130.731 313.994 130.284 314.179 129.899C314.365 129.511 314.624 129.208 314.957 128.992C315.291 128.774 315.681 128.665 316.127 128.665C316.384 128.665 316.638 128.708 316.889 128.793C317.139 128.878 317.368 129.018 317.574 129.211C317.78 129.402 317.944 129.654 318.067 129.969C318.188 130.284 318.249 130.673 318.249 131.134V131.455H314.442V130.8H317.477C317.477 130.52 317.422 130.273 317.31 130.053C317.201 129.835 317.044 129.662 316.841 129.535C316.639 129.41 316.402 129.345 316.127 129.345C315.824 129.345 315.563 129.422 315.342 129.571C315.124 129.719 314.955 129.911 314.837 130.15C314.719 130.387 314.661 130.643 314.661 130.914V131.352C314.661 131.725 314.725 132.042 314.854 132.301C314.985 132.558 315.166 132.754 315.397 132.89C315.629 133.023 315.897 133.088 316.205 133.088C316.403 133.088 316.584 133.061 316.744 133.005C316.908 132.948 317.048 132.861 317.166 132.748C317.284 132.633 317.375 132.488 317.44 132.316L318.173 132.522C318.095 132.772 317.965 132.99 317.783 133.179C317.601 133.366 317.375 133.511 317.108 133.617C316.839 133.718 316.539 133.771 316.205 133.771ZM321.551 128.729V129.372H318.992V128.729H321.551ZM319.739 127.545H320.497V132.252C320.497 132.467 320.528 132.628 320.59 132.734C320.654 132.84 320.736 132.911 320.835 132.948C320.935 132.982 321.042 132.999 321.153 132.999C321.236 132.999 321.305 132.994 321.359 132.985C321.412 132.975 321.456 132.967 321.487 132.96L321.642 133.642C321.59 133.662 321.518 133.681 321.426 133.7C321.335 133.721 321.217 133.732 321.076 133.732C320.861 133.732 320.651 133.685 320.445 133.593C320.242 133.502 320.073 133.361 319.937 133.172C319.804 132.984 319.739 132.746 319.739 132.458V127.545Z" fill="black"/>
<path d="M363.611 133.757C363.186 133.757 362.808 133.685 362.475 133.539C362.145 133.393 361.882 133.191 361.688 132.931C361.495 132.67 361.389 132.366 361.373 132.021H362.182C362.2 132.233 362.273 132.416 362.402 132.572C362.53 132.724 362.699 132.842 362.906 132.925C363.114 133.009 363.345 133.051 363.598 133.051C363.881 133.051 364.132 133 364.35 132.902C364.57 132.803 364.74 132.666 364.865 132.491C364.989 132.315 365.052 132.112 365.052 131.88C365.052 131.637 364.991 131.424 364.871 131.24C364.752 131.053 364.575 130.907 364.344 130.802C364.113 130.698 363.829 130.646 363.495 130.646H362.968V129.938H363.495C363.756 129.938 363.986 129.89 364.183 129.796C364.383 129.702 364.538 129.569 364.649 129.398C364.762 129.226 364.82 129.024 364.82 128.793C364.82 128.57 364.77 128.376 364.671 128.211C364.572 128.046 364.434 127.917 364.253 127.826C364.075 127.733 363.866 127.687 363.623 127.687C363.396 127.687 363.183 127.728 362.981 127.812C362.781 127.894 362.618 128.012 362.491 128.169C362.364 128.323 362.297 128.509 362.285 128.729H361.513C361.527 128.384 361.631 128.081 361.825 127.823C362.021 127.56 362.276 127.357 362.591 127.21C362.908 127.066 363.257 126.992 363.636 126.992C364.044 126.992 364.393 127.075 364.684 127.24C364.976 127.403 365.2 127.618 365.356 127.887C365.513 128.154 365.591 128.444 365.591 128.754C365.591 129.124 365.494 129.441 365.298 129.702C365.106 129.965 364.843 130.146 364.511 130.246V130.298C364.926 130.367 365.252 130.543 365.485 130.828C365.719 131.112 365.836 131.462 365.836 131.88C365.836 132.237 365.739 132.56 365.543 132.845C365.35 133.127 365.086 133.351 364.752 133.514C364.417 133.676 364.037 133.757 363.611 133.757ZM367.514 133.718C367.355 133.718 367.218 133.662 367.105 133.548C366.991 133.435 366.934 133.299 366.934 133.141C366.934 132.982 366.991 132.845 367.105 132.731C367.218 132.618 367.355 132.561 367.514 132.561C367.672 132.561 367.808 132.618 367.921 132.731C368.035 132.845 368.091 132.982 368.091 133.141C368.091 133.245 368.066 133.342 368.012 133.43C367.96 133.518 367.891 133.588 367.803 133.642C367.717 133.693 367.621 133.718 367.514 133.718ZM371.419 133.757C370.994 133.757 370.616 133.685 370.283 133.539C369.953 133.393 369.69 133.191 369.496 132.931C369.302 132.67 369.198 132.366 369.181 132.021H369.991C370.008 132.233 370.082 132.416 370.21 132.572C370.338 132.724 370.507 132.842 370.715 132.925C370.922 133.009 371.154 133.051 371.406 133.051C371.688 133.051 371.939 133 372.158 132.902C372.376 132.803 372.548 132.666 372.673 132.491C372.797 132.315 372.859 132.112 372.859 131.88C372.859 131.637 372.799 131.424 372.679 131.24C372.558 131.053 372.384 130.907 372.152 130.802C371.921 130.698 371.637 130.646 371.303 130.646H370.776V129.938H371.303C371.564 129.938 371.794 129.89 371.991 129.796C372.19 129.702 372.346 129.569 372.457 129.398C372.57 129.226 372.627 129.024 372.627 128.793C372.627 128.57 372.578 128.376 372.479 128.211C372.381 128.046 372.242 127.917 372.061 127.826C371.884 127.733 371.673 127.687 371.431 127.687C371.204 127.687 370.989 127.728 370.788 127.812C370.589 127.894 370.426 128.012 370.3 128.169C370.173 128.323 370.104 128.509 370.094 128.729H369.322C369.335 128.384 369.44 128.081 369.634 127.823C369.829 127.56 370.085 127.357 370.4 127.21C370.716 127.066 371.065 126.992 371.445 126.992C371.852 126.992 372.202 127.075 372.493 127.24C372.784 127.403 373.008 127.618 373.165 127.887C373.321 128.154 373.399 128.444 373.399 128.754C373.399 129.124 373.302 129.441 373.106 129.702C372.914 129.965 372.651 130.146 372.32 130.246V130.298C372.735 130.367 373.06 130.543 373.293 130.828C373.527 131.112 373.644 131.462 373.644 131.88C373.644 132.237 373.547 132.56 373.351 132.845C373.159 133.127 372.894 133.351 372.56 133.514C372.225 133.676 371.845 133.757 371.419 133.757ZM378.315 132.433V132.085C378.315 131.846 378.365 131.625 378.463 131.427C378.565 131.225 378.711 131.064 378.901 130.944C379.095 130.822 379.328 130.761 379.602 130.761C379.881 130.761 380.114 130.822 380.302 130.944C380.492 131.064 380.634 131.225 380.731 131.427C380.827 131.625 380.876 131.846 380.876 132.085V132.433C380.876 132.673 380.827 132.894 380.728 133.096C380.631 133.294 380.488 133.456 380.297 133.578C380.108 133.697 379.877 133.757 379.602 133.757C379.323 133.757 379.089 133.697 378.898 133.578C378.706 133.456 378.562 133.294 378.463 133.096C378.365 132.894 378.315 132.673 378.315 132.433ZM378.972 132.085V132.433C378.972 132.633 379.019 132.811 379.114 132.97C379.208 133.126 379.371 133.205 379.602 133.205C379.828 133.205 379.986 133.126 380.079 132.97C380.173 132.811 380.219 132.633 380.219 132.433V132.085C380.219 131.886 380.174 131.709 380.085 131.552C379.995 131.394 379.834 131.313 379.602 131.313C379.377 131.313 379.216 131.394 379.117 131.552C379.02 131.709 378.972 131.886 378.972 132.085ZM375.037 128.665V128.317C375.037 128.076 375.086 127.857 375.185 127.658C375.285 127.457 375.431 127.296 375.622 127.176C375.815 127.054 376.048 126.992 376.322 126.992C376.601 126.992 376.834 127.054 377.024 127.176C377.212 127.296 377.354 127.457 377.451 127.658C377.548 127.857 377.596 128.076 377.596 128.317V128.665C377.596 128.905 377.546 129.124 377.448 129.326C377.351 129.526 377.208 129.687 377.016 129.81C376.828 129.929 376.597 129.989 376.322 129.989C376.043 129.989 375.809 129.929 375.618 129.81C375.428 129.687 375.283 129.526 375.185 129.326C375.086 129.124 375.037 128.905 375.037 128.665ZM375.692 128.317V128.665C375.692 128.863 375.738 129.042 375.834 129.201C375.928 129.357 376.091 129.436 376.322 129.436C376.548 129.436 376.706 129.357 376.798 129.201C376.893 129.042 376.94 128.863 376.94 128.665V128.317C376.94 128.118 376.894 127.939 376.804 127.784C376.715 127.624 376.554 127.545 376.322 127.545C376.097 127.545 375.936 127.624 375.837 127.784C375.74 127.939 375.692 128.118 375.692 128.317ZM375.28 133.668L379.808 127.082H380.541L376.013 133.668H375.28Z" fill="black"/>
<path d="M284.567 148.17H271.405V161.341H284.567V148.17Z" fill="#F2A1A6"/>
<path d="M273.873 148.17H282.099C282.753 148.17 283.38 148.43 283.843 148.893C284.306 149.357 284.567 149.984 284.567 150.64V158.872C284.567 159.526 284.306 160.154 283.843 160.617C283.38 161.08 282.753 161.341 282.099 161.341H273.873C273.217 161.341 272.59 161.08 272.128 160.617C271.665 160.154 271.405 159.526 271.405 158.872V150.64C271.405 149.984 271.665 149.357 272.128 148.893C272.59 148.43 273.217 148.17 273.873 148.17Z" fill="#F2A1A6" stroke="white" stroke-width="0.822474"/>
<path d="M290.674 160.008L288.873 153.423H289.682L291.059 158.787H291.123L292.525 153.423H293.425L294.827 158.787H294.891L296.268 153.423H297.078L295.278 160.008H294.455L293.001 154.76H292.95L291.496 160.008H290.674ZM298.963 160.124C298.649 160.124 298.365 160.065 298.11 159.947C297.856 159.827 297.653 159.654 297.502 159.43C297.353 159.202 297.279 158.929 297.279 158.606C297.279 158.324 297.334 158.094 297.446 157.918C297.556 157.74 297.706 157.601 297.892 157.5C298.079 157.4 298.285 157.325 298.509 157.276C298.737 157.224 298.966 157.183 299.194 157.153C299.494 157.115 299.737 157.086 299.924 157.067C300.112 157.045 300.25 157.01 300.336 156.961C300.424 156.912 300.467 156.825 300.467 156.703V156.677C300.467 156.361 300.381 156.113 300.208 155.938C300.036 155.762 299.775 155.674 299.425 155.674C299.064 155.674 298.779 155.753 298.574 155.911C298.368 156.071 298.224 156.24 298.14 156.42L297.419 156.162C297.547 155.862 297.719 155.629 297.934 155.462C298.15 155.292 298.386 155.175 298.642 155.108C298.898 155.039 299.151 155.005 299.4 155.005C299.558 155.005 299.74 155.025 299.946 155.063C300.154 155.099 300.356 155.175 300.548 155.292C300.744 155.407 300.905 155.581 301.033 155.816C301.162 156.049 301.226 156.362 301.226 156.755V160.008H300.467V159.339H300.429C300.378 159.447 300.291 159.562 300.172 159.684C300.052 159.807 299.893 159.91 299.693 159.996C299.493 160.081 299.251 160.124 298.963 160.124ZM299.079 159.442C299.379 159.442 299.631 159.384 299.837 159.266C300.045 159.148 300.202 158.996 300.306 158.809C300.414 158.623 300.467 158.427 300.467 158.221V157.527C300.436 157.564 300.364 157.6 300.255 157.633C300.148 157.663 300.024 157.689 299.882 157.713C299.743 157.734 299.608 157.754 299.475 157.77C299.343 157.785 299.237 157.798 299.155 157.809C298.958 157.834 298.774 157.876 298.603 157.934C298.433 157.991 298.297 158.075 298.191 158.188C298.088 158.3 298.037 158.452 298.037 158.645C298.037 158.909 298.134 159.108 298.33 159.244C298.527 159.377 298.776 159.442 299.079 159.442ZM302.611 160.008V155.069H303.344V155.816H303.397C303.486 155.571 303.649 155.372 303.885 155.22C304.121 155.068 304.387 154.992 304.682 154.992C304.737 154.992 304.808 154.993 304.891 154.996C304.975 154.998 305.037 155.001 305.081 155.005V155.777C305.055 155.771 304.996 155.761 304.905 155.749C304.814 155.734 304.719 155.726 304.618 155.726C304.378 155.726 304.164 155.776 303.974 155.877C303.788 155.976 303.64 156.113 303.531 156.288C303.424 156.462 303.37 156.661 303.37 156.883V160.008H302.611ZM307.695 160.111C307.284 160.111 306.92 160.008 306.605 159.799C306.29 159.59 306.044 159.293 305.866 158.912C305.688 158.529 305.599 158.075 305.599 157.552C305.599 157.033 305.688 156.583 305.866 156.201C306.044 155.82 306.292 155.525 306.608 155.317C306.926 155.11 307.292 155.005 307.708 155.005C308.029 155.005 308.283 155.059 308.47 155.166C308.659 155.271 308.803 155.392 308.901 155.526C309.001 155.659 309.08 155.768 309.136 155.855H309.2V153.423H309.958V160.008H309.225V159.25H309.136C309.08 159.339 309.001 159.453 308.898 159.59C308.795 159.726 308.648 159.847 308.458 159.954C308.267 160.059 308.013 160.111 307.695 160.111ZM307.798 159.43C308.103 159.43 308.359 159.351 308.57 159.191C308.78 159.032 308.94 158.809 309.049 158.526C309.158 158.24 309.213 157.912 309.213 157.539C309.213 157.17 309.16 156.847 309.052 156.571C308.945 156.292 308.786 156.076 308.576 155.922C308.367 155.765 308.107 155.687 307.798 155.687C307.477 155.687 307.208 155.77 306.995 155.935C306.783 156.098 306.623 156.319 306.516 156.6C306.41 156.879 306.357 157.192 306.357 157.539C306.357 157.891 306.411 158.211 306.519 158.497C306.628 158.782 306.789 159.009 307.001 159.179C307.216 159.347 307.481 159.43 307.798 159.43ZM311.454 160.008V155.069H312.187V155.816H312.238C312.329 155.571 312.492 155.372 312.728 155.22C312.964 155.068 313.229 154.992 313.525 154.992C313.58 154.992 313.65 154.993 313.734 154.996C313.818 154.998 313.88 155.001 313.924 155.005V155.777C313.898 155.771 313.839 155.761 313.748 155.749C313.656 155.734 313.561 155.726 313.461 155.726C313.22 155.726 313.006 155.776 312.817 155.877C312.631 155.976 312.483 156.113 312.374 156.288C312.266 156.462 312.213 156.661 312.213 156.883V160.008H311.454ZM316.68 160.111C316.233 160.111 315.842 160.005 315.506 159.793C315.172 159.581 314.911 159.284 314.721 158.902C314.534 158.521 314.442 158.075 314.442 157.564C314.442 157.051 314.534 156.601 314.721 156.217C314.911 155.834 315.172 155.535 315.506 155.323C315.842 155.111 316.233 155.005 316.68 155.005C317.125 155.005 317.516 155.111 317.85 155.323C318.186 155.535 318.447 155.834 318.634 156.217C318.824 156.601 318.918 157.051 318.918 157.564C318.918 158.075 318.824 158.521 318.634 158.902C318.447 159.284 318.186 159.581 317.85 159.793C317.516 160.005 317.125 160.111 316.68 160.111ZM316.68 159.43C317.019 159.43 317.296 159.344 317.516 159.169C317.734 158.996 317.896 158.767 318.001 158.484C318.106 158.202 318.159 157.896 318.159 157.564C318.159 157.234 318.106 156.927 318.001 156.641C317.896 156.356 317.734 156.126 317.516 155.95C317.296 155.775 317.019 155.687 316.68 155.687C316.341 155.687 316.062 155.775 315.844 155.95C315.624 156.126 315.463 156.356 315.358 156.641C315.252 156.927 315.2 157.234 315.2 157.564C315.2 157.896 315.252 158.202 315.358 158.484C315.463 158.767 315.624 158.996 315.844 159.169C316.062 159.344 316.341 159.43 316.68 159.43ZM320.179 160.008V153.423H320.938V155.855H321.002C321.057 155.768 321.135 155.659 321.233 155.526C321.335 155.392 321.478 155.271 321.665 155.166C321.853 155.059 322.108 155.005 322.429 155.005C322.846 155.005 323.211 155.11 323.529 155.317C323.846 155.525 324.094 155.82 324.271 156.201C324.451 156.583 324.539 157.033 324.539 157.552C324.539 158.075 324.451 158.529 324.271 158.912C324.094 159.293 323.847 159.59 323.532 159.799C323.217 160.008 322.855 160.111 322.443 160.111C322.125 160.111 321.871 160.059 321.68 159.954C321.49 159.847 321.342 159.726 321.239 159.59C321.136 159.453 321.057 159.339 321.002 159.25H320.912V160.008H320.179ZM320.924 157.539C320.924 157.912 320.979 158.24 321.088 158.526C321.197 158.809 321.357 159.032 321.568 159.191C321.778 159.351 322.035 159.43 322.34 159.43C322.656 159.43 322.922 159.347 323.134 159.179C323.349 159.009 323.509 158.782 323.616 158.497C323.725 158.211 323.78 157.891 323.78 157.539C323.78 157.192 323.727 156.879 323.619 156.6C323.515 156.319 323.355 156.098 323.14 155.935C322.928 155.77 322.661 155.687 322.34 155.687C322.031 155.687 321.771 155.765 321.562 155.922C321.351 156.076 321.193 156.292 321.085 156.571C320.978 156.847 320.924 157.17 320.924 157.539ZM327.771 160.111C327.295 160.111 326.884 160.007 326.539 159.796C326.196 159.584 325.932 159.288 325.745 158.909C325.56 158.527 325.469 158.084 325.469 157.577C325.469 157.071 325.56 156.626 325.745 156.24C325.932 155.852 326.19 155.55 326.523 155.334C326.857 155.114 327.247 155.005 327.693 155.005C327.95 155.005 328.204 155.048 328.455 155.133C328.706 155.22 328.934 155.359 329.14 155.552C329.346 155.743 329.51 155.995 329.633 156.311C329.755 156.626 329.815 157.013 329.815 157.475V157.797H326.008V157.14H329.045C329.045 156.862 328.988 156.613 328.877 156.395C328.767 156.176 328.61 156.002 328.407 155.877C328.205 155.75 327.968 155.687 327.693 155.687C327.39 155.687 327.129 155.762 326.908 155.911C326.69 156.061 326.521 156.253 326.403 156.491C326.286 156.729 326.227 156.983 326.227 157.257V157.694C326.227 158.066 326.291 158.382 326.42 158.642C326.551 158.899 326.732 159.096 326.963 159.23C327.195 159.363 327.463 159.43 327.771 159.43C327.97 159.43 328.15 159.402 328.31 159.347C328.474 159.288 328.615 159.202 328.733 159.088C328.85 158.973 328.942 158.83 329.006 158.658L329.739 158.864C329.661 159.112 329.531 159.332 329.349 159.52C329.167 159.707 328.942 159.853 328.674 159.957C328.406 160.06 328.105 160.111 327.771 160.111Z" fill="black"/>
<path d="M361.606 160.008V159.43L363.78 157.051C364.035 156.771 364.246 156.529 364.41 156.323C364.576 156.116 364.698 155.92 364.777 155.738C364.859 155.555 364.9 155.36 364.9 155.159C364.9 154.927 364.843 154.727 364.732 154.559C364.623 154.389 364.473 154.259 364.281 154.166C364.092 154.074 363.877 154.027 363.64 154.027C363.386 154.027 363.165 154.081 362.977 154.185C362.79 154.289 362.645 154.433 362.542 154.62C362.442 154.807 362.391 155.025 362.391 155.275H361.633C361.633 154.89 361.721 154.551 361.899 154.259C362.078 153.967 362.32 153.741 362.626 153.578C362.935 153.415 363.281 153.333 363.665 153.333C364.05 153.333 364.392 153.415 364.691 153.578C364.988 153.741 365.222 153.96 365.391 154.236C365.561 154.514 365.645 154.821 365.645 155.159C365.645 155.402 365.601 155.638 365.513 155.87C365.428 156.099 365.277 156.356 365.064 156.638C364.852 156.919 364.556 157.262 364.178 157.667L362.7 159.25V159.302H365.761V160.008H361.606ZM367.656 160.06C367.496 160.06 367.36 160.004 367.247 159.89C367.133 159.777 367.076 159.639 367.076 159.481C367.076 159.323 367.133 159.187 367.247 159.073C367.36 158.96 367.496 158.902 367.656 158.902C367.814 158.902 367.95 158.96 368.063 159.073C368.177 159.187 368.233 159.323 368.233 159.481C368.233 159.586 368.207 159.683 368.153 159.771C368.102 159.859 368.032 159.929 367.944 159.983C367.859 160.035 367.762 160.06 367.656 160.06ZM371.507 160.099C371.131 160.099 370.791 160.023 370.489 159.874C370.186 159.723 369.944 159.518 369.762 159.256C369.58 158.994 369.48 158.697 369.464 158.363H370.234C370.265 158.66 370.4 158.906 370.64 159.102C370.882 159.294 371.172 159.391 371.507 159.391C371.778 159.391 372.018 159.327 372.229 159.202C372.441 159.075 372.606 158.902 372.727 158.681C372.848 158.458 372.909 158.206 372.909 157.925C372.909 157.637 372.847 157.382 372.72 157.156C372.596 156.93 372.424 156.75 372.206 156.619C371.987 156.489 371.737 156.422 371.457 156.42C371.255 156.417 371.048 156.449 370.836 156.513C370.624 156.576 370.449 156.656 370.312 156.755L369.565 156.664L369.965 153.423H373.386V154.13H370.634L370.401 156.073H370.44C370.576 155.965 370.745 155.877 370.949 155.805C371.152 155.735 371.364 155.699 371.585 155.699C371.988 155.699 372.347 155.796 372.663 155.989C372.98 156.18 373.229 156.441 373.408 156.774C373.59 157.106 373.681 157.485 373.681 157.912C373.681 158.333 373.587 158.708 373.399 159.038C373.212 159.366 372.956 159.624 372.627 159.815C372.299 160.004 371.926 160.099 371.507 160.099ZM378.315 158.773V158.427C378.315 158.187 378.365 157.967 378.463 157.767C378.565 157.566 378.711 157.406 378.901 157.285C379.095 157.162 379.328 157.101 379.602 157.101C379.882 157.101 380.114 157.162 380.303 157.285C380.492 157.406 380.634 157.566 380.731 157.767C380.827 157.967 380.876 158.187 380.876 158.427V158.773C380.876 159.014 380.827 159.235 380.728 159.436C380.631 159.636 380.488 159.796 380.297 159.918C380.109 160.038 379.877 160.099 379.602 160.099C379.323 160.099 379.089 160.038 378.898 159.918C378.707 159.796 378.562 159.636 378.463 159.436C378.365 159.235 378.315 159.014 378.315 158.773ZM378.972 158.427V158.773C378.972 158.973 379.019 159.153 379.114 159.311C379.208 159.468 379.371 159.545 379.602 159.545C379.828 159.545 379.986 159.468 380.079 159.311C380.173 159.153 380.219 158.973 380.219 158.773V158.427C380.219 158.227 380.174 158.049 380.085 157.893C379.995 157.734 379.834 157.655 379.602 157.655C379.377 157.655 379.216 157.734 379.117 157.893C379.02 158.049 378.972 158.227 378.972 158.427ZM375.037 155.005V154.657C375.037 154.418 375.086 154.199 375.185 153.999C375.285 153.797 375.431 153.636 375.622 153.517C375.815 153.394 376.048 153.333 376.322 153.333C376.602 153.333 376.834 153.394 377.024 153.517C377.212 153.636 377.354 153.797 377.451 153.999C377.548 154.199 377.596 154.418 377.596 154.657V155.005C377.596 155.245 377.547 155.466 377.448 155.668C377.351 155.867 377.208 156.028 377.017 156.15C376.828 156.27 376.597 156.329 376.322 156.329C376.043 156.329 375.809 156.27 375.618 156.15C375.428 156.028 375.283 155.867 375.185 155.668C375.086 155.466 375.037 155.245 375.037 155.005ZM375.692 154.657V155.005C375.692 155.205 375.739 155.384 375.834 155.543C375.928 155.699 376.091 155.777 376.322 155.777C376.548 155.777 376.706 155.699 376.799 155.543C376.893 155.384 376.94 155.205 376.94 155.005V154.657C376.94 154.459 376.894 154.281 376.805 154.124C376.715 153.966 376.554 153.887 376.322 153.887C376.097 153.887 375.936 153.966 375.837 154.124C375.74 154.281 375.692 154.459 375.692 154.657ZM375.28 160.008L379.808 153.423H380.541L376.013 160.008H375.28Z" fill="black"/>
<path d="M284.567 174.511H271.405V187.682H284.567V174.511Z" fill="#F6CBC7"/>
<path d="M273.873 174.511H282.099C282.753 174.511 283.38 174.771 283.843 175.235C284.306 175.698 284.567 176.326 284.567 176.98V185.212C284.567 185.868 284.306 186.495 283.843 186.959C283.38 187.422 282.753 187.682 282.099 187.682H273.873C273.217 187.682 272.59 187.422 272.128 186.959C271.665 186.495 271.405 185.868 271.405 185.212V176.98C271.405 176.326 271.665 175.698 272.128 175.235C272.59 174.771 273.217 174.511 273.873 174.511Z" fill="#F6CBC7" stroke="white" stroke-width="0.822474"/>
<path d="M291.509 186.35H289.477V179.765H291.599C292.238 179.765 292.784 179.898 293.238 180.16C293.694 180.422 294.041 180.798 294.283 181.289C294.527 181.777 294.648 182.362 294.648 183.045C294.648 183.731 294.525 184.321 294.28 184.817C294.037 185.309 293.68 185.689 293.213 185.954C292.746 186.219 292.178 186.35 291.509 186.35ZM290.275 185.642H291.457C292.002 185.642 292.453 185.538 292.811 185.327C293.17 185.118 293.437 184.818 293.612 184.43C293.788 184.042 293.876 183.581 293.876 183.045C293.876 182.513 293.789 182.055 293.614 181.671C293.441 181.286 293.182 180.99 292.837 180.784C292.492 180.577 292.062 180.472 291.548 180.472H290.275V185.642ZM295.882 186.35V181.411H296.615V182.158H296.666C296.757 181.913 296.92 181.714 297.156 181.562C297.392 181.41 297.657 181.334 297.953 181.334C298.008 181.334 298.078 181.335 298.162 181.337C298.246 181.34 298.308 181.343 298.352 181.347V182.119C298.326 182.112 298.267 182.103 298.174 182.089C298.084 182.074 297.989 182.067 297.889 182.067C297.649 182.067 297.434 182.118 297.245 182.219C297.059 182.318 296.911 182.455 296.802 182.63C296.694 182.804 296.641 183.001 296.641 183.225V186.35H295.882ZM300.705 186.467C300.391 186.467 300.107 186.407 299.852 186.289C299.597 186.169 299.395 185.996 299.244 185.771C299.095 185.544 299.019 185.269 299.019 184.948C299.019 184.666 299.076 184.436 299.186 184.26C299.298 184.082 299.448 183.943 299.634 183.842C299.821 183.742 300.025 183.666 300.251 183.617C300.478 183.566 300.706 183.525 300.936 183.495C301.236 183.457 301.479 183.427 301.666 183.407C301.854 183.387 301.992 183.351 302.078 183.301C302.165 183.252 302.21 183.167 302.21 183.045V183.019C302.21 182.701 302.123 182.455 301.948 182.279C301.778 182.104 301.517 182.016 301.167 182.016C300.805 182.016 300.521 182.095 300.315 182.253C300.109 182.413 299.966 182.582 299.882 182.762L299.161 182.504C299.289 182.204 299.461 181.971 299.676 181.804C299.892 181.634 300.128 181.516 300.384 181.45C300.64 181.381 300.893 181.347 301.142 181.347C301.3 181.347 301.482 181.367 301.689 181.405C301.896 181.441 302.096 181.517 302.29 181.634C302.484 181.749 302.647 181.923 302.775 182.158C302.904 182.391 302.968 182.704 302.968 183.097V186.35H302.21V185.681H302.171C302.12 185.789 302.033 185.904 301.914 186.026C301.793 186.147 301.633 186.252 301.435 186.338C301.235 186.423 300.991 186.467 300.705 186.467ZM300.82 185.784C301.12 185.784 301.373 185.726 301.58 185.608C301.787 185.49 301.944 185.338 302.048 185.151C302.156 184.965 302.21 184.768 302.21 184.563V183.867C302.177 183.906 302.107 183.942 301.998 183.975C301.89 184.005 301.766 184.032 301.624 184.054C301.485 184.076 301.348 184.096 301.215 184.112C301.085 184.127 300.979 184.141 300.897 184.151C300.7 184.176 300.517 184.218 300.345 184.276C300.175 184.332 300.037 184.417 299.933 184.53C299.83 184.642 299.779 184.794 299.779 184.987C299.779 185.251 299.876 185.45 300.072 185.586C300.269 185.719 300.518 185.784 300.82 185.784ZM305.472 186.35L303.967 181.411H304.766L305.833 185.193H305.884L306.939 181.411H307.748L308.791 185.18H308.843L309.91 181.411H310.708L309.203 186.35H308.456L307.375 182.556H307.299L306.218 186.35H305.472ZM313.613 186.453C313.137 186.453 312.726 186.349 312.381 186.138C312.039 185.926 311.774 185.63 311.587 185.251C311.403 184.869 311.311 184.426 311.311 183.92C311.311 183.413 311.403 182.967 311.587 182.582C311.774 182.194 312.033 181.892 312.366 181.676C312.701 181.456 313.09 181.347 313.535 181.347C313.794 181.347 314.047 181.39 314.298 181.476C314.549 181.561 314.777 181.701 314.983 181.894C315.189 182.085 315.352 182.337 315.475 182.652C315.597 182.967 315.658 183.355 315.658 183.817V184.138H311.851V183.482H314.886C314.886 183.203 314.831 182.955 314.719 182.736C314.61 182.518 314.453 182.344 314.25 182.219C314.049 182.092 313.81 182.028 313.535 182.028C313.234 182.028 312.972 182.104 312.751 182.253C312.533 182.401 312.365 182.595 312.247 182.833C312.129 183.07 312.069 183.325 312.069 183.599V184.034C312.069 184.408 312.133 184.724 312.263 184.984C312.393 185.241 312.575 185.436 312.807 185.572C313.038 185.705 313.307 185.771 313.613 185.771C313.813 185.771 313.992 185.744 314.153 185.687C314.316 185.63 314.456 185.544 314.574 185.43C314.692 185.315 314.783 185.171 314.848 185.001L315.581 185.205C315.504 185.454 315.375 185.672 315.192 185.862C315.01 186.049 314.785 186.193 314.516 186.299C314.249 186.402 313.947 186.453 313.613 186.453ZM316.812 186.35V181.411H317.545V182.158H317.598C317.687 181.913 317.85 181.714 318.086 181.562C318.322 181.41 318.587 181.334 318.883 181.334C318.94 181.334 319.008 181.335 319.092 181.337C319.176 181.34 319.24 181.343 319.282 181.347V182.119C319.256 182.112 319.198 182.103 319.106 182.089C319.014 182.074 318.92 182.067 318.819 182.067C318.579 182.067 318.365 182.118 318.175 182.219C317.989 182.318 317.841 182.455 317.732 182.63C317.625 182.804 317.571 183.001 317.571 183.225V186.35H316.812Z" fill="black"/>
<path d="M365.54 179.765V186.35H364.743V180.601H364.704L363.096 181.668V180.859L364.743 179.765H365.54ZM367.611 186.402C367.453 186.402 367.315 186.346 367.202 186.231C367.088 186.117 367.032 185.981 367.032 185.823C367.032 185.665 367.088 185.527 367.202 185.414C367.315 185.301 367.453 185.244 367.611 185.244C367.769 185.244 367.905 185.301 368.018 185.414C368.133 185.527 368.19 185.665 368.19 185.823C368.19 185.928 368.163 186.025 368.109 186.113C368.057 186.201 367.989 186.271 367.9 186.325C367.814 186.375 367.718 186.402 367.611 186.402ZM371.496 186.44C371.225 186.437 370.955 186.384 370.685 186.286C370.415 186.187 370.168 186.022 369.946 185.787C369.722 185.551 369.543 185.233 369.408 184.833C369.273 184.43 369.205 183.924 369.205 183.315C369.205 182.731 369.261 182.215 369.37 181.765C369.479 181.313 369.638 180.932 369.846 180.623C370.053 180.313 370.304 180.077 370.598 179.915C370.894 179.756 371.227 179.675 371.599 179.675C371.967 179.675 372.294 179.748 372.582 179.897C372.871 180.042 373.106 180.247 373.289 180.508C373.472 180.769 373.589 181.071 373.642 181.411H372.859C372.785 181.116 372.644 180.869 372.435 180.675C372.224 180.48 371.945 180.383 371.599 180.383C371.088 180.383 370.686 180.604 370.392 181.049C370.101 181.492 369.953 182.114 369.952 182.916H370.003C370.124 182.734 370.265 182.579 370.431 182.45C370.598 182.319 370.782 182.219 370.983 182.147C371.185 182.077 371.399 182.041 371.624 182.041C372.002 182.041 372.347 182.135 372.659 182.325C372.972 182.512 373.223 182.77 373.411 183.1C373.601 183.427 373.695 183.803 373.695 184.229C373.695 184.635 373.604 185.008 373.421 185.347C373.239 185.684 372.983 185.952 372.653 186.152C372.324 186.349 371.939 186.444 371.496 186.44ZM371.496 185.734C371.766 185.734 372.008 185.665 372.221 185.53C372.438 185.395 372.609 185.214 372.733 184.987C372.86 184.76 372.923 184.506 372.923 184.229C372.923 183.955 372.862 183.708 372.739 183.485C372.62 183.26 372.453 183.081 372.241 182.948C372.032 182.815 371.791 182.749 371.521 182.749C371.316 182.749 371.127 182.789 370.952 182.871C370.776 182.951 370.622 183.06 370.489 183.198C370.358 183.339 370.255 183.498 370.18 183.678C370.106 183.857 370.067 184.043 370.067 184.241C370.067 184.502 370.128 184.747 370.25 184.974C370.374 185.202 370.545 185.384 370.758 185.524C370.974 185.663 371.221 185.734 371.496 185.734ZM378.315 185.115V184.768C378.315 184.529 378.365 184.309 378.463 184.109C378.565 183.908 378.711 183.746 378.901 183.627C379.095 183.504 379.328 183.443 379.602 183.443C379.88 183.443 380.114 183.504 380.303 183.627C380.492 183.746 380.634 183.908 380.731 184.109C380.827 184.309 380.876 184.529 380.876 184.768V185.115C380.876 185.356 380.827 185.577 380.728 185.778C380.631 185.977 380.488 186.138 380.297 186.261C380.109 186.38 379.877 186.44 379.602 186.44C379.323 186.44 379.089 186.38 378.898 186.261C378.707 186.138 378.562 185.977 378.463 185.778C378.365 185.577 378.315 185.356 378.315 185.115ZM378.972 184.768V185.115C378.972 185.315 379.019 185.495 379.113 185.653C379.208 185.81 379.371 185.887 379.602 185.887C379.828 185.887 379.986 185.81 380.079 185.653C380.173 185.495 380.219 185.315 380.219 185.115V184.768C380.219 184.569 380.174 184.391 380.085 184.235C379.995 184.076 379.834 183.997 379.602 183.997C379.377 183.997 379.216 184.076 379.117 184.235C379.02 184.391 378.972 184.569 378.972 184.768ZM375.035 181.347V180.999C375.035 180.759 375.086 180.539 375.185 180.341C375.285 180.139 375.431 179.978 375.621 179.859C375.815 179.736 376.048 179.675 376.322 179.675C376.602 179.675 376.834 179.736 377.024 179.859C377.212 179.978 377.354 180.139 377.451 180.341C377.548 180.539 377.596 180.759 377.596 180.999V181.347C377.596 181.588 377.547 181.808 377.448 182.01C377.351 182.209 377.208 182.37 377.017 182.492C376.828 182.612 376.597 182.671 376.322 182.671C376.043 182.671 375.809 182.612 375.618 182.492C375.428 182.37 375.283 182.209 375.185 182.01C375.086 181.808 375.035 181.588 375.035 181.347ZM375.692 180.999V181.347C375.692 181.546 375.739 181.725 375.834 181.885C375.928 182.04 376.091 182.119 376.322 182.119C376.548 182.119 376.706 182.04 376.799 181.885C376.893 181.725 376.94 181.546 376.94 181.347V180.999C376.94 180.801 376.894 180.623 376.805 180.466C376.715 180.308 376.554 180.227 376.322 180.227C376.097 180.227 375.936 180.308 375.837 180.466C375.74 180.623 375.692 180.801 375.692 180.999ZM375.28 186.35L379.808 179.765H380.541L376.013 186.35H375.28Z" fill="black"/>
<path d="M284.567 200.853H271.405V214.024H284.567V200.853Z" fill="#FF8074"/>
<path d="M273.873 200.853H282.099C282.753 200.853 283.382 201.113 283.844 201.575C284.307 202.04 284.567 202.667 284.567 203.322V211.554C284.567 212.208 284.307 212.837 283.844 213.3C283.382 213.764 282.753 214.024 282.099 214.024H273.873C273.219 214.024 272.59 213.764 272.128 213.3C271.665 212.837 271.405 212.208 271.405 211.554V203.322C271.405 202.667 271.665 202.04 272.128 201.575C272.59 201.113 273.219 200.853 273.873 200.853Z" fill="#FF8074" stroke="white" stroke-width="0.822474"/>
<path d="M289.118 206.814V206.107H294.056V206.814H291.986V212.692H291.188V206.814H289.118ZM295.966 212.807C295.652 212.807 295.369 212.749 295.113 212.631C294.858 212.511 294.655 212.338 294.506 212.113C294.355 211.886 294.28 211.611 294.28 211.29C294.28 211.007 294.336 210.778 294.448 210.602C294.56 210.424 294.707 210.284 294.894 210.184C295.081 210.084 295.287 210.008 295.512 209.959C295.739 209.908 295.967 209.867 296.197 209.836C296.497 209.799 296.741 209.769 296.927 209.749C297.116 209.729 297.253 209.693 297.338 209.644C297.426 209.594 297.471 209.509 297.471 209.387V209.361C297.471 209.043 297.383 208.797 297.21 208.621C297.038 208.446 296.778 208.358 296.429 208.358C296.066 208.358 295.782 208.437 295.576 208.595C295.37 208.754 295.225 208.924 295.142 209.103L294.422 208.846C294.551 208.546 294.722 208.313 294.936 208.146C295.152 207.976 295.388 207.858 295.643 207.792C295.902 207.724 296.154 207.689 296.402 207.689C296.562 207.689 296.744 207.709 296.95 207.746C297.157 207.783 297.357 207.859 297.55 207.974C297.746 208.091 297.907 208.265 298.037 208.498C298.165 208.733 298.229 209.046 298.229 209.437V212.692H297.471V212.023H297.432C297.38 212.131 297.295 212.246 297.174 212.367C297.054 212.489 296.895 212.594 296.695 212.679C296.496 212.765 296.253 212.807 295.966 212.807ZM296.081 212.126C296.381 212.126 296.635 212.067 296.839 211.949C297.048 211.831 297.204 211.68 297.31 211.493C297.417 211.307 297.471 211.11 297.471 210.904V210.209C297.438 210.248 297.368 210.284 297.257 210.315C297.151 210.345 297.026 210.372 296.886 210.396C296.745 210.418 296.609 210.436 296.477 210.454C296.345 210.469 296.239 210.483 296.159 210.493C295.961 210.518 295.776 210.56 295.605 210.618C295.436 210.674 295.299 210.759 295.194 210.872C295.091 210.984 295.039 211.136 295.039 211.329C295.039 211.592 295.137 211.792 295.331 211.926C295.528 212.059 295.779 212.126 296.081 212.126ZM299.716 212.692V206.107H300.476V208.537H300.54C300.596 208.452 300.673 208.343 300.772 208.21C300.872 208.074 301.017 207.955 301.203 207.849C301.391 207.743 301.647 207.689 301.968 207.689C302.384 207.689 302.75 207.792 303.068 208.001C303.385 208.209 303.632 208.503 303.81 208.885C303.988 209.266 304.077 209.717 304.077 210.235C304.077 210.759 303.988 211.211 303.81 211.596C303.632 211.977 303.386 212.273 303.071 212.483C302.756 212.691 302.392 212.795 301.981 212.795C301.663 212.795 301.409 212.743 301.218 212.637C301.027 212.531 300.881 212.408 300.778 212.274C300.675 212.137 300.596 212.023 300.54 211.934H300.451V212.692H299.716ZM300.463 210.223C300.463 210.596 300.518 210.925 300.627 211.21C300.736 211.493 300.896 211.714 301.106 211.876C301.317 212.034 301.574 212.113 301.878 212.113C302.195 212.113 302.46 212.029 302.672 211.862C302.886 211.693 303.047 211.466 303.155 211.181C303.264 210.893 303.319 210.574 303.319 210.223C303.319 209.875 303.265 209.563 303.158 209.284C303.053 209.003 302.893 208.781 302.678 208.618C302.466 208.454 302.199 208.37 301.878 208.37C301.569 208.37 301.309 208.449 301.1 208.606C300.89 208.76 300.732 208.976 300.624 209.255C300.517 209.532 300.463 209.854 300.463 210.223ZM305.997 206.107V212.692H305.237V206.107H305.997ZM309.458 212.795C308.982 212.795 308.571 212.691 308.226 212.48C307.883 212.268 307.619 211.971 307.432 211.592C307.247 211.211 307.156 210.768 307.156 210.262C307.156 209.755 307.247 209.309 307.432 208.924C307.619 208.536 307.878 208.233 308.21 208.016C308.544 207.798 308.934 207.689 309.38 207.689C309.637 207.689 309.892 207.731 310.143 207.818C310.393 207.903 310.621 208.043 310.827 208.236C311.033 208.427 311.197 208.679 311.32 208.994C311.442 209.309 311.503 209.697 311.503 210.159V210.48H307.695V209.824H310.731C310.731 209.545 310.675 209.297 310.564 209.078C310.454 208.86 310.298 208.687 310.094 208.56C309.892 208.434 309.655 208.37 309.38 208.37C309.079 208.37 308.816 208.446 308.596 208.595C308.377 208.743 308.208 208.936 308.09 209.175C307.972 209.412 307.914 209.667 307.914 209.939V210.377C307.914 210.75 307.978 211.066 308.107 211.326C308.238 211.583 308.419 211.778 308.65 211.914C308.882 212.047 309.15 212.113 309.458 212.113C309.657 212.113 309.837 212.086 309.998 212.029C310.161 211.971 310.301 211.886 310.419 211.772C310.537 211.656 310.628 211.513 310.693 211.341L311.426 211.547C311.348 211.796 311.218 212.014 311.036 212.204C310.854 212.389 310.628 212.535 310.361 212.64C310.092 212.743 309.792 212.795 309.458 212.795Z" fill="black"/>
<path d="M365.54 206.107V212.692H364.743V206.943H364.704L363.096 208.01V207.199L364.743 206.107H365.54ZM367.611 212.743C367.453 212.743 367.317 212.686 367.203 212.573C367.09 212.459 367.033 212.323 367.033 212.165C367.033 212.005 367.09 211.87 367.203 211.756C367.317 211.643 367.453 211.586 367.611 211.586C367.769 211.586 367.906 211.643 368.02 211.756C368.133 211.87 368.19 212.005 368.19 212.165C368.19 212.27 368.163 212.367 368.109 212.455C368.059 212.541 367.989 212.613 367.9 212.667C367.815 212.717 367.718 212.743 367.611 212.743ZM371.496 212.782C371.225 212.777 370.955 212.726 370.685 212.628C370.415 212.529 370.168 212.364 369.946 212.129C369.722 211.893 369.544 211.575 369.408 211.174C369.274 210.771 369.205 210.266 369.205 209.657C369.205 209.073 369.261 208.557 369.37 208.107C369.48 207.655 369.638 207.274 369.846 206.965C370.053 206.655 370.304 206.419 370.598 206.257C370.894 206.098 371.227 206.017 371.599 206.017C371.967 206.017 372.296 206.09 372.582 206.238C372.872 206.384 373.108 206.587 373.29 206.85C373.472 207.111 373.59 207.412 373.644 207.753H372.859C372.785 207.458 372.645 207.211 372.435 207.017C372.224 206.822 371.945 206.725 371.599 206.725C371.088 206.725 370.686 206.946 370.392 207.389C370.101 207.834 369.955 208.457 369.952 209.258H370.004C370.123 209.076 370.265 208.921 370.431 208.791C370.598 208.661 370.783 208.56 370.983 208.489C371.185 208.419 371.399 208.383 371.624 208.383C372.002 208.383 372.347 208.477 372.66 208.666C372.972 208.852 373.223 209.111 373.413 209.44C373.601 209.769 373.695 210.145 373.695 210.569C373.695 210.977 373.604 211.35 373.421 211.689C373.239 212.025 372.983 212.294 372.653 212.492C372.326 212.691 371.939 212.786 371.496 212.782ZM371.496 212.074C371.766 212.074 372.008 212.007 372.223 211.872C372.439 211.737 372.609 211.556 372.733 211.329C372.86 211.102 372.923 210.848 372.923 210.569C372.923 210.297 372.862 210.05 372.739 209.827C372.62 209.602 372.454 209.423 372.242 209.29C372.032 209.157 371.791 209.091 371.521 209.091C371.318 209.091 371.128 209.131 370.952 209.213C370.776 209.293 370.622 209.402 370.489 209.54C370.358 209.681 370.255 209.841 370.18 210.02C370.106 210.197 370.068 210.385 370.068 210.583C370.068 210.844 370.129 211.089 370.25 211.316C370.376 211.543 370.545 211.726 370.76 211.865C370.976 212.005 371.221 212.074 371.496 212.074ZM378.317 211.457V211.11C378.317 210.869 378.366 210.65 378.465 210.451C378.565 210.25 378.711 210.088 378.902 209.969C379.095 209.847 379.328 209.785 379.602 209.785C379.882 209.785 380.115 209.847 380.304 209.969C380.492 210.088 380.634 210.25 380.731 210.451C380.828 210.65 380.876 210.869 380.876 211.11V211.457C380.876 211.698 380.827 211.919 380.728 212.12C380.631 212.319 380.488 212.48 380.297 212.603C380.109 212.722 379.877 212.782 379.602 212.782C379.323 212.782 379.089 212.722 378.898 212.603C378.708 212.48 378.563 212.319 378.465 212.12C378.366 211.919 378.317 211.698 378.317 211.457ZM378.972 211.11V211.457C378.972 211.656 379.02 211.835 379.114 211.995C379.208 212.15 379.371 212.229 379.602 212.229C379.828 212.229 379.986 212.15 380.079 211.995C380.173 211.835 380.221 211.656 380.221 211.457V211.11C380.221 210.911 380.174 210.733 380.085 210.577C379.995 210.418 379.834 210.338 379.602 210.338C379.377 210.338 379.216 210.418 379.117 210.577C379.02 210.733 378.972 210.911 378.972 211.11ZM375.037 207.689V207.341C375.037 207.101 375.086 206.881 375.185 206.683C375.285 206.481 375.431 206.32 375.622 206.201C375.815 206.078 376.048 206.017 376.322 206.017C376.602 206.017 376.834 206.078 377.024 206.201C377.212 206.32 377.355 206.481 377.451 206.683C377.548 206.881 377.596 207.101 377.596 207.341V207.689C377.596 207.93 377.547 208.149 377.448 208.351C377.351 208.551 377.208 208.712 377.017 208.833C376.828 208.954 376.597 209.013 376.322 209.013C376.045 209.013 375.809 208.954 375.619 208.833C375.428 208.712 375.283 208.551 375.185 208.351C375.086 208.149 375.037 207.93 375.037 207.689ZM375.692 207.341V207.689C375.692 207.888 375.74 208.067 375.834 208.225C375.928 208.382 376.091 208.461 376.322 208.461C376.548 208.461 376.706 208.382 376.799 208.225C376.893 208.067 376.94 207.888 376.94 207.689V207.341C376.94 207.143 376.896 206.964 376.805 206.808C376.715 206.649 376.554 206.569 376.322 206.569C376.098 206.569 375.936 206.649 375.837 206.808C375.74 206.964 375.692 207.143 375.692 207.341ZM375.28 212.692L379.808 206.107H380.541L376.015 212.692H375.28Z" fill="black"/>
</g>
</svg>
