<svg width="123" height="23" viewBox="0 0 123 23" fill="none" xmlns="http://www.w3.org/2000/svg">
<path d="M46.7079 0H0V22.2837H46.7079V0Z" fill="#FAFAFA"/>
<path d="M13.2376 12.6087L14.7295 13.7902L14.2051 14.275L12.7367 13.1085L13.2376 12.6087ZM14.7091 10.16V10.5314C14.7091 10.9723 14.6546 11.3672 14.5443 11.7172C14.4341 12.0671 14.2757 12.3636 14.0681 12.6087C13.8615 12.8538 13.6122 13.04 13.3222 13.1695C13.0343 13.2979 12.7111 13.3632 12.3536 13.3632C12.0069 13.3632 11.6879 13.2979 11.3979 13.1695C11.11 13.04 10.8596 12.8538 10.6477 12.6087C10.4379 12.3636 10.2753 12.0671 10.1597 11.7172C10.0441 11.3672 9.9863 10.9723 9.9863 10.5314V10.16C9.9863 9.71911 10.042 9.32527 10.1554 8.97852C10.271 8.62856 10.4337 8.33105 10.6434 8.08704C10.8532 7.83982 11.1025 7.65146 11.3894 7.52197C11.6805 7.39354 11.9994 7.32826 12.3461 7.32826C12.7036 7.32826 13.0279 7.39354 13.3179 7.52197C13.6079 7.65146 13.8573 7.83982 14.0638 8.08704C14.2715 8.33105 14.4299 8.62856 14.5401 8.97852C14.6535 9.32527 14.7091 9.71911 14.7091 10.16ZM13.9386 10.5314V10.1525C13.9386 9.80259 13.9033 9.49329 13.8305 9.22467C13.7599 8.95497 13.6571 8.72916 13.5191 8.54615C13.3821 8.36422 13.2162 8.2251 13.0193 8.13092C12.8234 8.03674 12.5987 7.98964 12.3461 7.98964C12.1064 7.98964 11.8881 8.03674 11.6922 8.13092C11.4985 8.2251 11.3316 8.36422 11.1924 8.54615C11.0522 8.72916 10.9452 8.95497 10.8692 9.22467C10.7943 9.49329 10.7569 9.80259 10.7569 10.1525V10.5314C10.7569 10.8835 10.7943 11.196 10.8692 11.4668C10.9452 11.7365 11.0522 11.9633 11.1924 12.1485C11.3348 12.3315 11.5039 12.4706 11.7008 12.5637C11.8967 12.6579 12.115 12.705 12.3536 12.705C12.6062 12.705 12.8309 12.6579 13.0279 12.5637C13.2237 12.4706 13.3896 12.3315 13.5234 12.1485C13.6604 11.9633 13.7642 11.7365 13.8337 11.4668C13.9043 11.196 13.9386 10.8835 13.9386 10.5314ZM18.4688 12.2737V8.91751H19.219V13.2818H18.5052L18.4688 12.2737ZM18.6101 11.3544L18.9204 11.3458C18.9204 11.6369 18.8894 11.9055 18.8284 12.1528C18.7684 12.3978 18.6722 12.6097 18.5373 12.7906C18.4035 12.9704 18.2269 13.1117 18.0086 13.2133C17.7914 13.3129 17.5259 13.3632 17.2145 13.3632C17.0015 13.3632 16.8068 13.3321 16.6291 13.2701C16.4547 13.208 16.3038 13.1127 16.1775 12.9832C16.0512 12.8548 15.9527 12.6868 15.8831 12.4792C15.8157 12.2726 15.7826 12.0233 15.7826 11.7332V8.91751H16.5285V11.7418C16.5285 11.9376 16.5499 12.1003 16.5927 12.2298C16.6387 12.3561 16.6997 12.4567 16.7746 12.5316C16.8528 12.6044 16.9384 12.6558 17.0326 12.6857C17.13 12.7146 17.2295 12.7296 17.3312 12.7296C17.649 12.7296 17.9005 12.6686 18.0857 12.5477C18.2708 12.4246 18.4046 12.2587 18.4849 12.0522C18.5683 11.8424 18.6101 11.6091 18.6101 11.3544ZM22.9305 12.5359V10.2895C22.9305 10.1172 22.8952 9.9674 22.8256 9.84111C22.7582 9.71269 22.6555 9.61315 22.5185 9.54252C22.3815 9.47295 22.2124 9.43764 22.0101 9.43764C21.8218 9.43764 21.657 9.47082 21.5146 9.53503C21.3744 9.59924 21.2642 9.68379 21.1839 9.78867C21.1058 9.89355 21.0662 10.007 21.0662 10.1279H20.3202C20.3202 9.97168 20.3609 9.81757 20.4412 9.66453C20.5225 9.51042 20.6381 9.37236 20.7879 9.24822C20.942 9.12193 21.124 9.0224 21.3369 8.94963C21.5521 8.87471 21.7918 8.83725 22.0551 8.83725C22.3719 8.83725 22.6523 8.89076 22.8941 8.99885C23.1381 9.10588 23.3297 9.26855 23.4667 9.48687C23.6069 9.70198 23.6765 9.97167 23.6765 10.297V12.3304C23.6765 12.476 23.6882 12.6301 23.7128 12.7938C23.7396 12.9586 23.7781 13.0999 23.8295 13.2176V13.2818H23.0514C23.014 13.1962 22.984 13.0817 22.9626 12.9394C22.9412 12.7938 22.9305 12.66 22.9305 12.5359ZM23.0589 10.6363L23.0675 11.1607H22.313C22.1011 11.1607 21.9106 11.1778 21.7447 11.2131C21.5778 11.2452 21.4376 11.2945 21.3252 11.3619C21.2117 11.4293 21.1261 11.5138 21.0662 11.6166C21.0073 11.7161 20.9774 11.8328 20.9774 11.9676C20.9774 12.1046 21.0084 12.2298 21.0705 12.3422C21.1326 12.4556 21.2257 12.5455 21.3488 12.613C21.4751 12.6772 21.6302 12.7093 21.8132 12.7093C22.0412 12.7093 22.2434 12.6611 22.4179 12.5637C22.5923 12.4674 22.7314 12.3486 22.8331 12.2095C22.938 12.0693 22.9947 11.9334 23.0033 11.8017L23.3211 12.1613C23.3029 12.2737 23.2516 12.3989 23.1681 12.5359C23.0846 12.6729 22.9733 12.8045 22.8331 12.9308C22.6961 13.0549 22.5324 13.1588 22.3408 13.2422C22.1535 13.3225 21.9406 13.3632 21.704 13.3632C21.4087 13.3632 21.1486 13.3054 20.9249 13.1898C20.7044 13.0742 20.5332 12.919 20.4091 12.7253C20.2881 12.5295 20.2272 12.3101 20.2272 12.0682C20.2272 11.8338 20.2732 11.6284 20.3652 11.4507C20.4562 11.2709 20.5878 11.1211 20.7601 11.0034C20.9324 10.8824 21.139 10.7904 21.3808 10.7294C21.6238 10.6673 21.8935 10.6363 22.1921 10.6363H23.0589ZM25.5964 9.60353V13.2818H24.8505V8.91751H25.5761L25.5964 9.60353ZM26.9599 8.89397L26.9556 9.58747C26.8935 9.57356 26.8347 9.56607 26.7779 9.56286C26.7244 9.5575 26.6623 9.55536 26.5928 9.55536C26.4205 9.55536 26.2685 9.58212 26.1369 9.63563C26.0053 9.68914 25.8939 9.76513 25.8019 9.86144C25.7109 9.95883 25.6381 10.0744 25.5846 10.2082C25.5332 10.3398 25.5001 10.4854 25.484 10.6438L25.2743 10.7647C25.2743 10.5014 25.2989 10.2542 25.3502 10.023C25.4037 9.79188 25.4862 9.58747 25.5964 9.40982C25.7067 9.23002 25.8468 9.08982 26.0159 8.99029C26.1882 8.88862 26.3926 8.83725 26.6291 8.83725C26.6827 8.83725 26.7448 8.84367 26.8143 8.85758C26.885 8.86828 26.9331 8.88006 26.9599 8.89397ZM29.6782 8.91751V9.49008H27.3183V8.91751H29.6782ZM28.1178 7.85694H28.8638V12.2009C28.8638 12.3486 28.8863 12.461 28.9323 12.5359C28.9783 12.6108 29.0371 12.6611 29.1099 12.6857C29.1827 12.7093 29.2608 12.721 29.3443 12.721C29.4053 12.721 29.4706 12.7157 29.537 12.705C29.6076 12.6921 29.66 12.6814 29.6942 12.6729L29.6985 13.2818C29.6396 13.3011 29.5616 13.3182 29.4652 13.3343C29.3711 13.3535 29.2566 13.3632 29.1217 13.3632C28.9387 13.3632 28.7707 13.3268 28.6176 13.254C28.4646 13.1812 28.3426 13.0603 28.2505 12.8912C28.1617 12.7189 28.1178 12.4877 28.1178 12.1977V7.85694ZM32.3655 13.3632C32.0615 13.3632 31.7855 13.3118 31.5382 13.2101C31.2932 13.1053 31.0823 12.9586 30.9046 12.7703C30.7302 12.5819 30.5953 12.3582 30.5011 12.1003C30.407 11.8424 30.3599 11.5599 30.3599 11.2538V11.0836C30.3599 10.7294 30.4123 10.4126 30.5172 10.1365C30.6221 9.85609 30.7655 9.61958 30.9453 9.42587C31.1251 9.23216 31.3295 9.08554 31.5586 8.98601C31.7865 8.88648 32.023 8.83725 32.2681 8.83725C32.5806 8.83725 32.8492 8.89076 33.075 8.99885C33.3041 9.10588 33.4903 9.25677 33.6358 9.45048C33.7814 9.64098 33.8884 9.8668 33.958 10.1279C34.0286 10.3858 34.0628 10.6684 34.0628 10.9745V11.3094H30.804V10.7005H33.3169V10.6438C33.3062 10.4501 33.2655 10.2628 33.1959 10.0798C33.1285 9.89676 33.0215 9.74586 32.8727 9.62814C32.7251 9.50934 32.5238 9.45048 32.2681 9.45048C32.099 9.45048 31.9428 9.48687 31.8004 9.55965C31.6581 9.62921 31.535 9.73409 31.4333 9.87429C31.3306 10.0134 31.2514 10.1846 31.1958 10.3858C31.139 10.5881 31.1101 10.8204 31.1101 11.0836V11.2538C31.1101 11.4603 31.139 11.6551 31.1958 11.8381C31.2546 12.0179 31.3392 12.1774 31.4494 12.3144C31.5628 12.4514 31.6977 12.5584 31.8571 12.6365C32.0177 12.7146 32.2007 12.7542 32.4051 12.7542C32.6695 12.7542 32.892 12.6996 33.075 12.5926C33.258 12.4845 33.4175 12.3411 33.5545 12.1613L34.0072 12.5198C33.913 12.6622 33.7931 12.7981 33.6476 12.9276C33.502 13.056 33.3233 13.1609 33.1114 13.2422C32.9017 13.3225 32.6523 13.3632 32.3655 13.3632ZM35.681 9.60353V13.2818H34.934V8.91751H35.6607L35.681 9.60353ZM37.0444 8.89397L37.0402 9.58747C36.9781 9.57356 36.9192 9.56607 36.8625 9.56286C36.809 9.5575 36.747 9.55536 36.6774 9.55536C36.5051 9.55536 36.3531 9.58212 36.2215 9.63563C36.0898 9.68914 35.9775 9.76513 35.8865 9.86144C35.7955 9.95883 35.7227 10.0744 35.6681 10.2082C35.6178 10.3398 35.5836 10.4854 35.5675 10.6438L35.3578 10.7647C35.3578 10.5014 35.3835 10.2542 35.4349 10.023C35.4884 9.79188 35.5708 9.58747 35.681 9.40982C35.7912 9.23002 35.9304 9.08982 36.1006 8.99029C36.2729 8.88862 36.4773 8.83725 36.7138 8.83725C36.7673 8.83725 36.8293 8.84367 36.8989 8.85758C36.9685 8.86828 37.0177 8.88006 37.0444 8.89397Z" fill="#777777"/>
<path d="M90.2045 0H46.7073V22.2837H90.2045V0Z" fill="#E9E9E9"/>
<path d="M57.5133 7.4096H58.2667L60.1909 12.1977L62.1108 7.4096H62.8697L60.482 13.2818H59.8923L57.5133 7.4096ZM57.2671 7.4096H57.9327L58.0408 10.9916V13.2818H57.2671V7.4096ZM62.4459 7.4096H63.1115V13.2818H62.3366V10.9916L62.4459 7.4096ZM64.1689 11.1489V11.0558C64.1689 10.7412 64.2138 10.449 64.3059 10.1804C64.3968 9.90853 64.5285 9.67309 64.7008 9.47403C64.8731 9.27283 65.0818 9.11658 65.3258 9.00635C65.5709 8.89397 65.8448 8.83726 66.1487 8.83726C66.4559 8.83726 66.731 8.89397 66.976 9.00635C67.2233 9.11658 67.433 9.27283 67.6053 9.47403C67.7798 9.67309 67.9125 9.90853 68.0045 10.1804C68.0955 10.449 68.1415 10.7412 68.1415 11.0558V11.1489C68.1415 11.4636 68.0955 11.7546 68.0045 12.0233C67.9125 12.293 67.7798 12.5284 67.6053 12.7296C67.433 12.9287 67.2244 13.0849 66.9803 13.1973C66.7374 13.3075 66.4634 13.3632 66.1573 13.3632C65.8502 13.3632 65.5751 13.3075 65.33 13.1973C65.0849 13.0849 64.8752 12.9287 64.7008 12.7296C64.5285 12.5284 64.3968 12.293 64.3059 12.0233C64.2138 11.7546 64.1689 11.4636 64.1689 11.1489ZM64.9148 11.0558V11.1489C64.9148 11.3662 64.9405 11.5716 64.9908 11.7654C65.0422 11.9569 65.1192 12.126 65.2209 12.2737C65.3258 12.4214 65.4563 12.5391 65.6126 12.6247C65.7688 12.7082 65.9497 12.7499 66.1573 12.7499C66.3617 12.7499 66.5405 12.7082 66.6935 12.6247C66.8498 12.5391 66.9782 12.4214 67.0809 12.2737C67.1826 12.126 67.2596 11.9569 67.311 11.7654C67.3645 11.5716 67.3913 11.3662 67.3913 11.1489V11.0558C67.3913 10.8407 67.3645 10.6373 67.311 10.4469C67.2596 10.2531 67.1815 10.0819 67.0766 9.93422C66.975 9.78332 66.8455 9.6656 66.6892 9.57891C66.5362 9.4933 66.3564 9.45049 66.1487 9.45049C65.9443 9.45049 65.7645 9.4933 65.6083 9.57891C65.4552 9.6656 65.3258 9.78332 65.2209 9.93422C65.1192 10.0819 65.0422 10.2531 64.9908 10.4469C64.9405 10.6373 64.9148 10.8407 64.9148 11.0558ZM69.8239 9.84968V13.2818H69.0769V8.91752H69.7832L69.8239 9.84968ZM69.6462 10.9349L69.3359 10.922C69.338 10.6245 69.3829 10.3484 69.4685 10.0958C69.5541 9.84005 69.6761 9.61851 69.8313 9.43015C69.9876 9.2418 70.1727 9.09625 70.3879 8.99458C70.6062 8.8897 70.847 8.83726 71.1102 8.83726C71.3253 8.83726 71.5191 8.86722 71.6914 8.92608C71.8637 8.98281 72.0103 9.07377 72.1313 9.20005C72.2543 9.32634 72.3485 9.49009 72.4138 9.69236C72.478 9.89142 72.5101 10.1344 72.5101 10.4222V13.2818H71.7598V10.4147C71.7598 10.1857 71.7267 10.0027 71.6593 9.86573C71.5918 9.72553 71.4934 9.62493 71.365 9.56286C71.2355 9.49865 71.0771 9.46654 70.8887 9.46654C70.7025 9.46654 70.5334 9.50507 70.3803 9.58319C70.2294 9.66132 70.0989 9.76941 69.9887 9.9064C69.8817 10.0434 69.7971 10.2007 69.735 10.3784C69.6762 10.5528 69.6462 10.738 69.6462 10.9349ZM75.4703 8.91752V9.49009H73.1115V8.91752H75.4703ZM73.9099 7.85694H74.6559V12.2009C74.6559 12.3486 74.6783 12.461 74.7243 12.5359C74.7704 12.6108 74.8292 12.6611 74.902 12.6857C74.9748 12.7093 75.0529 12.721 75.1364 12.721C75.1974 12.721 75.2626 12.7157 75.3301 12.705C75.3996 12.6922 75.4521 12.6815 75.4874 12.6729L75.4906 13.2818C75.4318 13.3011 75.3536 13.3182 75.2573 13.3343C75.1631 13.3536 75.0486 13.3632 74.9138 13.3632C74.7308 13.3632 74.5627 13.3268 74.4097 13.254C74.2567 13.1812 74.1347 13.0603 74.0427 12.8912C73.9538 12.7189 73.9099 12.4877 73.9099 12.1977V7.85694ZM77.0927 7.08639V13.2818H76.3457V7.08639H77.0927ZM76.9151 10.9349L76.6047 10.922C76.6069 10.6245 76.6518 10.3484 76.7374 10.0958C76.823 9.84005 76.944 9.61851 77.1002 9.43015C77.2565 9.2418 77.4416 9.09625 77.6567 8.99458C77.875 8.8897 78.1158 8.83726 78.3791 8.83726C78.5942 8.83726 78.7879 8.86722 78.9603 8.92608C79.1326 8.98281 79.2781 9.07377 79.4001 9.20005C79.5232 9.32634 79.6174 9.49009 79.6816 9.69236C79.7469 9.89142 79.779 10.1344 79.779 10.4222V13.2818H79.0288V10.4147C79.0288 10.1857 78.9945 10.0027 78.9281 9.86573C78.8607 9.72553 78.7623 9.62493 78.6328 9.56286C78.5044 9.49865 78.3459 9.46654 78.1576 9.46654C77.9714 9.46654 77.8023 9.50507 77.6493 9.58319C77.4984 9.66132 77.3678 9.76941 77.2575 9.9064C77.1505 10.0434 77.066 10.2007 77.0039 10.3784C76.944 10.5528 76.9151 10.738 76.9151 10.9349Z" fill="#777777"/>
<path d="M123 0H90.2049V22.2837H123V0Z" fill="#FAFAFA"/>
<path d="M101.992 13.2819H100.766L100.773 12.6494H101.992C102.412 12.6494 102.76 12.5616 103.041 12.3872C103.32 12.2095 103.53 11.9623 103.67 11.6445C103.812 11.3245 103.883 10.951 103.883 10.5229V10.1644C103.883 9.82831 103.843 9.52972 103.762 9.26859C103.682 9.00532 103.563 8.78378 103.408 8.60292C103.252 8.41991 103.06 8.28185 102.834 8.18768C102.612 8.0935 102.355 8.04641 102.064 8.04641H100.741V7.40964H102.064C102.449 7.40964 102.8 7.47385 103.117 7.60334C103.435 7.72963 103.708 7.9137 103.936 8.15557C104.167 8.3953 104.344 8.68533 104.469 9.02673C104.592 9.36598 104.654 9.74698 104.654 10.1719V10.5229C104.654 10.9477 104.592 11.3309 104.469 11.6734C104.344 12.0115 104.166 12.3005 103.931 12.5402C103.7 12.78 103.421 12.964 103.093 13.0925C102.767 13.2187 102.401 13.2819 101.992 13.2819ZM101.181 7.40964V13.2819H100.403V7.40964H101.181ZM108.284 12.5359V10.2896C108.284 10.1173 108.25 9.96744 108.179 9.84116C108.113 9.71273 108.01 9.6132 107.873 9.54256C107.736 9.473 107.566 9.43768 107.365 9.43768C107.176 9.43768 107.011 9.47086 106.868 9.53507C106.729 9.59929 106.619 9.68383 106.537 9.78871C106.459 9.89359 106.421 10.007 106.421 10.128H105.675C105.675 9.97172 105.714 9.81761 105.796 9.66457C105.876 9.51046 105.991 9.3724 106.142 9.24826C106.295 9.12198 106.478 9.02245 106.691 8.94967C106.906 8.87476 107.145 8.8373 107.408 8.8373C107.726 8.8373 108.006 8.89081 108.247 8.9989C108.493 9.10592 108.683 9.26859 108.821 9.48692C108.96 9.70203 109.031 9.97172 109.031 10.2971V12.3305C109.031 12.476 109.043 12.6301 109.067 12.7939C109.094 12.9587 109.133 13.0999 109.184 13.2177V13.2819H108.405C108.367 13.1963 108.338 13.0818 108.316 12.9394C108.295 12.7939 108.284 12.6601 108.284 12.5359ZM108.413 10.6363L108.421 11.1607H107.667C107.454 11.1607 107.265 11.1778 107.098 11.2132C106.931 11.2453 106.792 11.2945 106.679 11.3619C106.566 11.4293 106.479 11.5139 106.421 11.6166C106.362 11.7162 106.332 11.8328 106.332 11.9677C106.332 12.1047 106.363 12.2299 106.425 12.3422C106.487 12.4557 106.579 12.5456 106.703 12.613C106.829 12.6772 106.984 12.7093 107.167 12.7093C107.396 12.7093 107.597 12.6612 107.772 12.5638C107.947 12.4675 108.085 12.3487 108.187 12.2095C108.292 12.0693 108.349 11.9334 108.357 11.8018L108.675 12.1614C108.656 12.2737 108.606 12.399 108.522 12.5359C108.439 12.6729 108.328 12.8046 108.187 12.9309C108.05 13.055 107.886 13.1588 107.695 13.2423C107.507 13.3225 107.295 13.3632 107.058 13.3632C106.762 13.3632 106.503 13.3054 106.279 13.1898C106.059 13.0743 105.887 12.9191 105.763 12.7254C105.643 12.5295 105.582 12.3101 105.582 12.0683C105.582 11.8339 105.628 11.6284 105.719 11.4508C105.811 11.271 105.942 11.1211 106.114 11.0034C106.286 10.8825 106.493 10.7904 106.735 10.7294C106.977 10.6674 107.248 10.6363 107.546 10.6363H108.413ZM111.366 12.8303L112.58 8.91756H113.379L111.628 13.9561C111.588 14.0631 111.534 14.1787 111.467 14.3029C111.402 14.4292 111.319 14.549 111.216 14.6614C111.115 14.7748 110.99 14.8658 110.846 14.9364C110.704 15.0092 110.532 15.0445 110.333 15.0445C110.274 15.0445 110.198 15.037 110.107 15.021C110.016 15.0049 109.951 14.991 109.914 14.9803L109.909 14.3756C109.931 14.3778 109.965 14.381 110.01 14.3831C110.059 14.3885 110.092 14.3917 110.112 14.3917C110.281 14.3917 110.424 14.3692 110.543 14.3232C110.662 14.2804 110.761 14.2065 110.842 14.1017C110.925 13.9989 110.996 13.8577 111.056 13.6779L111.366 12.8303ZM110.475 8.91756L111.608 12.3058L111.802 13.0925L111.265 13.3675L109.66 8.91756H110.475Z" fill="#777777"/>
</svg>
