<svg width="200" height="76" viewBox="0 0 200 76" fill="none" xmlns="http://www.w3.org/2000/svg">
<path d="M0 6.80568C0 3.04693 3.04795 0 6.8067 0H192.838C196.597 0 199.644 3.04693 199.644 6.80568V69.1944C199.644 72.9531 196.597 76 192.838 76H6.8067C3.04795 76 0 72.9531 0 69.1944V6.80568Z" fill="white"/>
<path d="M14.4763 17.6612V24.113H13.6349V17.6612H14.4763ZM16.5502 17.6612V18.3617H11.5653V17.6612H16.5502ZM16.723 21.7686V21.6668C16.723 21.3212 16.7734 21.0013 16.8732 20.706C16.974 20.4077 17.119 20.1485 17.3083 19.9304C17.4966 19.7082 17.7259 19.5375 17.9944 19.4161C18.2639 19.2926 18.5643 19.2299 18.8986 19.2299C19.235 19.2299 19.5384 19.2926 19.8069 19.4161C20.0785 19.5375 20.3089 19.7082 20.4982 19.9304C20.6905 20.1485 20.8366 20.4077 20.9364 20.706C21.0372 21.0013 21.0876 21.3212 21.0876 21.6668V21.7686C21.0876 22.1143 21.0372 22.4352 20.9364 22.7304C20.8366 23.0257 20.6905 23.2849 20.4982 23.5061C20.3089 23.7241 20.0806 23.8959 19.811 24.0204C19.5456 24.1408 19.2443 24.2014 18.9079 24.2014C18.5705 24.2014 18.2681 24.1408 17.9996 24.0204C17.7301 23.8959 17.4996 23.7241 17.3083 23.5061C17.119 23.2849 16.974 23.0257 16.8732 22.7304C16.7734 22.4352 16.723 22.1143 16.723 21.7686ZM17.5428 21.6668V21.7686C17.5428 22.0083 17.5706 22.2346 17.6272 22.4465C17.6827 22.6564 17.7671 22.8426 17.8792 23.0051C17.9944 23.1676 18.1384 23.2962 18.3092 23.3909C18.481 23.4824 18.6795 23.5287 18.9079 23.5287C19.1321 23.5287 19.3286 23.4824 19.4962 23.3909C19.668 23.2962 19.81 23.1676 19.9221 23.0051C20.0342 22.8426 20.1186 22.6564 20.1752 22.4465C20.2338 22.2346 20.2637 22.0083 20.2637 21.7686V21.6668C20.2637 21.4312 20.2338 21.208 20.1752 20.9982C20.1186 20.7852 20.0332 20.598 19.918 20.4355C19.8059 20.2699 19.6639 20.1403 19.4922 20.0456C19.3245 19.951 19.1259 19.9037 18.8986 19.9037C18.6743 19.9037 18.4758 19.951 18.3051 20.0456C18.1364 20.1403 17.9944 20.2699 17.8792 20.4355C17.7671 20.598 17.6827 20.7852 17.6272 20.9982C17.5706 21.208 17.5428 21.4312 17.5428 21.6668ZM24.1232 19.3184V19.9479H21.531V19.3184H24.1232ZM22.4085 18.1529H23.2272V22.9259C23.2272 23.0884 23.253 23.2108 23.3034 23.2931C23.3528 23.3765 23.4186 23.431 23.4978 23.4577C23.578 23.4834 23.6634 23.4968 23.7549 23.4968C23.8228 23.4968 23.8938 23.4917 23.9679 23.4793C24.044 23.4649 24.1016 23.4526 24.1407 23.4443L24.1448 24.113C24.08 24.1335 23.9946 24.1531 23.8877 24.1706C23.7848 24.1912 23.6593 24.2014 23.5111 24.2014C23.3106 24.2014 23.1254 24.1613 22.9578 24.0821C22.7891 24.0019 22.6543 23.8692 22.5545 23.683C22.4568 23.4937 22.4085 23.2407 22.4085 22.9208V18.1529ZM27.9108 23.2931V20.8254C27.9108 20.6361 27.8727 20.4725 27.7956 20.3337C27.7226 20.1917 27.6104 20.0827 27.4592 20.0055C27.309 19.9284 27.1228 19.8903 26.9006 19.8903C26.6938 19.8903 26.5128 19.9263 26.3564 19.9962C26.2021 20.0672 26.0807 20.1608 25.9923 20.276C25.9069 20.3913 25.8637 20.5147 25.8637 20.6484H25.0449C25.0449 20.4766 25.0891 20.3069 25.1776 20.1382C25.266 19.9705 25.3926 19.8183 25.5582 19.6825C25.7269 19.5436 25.9275 19.4336 26.161 19.3544C26.3976 19.271 26.6599 19.2299 26.95 19.2299C27.2987 19.2299 27.6053 19.2895 27.8717 19.4078C28.1402 19.5251 28.35 19.7041 28.5002 19.9438C28.6545 20.1793 28.7306 20.4766 28.7306 20.8346V23.0678C28.7306 23.2273 28.744 23.397 28.7708 23.577C28.8006 23.7571 28.8428 23.9124 28.8993 24.042V24.113H28.0445C28.0023 24.0183 27.9704 23.8928 27.9468 23.7365C27.9231 23.577 27.9108 23.4289 27.9108 23.2931ZM28.0528 21.206L28.062 21.782H27.2328C27.0004 21.782 26.7916 21.8016 26.6085 21.8396C26.4253 21.8756 26.2721 21.9301 26.1476 22.0042C26.0231 22.0783 25.9295 22.1708 25.8637 22.283C25.7989 22.392 25.767 22.5206 25.767 22.6687C25.767 22.8189 25.801 22.9568 25.8688 23.0802C25.9367 23.2047 26.0386 23.3034 26.1744 23.3775C26.3132 23.4485 26.483 23.4834 26.6835 23.4834C26.9345 23.4834 27.1567 23.431 27.3481 23.324C27.5404 23.218 27.6927 23.0884 27.8048 22.9341C27.92 22.7809 27.9817 22.6317 27.991 22.4866L28.3407 22.8817C28.3202 23.0051 28.2646 23.1429 28.1731 23.2931C28.0815 23.4443 27.9581 23.5884 27.8048 23.7272C27.6546 23.863 27.4736 23.9772 27.2647 24.0687C27.058 24.1572 26.8245 24.2014 26.5642 24.2014C26.2392 24.2014 25.9543 24.1387 25.7094 24.0111C25.4667 23.8846 25.2774 23.7138 25.1416 23.5019C25.0089 23.2859 24.942 23.0452 24.942 22.7798C24.942 22.5227 24.9925 22.2963 25.0933 22.1009C25.1941 21.9034 25.3381 21.7398 25.5274 21.6092C25.7166 21.4765 25.9439 21.3757 26.2093 21.3078C26.4758 21.2399 26.772 21.206 27.1002 21.206H28.0528ZM30.9114 17.3073V24.113H30.0864V17.3073H30.9114ZM39.5697 20.6834V21.0907C39.5697 21.5752 39.509 22.0093 39.3876 22.3941C39.2662 22.7778 39.0924 23.1038 38.8651 23.3734C38.6377 23.6418 38.3641 23.8476 38.0452 23.9885C37.7284 24.1305 37.3745 24.2014 36.9816 24.2014C36.601 24.2014 36.2502 24.1305 35.9313 23.9885C35.6155 23.8476 35.3408 23.6418 35.1073 23.3734C34.8769 23.1038 34.6979 22.7778 34.5714 22.3941C34.4438 22.0093 34.38 21.5752 34.38 21.0907V20.6834C34.38 20.1989 34.4428 19.7658 34.5662 19.3852C34.6938 19.0015 34.8728 18.6744 35.1032 18.4059C35.3336 18.1344 35.6062 17.9276 35.922 17.7856C36.2419 17.6437 36.5917 17.5727 36.9723 17.5727C37.3652 17.5727 37.7201 17.6437 38.0359 17.7856C38.3548 17.9276 38.6284 18.1344 38.8558 18.4059C39.0862 18.6744 39.2621 19.0015 39.3835 19.3852C39.5069 19.7658 39.5697 20.1989 39.5697 20.6834ZM38.7231 21.0907V20.6741C38.7231 20.2904 38.683 19.951 38.6038 19.6558C38.5266 19.3605 38.4125 19.1116 38.2623 18.911C38.1111 18.7104 37.9269 18.5582 37.7078 18.4543C37.4928 18.3514 37.2469 18.3 36.9723 18.3C36.7069 18.3 36.4662 18.3514 36.2502 18.4543C36.0373 18.5582 35.8542 18.7104 35.7009 18.911C35.5507 19.1116 35.4334 19.3605 35.3511 19.6558C35.2678 19.951 35.2267 20.2904 35.2267 20.6741V21.0907C35.2267 21.4786 35.2678 21.8211 35.3511 22.1194C35.4334 22.4146 35.5517 22.6646 35.705 22.8683C35.8624 23.0689 36.0465 23.2211 36.2594 23.324C36.4744 23.4279 36.7162 23.4793 36.9816 23.4793C37.2593 23.4793 37.5062 23.4279 37.7212 23.324C37.9372 23.2211 38.1192 23.0689 38.2663 22.8683C38.4176 22.6646 38.5307 22.4146 38.6079 22.1194C38.684 21.8211 38.7231 21.4786 38.7231 21.0907ZM41.5457 20.0724V24.113H40.7259V19.3184H41.5231L41.5457 20.0724ZM43.0435 19.2926L43.0384 20.0539C42.9705 20.0395 42.9057 20.0302 42.8439 20.0281C42.7843 20.022 42.7164 20.0189 42.6403 20.0189C42.451 20.0189 42.2843 20.0487 42.1393 20.1073C41.9943 20.167 41.8719 20.2493 41.7711 20.3553C41.6713 20.4622 41.591 20.5888 41.5324 20.7369C41.4758 20.8809 41.4388 21.0414 41.4213 21.2152L41.1909 21.3479C41.1909 21.0589 41.2186 20.7873 41.2752 20.5332C41.3338 20.2791 41.4243 20.0538 41.5457 19.8594C41.6661 19.6609 41.8204 19.5076 42.0066 19.3986C42.1948 19.2865 42.4201 19.2299 42.6794 19.2299C42.739 19.2299 42.8069 19.2371 42.8841 19.2525C42.9602 19.2638 43.0137 19.2772 43.0435 19.2926ZM46.7343 23.1831V17.3073H47.5583V24.113H46.8053L46.7343 23.1831ZM43.5084 21.7686V21.6761C43.5084 21.3099 43.5527 20.9776 43.6412 20.6793C43.7327 20.3779 43.8613 20.1197 44.0269 19.9037C44.1956 19.6877 44.3942 19.5231 44.6246 19.4078C44.8581 19.2895 45.1183 19.2299 45.4053 19.2299C45.7057 19.2299 45.969 19.2834 46.1933 19.3893C46.4206 19.4932 46.6129 19.6455 46.7693 19.8461C46.9287 20.0436 47.0543 20.2832 47.1458 20.5641C47.2374 20.8449 47.3011 21.1617 47.3371 21.5166V21.924C47.3042 22.2758 47.2405 22.5916 47.1458 22.8724C47.0543 23.1532 46.9287 23.3919 46.7693 23.5904C46.6129 23.7879 46.4206 23.9402 46.1933 24.0461C45.9659 24.15 45.7006 24.2014 45.3961 24.2014C45.1152 24.2014 44.8581 24.1408 44.6246 24.0204C44.3942 23.899 44.1956 23.7293 44.0269 23.5102C43.8613 23.2921 43.7327 23.0349 43.6412 22.7397C43.5527 22.4414 43.5084 22.1174 43.5084 21.7686ZM44.3324 21.6761V21.7686C44.3324 22.0083 44.3561 22.2326 44.4034 22.4424C44.4538 22.6523 44.5309 22.8374 44.6338 22.9969C44.7377 23.1563 44.8683 23.2818 45.0278 23.3734C45.1872 23.4618 45.3786 23.5061 45.5997 23.5061C45.8713 23.5061 46.0945 23.4485 46.2694 23.3333C46.4463 23.218 46.5883 23.0658 46.6942 22.8765C46.8002 22.6883 46.8835 22.4825 46.9422 22.2614V21.1926C46.9072 21.0311 46.8557 20.8737 46.7868 20.7235C46.722 20.5702 46.6366 20.4334 46.5307 20.3162C46.4268 20.1948 46.2982 20.0981 46.1449 20.0281C45.9937 19.9572 45.8157 19.9212 45.609 19.9212C45.3837 19.9212 45.1903 19.9685 45.0278 20.0631C44.8683 20.1547 44.7377 20.2822 44.6338 20.4437C44.5309 20.6042 44.4538 20.7893 44.4034 21.0023C44.3561 21.2121 44.3324 21.4364 44.3324 21.6761ZM50.8243 24.2014C50.49 24.2014 50.1876 24.1459 49.916 24.0338C49.6465 23.9186 49.4151 23.7571 49.2196 23.5503C49.0283 23.3435 48.8802 23.0987 48.7773 22.8148C48.6734 22.5309 48.622 22.2212 48.622 21.8838V21.6987C48.622 21.3078 48.6795 20.9611 48.7947 20.6567C48.91 20.3501 49.0664 20.0899 49.2639 19.8769C49.4624 19.664 49.6866 19.5035 49.9376 19.3945C50.1886 19.2844 50.4489 19.2299 50.7173 19.2299C51.0599 19.2299 51.3561 19.2895 51.6041 19.4078C51.8551 19.5251 52.0598 19.6907 52.2202 19.9037C52.3797 20.1135 52.4969 20.3614 52.5741 20.6484C52.6512 20.9313 52.6893 21.242 52.6893 21.5783V21.9466H49.1095V21.2769H51.8694V21.2152C51.8581 21.0023 51.8139 20.7955 51.7368 20.5949C51.6627 20.3943 51.5444 20.2287 51.3819 20.0981C51.2193 19.9685 50.9982 19.9037 50.7173 19.9037C50.5312 19.9037 50.3604 19.9438 50.2041 20.023C50.0467 20.1001 49.9129 20.2154 49.8008 20.3686C49.6877 20.5229 49.6012 20.7101 49.5385 20.9313C49.4768 21.1535 49.446 21.4086 49.446 21.6987V21.8838C49.446 22.1122 49.4768 22.3262 49.5385 22.5268C49.6043 22.7243 49.6969 22.8992 49.8183 23.0493C49.9418 23.2006 50.0909 23.3188 50.2658 23.4042C50.4427 23.4896 50.6433 23.5328 50.8686 23.5328C51.1577 23.5328 51.4024 23.4731 51.6041 23.3559C51.8046 23.2376 51.9806 23.0792 52.1308 22.8817L52.6276 23.2756C52.5237 23.432 52.3931 23.5812 52.2326 23.7231C52.0732 23.8651 51.8767 23.9803 51.6442 24.0687C51.4138 24.1572 51.1401 24.2014 50.8243 24.2014ZM54.4658 20.0724V24.113H53.647V19.3184H54.4442L54.4658 20.0724ZM55.9636 19.2926L55.9594 20.0539C55.8916 20.0395 55.8267 20.0302 55.765 20.0281C55.7053 20.022 55.6375 20.0189 55.5603 20.0189C55.3721 20.0189 55.2044 20.0487 55.0604 20.1073C54.9153 20.167 54.7929 20.2493 54.6921 20.3553C54.5913 20.4622 54.5121 20.5888 54.4524 20.7369C54.3969 20.8809 54.3598 21.0414 54.3424 21.2152L54.1119 21.3479C54.1119 21.0589 54.1397 20.7873 54.1963 20.5332C54.255 20.2791 54.3454 20.0538 54.4658 19.8594C54.5872 19.6609 54.7405 19.5076 54.9267 19.3986C55.116 19.2865 55.3402 19.2299 55.6004 19.2299C55.6601 19.2299 55.728 19.2371 55.8041 19.2525C55.8813 19.2638 55.9348 19.2772 55.9636 19.2926Z" fill="#4B4B4B"/>
<path d="M14.6318 38.8106L12.593 38.3241L13.3285 31.7838H20.5785V33.8484H15.429L15.1102 36.7111C15.2819 36.6103 15.5412 36.5044 15.8899 36.3912C16.2386 36.274 16.6285 36.2143 17.0595 36.2143C17.686 36.2143 18.2414 36.312 18.7259 36.5064C19.2104 36.7019 19.6208 36.9858 19.9572 37.3571C20.3008 37.7295 20.56 38.1852 20.738 38.7222C20.9149 39.2602 21.0034 39.8681 21.0034 40.5481C21.0034 41.121 20.9149 41.6673 20.738 42.1878C20.56 42.7011 20.2916 43.1619 19.9315 43.5703C19.5705 43.9715 19.1189 44.2873 18.5758 44.5177C18.0316 44.7481 17.3876 44.8633 16.6429 44.8633C16.0884 44.8633 15.5504 44.781 15.0309 44.6154C14.5166 44.4498 14.0527 44.205 13.6392 43.8799C13.2318 43.5549 12.9037 43.1619 12.6558 42.7011C12.413 42.2351 12.2864 41.7033 12.2741 41.1066H14.8088C14.8448 41.4728 14.9383 41.7886 15.0926 42.054C15.2521 42.3143 15.462 42.5149 15.7212 42.6568C15.9814 42.7988 16.2859 42.8698 16.6346 42.8698C16.9597 42.8698 17.2374 42.808 17.4679 42.6836C17.6983 42.5601 17.8845 42.3883 18.0254 42.1692C18.1673 41.945 18.2712 41.6847 18.336 41.3895C18.407 41.0881 18.442 40.7641 18.442 40.4154C18.442 40.0666 18.4009 39.7508 18.3186 39.4669C18.2353 39.183 18.1087 38.9382 17.9369 38.7314C17.7662 38.5247 17.5471 38.3652 17.2817 38.2531C17.0214 38.14 16.717 38.0844 16.3682 38.0844C15.8961 38.0844 15.5299 38.1585 15.2696 38.3056C15.0155 38.4537 14.8026 38.6224 14.6318 38.8106ZM25.1777 42.5334L25.1685 44.243C25.1685 44.8993 25.0029 45.5608 24.6727 46.2284C24.3476 46.896 23.9341 47.4422 23.4321 47.8681L22.102 47.1861C22.2501 46.9135 22.3952 46.6419 22.5361 46.3703C22.6781 46.0988 22.7964 45.8004 22.891 45.4754C22.9857 45.1503 23.033 44.781 23.033 44.3675V42.5334H25.1777ZM33.3392 31.7571V44.6864H30.787V34.6991L27.7206 35.6742V33.6622L33.0645 31.7571H33.3392ZM44.1247 31.6501H44.4971V33.6889H44.3459C43.6722 33.6889 43.0724 33.7887 42.5468 33.9903C42.0211 34.1909 41.5747 34.4779 41.2085 34.8492C40.8484 35.2165 40.5707 35.6588 40.3763 36.1793C40.187 36.6988 40.0924 37.281 40.0924 37.925V40.0697C40.0924 40.5306 40.1366 40.9379 40.2251 41.2928C40.3197 41.6405 40.4524 41.9337 40.6242 42.1692C40.8011 42.3997 41.0079 42.5745 41.2445 42.6928C41.4811 42.805 41.7465 42.8605 42.0417 42.8605C42.3195 42.8605 42.5705 42.8019 42.7947 42.6836C43.0251 42.5653 43.2205 42.3997 43.38 42.1878C43.5456 41.9687 43.669 41.7146 43.7524 41.4255C43.8408 41.1303 43.8851 40.8083 43.8851 40.4596C43.8851 40.1109 43.8408 39.7889 43.7524 39.4937C43.669 39.1985 43.5456 38.9444 43.38 38.7314C43.2144 38.5123 43.0138 38.3447 42.7772 38.2264C42.5406 38.1081 42.2752 38.0484 41.98 38.0484C41.5777 38.0484 41.2239 38.143 40.9163 38.3323C40.6149 38.5154 40.3784 38.752 40.2076 39.0411C40.0358 39.3311 39.9442 39.6356 39.9329 39.9545L39.1614 39.4577C39.1789 39.003 39.2735 38.572 39.4453 38.1636C39.6223 37.7563 39.865 37.3962 40.1716 37.0825C40.4853 36.7636 40.8598 36.5157 41.297 36.3388C41.7342 36.1557 42.2279 36.0641 42.7772 36.0641C43.38 36.0641 43.9087 36.1793 44.3634 36.4097C44.8242 36.6402 45.209 36.956 45.5155 37.3571C45.8231 37.7594 46.0535 38.2233 46.2068 38.7489C46.3611 39.2746 46.4372 39.8362 46.4372 40.4328C46.4372 41.0593 46.3343 41.6405 46.1276 42.1785C45.926 42.7165 45.6338 43.1856 45.2501 43.5878C44.8716 43.989 44.4169 44.3027 43.8851 44.527C43.3533 44.7512 42.7566 44.8633 42.0952 44.8633C41.4101 44.8633 40.7867 44.7399 40.2251 44.492C39.6696 44.2379 39.1912 43.883 38.789 43.4283C38.3879 42.9737 38.0772 42.4326 37.8591 41.8061C37.6462 41.1797 37.5402 40.4946 37.5402 39.7508V38.7582C37.5402 37.7182 37.6905 36.7667 37.9919 35.9047C38.2994 35.0354 38.7397 34.2855 39.3127 33.6529C39.8856 33.0151 40.5769 32.5224 41.3864 32.1737C42.195 31.825 43.1084 31.6501 44.1247 31.6501ZM54.1831 31.7571V44.6864H51.6309V34.6991L48.5645 35.6742V33.6622L53.9084 31.7571H54.1831Z" fill="#4B4B4B"/>
<path d="M15.8302 52.4528L13.6473 57.4933H18.1148L15.8302 52.4528Z" fill="#0C9D61"/>
<path d="M25.8019 56.158V57.0304H21.9403V56.2856L23.7662 54.328C23.9503 54.1244 24.0943 53.9444 24.2002 53.789C24.3062 53.6316 24.3834 53.4907 24.4297 53.3662C24.479 53.2397 24.5027 53.1194 24.5027 53.0062C24.5027 52.8354 24.4749 52.6894 24.4184 52.568C24.3608 52.4435 24.2774 52.3479 24.1663 52.281C24.0573 52.2141 23.9225 52.1802 23.7631 52.1802C23.5923 52.1802 23.4442 52.2213 23.3208 52.3046C23.1994 52.3869 23.1058 52.5022 23.042 52.6493C22.9792 52.7964 22.9484 52.963 22.9484 53.1492H21.8282C21.8282 52.8139 21.9084 52.5063 22.0678 52.2265C22.2283 51.9446 22.4546 51.7214 22.7468 51.5558C23.0389 51.3881 23.3856 51.3038 23.7857 51.3038C24.1818 51.3038 24.515 51.3686 24.7866 51.4982C25.0602 51.6247 25.267 51.8078 25.4069 52.0485C25.5489 52.2861 25.6198 52.57 25.6198 52.9013C25.6198 53.0875 25.59 53.2695 25.5303 53.4475C25.4707 53.6234 25.3863 53.7993 25.2742 53.9752C25.1662 54.148 25.0345 54.3239 24.8792 54.5029C24.7239 54.6809 24.552 54.866 24.3638 55.0574L23.3825 56.158H25.8019ZM29.2212 51.3737V57.0304H28.1051V52.6606L26.7637 53.0875V52.2069L29.1019 51.3737H29.2212ZM31.044 52.7696V52.4713C31.044 52.2563 31.0903 52.0609 31.1839 51.886C31.2765 51.7101 31.4133 51.5692 31.5944 51.4632C31.7754 51.3573 31.9975 51.3038 32.2609 51.3038C32.5325 51.3038 32.7588 51.3573 32.9398 51.4632C33.1229 51.5692 33.2608 51.7101 33.3503 51.886C33.4439 52.0609 33.4901 52.2563 33.4901 52.4713V52.7696C33.4901 52.9784 33.4439 53.1718 33.3503 53.3467C33.2608 53.5226 33.125 53.6635 32.9439 53.7695C32.7629 53.8754 32.5386 53.9289 32.2733 53.9289C32.0037 53.9289 31.7775 53.8754 31.5944 53.7695C31.4133 53.6635 31.2765 53.5226 31.1839 53.3467C31.0903 53.1718 31.044 52.9784 31.044 52.7696ZM31.7847 52.4713V52.7696C31.7847 52.8601 31.8011 52.9465 31.835 53.0288C31.871 53.1091 31.9256 53.1749 31.9976 53.2274C32.0727 53.2757 32.1632 53.3004 32.2692 53.3004C32.3803 53.3004 32.4708 53.2757 32.5407 53.2274C32.6107 53.1749 32.6621 53.1091 32.696 53.0288C32.729 52.9465 32.7465 52.8601 32.7465 52.7696V52.4713C32.7465 52.3756 32.7279 52.2872 32.6919 52.2069C32.658 52.1246 32.6055 52.0588 32.5325 52.0094C32.4625 51.958 32.372 51.9323 32.2609 51.9323C32.158 51.9323 32.0696 51.958 31.9976 52.0094C31.9256 52.0588 31.871 52.1246 31.835 52.2069C31.8011 52.2872 31.7847 52.3756 31.7847 52.4713ZM33.7422 55.9451V55.6468C33.7422 55.4349 33.7885 55.2405 33.8821 55.0646C33.9778 54.8887 34.1156 54.7477 34.2966 54.6418C34.4808 54.5358 34.705 54.4834 34.9714 54.4834C35.2399 54.4834 35.4652 54.5358 35.6462 54.6418C35.8273 54.7477 35.9641 54.8887 36.0567 55.0646C36.1503 55.2405 36.1966 55.4349 36.1966 55.6468V55.9451C36.1966 56.157 36.1503 56.3504 36.0567 56.5263C35.9661 56.7022 35.8304 56.8431 35.6504 56.9491C35.4693 57.055 35.2451 57.1075 34.9787 57.1075C34.7102 57.1075 34.4839 57.055 34.3008 56.9491C34.1177 56.8431 33.9778 56.7022 33.8821 56.5263C33.7885 56.3504 33.7422 56.157 33.7422 55.9451ZM34.4869 55.6468V55.9451C34.4869 56.0377 34.5075 56.1262 34.5486 56.2085C34.5898 56.2907 34.6474 56.3576 34.7194 56.4059C34.7945 56.4553 34.8809 56.48 34.9787 56.48C35.1031 56.48 35.1998 56.4553 35.2698 56.4059C35.3397 56.3576 35.388 56.2907 35.4138 56.2085C35.4415 56.1262 35.4559 56.0377 35.4559 55.9451V55.6468C35.4559 55.5532 35.4385 55.4668 35.4014 55.3865C35.3654 55.3042 35.3109 55.2384 35.2389 55.189C35.1689 55.1376 35.0794 55.1109 34.9714 55.1109C34.8624 55.1109 34.7719 55.1376 34.6999 55.189C34.6299 55.2384 34.5775 55.3042 34.5415 55.3865C34.5044 55.4668 34.4869 55.5532 34.4869 55.6468ZM35.2471 52.1915L32.4903 56.6045L31.9471 56.3175L34.704 51.9045L35.2471 52.1915Z" fill="#0B9D61"/>
<path d="M41.0736 57.412L42.2217 53.8641H42.954L41.446 58.059H40.9656L41.0736 57.412ZM40.116 53.8641L41.2989 57.4315L41.3802 58.059H40.8988L39.3794 53.8641H40.116ZM46.0874 56.946C46.0874 56.8431 46.0637 56.7475 46.0174 56.659C45.9732 56.5695 45.8816 56.4872 45.7417 56.4152C45.6049 56.3401 45.3981 56.2753 45.1214 56.2218C44.889 56.1725 44.6781 56.1138 44.4898 56.0469C44.3036 55.9801 44.1442 55.8978 44.0125 55.8032C43.8829 55.7075 43.7842 55.5943 43.7142 55.4658C43.6443 55.3361 43.6093 55.1849 43.6093 55.0121C43.6093 54.8465 43.6453 54.6901 43.7183 54.543C43.7924 54.3949 43.8974 54.2643 44.0321 54.1511C44.1689 54.0369 44.3335 53.9485 44.5249 53.8837C44.7162 53.8189 44.9291 53.787 45.1636 53.787C45.5 53.787 45.787 53.8456 46.0246 53.9649C46.2622 54.0843 46.4454 54.2427 46.5719 54.4422C46.6984 54.6387 46.7611 54.8568 46.7611 55.0975H46.0442C46.0442 54.9802 46.0092 54.8681 45.9393 54.7601C45.8724 54.649 45.7726 54.5564 45.6409 54.4844C45.5113 54.4124 45.3529 54.3754 45.1636 54.3754C44.9651 54.3754 44.8036 54.4073 44.6791 54.469C44.5577 54.5286 44.4693 54.6048 44.4117 54.6973C44.3582 54.7909 44.3304 54.8887 44.3304 54.9926C44.3304 55.0697 44.3438 55.1397 44.3695 55.2014C44.3973 55.2611 44.4466 55.3166 44.5166 55.368C44.5865 55.4174 44.6842 55.4637 44.8108 55.5079C44.9383 55.5522 45.0999 55.5954 45.2964 55.6396C45.6399 55.7178 45.9228 55.8104 46.145 55.9194C46.3671 56.0274 46.5328 56.1611 46.6408 56.3185C46.7498 56.4759 46.8043 56.6672 46.8043 56.8925C46.8043 57.0756 46.7653 57.2433 46.6881 57.3966C46.613 57.5488 46.503 57.6805 46.3579 57.7916C46.216 57.9006 46.0452 57.985 45.8467 58.0477C45.6502 58.1074 45.429 58.1362 45.1832 58.1362C44.8139 58.1362 44.5012 58.0703 44.245 57.9387C43.9889 57.807 43.7955 57.6362 43.6638 57.4274C43.5322 57.2176 43.4663 56.9964 43.4663 56.7639H44.1874C44.1977 56.9604 44.2543 57.1168 44.3582 57.233C44.461 57.3472 44.5876 57.4285 44.7378 57.4778C44.8879 57.5241 45.0361 57.5478 45.1832 57.5478C45.3796 57.5478 45.5442 57.521 45.6759 57.4696C45.8106 57.4182 45.9125 57.3472 45.9825 57.2567C46.0524 57.1661 46.0874 57.0622 46.0874 56.946ZM53.2479 57.4501V58.059H50.4253V57.4501H53.2479ZM50.5724 52.4137V58.059H49.8245V52.4137H50.5724ZM56.4697 57.342V55.1818C56.4697 55.0173 56.4358 54.8732 56.3689 54.7519C56.3041 54.6274 56.2064 54.5328 56.0747 54.4649C55.943 54.398 55.7795 54.3641 55.5861 54.3641C55.4051 54.3641 55.2456 54.3949 55.1088 54.4577C54.974 54.5194 54.8681 54.6006 54.7909 54.7014C54.7158 54.8023 54.6788 54.9113 54.6788 55.0275H53.9618C53.9618 54.8774 53.9999 54.7282 54.0781 54.5811C54.1552 54.434 54.2663 54.3013 54.4113 54.182C54.5584 54.0606 54.7344 53.9649 54.938 53.895C55.1448 53.823 55.3752 53.787 55.6282 53.787C55.9337 53.787 56.2022 53.8384 56.4347 53.9413C56.6703 54.0452 56.8534 54.2015 56.9851 54.4103C57.1198 54.6171 57.1867 54.8774 57.1867 55.1901V57.1445C57.1867 57.2834 57.199 57.4326 57.2217 57.5899C57.2474 57.7473 57.2854 57.8831 57.3348 57.9973V58.059H56.586C56.55 57.9767 56.5211 57.8667 56.5006 57.7298C56.48 57.5899 56.4697 57.4603 56.4697 57.342ZM56.5942 55.5162L56.6014 56.0202H55.8762C55.6725 56.0202 55.4904 56.0367 55.3299 56.0706C55.1695 56.1015 55.0358 56.1488 54.9267 56.2136C54.8177 56.2784 54.7354 56.3597 54.6788 56.4574C54.6222 56.5531 54.5934 56.6662 54.5934 56.7948C54.5934 56.9275 54.6233 57.0468 54.6829 57.1559C54.7416 57.2639 54.831 57.3513 54.9503 57.4151C55.0717 57.4778 55.2199 57.5087 55.3958 57.5087C55.6159 57.5087 55.8093 57.4624 55.977 57.3688C56.1457 57.2762 56.2784 57.162 56.3771 57.0283C56.4779 56.8935 56.5315 56.7629 56.5397 56.6364L56.8462 56.981C56.8277 57.09 56.7783 57.2104 56.6981 57.342C56.6189 57.4737 56.5109 57.6002 56.3771 57.7216C56.2444 57.8409 56.087 57.9407 55.9039 58.0199C55.7229 58.0981 55.5182 58.1362 55.2908 58.1362C55.0069 58.1362 54.757 58.0806 54.543 57.9695C54.3311 57.8584 54.1655 57.7103 54.0462 57.5241C53.9299 57.3359 53.8723 57.125 53.8723 56.8925C53.8723 56.6672 53.9166 56.4697 54.004 56.299C54.0914 56.1262 54.219 55.9822 54.3836 55.869C54.5492 55.7528 54.7488 55.6643 54.9812 55.6046C55.2137 55.545 55.473 55.5162 55.76 55.5162H56.5942ZM60.7582 56.946C60.7582 56.8431 60.7345 56.7475 60.6883 56.659C60.644 56.5695 60.5525 56.4872 60.4126 56.4152C60.2758 56.3401 60.069 56.2753 59.7923 56.2218C59.5598 56.1725 59.3489 56.1138 59.1607 56.0469C58.9745 55.9801 58.8151 55.8978 58.6834 55.8032C58.5548 55.7075 58.4551 55.5943 58.3851 55.4658C58.3152 55.3361 58.2801 55.1849 58.2801 55.0121C58.2801 54.8465 58.3162 54.6901 58.3892 54.543C58.4643 54.3949 58.5682 54.2643 58.7029 54.1511C58.8397 54.0369 59.0043 53.9485 59.1957 53.8837C59.387 53.8189 59.5999 53.787 59.8355 53.787C60.1709 53.787 60.4579 53.8456 60.6955 53.9649C60.9341 54.0843 61.1162 54.2427 61.2427 54.4422C61.3692 54.6387 61.433 54.8568 61.433 55.0975H60.715C60.715 54.9802 60.68 54.8681 60.6101 54.7601C60.5432 54.649 60.4435 54.5564 60.3118 54.4844C60.1832 54.4124 60.0238 54.3754 59.8355 54.3754C59.636 54.3754 59.4744 54.4073 59.351 54.469C59.2286 54.5286 59.1401 54.6048 59.0825 54.6973C59.029 54.7909 59.0013 54.8887 59.0013 54.9926C59.0013 55.0697 59.0146 55.1397 59.0403 55.2014C59.0691 55.2611 59.1175 55.3166 59.1874 55.368C59.2574 55.4174 59.3561 55.4637 59.4827 55.5079C59.6092 55.5522 59.7707 55.5954 59.9672 55.6396C60.3107 55.7178 60.5936 55.8104 60.8158 55.9194C61.038 56.0274 61.2036 56.1611 61.3127 56.3185C61.4207 56.4759 61.4752 56.6672 61.4752 56.8925C61.4752 57.0756 61.4361 57.2433 61.359 57.3966C61.2839 57.5488 61.1738 57.6805 61.0298 57.7916C60.8868 57.9006 60.7161 57.985 60.5175 58.0477C60.3211 58.1074 60.0999 58.1362 59.855 58.1362C59.4847 58.1362 59.172 58.0703 58.9159 57.9387C58.6608 57.807 58.4664 57.6362 58.3347 57.4274C58.203 57.2176 58.1372 56.9964 58.1372 56.7639H58.8583C58.8686 56.9604 58.9251 57.1168 59.029 57.233C59.1319 57.3472 59.2585 57.4285 59.4086 57.4778C59.5588 57.5241 59.7069 57.5478 59.855 57.5478C60.0505 57.5478 60.2151 57.521 60.3468 57.4696C60.4815 57.4182 60.5833 57.3472 60.6533 57.2567C60.7232 57.1661 60.7582 57.0622 60.7582 56.946ZM64.1734 53.8641V54.4145H61.9052V53.8641H64.1734ZM62.6736 52.8447H63.3906V57.0201C63.3906 57.162 63.4122 57.269 63.4564 57.342C63.5007 57.414 63.5572 57.4624 63.6272 57.485C63.6971 57.5087 63.7722 57.52 63.8514 57.52C63.9111 57.52 63.9739 57.5149 64.0376 57.5046C64.1055 57.4922 64.1559 57.4819 64.1888 57.4737L64.193 58.059C64.1364 58.0775 64.0612 58.094 63.9676 58.1094C63.8781 58.1279 63.7681 58.1362 63.6385 58.1362C63.4626 58.1362 63.3011 58.1022 63.154 58.0323C63.0069 57.9623 62.8886 57.8461 62.8012 57.6836C62.7158 57.5179 62.6736 57.2957 62.6736 57.016V52.8447ZM67.3293 52.4137H68.0546L69.9041 57.016L71.7495 52.4137H72.4789L70.1829 58.059H69.6171L67.3293 52.4137ZM67.0928 52.4137H67.7326L67.8375 55.8566V58.059H67.0928V52.4137ZM72.0715 52.4137H72.7113V58.059H71.9666V55.8566L72.0715 52.4137ZM73.7266 56.0079V55.9194C73.7266 55.617 73.7709 55.3362 73.8583 55.078C73.9468 54.8167 74.0733 54.5904 74.2389 54.399C74.4045 54.2056 74.6041 54.0555 74.8397 53.9495C75.0752 53.8405 75.3385 53.787 75.6307 53.787C75.9249 53.787 76.1903 53.8405 76.4259 53.9495C76.6635 54.0555 76.8651 54.2056 77.0307 54.399C77.1984 54.5904 77.3259 54.8167 77.4144 55.078C77.5018 55.3362 77.5461 55.617 77.5461 55.9194V56.0079C77.5461 56.3103 77.5018 56.5911 77.4144 56.8493C77.3259 57.1075 77.1984 57.3338 77.0307 57.5282C76.8651 57.7196 76.6645 57.8687 76.4289 57.9778C76.1965 58.0837 75.9331 58.1362 75.6379 58.1362C75.3437 58.1362 75.0783 58.0837 74.8438 57.9778C74.6082 57.8687 74.4066 57.7196 74.2389 57.5282C74.0733 57.3338 73.9468 57.1075 73.8583 56.8493C73.7709 56.5911 73.7266 56.3103 73.7266 56.0079ZM74.4447 55.9194V56.0079C74.4447 56.2177 74.4683 56.4152 74.5177 56.6014C74.5671 56.7845 74.6411 56.9481 74.7388 57.09C74.8396 57.232 74.9652 57.3441 75.1153 57.4274C75.2645 57.5077 75.4394 57.5478 75.6379 57.5478C75.8344 57.5478 76.0062 57.5077 76.1543 57.4274C76.3035 57.3441 76.4279 57.232 76.5267 57.09C76.6244 56.9481 76.6985 56.7845 76.7468 56.6014C76.7993 56.4152 76.825 56.2177 76.825 56.0079V55.9194C76.825 55.7126 76.7993 55.5172 76.7468 55.3331C76.6985 55.1479 76.6234 54.9833 76.5225 54.8414C76.4238 54.6963 76.3004 54.5832 76.1502 54.4998C76.0031 54.4175 75.8292 54.3754 75.6307 54.3754C75.4342 54.3754 75.2614 54.4175 75.1112 54.4998C74.9641 54.5832 74.8396 54.6963 74.7388 54.8414C74.6411 54.9833 74.5671 55.1479 74.5177 55.3331C74.4683 55.5172 74.4447 55.7126 74.4447 55.9194ZM79.1631 54.7601V58.059H78.4451V53.8641H79.124L79.1631 54.7601ZM78.9924 55.8032L78.693 55.7908C78.6961 55.5038 78.7383 55.2394 78.8216 54.9967C78.9039 54.7508 79.0202 54.5379 79.1704 54.3569C79.3206 54.1758 79.4985 54.0359 79.7052 53.9382C79.9151 53.8374 80.1466 53.787 80.3996 53.787C80.6064 53.787 80.7926 53.8147 80.9582 53.8723C81.1228 53.9258 81.2637 54.0143 81.3799 54.1357C81.4992 54.2571 81.5898 54.4145 81.6515 54.6089C81.7143 54.8002 81.7451 55.0337 81.7451 55.3104V58.059H81.024V55.3022C81.024 55.0831 80.9911 54.9072 80.9263 54.7755C80.8625 54.6408 80.7679 54.5441 80.6434 54.4844C80.52 54.4227 80.3667 54.3918 80.1867 54.3918C80.0077 54.3918 79.8452 54.4289 79.6981 54.5039C79.553 54.579 79.4275 54.6819 79.3216 54.8136C79.2187 54.9463 79.1364 55.0975 79.0778 55.2672C79.0202 55.4359 78.9924 55.6139 78.9924 55.8032ZM84.5904 53.8641V54.4145H82.3222V53.8641H84.5904ZM83.0906 52.8447H83.8076V57.0201C83.8076 57.162 83.8292 57.269 83.8734 57.342C83.9176 57.414 83.9742 57.4624 84.0442 57.485C84.1141 57.5087 84.1882 57.52 84.2684 57.52C84.3281 57.52 84.3898 57.5149 84.4546 57.5046C84.5225 57.4922 84.5729 57.4819 84.6058 57.4737L84.6099 58.059C84.5534 58.0775 84.4783 58.094 84.3847 58.1094C84.2952 58.1279 84.1851 58.1362 84.0555 58.1362C83.8796 58.1362 83.7181 58.1022 83.571 58.0323C83.4239 57.9623 83.3056 57.8461 83.2182 57.6836C83.1328 57.5179 83.0906 57.2957 83.0906 57.016V52.8447ZM86.1488 52.1041V58.059H85.4318V52.1041H86.1488ZM85.9791 55.8032L85.6798 55.7908C85.6829 55.5038 85.725 55.2394 85.8084 54.9967C85.8907 54.7508 86.0069 54.5379 86.1571 54.3569C86.3073 54.1758 86.4852 54.0359 86.6919 53.9382C86.9018 53.8374 87.1323 53.787 87.3863 53.787C87.5931 53.787 87.7793 53.8147 87.9439 53.8723C88.1095 53.9258 88.2504 54.0143 88.3667 54.1357C88.486 54.2571 88.5765 54.4145 88.6382 54.6089C88.6999 54.8002 88.7318 55.0337 88.7318 55.3104V58.059H88.0107V55.3022C88.0107 55.0831 87.9778 54.9072 87.913 54.7755C87.8482 54.6408 87.7546 54.5441 87.6301 54.4844C87.5067 54.4227 87.3534 54.3918 87.1724 54.3918C86.9944 54.3918 86.8319 54.4289 86.6848 54.5039C86.5397 54.579 86.4142 54.6819 86.3083 54.8136C86.2044 54.9463 86.1231 55.0975 86.0635 55.2672C86.0069 55.4359 85.9791 55.6139 85.9791 55.8032Z" fill="#4B4B4B"/>
<path d="M188.3 38.0006C188.3 27.977 180.174 19.8512 170.15 19.8512C160.127 19.8512 152.001 27.977 152.001 38.0006C152.001 48.0242 160.127 56.15 170.15 56.15C180.174 56.15 188.3 48.0242 188.3 38.0006Z" fill="#EBF2FF"/>
<path d="M174.186 48.3442H162.997C162.805 48.3422 162.621 48.2712 162.477 48.1447C163.64 47.7353 164.464 46.6943 164.595 45.4671C164.607 45.3611 164.607 45.2541 164.595 45.1482V31.5626C164.594 31.2498 164.775 30.9659 165.058 30.8353C165.342 30.7046 165.676 30.7509 165.914 30.9546L168.191 32.905L170.469 30.9546C170.768 30.6995 171.209 30.6995 171.508 30.9546L173.786 32.905L176.064 30.9546C176.208 30.8312 176.393 30.7633 176.583 30.7633C176.698 30.7643 176.814 30.789 176.919 30.8353C177.202 30.9659 177.383 31.2498 177.382 31.5626V45.1482C177.382 46.9133 175.952 48.3442 174.186 48.3442ZM173.387 37.1564H168.591C168.15 37.1564 167.792 37.5134 167.792 37.9547C167.792 38.396 168.15 38.754 168.591 38.754H173.387C173.828 38.754 174.186 38.396 174.186 37.9547C174.186 37.5134 173.828 37.1564 173.387 37.1564ZM173.387 40.3525H168.591C168.15 40.3525 167.792 40.7105 167.792 41.1518C167.792 41.5931 168.15 41.9511 168.591 41.9511H173.387C173.828 41.9511 174.186 41.5931 174.186 41.1518C174.186 40.7105 173.828 40.3525 173.387 40.3525ZM173.387 43.5496H168.591C168.15 43.5496 167.792 43.9076 167.792 44.3489C167.792 44.7902 168.15 45.1471 168.591 45.1471H173.387C173.828 45.1471 174.186 44.7902 174.186 44.3489C174.186 43.9076 173.828 43.5496 173.387 43.5496ZM162.997 45.1482V38.755H160.599C160.157 38.755 159.8 39.1119 159.8 39.5532V45.4671C159.889 46.3497 160.676 46.9946 161.558 46.9062C162.441 46.8177 163.085 46.0308 162.997 45.1482Z" fill="url(#paint0_linear_102_3110)"/>
<path d="M176.674 36.9404C179.221 36.9404 181.285 34.8409 181.285 32.2507C181.285 29.6595 179.221 27.56 176.674 27.56C174.126 27.56 172.061 29.6595 172.061 32.2507C172.061 34.8409 174.126 36.9404 176.674 36.9404Z" fill="url(#paint1_linear_102_3110)"/>
<path fill-rule="evenodd" clip-rule="evenodd" d="M176.674 27.56C179.221 27.56 181.285 29.6595 181.285 32.2507C181.285 34.8409 179.221 36.9404 176.674 36.9404C176.567 36.9404 176.462 36.9363 176.357 36.9291C178.756 36.7645 180.653 34.7329 180.653 32.2507C180.653 29.7675 178.756 27.737 176.357 27.5713C176.462 27.5641 176.567 27.56 176.674 27.56Z" fill="url(#paint2_linear_102_3110)"/>
<path fill-rule="evenodd" clip-rule="evenodd" d="M176.092 32.6479L178.247 30.4352C178.502 30.1729 178.917 30.1719 179.174 30.4321C179.432 30.6914 179.432 31.1131 179.178 31.3754C178.304 32.2724 177.436 33.1746 176.558 34.0675C176.301 34.3287 175.885 34.3287 175.629 34.0675L174.172 32.5862C173.915 32.3259 173.915 31.9021 174.172 31.6408C174.428 31.3795 174.845 31.3795 175.101 31.6408L176.092 32.6479Z" fill="white"/>
<path fill-rule="evenodd" clip-rule="evenodd" d="M178.501 30.2727C178.729 30.1945 178.991 30.247 179.174 30.4321C179.431 30.6914 179.431 31.1131 179.177 31.3754C178.304 32.2724 177.436 33.1756 176.557 34.0685C176.375 34.2536 176.111 34.3071 175.882 34.229C175.975 34.1971 176.062 34.1436 176.136 34.0685C177.013 33.1756 177.881 32.2724 178.756 31.3754C179.011 31.1141 179.01 30.6914 178.753 30.4321C178.679 30.3581 178.592 30.3046 178.501 30.2727ZM174.425 31.4804C174.519 31.5122 174.605 31.5657 174.679 31.6408L175.882 32.8639L176.091 32.6479L175.102 31.6408C174.919 31.4557 174.654 31.4011 174.425 31.4804Z" fill="#ECEFF1"/>
<path d="M184.296 12.2113L186.031 13.9425L187.767 12.2113L188.301 12.7441L186.031 15.0134L183.763 12.7441L184.296 12.2113Z" fill="black"/>
<defs>
<linearGradient id="paint0_linear_102_3110" x1="168.591" y1="48.3442" x2="168.591" y2="30.7622" gradientUnits="userSpaceOnUse">
<stop stop-color="#316DE3"/>
<stop offset="1" stop-color="#1351CB"/>
</linearGradient>
<linearGradient id="paint1_linear_102_3110" x1="176.674" y1="27.56" x2="176.674" y2="36.9404" gradientUnits="userSpaceOnUse">
<stop stop-color="#FFAD0D"/>
<stop offset="1" stop-color="#EA9F0C"/>
</linearGradient>
<linearGradient id="paint2_linear_102_3110" x1="178.821" y1="27.56" x2="178.821" y2="36.9404" gradientUnits="userSpaceOnUse">
<stop stop-color="#FFAD0D"/>
<stop offset="1" stop-color="#EA9F0C"/>
</linearGradient>
</defs>
</svg>
