<svg width="497" height="342" viewBox="0 0 497 342" fill="none" xmlns="http://www.w3.org/2000/svg">
<path d="M17.1575 0.705962H479.841C488.927 0.705962 496.294 8.0716 496.294 17.1576V324.529C496.294 333.614 488.927 340.982 479.841 340.982H17.1575C8.07155 340.982 0.705916 333.614 0.705916 324.529V17.1576C0.705916 8.0716 8.07155 0.705962 17.1575 0.705962Z" fill="white"/>
<path d="M17.1575 0.705962H479.841C488.927 0.705962 496.294 8.0716 496.294 17.1576V324.529C496.294 333.614 488.927 340.982 479.841 340.982H17.1575C8.07155 340.982 0.705916 333.614 0.705916 324.529V17.1576C0.705916 8.0716 8.07155 0.705962 17.1575 0.705962Z" stroke="#EEEEEE" stroke-width="1.41025"/>
<path d="M38.663 47.2269C38.663 46.8505 38.6041 46.5201 38.4866 46.2333C38.3762 45.9388 38.1777 45.6751 37.8909 45.4395C37.6115 45.2039 37.2218 44.9811 36.7217 44.766C36.229 44.5534 35.6039 44.3358 34.8464 44.1155C34.0523 43.88 33.3353 43.6188 32.6953 43.3319C32.0556 43.0375 31.5079 42.7045 31.0518 42.3281C30.596 41.9542 30.2467 41.524 30.0039 41.0375C29.7612 40.5535 29.64 39.9978 29.64 39.3729C29.64 38.7481 29.7686 38.1694 30.0259 37.6418C30.2833 37.1118 30.651 36.6518 31.1291 36.2621C31.6144 35.8649 32.1916 35.5561 32.8607 35.3356C33.5301 35.1148 34.2764 35.0045 35.1002 35.0045C36.3061 35.0045 37.3283 35.2362 38.1667 35.6995C39.0123 36.1556 39.6558 36.7548 40.0971 37.4984C40.5383 38.2334 40.7588 39.0195 40.7588 39.8569H38.641C38.641 39.2551 38.5122 38.7225 38.2548 38.259C37.9975 37.7878 37.6077 37.419 37.0856 37.1553C36.5634 36.8836 35.9017 36.7473 35.1002 36.7473C34.3427 36.7473 33.7176 36.8613 33.2249 37.0887C32.7322 37.3166 32.3645 37.6265 32.1217 38.0157C31.8866 38.4049 31.7688 38.8505 31.7688 39.3499C31.7688 39.6879 31.8387 39.9978 31.9783 40.2769C32.1255 40.5483 32.3499 40.8019 32.6513 41.0375C32.9601 41.273 33.3499 41.4907 33.8205 41.6879C34.2986 41.8877 34.8684 42.0797 35.5304 42.2615C36.4423 42.5202 37.229 42.807 37.8909 43.122C38.5526 43.4395 39.0968 43.7954 39.5234 44.1924C39.9572 44.5842 40.2771 45.0272 40.483 45.5291C40.6963 46.0208 40.8031 46.579 40.8031 47.2039C40.8031 47.8594 40.6707 48.451 40.4059 48.9811C40.1411 49.5112 39.7624 49.9619 39.2697 50.3383C38.777 50.7122 38.1849 51.0015 37.4938 51.209C36.8098 51.4061 36.0451 51.506 35.1993 51.506C34.4566 51.506 33.725 51.4036 33.0042 51.1987C32.291 50.9913 31.64 50.684 31.0518 50.2717C30.471 49.8594 30.0039 49.3524 29.651 48.748C29.3053 48.1386 29.1325 47.4318 29.1325 46.6302H31.2505C31.2505 47.1834 31.357 47.6571 31.5704 48.0541C31.7834 48.4433 32.0741 48.766 32.4418 49.0246C32.8167 49.2832 33.2395 49.4727 33.7102 49.5982C34.1883 49.716 34.6846 49.7749 35.1993 49.7749C35.9422 49.7749 36.5708 49.6725 37.0856 49.4651C37.6003 49.2602 37.99 48.9657 38.2548 48.5841C38.527 48.2 38.663 47.7493 38.663 47.2269ZM50.2453 49.2448V43.1015C50.2453 42.6303 50.1497 42.2231 49.9585 41.8774C49.7746 41.524 49.4952 41.2526 49.12 41.0605C48.7451 40.8684 48.2819 40.7737 47.7303 40.7737C47.2156 40.7737 46.7633 40.8608 46.3736 41.0375C45.991 41.2141 45.6896 41.4472 45.4689 41.734C45.2558 42.0208 45.149 42.3281 45.149 42.661H43.1083C43.1083 42.2334 43.2187 41.8108 43.4394 41.3908C43.6599 40.9734 43.9762 40.5944 44.3879 40.2564C44.8071 39.9107 45.3073 39.6367 45.8881 39.4395C46.4765 39.2321 47.1308 39.1297 47.8517 39.1297C48.7193 39.1297 49.4842 39.2782 50.1459 39.5701C50.815 39.8646 51.3372 40.3102 51.7123 40.9069C52.0947 41.4933 52.286 42.2334 52.286 43.122V48.6814C52.286 49.0809 52.319 49.5035 52.3853 49.9516C52.4588 50.3998 52.5653 50.7864 52.7052 51.1091V51.2858H50.5761C50.4732 51.0502 50.3923 50.7378 50.3336 50.3485C50.2747 49.9516 50.2453 49.5829 50.2453 49.2448ZM50.5981 44.049L50.6202 45.483H48.5574C47.9766 45.483 47.4581 45.5317 47.0023 45.6264C46.5462 45.716 46.1639 45.8518 45.855 46.0361C45.5462 46.218 45.3109 46.451 45.149 46.7301C44.9872 47.0016 44.9065 47.3217 44.9065 47.6904C44.9065 48.0643 44.991 48.4074 45.16 48.7147C45.3293 49.0246 45.5831 49.2704 45.9211 49.4548C46.2668 49.6315 46.6896 49.7186 47.1897 49.7186C47.8148 49.7186 48.3664 49.588 48.8442 49.3216C49.3223 49.0579 49.7011 48.7352 49.9805 48.3511C50.2673 47.9696 50.4217 47.5982 50.4437 47.2372L51.3152 48.2205C51.2637 48.5278 51.1241 48.871 50.896 49.2448C50.6681 49.6213 50.3628 49.9798 49.9805 50.3255C49.6056 50.6635 49.1569 50.9478 48.6348 51.1757C48.1201 51.3959 47.539 51.506 46.8919 51.506C46.0829 51.506 45.3733 51.3472 44.7631 51.0323C44.16 50.7147 43.6894 50.2922 43.3511 49.7647C43.0202 49.2269 42.8548 48.6277 42.8548 47.9644C42.8548 47.3268 42.9798 46.7634 43.2297 46.2769C43.4799 45.7852 43.8402 45.378 44.3109 45.0528C44.7813 44.7224 45.3477 44.4715 46.0094 44.3025C46.6714 44.1335 47.4105 44.049 48.2266 44.049H50.5981ZM57.7131 34.3428V51.2858H55.6614V34.3428H57.7131ZM65.942 51.506C65.111 51.506 64.3571 51.3677 63.6805 51.086C63.0114 50.8018 62.4342 50.3998 61.9489 49.885C61.4708 49.3703 61.1031 48.7608 60.8457 48.0541C60.5883 47.3473 60.4598 46.5765 60.4598 45.7365V45.273C60.4598 44.3025 60.6032 43.4395 60.8897 42.6815C61.1766 41.9184 61.5663 41.2705 62.059 40.7404C62.5517 40.2103 63.1107 39.8108 63.7358 39.5394C64.3609 39.2654 65.008 39.1297 65.6772 39.1297C66.5302 39.1297 67.2656 39.2782 67.8833 39.5701C68.5084 39.8646 69.0195 40.2769 69.4167 40.807C69.8136 41.3294 70.1079 41.9465 70.2992 42.661C70.4902 43.3652 70.586 44.1386 70.586 44.976V45.8927H61.6731V44.2257H68.5453V44.072C68.5158 43.5419 68.4054 43.0272 68.2142 42.5278C68.0303 42.0285 67.7363 41.6162 67.3317 41.291C66.9273 40.9683 66.3757 40.807 65.6772 40.807C65.2139 40.807 64.7873 40.9069 64.3975 41.104C64.0078 41.2961 63.6733 41.5829 63.394 41.9645C63.1143 42.3486 62.8974 42.8147 62.743 43.3652C62.5886 43.9184 62.5115 44.5534 62.5115 45.273V45.7365C62.5115 46.3025 62.5886 46.8377 62.743 47.337C62.9048 47.8287 63.1363 48.264 63.438 48.6379C63.7468 49.0144 64.1181 49.3089 64.5519 49.5214C64.9932 49.7339 65.4933 49.8415 66.0523 49.8415C66.7729 49.8415 67.3832 49.693 67.8833 49.3985C68.3834 49.1065 68.8211 48.7122 69.196 48.2205L70.4316 49.2013C70.1739 49.5905 69.8469 49.9619 69.4497 50.3152C69.0526 50.6686 68.5634 50.9554 67.9827 51.1757C67.409 51.3959 66.7289 51.506 65.942 51.506ZM79.9178 48.1206C79.9178 47.8261 79.8517 47.5547 79.7193 47.3037C79.5944 47.0477 79.3332 46.8146 78.936 46.6098C78.5462 46.3947 77.958 46.2128 77.1711 46.0566C76.5094 45.9183 75.9101 45.7519 75.3731 45.5598C74.8438 45.3703 74.3913 45.1373 74.0164 44.8659C73.6487 44.5944 73.3655 44.2743 73.167 43.9056C72.9685 43.5394 72.8692 43.1092 72.8692 42.6149C72.8692 42.1463 72.9721 41.7007 73.178 41.2807C73.3913 40.8608 73.6891 40.4895 74.0715 40.1668C74.4612 39.8441 74.9283 39.5906 75.4725 39.4062C76.0167 39.2218 76.6233 39.1297 77.2925 39.1297C78.2484 39.1297 79.0648 39.2987 79.7413 39.6367C80.4179 39.9747 80.9362 40.428 81.2968 40.9939C81.6571 41.5522 81.8371 42.1744 81.8371 42.8582H79.7964C79.7964 42.5278 79.6973 42.2077 79.4986 41.8979C79.3075 41.5829 79.0243 41.3217 78.6494 41.1168C78.2817 40.9094 77.8295 40.807 77.2925 40.807C76.7263 40.807 76.2666 40.8941 75.9137 41.0707C75.568 41.2398 75.3142 41.4574 75.1526 41.7212C74.9982 41.9875 74.9209 42.2666 74.9209 42.5611C74.9209 42.7814 74.9578 42.9786 75.0313 43.1552C75.1122 43.3243 75.2518 43.483 75.4505 43.6315C75.6489 43.7698 75.9283 43.903 76.2886 44.0285C76.6492 44.1539 77.1086 44.2769 77.6676 44.4024C78.6456 44.6226 79.4509 44.8889 80.0832 45.1962C80.7157 45.5061 81.1864 45.8851 81.4952 46.3332C81.8041 46.7813 81.9585 47.3268 81.9585 47.9644C81.9585 48.4868 81.8481 48.9657 81.6276 49.3985C81.4143 49.8338 81.1019 50.2077 80.6899 50.5252C80.2855 50.8325 79.8002 51.0758 79.2338 51.2525C78.675 51.4215 78.0463 51.506 77.3478 51.506C76.296 51.506 75.4062 51.3191 74.6781 50.9452C73.9501 50.5688 73.3988 50.0848 73.0236 49.4881C72.6487 48.8914 72.461 48.264 72.461 47.6008H74.5127C74.5422 48.1616 74.704 48.6046 74.9982 48.9375C75.2922 49.2602 75.6525 49.4907 76.0791 49.6315C76.5058 49.7647 76.9286 49.8287 77.3478 49.8287C77.9065 49.8287 78.3736 49.757 78.7485 49.6085C79.1309 49.4625 79.4215 49.2602 79.62 49.0015C79.8184 48.7455 79.9178 48.451 79.9178 48.1206ZM91.7648 51.2858L94.8864 35.2252H96.4749L93.3423 51.2858H91.7648ZM96.2542 51.2858L99.387 35.2252H100.964L97.8316 51.2858H96.2542ZM102.31 41.3473H90.8383V39.8134H102.31V41.3473ZM101.483 46.7634H89.9999V45.2423H101.483V46.7634Z" fill="#1F1F1F"/>
<path d="M43.7046 73.7566V80.2636H40.2631V73.7566H43.7046ZM43.2856 109.782V115.715H39.8439V109.782H43.2856ZM45.7122 102.545C45.7122 101.708 45.5578 100.993 45.249 100.407C44.9547 99.8179 44.4695 99.2955 43.7929 98.8397C43.1309 98.3839 42.2339 97.9434 41.1015 97.5158C39.1894 96.7808 37.5054 95.9998 36.0493 95.1778C34.6081 94.3378 33.4829 93.3007 32.6739 92.0664C31.865 90.8167 31.4606 89.2341 31.4606 87.3238C31.4606 85.5005 31.8944 83.9179 32.7623 82.5812C33.6299 81.2419 34.8286 80.2124 36.3581 79.4903C37.9026 78.7553 39.6969 78.3891 41.7412 78.3891C43.3002 78.3891 44.7122 78.6247 45.977 79.0934C47.2418 79.5492 48.3301 80.2278 49.242 81.1241C50.154 82.0075 50.8525 83.0882 51.3378 84.366C51.8233 85.6464 52.0658 87.1112 52.0658 88.7578H45.7343C45.7343 87.8744 45.6387 87.0959 45.4475 86.4198C45.2564 85.7412 44.9768 85.1753 44.6093 84.7194C44.2562 84.2636 43.8298 83.9256 43.3297 83.7054C42.8295 83.4698 42.2779 83.352 41.6751 83.352C40.7778 83.352 40.0424 83.5287 39.469 83.8821C38.8954 84.2355 38.4762 84.7118 38.2114 85.3161C37.9615 85.9051 37.8362 86.5811 37.8362 87.3443C37.8362 88.0946 37.9686 88.7501 38.2334 89.3084C38.5128 89.8666 38.9909 90.3814 39.6675 90.8526C40.344 91.3084 41.2705 91.7796 42.4472 92.2661C44.3591 93.0011 46.0359 93.7949 47.4771 94.6477C48.9186 95.5004 50.0436 96.5452 50.8525 97.7795C51.6615 99.0164 52.0658 100.589 52.0658 102.502C52.0658 104.399 51.6246 106.018 50.7422 107.354C49.8597 108.678 48.6244 109.692 47.0359 110.399C45.4474 111.091 43.6091 111.436 41.5205 111.436C40.1676 111.436 38.8216 111.26 37.4834 110.906C36.1451 110.54 34.9315 109.951 33.8432 109.142C32.7548 108.333 31.8872 107.26 31.2399 105.92C30.5928 104.568 30.2693 102.906 30.2693 100.934H36.6229C36.6229 102.01 36.7627 102.906 37.0421 103.626C37.3215 104.333 37.6892 104.899 38.1451 105.326C38.6157 105.739 39.1453 106.03 39.7335 106.207C40.322 106.384 40.9176 106.473 41.5205 106.473C42.4618 106.473 43.2339 106.304 43.837 105.966C44.4546 105.626 44.9181 105.165 45.227 104.576C45.5504 103.972 45.7122 103.296 45.7122 102.545ZM78.3632 106.01V110.973H56.39V106.737L66.781 95.5952C67.825 94.4351 68.6488 93.4134 69.2516 92.5299C69.8547 91.6336 70.2888 90.8321 70.5533 90.1253C70.8329 89.4057 70.9725 88.7194 70.9725 88.0741C70.9725 87.1036 70.8107 86.2713 70.4872 85.5799C70.1635 84.8757 69.6857 84.3302 69.0532 83.9486C68.4355 83.5645 67.6706 83.375 66.7587 83.375C65.7882 83.375 64.9497 83.6106 64.2437 84.0792C63.5526 84.5504 63.023 85.206 62.6555 86.0434C62.3024 86.8833 62.1259 87.8308 62.1259 88.8884H55.7501C55.7501 86.9781 56.2062 85.2265 57.1181 83.6388C58.03 82.0357 59.3168 80.763 60.9787 79.8232C62.6407 78.8655 64.6115 78.3891 66.8911 78.3891C69.1415 78.3891 71.0388 78.7553 72.583 79.4903C74.142 80.2124 75.3187 81.2573 76.1128 82.6247C76.9218 83.9768 77.3261 85.5952 77.3261 87.4774C77.3261 88.5376 77.1571 89.5747 76.8188 90.5888C76.4805 91.5875 75.9953 92.5888 75.3627 93.5875C74.7451 94.5734 73.995 95.5747 73.1126 96.5888C72.2301 97.6028 71.2519 98.6553 70.1784 99.7437L64.5969 106.01H78.3632ZM97.8212 78.7861V110.973H91.4676V86.11L83.8344 88.5376V83.5287L97.1372 78.7861H97.8212ZM114.566 105.613L114.544 109.869C114.544 111.503 114.132 113.149 113.308 114.811C112.499 116.473 111.47 117.833 110.22 118.893L106.911 117.196C107.278 116.517 107.639 115.841 107.991 115.165C108.345 114.489 108.639 113.746 108.874 112.937C109.109 112.128 109.227 111.208 109.227 110.179V105.613H114.566ZM141.9 98.9729V103.959H118.758L118.449 100.097L131.84 78.8526H136.892L131.421 88.0075L124.758 98.9729H141.9ZM138.26 78.8526V110.973H131.906V78.8526H138.26ZM149.842 106.141H150.261C152.026 106.141 153.541 105.928 154.806 105.503C156.085 105.06 157.137 104.427 157.961 103.605C158.784 102.781 159.395 101.774 159.792 100.581C160.189 99.3775 160.388 98.0074 160.388 96.4786V90.3891C160.388 89.229 160.27 88.2047 160.034 87.3238C159.814 86.4403 159.49 85.713 159.064 85.1394C158.652 84.5504 158.167 84.11 157.608 83.8155C157.064 83.521 156.461 83.375 155.799 83.375C155.093 83.375 154.467 83.5517 153.923 83.9025C153.379 84.2431 152.916 84.7067 152.534 85.2931C152.166 85.8821 151.879 86.5581 151.673 87.3238C151.482 88.0741 151.386 88.8603 151.386 89.6848C151.386 90.5069 151.482 91.2956 151.673 92.0433C151.864 92.7808 152.151 93.4339 152.534 94.0075C152.916 94.5657 153.394 95.0164 153.968 95.3544C154.541 95.6771 155.218 95.8384 155.997 95.8384C156.747 95.8384 157.416 95.7002 158.005 95.421C158.608 95.1265 159.115 94.7424 159.527 94.2738C159.953 93.8026 160.277 93.2802 160.498 92.7066C160.733 92.133 160.851 91.5517 160.851 90.9627L162.947 92.1099C162.947 93.1394 162.726 94.156 162.285 95.1547C161.843 96.156 161.226 97.0676 160.432 97.8897C159.652 98.6989 158.748 99.3467 157.718 99.8333C156.688 100.317 155.585 100.561 154.409 100.561C152.909 100.561 151.578 100.289 150.416 99.7437C149.254 99.1854 148.268 98.4197 147.459 97.4492C146.665 96.4633 146.062 95.3161 145.65 94.0075C145.239 92.6989 145.033 91.2802 145.033 89.7489C145.033 88.1919 145.283 86.7271 145.783 85.3596C146.297 83.9922 147.025 82.786 147.967 81.7412C148.923 80.6964 150.063 79.8821 151.386 79.2931C152.725 78.6888 154.21 78.3891 155.843 78.3891C157.475 78.3891 158.961 78.7041 160.299 79.3366C161.637 79.9692 162.785 80.8654 163.741 82.028C164.697 83.1753 165.432 84.5504 165.947 86.1535C166.476 87.7566 166.741 89.5363 166.741 91.4928V93.7002C166.741 95.7872 166.513 97.7283 166.057 99.5234C165.616 101.319 164.947 102.942 164.049 104.399C163.167 105.841 162.064 107.075 160.74 108.105C159.431 109.134 157.909 109.92 156.174 110.466C154.438 111.009 152.497 111.283 150.349 111.283H149.842V106.141ZM193.104 78.8526V82.2713L180.684 110.973H173.977L186.398 83.8155H170.403V78.8526H193.104ZM197.803 107.907C197.803 106.965 198.127 106.179 198.774 105.546C199.436 104.914 200.311 104.596 201.399 104.596C202.488 104.596 203.356 104.914 204.003 105.546C204.665 106.179 204.995 106.965 204.995 107.907C204.995 108.847 204.665 109.633 204.003 110.266C203.356 110.899 202.488 111.216 201.399 111.216C200.311 111.216 199.436 110.899 198.774 110.266C198.127 109.633 197.803 108.847 197.803 107.907ZM231.977 102.171C231.977 104.187 231.506 105.884 230.566 107.267C229.623 108.635 228.33 109.672 226.681 110.379C225.05 111.068 223.196 111.413 221.122 111.413C219.05 111.413 217.188 111.068 215.542 110.379C213.892 109.672 212.592 108.635 211.636 107.267C210.681 105.884 210.202 104.187 210.202 102.171C210.202 100.817 210.474 99.5977 211.019 98.5094C211.562 97.4057 212.32 96.4633 213.291 95.6848C214.277 94.891 215.431 94.2866 216.755 93.8743C218.077 93.4492 219.518 93.2367 221.078 93.2367C223.168 93.2367 225.034 93.6029 226.681 94.3378C228.33 95.0753 229.623 96.1099 230.566 97.4492C231.506 98.7885 231.977 100.361 231.977 102.171ZM225.58 101.751C225.58 100.765 225.388 99.9204 225.006 99.2136C224.637 98.494 224.115 97.9434 223.439 97.5593C222.763 97.1777 221.974 96.9857 221.078 96.9857C220.182 96.9857 219.393 97.1777 218.717 97.5593C218.041 97.9434 217.511 98.494 217.129 99.2136C216.76 99.9204 216.579 100.765 216.579 101.751C216.579 102.722 216.76 103.559 217.129 104.266C217.511 104.973 218.041 105.516 218.717 105.9C219.408 106.266 220.21 106.45 221.122 106.45C222.033 106.45 222.822 106.266 223.483 105.9C224.159 105.516 224.673 104.973 225.027 104.266C225.396 103.559 225.58 102.722 225.58 101.751ZM231.293 87.3673C231.293 89.0011 230.858 90.448 229.992 91.713C229.124 92.9627 227.918 93.9409 226.374 94.6477C224.842 95.3545 223.093 95.7078 221.122 95.7078C219.137 95.7078 217.372 95.3545 215.828 94.6477C214.284 93.9409 213.078 92.9627 212.21 91.713C211.342 90.448 210.909 89.0011 210.909 87.3673C210.909 85.4262 211.342 83.7924 212.21 82.4711C213.091 81.1318 214.297 80.1177 215.828 79.4263C217.372 78.7349 219.122 78.3891 221.078 78.3891C223.063 78.3891 224.822 78.7349 226.351 79.4263C227.895 80.1177 229.101 81.1318 229.969 82.4711C230.853 83.7924 231.293 85.4262 231.293 87.3673ZM224.94 87.6541C224.94 86.786 224.783 86.0357 224.476 85.4032C224.166 84.7579 223.726 84.2559 223.152 83.9025C222.594 83.5517 221.903 83.375 221.078 83.375C220.284 83.375 219.6 83.544 219.027 83.8821C218.469 84.2201 218.033 84.7118 217.726 85.3596C217.431 85.9922 217.283 86.7578 217.283 87.6541C217.283 88.5222 217.431 89.2879 217.726 89.9486C218.033 90.5965 218.476 91.1035 219.05 91.4697C219.623 91.8385 220.312 92.0229 221.122 92.0229C221.931 92.0229 222.614 91.8385 223.175 91.4697C223.749 91.1035 224.182 90.5965 224.476 89.9486C224.783 89.2879 224.94 88.5222 224.94 87.6541ZM258.781 98.9729V103.959H235.639L235.329 100.097L248.722 78.8526H253.774L248.302 88.0075L241.639 98.9729H258.781ZM255.142 78.8526V110.973H248.788V78.8526H255.142ZM277.71 78.7861V110.973H271.357V86.11L263.723 88.5376V83.5287L277.026 78.7861H277.71Z" fill="#1F1F1F"/>
<path d="M32.927 143.738L42.3582 134.307L51.7894 143.738L50.0798 145.393L43.5164 138.829V153.17H41.1999V138.829L34.5815 145.393L32.927 143.738Z" fill="#0B9D61"/>
<path d="M68.4287 144.501H69.9153C70.3913 144.501 70.7839 144.422 71.0927 144.261C71.4015 144.094 71.63 143.861 71.778 143.567C71.9324 143.265 72.0097 142.914 72.0097 142.514C72.0097 142.153 71.9388 141.836 71.7972 141.559C71.6622 141.275 71.453 141.057 71.1698 140.903C70.8868 140.742 70.5296 140.66 70.0986 140.66C69.7575 140.66 69.4423 140.729 69.1527 140.865C68.863 140.998 68.6315 141.188 68.4576 141.434C68.284 141.677 68.1972 141.974 68.1972 142.322H65.4077C65.4077 141.549 65.6136 140.878 66.0254 140.304C66.4438 139.731 67.0036 139.285 67.7048 138.962C68.4062 138.64 69.1785 138.481 70.0213 138.481C70.9736 138.481 71.8069 138.635 72.5211 138.942C73.2353 139.247 73.7921 139.692 74.191 140.284C74.59 140.878 74.7895 141.61 74.7895 142.486C74.7895 142.929 74.6863 143.359 74.4804 143.779C74.2745 144.192 73.9785 144.563 73.5926 144.898C73.2128 145.226 72.7496 145.49 72.2026 145.69C71.6558 145.882 71.0412 145.979 70.359 145.979H68.4287V144.501ZM68.4287 146.617V145.177H70.359C71.125 145.177 71.7972 145.265 72.3764 145.439C72.9554 145.613 73.4412 145.864 73.8338 146.191C74.2264 146.514 74.5224 146.896 74.7219 147.341C74.9214 147.777 75.021 148.263 75.021 148.798C75.021 149.454 74.8955 150.04 74.6445 150.555C74.3936 151.062 74.0397 151.495 73.5828 151.848C73.1324 152.202 72.6049 152.471 72 152.658C71.3951 152.839 70.7355 152.929 70.0213 152.929C69.4295 152.929 68.8472 152.847 68.2743 152.688C67.7081 152.519 67.1934 152.273 66.7301 151.943C66.2733 151.61 65.9063 151.19 65.6298 150.688C65.3596 150.181 65.2244 149.579 65.2244 148.885H68.0139C68.0139 149.244 68.1038 149.567 68.284 149.851C68.4641 150.133 68.7119 150.355 69.0272 150.517C69.3488 150.675 69.706 150.757 70.0986 150.757C70.5427 150.757 70.9222 150.675 71.2374 150.517C71.5593 150.348 71.8036 150.117 71.9711 149.82C72.1447 149.518 72.2315 149.167 72.2315 148.768C72.2315 148.253 72.1383 147.843 71.9516 147.533C71.7652 147.218 71.4981 146.985 71.1506 146.839C70.8031 146.691 70.3913 146.617 69.9153 146.617H68.4287ZM86.5454 150.563V152.734H76.9321V150.883L81.478 146.007C81.9349 145.5 82.2952 145.052 82.5592 144.668C82.823 144.273 83.0127 143.923 83.1285 143.615C83.2509 143.3 83.3118 143.001 83.3118 142.716C83.3118 142.291 83.2412 141.928 83.0996 141.626C82.9579 141.318 82.749 141.08 82.4722 140.911C82.202 140.745 81.8673 140.66 81.4686 140.66C81.0437 140.66 80.677 140.765 80.3682 140.97C80.0658 141.175 79.834 141.462 79.6732 141.828C79.5188 142.197 79.4414 142.612 79.4414 143.075H76.6522C76.6522 142.238 76.8517 141.472 77.2507 140.778C77.6497 140.076 78.2125 139.518 78.9398 139.108C79.6668 138.688 80.529 138.481 81.5264 138.481C82.5108 138.481 83.341 138.64 84.0166 138.962C84.6985 139.277 85.2135 139.736 85.5607 140.332C85.9146 140.924 86.0916 141.633 86.0916 142.455C86.0916 142.919 86.0176 143.372 85.8698 143.818C85.7218 144.256 85.5093 144.693 85.2327 145.129C84.9625 145.562 84.6342 145.999 84.2481 146.442C83.8622 146.885 83.4342 147.346 82.9646 147.823L80.5226 150.563H86.5454ZM88.2439 142.128V141.385C88.2439 140.85 88.3599 140.366 88.5914 139.928C88.8232 139.49 89.1643 139.139 89.6147 138.875C90.0649 138.612 90.6183 138.481 91.2747 138.481C91.9504 138.481 92.5133 138.612 92.9638 138.875C93.4206 139.139 93.7617 139.49 93.9868 139.928C94.2186 140.366 94.3343 140.85 94.3343 141.385V142.128C94.3343 142.65 94.2186 143.129 93.9868 143.567C93.7617 144.005 93.4239 144.355 92.9735 144.619C92.523 144.883 91.9666 145.014 91.3036 145.014C90.6345 145.014 90.0716 144.883 89.6147 144.619C89.1643 144.355 88.8232 144.005 88.5914 143.567C88.3599 143.129 88.2439 142.65 88.2439 142.128ZM90.0875 141.385V142.128C90.0875 142.353 90.1295 142.568 90.2129 142.775C90.3031 142.975 90.4383 143.139 90.6183 143.267C90.805 143.39 91.0304 143.451 91.2941 143.451C91.5707 143.451 91.796 143.39 91.9697 143.267C92.1435 143.139 92.2721 142.975 92.3558 142.775C92.4393 142.568 92.4813 142.353 92.4813 142.128V141.385C92.4813 141.147 92.4362 140.929 92.3461 140.729C92.2624 140.522 92.1305 140.358 91.9504 140.238C91.7766 140.107 91.5515 140.043 91.2747 140.043C91.0173 140.043 90.7986 140.107 90.6183 140.238C90.4383 140.358 90.3031 140.522 90.2129 140.729C90.1295 140.929 90.0875 141.147 90.0875 141.385ZM94.9617 150.033V149.29C94.9617 148.763 95.0777 148.279 95.3092 147.843C95.5473 147.405 95.8915 147.055 96.342 146.791C96.7988 146.527 97.3586 146.394 98.0213 146.394C98.6905 146.394 99.2503 146.527 99.7007 146.791C100.151 147.055 100.492 147.405 100.724 147.843C100.956 148.279 101.071 148.763 101.071 149.29V150.033C101.071 150.56 100.956 151.044 100.724 151.482C100.499 151.917 100.161 152.268 99.7104 152.532C99.26 152.796 98.7035 152.929 98.0408 152.929C97.3714 152.929 96.8085 152.796 96.3517 152.532C95.8949 152.268 95.5473 151.917 95.3092 151.482C95.0777 151.044 94.9617 150.56 94.9617 150.033ZM96.8149 149.29V150.033C96.8149 150.266 96.8664 150.483 96.9694 150.688C97.0723 150.896 97.2139 151.06 97.394 151.183C97.5806 151.303 97.7962 151.364 98.0408 151.364C98.3496 151.364 98.5909 151.303 98.7645 151.183C98.9384 151.06 99.0574 150.896 99.1217 150.688C99.1924 150.483 99.228 150.266 99.228 150.033V149.29C99.228 149.057 99.1829 148.842 99.0928 148.642C99.0026 148.437 98.8674 148.273 98.6874 148.151C98.5135 148.022 98.2918 147.958 98.0213 147.958C97.7512 147.958 97.5258 148.022 97.3458 148.151C97.1719 148.273 97.04 148.437 96.9502 148.642C96.86 148.842 96.8149 149.057 96.8149 149.29ZM98.7066 140.691L91.8442 151.674L90.4928 150.96L97.3555 139.976L98.7066 140.691ZM111.003 138.683V152.734H108.108V138.683H111.003ZM116.601 144.686V146.944H110.212V144.686H116.601ZM117.277 138.683V140.95H110.212V138.683H117.277ZM121.311 144.571V152.734H118.532V142.291H121.147L121.311 144.571ZM124.458 142.225L124.41 144.801C124.274 144.783 124.11 144.765 123.917 144.752C123.731 144.734 123.56 144.724 123.406 144.724C123.013 144.724 122.672 144.775 122.383 144.878C122.1 144.975 121.861 145.121 121.669 145.313C121.482 145.505 121.34 145.741 121.244 146.017C121.154 146.294 121.102 146.609 121.089 146.965L120.53 146.791C120.53 146.115 120.597 145.492 120.732 144.926C120.867 144.355 121.064 143.856 121.321 143.431C121.585 143.006 121.906 142.678 122.286 142.448C122.666 142.215 123.1 142.099 123.589 142.099C123.744 142.099 123.901 142.112 124.062 142.138C124.223 142.158 124.355 142.186 124.458 142.225ZM125.037 147.62V147.418C125.037 146.652 125.146 145.948 125.365 145.303C125.584 144.655 125.902 144.092 126.321 143.615C126.739 143.139 127.254 142.768 127.865 142.504C128.476 142.235 129.178 142.099 129.969 142.099C130.76 142.099 131.465 142.235 132.083 142.504C132.7 142.768 133.219 143.139 133.637 143.615C134.062 144.092 134.383 144.655 134.602 145.303C134.821 145.948 134.93 146.652 134.93 147.418V147.62C134.93 148.378 134.821 149.085 134.602 149.733C134.383 150.378 134.062 150.939 133.637 151.423C133.219 151.9 132.704 152.268 132.093 152.532C131.481 152.796 130.78 152.929 129.988 152.929C129.197 152.929 128.492 152.796 127.875 152.532C127.263 152.268 126.745 151.9 126.321 151.423C125.902 150.939 125.584 150.378 125.365 149.733C125.146 149.085 125.037 148.378 125.037 147.62ZM127.817 147.418V147.62C127.817 148.058 127.855 148.465 127.933 148.847C128.01 149.226 128.132 149.559 128.299 149.851C128.473 150.133 128.698 150.355 128.975 150.517C129.252 150.675 129.589 150.757 129.988 150.757C130.375 150.757 130.706 150.675 130.982 150.517C131.259 150.355 131.481 150.133 131.649 149.851C131.816 149.559 131.938 149.226 132.015 148.847C132.099 148.465 132.141 148.058 132.141 147.62V147.418C132.141 146.993 132.099 146.594 132.015 146.22C131.938 145.841 131.813 145.505 131.639 145.216C131.472 144.921 131.25 144.688 130.973 144.522C130.696 144.355 130.361 144.271 129.969 144.271C129.577 144.271 129.242 144.355 128.965 144.522C128.695 144.688 128.473 144.921 128.299 145.216C128.132 145.505 128.01 145.841 127.933 146.22C127.855 146.594 127.817 146.993 127.817 147.418ZM139.418 144.455V152.734H136.629V142.291H139.244L139.418 144.455ZM139.032 147.147H138.26C138.26 146.419 138.347 145.751 138.521 145.139C138.701 144.522 138.961 143.987 139.303 143.539C139.65 143.08 140.078 142.727 140.586 142.476C141.095 142.225 141.683 142.099 142.352 142.099C142.816 142.099 143.24 142.171 143.626 142.312C144.013 142.448 144.344 142.663 144.621 142.957C144.904 143.247 145.122 143.628 145.277 144.097C145.431 144.56 145.509 145.116 145.509 145.766V152.734H142.729V146.076C142.729 145.6 142.665 145.234 142.536 144.975C142.407 144.719 142.224 144.537 141.986 144.435C141.754 144.332 141.474 144.281 141.146 144.281C140.785 144.281 140.47 144.355 140.2 144.501C139.936 144.65 139.717 144.857 139.544 145.121C139.37 145.377 139.241 145.679 139.158 146.028C139.074 146.376 139.032 146.747 139.032 147.147ZM145.248 146.829L144.254 146.955C144.254 146.271 144.338 145.638 144.505 145.052C144.678 144.468 144.933 143.953 145.267 143.508C145.608 143.065 146.03 142.719 146.532 142.476C147.034 142.225 147.613 142.099 148.269 142.099C148.771 142.099 149.228 142.174 149.639 142.322C150.051 142.463 150.402 142.691 150.692 143.006C150.988 143.316 151.213 143.72 151.367 144.222C151.528 144.724 151.608 145.339 151.608 146.066V152.734H148.819V146.066C148.819 145.585 148.755 145.216 148.626 144.965C148.504 144.709 148.324 144.532 148.086 144.435C147.854 144.332 147.577 144.281 147.256 144.281C146.921 144.281 146.628 144.348 146.377 144.483C146.126 144.611 145.917 144.793 145.75 145.024C145.583 145.254 145.457 145.526 145.373 145.836C145.29 146.138 145.248 146.468 145.248 146.829ZM167.891 150.478V152.734H160.816V150.478H167.891ZM161.753 138.683V152.734H158.857V138.683H161.753ZM175.014 150.381V145.728C175.014 145.393 174.96 145.108 174.85 144.87C174.741 144.624 174.57 144.435 174.339 144.299C174.114 144.166 173.821 144.097 173.46 144.097C173.151 144.097 172.884 144.153 172.659 144.261C172.434 144.363 172.26 144.514 172.138 144.714C172.016 144.909 171.955 145.136 171.955 145.4H169.175C169.175 144.957 169.278 144.535 169.484 144.135C169.69 143.736 169.989 143.387 170.381 143.083C170.774 142.775 171.24 142.535 171.781 142.361C172.328 142.186 172.939 142.099 173.615 142.099C174.425 142.099 175.146 142.235 175.777 142.504C176.407 142.775 176.903 143.18 177.263 143.72C177.63 144.261 177.813 144.937 177.813 145.748V150.217C177.813 150.788 177.849 151.259 177.919 151.626C177.99 151.987 178.093 152.302 178.228 152.57V152.734H175.42C175.285 152.453 175.182 152.099 175.111 151.674C175.046 151.244 175.014 150.811 175.014 150.381ZM175.381 146.376L175.4 147.948H173.846C173.48 147.948 173.161 147.989 172.891 148.074C172.621 148.158 172.399 148.276 172.225 148.43C172.051 148.578 171.923 148.752 171.839 148.952C171.762 149.152 171.723 149.369 171.723 149.608C171.723 149.846 171.778 150.061 171.887 150.255C171.997 150.442 172.154 150.588 172.36 150.699C172.566 150.801 172.807 150.855 173.084 150.855C173.502 150.855 173.866 150.77 174.174 150.604C174.484 150.435 174.721 150.23 174.889 149.984C175.063 149.741 175.153 149.508 175.159 149.29L175.893 150.468C175.79 150.732 175.648 151.006 175.468 151.287C175.294 151.572 175.072 151.838 174.802 152.089C174.532 152.332 174.207 152.537 173.827 152.696C173.447 152.852 172.997 152.929 172.476 152.929C171.813 152.929 171.211 152.796 170.671 152.532C170.137 152.263 169.712 151.892 169.397 151.423C169.088 150.947 168.934 150.407 168.934 149.802C168.934 149.254 169.036 148.768 169.242 148.345C169.448 147.92 169.751 147.562 170.15 147.272C170.555 146.978 171.06 146.755 171.665 146.606C172.27 146.453 172.971 146.376 173.769 146.376H175.381ZM185.602 149.851C185.602 149.651 185.544 149.469 185.429 149.308C185.313 149.149 185.097 149.001 184.782 148.865C184.473 148.724 184.026 148.596 183.44 148.478C182.913 148.363 182.421 148.22 181.964 148.046C181.513 147.864 181.121 147.649 180.786 147.398C180.458 147.147 180.201 146.852 180.014 146.509C179.827 146.163 179.734 145.766 179.734 145.323C179.734 144.886 179.827 144.473 180.014 144.087C180.207 143.702 180.48 143.359 180.834 143.065C181.195 142.763 181.632 142.527 182.147 142.361C182.668 142.186 183.254 142.099 183.904 142.099C184.811 142.099 185.589 142.245 186.239 142.535C186.896 142.824 187.398 143.221 187.745 143.731C188.099 144.232 188.276 144.806 188.276 145.449H185.496C185.496 145.177 185.438 144.937 185.322 144.724C185.213 144.506 185.039 144.335 184.801 144.212C184.57 144.084 184.267 144.02 183.894 144.02C183.585 144.02 183.318 144.074 183.093 144.184C182.868 144.286 182.694 144.43 182.572 144.609C182.456 144.783 182.398 144.975 182.398 145.188C182.398 145.349 182.43 145.492 182.495 145.623C182.565 145.743 182.678 145.856 182.832 145.961C182.987 146.063 183.186 146.158 183.431 146.25C183.682 146.332 183.991 146.409 184.357 146.481C185.11 146.635 185.783 146.839 186.375 147.09C186.966 147.334 187.436 147.669 187.784 148.094C188.131 148.512 188.305 149.062 188.305 149.743C188.305 150.207 188.202 150.632 187.996 151.019C187.79 151.403 187.494 151.741 187.108 152.03C186.722 152.314 186.259 152.537 185.718 152.696C185.184 152.852 184.583 152.929 183.913 152.929C182.942 152.929 182.118 152.755 181.443 152.407C180.773 152.061 180.265 151.62 179.917 151.085C179.576 150.545 179.406 149.992 179.406 149.426H182.041C182.054 149.805 182.15 150.11 182.33 150.343C182.517 150.573 182.752 150.742 183.035 150.844C183.324 150.947 183.637 150.998 183.971 150.998C184.332 150.998 184.631 150.949 184.869 150.855C185.107 150.75 185.287 150.617 185.409 150.448C185.538 150.273 185.602 150.074 185.602 149.851ZM195.225 142.291V144.261H189.145V142.291H195.225ZM190.65 139.715H193.43V149.59C193.43 149.892 193.469 150.122 193.546 150.284C193.629 150.445 193.752 150.558 193.913 150.622C194.073 150.681 194.276 150.709 194.521 150.709C194.694 150.709 194.849 150.701 194.984 150.688C195.126 150.67 195.244 150.65 195.341 150.632L195.351 152.678C195.113 152.755 194.855 152.816 194.579 152.86C194.302 152.906 193.996 152.929 193.662 152.929C193.05 152.929 192.516 152.829 192.059 152.629C191.609 152.425 191.262 152.094 191.017 151.646C190.773 151.195 190.65 150.604 190.65 149.869V139.715ZM207.377 147.725H203.796V145.467H207.377C207.93 145.467 208.381 145.377 208.728 145.198C209.076 145.011 209.331 144.752 209.49 144.425C209.651 144.097 209.733 143.728 209.733 143.316C209.733 142.898 209.651 142.509 209.49 142.148C209.331 141.787 209.076 141.498 208.728 141.28C208.381 141.06 207.93 140.95 207.377 140.95H204.8V152.734H201.904V138.683H207.377C208.477 138.683 209.421 138.883 210.204 139.28C210.995 139.674 211.602 140.217 212.02 140.911C212.437 141.608 212.647 142.402 212.647 143.295C212.647 144.204 212.437 144.988 212.02 145.651C211.602 146.314 210.995 146.827 210.204 147.185C209.421 147.546 208.477 147.725 207.377 147.725ZM219.141 152.929C218.332 152.929 217.605 152.801 216.962 152.542C216.317 152.279 215.771 151.915 215.321 151.451C214.878 150.988 214.535 150.45 214.296 149.841C214.058 149.223 213.94 148.565 213.94 147.871V147.485C213.94 146.693 214.053 145.969 214.278 145.313C214.504 144.658 214.824 144.087 215.244 143.605C215.669 143.121 216.184 142.752 216.788 142.494C217.392 142.23 218.074 142.099 218.834 142.099C219.574 142.099 220.23 142.222 220.803 142.466C221.374 142.711 221.856 143.057 222.24 143.508C222.634 143.958 222.929 144.499 223.129 145.129C223.328 145.754 223.428 146.45 223.428 147.216V148.373H215.129V146.519H220.696V146.307C220.696 145.923 220.627 145.577 220.483 145.275C220.35 144.965 220.143 144.722 219.866 144.542C219.59 144.361 219.236 144.271 218.806 144.271C218.437 144.271 218.122 144.35 217.858 144.512C217.595 144.673 217.38 144.898 217.213 145.188C217.052 145.477 216.929 145.818 216.844 146.212C216.768 146.596 216.729 147.021 216.729 147.485V147.871C216.729 148.289 216.788 148.675 216.903 149.029C217.026 149.382 217.195 149.69 217.415 149.946C217.641 150.204 217.91 150.404 218.225 150.545C218.547 150.686 218.911 150.757 219.316 150.757C219.817 150.757 220.284 150.66 220.716 150.468C221.154 150.268 221.531 149.969 221.846 149.569L223.195 151.037C222.977 151.352 222.678 151.654 222.299 151.943C221.925 152.232 221.474 152.471 220.947 152.658C220.419 152.839 219.817 152.929 219.141 152.929ZM227.792 144.571V152.734H225.011V142.291H227.625L227.792 144.571ZM230.936 142.225L230.888 144.801C230.755 144.783 230.591 144.765 230.396 144.752C230.209 144.734 230.04 144.724 229.884 144.724C229.492 144.724 229.152 144.775 228.862 144.878C228.578 144.975 228.34 145.121 228.148 145.313C227.961 145.505 227.82 145.741 227.723 146.017C227.633 146.294 227.582 146.609 227.569 146.965L227.008 146.791C227.008 146.115 227.077 145.492 227.21 144.926C227.346 144.355 227.543 143.856 227.799 143.431C228.063 143.006 228.386 142.678 228.765 142.448C229.144 142.215 229.579 142.099 230.068 142.099C230.222 142.099 230.381 142.112 230.542 142.138C230.703 142.158 230.834 142.186 230.936 142.225ZM235.185 142.291V152.734H232.394V142.291H235.185ZM232.222 139.569C232.222 139.165 232.363 138.832 232.644 138.565C232.929 138.302 233.308 138.171 233.784 138.171C234.255 138.171 234.632 138.302 234.913 138.565C235.203 138.832 235.349 139.165 235.349 139.569C235.349 139.976 235.203 140.309 234.913 140.573C234.632 140.837 234.255 140.97 233.784 140.97C233.308 140.97 232.929 140.837 232.644 140.573C232.363 140.309 232.222 139.976 232.222 139.569ZM237.036 147.62V147.418C237.036 146.652 237.146 145.948 237.364 145.303C237.584 144.655 237.902 144.092 238.322 143.615C238.739 143.139 239.254 142.768 239.866 142.504C240.475 142.235 241.177 142.099 241.968 142.099C242.76 142.099 243.466 142.235 244.084 142.504C244.701 142.768 245.218 143.139 245.638 143.615C246.061 144.092 246.383 144.655 246.601 145.303C246.821 145.948 246.931 146.652 246.931 147.418V147.62C246.931 148.378 246.821 149.085 246.601 149.733C246.383 150.378 246.061 150.939 245.638 151.423C245.218 151.9 244.703 152.268 244.094 152.532C243.482 152.796 242.78 152.929 241.989 152.929C241.198 152.929 240.493 152.796 239.874 152.532C239.264 152.268 238.744 151.9 238.322 151.423C237.902 150.939 237.584 150.378 237.364 149.733C237.146 149.085 237.036 148.378 237.036 147.62ZM239.817 147.418V147.62C239.817 148.058 239.856 148.465 239.933 148.847C240.009 149.226 240.132 149.559 240.299 149.851C240.473 150.133 240.698 150.355 240.975 150.517C241.251 150.675 241.589 150.757 241.989 150.757C242.376 150.757 242.706 150.675 242.982 150.517C243.259 150.355 243.482 150.133 243.648 149.851C243.815 149.559 243.938 149.226 244.014 148.847C244.099 148.465 244.14 148.058 244.14 147.62V147.418C244.14 146.993 244.099 146.594 244.014 146.22C243.938 145.841 243.812 145.505 243.638 145.216C243.472 144.921 243.249 144.688 242.972 144.522C242.696 144.355 242.363 144.271 241.968 144.271C241.577 144.271 241.241 144.355 240.965 144.522C240.696 144.688 240.473 144.921 240.299 145.216C240.132 145.505 240.009 145.841 239.933 146.22C239.856 146.594 239.817 146.993 239.817 147.418ZM254.806 150.458V137.91H257.605V152.734H255.087L254.806 150.458ZM248.204 147.638V147.436C248.204 146.64 248.294 145.915 248.475 145.264C248.655 144.609 248.918 144.046 249.267 143.577C249.612 143.106 250.043 142.742 250.55 142.486C251.059 142.227 251.638 142.099 252.286 142.099C252.898 142.099 253.433 142.227 253.889 142.486C254.352 142.742 254.744 143.108 255.067 143.585C255.395 144.056 255.658 144.611 255.858 145.254C256.058 145.892 256.201 146.591 256.294 147.349V147.795C256.201 148.522 256.058 149.195 255.858 149.82C255.658 150.445 255.395 150.993 255.067 151.462C254.744 151.925 254.352 152.286 253.889 152.542C253.425 152.801 252.885 152.929 252.268 152.929C251.617 152.929 251.039 152.796 250.532 152.532C250.03 152.268 249.605 151.9 249.256 151.423C248.916 150.947 248.655 150.386 248.475 149.743C248.294 149.101 248.204 148.399 248.204 147.638ZM250.985 147.436V147.638C250.985 148.071 251.016 148.473 251.08 148.847C251.151 149.218 251.264 149.551 251.418 149.841C251.579 150.122 251.784 150.345 252.035 150.506C252.294 150.66 252.606 150.737 252.972 150.737C253.448 150.737 253.84 150.632 254.15 150.419C254.46 150.199 254.693 149.902 254.854 149.521C255.021 149.142 255.118 148.704 255.144 148.209V146.944C255.126 146.54 255.067 146.176 254.97 145.853C254.88 145.526 254.744 145.247 254.565 145.014C254.391 144.783 254.173 144.601 253.909 144.473C253.651 144.345 253.346 144.281 252.993 144.281C252.632 144.281 252.322 144.363 252.066 144.532C251.807 144.693 251.6 144.914 251.438 145.198C251.285 145.48 251.167 145.815 251.09 146.202C251.018 146.581 250.985 146.993 250.985 147.436Z" fill="#0B9D61"/>
<path d="M119.224 41.6929L123.544 46.0053L127.865 41.6929L129.192 43.0219L123.544 48.6685L117.897 43.0219L119.224 41.6929Z" fill="black"/>
<path d="M28.2391 207.469H270.788C287.08 207.469 300.288 220.675 300.288 236.97V283.948C300.288 300.242 287.08 313.448 270.788 313.448H28.2391V207.469Z" fill="#2ECC71"/>
<path d="M54.4016 255.822H54.807V258.042H54.6429C53.9095 258.042 53.2562 258.153 52.6836 258.37C52.111 258.588 51.625 258.9 51.2263 259.308C50.8337 259.704 50.5312 260.188 50.319 260.754C50.1131 261.32 50.0101 261.955 50.0101 262.654V264.993C50.0101 265.494 50.0583 265.937 50.1548 266.324C50.2578 266.703 50.4024 267.021 50.5891 267.279C50.7822 267.53 51.0073 267.72 51.2647 267.848C51.522 267.971 51.8116 268.032 52.1333 268.032C52.4357 268.032 52.7092 267.968 52.9538 267.838C53.2047 267.709 53.417 267.53 53.5909 267.297C53.7709 267.059 53.9061 266.782 53.9963 266.467C54.0928 266.147 54.141 265.797 54.141 265.415C54.141 265.036 54.0928 264.685 53.9963 264.365C53.9061 264.042 53.7709 263.766 53.5909 263.533C53.4106 263.297 53.1919 263.113 52.9346 262.985C52.6772 262.854 52.3876 262.79 52.0659 262.79C51.6283 262.79 51.2421 262.893 50.9077 263.1C50.5794 263.3 50.322 263.556 50.1354 263.871C49.9489 264.188 49.849 264.519 49.8362 264.867L48.9966 264.327C49.0158 263.83 49.1187 263.361 49.3054 262.916C49.4985 262.473 49.7622 262.081 50.0969 261.738C50.4378 261.392 50.8465 261.121 51.3225 260.928C51.7988 260.729 52.3361 260.629 52.9346 260.629C53.5909 260.629 54.1668 260.754 54.6621 261.005C55.164 261.256 55.5824 261.599 55.9169 262.037C56.2516 262.475 56.5025 262.98 56.6697 263.553C56.837 264.127 56.9207 264.736 56.9207 265.387C56.9207 266.068 56.808 266.703 56.5829 267.29C56.3642 267.873 56.0457 268.386 55.6275 268.823C55.2155 269.261 54.7202 269.602 54.141 269.845C53.562 270.091 52.912 270.214 52.1914 270.214C51.4449 270.214 50.7661 270.078 50.1548 269.807C49.5499 269.53 49.0288 269.146 48.5912 268.649C48.1535 268.155 47.8158 267.566 47.5776 266.882C47.3461 266.201 47.2304 265.456 47.2304 264.644V263.564C47.2304 262.432 47.3943 261.395 47.7226 260.455C48.057 259.51 48.5364 258.693 49.1607 258.004C49.7848 257.308 50.5376 256.772 51.4191 256.391C52.3008 256.012 53.2949 255.822 54.4016 255.822ZM68.0494 266.168C68.0494 267.051 67.8433 267.794 67.4315 268.398C67.0197 268.998 66.4536 269.451 65.7329 269.761C65.0187 270.063 64.208 270.214 63.3007 270.214C62.3934 270.214 61.5793 270.063 60.8587 269.761C60.1381 269.451 59.5686 268.998 59.1504 268.398C58.732 267.794 58.523 267.051 58.523 266.168C58.523 265.576 58.6421 265.044 58.88 264.567C59.1181 264.083 59.4495 263.671 59.8741 263.331C60.3053 262.985 60.8103 262.721 61.3896 262.539C61.9686 262.352 62.5993 262.26 63.2812 262.26C64.1949 262.26 65.0123 262.421 65.7329 262.742C66.4536 263.064 67.0197 263.517 67.4315 264.104C67.8433 264.69 68.0494 265.377 68.0494 266.168ZM65.2502 265.986C65.2502 265.553 65.1667 265.185 64.9993 264.875C64.8384 264.56 64.61 264.319 64.314 264.153C64.018 263.984 63.6738 263.902 63.2812 263.902C62.8889 263.902 62.5445 263.984 62.2485 264.153C61.9527 264.319 61.7209 264.56 61.5537 264.875C61.3926 265.185 61.3122 265.553 61.3122 265.986C61.3122 266.411 61.3926 266.777 61.5537 267.085C61.7209 267.395 61.9527 267.633 62.2485 267.799C62.5509 267.96 62.9017 268.042 63.3007 268.042C63.6997 268.042 64.0438 267.96 64.3335 267.799C64.6292 267.633 64.8546 267.395 65.009 267.085C65.1698 266.777 65.2502 266.411 65.2502 265.986ZM67.7501 259.692C67.7501 260.406 67.5603 261.041 67.1806 261.594C66.8011 262.14 66.2733 262.57 65.5977 262.877C64.9286 263.187 64.1629 263.341 63.3007 263.341C62.4321 263.341 61.6597 263.187 60.9842 262.877C60.3086 262.57 59.7809 262.14 59.4013 261.594C59.0216 261.041 58.8318 260.406 58.8318 259.692C58.8318 258.844 59.0216 258.13 59.4013 257.551C59.7873 256.964 60.3151 256.521 60.9842 256.219C61.6597 255.914 62.4254 255.763 63.2812 255.763C64.1499 255.763 64.9189 255.914 65.588 256.219C66.2638 256.521 66.7913 256.964 67.1711 257.551C67.557 258.13 67.7501 258.844 67.7501 259.692ZM64.9703 259.817C64.9703 259.438 64.9027 259.11 64.7678 258.834C64.6326 258.549 64.4395 258.332 64.1885 258.178C63.944 258.022 63.6415 257.945 63.2812 257.945C62.9337 257.945 62.6346 258.019 62.3837 258.168C62.1391 258.316 61.9494 258.532 61.8141 258.813C61.6856 259.09 61.6213 259.425 61.6213 259.817C61.6213 260.199 61.6856 260.532 61.8141 260.821C61.9494 261.105 62.1424 261.328 62.3934 261.487C62.6444 261.648 62.9468 261.73 63.3007 261.73C63.6546 261.73 63.9537 261.648 64.1983 261.487C64.4492 261.328 64.639 261.105 64.7678 260.821C64.9027 260.532 64.9703 260.199 64.9703 259.817ZM79.3999 266.168C79.3999 267.051 79.194 267.794 78.7823 268.398C78.3705 268.998 77.8041 269.451 77.0834 269.761C76.3692 270.063 75.5585 270.214 74.6512 270.214C73.7439 270.214 72.9301 270.063 72.2092 269.761C71.4886 269.451 70.9191 268.998 70.5009 268.398C70.0827 267.794 69.8735 267.051 69.8735 266.168C69.8735 265.576 69.9926 265.044 70.2307 264.567C70.4686 264.083 70.8 263.671 71.2248 263.331C71.6558 262.985 72.1611 262.721 72.7401 262.539C73.3193 262.352 73.9498 262.26 74.632 262.26C75.5457 262.26 76.3628 262.421 77.0834 262.742C77.8041 263.064 78.3705 263.517 78.7823 264.104C79.194 264.69 79.3999 265.377 79.3999 266.168ZM76.601 265.986C76.601 265.553 76.5172 265.185 76.35 264.875C76.189 264.56 75.9605 264.319 75.6648 264.153C75.3687 263.984 75.0243 263.902 74.632 263.902C74.2394 263.902 73.8952 263.984 73.5992 264.153C73.3032 264.319 73.0714 264.56 72.9042 264.875C72.7434 265.185 72.663 265.553 72.663 265.986C72.663 266.411 72.7434 266.777 72.9042 267.085C73.0714 267.395 73.3032 267.633 73.5992 267.799C73.9016 267.96 74.2522 268.042 74.6512 268.042C75.0502 268.042 75.3943 267.96 75.684 267.799C75.98 267.633 76.2051 267.395 76.3595 267.085C76.5206 266.777 76.601 266.411 76.601 265.986ZM79.1008 259.692C79.1008 260.406 78.9108 261.041 78.5313 261.594C78.1515 262.14 77.624 262.57 76.9482 262.877C76.2791 263.187 75.5134 263.341 74.6512 263.341C73.7826 263.341 73.0105 263.187 72.3347 262.877C71.6591 262.57 71.1314 262.14 70.7519 261.594C70.3721 261.041 70.1823 260.406 70.1823 259.692C70.1823 258.844 70.3721 258.13 70.7519 257.551C71.138 256.964 71.6655 256.521 72.3347 256.219C73.0105 255.914 73.7762 255.763 74.632 255.763C75.5006 255.763 76.2696 255.914 76.9387 256.219C77.6143 256.521 78.1421 256.964 78.5216 257.551C78.9078 258.13 79.1008 258.844 79.1008 259.692ZM76.3211 259.817C76.3211 259.438 76.2535 259.11 76.1183 258.834C75.9831 258.549 75.7902 258.332 75.5393 258.178C75.2947 258.022 74.9923 257.945 74.632 257.945C74.2845 257.945 73.9851 258.019 73.7342 258.168C73.4899 258.316 73.2999 258.532 73.1649 258.813C73.0361 259.09 72.9718 259.425 72.9718 259.817C72.9718 260.199 73.0361 260.532 73.1649 260.821C73.2999 261.105 73.4929 261.328 73.7439 261.487C73.9949 261.648 74.2973 261.73 74.6512 261.73C75.0051 261.73 75.3042 261.648 75.5488 261.487C75.7997 261.328 75.9897 261.105 76.1183 260.821C76.2535 260.532 76.3211 260.199 76.3211 259.817ZM81.5331 268.677C81.5331 268.268 81.6744 267.922 81.9577 267.645C82.2473 267.369 82.6301 267.231 83.1062 267.231C83.5825 267.231 83.962 267.369 84.2452 267.645C84.5346 267.922 84.6795 268.268 84.6795 268.677C84.6795 269.09 84.5346 269.435 84.2452 269.712C83.962 269.989 83.5825 270.127 83.1062 270.127C82.6301 270.127 82.2473 269.989 81.9577 269.712C81.6744 269.435 81.5331 269.09 81.5331 268.677ZM96.5609 255.968V257.464L91.1269 270.019H88.1927L93.6267 258.14H86.6291V255.968H96.5609ZM100.981 263.62L98.7616 263.09L99.5627 255.968H107.458V258.217H101.85L101.503 261.333C101.689 261.223 101.972 261.108 102.352 260.985C102.732 260.857 103.156 260.793 103.626 260.793C104.308 260.793 104.913 260.9 105.441 261.11C105.968 261.323 106.415 261.633 106.782 262.037C107.155 262.444 107.439 262.939 107.632 263.525C107.825 264.109 107.921 264.772 107.921 265.512C107.921 266.137 107.825 266.731 107.632 267.297C107.439 267.858 107.146 268.36 106.753 268.803C106.361 269.241 105.869 269.587 105.277 269.838C104.685 270.088 103.983 270.214 103.172 270.214C102.568 270.214 101.982 270.122 101.416 269.943C100.856 269.763 100.351 269.497 99.9004 269.141C99.4564 268.788 99.0994 268.36 98.829 267.858C98.5652 267.351 98.4269 266.77 98.4141 266.122H101.174C101.213 266.519 101.316 266.864 101.483 267.154C101.657 267.435 101.886 267.656 102.169 267.809C102.452 267.963 102.783 268.042 103.163 268.042C103.517 268.042 103.819 267.973 104.07 267.838C104.321 267.704 104.524 267.517 104.678 267.279C104.833 267.033 104.945 266.752 105.016 266.429C105.093 266.101 105.132 265.748 105.132 265.369C105.132 264.987 105.087 264.644 104.997 264.334C104.907 264.027 104.768 263.758 104.582 263.533C104.395 263.31 104.157 263.136 103.867 263.013C103.584 262.89 103.253 262.829 102.873 262.829C102.359 262.829 101.96 262.911 101.676 263.072C101.4 263.231 101.168 263.415 100.981 263.62ZM109.678 259.413V258.67C109.678 258.135 109.794 257.651 110.025 257.213C110.257 256.775 110.598 256.424 111.048 256.16C111.499 255.897 112.052 255.763 112.709 255.763C113.384 255.763 113.947 255.897 114.398 256.16C114.854 256.424 115.195 256.775 115.421 257.213C115.652 257.651 115.768 258.135 115.768 258.67V259.413C115.768 259.935 115.652 260.414 115.421 260.852C115.195 261.29 114.858 261.638 114.407 261.904C113.957 262.168 113.4 262.299 112.737 262.299C112.068 262.299 111.505 262.168 111.048 261.904C110.598 261.638 110.257 261.29 110.025 260.852C109.794 260.414 109.678 259.935 109.678 259.413ZM111.521 258.67V259.413C111.521 259.638 111.563 259.853 111.647 260.06C111.737 260.26 111.872 260.424 112.052 260.552C112.239 260.675 112.464 260.734 112.728 260.734C113.005 260.734 113.23 260.675 113.404 260.552C113.577 260.424 113.706 260.26 113.789 260.06C113.873 259.853 113.915 259.638 113.915 259.413V258.67C113.915 258.432 113.87 258.211 113.78 258.014C113.696 257.807 113.564 257.643 113.384 257.52C113.21 257.392 112.985 257.328 112.709 257.328C112.451 257.328 112.232 257.392 112.052 257.52C111.872 257.643 111.737 257.807 111.647 258.014C111.563 258.211 111.521 258.432 111.521 258.67ZM116.396 267.318V266.575C116.396 266.048 116.511 265.564 116.743 265.126C116.981 264.69 117.325 264.339 117.776 264.076C118.232 263.812 118.792 263.679 119.455 263.679C120.124 263.679 120.684 263.812 121.135 264.076C121.585 264.339 121.926 264.69 122.158 265.126C122.389 265.564 122.505 266.048 122.505 266.575V267.318C122.505 267.845 122.389 268.327 122.158 268.765C121.933 269.202 121.595 269.553 121.144 269.817C120.694 270.081 120.137 270.214 119.474 270.214C118.805 270.214 118.242 270.081 117.785 269.817C117.328 269.553 116.981 269.202 116.743 268.765C116.511 268.327 116.396 267.845 116.396 267.318ZM118.249 266.575V267.318C118.249 267.548 118.3 267.768 118.403 267.973C118.506 268.181 118.648 268.345 118.828 268.465C119.014 268.588 119.23 268.649 119.474 268.649C119.783 268.649 120.025 268.588 120.198 268.465C120.372 268.345 120.491 268.181 120.555 267.973C120.626 267.768 120.662 267.548 120.662 267.318V266.575C120.662 266.342 120.617 266.127 120.526 265.927C120.437 265.722 120.301 265.558 120.121 265.435C119.947 265.307 119.725 265.243 119.455 265.243C119.185 265.243 118.96 265.307 118.779 265.435C118.606 265.558 118.474 265.722 118.384 265.927C118.294 266.127 118.249 266.342 118.249 266.575ZM120.141 257.973L113.278 268.959L111.927 268.245L118.789 257.261L120.141 257.973Z" fill="#FAFAFA"/>
<path d="M130.94 193.267V327.65" stroke="black" stroke-width="4.36508"/>
</svg>
