<svg width="776" height="611" viewBox="0 0 776 611" fill="none" xmlns="http://www.w3.org/2000/svg">
<g filter="url(#filter0_d_102_3226)">
<path d="M747.068 5.23341H28.7837C23.003 5.23341 18.3169 9.91956 18.3169 15.7002V569.133C18.3169 574.913 23.003 579.6 28.7837 579.6H747.068C752.849 579.6 757.535 574.913 757.535 569.133V15.7002C757.535 9.91956 752.849 5.23341 747.068 5.23341Z" fill="white"/>
<path d="M51.7662 64.1092V47.3885H57.7951C59.3337 47.3885 60.5583 47.8359 61.4689 48.7309C62.3952 49.6101 62.8584 50.7483 62.8584 52.1457C62.8584 53.3232 62.5287 54.2966 61.8693 55.0659C61.2256 55.8195 60.2914 56.3298 59.0668 56.5967L65.2841 64.1092H61.8929L55.7697 56.7615H54.5216V64.1092H51.7662ZM54.5216 54.3594H57.4654C58.2818 54.3594 58.9255 54.171 59.3965 53.7942C59.8675 53.4017 60.103 52.8522 60.103 52.1457C60.103 51.4391 59.8675 50.8975 59.3965 50.5207C58.9255 50.1282 58.2818 49.9319 57.4654 49.9319H54.5216V54.3594ZM71.4072 64.3447C69.6487 64.3447 68.2043 63.7717 67.0739 62.6256C65.9435 61.4637 65.3782 59.9958 65.3782 58.2216C65.3782 56.4475 65.9356 54.9874 67.0503 53.8413C68.165 52.6795 69.6252 52.0986 71.4307 52.0986C73.2519 52.0986 74.7199 52.7344 75.8346 54.0061C76.9493 55.2622 77.4439 56.8793 77.3183 58.8575H67.9453C67.9767 59.7681 68.3221 60.5296 68.9815 61.1419C69.6409 61.7542 70.4809 62.0603 71.5014 62.0603C72.9458 62.0603 73.9349 61.5108 74.4687 60.4118H77.177C76.8158 61.5579 76.1251 62.5 75.1045 63.2379C74.084 63.9758 72.8516 64.3447 71.4072 64.3447ZM71.36 54.2652C70.5122 54.2652 69.7822 54.5085 69.1698 54.9952C68.5732 55.4663 68.1886 56.1414 68.0159 57.0206H74.5393C74.3509 56.11 73.9663 55.427 73.3854 54.9717C72.8045 54.5007 72.1294 54.2652 71.36 54.2652ZM91.1646 69.0312H88.574V62.5313C88.2129 63.0338 87.6948 63.4655 87.0197 63.8266C86.3446 64.172 85.6067 64.3447 84.8059 64.3447C83.2045 64.3447 81.8544 63.7481 80.7554 62.5549C79.672 61.3617 79.1304 59.9173 79.1304 58.2216C79.1304 56.526 79.672 55.0816 80.7554 53.8884C81.8544 52.6952 83.2045 52.0986 84.8059 52.0986C85.6067 52.0986 86.3446 52.2791 87.0197 52.6402C87.6948 52.9856 88.2129 53.4095 88.574 53.9119V52.3341H91.1646V69.0312ZM82.7571 60.9064C83.4165 61.6286 84.2565 61.9897 85.277 61.9897C86.2975 61.9897 87.1374 61.6286 87.7968 60.9064C88.4563 60.1842 88.786 59.2893 88.786 58.2216C88.786 57.154 88.4563 56.2591 87.7968 55.5369C87.1374 54.8147 86.2975 54.4536 85.277 54.4536C84.2565 54.4536 83.4165 54.8147 82.7571 55.5369C82.0977 56.2591 81.768 57.154 81.768 58.2216C81.768 59.2893 82.0977 60.1842 82.7571 60.9064ZM98.8891 64.3447C97.5389 64.3447 96.4713 63.8973 95.6862 63.0024C94.9012 62.0917 94.5087 60.8828 94.5087 59.3756V52.3341H97.0993V58.9517C97.0993 59.8937 97.3033 60.6395 97.7115 61.189C98.1197 61.7228 98.7007 61.9897 99.4543 61.9897C100.334 61.9897 101.032 61.66 101.55 61.0006C102.068 60.3255 102.327 59.3678 102.327 58.1274V52.3341H104.918V64.1092H102.327V62.5078C101.637 63.7324 100.491 64.3447 98.8891 64.3447ZM113.608 64.3447C111.85 64.3447 110.405 63.7717 109.275 62.6256C108.144 61.4637 107.579 59.9958 107.579 58.2216C107.579 56.4475 108.136 54.9874 109.251 53.8413C110.366 52.6795 111.826 52.0986 113.632 52.0986C115.453 52.0986 116.921 52.7344 118.035 54.0061C119.15 55.2622 119.645 56.8793 119.519 58.8575H110.146C110.178 59.7681 110.523 60.5296 111.182 61.1419C111.842 61.7542 112.682 62.0603 113.702 62.0603C115.147 62.0603 116.136 61.5108 116.67 60.4118H119.378C119.017 61.5579 118.326 62.5 117.305 63.2379C116.285 63.9758 115.052 64.3447 113.608 64.3447ZM113.561 54.2652C112.713 54.2652 111.983 54.5085 111.371 54.9952C110.774 55.4663 110.39 56.1414 110.217 57.0206H116.74C116.552 56.11 116.167 55.427 115.586 54.9717C115.005 54.5007 114.33 54.2652 113.561 54.2652ZM126.325 64.3447C124.928 64.3447 123.75 63.9993 122.793 63.3085C121.851 62.6177 121.348 61.6914 121.285 60.5296H123.97C124.159 61.6914 124.967 62.2723 126.396 62.2723C126.977 62.2723 127.44 62.1702 127.785 61.9661C128.131 61.7463 128.303 61.4323 128.303 61.0241C128.303 60.6159 128.17 60.2941 127.903 60.0586C127.636 59.8231 127.189 59.6268 126.561 59.4698L124.63 58.9517C122.62 58.4179 121.615 57.2325 121.615 55.3956C121.615 54.4065 122.015 53.6136 122.816 53.017C123.617 52.4047 124.677 52.0986 125.996 52.0986C127.267 52.0986 128.311 52.4204 129.128 53.0641C129.944 53.7078 130.399 54.5635 130.494 55.6311H127.903C127.652 54.6577 127.008 54.171 125.972 54.171C125.454 54.171 125.038 54.2809 124.724 54.5007C124.41 54.7048 124.253 54.9952 124.253 55.3721C124.253 56.0472 124.779 56.5182 125.831 56.7851L127.809 57.3032C129.897 57.837 130.941 59.0224 130.941 60.8593C130.941 61.974 130.509 62.8375 129.646 63.4498C128.798 64.0464 127.691 64.3447 126.325 64.3447ZM138.444 64.227C137.251 64.227 136.278 63.8973 135.524 63.2379C134.786 62.5628 134.417 61.5893 134.417 60.3176V54.642H131.968V52.3341H134.417V49.0606H137.008V52.3341H140.376V54.642H137.008V59.8937C137.008 60.6159 137.165 61.134 137.479 61.448C137.793 61.7463 138.295 61.8955 138.986 61.8955C139.551 61.8955 140.014 61.817 140.376 61.66V63.9679C139.81 64.1406 139.167 64.227 138.444 64.227ZM146.978 64.3447C145.58 64.3447 144.403 63.9993 143.445 63.3085C142.503 62.6177 142.001 61.6914 141.938 60.5296H144.623C144.811 61.6914 145.619 62.2723 147.048 62.2723C147.629 62.2723 148.092 62.1702 148.438 61.9661C148.783 61.7463 148.956 61.4323 148.956 61.0241C148.956 60.6159 148.822 60.2941 148.555 60.0586C148.288 59.8231 147.841 59.6268 147.213 59.4698L145.282 58.9517C143.272 58.4179 142.267 57.2325 142.267 55.3956C142.267 54.4065 142.668 53.6136 143.469 53.017C144.269 52.4047 145.329 52.0986 146.648 52.0986C147.92 52.0986 148.964 52.4204 149.78 53.0641C150.596 53.7078 151.052 54.5635 151.146 55.6311H148.555C148.304 54.6577 147.66 54.171 146.624 54.171C146.106 54.171 145.69 54.2809 145.376 54.5007C145.062 54.7048 144.905 54.9952 144.905 55.3721C144.905 56.0472 145.431 56.5182 146.483 56.7851L148.461 57.3032C150.549 57.837 151.593 59.0224 151.593 60.8593C151.593 61.974 151.162 62.8375 150.298 63.4498C149.45 64.0464 148.343 64.3447 146.978 64.3447ZM167.719 64.3918C165.222 64.3918 163.142 63.5676 161.478 61.919C159.829 60.2548 159.005 58.1981 159.005 55.7489C159.005 53.2996 159.829 51.2507 161.478 49.6022C163.142 47.938 165.222 47.1059 167.719 47.1059C169.697 47.1059 171.424 47.6711 172.9 48.8015C174.391 49.9162 175.349 51.3135 175.773 52.9935H172.806C172.445 52.0358 171.801 51.2586 170.875 50.662C169.948 50.0654 168.896 49.7671 167.719 49.7671C165.992 49.7671 164.571 50.3401 163.456 51.4863C162.341 52.6324 161.784 54.0532 161.784 55.7489C161.784 57.4445 162.341 58.8654 163.456 60.0115C164.571 61.1576 165.992 61.7306 167.719 61.7306C168.896 61.7306 169.948 61.4323 170.875 60.8357C171.801 60.2391 172.445 59.462 172.806 58.5042H175.773C175.349 60.1842 174.391 61.5893 172.9 62.7198C171.424 63.8345 169.697 64.3918 167.719 64.3918ZM178.25 64.1092V52.3341H180.84V54.43C181.06 53.7706 181.46 53.2368 182.041 52.8286C182.638 52.4204 183.274 52.2163 183.949 52.2163C184.357 52.2163 184.695 52.2477 184.962 52.3105V54.9717C184.585 54.8304 184.153 54.7597 183.666 54.7597C182.881 54.7597 182.214 55.0816 181.665 55.7253C181.115 56.3533 180.84 57.2325 180.84 58.3629V64.1092H178.25ZM191.987 64.3447C190.229 64.3447 188.785 63.7717 187.654 62.6256C186.524 61.4637 185.959 59.9958 185.959 58.2216C185.959 56.4475 186.516 54.9874 187.631 53.8413C188.745 52.6795 190.205 52.0986 192.011 52.0986C193.832 52.0986 195.3 52.7344 196.415 54.0061C197.53 55.2622 198.024 56.8793 197.899 58.8575H188.526C188.557 59.7681 188.902 60.5296 189.562 61.1419C190.221 61.7542 191.061 62.0603 192.082 62.0603C193.526 62.0603 194.515 61.5108 195.049 60.4118H197.757C197.396 61.5579 196.705 62.5 195.685 63.2379C194.664 63.9758 193.432 64.3447 191.987 64.3447ZM191.94 54.2652C191.092 54.2652 190.362 54.5085 189.75 54.9952C189.154 55.4663 188.769 56.1414 188.596 57.0206H195.12C194.931 56.11 194.547 55.427 193.966 54.9717C193.385 54.5007 192.71 54.2652 191.94 54.2652ZM205.386 64.3447C203.785 64.3447 202.435 63.7481 201.336 62.5549C200.252 61.3617 199.711 59.9173 199.711 58.2216C199.711 56.526 200.252 55.0816 201.336 53.8884C202.435 52.6952 203.785 52.0986 205.386 52.0986C206.187 52.0986 206.925 52.2791 207.6 52.6402C208.275 52.9856 208.793 53.4095 209.154 53.9119V52.3341H211.745V64.1092H209.154V62.5313C208.793 63.0338 208.275 63.4655 207.6 63.8266C206.925 64.172 206.187 64.3447 205.386 64.3447ZM203.337 60.9064C203.997 61.6286 204.837 61.9897 205.857 61.9897C206.878 61.9897 207.718 61.6286 208.377 60.9064C209.037 60.1842 209.366 59.2893 209.366 58.2216C209.366 57.154 209.037 56.2591 208.377 55.5369C207.718 54.8147 206.878 54.4536 205.857 54.4536C204.837 54.4536 203.997 54.8147 203.337 55.5369C202.678 56.2591 202.348 57.154 202.348 58.2216C202.348 59.2893 202.678 60.1842 203.337 60.9064ZM220.364 64.227C219.171 64.227 218.198 63.8973 217.444 63.2379C216.706 62.5628 216.337 61.5893 216.337 60.3176V54.642H213.888V52.3341H216.337V49.0606H218.928V52.3341H222.295V54.642H218.928V59.8937C218.928 60.6159 219.085 61.134 219.399 61.448C219.713 61.7463 220.215 61.8955 220.906 61.8955C221.471 61.8955 221.934 61.817 222.295 61.66V63.9679C221.73 64.1406 221.086 64.227 220.364 64.227ZM229.796 64.3447C228.038 64.3447 226.593 63.7717 225.463 62.6256C224.332 61.4637 223.767 59.9958 223.767 58.2216C223.767 56.4475 224.325 54.9874 225.439 53.8413C226.554 52.6795 228.014 52.0986 229.82 52.0986C231.641 52.0986 233.109 52.7344 234.224 54.0061C235.338 55.2622 235.833 56.8793 235.707 58.8575H226.334C226.366 59.7681 226.711 60.5296 227.37 61.1419C228.03 61.7542 228.87 62.0603 229.89 62.0603C231.335 62.0603 232.324 61.5108 232.858 60.4118H235.566C235.205 61.5579 234.514 62.5 233.494 63.2379C232.473 63.9758 231.241 64.3447 229.796 64.3447ZM229.749 54.2652C228.901 54.2652 228.171 54.5085 227.559 54.9952C226.962 55.4663 226.578 56.1414 226.405 57.0206H232.928C232.74 56.11 232.355 55.427 231.774 54.9717C231.194 54.5007 230.518 54.2652 229.749 54.2652ZM243.195 64.3447C241.594 64.3447 240.243 63.7481 239.144 62.5549C238.061 61.3617 237.519 59.9173 237.519 58.2216C237.519 56.526 238.061 55.0816 239.144 53.8884C240.243 52.6952 241.594 52.0986 243.195 52.0986C243.996 52.0986 244.734 52.2791 245.409 52.6402C246.084 52.9856 246.602 53.4095 246.963 53.9119V46.4465H249.554V64.1092H246.963V62.5313C246.602 63.0338 246.084 63.4655 245.409 63.8266C244.734 64.172 243.996 64.3447 243.195 64.3447ZM241.146 60.9064C241.805 61.6286 242.645 61.9897 243.666 61.9897C244.687 61.9897 245.526 61.6286 246.186 60.9064C246.845 60.1842 247.175 59.2893 247.175 58.2216C247.175 57.154 246.845 56.2591 246.186 55.5369C245.526 54.8147 244.687 54.4536 243.666 54.4536C242.645 54.4536 241.805 54.8147 241.146 55.5369C240.487 56.2591 240.157 57.154 240.157 58.2216C240.157 59.2893 240.487 60.1842 241.146 60.9064Z" fill="#242F44"/>
<path d="M51.4142 94.2013H50.0849L53.9288 83.7345H55.2372L59.0798 94.2013H57.7518L54.6236 85.3903H54.5424L51.4142 94.2013ZM51.9048 90.1127H57.2612V91.2371H51.9048V90.1127ZM61.7527 83.7345V94.2013H60.5464V83.7345H61.7527ZM65.1689 83.7345V94.2013H63.9626V83.7345H65.1689ZM74.8389 86.3512V87.3733H70.7712V86.3512H74.8389ZM71.9566 84.4704H73.1629V91.9525C73.1629 92.2933 73.2127 92.5488 73.3108 92.7192C73.4128 92.8861 73.5424 92.9985 73.6994 93.0565C73.859 93.111 74.0277 93.1383 74.2056 93.1383C74.3378 93.1383 74.4477 93.1314 74.5327 93.1178C74.6178 93.1008 74.6858 93.0871 74.7368 93.0769L74.9828 94.1603C74.9004 94.1911 74.7866 94.2217 74.6401 94.2524C74.4935 94.2865 74.3077 94.3035 74.0827 94.3035C73.7425 94.3035 73.4076 94.2302 73.0805 94.0838C72.7573 93.9373 72.4878 93.7141 72.2732 93.4142C72.0626 93.1144 71.9566 92.7362 71.9566 92.2796V84.4704ZM76.6536 94.2013V86.3512H77.8599V94.2013H76.6536ZM77.2672 85.0428C77.0317 85.0428 76.8289 84.9628 76.6588 84.8026C76.4913 84.6425 76.4077 84.45 76.4077 84.2251C76.4077 84.0002 76.4913 83.8077 76.6588 83.6476C76.8289 83.4875 77.0317 83.4074 77.2672 83.4074C77.5014 83.4074 77.7029 83.4875 77.8704 83.6476C78.0405 83.8077 78.1255 84.0002 78.1255 84.2251C78.1255 84.45 78.0405 84.6425 77.8704 84.8026C77.7029 84.9628 77.5014 85.0428 77.2672 85.0428ZM80.0684 94.2013V86.3512H81.2341V87.5778H81.3362C81.4997 87.1587 81.764 86.8333 82.1277 86.6016C82.4927 86.3665 82.9311 86.249 83.4413 86.249C83.9594 86.249 84.3912 86.3665 84.7353 86.6016C85.082 86.8333 85.3528 87.1587 85.5477 87.5778H85.6289C85.8304 87.1723 86.1313 86.8503 86.5343 86.6118C86.9359 86.3699 87.4174 86.249 87.98 86.249C88.6826 86.249 89.2556 86.4687 89.7031 86.9083C90.1492 87.3443 90.3717 88.024 90.3717 88.9475V94.2013H89.1654V88.9475C89.1654 88.3683 89.0071 87.9543 88.6905 87.7056C88.3738 87.4569 88.0009 87.3324 87.5718 87.3324C87.0196 87.3324 86.5919 87.4994 86.2883 87.8333C85.9848 88.1638 85.833 88.5828 85.833 89.0905V94.2013H84.607V88.8248C84.607 88.3785 84.4619 88.0189 84.1727 87.7464C83.8836 87.4705 83.5094 87.3324 83.0527 87.3324C82.74 87.3324 82.4469 87.4159 82.1748 87.5829C81.9053 87.7498 81.6868 87.9815 81.5206 88.278C81.3571 88.5709 81.2747 88.9099 81.2747 89.295V94.2013H80.0684ZM95.868 94.3648C95.1118 94.3648 94.4603 94.1979 93.9108 93.864C93.3665 93.5267 92.9452 93.0565 92.6482 92.4535C92.3564 91.8469 92.2099 91.1417 92.2099 90.3376C92.2099 89.5335 92.3564 88.8247 92.6482 88.2115C92.9452 87.5948 93.3573 87.1143 93.8858 86.7702C94.417 86.4227 95.0373 86.249 95.7464 86.249C96.1546 86.249 96.5589 86.3172 96.9566 86.4534C97.3557 86.5897 97.718 86.8112 98.0451 87.1177C98.3722 87.421 98.6339 87.8231 98.8275 88.3239C99.0225 88.8247 99.1193 89.4415 99.1193 90.1741V90.6851H93.0681V89.6425H97.892C97.892 89.1996 97.8044 88.8043 97.6264 88.4568C97.4524 88.1092 97.2038 87.835 96.8807 87.634C96.5601 87.4329 96.1821 87.3324 95.7464 87.3324C95.2649 87.3324 94.8502 87.4516 94.4995 87.6901C94.1515 87.9253 93.8833 88.2319 93.6962 88.6102C93.5091 88.9883 93.4149 89.3937 93.4149 89.8264V90.5216C93.4149 91.1144 93.5182 91.6169 93.7223 92.0292C93.9303 92.438 94.2182 92.7498 94.5859 92.9645C94.9535 93.1757 95.3813 93.2814 95.868 93.2814C96.186 93.2814 96.4712 93.237 96.7277 93.1485C96.9867 93.0565 97.2091 92.9201 97.3962 92.7396C97.5846 92.5556 97.7285 92.3273 97.8305 92.0548L98.9963 92.3819C98.8733 92.7771 98.6679 93.1246 98.3775 93.4244C98.0883 93.7209 97.7311 93.9526 97.3046 94.1195C96.8794 94.2831 96.4005 94.3648 95.868 94.3648Z" fill="#818999"/>
<path d="M59.53 133.452C62.4203 133.452 64.7634 131.109 64.7634 128.218C64.7634 125.328 62.4203 122.985 59.53 122.985C56.6397 122.985 54.2966 125.328 54.2966 128.218C54.2966 131.109 56.6397 133.452 59.53 133.452Z" fill="#AC96EC"/>
<path d="M78.4564 121.439V134.76H76.8432V121.439H78.4564ZM83.0174 128.75V134.76H81.4826V124.769H82.965V126.33H83.0959C83.3301 125.823 83.6859 125.415 84.1622 125.107C84.6397 124.795 85.2546 124.639 86.0095 124.639C86.686 124.639 87.2786 124.778 87.785 125.055C88.2926 125.329 88.6877 125.745 88.969 126.304C89.2516 126.859 89.3916 127.562 89.3916 128.412V134.76H87.8569V128.516C87.8569 127.731 87.6528 127.119 87.2459 126.682C86.8377 126.239 86.279 126.018 85.5673 126.018C85.078 126.018 84.6396 126.124 84.2537 126.337C83.8716 126.549 83.5707 126.859 83.3496 127.267C83.1285 127.675 83.0174 128.169 83.0174 128.75ZM96.5418 124.769V126.07H91.3646V124.769H96.5418ZM92.8731 122.375H94.4091V131.898C94.4091 132.332 94.4719 132.658 94.5975 132.874C94.727 133.087 94.892 133.229 95.0921 133.303C95.2962 133.372 95.5107 133.407 95.7358 133.407C95.9045 133.407 96.0433 133.398 96.1519 133.381C96.2605 133.359 96.3468 133.342 96.4122 133.329L96.7249 134.708C96.6203 134.747 96.475 134.786 96.2892 134.826C96.1022 134.869 95.8654 134.89 95.5801 134.89C95.1458 134.89 94.7205 134.797 94.3044 134.611C93.8923 134.424 93.5496 134.14 93.2774 133.758C93.0079 133.377 92.8731 132.896 92.8731 132.315V122.375ZM102.933 134.968C101.97 134.968 101.141 134.756 100.442 134.331C99.7485 133.902 99.2121 133.303 98.8353 132.536C98.4624 131.764 98.2753 130.867 98.2753 129.843C98.2753 128.819 98.4624 127.917 98.8353 127.137C99.2121 126.352 99.7367 125.741 100.409 125.303C101.086 124.86 101.875 124.639 102.777 124.639C103.297 124.639 103.811 124.726 104.319 124.899C104.826 125.073 105.288 125.355 105.704 125.745C106.12 126.131 106.452 126.643 106.7 127.28C106.946 127.917 107.07 128.702 107.07 129.635V130.285H99.3691V128.958H105.509C105.509 128.394 105.397 127.891 105.17 127.449C104.949 127.007 104.633 126.658 104.22 126.402C103.814 126.146 103.332 126.018 102.777 126.018C102.165 126.018 101.636 126.17 101.19 126.473C100.748 126.773 100.407 127.163 100.168 127.644C99.9303 128.126 99.8114 128.642 99.8114 129.192V130.077C99.8114 130.831 99.9408 131.471 100.201 131.996C100.465 132.516 100.832 132.913 101.3 133.186C101.769 133.454 102.313 133.589 102.933 133.589C103.336 133.589 103.701 133.533 104.025 133.42C104.355 133.303 104.639 133.13 104.879 132.9C105.117 132.666 105.301 132.375 105.431 132.028L106.914 132.444C106.757 132.948 106.496 133.39 106.127 133.771C105.758 134.149 105.302 134.444 104.761 134.656C104.219 134.865 103.609 134.968 102.933 134.968ZM110.94 121.439V134.76H109.405V121.439H110.94ZM115.287 121.439V134.76H113.752V121.439H115.287ZM122.287 134.968C121.325 134.968 120.494 134.756 119.796 134.331C119.103 133.902 118.567 133.303 118.19 132.536C117.817 131.764 117.63 130.867 117.63 129.843C117.63 128.819 117.817 127.917 118.19 127.137C118.567 126.352 119.091 125.741 119.764 125.303C120.44 124.86 121.229 124.639 122.132 124.639C122.651 124.639 123.165 124.726 123.673 124.899C124.181 125.073 124.643 125.355 125.059 125.745C125.475 126.131 125.807 126.643 126.054 127.28C126.3 127.917 126.425 128.702 126.425 129.635V130.285H118.724V128.958H124.864C124.864 128.394 124.751 127.891 124.525 127.449C124.304 127.007 123.987 126.658 123.575 126.402C123.168 126.146 122.687 126.018 122.132 126.018C121.52 126.018 120.991 126.17 120.545 126.473C120.103 126.773 119.761 127.163 119.523 127.644C119.285 128.126 119.166 128.642 119.166 129.192V130.077C119.166 130.831 119.295 131.471 119.556 131.996C119.82 132.516 120.186 132.913 120.655 133.186C121.123 133.454 121.667 133.589 122.287 133.589C122.69 133.589 123.055 133.533 123.38 133.42C123.71 133.303 123.994 133.13 124.232 132.9C124.471 132.666 124.656 132.375 124.785 132.028L126.269 132.444C126.112 132.948 125.85 133.39 125.481 133.771C125.112 134.149 124.657 134.444 124.115 134.656C123.574 134.865 122.964 134.968 122.287 134.968ZM132.818 134.968C131.882 134.968 131.076 134.747 130.399 134.305C129.723 133.863 129.202 133.253 128.837 132.477C128.473 131.701 128.292 130.814 128.292 129.817C128.292 128.802 128.477 127.907 128.85 127.13C129.228 126.35 129.753 125.741 130.424 125.303C131.101 124.86 131.891 124.639 132.792 124.639C133.495 124.639 134.128 124.769 134.692 125.029C135.256 125.29 135.718 125.654 136.078 126.122C136.437 126.59 136.661 127.137 136.747 127.761H135.213C135.095 127.306 134.835 126.903 134.432 126.551C134.033 126.196 133.495 126.018 132.818 126.018C132.22 126.018 131.696 126.174 131.244 126.486C130.797 126.794 130.449 127.23 130.196 127.794C129.951 128.353 129.826 129.01 129.826 129.765C129.826 130.537 129.948 131.209 130.19 131.781C130.437 132.354 130.785 132.798 131.231 133.114C131.683 133.431 132.211 133.589 132.818 133.589C133.217 133.589 133.58 133.52 133.904 133.381C134.23 133.242 134.505 133.044 134.731 132.783C134.956 132.523 135.117 132.21 135.213 131.846H136.747C136.661 132.435 136.445 132.966 136.104 133.44C135.765 133.908 135.316 134.281 134.757 134.559C134.201 134.832 133.555 134.968 132.818 134.968ZM143.336 124.769V126.07H138.159V124.769H143.336ZM139.668 122.375H141.202V131.898C141.202 132.332 141.265 132.658 141.392 132.874C141.522 133.087 141.686 133.229 141.885 133.303C142.089 133.372 142.304 133.407 142.53 133.407C142.699 133.407 142.838 133.398 142.946 133.381C143.055 133.359 143.141 133.342 143.207 133.329L143.518 134.708C143.415 134.747 143.27 134.786 143.082 134.826C142.897 134.869 142.66 134.89 142.373 134.89C141.94 134.89 141.515 134.797 141.099 134.611C140.687 134.424 140.344 134.14 140.071 133.758C139.802 133.377 139.668 132.896 139.668 132.315V122.375ZM151.941 130.675V124.769H153.477V134.76H151.941V133.068H151.838C151.604 133.576 151.24 134.008 150.745 134.364C150.251 134.714 149.627 134.89 148.872 134.89C148.248 134.89 147.692 134.754 147.206 134.48C146.721 134.203 146.339 133.787 146.062 133.232C145.784 132.672 145.645 131.968 145.645 131.118V124.769H147.18V131.013C147.18 131.742 147.384 132.323 147.792 132.757C148.203 133.19 148.728 133.407 149.366 133.407C149.747 133.407 150.136 133.309 150.531 133.114C150.93 132.919 151.264 132.62 151.532 132.217C151.805 131.814 151.941 131.3 151.941 130.675ZM159.229 134.994C158.596 134.994 158.021 134.875 157.504 134.637C156.989 134.394 156.579 134.045 156.276 133.589C155.972 133.13 155.821 132.575 155.821 131.924C155.821 131.352 155.933 130.887 156.158 130.532C156.384 130.172 156.685 129.89 157.062 129.687C157.44 129.483 157.856 129.331 158.312 129.231C158.771 129.127 159.233 129.045 159.697 128.984C160.304 128.906 160.796 128.847 161.173 128.808C161.555 128.765 161.832 128.694 162.006 128.594C162.184 128.494 162.273 128.321 162.273 128.073V128.021C162.273 127.38 162.097 126.881 161.746 126.525C161.399 126.17 160.872 125.992 160.166 125.992C159.433 125.992 158.858 126.152 158.441 126.473C158.025 126.794 157.732 127.137 157.563 127.501L156.107 126.981C156.366 126.374 156.714 125.901 157.147 125.563C157.586 125.22 158.062 124.982 158.579 124.847C159.098 124.708 159.611 124.639 160.113 124.639C160.434 124.639 160.803 124.678 161.219 124.756C161.64 124.83 162.046 124.984 162.436 125.218C162.829 125.452 163.158 125.806 163.418 126.278C163.677 126.751 163.808 127.384 163.808 128.178V134.76H162.273V133.407H162.195C162.09 133.625 161.917 133.856 161.674 134.103C161.432 134.351 161.109 134.561 160.705 134.734C160.302 134.908 159.81 134.994 159.229 134.994ZM159.463 133.615C160.07 133.615 160.582 133.496 160.998 133.258C161.419 133.019 161.736 132.711 161.948 132.335C162.165 131.956 162.273 131.56 162.273 131.144V129.739C162.208 129.817 162.064 129.888 161.843 129.953C161.627 130.014 161.376 130.068 161.089 130.116C160.807 130.159 160.532 130.198 160.262 130.233C159.998 130.263 159.784 130.289 159.619 130.311C159.22 130.363 158.847 130.448 158.5 130.565C158.157 130.677 157.88 130.848 157.668 131.078C157.46 131.304 157.355 131.612 157.355 132.002C157.355 132.536 157.553 132.939 157.947 133.212C158.346 133.481 158.852 133.615 159.463 133.615ZM168.145 121.439V134.76H166.609V121.439H168.145ZM176.316 134.76V121.439H180.818C181.862 121.439 182.716 121.627 183.38 122.005C184.048 122.378 184.543 122.883 184.863 123.52C185.184 124.158 185.345 124.869 185.345 125.654C185.345 126.439 185.184 127.152 184.863 127.794C184.547 128.436 184.056 128.947 183.393 129.329C182.729 129.706 181.88 129.895 180.843 129.895H177.618V128.464H180.792C181.507 128.464 182.082 128.34 182.515 128.093C182.949 127.846 183.263 127.512 183.458 127.091C183.658 126.666 183.758 126.187 183.758 125.654C183.758 125.12 183.658 124.643 183.458 124.223C183.263 123.802 182.947 123.473 182.508 123.234C182.07 122.991 181.489 122.87 180.766 122.87H177.929V134.76H176.316ZM187.735 134.76V124.769H189.217V126.278H189.322C189.504 125.784 189.834 125.383 190.311 125.075C190.787 124.767 191.325 124.613 191.924 124.613C192.037 124.613 192.177 124.615 192.347 124.62C192.516 124.624 192.644 124.63 192.73 124.639V126.2C192.678 126.187 192.559 126.168 192.373 126.142C192.19 126.111 191.998 126.096 191.794 126.096C191.308 126.096 190.875 126.198 190.493 126.402C190.115 126.601 189.817 126.879 189.596 127.234C189.378 127.586 189.27 127.987 189.27 128.438V134.76H187.735ZM198.305 134.968C197.403 134.968 196.611 134.754 195.931 134.324C195.254 133.895 194.726 133.295 194.344 132.523C193.967 131.751 193.777 130.848 193.777 129.817C193.777 128.776 193.967 127.868 194.344 127.091C194.726 126.315 195.254 125.712 195.931 125.283C196.611 124.854 197.403 124.639 198.305 124.639C199.207 124.639 199.996 124.854 200.672 125.283C201.354 125.712 201.882 126.315 202.259 127.091C202.641 127.868 202.832 128.776 202.832 129.817C202.832 130.848 202.641 131.751 202.259 132.523C201.882 133.295 201.354 133.895 200.672 134.324C199.996 134.754 199.207 134.968 198.305 134.968ZM198.305 133.589C198.99 133.589 199.554 133.414 199.996 133.062C200.438 132.711 200.766 132.249 200.978 131.676C201.19 131.105 201.298 130.484 201.298 129.817C201.298 129.149 201.19 128.527 200.978 127.95C200.766 127.373 200.438 126.907 199.996 126.551C199.554 126.196 198.99 126.018 198.305 126.018C197.62 126.018 197.056 126.196 196.614 126.551C196.171 126.907 195.844 127.373 195.631 127.95C195.419 128.527 195.313 129.149 195.313 129.817C195.313 130.484 195.419 131.105 195.631 131.676C195.844 132.249 196.171 132.711 196.614 133.062C197.056 133.414 197.62 133.589 198.305 133.589ZM205.175 138.507V124.769H206.658V126.356H206.841C206.954 126.183 207.109 125.962 207.309 125.693C207.512 125.42 207.803 125.177 208.181 124.964C208.561 124.748 209.078 124.639 209.729 124.639C210.57 124.639 211.312 124.849 211.953 125.27C212.595 125.691 213.096 126.287 213.456 127.059C213.816 127.831 213.995 128.741 213.995 129.791C213.995 130.848 213.816 131.765 213.456 132.543C213.096 133.314 212.598 133.912 211.959 134.338C211.322 134.758 210.587 134.968 209.755 134.968C209.112 134.968 208.599 134.862 208.213 134.649C207.828 134.433 207.53 134.187 207.322 133.915C207.113 133.638 206.954 133.407 206.841 133.225H206.71V138.507H205.175ZM206.684 129.765C206.684 130.519 206.795 131.184 207.016 131.761C207.237 132.334 207.561 132.783 207.986 133.108C208.41 133.428 208.93 133.589 209.547 133.589C210.188 133.589 210.724 133.42 211.153 133.082C211.586 132.739 211.912 132.28 212.129 131.703C212.35 131.122 212.46 130.476 212.46 129.765C212.46 129.062 212.352 128.429 212.136 127.865C211.923 127.297 211.599 126.848 211.166 126.519C210.737 126.185 210.197 126.018 209.547 126.018C208.923 126.018 208.398 126.176 207.973 126.493C207.548 126.805 207.227 127.243 207.01 127.807C206.793 128.366 206.684 129.019 206.684 129.765ZM220.526 134.968C219.563 134.968 218.733 134.756 218.035 134.331C217.34 133.902 216.805 133.303 216.429 132.536C216.056 131.764 215.869 130.867 215.869 129.843C215.869 128.819 216.056 127.917 216.429 127.137C216.805 126.352 217.33 125.741 218.003 125.303C218.679 124.86 219.468 124.639 220.371 124.639C220.89 124.639 221.404 124.726 221.912 124.899C222.42 125.073 222.881 125.355 223.297 125.745C223.714 126.131 224.046 126.643 224.292 127.28C224.539 127.917 224.663 128.702 224.663 129.635V130.285H216.961V128.958H223.102C223.102 128.394 222.989 127.891 222.764 127.449C222.543 127.007 222.226 126.658 221.814 126.402C221.407 126.146 220.925 126.018 220.371 126.018C219.758 126.018 219.23 126.17 218.784 126.473C218.34 126.773 218 127.163 217.762 127.644C217.524 128.126 217.405 128.642 217.405 129.192V130.077C217.405 130.831 217.534 131.471 217.795 131.996C218.059 132.516 218.425 132.913 218.894 133.186C219.362 133.454 219.906 133.589 220.526 133.589C220.929 133.589 221.294 133.533 221.619 133.42C221.949 133.303 222.232 133.13 222.471 132.9C222.71 132.666 222.894 132.375 223.024 132.028L224.508 132.444C224.351 132.948 224.089 133.39 223.72 133.771C223.351 134.149 222.896 134.444 222.354 134.656C221.812 134.865 221.203 134.968 220.526 134.968ZM226.999 134.76V124.769H228.481V126.278H228.586C228.768 125.784 229.097 125.383 229.574 125.075C230.051 124.767 230.589 124.613 231.187 124.613C231.301 124.613 231.441 124.615 231.611 124.62C231.779 124.624 231.908 124.63 231.994 124.639V126.2C231.942 126.187 231.823 126.168 231.636 126.142C231.454 126.111 231.261 126.096 231.057 126.096C230.572 126.096 230.137 126.198 229.757 126.402C229.379 126.601 229.08 126.879 228.859 127.234C228.642 127.586 228.533 127.987 228.533 128.438V134.76H226.999ZM238.784 124.769V126.07H233.607V124.769H238.784ZM235.116 122.375H236.65V131.898C236.65 132.332 236.715 132.658 236.84 132.874C236.97 133.087 237.135 133.229 237.335 133.303C237.538 133.372 237.752 133.407 237.978 133.407C238.147 133.407 238.286 133.398 238.395 133.381C238.503 133.359 238.589 133.342 238.655 133.329L238.966 134.708C238.863 134.747 238.718 134.786 238.531 134.826C238.345 134.869 238.108 134.89 237.821 134.89C237.388 134.89 236.963 134.797 236.547 134.611C236.135 134.424 235.792 134.14 235.519 133.758C235.251 133.377 235.116 132.896 235.116 132.315V122.375ZM242.083 138.507C241.822 138.507 241.591 138.485 241.387 138.442C241.183 138.403 241.041 138.363 240.964 138.324L241.354 136.971C241.727 137.067 242.057 137.102 242.343 137.076C242.628 137.05 242.882 136.922 243.103 136.693C243.33 136.466 243.535 136.1 243.722 135.592L244.007 134.813L240.313 124.769H241.978L244.736 132.731H244.841L247.599 124.769H249.263L245.023 136.218C244.832 136.733 244.595 137.161 244.313 137.499C244.032 137.841 243.704 138.095 243.331 138.26C242.963 138.425 242.546 138.507 242.083 138.507Z" fill="#475467"/>
<path d="M266.249 133.452C269.14 133.452 271.483 131.109 271.483 128.218C271.483 125.328 269.14 122.985 266.249 122.985C263.359 122.985 261.016 125.328 261.016 128.218C261.016 131.109 263.359 133.452 266.249 133.452Z" fill="#FFB13E"/>
<path d="M283.563 134.76V121.439H285.176V133.329H291.368V134.76H283.563ZM297.847 134.968C296.884 134.968 296.053 134.756 295.355 134.331C294.661 133.902 294.126 133.303 293.748 132.536C293.375 131.764 293.19 130.867 293.19 129.843C293.19 128.819 293.375 127.917 293.748 127.137C294.126 126.352 294.651 125.741 295.323 125.303C296 124.86 296.789 124.639 297.69 124.639C298.211 124.639 298.725 124.726 299.233 124.899C299.739 125.073 300.201 125.355 300.617 125.745C301.034 126.131 301.365 126.643 301.613 127.28C301.86 127.917 301.983 128.702 301.983 129.635V130.285H294.282V128.958H300.422C300.422 128.394 300.31 127.891 300.085 127.449C299.863 127.007 299.547 126.658 299.135 126.402C298.726 126.146 298.245 126.018 297.69 126.018C297.079 126.018 296.551 126.17 296.103 126.473C295.661 126.773 295.321 127.163 295.083 127.644C294.843 128.126 294.724 128.642 294.724 129.192V130.077C294.724 130.831 294.855 131.471 295.114 131.996C295.38 132.516 295.746 132.913 296.214 133.186C296.683 133.454 297.227 133.589 297.847 133.589C298.25 133.589 298.614 133.533 298.94 133.42C299.269 133.303 299.553 133.13 299.791 132.9C300.03 132.666 300.214 132.375 300.345 132.028L301.827 132.444C301.672 132.948 301.409 133.39 301.041 133.771C300.672 134.149 300.217 134.444 299.675 134.656C299.132 134.865 298.524 134.968 297.847 134.968ZM308.352 138.715C307.61 138.715 306.973 138.62 306.439 138.429C305.905 138.242 305.462 137.996 305.106 137.687C304.754 137.383 304.475 137.059 304.267 136.711L305.489 135.853C305.628 136.035 305.803 136.244 306.017 136.477C306.229 136.716 306.519 136.922 306.888 137.096C307.261 137.274 307.749 137.362 308.352 137.362C309.158 137.362 309.824 137.166 310.349 136.776C310.873 136.386 311.136 135.775 311.136 134.942V132.913H311.005C310.893 133.095 310.732 133.321 310.524 133.589C310.32 133.854 310.025 134.09 309.639 134.298C309.257 134.502 308.742 134.604 308.092 134.604C307.284 134.604 306.561 134.413 305.918 134.031C305.281 133.651 304.776 133.095 304.403 132.366C304.034 131.638 303.85 130.753 303.85 129.713C303.85 128.689 304.03 127.798 304.39 127.039C304.75 126.276 305.251 125.686 305.892 125.27C306.535 124.849 307.276 124.639 308.118 124.639C308.768 124.639 309.284 124.748 309.666 124.964C310.052 125.177 310.346 125.42 310.55 125.693C310.758 125.962 310.919 126.183 311.032 126.356H311.187V124.769H312.671V135.047C312.671 135.905 312.476 136.604 312.085 137.141C311.699 137.683 311.179 138.079 310.524 138.331C309.874 138.587 309.15 138.715 308.352 138.715ZM308.3 133.225C308.916 133.225 309.435 133.084 309.861 132.803C310.286 132.52 310.609 132.115 310.83 131.586C311.051 131.058 311.161 130.424 311.161 129.687C311.161 128.967 311.054 128.331 310.837 127.781C310.619 127.23 310.299 126.799 309.874 126.486C309.448 126.174 308.924 126.018 308.3 126.018C307.649 126.018 307.106 126.183 306.673 126.512C306.244 126.842 305.921 127.284 305.704 127.839C305.492 128.394 305.386 129.01 305.386 129.687C305.386 130.38 305.495 130.993 305.71 131.527C305.932 132.056 306.257 132.473 306.686 132.777C307.119 133.075 307.657 133.225 308.3 133.225ZM318.421 134.994C317.788 134.994 317.213 134.875 316.697 134.637C316.181 134.394 315.772 134.045 315.468 133.589C315.165 133.13 315.013 132.575 315.013 131.924C315.013 131.352 315.125 130.887 315.35 130.532C315.575 130.172 315.878 129.89 316.254 129.687C316.633 129.483 317.049 129.331 317.504 129.231C317.963 129.127 318.425 129.045 318.889 128.984C319.497 128.906 319.988 128.847 320.365 128.808C320.747 128.765 321.025 128.694 321.199 128.594C321.375 128.494 321.464 128.321 321.464 128.073V128.021C321.464 127.38 321.289 126.881 320.938 126.525C320.592 126.17 320.064 125.992 319.358 125.992C318.624 125.992 318.049 126.152 317.633 126.473C317.217 126.794 316.924 127.137 316.756 127.501L315.298 126.981C315.558 126.374 315.905 125.901 316.339 125.563C316.778 125.22 317.254 124.982 317.771 124.847C318.29 124.708 318.802 124.639 319.306 124.639C319.626 124.639 319.995 124.678 320.411 124.756C320.832 124.83 321.237 124.984 321.628 125.218C322.022 125.452 322.35 125.806 322.609 126.278C322.869 126.751 323 127.384 323 128.178V134.76H321.464V133.407H321.387C321.282 133.625 321.11 133.856 320.866 134.103C320.623 134.351 320.301 134.561 319.897 134.734C319.494 134.908 319.002 134.994 318.421 134.994ZM318.655 133.615C319.262 133.615 319.774 133.496 320.19 133.258C320.61 133.019 320.927 132.711 321.14 132.335C321.357 131.956 321.464 131.56 321.464 131.144V129.739C321.4 129.817 321.256 129.888 321.035 129.953C320.819 130.014 320.567 130.068 320.281 130.116C319.999 130.159 319.724 130.198 319.455 130.233C319.19 130.263 318.976 130.289 318.811 130.311C318.412 130.363 318.039 130.448 317.692 130.565C317.349 130.677 317.072 130.848 316.86 131.078C316.651 131.304 316.547 131.612 316.547 132.002C316.547 132.536 316.745 132.939 317.139 133.212C317.538 133.481 318.043 133.615 318.655 133.615ZM327.337 121.439V134.76H325.802V121.439H327.337ZM336.055 134.76H334.363L339.255 121.439H340.919L345.811 134.76H344.12L340.14 123.546H340.035L336.055 134.76ZM336.679 129.556H343.496V130.987H336.679V129.556ZM351.45 134.968C350.618 134.968 349.883 134.758 349.246 134.338C348.609 133.912 348.11 133.314 347.75 132.543C347.391 131.765 347.21 130.848 347.21 129.791C347.21 128.741 347.391 127.831 347.75 127.059C348.11 126.287 348.611 125.691 349.252 125.27C349.895 124.849 350.635 124.639 351.477 124.639C352.127 124.639 352.641 124.748 353.019 124.964C353.4 125.177 353.69 125.42 353.89 125.693C354.095 125.962 354.253 126.183 354.365 126.356H354.495V121.439H356.03V134.76H354.547V133.225H354.365C354.253 133.407 354.092 133.638 353.884 133.915C353.676 134.187 353.379 134.433 352.993 134.649C352.607 134.862 352.093 134.968 351.45 134.968ZM351.66 133.589C352.275 133.589 352.795 133.428 353.221 133.108C353.646 132.783 353.968 132.335 354.189 131.761C354.411 131.184 354.521 130.519 354.521 129.765C354.521 129.019 354.412 128.366 354.195 127.807C353.979 127.243 353.658 126.805 353.234 126.493C352.808 126.176 352.284 126.018 351.66 126.018C351.008 126.018 350.467 126.185 350.033 126.519C349.604 126.848 349.281 127.297 349.064 127.865C348.851 128.429 348.745 129.062 348.745 129.765C348.745 130.476 348.853 131.122 349.07 131.703C349.292 132.28 349.616 132.739 350.046 133.082C350.48 133.42 351.017 133.589 351.66 133.589ZM367.225 124.769L363.53 134.76H361.97L358.275 124.769H359.939L362.697 132.731H362.802L365.56 124.769H367.225ZM369.251 134.76V124.769H370.787V134.76H369.251ZM370.032 123.104C369.732 123.104 369.474 123.002 369.257 122.798C369.045 122.594 368.939 122.349 368.939 122.063C368.939 121.777 369.045 121.532 369.257 121.328C369.474 121.124 369.732 121.022 370.032 121.022C370.33 121.022 370.586 121.124 370.798 121.328C371.015 121.532 371.124 121.777 371.124 122.063C371.124 122.349 371.015 122.594 370.798 122.798C370.586 123.002 370.33 123.104 370.032 123.104ZM377.657 134.968C376.72 134.968 375.913 134.747 375.236 134.305C374.56 133.863 374.04 133.253 373.675 132.477C373.312 131.701 373.13 130.814 373.13 129.817C373.13 128.802 373.316 127.907 373.688 127.13C374.065 126.35 374.59 125.741 375.262 125.303C375.939 124.86 376.728 124.639 377.63 124.639C378.333 124.639 378.966 124.769 379.53 125.029C380.093 125.29 380.555 125.654 380.916 126.122C381.276 126.59 381.498 127.137 381.586 127.761H380.05C379.933 127.306 379.673 126.903 379.27 126.551C378.871 126.196 378.333 126.018 377.657 126.018C377.057 126.018 376.533 126.174 376.083 126.486C375.635 126.794 375.286 127.23 375.035 127.794C374.787 128.353 374.664 129.01 374.664 129.765C374.664 130.537 374.786 131.209 375.028 131.781C375.275 132.354 375.622 132.798 376.07 133.114C376.52 133.431 377.05 133.589 377.657 133.589C378.056 133.589 378.417 133.52 378.743 133.381C379.068 133.242 379.343 133.044 379.568 132.783C379.795 132.523 379.954 132.21 380.05 131.846H381.586C381.498 132.435 381.283 132.966 380.941 133.44C380.603 133.908 380.154 134.281 379.594 134.559C379.04 134.832 378.393 134.968 377.657 134.968ZM388.018 134.968C387.056 134.968 386.225 134.756 385.526 134.331C384.833 133.902 384.298 133.303 383.92 132.536C383.547 131.764 383.361 130.867 383.361 129.843C383.361 128.819 383.547 127.917 383.92 127.137C384.298 126.352 384.823 125.741 385.495 125.303C386.171 124.86 386.96 124.639 387.862 124.639C388.383 124.639 388.897 124.726 389.403 124.899C389.911 125.073 390.373 125.355 390.789 125.745C391.206 126.131 391.537 126.643 391.784 127.28C392.031 127.917 392.154 128.702 392.154 129.635V130.285H384.454V128.958H390.594C390.594 128.394 390.481 127.891 390.256 127.449C390.035 127.007 389.718 126.658 389.306 126.402C388.898 126.146 388.417 126.018 387.862 126.018C387.251 126.018 386.721 126.17 386.275 126.473C385.833 126.773 385.492 127.163 385.254 127.644C385.015 128.126 384.896 128.642 384.896 129.192V130.077C384.896 130.831 385.027 131.471 385.286 131.996C385.551 132.516 385.918 132.913 386.386 133.186C386.854 133.454 387.399 133.589 388.018 133.589C388.422 133.589 388.786 133.533 389.111 133.42C389.441 133.303 389.725 133.13 389.963 132.9C390.201 132.666 390.386 132.375 390.516 132.028L391.999 132.444C391.843 132.948 391.58 133.39 391.213 133.771C390.844 134.149 390.388 134.444 389.847 134.656C389.304 134.865 388.695 134.968 388.018 134.968Z" fill="#475467"/>
<path d="M408.86 133.452C411.75 133.452 414.093 131.109 414.093 128.218C414.093 125.328 411.75 122.985 408.86 122.985C405.969 122.985 403.626 125.328 403.626 128.218C403.626 131.109 405.969 133.452 408.86 133.452Z" fill="#6A8AFE"/>
<path d="M426.173 134.76V121.439H427.786V133.329H433.979V134.76H426.173ZM436.268 134.76V124.769H437.803V134.76H436.268ZM437.048 123.104C436.75 123.104 436.492 123.002 436.275 122.798C436.062 122.594 435.956 122.349 435.956 122.063C435.956 121.777 436.062 121.532 436.275 121.328C436.492 121.124 436.75 121.022 437.048 121.022C437.348 121.022 437.604 121.124 437.816 121.328C438.033 121.532 438.142 121.777 438.142 122.063C438.142 122.349 438.033 122.594 437.816 122.798C437.604 123.002 437.348 123.104 437.048 123.104ZM444.96 124.769V126.07H439.783V124.769H444.96ZM441.291 122.375H442.826V131.898C442.826 132.332 442.89 132.658 443.016 132.874C443.145 133.087 443.31 133.229 443.509 133.303C443.713 133.372 443.927 133.407 444.154 133.407C444.323 133.407 444.461 133.398 444.57 133.381C444.678 133.359 444.765 133.342 444.83 133.329L445.142 134.708C445.038 134.747 444.893 134.786 444.706 134.826C444.52 134.869 444.283 134.89 443.997 134.89C443.564 134.89 443.139 134.797 442.722 134.611C442.31 134.424 441.968 134.14 441.694 133.758C441.426 133.377 441.291 132.896 441.291 132.315V122.375ZM447.269 134.76V124.769H448.804V134.76H447.269ZM448.05 123.104C447.75 123.104 447.493 123.002 447.275 122.798C447.064 122.594 446.956 122.349 446.956 122.063C446.956 121.777 447.064 121.532 447.275 121.328C447.493 121.124 447.75 121.022 448.05 121.022C448.348 121.022 448.605 121.124 448.817 121.328C449.034 121.532 449.143 121.777 449.143 122.063C449.143 122.349 449.034 122.594 448.817 122.798C448.605 123.002 448.348 123.104 448.05 123.104ZM455.649 138.715C454.907 138.715 454.27 138.62 453.736 138.429C453.202 138.242 452.759 137.996 452.403 137.687C452.051 137.383 451.772 137.059 451.564 136.711L452.786 135.853C452.925 136.035 453.102 136.244 453.314 136.477C453.525 136.716 453.816 136.922 454.185 137.096C454.558 137.274 455.046 137.362 455.649 137.362C456.455 137.362 457.121 137.166 457.646 136.776C458.17 136.386 458.433 135.775 458.433 134.942V132.913H458.302C458.19 133.095 458.029 133.321 457.821 133.589C457.617 133.854 457.322 134.09 456.936 134.298C456.554 134.502 456.039 134.604 455.389 134.604C454.581 134.604 453.858 134.413 453.215 134.031C452.578 133.651 452.073 133.095 451.7 132.366C451.331 131.638 451.147 130.753 451.147 129.713C451.147 128.689 451.327 127.798 451.687 127.039C452.047 126.276 452.548 125.686 453.189 125.27C453.832 124.849 454.573 124.639 455.415 124.639C456.065 124.639 456.58 124.748 456.963 124.964C457.348 125.177 457.643 125.42 457.847 125.693C458.055 125.962 458.216 126.183 458.328 126.356H458.484V124.769H459.968V135.047C459.968 135.905 459.773 136.604 459.382 137.141C458.996 137.683 458.476 138.079 457.821 138.331C457.171 138.587 456.447 138.715 455.649 138.715ZM455.597 133.225C456.213 133.225 456.732 133.084 457.157 132.803C457.583 132.52 457.906 132.115 458.127 131.586C458.348 131.058 458.458 130.424 458.458 129.687C458.458 128.967 458.351 128.331 458.134 127.781C457.916 127.23 457.596 126.799 457.171 126.486C456.745 126.174 456.221 126.018 455.597 126.018C454.946 126.018 454.403 126.183 453.97 126.512C453.541 126.842 453.218 127.284 453.001 127.839C452.789 128.394 452.683 129.01 452.683 129.687C452.683 130.38 452.791 130.993 453.007 131.527C453.228 132.056 453.554 132.473 453.983 132.777C454.416 133.075 454.954 133.225 455.597 133.225ZM465.718 134.994C465.085 134.994 464.51 134.875 463.994 134.637C463.478 134.394 463.069 134.045 462.765 133.589C462.462 133.13 462.31 132.575 462.31 131.924C462.31 131.352 462.422 130.887 462.647 130.532C462.872 130.172 463.175 129.89 463.551 129.687C463.93 129.483 464.346 129.331 464.801 129.231C465.26 129.127 465.722 129.045 466.186 128.984C466.793 128.906 467.285 128.847 467.662 128.808C468.044 128.765 468.322 128.694 468.496 128.594C468.674 128.494 468.761 128.321 468.761 128.073V128.021C468.761 127.38 468.586 126.881 468.235 126.525C467.889 126.17 467.361 125.992 466.655 125.992C465.922 125.992 465.346 126.152 464.93 126.473C464.514 126.794 464.221 127.137 464.052 127.501L462.595 126.981C462.855 126.374 463.202 125.901 463.636 125.563C464.075 125.22 464.551 124.982 465.068 124.847C465.587 124.708 466.099 124.639 466.602 124.639C466.923 124.639 467.292 124.678 467.708 124.756C468.129 124.83 468.534 124.984 468.925 125.218C469.319 125.452 469.647 125.806 469.906 126.278C470.166 126.751 470.297 127.384 470.297 128.178V134.76H468.761V133.407H468.684C468.579 133.625 468.407 133.856 468.163 134.103C467.92 134.351 467.598 134.561 467.194 134.734C466.791 134.908 466.299 134.994 465.718 134.994ZM465.952 133.615C466.559 133.615 467.071 133.496 467.487 133.258C467.908 133.019 468.224 132.711 468.437 132.335C468.654 131.956 468.761 131.56 468.761 131.144V129.739C468.697 129.817 468.553 129.888 468.332 129.953C468.116 130.014 467.864 130.068 467.578 130.116C467.296 130.159 467.021 130.198 466.752 130.233C466.487 130.263 466.273 130.289 466.108 130.311C465.709 130.363 465.336 130.448 464.989 130.565C464.646 130.677 464.369 130.848 464.157 131.078C463.948 131.304 463.844 131.612 463.844 132.002C463.844 132.536 464.042 132.939 464.436 133.212C464.835 133.481 465.34 133.615 465.952 133.615ZM477.443 124.769V126.07H472.266V124.769H477.443ZM473.775 122.375H475.311V131.898C475.311 132.332 475.374 132.658 475.499 132.874C475.629 133.087 475.794 133.229 475.994 133.303C476.197 133.372 476.411 133.407 476.638 133.407C476.806 133.407 476.945 133.398 477.054 133.381C477.162 133.359 477.248 133.342 477.314 133.329L477.625 134.708C477.522 134.747 477.377 134.786 477.19 134.826C477.004 134.869 476.767 134.89 476.481 134.89C476.047 134.89 475.622 134.797 475.206 134.611C474.794 134.424 474.451 134.14 474.179 133.758C473.91 133.377 473.775 132.896 473.775 132.315V122.375ZM479.753 134.76V124.769H481.287V134.76H479.753ZM480.534 123.104C480.234 123.104 479.976 123.002 479.759 122.798C479.547 122.594 479.441 122.349 479.441 122.063C479.441 121.777 479.547 121.532 479.759 121.328C479.976 121.124 480.234 121.022 480.534 121.022C480.832 121.022 481.088 121.124 481.3 121.328C481.518 121.532 481.626 121.777 481.626 122.063C481.626 122.349 481.518 122.594 481.3 122.798C481.088 123.002 480.832 123.104 480.534 123.104ZM488.159 134.968C487.256 134.968 486.465 134.754 485.784 134.325C485.108 133.895 484.579 133.295 484.197 132.523C483.82 131.751 483.632 130.848 483.632 129.817C483.632 128.776 483.82 127.868 484.197 127.091C484.579 126.315 485.108 125.712 485.784 125.283C486.465 124.854 487.256 124.639 488.159 124.639C489.06 124.639 489.849 124.854 490.526 125.283C491.207 125.712 491.736 126.315 492.113 127.091C492.495 127.868 492.686 128.776 492.686 129.817C492.686 130.848 492.495 131.751 492.113 132.523C491.736 133.295 491.207 133.895 490.526 134.325C489.849 134.754 489.06 134.968 488.159 134.968ZM488.159 133.589C488.843 133.589 489.407 133.414 489.849 133.062C490.291 132.711 490.62 132.249 490.832 131.676C491.044 131.105 491.151 130.484 491.151 129.817C491.151 129.149 491.044 128.527 490.832 127.95C490.62 127.373 490.291 126.907 489.849 126.551C489.407 126.196 488.843 126.018 488.159 126.018C487.473 126.018 486.909 126.196 486.467 126.551C486.025 126.907 485.698 127.373 485.485 127.95C485.273 128.527 485.167 129.149 485.167 129.817C485.167 130.484 485.273 131.105 485.485 131.676C485.698 132.249 486.025 132.711 486.467 133.062C486.909 133.414 487.473 133.589 488.159 133.589ZM496.564 128.75V134.76H495.029V124.769H496.511V126.33H496.642C496.876 125.823 497.232 125.415 497.709 125.107C498.186 124.795 498.801 124.639 499.556 124.639C500.232 124.639 500.825 124.778 501.331 125.055C501.839 125.329 502.234 125.745 502.515 126.304C502.798 126.859 502.938 127.562 502.938 128.412V134.76H501.403V128.516C501.403 127.731 501.199 127.119 500.792 126.682C500.384 126.239 499.825 126.018 499.114 126.018C498.624 126.018 498.186 126.124 497.8 126.337C497.418 126.549 497.117 126.859 496.896 127.267C496.675 127.675 496.564 128.169 496.564 128.75Z" fill="#475467"/>
<path d="M520.069 133.452C522.96 133.452 525.303 131.109 525.303 128.218C525.303 125.328 522.96 122.985 520.069 122.985C517.179 122.985 514.836 125.328 514.836 128.218C514.836 131.109 517.179 133.452 520.069 133.452Z" fill="#D67FF5"/>
<path d="M537.383 121.439H539.309L543.836 132.497H543.991L548.518 121.439H550.444V134.76H548.934V124.639H548.805L544.642 134.76H543.185L539.022 124.639H538.891V134.76H537.383V121.439ZM556.416 134.994C555.777 134.994 555.203 134.875 554.687 134.637C554.17 134.394 553.761 134.045 553.457 133.589C553.154 133.13 553.002 132.575 553.002 131.924C553.002 131.352 553.115 130.887 553.341 130.532C553.566 130.172 553.867 129.89 554.245 129.687C554.622 129.483 555.038 129.331 555.493 129.231C555.952 129.127 556.416 129.045 556.873 128.984C557.488 128.906 557.972 128.847 558.352 128.808C558.731 128.765 559.019 128.694 559.189 128.594C559.359 128.494 559.451 128.321 559.451 128.073V128.021C559.451 127.38 559.281 126.881 558.928 126.525C558.574 126.17 558.051 125.992 557.344 125.992C556.612 125.992 556.04 126.152 555.624 126.473C555.207 126.794 554.915 127.137 554.745 127.501L553.289 126.981C553.549 126.374 553.896 125.901 554.329 125.563C554.767 125.22 555.245 124.982 555.76 124.847C556.285 124.708 556.795 124.639 557.292 124.639C557.619 124.639 557.986 124.678 558.404 124.756C558.823 124.83 559.228 124.984 559.621 125.218C560.013 125.452 560.341 125.806 560.602 126.278C560.864 126.751 560.995 127.384 560.995 128.178V134.76H559.451V133.407H559.372C559.268 133.625 559.098 133.856 558.862 134.103C558.614 134.351 558.286 134.561 557.881 134.734C557.488 134.908 556.991 134.994 556.416 134.994ZM556.651 133.615C557.253 133.615 557.763 133.496 558.182 133.258C558.6 133.019 558.914 132.711 559.124 132.335C559.346 131.956 559.451 131.56 559.451 131.144V129.739C559.385 129.817 559.242 129.888 559.019 129.953C558.81 130.014 558.561 130.068 558.273 130.116C557.986 130.159 557.711 130.198 557.449 130.233C557.174 130.263 556.965 130.289 556.795 130.311C556.402 130.363 556.028 130.448 555.682 130.565C555.339 130.677 555.061 130.848 554.849 131.078C554.641 131.304 554.537 131.612 554.537 132.002C554.537 132.536 554.734 132.939 555.129 133.212C555.528 133.481 556.033 133.615 556.651 133.615ZM563.795 134.76V124.769H565.273V126.278H565.378C565.561 125.784 565.888 125.383 566.372 125.075C566.843 124.767 567.379 124.613 567.981 124.613C568.099 124.613 568.23 124.615 568.4 124.62C568.57 124.624 568.701 124.63 568.792 124.639V126.2C568.74 126.187 568.609 126.168 568.426 126.142C568.243 126.111 568.06 126.096 567.851 126.096C567.366 126.096 566.935 126.198 566.555 126.402C566.176 126.601 565.875 126.879 565.652 127.234C565.43 127.586 565.325 127.987 565.325 128.438V134.76H563.795ZM572.037 131.118L572.011 129.218H572.325L576.695 124.769H578.592L573.934 129.478H573.803L572.037 131.118ZM570.611 134.76V121.439H572.142V134.76H570.611ZM576.957 134.76L573.058 129.817L574.144 128.75L578.906 134.76H576.957ZM584.349 134.968C583.381 134.968 582.556 134.756 581.85 134.331C581.156 133.902 580.633 133.303 580.254 132.536C579.874 131.764 579.691 130.867 579.691 129.843C579.691 128.819 579.874 127.917 580.254 127.137C580.633 126.352 581.156 125.741 581.824 125.303C582.504 124.86 583.289 124.639 584.192 124.639C584.715 124.639 585.225 124.726 585.736 124.899C586.246 125.073 586.704 125.355 587.123 125.745C587.541 126.131 587.868 126.643 588.117 127.28C588.365 127.917 588.483 128.702 588.483 129.635V130.285H580.777V128.958H586.926C586.926 128.394 586.809 127.891 586.586 127.449C586.364 127.007 586.05 126.658 585.631 126.402C585.225 126.146 584.741 126.018 584.192 126.018C583.577 126.018 583.054 126.17 582.609 126.473C582.164 126.773 581.824 127.163 581.588 127.644C581.34 128.126 581.222 128.642 581.222 129.192V130.077C581.222 130.831 581.353 131.471 581.614 131.996C581.876 132.516 582.242 132.913 582.713 133.186C583.184 133.454 583.734 133.589 584.349 133.589C584.754 133.589 585.121 133.533 585.435 133.42C585.775 133.303 586.05 133.13 586.298 132.9C586.534 132.666 586.717 132.375 586.848 132.028L588.326 132.444C588.169 132.948 587.907 133.39 587.541 133.771C587.175 134.149 586.717 134.444 586.181 134.656C585.631 134.865 585.029 134.968 584.349 134.968ZM595.169 124.769V126.07H589.988V124.769H595.169ZM591.492 122.375H593.036V131.898C593.036 132.332 593.089 132.658 593.219 132.874C593.35 133.087 593.52 133.229 593.717 133.303C593.913 133.372 594.135 133.407 594.358 133.407C594.528 133.407 594.672 133.398 594.776 133.381C594.881 133.359 594.973 133.342 595.038 133.329L595.352 134.708C595.247 134.747 595.103 134.786 594.907 134.826C594.724 134.869 594.489 134.89 594.201 134.89C593.769 134.89 593.337 134.797 592.932 134.611C592.513 134.424 592.173 134.14 591.898 133.758C591.636 133.377 591.492 132.896 591.492 132.315V122.375ZM597.472 134.76V124.769H599.015V134.76H597.472ZM598.257 123.104C597.956 123.104 597.694 123.002 597.485 122.798C597.262 122.594 597.158 122.349 597.158 122.063C597.158 121.777 597.262 121.532 597.485 121.328C597.694 121.124 597.956 121.022 598.257 121.022C598.558 121.022 598.806 121.124 599.015 121.328C599.238 121.532 599.342 121.777 599.342 122.063C599.342 122.349 599.238 122.594 599.015 122.798C598.806 123.002 598.558 123.104 598.257 123.104ZM603.359 128.75V134.76H601.815V124.769H603.307V126.33H603.438C603.673 125.823 604.026 125.415 604.497 125.107C604.982 124.795 605.596 124.639 606.342 124.639C607.022 124.639 607.611 124.778 608.122 125.055C608.632 125.329 609.024 125.745 609.312 126.304C609.587 126.859 609.731 127.562 609.731 128.412V134.76H608.2V128.516C608.2 127.731 607.991 127.119 607.585 126.682C607.18 126.239 606.617 126.018 605.91 126.018C605.413 126.018 604.981 126.124 604.589 126.337C604.21 126.549 603.909 126.859 603.686 127.267C603.464 127.675 603.359 128.169 603.359 128.75ZM616.574 138.715C615.828 138.715 615.187 138.62 614.65 138.429C614.127 138.242 613.682 137.996 613.329 137.687C612.976 137.383 612.688 137.059 612.478 136.711L613.708 135.853C613.839 136.035 614.022 136.244 614.232 136.477C614.441 136.716 614.742 136.922 615.108 137.096C615.474 137.274 615.972 137.362 616.574 137.362C617.372 137.362 618.039 137.166 618.562 136.776C619.086 136.386 619.347 135.775 619.347 134.942V132.913H619.216C619.112 133.095 618.955 133.321 618.745 133.589C618.536 133.854 618.248 134.09 617.856 134.298C617.476 134.502 616.953 134.604 616.312 134.604C615.501 134.604 614.781 134.413 614.14 134.031C613.499 133.651 612.989 133.095 612.622 132.366C612.256 131.638 612.073 130.753 612.073 129.713C612.073 128.689 612.243 127.798 612.609 127.039C612.962 126.276 613.473 125.686 614.114 125.27C614.755 124.849 615.488 124.639 616.338 124.639C616.979 124.639 617.502 124.748 617.882 124.964C618.274 125.177 618.562 125.42 618.771 125.693C618.981 125.962 619.138 126.183 619.243 126.356H619.4V124.769H620.891V135.047C620.891 135.905 620.695 136.604 620.302 137.141C619.91 137.683 619.4 138.079 618.745 138.331C618.091 138.587 617.372 138.715 616.574 138.715ZM616.521 133.225C617.136 133.225 617.646 133.084 618.078 132.803C618.497 132.52 618.824 132.115 619.046 131.586C619.269 131.058 619.373 130.424 619.373 129.687C619.373 128.967 619.269 128.331 619.059 127.781C618.837 127.23 618.51 126.799 618.091 126.486C617.659 126.174 617.136 126.018 616.521 126.018C615.867 126.018 615.317 126.183 614.886 126.512C614.467 126.842 614.14 127.284 613.918 127.839C613.708 128.394 613.604 129.01 613.604 129.687C613.604 130.38 613.708 130.993 613.931 131.527C614.153 132.056 614.48 132.473 614.899 132.777C615.331 133.075 615.88 133.225 616.521 133.225Z" fill="#475467"/>
<path d="M59.53 170.086C62.4203 170.086 64.7634 167.743 64.7634 164.852C64.7634 161.962 62.4203 159.619 59.53 159.619C56.6397 159.619 54.2966 161.962 54.2966 164.852C54.2966 167.743 56.6397 170.086 59.53 170.086Z" fill="#1CC2D4"/>
<path d="M87.5626 162.236H85.9494C85.8539 161.771 85.6877 161.364 85.4483 161.012C85.2141 160.662 84.9289 160.366 84.59 160.128C84.2564 159.886 83.8862 159.703 83.4779 159.582C83.0697 159.461 82.6458 159.399 82.2036 159.399C81.3964 159.399 80.6663 159.603 80.0108 160.011C79.3605 160.418 78.8424 161.019 78.4565 161.813C78.0744 162.606 77.8834 163.579 77.8834 164.733C77.8834 165.887 78.0744 166.861 78.4565 167.653C78.8424 168.448 79.3605 169.048 80.0108 169.455C80.6663 169.863 81.3964 170.067 82.2036 170.067C82.6458 170.067 83.0697 170.006 83.4779 169.885C83.8862 169.764 84.2564 169.583 84.59 169.345C84.9289 169.102 85.2141 168.805 85.4483 168.454C85.6877 168.098 85.8539 167.691 85.9494 167.231H87.5626C87.441 167.912 87.2198 168.521 86.8993 169.059C86.5787 169.596 86.1797 170.054 85.7022 170.431C85.2259 170.804 84.6895 171.088 84.0955 171.283C83.5067 171.479 82.8748 171.576 82.2036 171.576C81.0667 171.576 80.0566 171.299 79.1721 170.744C78.2877 170.189 77.5916 169.399 77.084 168.376C76.5764 167.353 76.3226 166.138 76.3226 164.733C76.3226 163.328 76.5764 162.114 77.084 161.091C77.5916 160.068 78.2877 159.279 79.1721 158.723C80.0566 158.168 81.0667 157.891 82.2036 157.891C82.8748 157.891 83.5067 157.989 84.0955 158.184C84.6895 158.379 85.2259 158.665 85.7022 159.042C86.1797 159.415 86.5787 159.87 86.8993 160.408C87.2198 160.942 87.441 161.55 87.5626 162.236ZM94.0206 171.602C93.1179 171.602 92.3263 171.387 91.646 170.958C90.9695 170.529 90.441 169.929 90.0589 169.157C89.6821 168.385 89.4924 167.482 89.4924 166.451C89.4924 165.41 89.6821 164.502 90.0589 163.724C90.441 162.949 90.9695 162.347 91.646 161.916C92.3263 161.487 93.1179 161.273 94.0206 161.273C94.9221 161.273 95.711 161.487 96.3875 161.916C97.0691 162.347 97.5976 162.949 97.9744 163.724C98.3565 164.502 98.5475 165.41 98.5475 166.451C98.5475 167.482 98.3565 168.385 97.9744 169.157C97.5976 169.929 97.0691 170.529 96.3875 170.958C95.711 171.387 94.9221 171.602 94.0206 171.602ZM94.0206 170.223C94.7049 170.223 95.2688 170.048 95.711 169.696C96.1532 169.345 96.4817 168.883 96.6936 168.31C96.9056 167.738 97.0128 167.118 97.0128 166.451C97.0128 165.782 96.9056 165.161 96.6936 164.584C96.4817 164.007 96.1532 163.541 95.711 163.185C95.2688 162.83 94.7049 162.652 94.0206 162.652C93.335 162.652 92.7711 162.83 92.3289 163.185C91.8867 163.541 91.5596 164.007 91.3463 164.584C91.1344 165.161 91.0284 165.782 91.0284 166.451C91.0284 167.118 91.1344 167.738 91.3463 168.31C91.5596 168.883 91.8867 169.345 92.3289 169.696C92.7711 170.048 93.335 170.223 94.0206 170.223ZM100.891 171.394V161.403H102.373V162.964H102.504C102.712 162.43 103.048 162.017 103.511 161.721C103.976 161.423 104.533 161.273 105.183 161.273C105.843 161.273 106.391 161.423 106.829 161.721C107.272 162.017 107.617 162.43 107.863 162.964H107.968C108.224 162.448 108.607 162.038 109.119 161.734C109.631 161.427 110.244 161.273 110.96 161.273C111.853 161.273 112.584 161.553 113.151 162.113C113.72 162.667 114.004 163.532 114.004 164.707V171.394H112.468V164.707C112.468 163.97 112.267 163.443 111.864 163.127C111.461 162.81 110.986 162.652 110.439 162.652C109.737 162.652 109.192 162.865 108.806 163.289C108.42 163.71 108.228 164.244 108.228 164.889V171.394H106.667V164.551C106.667 163.984 106.483 163.526 106.114 163.179C105.745 162.827 105.27 162.652 104.689 162.652C104.29 162.652 103.917 162.758 103.57 162.971C103.228 163.183 102.95 163.478 102.738 163.855C102.53 164.228 102.425 164.66 102.425 165.149V171.394H100.891ZM116.811 175.141V161.403H118.293V162.99H118.476C118.589 162.816 118.745 162.595 118.945 162.327C119.147 162.054 119.438 161.81 119.816 161.598C120.197 161.381 120.714 161.273 121.364 161.273C122.205 161.273 122.947 161.483 123.588 161.903C124.23 162.325 124.732 162.921 125.091 163.693C125.451 164.465 125.63 165.376 125.63 166.425C125.63 167.482 125.451 168.399 125.091 169.176C124.732 169.948 124.232 170.546 123.595 170.971C122.957 171.391 122.222 171.602 121.39 171.602C120.748 171.602 120.235 171.496 119.849 171.283C119.463 171.067 119.166 170.821 118.958 170.549C118.748 170.271 118.589 170.041 118.476 169.859H118.345V175.141H116.811ZM118.319 166.399C118.319 167.154 118.431 167.818 118.652 168.395C118.873 168.968 119.196 169.417 119.621 169.742C120.045 170.062 120.566 170.223 121.182 170.223C121.823 170.223 122.359 170.054 122.789 169.715C123.222 169.373 123.548 168.913 123.765 168.336C123.986 167.755 124.096 167.109 124.096 166.399C124.096 165.696 123.987 165.063 123.77 164.499C123.558 163.931 123.235 163.482 122.802 163.153C122.373 162.819 121.832 162.652 121.182 162.652C120.558 162.652 120.032 162.81 119.608 163.127C119.183 163.439 118.862 163.876 118.645 164.44C118.428 165 118.319 165.653 118.319 166.399ZM129.507 158.072V171.394H127.972V158.072H129.507ZM132.319 171.394V161.403H133.855V171.394H132.319ZM133.1 159.738C132.8 159.738 132.542 159.636 132.325 159.432C132.113 159.228 132.007 158.983 132.007 158.696C132.007 158.411 132.113 158.165 132.325 157.962C132.542 157.758 132.8 157.656 133.1 157.656C133.399 157.656 133.654 157.758 133.868 157.962C134.084 158.165 134.192 158.411 134.192 158.696C134.192 158.983 134.084 159.228 133.868 159.432C133.654 159.636 133.399 159.738 133.1 159.738ZM139.606 171.628C138.973 171.628 138.399 171.509 137.882 171.271C137.366 171.028 136.957 170.678 136.653 170.223C136.35 169.764 136.198 169.209 136.198 168.558C136.198 167.986 136.31 167.521 136.535 167.165C136.762 166.806 137.063 166.524 137.44 166.32C137.818 166.116 138.234 165.964 138.689 165.865C139.148 165.762 139.61 165.679 140.075 165.618C140.682 165.54 141.174 165.482 141.55 165.442C141.932 165.399 142.21 165.327 142.384 165.228C142.562 165.128 142.651 164.954 142.651 164.707V164.655C142.651 164.014 142.474 163.515 142.123 163.159C141.777 162.803 141.249 162.625 140.543 162.625C139.81 162.625 139.235 162.786 138.819 163.107C138.403 163.427 138.109 163.77 137.941 164.135L136.483 163.615C136.744 163.007 137.09 162.535 137.525 162.196C137.963 161.854 138.439 161.615 138.956 161.481C139.475 161.342 139.988 161.273 140.491 161.273C140.811 161.273 141.18 161.312 141.596 161.39C142.017 161.464 142.423 161.618 142.813 161.852C143.207 162.086 143.535 162.44 143.796 162.912C144.055 163.384 144.185 164.018 144.185 164.812V171.394H142.651V170.041H142.572C142.468 170.258 142.295 170.49 142.052 170.737C141.809 170.985 141.486 171.195 141.082 171.368C140.679 171.542 140.187 171.628 139.606 171.628ZM139.84 170.249C140.447 170.249 140.959 170.13 141.375 169.892C141.796 169.653 142.113 169.345 142.325 168.968C142.542 168.59 142.651 168.194 142.651 167.778V166.373C142.585 166.451 142.441 166.522 142.22 166.587C142.004 166.647 141.752 166.702 141.467 166.749C141.184 166.793 140.909 166.832 140.64 166.867C140.376 166.897 140.161 166.923 139.996 166.944C139.597 166.997 139.224 167.082 138.877 167.198C138.535 167.311 138.257 167.482 138.045 167.712C137.837 167.937 137.733 168.246 137.733 168.636C137.733 169.17 137.93 169.573 138.324 169.846C138.723 170.114 139.228 170.249 139.84 170.249ZM148.523 165.383V171.394H146.987V161.403H148.47V162.964H148.6C148.834 162.457 149.19 162.048 149.667 161.741C150.144 161.43 150.76 161.273 151.515 161.273C152.191 161.273 152.783 161.411 153.29 161.689C153.798 161.962 154.192 162.378 154.474 162.938C154.756 163.493 154.897 164.195 154.897 165.046V171.394H153.362V165.149C153.362 164.364 153.158 163.753 152.75 163.315C152.343 162.873 151.783 162.652 151.073 162.652C150.582 162.652 150.144 162.758 149.758 162.971C149.377 163.183 149.075 163.493 148.854 163.901C148.632 164.308 148.523 164.803 148.523 165.383ZM161.761 171.602C160.824 171.602 160.018 171.381 159.341 170.939C158.665 170.496 158.144 169.887 157.779 169.111C157.415 168.335 157.234 167.448 157.234 166.451C157.234 165.436 157.419 164.541 157.792 163.764C158.17 162.984 158.695 162.374 159.368 161.936C160.044 161.494 160.833 161.273 161.734 161.273C162.437 161.273 163.07 161.403 163.634 161.662C164.198 161.923 164.66 162.288 165.02 162.756C165.379 163.225 165.603 163.77 165.69 164.396H164.155C164.037 163.94 163.777 163.536 163.374 163.185C162.975 162.83 162.437 162.652 161.761 162.652C161.163 162.652 160.638 162.807 160.187 163.12C159.74 163.427 159.391 163.864 159.14 164.427C158.893 164.987 158.768 165.644 158.768 166.399C158.768 167.171 158.89 167.843 159.133 168.415C159.379 168.988 159.727 169.431 160.173 169.748C160.625 170.065 161.153 170.223 161.761 170.223C162.16 170.223 162.522 170.154 162.846 170.015C163.172 169.876 163.447 169.677 163.673 169.417C163.898 169.157 164.059 168.844 164.155 168.48H165.69C165.603 169.069 165.389 169.6 165.046 170.074C164.707 170.542 164.258 170.915 163.7 171.193C163.143 171.466 162.498 171.602 161.761 171.602ZM172.123 171.602C171.16 171.602 170.329 171.39 169.632 170.965C168.937 170.536 168.402 169.937 168.025 169.17C167.652 168.398 167.465 167.5 167.465 166.476C167.465 165.453 167.652 164.551 168.025 163.77C168.402 162.985 168.926 162.374 169.599 161.936C170.275 161.494 171.064 161.273 171.967 161.273C172.486 161.273 173.001 161.359 173.508 161.533C174.016 161.707 174.478 161.988 174.894 162.378C175.31 162.764 175.641 163.276 175.888 163.914C176.135 164.551 176.26 165.336 176.26 166.268V166.919H168.557V165.591H174.699C174.699 165.028 174.585 164.525 174.36 164.083C174.139 163.641 173.822 163.291 173.41 163.036C173.003 162.78 172.522 162.652 171.967 162.652C171.355 162.652 170.826 162.803 170.379 163.107C169.936 163.407 169.596 163.796 169.358 164.278C169.12 164.759 169 165.275 169 165.826V166.71C169 167.465 169.13 168.105 169.391 168.629C169.655 169.15 170.021 169.547 170.49 169.82C170.958 170.088 171.503 170.223 172.123 170.223C172.526 170.223 172.889 170.167 173.215 170.054C173.545 169.937 173.829 169.764 174.067 169.534C174.306 169.299 174.489 169.009 174.62 168.662L176.103 169.078C175.947 169.582 175.685 170.024 175.316 170.405C174.947 170.783 174.492 171.077 173.95 171.289C173.409 171.499 172.799 171.602 172.123 171.602Z" fill="#475467"/>
<path d="M356.103 495.452C319.223 483.151 288.538 457.052 270.477 422.625C252.415 388.2 248.38 348.118 259.217 310.783L403.712 352.724L356.103 495.452Z" fill="#1CC2D4"/>
<path d="M543.404 408.624C528.96 444.718 501.105 473.821 465.679 489.831C430.252 505.843 390.003 507.519 353.368 494.511L403.712 352.724L543.404 408.624Z" fill="#FFB13E"/>
<path d="M266.692 414.881C250.631 379.478 248.897 339.232 261.854 302.577C274.81 265.924 301.451 235.707 336.194 218.262L403.712 352.722L266.692 414.881Z" fill="#AC96EC"/>
<path d="M552.152 328.144C557.855 362.586 551.402 397.939 533.901 428.147C516.4 458.355 488.939 481.537 456.222 493.721L403.711 352.721L552.152 328.144Z" fill="#D67FF5"/>
<path d="M280.775 265.979C302.283 235.498 334.346 214.093 370.746 205.919C399.126 199.546 428.561 201.57 455.547 211.473C455.547 211.473 422.211 320.002 403.713 352.724L280.775 265.979Z" fill="#71DEB0"/>
<path d="M455.684 211.524C476.012 219.005 494.485 230.788 509.84 246.066C525.194 261.344 537.069 279.757 544.652 300.047C552.235 320.337 555.349 342.025 553.779 363.629C552.209 385.234 545.993 406.243 535.555 425.223L403.714 352.724L455.684 211.524Z" fill="#6A8AFE"/>
<path d="M391.309 528.995V537.558H389.758V530.504H389.708L387.705 531.783V530.362L389.834 528.995H391.309ZM393.797 537.558L397.439 530.349V530.29H393.212V528.995H399.044V530.32L395.407 537.558H393.797ZM399.871 537.651C399.619 537.651 399.4 537.561 399.22 537.383C399.038 537.205 398.949 536.987 398.952 536.73C398.949 536.48 399.038 536.266 399.22 536.086C399.4 535.908 399.619 535.82 399.871 535.82C400.117 535.82 400.331 535.908 400.511 536.086C400.696 536.266 400.788 536.48 400.792 536.73C400.788 536.9 400.744 537.056 400.658 537.195C400.574 537.335 400.463 537.446 400.324 537.53C400.187 537.611 400.036 537.651 399.871 537.651ZM404.763 528.995V537.558H403.212V530.504H403.162L401.159 531.783V530.362L403.287 528.995H404.763ZM410.103 537.722C409.414 537.722 408.823 537.548 408.33 537.199C407.839 536.848 407.461 536.342 407.197 535.681C406.935 535.017 406.804 534.219 406.804 533.285C406.807 532.351 406.939 531.557 407.201 530.901C407.466 530.243 407.843 529.742 408.334 529.397C408.827 529.05 409.417 528.877 410.103 528.877C410.788 528.877 411.378 529.05 411.872 529.397C412.365 529.742 412.743 530.243 413.005 530.901C413.27 531.56 413.402 532.354 413.402 533.285C413.402 534.222 413.27 535.021 413.005 535.685C412.743 536.345 412.365 536.851 411.872 537.199C411.381 537.548 410.792 537.722 410.103 537.722ZM410.103 536.412C410.638 536.412 411.06 536.149 411.37 535.622C411.682 535.093 411.839 534.314 411.839 533.285C411.839 532.605 411.767 532.033 411.626 531.57C411.483 531.108 411.283 530.759 411.022 530.525C410.763 530.288 410.457 530.17 410.103 530.17C409.57 530.17 409.15 530.434 408.84 530.964C408.531 531.491 408.374 532.265 408.372 533.285C408.369 533.968 408.437 534.543 408.577 535.008C408.718 535.473 408.92 535.825 409.179 536.062C409.438 536.296 409.747 536.412 410.103 536.412ZM419.37 535.953V535.502C419.37 535.169 419.44 534.864 419.579 534.586C419.722 534.307 419.928 534.082 420.198 533.912C420.469 533.742 420.796 533.657 421.18 533.657C421.577 533.657 421.908 533.742 422.176 533.912C422.444 534.079 422.646 534.303 422.782 534.582C422.922 534.861 422.991 535.167 422.991 535.502V535.953C422.991 536.284 422.922 536.59 422.782 536.869C422.643 537.147 422.438 537.371 422.168 537.541C421.9 537.711 421.572 537.796 421.18 537.796C420.791 537.796 420.461 537.711 420.19 537.541C419.919 537.371 419.715 537.147 419.575 536.869C419.439 536.59 419.37 536.284 419.37 535.953ZM420.462 535.502V535.953C420.462 536.173 420.514 536.376 420.62 536.559C420.726 536.743 420.914 536.835 421.18 536.835C421.451 536.835 421.637 536.745 421.736 536.564C421.84 536.379 421.892 536.175 421.892 535.953V535.502C421.892 535.278 421.842 535.075 421.746 534.891C421.647 534.703 421.459 534.611 421.18 534.611C420.919 534.611 420.733 534.703 420.624 534.891C420.516 535.075 420.462 535.278 420.462 535.502ZM415.017 531.052V530.601C415.017 530.266 415.089 529.959 415.23 529.681C415.373 529.402 415.579 529.178 415.849 529.012C416.12 528.842 416.447 528.757 416.831 528.757C417.225 528.757 417.555 528.842 417.823 529.012C418.094 529.178 418.297 529.402 418.434 529.681C418.57 529.959 418.638 530.266 418.638 530.601V531.052C418.638 531.387 418.569 531.693 418.429 531.972C418.293 532.248 418.089 532.47 417.819 532.636C417.548 532.804 417.22 532.887 416.831 532.887C416.439 532.887 416.108 532.804 415.837 532.636C415.569 532.47 415.366 532.246 415.226 531.968C415.087 531.689 415.017 531.384 415.017 531.052ZM416.117 530.601V531.052C416.117 531.276 416.168 531.478 416.271 531.663C416.377 531.843 416.565 531.935 416.831 531.935C417.1 531.935 417.284 531.843 417.384 531.663C417.487 531.478 417.539 531.276 417.539 531.052V530.601C417.539 530.378 417.49 530.174 417.393 529.989C417.295 529.804 417.108 529.71 416.831 529.71C416.567 529.71 416.381 529.804 416.275 529.989C416.169 530.177 416.117 530.381 416.117 530.601ZM415.494 537.558L421.382 528.995H422.427L416.54 537.558H415.494Z" fill="#475467"/>
<path d="M404.074 503.541V523.166" stroke="#D5D8DD" stroke-width="1.30752"/>
<path d="M518.22 487.128V495.691H516.668V488.636H516.618L514.615 489.916V488.495L516.744 487.128H518.22ZM520.707 495.691L524.349 488.482V488.423H520.122V487.128H525.955V488.453L522.317 495.691H520.707ZM526.782 495.784C526.529 495.784 526.311 495.694 526.13 495.516C525.948 495.338 525.859 495.119 525.862 494.863C525.859 494.613 525.948 494.398 526.13 494.219C526.311 494.041 526.529 493.952 526.782 493.952C527.028 493.952 527.241 494.041 527.421 494.219C527.606 494.398 527.699 494.613 527.703 494.863C527.699 495.033 527.654 495.189 527.568 495.327C527.484 495.467 527.373 495.579 527.234 495.662C527.097 495.743 526.946 495.784 526.782 495.784ZM531.674 487.128V495.691H530.122V488.636H530.072L528.069 489.916V488.495L530.198 487.128H531.674ZM537.013 495.855C536.325 495.855 535.733 495.681 535.24 495.331C534.749 494.981 534.371 494.474 534.107 493.814C533.845 493.15 533.715 492.352 533.715 491.418C533.717 490.484 533.849 489.69 534.111 489.034C534.377 488.376 534.753 487.875 535.244 487.53C535.737 487.183 536.327 487.01 537.013 487.01C537.698 487.01 538.289 487.183 538.782 487.53C539.275 487.875 539.653 488.376 539.915 489.034C540.18 489.692 540.313 490.486 540.313 491.418C540.313 492.355 540.18 493.154 539.915 493.818C539.653 494.478 539.275 494.983 538.782 495.331C538.291 495.681 537.702 495.855 537.013 495.855ZM537.013 494.545C537.548 494.545 537.971 494.282 538.281 493.755C538.592 493.226 538.749 492.446 538.749 491.418C538.749 490.738 538.677 490.166 538.536 489.703C538.393 489.241 538.193 488.892 537.933 488.657C537.674 488.421 537.367 488.303 537.013 488.303C536.48 488.303 536.06 488.567 535.75 489.097C535.442 489.624 535.285 490.398 535.282 491.418C535.279 492.101 535.347 492.675 535.487 493.141C535.629 493.606 535.83 493.958 536.089 494.194C536.348 494.429 536.657 494.545 537.013 494.545ZM546.28 494.086V493.634C546.28 493.302 546.351 492.997 546.489 492.719C546.632 492.44 546.839 492.215 547.108 492.045C547.379 491.875 547.706 491.79 548.091 491.79C548.487 491.79 548.818 491.875 549.086 492.045C549.355 492.212 549.556 492.436 549.692 492.715C549.832 492.993 549.901 493.299 549.901 493.634V494.086C549.901 494.417 549.832 494.723 549.692 495.002C549.553 495.28 549.348 495.504 549.078 495.674C548.81 495.844 548.482 495.929 548.091 495.929C547.701 495.929 547.371 495.844 547.1 495.674C546.829 495.504 546.625 495.28 546.485 495.002C546.349 494.723 546.28 494.417 546.28 494.086ZM547.372 493.634V494.086C547.372 494.306 547.425 494.508 547.531 494.692C547.637 494.876 547.824 494.968 548.091 494.968C548.361 494.968 548.547 494.877 548.647 494.697C548.75 494.512 548.802 494.308 548.802 494.086V493.634C548.802 493.411 548.753 493.208 548.656 493.023C548.558 492.836 548.369 492.743 548.091 492.743C547.829 492.743 547.643 492.836 547.535 493.023C547.426 493.208 547.372 493.411 547.372 493.634ZM541.927 489.185V488.733C541.927 488.398 541.999 488.092 542.14 487.814C542.283 487.535 542.49 487.311 542.759 487.145C543.03 486.975 543.357 486.89 543.742 486.89C544.136 486.89 544.465 486.975 544.733 487.145C545.004 487.311 545.207 487.535 545.344 487.814C545.481 488.092 545.549 488.398 545.549 488.733V489.185C545.549 489.52 545.479 489.826 545.339 490.104C545.203 490.38 544.999 490.603 544.73 490.769C544.459 490.937 544.13 491.02 543.742 491.02C543.349 491.02 543.018 490.937 542.747 490.769C542.479 490.603 542.276 490.379 542.136 490.101C541.998 489.822 541.927 489.517 541.927 489.185ZM543.027 488.733V489.185C543.027 489.408 543.078 489.611 543.182 489.796C543.288 489.976 543.475 490.068 543.742 490.068C544.01 490.068 544.194 489.976 544.294 489.796C544.397 489.611 544.449 489.408 544.449 489.185V488.733C544.449 488.511 544.4 488.307 544.303 488.122C544.205 487.937 544.018 487.842 543.742 487.842C543.477 487.842 543.292 487.937 543.186 488.122C543.08 488.309 543.027 488.514 543.027 488.733ZM542.405 495.691L548.292 487.128H549.338L543.45 495.691H542.405Z" fill="#475467"/>
<path d="M499.583 468.216L511.359 482.608" stroke="#D5D8DD" stroke-width="1.30752"/>
<path d="M567.524 282.548C566.922 282.548 566.385 282.444 565.927 282.238C565.456 282.031 565.09 281.744 564.815 281.377C564.541 281.009 564.41 280.584 564.383 280.101H565.954C565.967 280.333 566.045 280.534 566.189 280.707C566.333 280.877 566.516 281.01 566.739 281.105C566.974 281.199 567.236 281.247 567.524 281.247C567.824 281.247 568.099 281.193 568.335 281.087C568.57 280.979 568.766 280.828 568.897 280.636C569.028 280.444 569.094 280.223 569.094 279.971C569.094 279.712 569.028 279.483 568.884 279.286C568.753 279.087 568.557 278.933 568.295 278.821C568.034 278.71 567.733 278.654 567.367 278.654H566.608V277.458H567.367C567.667 277.458 567.929 277.407 568.152 277.304C568.374 277.2 568.557 277.055 568.675 276.868C568.806 276.68 568.871 276.46 568.871 276.213C568.871 275.969 568.819 275.759 568.701 275.581C568.596 275.4 568.439 275.259 568.243 275.158C568.047 275.059 567.811 275.008 567.55 275.008C567.288 275.008 567.039 275.055 566.817 275.15C566.595 275.244 566.411 275.38 566.281 275.556C566.137 275.728 566.071 275.935 566.058 276.175H564.567C564.58 275.694 564.711 275.274 564.985 274.912C565.247 274.547 565.6 274.262 566.045 274.059C566.503 273.852 567 273.749 567.55 273.749C568.125 273.749 568.623 273.856 569.041 274.071C569.46 274.283 569.787 274.569 570.022 274.929C570.258 275.288 570.376 275.685 570.376 276.12C570.376 276.602 570.232 277.007 569.944 277.333C569.656 277.66 569.29 277.873 568.819 277.972V278.039C569.421 278.123 569.892 278.346 570.206 278.709C570.533 279.069 570.69 279.516 570.69 280.051C570.69 280.53 570.546 280.959 570.284 281.339C570.009 281.716 569.63 282.011 569.159 282.226C568.688 282.44 568.138 282.548 567.524 282.548ZM572.443 282.43L576.08 275.221V275.162H571.854V273.867H577.689V275.192L574.052 282.43H572.443ZM578.514 282.523C578.252 282.523 578.043 282.432 577.859 282.255C577.676 282.077 577.585 281.858 577.598 281.602C577.585 281.352 577.676 281.137 577.859 280.958C578.043 280.78 578.252 280.691 578.514 280.691C578.762 280.691 578.972 280.78 579.155 280.958C579.338 281.137 579.43 281.352 579.43 281.602C579.43 281.772 579.39 281.927 579.299 282.066C579.22 282.206 579.102 282.317 578.959 282.401C578.828 282.482 578.671 282.523 578.514 282.523ZM583.407 273.867V282.43H581.85V275.375H581.798L579.796 276.655V275.234L581.929 273.867H583.407ZM588.745 282.593C588.052 282.593 587.463 282.419 586.966 282.07C586.482 281.719 586.102 281.213 585.84 280.552C585.579 279.889 585.448 279.091 585.448 278.157C585.448 277.223 585.579 276.428 585.84 275.773C586.102 275.115 586.482 274.614 586.979 274.268C587.463 273.922 588.052 273.749 588.745 273.749C589.425 273.749 590.014 273.922 590.511 274.268C591.008 274.614 591.388 275.115 591.649 275.773C591.911 276.431 592.042 277.225 592.042 278.157C592.042 279.094 591.911 279.893 591.649 280.556C591.388 281.217 591.008 281.722 590.511 282.07C590.027 282.419 589.425 282.593 588.745 282.593ZM588.745 281.284C589.281 281.284 589.7 281.021 590.014 280.493C590.328 279.965 590.472 279.185 590.472 278.157C590.472 277.476 590.407 276.905 590.263 276.442C590.119 275.98 589.922 275.63 589.661 275.396C589.399 275.159 589.098 275.042 588.745 275.042C588.209 275.042 587.79 275.306 587.476 275.836C587.175 276.363 587.018 277.136 587.018 278.157C587.005 278.84 587.083 279.414 587.214 279.88C587.358 280.344 587.554 280.696 587.816 280.933C588.078 281.167 588.392 281.284 588.745 281.284ZM598.008 280.825V280.373C598.008 280.041 598.074 279.736 598.217 279.457C598.361 279.179 598.571 278.954 598.832 278.783C599.107 278.613 599.434 278.528 599.827 278.528C600.219 278.528 600.546 278.613 600.821 278.783C601.083 278.951 601.292 279.175 601.423 279.453C601.567 279.732 601.632 280.038 601.632 280.373V280.825C601.632 281.156 601.567 281.462 601.423 281.74C601.279 282.019 601.083 282.243 600.808 282.413C600.546 282.583 600.206 282.668 599.827 282.668C599.434 282.668 599.094 282.583 598.832 282.413C598.558 282.243 598.348 282.019 598.217 281.74C598.074 281.462 598.008 281.156 598.008 280.825ZM599.107 280.373V280.825C599.107 281.044 599.16 281.247 599.264 281.43C599.369 281.615 599.552 281.706 599.827 281.706C600.088 281.706 600.272 281.616 600.376 281.436C600.481 281.251 600.533 281.047 600.533 280.825V280.373C600.533 280.149 600.481 279.947 600.389 279.762C600.285 279.575 600.101 279.482 599.827 279.482C599.565 279.482 599.369 279.575 599.264 279.762C599.16 279.947 599.107 280.149 599.107 280.373ZM593.651 275.923V275.472C593.651 275.137 593.73 274.831 593.874 274.552C594.018 274.274 594.214 274.05 594.489 273.884C594.763 273.714 595.091 273.629 595.47 273.629C595.862 273.629 596.19 273.714 596.464 273.884C596.739 274.05 596.935 274.274 597.079 274.552C597.21 274.831 597.275 275.137 597.275 275.472V275.923C597.275 276.258 597.21 276.565 597.066 276.843C596.935 277.119 596.726 277.342 596.464 277.508C596.19 277.675 595.862 277.759 595.47 277.759C595.077 277.759 594.75 277.675 594.476 277.508C594.214 277.342 594.005 277.118 593.861 276.839C593.73 276.561 593.651 276.256 593.651 275.923ZM594.763 275.472V275.923C594.763 276.147 594.803 276.35 594.907 276.534C595.012 276.715 595.208 276.807 595.47 276.807C595.745 276.807 595.928 276.715 596.019 276.534C596.124 276.35 596.176 276.147 596.176 275.923V275.472C596.176 275.25 596.124 275.046 596.033 274.861C595.941 274.675 595.745 274.581 595.47 274.581C595.208 274.581 595.025 274.675 594.92 274.861C594.816 275.048 594.763 275.252 594.763 275.472ZM594.135 282.43L600.023 273.867H601.07L595.182 282.43H594.135Z" fill="#475467"/>
<path d="M540.142 290.28L558.457 279.813" stroke="#D5D8DD" stroke-width="1.30752"/>
<path d="M312.595 197.387V196.267L315.569 193.352C315.853 193.066 316.09 192.81 316.279 192.587C316.469 192.364 316.612 192.148 316.706 191.939C316.802 191.73 316.849 191.507 316.849 191.269C316.849 191 316.787 190.768 316.664 190.576C316.541 190.381 316.374 190.23 316.158 190.124C315.943 190.018 315.7 189.965 315.426 189.965C315.145 189.965 314.898 190.024 314.686 190.14C314.475 190.255 314.31 190.417 314.193 190.629C314.079 190.841 314.021 191.094 314.021 191.387H312.545C312.545 190.843 312.67 190.37 312.918 189.969C313.166 189.568 313.507 189.257 313.943 189.037C314.38 188.816 314.882 188.706 315.447 188.706C316.022 188.706 316.527 188.813 316.961 189.028C317.397 189.243 317.733 189.537 317.974 189.911C318.216 190.284 318.338 190.711 318.338 191.191C318.338 191.511 318.276 191.825 318.153 192.135C318.03 192.444 317.814 192.788 317.505 193.164C317.198 193.541 316.767 193.996 316.213 194.531L314.737 196.033V196.09H318.467V197.387H312.595ZM322.887 197.505C322.329 197.505 321.83 197.4 321.39 197.191C320.949 196.979 320.6 196.688 320.341 196.321C320.083 195.953 319.947 195.532 319.93 195.058H321.436C321.463 195.409 321.615 195.697 321.891 195.919C322.167 196.14 322.499 196.25 322.887 196.25C323.19 196.25 323.461 196.181 323.698 196.041C323.935 195.902 324.122 195.707 324.258 195.46C324.395 195.211 324.462 194.929 324.459 194.611C324.462 194.288 324.394 194 324.254 193.75C324.114 193.499 323.923 193.302 323.681 193.16C323.439 193.015 323.16 192.943 322.845 192.943C322.588 192.94 322.336 192.987 322.087 193.084C321.84 193.182 321.644 193.31 321.499 193.47L320.097 193.24L320.545 188.824H325.513V190.119H321.828L321.582 192.39H321.632C321.792 192.203 322.015 192.049 322.306 191.926C322.595 191.8 322.913 191.738 323.258 191.738C323.778 191.738 324.239 191.861 324.646 192.107C325.053 192.349 325.375 192.684 325.608 193.11C325.842 193.537 325.96 194.025 325.96 194.573C325.96 195.139 325.829 195.643 325.567 196.087C325.307 196.527 324.946 196.874 324.484 197.128C324.024 197.379 323.491 197.505 322.887 197.505ZM328.022 197.48C327.769 197.48 327.551 197.39 327.37 197.212C327.189 197.034 327.1 196.815 327.102 196.559C327.1 196.309 327.189 196.094 327.37 195.915C327.551 195.737 327.769 195.648 328.022 195.648C328.268 195.648 328.481 195.737 328.662 195.915C328.846 196.094 328.939 196.309 328.943 196.559C328.939 196.729 328.895 196.885 328.808 197.023C328.725 197.163 328.613 197.275 328.475 197.358C328.337 197.439 328.187 197.48 328.022 197.48ZM332.914 188.824V197.387H331.362V190.332H331.312L329.309 191.612V190.191L331.438 188.824H332.914ZM338.253 197.551C337.565 197.551 336.974 197.377 336.48 197.027C335.99 196.677 335.612 196.17 335.347 195.51C335.086 194.846 334.955 194.048 334.955 193.114C334.957 192.18 335.09 191.386 335.351 190.73C335.617 190.072 335.994 189.571 336.484 189.226C336.978 188.879 337.568 188.706 338.253 188.706C338.939 188.706 339.529 188.879 340.022 189.226C340.515 189.571 340.893 190.072 341.155 190.73C341.421 191.388 341.553 192.182 341.553 193.114C341.553 194.051 341.421 194.85 341.155 195.513C340.893 196.174 340.515 196.679 340.022 197.027C339.531 197.377 338.943 197.551 338.253 197.551ZM338.253 196.241C338.788 196.241 339.211 195.978 339.521 195.451C339.832 194.922 339.989 194.142 339.989 193.114C339.989 192.434 339.917 191.862 339.776 191.399C339.634 190.937 339.433 190.588 339.173 190.353C338.914 190.117 338.608 189.999 338.253 189.999C337.721 189.999 337.301 190.263 336.991 190.793C336.682 191.32 336.525 192.093 336.522 193.114C336.52 193.797 336.588 194.371 336.728 194.837C336.869 195.302 337.07 195.653 337.33 195.89C337.589 196.125 337.897 196.241 338.253 196.241ZM347.52 195.782V195.33C347.52 194.998 347.591 194.693 347.73 194.414C347.872 194.136 348.079 193.911 348.348 193.741C348.619 193.571 348.946 193.486 349.331 193.486C349.727 193.486 350.059 193.571 350.327 193.741C350.595 193.908 350.796 194.132 350.932 194.411C351.072 194.689 351.142 194.995 351.142 195.33V195.782C351.142 196.113 351.072 196.419 350.932 196.698C350.794 196.976 350.588 197.2 350.319 197.37C350.051 197.54 349.722 197.625 349.331 197.625C348.941 197.625 348.611 197.54 348.341 197.37C348.07 197.2 347.866 196.976 347.726 196.698C347.59 196.419 347.52 196.113 347.52 195.782ZM348.613 195.33V195.782C348.613 196.002 348.665 196.204 348.771 196.387C348.877 196.572 349.064 196.664 349.331 196.664C349.602 196.664 349.788 196.573 349.887 196.393C349.99 196.208 350.043 196.004 350.043 195.782V195.33C350.043 195.107 349.993 194.904 349.896 194.719C349.798 194.532 349.61 194.439 349.331 194.439C349.069 194.439 348.884 194.532 348.775 194.719C348.666 194.904 348.613 195.107 348.613 195.33ZM343.167 190.881V190.429C343.167 190.094 343.239 189.788 343.381 189.509C343.523 189.231 343.73 189.007 344 188.841C344.27 188.671 344.597 188.586 344.982 188.586C345.376 188.586 345.706 188.671 345.974 188.841C346.245 189.007 346.447 189.231 346.585 189.509C346.721 189.788 346.789 190.094 346.789 190.429V190.881C346.789 191.216 346.72 191.522 346.58 191.8C346.444 192.076 346.239 192.299 345.97 192.465C345.699 192.632 345.371 192.716 344.982 192.716C344.59 192.716 344.257 192.632 343.988 192.465C343.72 192.299 343.517 192.075 343.377 191.796C343.238 191.518 343.167 191.213 343.167 190.881ZM344.268 190.429V190.881C344.268 191.104 344.319 191.307 344.422 191.492C344.528 191.672 344.715 191.764 344.982 191.764C345.25 191.764 345.435 191.672 345.534 191.492C345.638 191.307 345.69 191.104 345.69 190.881V190.429C345.69 190.207 345.64 190.003 345.543 189.818C345.445 189.632 345.258 189.538 344.982 189.538C344.718 189.538 344.532 189.632 344.426 189.818C344.32 190.005 344.268 190.209 344.268 190.429ZM343.645 197.387L349.533 188.824H350.578L344.69 197.387H343.645Z" fill="#475467"/>
<path d="M338.656 217.012L332.115 203.929" stroke="#D5D8DD" stroke-width="1.30752"/>
<path d="M183.068 363.548V362.428L186.042 359.513C186.326 359.226 186.563 358.971 186.753 358.747C186.942 358.525 187.085 358.309 187.179 358.1C187.275 357.89 187.322 357.668 187.322 357.43C187.322 357.16 187.26 356.929 187.137 356.736C187.014 356.541 186.847 356.391 186.631 356.285C186.416 356.179 186.173 356.125 185.899 356.125C185.618 356.125 185.371 356.184 185.159 356.301C184.948 356.416 184.783 356.578 184.666 356.79C184.552 357.002 184.494 357.254 184.494 357.548H183.019C183.019 357.003 183.143 356.531 183.391 356.129C183.639 355.729 183.98 355.418 184.416 355.198C184.853 354.977 185.355 354.867 185.92 354.867C186.495 354.867 187 354.974 187.434 355.189C187.87 355.403 188.206 355.698 188.447 356.072C188.689 356.445 188.811 356.871 188.811 357.351C188.811 357.672 188.749 357.986 188.626 358.296C188.503 358.605 188.287 358.949 187.979 359.324C187.671 359.701 187.241 360.156 186.686 360.691L185.21 362.193V362.251H188.94V363.548H183.068ZM193.36 363.665C192.802 363.665 192.303 363.561 191.863 363.351C191.422 363.139 191.073 362.849 190.814 362.481C190.556 362.114 190.42 361.692 190.403 361.219H191.909C191.936 361.569 192.088 361.857 192.364 362.08C192.64 362.301 192.972 362.411 193.36 362.411C193.663 362.411 193.934 362.341 194.171 362.201C194.408 362.063 194.595 361.868 194.731 361.62C194.868 361.372 194.935 361.089 194.932 360.771C194.935 360.448 194.867 360.16 194.727 359.91C194.587 359.659 194.396 359.463 194.154 359.32C193.912 359.175 193.633 359.103 193.318 359.103C193.061 359.101 192.809 359.148 192.56 359.244C192.313 359.343 192.117 359.471 191.972 359.63L190.57 359.4L191.018 354.984H195.986V356.28H192.301L192.055 358.551H192.105C192.265 358.364 192.488 358.21 192.779 358.087C193.068 357.961 193.386 357.898 193.731 357.898C194.251 357.898 194.713 358.021 195.119 358.267C195.526 358.509 195.848 358.844 196.081 359.271C196.315 359.697 196.433 360.185 196.433 360.733C196.433 361.3 196.302 361.804 196.041 362.247C195.78 362.688 195.419 363.035 194.957 363.289C194.497 363.54 193.964 363.665 193.36 363.665ZM198.495 363.64C198.242 363.64 198.024 363.55 197.843 363.372C197.662 363.194 197.573 362.976 197.575 362.719C197.573 362.47 197.662 362.255 197.843 362.076C198.024 361.898 198.242 361.809 198.495 361.809C198.741 361.809 198.954 361.898 199.135 362.076C199.319 362.255 199.412 362.47 199.416 362.719C199.412 362.89 199.368 363.045 199.281 363.184C199.198 363.324 199.086 363.435 198.948 363.519C198.81 363.6 198.66 363.64 198.495 363.64ZM203.387 354.984V363.548H201.835V356.493H201.786L199.782 357.773V356.352L201.911 354.984H203.387ZM208.726 363.711C208.038 363.711 207.447 363.537 206.954 363.188C206.463 362.837 206.085 362.331 205.82 361.67C205.559 361.007 205.428 360.209 205.428 359.275C205.431 358.34 205.563 357.546 205.824 356.891C206.09 356.233 206.467 355.732 206.957 355.386C207.451 355.039 208.041 354.867 208.726 354.867C209.412 354.867 210.002 355.039 210.495 355.386C210.988 355.732 211.367 356.233 211.628 356.891C211.894 357.549 212.026 358.343 212.026 359.275C212.026 360.211 211.894 361.011 211.628 361.674C211.367 362.335 210.988 362.84 210.495 363.188C210.005 363.537 209.416 363.711 208.726 363.711ZM208.726 362.402C209.261 362.402 209.684 362.139 209.994 361.611C210.305 361.083 210.463 360.303 210.463 359.275C210.463 358.594 210.391 358.022 210.249 357.559C210.107 357.097 209.906 356.748 209.646 356.514C209.387 356.277 209.081 356.159 208.726 356.159C208.194 356.159 207.774 356.424 207.464 356.954C207.155 357.481 206.998 358.254 206.995 359.275C206.993 359.958 207.061 360.532 207.201 360.998C207.342 361.462 207.544 361.814 207.803 362.051C208.062 362.285 208.37 362.402 208.726 362.402ZM217.993 361.942V361.491C217.993 361.159 218.064 360.854 218.203 360.575C218.345 360.296 218.552 360.071 218.822 359.901C219.092 359.731 219.419 359.646 219.804 359.646C220.201 359.646 220.532 359.731 220.8 359.901C221.068 360.069 221.269 360.292 221.406 360.571C221.546 360.85 221.615 361.156 221.615 361.491V361.942C221.615 362.273 221.546 362.579 221.406 362.858C221.267 363.137 221.061 363.361 220.792 363.531C220.524 363.701 220.195 363.786 219.804 363.786C219.414 363.786 219.085 363.701 218.814 363.531C218.543 363.361 218.339 363.137 218.199 362.858C218.063 362.579 217.993 362.273 217.993 361.942ZM219.086 361.491V361.942C219.086 362.162 219.138 362.365 219.244 362.548C219.35 362.733 219.537 362.824 219.804 362.824C220.075 362.824 220.261 362.734 220.36 362.553C220.464 362.369 220.516 362.165 220.516 361.942V361.491C220.516 361.267 220.466 361.064 220.369 360.88C220.271 360.693 220.083 360.6 219.804 360.6C219.542 360.6 219.357 360.693 219.248 360.88C219.139 361.064 219.086 361.267 219.086 361.491ZM213.64 357.041V356.59C213.64 356.255 213.712 355.949 213.854 355.67C213.996 355.391 214.203 355.168 214.473 355.001C214.743 354.831 215.071 354.746 215.455 354.746C215.849 354.746 216.179 354.831 216.447 355.001C216.718 355.168 216.92 355.391 217.058 355.67C217.194 355.949 217.262 356.255 217.262 356.59V357.041C217.262 357.376 217.193 357.682 217.053 357.961C216.917 358.237 216.712 358.459 216.443 358.626C216.172 358.793 215.844 358.877 215.455 358.877C215.063 358.877 214.73 358.793 214.461 358.626C214.193 358.459 213.99 358.236 213.85 357.957C213.711 357.678 213.64 357.374 213.64 357.041ZM214.741 356.59V357.041C214.741 357.265 214.792 357.468 214.895 357.652C215.001 357.833 215.188 357.924 215.455 357.924C215.723 357.924 215.908 357.833 216.007 357.652C216.111 357.468 216.163 357.265 216.163 357.041V356.59C216.163 356.367 216.113 356.163 216.016 355.979C215.918 355.793 215.731 355.699 215.455 355.699C215.191 355.699 215.005 355.793 214.899 355.979C214.793 356.166 214.741 356.37 214.741 356.59ZM214.118 363.548L220.006 354.984H221.051L215.163 363.548H214.118Z" fill="#475467"/>
<path d="M252.959 358.314H232.026" stroke="#D5D8DD" stroke-width="1.30752"/>
<path d="M244.561 482.608V481.488L247.535 478.573C247.819 478.286 248.055 478.031 248.245 477.807C248.435 477.585 248.577 477.369 248.672 477.16C248.767 476.95 248.814 476.728 248.814 476.49C248.814 476.22 248.753 475.989 248.63 475.796C248.507 475.601 248.339 475.451 248.123 475.345C247.909 475.239 247.665 475.185 247.392 475.185C247.111 475.185 246.864 475.244 246.652 475.361C246.441 475.476 246.276 475.638 246.158 475.85C246.044 476.062 245.987 476.314 245.987 476.608H244.511C244.511 476.063 244.635 475.591 244.884 475.189C245.131 474.789 245.473 474.477 245.908 474.258C246.345 474.037 246.848 473.927 247.413 473.927C247.987 473.927 248.492 474.034 248.927 474.249C249.362 474.463 249.699 474.758 249.939 475.132C250.181 475.505 250.303 475.931 250.303 476.411C250.303 476.732 250.242 477.046 250.119 477.356C249.996 477.665 249.78 478.009 249.471 478.384C249.164 478.761 248.733 479.216 248.178 479.751L246.703 481.253V481.311H250.433V482.608H244.561ZM254.852 482.725C254.295 482.725 253.795 482.621 253.356 482.411C252.915 482.199 252.565 481.909 252.306 481.541C252.049 481.174 251.912 480.752 251.895 480.279H253.401C253.429 480.629 253.581 480.917 253.857 481.14C254.133 481.361 254.465 481.471 254.852 481.471C255.156 481.471 255.427 481.401 255.663 481.261C255.9 481.123 256.087 480.928 256.223 480.68C256.361 480.432 256.428 480.149 256.425 479.831C256.428 479.508 256.36 479.22 256.22 478.97C256.08 478.719 255.889 478.523 255.646 478.38C255.404 478.235 255.126 478.163 254.81 478.163C254.554 478.161 254.301 478.208 254.053 478.304C253.806 478.403 253.609 478.531 253.464 478.69L252.063 478.46L252.51 474.044H257.478V475.34H253.794L253.548 477.611H253.598C253.757 477.424 253.981 477.27 254.271 477.147C254.561 477.021 254.878 476.958 255.224 476.958C255.743 476.958 256.205 477.081 256.612 477.327C257.019 477.569 257.341 477.904 257.574 478.331C257.808 478.757 257.926 479.245 257.926 479.793C257.926 480.36 257.795 480.864 257.533 481.307C257.273 481.748 256.912 482.095 256.45 482.349C255.989 482.6 255.457 482.725 254.852 482.725ZM259.988 482.7C259.735 482.7 259.517 482.61 259.336 482.432C259.154 482.254 259.065 482.036 259.068 481.779C259.065 481.53 259.154 481.315 259.336 481.136C259.517 480.958 259.735 480.869 259.988 480.869C260.234 480.869 260.447 480.958 260.627 481.136C260.812 481.315 260.905 481.53 260.909 481.779C260.905 481.95 260.86 482.105 260.774 482.244C260.69 482.384 260.579 482.495 260.44 482.579C260.303 482.66 260.152 482.7 259.988 482.7ZM264.88 474.044V482.608H263.328V475.553H263.278L261.275 476.833V475.412L263.404 474.044H264.88ZM270.219 482.771C269.531 482.771 268.939 482.597 268.446 482.248C267.955 481.897 267.577 481.391 267.313 480.73C267.051 480.067 266.921 479.269 266.921 478.335C266.923 477.4 267.055 476.606 267.317 475.951C267.583 475.293 267.959 474.792 268.45 474.446C268.943 474.099 269.533 473.927 270.219 473.927C270.904 473.927 271.495 474.099 271.988 474.446C272.481 474.792 272.859 475.293 273.121 475.951C273.386 476.609 273.519 477.403 273.519 478.335C273.519 479.271 273.386 480.071 273.121 480.734C272.859 481.395 272.481 481.9 271.988 482.248C271.497 482.597 270.908 482.771 270.219 482.771ZM270.219 481.461C270.754 481.461 271.177 481.198 271.487 480.671C271.798 480.143 271.955 479.363 271.955 478.335C271.955 477.654 271.883 477.082 271.742 476.619C271.599 476.157 271.399 475.808 271.139 475.574C270.88 475.337 270.573 475.219 270.219 475.219C269.686 475.219 269.266 475.484 268.956 476.013C268.648 476.541 268.491 477.314 268.488 478.335C268.485 479.017 268.553 479.592 268.693 480.058C268.835 480.522 269.036 480.874 269.295 481.111C269.554 481.345 269.863 481.461 270.219 481.461ZM279.486 481.002V480.551C279.486 480.219 279.557 479.914 279.695 479.635C279.838 479.356 280.045 479.131 280.314 478.961C280.585 478.791 280.912 478.706 281.297 478.706C281.693 478.706 282.024 478.791 282.292 478.961C282.561 479.129 282.762 479.352 282.898 479.631C283.038 479.91 283.107 480.216 283.107 480.551V481.002C283.107 481.333 283.038 481.639 282.898 481.918C282.759 482.197 282.554 482.421 282.284 482.591C282.016 482.761 281.688 482.846 281.297 482.846C280.907 482.846 280.577 482.761 280.306 482.591C280.035 482.421 279.831 482.197 279.691 481.918C279.555 481.639 279.486 481.333 279.486 481.002ZM280.578 480.551V481.002C280.578 481.222 280.631 481.425 280.737 481.608C280.843 481.792 281.03 481.884 281.297 481.884C281.567 481.884 281.753 481.794 281.853 481.613C281.956 481.429 282.008 481.225 282.008 481.002V480.551C282.008 480.327 281.959 480.124 281.862 479.94C281.764 479.753 281.575 479.66 281.297 479.66C281.035 479.66 280.849 479.753 280.741 479.94C280.632 480.124 280.578 480.327 280.578 480.551ZM275.133 476.101V475.65C275.133 475.315 275.205 475.009 275.346 474.73C275.489 474.451 275.696 474.228 275.965 474.061C276.236 473.891 276.563 473.806 276.948 473.806C277.342 473.806 277.671 473.891 277.939 474.061C278.21 474.228 278.413 474.451 278.55 474.73C278.687 475.009 278.755 475.315 278.755 475.65V476.101C278.755 476.436 278.685 476.742 278.545 477.021C278.409 477.297 278.205 477.519 277.936 477.686C277.665 477.853 277.336 477.937 276.948 477.937C276.555 477.937 276.223 477.853 275.953 477.686C275.685 477.519 275.482 477.296 275.342 477.017C275.204 476.738 275.133 476.434 275.133 476.101ZM276.233 475.65V476.101C276.233 476.325 276.284 476.528 276.388 476.712C276.494 476.893 276.681 476.984 276.948 476.984C277.216 476.984 277.4 476.893 277.5 476.712C277.603 476.528 277.656 476.325 277.656 476.101V475.65C277.656 475.427 277.606 475.223 277.509 475.039C277.411 474.853 277.224 474.759 276.948 474.759C276.683 474.759 276.498 474.853 276.392 475.039C276.286 475.226 276.233 475.43 276.233 475.65ZM275.611 482.608L281.498 474.044H282.544L276.656 482.608H275.611Z" fill="#475467"/>
<path d="M293.518 456.441L280.435 468.216" stroke="#D5D8DD" stroke-width="1.30752"/>
</g>
<defs>
<filter id="filter0_d_102_3226" x="-6.29827e-05" y="3.81713e-06" width="775.852" height="611" filterUnits="userSpaceOnUse" color-interpolation-filters="sRGB">
<feFlood flood-opacity="0" result="BackgroundImageFix"/>
<feColorMatrix in="SourceAlpha" type="matrix" values="0 0 0 0 0 0 0 0 0 0 0 0 0 0 0 0 0 0 127 0" result="hardAlpha"/>
<feOffset dy="13.0752"/>
<feGaussianBlur stdDeviation="9.15262"/>
<feComposite in2="hardAlpha" operator="out"/>
<feColorMatrix type="matrix" values="0 0 0 0 0 0 0 0 0 0 0 0 0 0 0 0 0 0 0.05 0"/>
<feBlend mode="normal" in2="BackgroundImageFix" result="effect1_dropShadow_102_3226"/>
<feBlend mode="normal" in="SourceGraphic" in2="effect1_dropShadow_102_3226" result="shape"/>
</filter>
</defs>
</svg>
