<svg width="433" height="363" viewBox="0 0 433 363" fill="none" xmlns="http://www.w3.org/2000/svg">
<g filter="url(#filter0_d_102_459)">
<path d="M422.751 3.84319H10.2486C7.41858 3.84319 5.12438 6.1374 5.12438 8.96745V351.012C5.12438 353.842 7.41858 356.136 10.2486 356.136H422.751C425.582 356.136 427.876 353.842 427.876 351.012V8.96745C427.876 6.1374 425.582 3.84319 422.751 3.84319Z" fill="white"/>
<mask id="mask0_102_459" style="mask-type:luminance" maskUnits="userSpaceOnUse" x="5" y="3" width="423" height="58">
<path d="M5.12438 3.84319H427.876V60.21H5.12438V3.84319Z" fill="white"/>
</mask>
<g mask="url(#mask0_102_459)">
<path d="M427.876 59.5695H5.12438V60.8506H427.876V59.5695Z" fill="#CAD3DB"/>
</g>
<path d="M40.1398 38.4319V28.7228H36.6181V26.6974H46.1159V28.7228H42.5955V38.4319H40.1398ZM47.9056 38.4319V29.4786H50.2794V38.4319H47.9056ZM49.1008 28.104C48.737 28.104 48.4231 27.9772 48.1567 27.7222C47.8915 27.4622 47.7583 27.1509 47.7583 26.7871C47.7583 26.4181 47.8915 26.1068 48.1567 25.8519C48.4231 25.5918 48.737 25.4612 49.1008 25.4612C49.4685 25.4612 49.7836 25.5918 50.0437 25.8519C50.3037 26.1068 50.4344 26.4181 50.4344 26.7871C50.4344 27.1509 50.3037 27.4622 50.0437 27.7222C49.7836 27.9772 49.4685 28.104 49.1008 28.104ZM52.6699 38.4319V29.4786H55.045V30.8775H55.1909C55.3805 30.3728 55.6957 29.9833 56.1338 29.7066C56.5732 29.4248 57.0857 29.2839 57.6711 29.2839C58.0772 29.2839 58.4461 29.3518 58.7767 29.4876C59.1072 29.6169 59.3903 29.804 59.6234 30.0486C59.8553 30.292 60.0347 30.588 60.159 30.9339H60.3063C60.4421 30.6034 60.6419 30.3164 60.9071 30.073C61.1736 29.8232 61.4848 29.631 61.8422 29.4952C62.2009 29.3543 62.5879 29.2839 63.0055 29.2839C63.6025 29.2839 64.1149 29.4056 64.5428 29.6503C64.9758 29.8937 65.3101 30.2408 65.5433 30.6905C65.7816 31.135 65.9007 31.6666 65.9007 32.2841V38.4319H63.5256V32.8785C63.5256 32.5147 63.4718 32.2137 63.3629 31.9754C63.2553 31.7371 63.09 31.5578 62.8671 31.4386C62.6506 31.3143 62.3764 31.2516 62.0459 31.2516C61.7257 31.2516 61.4464 31.3246 61.2081 31.4706C60.975 31.618 60.7944 31.8152 60.6637 32.065C60.533 32.3136 60.469 32.6018 60.469 32.9272V38.4319H58.0939V32.7722C58.0939 32.4519 58.0349 32.1791 57.9145 31.951C57.8018 31.723 57.6327 31.5501 57.4111 31.4309C57.1946 31.3118 56.9306 31.2516 56.6219 31.2516C56.3132 31.2516 56.039 31.3297 55.8007 31.4873C55.5676 31.6397 55.3831 31.8511 55.2473 32.1214C55.1128 32.3879 55.045 32.6915 55.045 33.0323V38.4319H52.6699ZM72.1381 38.619C71.2324 38.619 70.451 38.4319 69.7951 38.0579C69.1456 37.6787 68.6434 37.1419 68.2911 36.4476C67.9388 35.7545 67.7633 34.9269 67.7633 33.9674V33.9597C67.7633 33.0105 67.9363 32.1867 68.2835 31.4873C68.6358 30.7878 69.1315 30.2459 69.7708 29.8616C70.4164 29.476 71.1723 29.2839 72.0395 29.2839C72.9132 29.2839 73.6665 29.4709 74.3006 29.845C74.9348 30.219 75.4229 30.7417 75.7649 31.4143C76.1057 32.0868 76.2773 32.8747 76.2773 33.7804V34.5209H68.9496V33.0323H75.1385L74.0239 34.4389V33.4883C74.0239 32.9516 73.9406 32.5045 73.7715 32.1458C73.6088 31.7883 73.3821 31.5193 73.0887 31.3412C72.8017 31.1568 72.4661 31.0645 72.0805 31.0645C71.7013 31.0645 71.3619 31.1593 71.0647 31.3489C70.7713 31.5334 70.5381 31.8076 70.3652 32.1701C70.1974 32.5288 70.1128 32.9669 70.1128 33.4883V34.4478C70.1128 34.9513 70.1974 35.383 70.3652 35.7404C70.533 36.0978 70.7713 36.372 71.08 36.5616C71.39 36.7512 71.7577 36.846 72.1869 36.846C72.5327 36.846 72.8287 36.7947 73.0734 36.6923C73.3168 36.5885 73.5115 36.4694 73.6588 36.3336C73.81 36.1926 73.9125 36.0658 73.9676 35.9518L73.9919 35.9031H76.203L76.1876 35.9838C76.1171 36.2657 75.989 36.5616 75.8046 36.8703C75.6201 37.1739 75.3665 37.4583 75.0411 37.7248C74.7208 37.99 74.3199 38.2065 73.8369 38.3756C73.3603 38.5383 72.794 38.619 72.1381 38.619ZM86.946 38.733C86.0134 38.733 85.2025 38.5921 84.5145 38.3102C83.8253 38.0284 83.2835 37.6326 82.8876 37.1227C82.4969 36.6077 82.2778 36.003 82.2291 35.3087L82.2214 35.1793H84.5876L84.5952 35.26C84.6285 35.5534 84.7477 35.8109 84.9527 36.0325C85.1641 36.2503 85.4471 36.4207 85.7994 36.5449C86.1517 36.6705 86.5553 36.732 87.01 36.732C87.4494 36.732 87.8351 36.6679 88.1656 36.5372C88.4961 36.4066 88.7536 36.2285 88.938 36.0005C89.1276 35.7673 89.2224 35.5021 89.2224 35.2037V35.196C89.2224 34.8104 89.0649 34.5016 88.751 34.2685C88.4423 34.0353 87.9209 33.8432 87.1894 33.6907L85.9531 33.4396C84.7336 33.1898 83.8471 32.7799 83.295 32.2111C82.7416 31.6423 82.4649 30.9134 82.4649 30.0243V30.0153C82.4649 29.289 82.657 28.6549 83.0426 28.113C83.4269 27.5711 83.956 27.1509 84.6285 26.8524C85.2998 26.5488 86.0697 26.3963 86.937 26.3963C87.8478 26.3963 88.6293 26.5462 89.2788 26.8447C89.9347 27.1368 90.4471 27.5403 90.8161 28.0553C91.185 28.5652 91.3939 29.1481 91.4425 29.804L91.4502 29.9103H89.1405L89.1251 29.8117C89.0764 29.5298 88.9573 29.2839 88.7677 29.0725C88.5832 28.8611 88.3334 28.6959 88.0195 28.5767C87.7095 28.4512 87.3495 28.3897 86.937 28.3897C86.536 28.3897 86.1838 28.4486 85.8802 28.5677C85.5766 28.6869 85.3409 28.856 85.173 29.0725C85.0052 29.2839 84.9206 29.5362 84.9206 29.8283V29.8373C84.9206 30.2165 85.0731 30.5278 85.3767 30.7725C85.6855 31.0107 86.1838 31.2003 86.8717 31.3412L88.1169 31.5936C88.9457 31.7614 89.6209 31.9895 90.141 32.2764C90.6675 32.5634 91.0543 32.9246 91.3042 33.3576C91.554 33.7919 91.6783 34.3146 91.6783 34.927V34.9359C91.6783 35.711 91.4861 36.3822 91.1005 36.9523C90.7213 37.516 90.1768 37.9554 89.4658 38.2692C88.7612 38.578 87.9209 38.733 86.946 38.733ZM97.4841 38.464C96.4003 38.464 95.6188 38.2744 95.1423 37.8952C94.6657 37.5108 94.4261 36.8844 94.4261 36.0171V31.2682H93.0439V29.4786H94.4261V27.3405H96.8255V29.4786H98.6716V31.2682H96.8255V35.4714C96.8255 35.8737 96.9152 36.1683 97.0946 36.3579C97.2778 36.5424 97.5711 36.6346 97.9721 36.6346C98.1246 36.6346 98.2488 36.6321 98.3462 36.6269C98.4487 36.6154 98.5576 36.6051 98.6716 36.5936V38.3589C98.5256 38.3858 98.3487 38.4102 98.1425 38.4319C97.9375 38.4537 97.7172 38.464 97.4841 38.464ZM103.087 38.5703C102.524 38.5703 102.019 38.4614 101.574 38.2449C101.135 38.0233 100.792 37.7107 100.542 37.3097C100.292 36.9036 100.168 36.4284 100.168 35.8865V35.8698C100.168 35.3343 100.301 34.8732 100.566 34.4876C100.838 34.1032 101.23 33.8022 101.745 33.5857C102.266 33.3628 102.898 33.2308 103.64 33.1873L106.974 32.9836V34.4312L103.998 34.6259C103.488 34.6528 103.109 34.7617 102.859 34.9513C102.61 35.1409 102.485 35.3984 102.485 35.7238V35.7404C102.485 36.0825 102.616 36.3502 102.876 36.5449C103.136 36.7409 103.472 36.8383 103.884 36.8383C104.253 36.8383 104.581 36.7653 104.868 36.618C105.155 36.4719 105.383 36.2746 105.551 36.0248C105.719 35.7699 105.803 35.4855 105.803 35.1716V32.3174C105.803 31.9267 105.673 31.6282 105.413 31.422C105.158 31.2106 104.786 31.1055 104.299 31.1055C103.87 31.1055 103.52 31.1785 103.25 31.3246C102.984 31.4655 102.806 31.6692 102.713 31.9344L102.697 31.9677H100.501L100.51 31.8934C100.574 31.3681 100.773 30.9095 101.103 30.5201C101.439 30.1294 101.89 29.8258 102.453 29.6093C103.022 29.3928 103.681 29.2839 104.429 29.2839C105.22 29.2839 105.893 29.4056 106.445 29.6503C106.999 29.8885 107.419 30.2357 107.706 30.6905C107.999 31.1401 108.145 31.682 108.145 32.3174V38.4319H105.803V37.2444H105.657C105.505 37.5211 105.301 37.7594 105.047 37.9605C104.798 38.1552 104.504 38.3077 104.169 38.4153C103.838 38.5191 103.477 38.5703 103.087 38.5703ZM114.187 38.464C113.103 38.464 112.323 38.2744 111.845 37.8952C111.368 37.5108 111.13 36.8844 111.13 36.0171V31.2682H109.746V29.4786H111.13V27.3405H113.528V29.4786H115.374V31.2682H113.528V35.4714C113.528 35.8737 113.618 36.1683 113.797 36.3579C113.98 36.5424 114.274 36.6346 114.675 36.6346C114.827 36.6346 114.951 36.6321 115.049 36.6269C115.152 36.6154 115.26 36.6051 115.374 36.5936V38.3589C115.228 38.3858 115.051 38.4102 114.845 38.4319C114.64 38.4537 114.42 38.464 114.187 38.464ZM120.83 38.619C120.018 38.619 119.324 38.5075 118.748 38.2859C118.18 38.0579 117.733 37.7466 117.407 37.3507C117.087 36.9549 116.9 36.5014 116.846 35.9928L116.838 35.9595H119.171L119.188 35.9928C119.285 36.2695 119.47 36.4963 119.741 36.6756C120.018 36.8549 120.388 36.9433 120.854 36.9433C121.158 36.9433 121.425 36.9036 121.651 36.8216C121.879 36.7345 122.059 36.618 122.188 36.4719C122.319 36.3259 122.384 36.1555 122.384 35.9595V35.9441C122.384 35.7046 122.287 35.5073 122.091 35.3497C121.896 35.1934 121.571 35.0627 121.115 34.9602L119.62 34.6426C119.049 34.5234 118.575 34.3492 118.196 34.1224C117.816 33.8893 117.531 33.6049 117.342 33.268C117.157 32.9323 117.065 32.5416 117.065 32.0971V32.0894C117.065 31.5257 117.22 31.0351 117.529 30.6174C117.844 30.1947 118.28 29.8667 118.838 29.6336C119.402 29.4004 120.055 29.2839 120.798 29.2839C121.578 29.2839 122.243 29.403 122.79 29.6413C123.338 29.8744 123.757 30.1896 124.051 30.5854C124.349 30.9749 124.515 31.4117 124.547 31.8934V31.9267H122.343L122.335 31.8857C122.27 31.6423 122.107 31.4284 121.847 31.2439C121.587 31.0543 121.235 30.9595 120.79 30.9595C120.519 30.9595 120.278 30.9992 120.067 31.0812C119.855 31.1619 119.686 31.2759 119.562 31.422C119.443 31.5693 119.383 31.7422 119.383 31.9433V31.951C119.383 32.1086 119.424 32.247 119.506 32.3661C119.586 32.4852 119.719 32.5877 119.904 32.6748C120.088 32.7619 120.334 32.8401 120.643 32.9106L122.132 33.2283C123.026 33.423 123.687 33.7151 124.116 34.1058C124.544 34.4965 124.758 35.0218 124.758 35.6828V35.6917C124.758 36.2823 124.59 36.7973 124.254 37.2367C123.918 37.6761 123.454 38.0169 122.863 38.2616C122.273 38.4998 121.595 38.619 120.83 38.619Z" fill="#454F5B"/>
<mask id="mask1_102_459" style="mask-type:luminance" maskUnits="userSpaceOnUse" x="35" y="90" width="247" height="53">
<path d="M35.8699 90.9556H281.834V142.198H35.8699V90.9556Z" fill="white"/>
</mask>
<g mask="url(#mask1_102_459)">
<path d="M39.0726 142.198V90.9556H32.6673V142.198H39.0726Z" fill="#99C5EF"/>
</g>
<path d="M51.7679 108.89L55.679 98.0591H57.0369V99.9576H56.5271L53.5397 108.89H51.7679ZM53.6523 105.963L54.1251 104.612H59.0571L59.5299 105.963H53.6523ZM59.635 108.89L56.6551 99.9576V98.0591H57.5033L61.4067 108.89H59.635ZM64.3262 108.89L61.3759 100.739H63.1104L65.1448 107.239H65.2639L67.2905 100.739H69.0098L66.0672 108.89H64.3262ZM73.7612 109.048C72.9657 109.048 72.2829 108.878 71.7128 108.538C71.1415 108.192 70.7008 107.704 70.3908 107.074C70.0859 106.444 69.9334 105.698 69.9334 104.837V104.83C69.9334 103.979 70.0859 103.236 70.3908 102.6C70.7008 101.965 71.1363 101.469 71.6974 101.114C72.2624 100.758 72.9234 100.582 73.6792 100.582C74.4389 100.582 75.0923 100.751 75.638 101.091C76.1889 101.432 76.6116 101.91 76.9063 102.525C77.2022 103.136 77.3495 103.851 77.3495 104.672V105.242H70.7584V104.079H76.5385L75.7584 105.16V104.507C75.7584 103.926 75.6675 103.446 75.4881 103.065C75.3126 102.68 75.0705 102.393 74.7592 102.202C74.4492 102.012 74.0918 101.918 73.687 101.918C73.2809 101.918 72.9183 102.018 72.598 102.217C72.2829 102.412 72.0331 102.703 71.8473 103.089C71.6667 103.473 71.577 103.947 71.577 104.507V105.16C71.577 105.696 71.6667 106.153 71.8473 106.533C72.0279 106.914 72.2829 107.205 72.6134 107.404C72.9478 107.604 73.3436 107.704 73.7984 107.704C74.1494 107.704 74.4491 107.657 74.7002 107.562C74.9551 107.462 75.1627 107.339 75.3228 107.194C75.4881 107.048 75.6008 106.906 75.661 106.766L75.6905 106.706H77.2663L77.2521 106.774C77.1816 107.044 77.0587 107.315 76.8845 107.584C76.7089 107.85 76.4758 108.092 76.1863 108.313C75.9006 108.533 75.556 108.71 75.1499 108.846C74.7502 108.98 74.2865 109.048 73.7612 109.048ZM79.2865 108.89V100.739H80.9147V101.97H81.0428C81.1876 101.535 81.4425 101.196 81.8076 100.957C82.1778 100.716 82.6339 100.596 83.1745 100.596C83.309 100.596 83.4423 100.603 83.5717 100.619C83.7023 100.634 83.8073 100.651 83.8868 100.671V102.173C83.742 102.142 83.5973 102.12 83.4525 102.105C83.3116 102.089 83.1642 102.083 83.0092 102.083C82.5942 102.083 82.229 102.162 81.9126 102.322C81.6026 102.483 81.3579 102.708 81.1773 102.998C81.0018 103.283 80.9147 103.624 80.9147 104.019V108.89H79.2865ZM87.6326 109.025C87.1176 109.025 86.6552 108.928 86.244 108.733C85.8391 108.533 85.5189 108.25 85.2832 107.885C85.0487 107.52 84.9308 107.092 84.9308 106.601V106.586C84.9308 106.095 85.0487 105.678 85.2832 105.333C85.524 104.987 85.8685 104.717 86.3195 104.522C86.7743 104.322 87.3251 104.202 87.9708 104.162L90.9813 103.981V105.129L88.1963 105.31C87.6352 105.345 87.2227 105.465 86.9575 105.67C86.6923 105.871 86.5591 106.153 86.5591 106.518V106.533C86.5591 106.904 86.7025 107.197 86.9869 107.412C87.2726 107.622 87.6326 107.727 88.0681 107.727C88.4729 107.727 88.8343 107.647 89.1494 107.486C89.4697 107.321 89.7195 107.102 89.9001 106.827C90.0795 106.546 90.1704 106.231 90.1704 105.88V103.313C90.1704 102.863 90.0295 102.52 89.7502 102.285C89.4748 102.044 89.0636 101.924 88.5191 101.924C88.0631 101.924 87.6902 102.005 87.4007 102.165C87.115 102.325 86.9254 102.55 86.8294 102.84L86.8153 102.863H85.246L85.2537 102.811C85.319 102.36 85.4958 101.97 85.7866 101.64C86.0813 101.304 86.4668 101.044 86.9421 100.858C87.4225 100.674 87.9708 100.582 88.5857 100.582C89.2724 100.582 89.8527 100.692 90.328 100.911C90.8084 101.126 91.1709 101.44 91.4156 101.85C91.6667 102.255 91.7909 102.743 91.7909 103.313V108.89H90.1704V107.735H90.05C89.8899 108.009 89.69 108.245 89.4491 108.44C89.2096 108.63 88.9367 108.775 88.6318 108.875C88.3256 108.975 87.9939 109.025 87.6326 109.025ZM97.534 111.765C96.8435 111.765 96.2426 111.67 95.7328 111.48C95.2268 111.29 94.8258 111.025 94.5312 110.684C94.2365 110.344 94.0559 109.949 93.9905 109.499L93.9982 109.484H95.6495L95.6572 109.499C95.7276 109.778 95.9249 110.009 96.2503 110.19C96.5757 110.369 97.0112 110.46 97.5557 110.46C98.227 110.46 98.7497 110.306 99.125 110.001C99.5055 109.696 99.6951 109.268 99.6951 108.718V107.119H99.5683C99.4082 107.41 99.2032 107.659 98.9521 107.869C98.7023 108.074 98.4166 108.229 98.0963 108.335C97.776 108.44 97.4289 108.492 97.0536 108.492C96.3631 108.492 95.7622 108.328 95.2524 107.998C94.7464 107.662 94.3557 107.202 94.0802 106.617C93.8112 106.026 93.6754 105.347 93.6754 104.582V104.567C93.6754 103.792 93.8125 103.105 94.0879 102.511C94.3633 101.91 94.7566 101.442 95.2665 101.107C95.7776 100.766 96.3848 100.596 97.0907 100.596C97.4712 100.596 97.8183 100.656 98.1348 100.776C98.455 100.897 98.7369 101.067 98.9828 101.286C99.2275 101.506 99.4299 101.769 99.59 102.075H99.6874V100.739H101.317V108.725C101.317 109.341 101.162 109.877 100.852 110.332C100.546 110.786 100.11 111.14 99.5452 111.39C98.9803 111.64 98.309 111.765 97.534 111.765ZM97.5109 107.142C97.9721 107.142 98.3667 107.034 98.6972 106.819C99.0277 106.599 99.2801 106.296 99.4556 105.911C99.6349 105.525 99.7259 105.079 99.7259 104.575V104.559C99.7259 104.06 99.6349 103.614 99.4556 103.223C99.2801 102.832 99.0277 102.527 98.6972 102.307C98.3667 102.087 97.9721 101.978 97.5109 101.978C97.051 101.978 96.6577 102.087 96.3323 102.307C96.0121 102.527 95.7673 102.832 95.597 103.223C95.4266 103.609 95.3421 104.054 95.3421 104.559V104.575C95.3421 105.079 95.4266 105.525 95.597 105.911C95.7673 106.296 96.0121 106.599 96.3323 106.819C96.6577 107.034 97.051 107.142 97.5109 107.142ZM107.089 109.048C106.294 109.048 105.61 108.878 105.04 108.538C104.47 108.192 104.029 107.704 103.719 107.074C103.414 106.444 103.26 105.698 103.26 104.837V104.83C103.26 103.979 103.414 103.236 103.719 102.6C104.029 101.965 104.465 101.469 105.024 101.114C105.591 100.758 106.25 100.582 107.006 100.582C107.767 100.582 108.42 100.751 108.966 101.091C109.516 101.432 109.939 101.91 110.234 102.525C110.529 103.136 110.678 103.851 110.678 104.672V105.242H104.087V104.079H109.867L109.085 105.16V104.507C109.085 103.926 108.996 103.446 108.815 103.065C108.641 102.68 108.397 102.393 108.087 102.202C107.777 102.012 107.42 101.918 107.014 101.918C106.609 101.918 106.246 102.018 105.926 102.217C105.61 102.412 105.36 102.703 105.175 103.089C104.995 103.473 104.905 103.947 104.905 104.507V105.16C104.905 105.696 104.995 106.153 105.175 106.533C105.355 106.914 105.61 107.205 105.94 107.404C106.276 107.604 106.672 107.704 107.127 107.704C107.476 107.704 107.777 107.657 108.027 107.562C108.282 107.462 108.491 107.339 108.65 107.194C108.815 107.048 108.928 106.906 108.988 106.766L109.019 106.706H110.594L110.579 106.774C110.51 107.044 110.387 107.315 110.211 107.584C110.037 107.85 109.804 108.092 109.513 108.313C109.229 108.533 108.883 108.71 108.478 108.846C108.077 108.98 107.615 109.048 107.089 109.048ZM116.99 108.89V98.0591H123.753V99.5157H118.672V102.939H123.326V104.357H118.672V108.89H116.99ZM125.772 108.89V100.739H127.408V108.89H125.772ZM126.597 99.2825C126.318 99.2825 126.077 99.1826 125.878 98.9827C125.678 98.7816 125.576 98.5421 125.576 98.2615C125.576 97.981 125.678 97.7439 125.878 97.5479C126.077 97.3481 126.318 97.2482 126.597 97.2482C126.878 97.2482 127.119 97.3481 127.319 97.5479C127.519 97.7439 127.618 97.981 127.618 98.2615C127.618 98.5421 127.519 98.7816 127.319 98.9827C127.119 99.1826 126.878 99.2825 126.597 99.2825ZM129.773 108.89V100.739H131.401V101.97H131.53C131.674 101.535 131.929 101.196 132.296 100.957C132.666 100.716 133.121 100.596 133.661 100.596C133.796 100.596 133.929 100.603 134.058 100.619C134.189 100.634 134.294 100.651 134.375 100.671V102.173C134.229 102.142 134.084 102.12 133.939 102.105C133.798 102.089 133.651 102.083 133.496 102.083C133.081 102.083 132.716 102.162 132.401 102.322C132.089 102.483 131.845 102.708 131.664 102.998C131.49 103.283 131.401 103.624 131.401 104.019V108.89H129.773ZM138.743 109.048C138.087 109.048 137.517 108.953 137.032 108.762C136.546 108.568 136.161 108.3 135.875 107.959C135.591 107.615 135.423 107.214 135.373 106.759V106.743H137.009V106.759C137.114 107.064 137.315 107.312 137.61 107.502C137.904 107.691 138.295 107.788 138.78 107.788C139.116 107.788 139.408 107.74 139.659 107.644C139.914 107.549 140.114 107.417 140.259 107.247C140.405 107.076 140.477 106.882 140.477 106.661V106.646C140.477 106.391 140.374 106.176 140.169 106C139.964 105.825 139.626 105.683 139.156 105.573L137.849 105.273C137.339 105.157 136.916 105 136.581 104.8C136.246 104.599 135.998 104.354 135.838 104.063C135.678 103.769 135.598 103.423 135.598 103.028V103.021C135.598 102.545 135.733 102.125 136.003 101.76C136.273 101.39 136.646 101.102 137.121 100.897C137.602 100.687 138.15 100.582 138.765 100.582C139.386 100.582 139.927 100.679 140.387 100.874C140.852 101.064 141.22 101.33 141.49 101.669C141.76 102.005 141.92 102.395 141.97 102.84V102.848H140.41V102.832C140.334 102.548 140.154 102.31 139.869 102.12C139.589 101.929 139.219 101.834 138.757 101.834C138.463 101.834 138.2 101.882 137.969 101.978C137.74 102.068 137.557 102.194 137.421 102.36C137.292 102.52 137.226 102.711 137.226 102.931V102.945C137.226 103.115 137.269 103.265 137.355 103.396C137.444 103.522 137.584 103.633 137.775 103.734C137.964 103.829 138.21 103.914 138.51 103.989L139.809 104.281C140.589 104.467 141.17 104.735 141.55 105.084C141.936 105.435 142.128 105.906 142.128 106.496V106.512C142.128 107.011 141.98 107.454 141.686 107.84C141.39 108.22 140.988 108.518 140.477 108.733C139.972 108.943 139.394 109.048 138.743 109.048ZM147.082 108.943C146.191 108.943 145.546 108.773 145.146 108.433C144.75 108.087 144.553 107.525 144.553 106.743V102.023H143.277V100.739H144.553V98.6817H146.219V100.739H147.968V102.023H146.219V106.346C146.219 106.786 146.307 107.103 146.482 107.299C146.656 107.489 146.947 107.584 147.352 107.584C147.472 107.584 147.575 107.583 147.661 107.577C147.75 107.572 147.853 107.565 147.968 107.554V108.861C147.838 108.88 147.698 108.898 147.548 108.914C147.398 108.933 147.243 108.943 147.082 108.943ZM154.251 108.89V98.0591H158.522C159.262 98.0591 159.903 98.1962 160.443 98.4716C160.984 98.7419 161.399 99.1249 161.69 99.6207C161.984 100.11 162.133 100.692 162.133 101.362V101.377C162.133 102.107 161.947 102.75 161.577 103.306C161.207 103.856 160.692 104.244 160.031 104.47L162.454 108.89H160.511L158.304 104.724C158.29 104.724 158.274 104.724 158.259 104.724C158.244 104.724 158.23 104.724 158.214 104.724H155.933V108.89H154.251ZM155.933 103.359H158.356C159.002 103.359 159.503 103.191 159.858 102.855C160.213 102.515 160.391 102.037 160.391 101.422V101.407C160.391 100.806 160.206 100.333 159.836 99.9884C159.47 99.6425 158.96 99.4695 158.304 99.4695H155.933V103.359ZM167.529 109.048C166.733 109.048 166.05 108.878 165.48 108.538C164.91 108.192 164.47 107.704 164.16 107.074C163.853 106.444 163.701 105.698 163.701 104.837V104.83C163.701 103.979 163.853 103.236 164.16 102.6C164.47 101.965 164.905 101.469 165.465 101.114C166.031 100.758 166.691 100.582 167.447 100.582C168.208 100.582 168.86 100.751 169.405 101.091C169.956 101.432 170.379 101.91 170.675 102.525C170.97 103.136 171.117 103.851 171.117 104.672V105.242H164.527V104.079H170.306L169.526 105.16V104.507C169.526 103.926 169.436 103.446 169.256 103.065C169.08 102.68 168.838 102.393 168.528 102.202C168.218 102.012 167.859 101.918 167.454 101.918C167.048 101.918 166.686 102.018 166.366 102.217C166.05 102.412 165.801 102.703 165.615 103.089C165.435 103.473 165.345 103.947 165.345 104.507V105.16C165.345 105.696 165.435 106.153 165.615 106.533C165.795 106.914 166.05 107.205 166.381 107.404C166.717 107.604 167.111 107.704 167.567 107.704C167.917 107.704 168.218 107.657 168.468 107.562C168.723 107.462 168.93 107.339 169.09 107.194C169.256 107.048 169.368 106.906 169.429 106.766L169.458 106.706H171.035L171.02 106.774C170.949 107.044 170.827 107.315 170.652 107.584C170.476 107.85 170.245 108.092 169.954 108.313C169.668 108.533 169.324 108.71 168.917 108.846C168.518 108.98 168.055 109.048 167.529 109.048ZM176.018 109.048C175.364 109.048 174.792 108.953 174.307 108.762C173.823 108.568 173.437 108.3 173.151 107.959C172.866 107.615 172.699 107.214 172.649 106.759V106.743H174.285V106.759C174.39 107.064 174.59 107.312 174.886 107.502C175.181 107.691 175.571 107.788 176.057 107.788C176.391 107.788 176.685 107.74 176.934 107.644C177.189 107.549 177.39 107.417 177.535 107.247C177.68 107.076 177.753 106.882 177.753 106.661V106.646C177.753 106.391 177.65 106.176 177.445 106C177.24 105.825 176.902 105.683 176.432 105.573L175.125 105.273C174.616 105.157 174.193 105 173.857 104.8C173.522 104.599 173.274 104.354 173.114 104.063C172.954 103.769 172.873 103.423 172.873 103.028V103.021C172.873 102.545 173.009 102.125 173.279 101.76C173.55 101.39 173.923 101.102 174.398 100.897C174.878 100.687 175.427 100.582 176.041 100.582C176.662 100.582 177.202 100.679 177.663 100.874C178.128 101.064 178.496 101.33 178.766 101.669C179.037 102.005 179.197 102.395 179.247 102.84V102.848H177.685V102.832C177.611 102.548 177.43 102.31 177.144 102.12C176.865 101.929 176.494 101.834 176.034 101.834C175.739 101.834 175.476 101.882 175.246 101.978C175.015 102.068 174.833 102.194 174.698 102.36C174.568 102.52 174.503 102.711 174.503 102.931V102.945C174.503 103.115 174.545 103.265 174.63 103.396C174.721 103.522 174.86 103.633 175.051 103.734C175.241 103.829 175.485 103.914 175.786 103.989L177.084 104.281C177.866 104.467 178.446 104.735 178.826 105.084C179.212 105.435 179.404 105.906 179.404 106.496V106.512C179.404 107.011 179.257 107.454 178.961 107.84C178.666 108.22 178.263 108.518 177.753 108.733C177.247 108.943 176.669 109.048 176.018 109.048ZM181.341 111.608V100.739H182.969V102.023H183.098C183.253 101.722 183.452 101.467 183.698 101.257C183.948 101.047 184.233 100.884 184.553 100.769C184.873 100.653 185.224 100.596 185.605 100.596C186.29 100.596 186.886 100.771 187.39 101.122C187.896 101.467 188.287 101.955 188.561 102.585C188.842 103.21 188.983 103.952 188.983 104.806V104.822C188.983 105.683 188.844 106.428 188.569 107.059C188.294 107.685 187.904 108.171 187.398 108.515C186.893 108.856 186.295 109.025 185.605 109.025C185.229 109.025 184.878 108.969 184.553 108.853C184.229 108.733 183.94 108.568 183.691 108.358C183.44 108.147 183.242 107.895 183.098 107.599H182.969V111.608H181.341ZM185.14 107.63C185.594 107.63 185.985 107.517 186.31 107.292C186.636 107.066 186.883 106.743 187.053 106.323C187.228 105.903 187.316 105.402 187.316 104.822V104.806C187.316 104.221 187.228 103.719 187.053 103.299C186.883 102.878 186.636 102.556 186.31 102.33C185.985 102.105 185.594 101.992 185.14 101.992C184.689 101.992 184.298 102.107 183.967 102.338C183.638 102.563 183.384 102.885 183.21 103.306C183.035 103.721 182.948 104.221 182.948 104.806V104.822C182.948 105.397 183.035 105.895 183.21 106.316C183.384 106.736 183.638 107.061 183.967 107.292C184.298 107.517 184.689 107.63 185.14 107.63ZM194.386 109.048C193.591 109.048 192.903 108.878 192.322 108.538C191.747 108.197 191.304 107.712 190.994 107.082C190.684 106.446 190.529 105.693 190.529 104.822V104.806C190.529 103.931 190.684 103.178 190.994 102.548C191.309 101.918 191.755 101.432 192.33 101.091C192.91 100.751 193.596 100.582 194.386 100.582C195.182 100.582 195.868 100.751 196.444 101.091C197.019 101.427 197.462 101.913 197.772 102.548C198.087 103.178 198.245 103.931 198.245 104.806V104.822C198.245 105.693 198.087 106.446 197.772 107.082C197.462 107.712 197.019 108.197 196.444 108.538C195.872 108.878 195.187 109.048 194.386 109.048ZM194.386 107.682C194.853 107.682 195.247 107.57 195.573 107.344C195.898 107.114 196.145 106.786 196.316 106.36C196.486 105.935 196.57 105.423 196.57 104.822V104.806C196.57 104.202 196.486 103.687 196.316 103.26C196.145 102.835 195.898 102.511 195.573 102.285C195.247 102.055 194.853 101.939 194.386 101.939C193.921 101.939 193.525 102.055 193.2 102.285C192.876 102.511 192.625 102.835 192.451 103.26C192.28 103.687 192.194 104.202 192.194 104.806V104.822C192.194 105.423 192.28 105.935 192.451 106.36C192.625 106.786 192.876 107.114 193.2 107.344C193.525 107.57 193.921 107.682 194.386 107.682ZM200.182 108.89V100.739H201.81V101.97H201.938C202.138 101.535 202.434 101.194 202.823 100.949C203.214 100.703 203.707 100.582 204.303 100.582C205.218 100.582 205.918 100.844 206.404 101.369C206.889 101.895 207.133 102.643 207.133 103.614V108.89H205.496V103.997C205.496 103.315 205.353 102.811 205.068 102.48C204.787 102.144 204.348 101.978 203.747 101.978C203.351 101.978 203.009 102.065 202.718 102.24C202.429 102.41 202.203 102.656 202.043 102.976C201.888 103.291 201.81 103.669 201.81 104.11V108.89H200.182ZM212.363 109.048C211.709 109.048 211.137 108.953 210.653 108.762C210.168 108.568 209.782 108.3 209.496 107.959C209.212 107.615 209.044 107.214 208.994 106.759V106.743H210.63V106.759C210.735 107.064 210.935 107.312 211.231 107.502C211.526 107.691 211.916 107.788 212.402 107.788C212.736 107.788 213.03 107.74 213.279 107.644C213.536 107.549 213.735 107.417 213.88 107.247C214.025 107.076 214.098 106.882 214.098 106.661V106.646C214.098 106.391 213.996 106.176 213.791 106C213.586 105.825 213.247 105.683 212.777 105.573L211.471 105.273C210.961 105.157 210.538 105 210.202 104.8C209.867 104.599 209.619 104.354 209.459 104.063C209.299 103.769 209.218 103.423 209.218 103.028V103.021C209.218 102.545 209.354 102.125 209.625 101.76C209.895 101.39 210.268 101.102 210.743 100.897C211.223 100.687 211.772 100.582 212.387 100.582C213.007 100.582 213.547 100.679 214.008 100.874C214.473 101.064 214.841 101.33 215.111 101.669C215.382 102.005 215.542 102.395 215.592 102.84V102.848H214.03V102.832C213.956 102.548 213.775 102.31 213.49 102.12C213.21 101.929 212.84 101.834 212.379 101.834C212.084 101.834 211.822 101.882 211.591 101.978C211.36 102.068 211.178 102.194 211.043 102.36C210.913 102.52 210.848 102.711 210.848 102.931V102.945C210.848 103.115 210.89 103.265 210.976 103.396C211.066 103.522 211.205 103.633 211.396 103.734C211.586 103.829 211.831 103.914 212.132 103.989L213.431 104.281C214.211 104.467 214.791 104.735 215.172 105.084C215.557 105.435 215.749 105.906 215.749 106.496V106.512C215.749 107.011 215.602 107.454 215.306 107.84C215.011 108.22 214.608 108.518 214.098 108.733C213.592 108.943 213.014 109.048 212.363 109.048ZM221.109 109.048C220.314 109.048 219.63 108.878 219.06 108.538C218.489 108.192 218.049 107.704 217.739 107.074C217.434 106.444 217.28 105.698 217.28 104.837V104.83C217.28 103.979 217.434 103.236 217.739 102.6C218.049 101.965 218.484 101.469 219.044 101.114C219.61 100.758 220.27 100.582 221.026 100.582C221.787 100.582 222.44 100.751 222.985 101.091C223.536 101.432 223.958 101.91 224.254 102.525C224.549 103.136 224.696 103.851 224.696 104.672V105.242H218.107V104.079H223.887L223.105 105.16V104.507C223.105 103.926 223.016 103.446 222.835 103.065C222.661 102.68 222.417 102.393 222.107 102.202C221.797 102.012 221.439 101.918 221.034 101.918C220.629 101.918 220.265 102.018 219.945 102.217C219.63 102.412 219.38 102.703 219.195 103.089C219.015 103.473 218.925 103.947 218.925 104.507V105.16C218.925 105.696 219.015 106.153 219.195 106.533C219.375 106.914 219.63 107.205 219.96 107.404C220.296 107.604 220.69 107.704 221.146 107.704C221.496 107.704 221.797 107.657 222.047 107.562C222.302 107.462 222.509 107.339 222.67 107.194C222.835 107.048 222.948 106.906 223.008 106.766L223.039 106.706H224.614L224.599 106.774C224.53 107.044 224.407 107.315 224.231 107.584C224.056 107.85 223.824 108.092 223.533 108.313C223.249 108.533 222.903 108.71 222.498 108.846C222.097 108.98 221.635 109.048 221.109 109.048ZM233.757 108.89V99.5157H230.35V98.0591H238.846V99.5157H235.438V108.89H233.757ZM240.588 108.89V100.739H242.224V108.89H240.588ZM241.413 99.2825C241.134 99.2825 240.893 99.1826 240.693 98.9827C240.493 98.7816 240.392 98.5421 240.392 98.2615C240.392 97.981 240.493 97.7439 240.693 97.5479C240.893 97.3481 241.134 97.2482 241.413 97.2482C241.693 97.2482 241.934 97.3481 242.134 97.5479C242.334 97.7439 242.434 97.981 242.434 98.2615C242.434 98.5421 242.334 98.7816 242.134 98.9827C241.934 99.1826 241.693 99.2825 241.413 99.2825ZM244.589 108.89V100.739H246.217V101.992H246.345C246.526 101.542 246.805 101.194 247.185 100.949C247.571 100.703 248.031 100.582 248.566 100.582C248.937 100.582 249.27 100.642 249.566 100.761C249.86 100.881 250.113 101.052 250.323 101.272C250.538 101.487 250.706 101.742 250.826 102.037H250.954C251.089 101.742 251.278 101.487 251.524 101.272C251.769 101.052 252.055 100.881 252.38 100.761C252.711 100.642 253.06 100.582 253.431 100.582C253.981 100.582 254.452 100.689 254.842 100.904C255.232 101.114 255.53 101.419 255.735 101.819C255.94 102.22 256.043 102.703 256.043 103.268V108.89H254.414V103.659C254.414 103.283 254.357 102.973 254.241 102.727C254.126 102.477 253.951 102.29 253.716 102.165C253.486 102.039 253.196 101.978 252.845 101.978C252.5 101.978 252.197 102.057 251.937 102.217C251.682 102.372 251.482 102.583 251.336 102.848C251.196 103.108 251.126 103.404 251.126 103.734V108.89H249.498V103.493C249.498 103.183 249.432 102.916 249.302 102.69C249.177 102.46 248.997 102.285 248.762 102.165C248.527 102.039 248.249 101.978 247.928 101.978C247.603 101.978 247.311 102.062 247.051 102.233C246.795 102.403 246.592 102.632 246.442 102.923C246.292 103.208 246.217 103.528 246.217 103.884V108.89H244.589ZM261.747 109.048C260.952 109.048 260.269 108.878 259.699 108.538C259.127 108.192 258.688 107.704 258.377 107.074C258.072 106.444 257.919 105.698 257.919 104.837V104.83C257.919 103.979 258.072 103.236 258.377 102.6C258.688 101.965 259.122 101.469 259.683 101.114C260.248 100.758 260.909 100.582 261.665 100.582C262.426 100.582 263.078 100.751 263.624 101.091C264.175 101.432 264.598 101.91 264.892 102.525C265.188 103.136 265.335 103.851 265.335 104.672V105.242H258.746V104.079H264.525L263.744 105.16V104.507C263.744 103.926 263.655 103.446 263.474 103.065C263.299 102.68 263.056 102.393 262.746 102.202C262.435 102.012 262.078 101.918 261.673 101.918C261.267 101.918 260.904 102.018 260.584 102.217C260.269 102.412 260.019 102.703 259.833 103.089C259.654 103.473 259.563 103.947 259.563 104.507V105.16C259.563 105.696 259.654 106.153 259.833 106.533C260.014 106.914 260.269 107.205 260.599 107.404C260.935 107.604 261.33 107.704 261.786 107.704C262.135 107.704 262.435 107.657 262.686 107.562C262.941 107.462 263.149 107.339 263.309 107.194C263.474 107.048 263.587 106.906 263.647 106.766L263.676 106.706H265.254L265.238 106.774C265.168 107.044 265.046 107.315 264.87 107.584C264.695 107.85 264.462 108.092 264.172 108.313C263.887 108.533 263.542 108.71 263.136 108.846C262.736 108.98 262.272 109.048 261.747 109.048Z" fill="#454F5B"/>
<path d="M56.8127 136.053C55.9288 136.053 55.1537 135.907 54.4876 135.614C53.8253 135.316 53.3025 134.904 52.9182 134.379C52.5326 133.847 52.311 133.231 52.2508 132.533L52.2431 132.426H54.5926L54.6016 132.516C54.6387 132.82 54.7502 133.09 54.9347 133.329C55.1243 133.563 55.3792 133.747 55.6994 133.881C56.0184 134.012 56.39 134.077 56.8127 134.077C57.2303 134.077 57.5941 134.007 57.9028 133.866C58.2167 133.719 58.4575 133.519 58.6266 133.264C58.7996 133.009 58.8867 132.716 58.8867 132.385V132.37C58.8867 131.806 58.6856 131.374 58.2846 131.076C57.8888 130.779 57.3367 130.629 56.6257 130.629H55.2844V128.88H56.5936C57.0048 128.88 57.3636 128.814 57.6672 128.678C57.9708 128.542 58.2065 128.355 58.3743 128.117C58.5421 127.872 58.6266 127.593 58.6266 127.279V127.262C58.6266 126.937 58.5536 126.658 58.4063 126.426C58.2654 126.186 58.0566 126.006 57.7812 125.88C57.5096 125.751 57.1817 125.685 56.7961 125.685C56.4117 125.685 56.0735 125.751 55.7801 125.88C55.4868 126.011 55.2549 126.198 55.0806 126.441C54.9077 126.679 54.804 126.961 54.7719 127.287L54.7643 127.36H52.5032L52.5108 127.262C52.5711 126.558 52.7824 125.948 53.145 125.433C53.5139 124.913 54.0071 124.512 54.6259 124.23C55.2485 123.942 55.9723 123.798 56.7961 123.798C57.6364 123.798 58.3692 123.931 58.9918 124.197C59.6157 124.457 60.0947 124.823 60.4317 125.295C60.7724 125.761 60.9441 126.309 60.9441 126.937V126.954C60.9441 127.442 60.8352 127.869 60.6187 128.238C60.4022 128.607 60.1088 128.911 59.7399 129.149C59.3722 129.388 58.9572 129.555 58.496 129.654V129.703C59.3684 129.783 60.0678 130.065 60.5944 130.548C61.1196 131.03 61.3835 131.67 61.3835 132.467V132.484C61.3835 133.194 61.1901 133.817 60.8058 134.353C60.4266 134.89 59.8949 135.307 59.2121 135.606C58.5293 135.904 57.7287 136.053 56.8127 136.053ZM68.0028 136.094C67.0369 136.094 66.2054 135.844 65.5059 135.346C64.8116 134.841 64.2774 134.129 63.9034 133.206C63.5293 132.285 63.3423 131.193 63.3423 129.929V129.914C63.3423 128.645 63.5293 127.553 63.9034 126.637C64.2774 125.715 64.8116 125.005 65.5059 124.505C66.2054 124.007 67.0369 123.757 68.0028 123.757C68.9726 123.757 69.8052 124.007 70.4983 124.505C71.1926 125.005 71.7268 125.715 72.1009 126.637C72.475 127.553 72.662 128.645 72.662 129.914V129.929C72.662 131.193 72.475 132.285 72.1009 133.206C71.7268 134.129 71.1926 134.841 70.4983 135.346C69.8052 135.844 68.9726 136.094 68.0028 136.094ZM68.0028 134.151C68.4678 134.151 68.8611 133.983 69.1813 133.646C69.5067 133.31 69.7527 132.827 69.9218 132.198C70.0947 131.569 70.1819 130.813 70.1819 129.929V129.914C70.1819 129.025 70.0947 128.268 69.9218 127.645C69.7527 127.016 69.5067 126.536 69.1813 126.205C68.8611 125.87 68.4678 125.702 68.0028 125.702C67.5416 125.702 67.1483 125.87 66.8229 126.205C66.5026 126.536 66.2567 127.016 66.0824 127.645C65.9146 128.268 65.8314 129.025 65.8314 129.914V129.929C65.8314 130.813 65.9146 131.569 66.0824 132.198C66.2567 132.827 66.5026 133.31 66.8229 133.646C67.1483 133.983 67.5416 134.151 68.0028 134.151ZM74.8898 135.793V126.839H77.2636V128.238H77.4109C77.6005 127.734 77.9144 127.344 78.3538 127.068C78.7932 126.786 79.3056 126.645 79.891 126.645C80.2971 126.645 80.6661 126.713 80.9966 126.848C81.3271 126.978 81.6089 127.165 81.8421 127.41C82.0753 127.653 82.2546 127.949 82.3789 128.295H82.5249C82.6607 127.964 82.8618 127.677 83.127 127.434C83.3935 127.184 83.7048 126.992 84.0622 126.856C84.4196 126.715 84.8078 126.645 85.2254 126.645C85.8211 126.645 86.3335 126.766 86.7627 127.011C87.1957 127.255 87.5288 127.602 87.7619 128.051C88.0015 128.496 88.1206 129.028 88.1206 129.645V135.793H85.7455V130.239C85.7455 129.876 85.6918 129.575 85.5829 129.336C85.4753 129.098 85.3087 128.919 85.0871 128.8C84.8706 128.675 84.5964 128.612 84.2659 128.612C83.9456 128.612 83.6664 128.685 83.4281 128.832C83.195 128.979 83.013 129.176 82.8836 129.426C82.7529 129.674 82.6876 129.963 82.6876 130.288V135.793H80.3138V130.133C80.3138 129.813 80.2536 129.54 80.1344 129.312C80.0204 129.084 79.8526 128.911 79.631 128.792C79.4132 128.673 79.1506 128.612 78.8419 128.612C78.5331 128.612 78.259 128.691 78.0207 128.848C77.7876 129.001 77.6031 129.212 77.4673 129.482C77.3315 129.749 77.2636 130.052 77.2636 130.393V135.793H74.8898Z" fill="#454F5B"/>
<mask id="mask2_102_459" style="mask-type:luminance" maskUnits="userSpaceOnUse" x="35" y="172" width="210" height="53">
<path d="M35.8699 172.944H244.683V224.186H35.8699V172.944Z" fill="white"/>
</mask>
<g mask="url(#mask2_102_459)">
<path d="M39.0726 224.186V172.944H32.6673V224.186H39.0726Z" fill="#99C5EF"/>
</g>
<path d="M51.7679 190.879L55.679 180.047H57.0369V181.946H56.5271L53.5397 190.879H51.7679ZM53.6523 187.951L54.1251 186.6H59.0571L59.5299 187.951H53.6523ZM59.635 190.879L56.6551 181.946V180.047H57.5033L61.4067 190.879H59.635ZM64.3262 190.879L61.3759 182.727H63.1104L65.1448 189.227H65.2639L67.2905 182.727H69.0098L66.0672 190.879H64.3262ZM73.7612 191.036C72.9657 191.036 72.2829 190.866 71.7128 190.526C71.1415 190.18 70.7008 189.692 70.3908 189.062C70.0859 188.432 69.9334 187.686 69.9334 186.825V186.818C69.9334 185.967 70.0859 185.224 70.3908 184.589C70.7008 183.953 71.1363 183.457 71.6974 183.103C72.2624 182.746 72.9234 182.57 73.6792 182.57C74.4389 182.57 75.0923 182.739 75.638 183.079C76.1889 183.42 76.6116 183.898 76.9063 184.513C77.2022 185.124 77.3495 185.839 77.3495 186.66V187.23H70.7584V186.067H76.5385L75.7584 187.148V186.495C75.7584 185.915 75.6675 185.434 75.4881 185.054C75.3126 184.668 75.0705 184.381 74.7592 184.19C74.4492 184.001 74.0918 183.906 73.687 183.906C73.2809 183.906 72.9183 184.006 72.598 184.206C72.2829 184.4 72.0331 184.691 71.8473 185.077C71.6667 185.461 71.577 185.935 71.577 186.495V187.148C71.577 187.684 71.6667 188.141 71.8473 188.521C72.0279 188.902 72.2829 189.193 72.6134 189.393C72.9478 189.592 73.3436 189.692 73.7984 189.692C74.1494 189.692 74.4491 189.645 74.7002 189.55C74.9551 189.45 75.1627 189.327 75.3228 189.182C75.4881 189.036 75.6008 188.894 75.661 188.755L75.6905 188.694H77.2663L77.2521 188.762C77.1816 189.033 77.0587 189.303 76.8845 189.572C76.7089 189.838 76.4758 190.081 76.1863 190.301C75.9006 190.521 75.556 190.698 75.1499 190.834C74.7502 190.968 74.2865 191.036 73.7612 191.036ZM79.2865 190.879V182.727H80.9147V183.958H81.0428C81.1876 183.523 81.4425 183.185 81.8076 182.945C82.1778 182.704 82.6339 182.584 83.1745 182.584C83.309 182.584 83.4423 182.591 83.5717 182.607C83.7023 182.622 83.8073 182.639 83.8868 182.659V184.161C83.742 184.13 83.5973 184.108 83.4525 184.093C83.3116 184.077 83.1642 184.071 83.0092 184.071C82.5942 184.071 82.229 184.15 81.9126 184.311C81.6026 184.471 81.3579 184.696 81.1773 184.986C81.0018 185.271 80.9147 185.612 80.9147 186.007V190.879H79.2865ZM87.6326 191.013C87.1176 191.013 86.6552 190.916 86.244 190.721C85.8391 190.521 85.5189 190.238 85.2832 189.873C85.0487 189.508 84.9308 189.08 84.9308 188.589V188.574C84.9308 188.083 85.0487 187.666 85.2832 187.321C85.524 186.975 85.8685 186.705 86.3195 186.51C86.7743 186.31 87.3251 186.19 87.9708 186.15L90.9813 185.97V187.117L88.1963 187.298C87.6352 187.333 87.2227 187.453 86.9575 187.658C86.6923 187.859 86.5591 188.141 86.5591 188.506V188.521C86.5591 188.892 86.7025 189.185 86.9869 189.4C87.2726 189.61 87.6326 189.715 88.0681 189.715C88.4729 189.715 88.8343 189.635 89.1494 189.475C89.4697 189.309 89.7195 189.09 89.9001 188.815C90.0795 188.534 90.1704 188.219 90.1704 187.868V185.301C90.1704 184.851 90.0295 184.508 89.7502 184.273C89.4748 184.033 89.0636 183.912 88.5191 183.912C88.0631 183.912 87.6902 183.993 87.4007 184.153C87.115 184.313 86.9254 184.539 86.8294 184.828L86.8153 184.851H85.246L85.2537 184.799C85.319 184.348 85.4958 183.958 85.7866 183.628C86.0813 183.292 86.4668 183.032 86.9421 182.846C87.4225 182.662 87.9708 182.57 88.5857 182.57C89.2724 182.57 89.8527 182.68 90.328 182.899C90.8084 183.114 91.1709 183.428 91.4156 183.838C91.6667 184.243 91.7909 184.731 91.7909 185.301V190.879H90.1704V189.723H90.05C89.8899 189.997 89.69 190.233 89.4491 190.428C89.2096 190.619 88.9367 190.763 88.6318 190.863C88.3256 190.963 87.9939 191.013 87.6326 191.013ZM97.534 193.753C96.8435 193.753 96.2426 193.659 95.7328 193.468C95.2268 193.278 94.8258 193.013 94.5312 192.672C94.2365 192.333 94.0559 191.937 93.9905 191.487L93.9982 191.472H95.6495L95.6572 191.487C95.7276 191.766 95.9249 191.997 96.2503 192.178C96.5757 192.357 97.0112 192.448 97.5557 192.448C98.227 192.448 98.7497 192.294 99.125 191.989C99.5055 191.684 99.6951 191.257 99.6951 190.706V189.107H99.5683C99.4082 189.398 99.2032 189.648 98.9521 189.858C98.7023 190.063 98.4166 190.218 98.0963 190.323C97.776 190.428 97.4289 190.48 97.0536 190.48C96.3631 190.48 95.7622 190.316 95.2524 189.986C94.7464 189.65 94.3557 189.19 94.0802 188.605C93.8112 188.014 93.6754 187.335 93.6754 186.57V186.555C93.6754 185.78 93.8125 185.093 94.0879 184.499C94.3633 183.898 94.7566 183.431 95.2665 183.095C95.7776 182.754 96.3848 182.584 97.0907 182.584C97.4712 182.584 97.8183 182.644 98.1348 182.764C98.455 182.885 98.7369 183.055 98.9828 183.274C99.2275 183.495 99.4299 183.757 99.59 184.063H99.6874V182.727H101.317V190.713C101.317 191.33 101.162 191.865 100.852 192.32C100.546 192.775 100.11 193.128 99.5452 193.378C98.9803 193.628 98.309 193.753 97.534 193.753ZM97.5109 189.13C97.9721 189.13 98.3667 189.022 98.6972 188.807C99.0277 188.587 99.2801 188.284 99.4556 187.899C99.6349 187.513 99.7259 187.067 99.7259 186.563V186.547C99.7259 186.048 99.6349 185.602 99.4556 185.211C99.2801 184.82 99.0277 184.516 98.6972 184.295C98.3667 184.075 97.9721 183.966 97.5109 183.966C97.051 183.966 96.6577 184.075 96.3323 184.295C96.0121 184.516 95.7673 184.82 95.597 185.211C95.4266 185.597 95.3421 186.043 95.3421 186.547V186.563C95.3421 187.067 95.4266 187.513 95.597 187.899C95.7673 188.284 96.0121 188.587 96.3323 188.807C96.6577 189.022 97.051 189.13 97.5109 189.13ZM107.089 191.036C106.294 191.036 105.61 190.866 105.04 190.526C104.47 190.18 104.029 189.692 103.719 189.062C103.414 188.432 103.26 187.686 103.26 186.825V186.818C103.26 185.967 103.414 185.224 103.719 184.589C104.029 183.953 104.465 183.457 105.024 183.103C105.591 182.746 106.25 182.57 107.006 182.57C107.767 182.57 108.42 182.739 108.966 183.079C109.516 183.42 109.939 183.898 110.234 184.513C110.529 185.124 110.678 185.839 110.678 186.66V187.23H104.087V186.067H109.867L109.085 187.148V186.495C109.085 185.915 108.996 185.434 108.815 185.054C108.641 184.668 108.397 184.381 108.087 184.19C107.777 184.001 107.42 183.906 107.014 183.906C106.609 183.906 106.246 184.006 105.926 184.206C105.61 184.4 105.36 184.691 105.175 185.077C104.995 185.461 104.905 185.935 104.905 186.495V187.148C104.905 187.684 104.995 188.141 105.175 188.521C105.355 188.902 105.61 189.193 105.94 189.393C106.276 189.592 106.672 189.692 107.127 189.692C107.476 189.692 107.777 189.645 108.027 189.55C108.282 189.45 108.491 189.327 108.65 189.182C108.815 189.036 108.928 188.894 108.988 188.755L109.019 188.694H110.594L110.579 188.762C110.51 189.033 110.387 189.303 110.211 189.572C110.037 189.838 109.804 190.081 109.513 190.301C109.229 190.521 108.883 190.698 108.478 190.834C108.077 190.968 107.615 191.036 107.089 191.036ZM116.99 190.879V180.047H121.261C122.001 180.047 122.642 180.184 123.182 180.46C123.723 180.73 124.138 181.113 124.429 181.609C124.723 182.098 124.872 182.68 124.872 183.35V183.365C124.872 184.095 124.686 184.738 124.316 185.294C123.946 185.844 123.431 186.232 122.77 186.458L125.195 190.879H123.25L121.043 186.713C121.029 186.713 121.013 186.713 120.998 186.713C120.983 186.713 120.968 186.713 120.953 186.713H118.672V190.879H116.99ZM118.672 185.347H121.095C121.741 185.347 122.242 185.179 122.597 184.844C122.953 184.503 123.13 184.025 123.13 183.41V183.395C123.13 182.794 122.945 182.321 122.575 181.977C122.209 181.631 121.699 181.458 121.043 181.458H118.672V185.347ZM130.269 191.036C129.472 191.036 128.789 190.866 128.219 190.526C127.649 190.18 127.209 189.692 126.899 189.062C126.592 188.432 126.44 187.686 126.44 186.825V186.818C126.44 185.967 126.592 185.224 126.899 184.589C127.209 183.953 127.644 183.457 128.204 183.103C128.77 182.746 129.43 182.57 130.186 182.57C130.947 182.57 131.6 182.739 132.144 183.079C132.695 183.42 133.118 183.898 133.414 184.513C133.709 185.124 133.856 185.839 133.856 186.66V187.23H127.266V186.067H133.045L132.265 187.148V186.495C132.265 185.915 132.175 185.434 131.995 185.054C131.819 184.668 131.577 184.381 131.267 184.19C130.957 184.001 130.598 183.906 130.193 183.906C129.787 183.906 129.425 184.006 129.104 184.206C128.789 184.4 128.54 184.691 128.354 185.077C128.174 185.461 128.083 185.935 128.083 186.495V187.148C128.083 187.684 128.174 188.141 128.354 188.521C128.534 188.902 128.789 189.193 129.12 189.393C129.456 189.592 129.85 189.692 130.306 189.692C130.656 189.692 130.957 189.645 131.207 189.55C131.462 189.45 131.669 189.327 131.829 189.182C131.995 189.036 132.107 188.894 132.168 188.755L132.197 188.694H133.774L133.759 188.762C133.688 189.033 133.566 189.303 133.391 189.572C133.215 189.838 132.984 190.081 132.693 190.301C132.407 190.521 132.062 190.698 131.656 190.834C131.257 190.968 130.794 191.036 130.269 191.036ZM138.757 191.036C138.103 191.036 137.531 190.941 137.047 190.751C136.562 190.556 136.176 190.288 135.89 189.947C135.606 189.603 135.438 189.202 135.388 188.747V188.732H137.024V188.747C137.129 189.052 137.329 189.3 137.625 189.49C137.92 189.68 138.31 189.776 138.796 189.776C139.13 189.776 139.423 189.728 139.673 189.632C139.929 189.537 140.129 189.405 140.274 189.235C140.419 189.065 140.492 188.87 140.492 188.65V188.634C140.492 188.379 140.389 188.164 140.184 187.989C139.979 187.813 139.641 187.671 139.171 187.561L137.864 187.261C137.355 187.146 136.932 186.988 136.596 186.788C136.261 186.587 136.013 186.342 135.853 186.052C135.693 185.757 135.612 185.411 135.612 185.016V185.009C135.612 184.534 135.748 184.113 136.018 183.748C136.289 183.378 136.662 183.09 137.137 182.885C137.617 182.675 138.165 182.57 138.78 182.57C139.4 182.57 139.941 182.667 140.402 182.862C140.867 183.053 141.235 183.318 141.505 183.657C141.775 183.993 141.936 184.384 141.986 184.828V184.836H140.424V184.82C140.35 184.536 140.169 184.298 139.883 184.108C139.604 183.917 139.234 183.823 138.773 183.823C138.478 183.823 138.215 183.87 137.985 183.966C137.754 184.056 137.572 184.183 137.437 184.348C137.307 184.508 137.242 184.699 137.242 184.919V184.933C137.242 185.104 137.284 185.253 137.369 185.384C137.46 185.51 137.599 185.621 137.79 185.722C137.98 185.817 138.224 185.902 138.525 185.977L139.823 186.269C140.605 186.455 141.185 186.723 141.565 187.073C141.951 187.424 142.143 187.894 142.143 188.484V188.5C142.143 188.999 141.996 189.443 141.7 189.828C141.405 190.209 141.002 190.506 140.492 190.721C139.986 190.931 139.408 191.036 138.757 191.036ZM144.08 193.596V182.727H145.708V184.011H145.837C145.992 183.71 146.191 183.455 146.437 183.245C146.687 183.035 146.973 182.872 147.293 182.757C147.613 182.641 147.963 182.584 148.344 182.584C149.029 182.584 149.625 182.759 150.129 183.11C150.635 183.455 151.026 183.943 151.3 184.573C151.581 185.198 151.722 185.94 151.722 186.795V186.81C151.722 187.671 151.583 188.416 151.308 189.047C151.033 189.673 150.643 190.159 150.137 190.503C149.632 190.844 149.034 191.013 148.344 191.013C147.968 191.013 147.617 190.957 147.293 190.841C146.968 190.721 146.679 190.556 146.43 190.346C146.179 190.136 145.981 189.883 145.837 189.587H145.708V193.596H144.08ZM147.879 189.618C148.333 189.618 148.724 189.505 149.049 189.28C149.375 189.054 149.622 188.732 149.792 188.311C149.967 187.891 150.055 187.39 150.055 186.81V186.795C150.055 186.209 149.967 185.707 149.792 185.287C149.622 184.867 149.375 184.544 149.049 184.318C148.724 184.093 148.333 183.98 147.879 183.98C147.428 183.98 147.037 184.095 146.708 184.326C146.377 184.551 146.123 184.873 145.949 185.294C145.774 185.71 145.687 186.209 145.687 186.795V186.81C145.687 187.385 145.774 187.883 145.949 188.304C146.123 188.724 146.377 189.049 146.708 189.28C147.037 189.505 147.428 189.618 147.879 189.618ZM157.125 191.036C156.33 191.036 155.642 190.866 155.061 190.526C154.486 190.186 154.043 189.7 153.733 189.07C153.423 188.434 153.268 187.681 153.268 186.81V186.795C153.268 185.92 153.423 185.166 153.733 184.536C154.048 183.906 154.494 183.42 155.069 183.079C155.649 182.739 156.335 182.57 157.125 182.57C157.921 182.57 158.607 182.739 159.183 183.079C159.758 183.415 160.201 183.901 160.511 184.536C160.826 185.166 160.984 185.92 160.984 186.795V186.81C160.984 187.681 160.826 188.434 160.511 189.07C160.201 189.7 159.758 190.186 159.183 190.526C158.611 190.866 157.926 191.036 157.125 191.036ZM157.125 189.671C157.592 189.671 157.986 189.558 158.312 189.332C158.637 189.102 158.884 188.774 159.055 188.349C159.225 187.923 159.309 187.411 159.309 186.81V186.795C159.309 186.19 159.225 185.675 159.055 185.248C158.884 184.823 158.637 184.499 158.312 184.273C157.986 184.043 157.592 183.928 157.125 183.928C156.66 183.928 156.264 184.043 155.94 184.273C155.615 184.499 155.364 184.823 155.19 185.248C155.019 185.675 154.933 186.19 154.933 186.795V186.81C154.933 187.411 155.019 187.923 155.19 188.349C155.364 188.774 155.615 189.102 155.94 189.332C156.264 189.558 156.66 189.671 157.125 189.671ZM162.921 190.879V182.727H164.549V183.958H164.677C164.877 183.523 165.173 183.182 165.562 182.937C165.953 182.691 166.446 182.57 167.042 182.57C167.957 182.57 168.657 182.832 169.143 183.358C169.628 183.883 169.872 184.631 169.872 185.602V190.879H168.235V185.985C168.235 185.303 168.092 184.799 167.807 184.468C167.526 184.133 167.087 183.966 166.486 183.966C166.09 183.966 165.748 184.053 165.457 184.229C165.168 184.398 164.942 184.644 164.782 184.964C164.627 185.279 164.549 185.657 164.549 186.098V190.879H162.921ZM175.104 191.036C174.448 191.036 173.878 190.941 173.392 190.751C172.907 190.556 172.521 190.288 172.235 189.947C171.951 189.603 171.783 189.202 171.733 188.747V188.732H173.369V188.747C173.474 189.052 173.674 189.3 173.97 189.49C174.265 189.68 174.655 189.776 175.141 189.776C175.477 189.776 175.769 189.728 176.018 189.632C176.275 189.537 176.474 189.405 176.619 189.235C176.764 189.065 176.837 188.87 176.837 188.65V188.634C176.837 188.379 176.734 188.164 176.53 187.989C176.325 187.813 175.986 187.671 175.516 187.561L174.209 187.261C173.7 187.146 173.277 186.988 172.941 186.788C172.606 186.587 172.358 186.342 172.198 186.052C172.038 185.757 171.957 185.411 171.957 185.016V185.009C171.957 184.534 172.093 184.113 172.363 183.748C172.634 183.378 173.007 183.09 173.482 182.885C173.962 182.675 174.511 182.57 175.125 182.57C175.747 182.57 176.286 182.667 176.747 182.862C177.212 183.053 177.58 183.318 177.85 183.657C178.121 183.993 178.281 184.384 178.331 184.828V184.836H176.769V184.82C176.695 184.536 176.514 184.298 176.229 184.108C175.949 183.917 175.579 183.823 175.118 183.823C174.823 183.823 174.56 183.87 174.33 183.966C174.099 184.056 173.917 184.183 173.782 184.348C173.652 184.508 173.587 184.699 173.587 184.919V184.933C173.587 185.104 173.629 185.253 173.715 185.384C173.805 185.51 173.944 185.621 174.135 185.722C174.325 185.817 174.571 185.902 174.871 185.977L176.17 186.269C176.95 186.455 177.53 186.723 177.911 187.073C178.296 187.424 178.488 187.894 178.488 188.484V188.5C178.488 188.999 178.341 189.443 178.045 189.828C177.75 190.209 177.348 190.506 176.837 190.721C176.332 190.931 175.753 191.036 175.104 191.036ZM183.848 191.036C183.053 191.036 182.369 190.866 181.799 190.526C181.228 190.18 180.788 189.692 180.478 189.062C180.173 188.432 180.019 187.686 180.019 186.825V186.818C180.019 185.967 180.173 185.224 180.478 184.589C180.788 183.953 181.223 183.457 181.783 183.103C182.349 182.746 183.009 182.57 183.765 182.57C184.526 182.57 185.179 182.739 185.725 183.079C186.275 183.42 186.697 183.898 186.993 184.513C187.288 185.124 187.435 185.839 187.435 186.66V187.23H180.845V186.067H186.626L185.844 187.148V186.495C185.844 185.915 185.754 185.434 185.574 185.054C185.4 184.668 185.156 184.381 184.846 184.19C184.536 184.001 184.179 183.906 183.773 183.906C183.368 183.906 183.005 184.006 182.685 184.206C182.369 184.4 182.119 184.691 181.934 185.077C181.754 185.461 181.664 185.935 181.664 186.495V187.148C181.664 187.684 181.754 188.141 181.934 188.521C182.114 188.902 182.369 189.193 182.699 189.393C183.035 189.592 183.431 189.692 183.885 189.692C184.235 189.692 184.536 189.645 184.786 189.55C185.041 189.45 185.248 189.327 185.409 189.182C185.574 189.036 185.687 188.894 185.747 188.755L185.778 188.694H187.353L187.338 188.762C187.269 189.033 187.146 189.303 186.97 189.572C186.795 189.838 186.563 190.081 186.272 190.301C185.988 190.521 185.642 190.698 185.237 190.834C184.836 190.968 184.374 191.036 183.848 191.036ZM196.496 190.879V181.504H193.089V180.047H201.585V181.504H198.177V190.879H196.496ZM203.327 190.879V182.727H204.963V190.879H203.327ZM204.152 181.271C203.873 181.271 203.632 181.171 203.432 180.971C203.232 180.77 203.131 180.53 203.131 180.25C203.131 179.969 203.232 179.732 203.432 179.536C203.632 179.336 203.873 179.236 204.152 179.236C204.432 179.236 204.673 179.336 204.873 179.536C205.073 179.732 205.173 179.969 205.173 180.25C205.173 180.53 205.073 180.77 204.873 180.971C204.673 181.171 204.432 181.271 204.152 181.271ZM207.328 190.879V182.727H208.956V183.98H209.084C209.265 183.53 209.544 183.182 209.924 182.937C210.31 182.691 210.77 182.57 211.305 182.57C211.676 182.57 212.009 182.63 212.304 182.749C212.599 182.869 212.852 183.04 213.062 183.26C213.277 183.475 213.445 183.73 213.565 184.025H213.693C213.828 183.73 214.017 183.475 214.263 183.26C214.508 183.04 214.794 182.869 215.119 182.749C215.45 182.63 215.799 182.57 216.17 182.57C216.72 182.57 217.191 182.677 217.581 182.892C217.971 183.103 218.269 183.407 218.474 183.807C218.679 184.208 218.782 184.691 218.782 185.256V190.879H217.153V185.647C217.153 185.271 217.096 184.961 216.98 184.715C216.865 184.466 216.69 184.279 216.455 184.153C216.225 184.028 215.935 183.966 215.584 183.966C215.239 183.966 214.936 184.045 214.676 184.206C214.421 184.361 214.221 184.571 214.075 184.836C213.935 185.096 213.865 185.392 213.865 185.722V190.879H212.237V185.481C212.237 185.171 212.171 184.904 212.042 184.678C211.916 184.448 211.736 184.273 211.501 184.153C211.266 184.028 210.988 183.966 210.667 183.966C210.342 183.966 210.05 184.051 209.79 184.221C209.534 184.391 209.331 184.621 209.181 184.911C209.031 185.196 208.956 185.516 208.956 185.872V190.879H207.328ZM224.486 191.036C223.691 191.036 223.008 190.866 222.438 190.526C221.866 190.18 221.427 189.692 221.117 189.062C220.811 188.432 220.658 187.686 220.658 186.825V186.818C220.658 185.967 220.811 185.224 221.117 184.589C221.427 183.953 221.863 183.457 222.422 183.103C222.987 182.746 223.648 182.57 224.404 182.57C225.165 182.57 225.817 182.739 226.363 183.079C226.914 183.42 227.337 183.898 227.631 184.513C227.927 185.124 228.074 185.839 228.074 186.66V187.23H221.485V186.067H227.263L226.483 187.148V186.495C226.483 185.915 226.394 185.434 226.213 185.054C226.037 184.668 225.795 184.381 225.485 184.19C225.174 184.001 224.817 183.906 224.412 183.906C224.006 183.906 223.643 184.006 223.323 184.206C223.008 184.4 222.758 184.691 222.572 185.077C222.393 185.461 222.302 185.935 222.302 186.495V187.148C222.302 187.684 222.393 188.141 222.572 188.521C222.753 188.902 223.008 189.193 223.338 189.393C223.674 189.592 224.069 189.692 224.525 189.692C224.874 189.692 225.174 189.645 225.425 189.55C225.68 189.45 225.888 189.327 226.048 189.182C226.213 189.036 226.326 188.894 226.386 188.755L226.415 188.694H227.992L227.977 188.762C227.907 189.033 227.785 189.303 227.609 189.572C227.434 189.838 227.202 190.081 226.911 190.301C226.626 190.521 226.281 190.698 225.875 190.834C225.475 190.968 225.013 191.036 224.486 191.036Z" fill="#454F5B"/>
<path d="M55.2999 217.781V208.364H55.1539L52.2754 210.365V208.153L55.3089 206.046H57.7557V217.781H55.2999ZM61.034 217.781V205.405H63.4078V210.21H63.5538C63.7601 209.722 64.0804 209.338 64.5134 209.056C64.9476 208.774 65.4844 208.633 66.1237 208.633C66.7911 208.633 67.3496 208.766 67.7993 209.031C68.2541 209.291 68.5986 209.671 68.8318 210.17C69.0701 210.669 69.1892 211.276 69.1892 211.991V217.781H66.8154V212.527C66.8154 211.893 66.6822 211.414 66.417 211.089C66.1505 210.763 65.7368 210.601 65.1731 210.601C64.8093 210.601 64.4954 210.685 64.229 210.853C63.9689 211.016 63.7652 211.246 63.6192 211.544C63.4783 211.842 63.4078 212.194 63.4078 212.602V217.781H61.034ZM80.1679 218.041C79.284 218.041 78.509 217.895 77.8415 217.602C77.1805 217.304 76.6579 216.892 76.2723 216.367C75.888 215.835 75.665 215.219 75.6061 214.521L75.5971 214.414H77.9479L77.9555 214.504C77.994 214.808 78.1042 215.078 78.2886 215.318C78.4782 215.551 78.7331 215.735 79.0534 215.87C79.3737 216 79.7452 216.066 80.1679 216.066C80.5843 216.066 80.9482 215.995 81.2569 215.854C81.572 215.707 81.8129 215.507 81.9807 215.252C82.1549 214.997 82.2408 214.704 82.2408 214.373V214.358C82.2408 213.794 82.0409 213.363 81.6399 213.064C81.2441 212.767 80.6906 212.617 79.9809 212.617H78.6384V210.868H79.9476C80.3601 210.868 80.7175 210.802 81.0211 210.666C81.3248 210.53 81.5605 210.343 81.7283 210.105C81.8974 209.86 81.9807 209.581 81.9807 209.267V209.25C81.9807 208.925 81.9076 208.646 81.7616 208.414C81.6207 208.174 81.4119 207.994 81.1351 207.868C80.8636 207.739 80.5356 207.673 80.1513 207.673C79.7657 207.673 79.4275 207.739 79.1341 207.868C78.842 207.999 78.6089 208.186 78.4359 208.429C78.2617 208.668 78.1592 208.949 78.1259 209.275L78.1183 209.348H75.8572L75.8662 209.25C75.9251 208.546 76.1365 207.936 76.5003 207.421C76.8692 206.901 77.3624 206.5 77.9799 206.218C78.6037 205.93 79.3276 205.786 80.1513 205.786C80.9917 205.786 81.7232 205.92 82.3471 206.185C82.9697 206.445 83.4501 206.811 83.7857 207.283C84.1278 207.749 84.2981 208.297 84.2981 208.925V208.942C84.2981 209.43 84.1905 209.858 83.9727 210.227C83.7562 210.596 83.4642 210.899 83.0952 211.137C82.7263 211.376 82.3112 211.544 81.8513 211.642V211.691C82.7237 211.772 83.4232 212.053 83.9484 212.536C84.4749 213.018 84.7375 213.659 84.7375 214.455V214.472C84.7375 215.182 84.5454 215.806 84.1598 216.341C83.7806 216.878 83.2489 217.295 82.5661 217.594C81.8833 217.892 81.0839 218.041 80.1679 218.041ZM91.3568 218.082C90.3921 218.082 89.5595 217.832 88.86 217.334C88.1669 216.829 87.6327 216.117 87.2587 215.195C86.8846 214.273 86.6976 213.181 86.6976 211.918V211.902C86.6976 210.633 86.8846 209.541 87.2587 208.625C87.6327 207.703 88.1669 206.993 88.86 206.494C89.5595 205.995 90.3921 205.745 91.3568 205.745C92.3265 205.745 93.1593 205.995 93.8536 206.494C94.5467 206.993 95.0809 207.703 95.4549 208.625C95.829 209.541 96.016 210.633 96.016 211.902V211.918C96.016 213.181 95.829 214.273 95.4549 215.195C95.0809 216.117 94.5467 216.829 93.8536 217.334C93.1593 217.832 92.3265 218.082 91.3568 218.082ZM91.3568 216.139C91.8231 216.139 92.2163 215.971 92.5353 215.634C92.8607 215.298 93.108 214.815 93.2758 214.186C93.4487 213.557 93.5358 212.802 93.5358 211.918V211.902C93.5358 211.013 93.4487 210.256 93.2758 209.633C93.108 209.004 92.8607 208.524 92.5353 208.194C92.2163 207.858 91.8231 207.69 91.3568 207.69C90.8956 207.69 90.5023 207.858 90.1782 208.194C89.8579 208.524 89.6107 209.004 89.4377 209.633C89.2699 210.256 89.1854 211.013 89.1854 211.902V211.918C89.1854 212.802 89.2699 213.557 89.4377 214.186C89.6107 214.815 89.8579 215.298 90.1782 215.634C90.5023 215.971 90.8956 216.139 91.3568 216.139ZM102.538 217.781V208.828H104.913V210.227H105.059C105.249 209.722 105.562 209.332 106.002 209.056C106.441 208.774 106.954 208.633 107.539 208.633C107.945 208.633 108.314 208.701 108.645 208.837C108.975 208.966 109.257 209.153 109.49 209.398C109.723 209.641 109.903 209.937 110.027 210.283H110.173C110.309 209.952 110.51 209.665 110.775 209.422C111.042 209.172 111.353 208.98 111.71 208.844C112.068 208.703 112.456 208.633 112.874 208.633C113.469 208.633 113.982 208.755 114.411 208.999C114.844 209.243 115.177 209.59 115.41 210.04C115.65 210.484 115.769 211.016 115.769 211.633V217.781H113.394V212.228C113.394 211.864 113.34 211.563 113.231 211.324C113.123 211.086 112.957 210.907 112.735 210.788C112.519 210.663 112.245 210.601 111.914 210.601C111.594 210.601 111.314 210.674 111.076 210.82C110.843 210.967 110.661 211.164 110.532 211.414C110.401 211.663 110.336 211.951 110.336 212.276V217.781H107.962V212.121C107.962 211.801 107.902 211.528 107.783 211.3C107.669 211.072 107.501 210.899 107.279 210.78C107.061 210.661 106.799 210.601 106.49 210.601C106.181 210.601 105.907 210.679 105.669 210.836C105.436 210.989 105.251 211.2 105.115 211.47C104.98 211.737 104.913 212.041 104.913 212.381V217.781H102.538Z" fill="#454F5B"/>
<mask id="mask3_102_459" style="mask-type:luminance" maskUnits="userSpaceOnUse" x="35" y="254" width="217" height="53">
<path d="M35.8699 254.932H251.089V306.174H35.8699V254.932Z" fill="white"/>
</mask>
<g mask="url(#mask3_102_459)">
<path d="M39.0726 306.174V254.932H32.6673V306.174H39.0726Z" fill="#99C5EF"/>
</g>
<path d="M51.7679 272.867L55.679 262.035H57.0369V263.934H56.5271L53.5397 272.867H51.7679ZM53.6523 269.94L54.1251 268.588H59.0571L59.5299 269.94H53.6523ZM59.635 272.867L56.6551 263.934V262.035H57.5033L61.4067 272.867H59.635ZM64.3262 272.867L61.3759 264.715H63.1104L65.1448 271.215H65.2639L67.2905 264.715H69.0098L66.0672 272.867H64.3262ZM73.7612 273.024C72.9657 273.024 72.2829 272.854 71.7128 272.515C71.1415 272.169 70.7008 271.681 70.3908 271.05C70.0859 270.42 69.9334 269.674 69.9334 268.813V268.806C69.9334 267.955 70.0859 267.212 70.3908 266.577C70.7008 265.941 71.1363 265.446 71.6974 265.091C72.2624 264.735 72.9234 264.558 73.6792 264.558C74.4389 264.558 75.0923 264.727 75.638 265.068C76.1889 265.408 76.6116 265.886 76.9063 266.501C77.2022 267.112 77.3495 267.827 77.3495 268.648V269.218H70.7584V268.055H76.5385L75.7584 269.136V268.483C75.7584 267.903 75.6675 267.422 75.4881 267.042C75.3126 266.656 75.0705 266.369 74.7592 266.178C74.4492 265.989 74.0918 265.894 73.687 265.894C73.2809 265.894 72.9183 265.994 72.598 266.194C72.2829 266.388 72.0331 266.679 71.8473 267.065C71.6667 267.449 71.577 267.923 71.577 268.483V269.136C71.577 269.672 71.6667 270.129 71.8473 270.51C72.0279 270.89 72.2829 271.181 72.6134 271.381C72.9478 271.581 73.3436 271.681 73.7984 271.681C74.1494 271.681 74.4491 271.633 74.7002 271.538C74.9551 271.438 75.1627 271.315 75.3228 271.171C75.4881 271.025 75.6008 270.882 75.661 270.743L75.6905 270.683H77.2663L77.2521 270.75C77.1816 271.021 77.0587 271.291 76.8845 271.56C76.7089 271.827 76.4758 272.069 76.1863 272.289C75.9006 272.509 75.556 272.686 75.1499 272.822C74.7502 272.956 74.2865 273.024 73.7612 273.024ZM79.2865 272.867V264.715H80.9147V265.946H81.0428C81.1876 265.511 81.4425 265.173 81.8076 264.933C82.1778 264.692 82.6339 264.572 83.1745 264.572C83.309 264.572 83.4423 264.58 83.5717 264.595C83.7023 264.61 83.8073 264.627 83.8868 264.647V266.149C83.742 266.118 83.5973 266.096 83.4525 266.081C83.3116 266.066 83.1642 266.059 83.0092 266.059C82.5942 266.059 82.229 266.139 81.9126 266.299C81.6026 266.459 81.3579 266.684 81.1773 266.974C81.0018 267.26 80.9147 267.6 80.9147 267.995V272.867H79.2865ZM87.6326 273.001C87.1176 273.001 86.6552 272.904 86.244 272.709C85.8391 272.509 85.5189 272.226 85.2832 271.861C85.0487 271.496 84.9308 271.068 84.9308 270.578V270.562C84.9308 270.071 85.0487 269.654 85.2832 269.309C85.524 268.963 85.8685 268.693 86.3195 268.498C86.7743 268.299 87.3251 268.178 87.9708 268.138L90.9813 267.958V269.106L88.1963 269.286C87.6352 269.321 87.2227 269.441 86.9575 269.646C86.6923 269.847 86.5591 270.129 86.5591 270.494V270.51C86.5591 270.88 86.7025 271.173 86.9869 271.388C87.2726 271.599 87.6326 271.704 88.0681 271.704C88.4729 271.704 88.8343 271.623 89.1494 271.463C89.4697 271.297 89.7195 271.078 89.9001 270.803C90.0795 270.522 90.1704 270.207 90.1704 269.856V267.289C90.1704 266.839 90.0295 266.496 89.7502 266.262C89.4748 266.021 89.0636 265.9 88.5191 265.9C88.0631 265.9 87.6902 265.981 87.4007 266.141C87.115 266.301 86.9254 266.527 86.8294 266.816L86.8153 266.839H85.246L85.2537 266.787C85.319 266.336 85.4958 265.946 85.7866 265.616C86.0813 265.28 86.4668 265.02 86.9421 264.835C87.4225 264.65 87.9708 264.558 88.5857 264.558C89.2724 264.558 89.8527 264.668 90.328 264.887C90.8084 265.102 91.1709 265.416 91.4156 265.826C91.6667 266.231 91.7909 266.719 91.7909 267.289V272.867H90.1704V271.711H90.05C89.8899 271.985 89.69 272.221 89.4491 272.416C89.2096 272.607 88.9367 272.752 88.6318 272.851C88.3256 272.951 87.9939 273.001 87.6326 273.001ZM97.534 275.741C96.8435 275.741 96.2426 275.647 95.7328 275.456C95.2268 275.266 94.8258 275.001 94.5312 274.66C94.2365 274.321 94.0559 273.925 93.9905 273.475L93.9982 273.46H95.6495L95.6572 273.475C95.7276 273.755 95.9249 273.985 96.2503 274.166C96.5757 274.345 97.0112 274.436 97.5557 274.436C98.227 274.436 98.7497 274.282 99.125 273.977C99.5055 273.673 99.6951 273.245 99.6951 272.694V271.095H99.5683C99.4082 271.386 99.2032 271.636 98.9521 271.846C98.7023 272.051 98.4166 272.206 98.0963 272.311C97.776 272.416 97.4289 272.468 97.0536 272.468C96.3631 272.468 95.7622 272.304 95.2524 271.974C94.7464 271.638 94.3557 271.178 94.0802 270.593C93.8112 270.002 93.6754 269.323 93.6754 268.559V268.543C93.6754 267.768 93.8125 267.081 94.0879 266.487C94.3633 265.886 94.7566 265.419 95.2665 265.083C95.7776 264.742 96.3848 264.572 97.0907 264.572C97.4712 264.572 97.8183 264.632 98.1348 264.753C98.455 264.873 98.7369 265.043 98.9828 265.262C99.2275 265.483 99.4299 265.745 99.59 266.052H99.6874V264.715H101.317V272.702C101.317 273.318 101.162 273.853 100.852 274.308C100.546 274.763 100.11 275.116 99.5452 275.366C98.9803 275.616 98.309 275.741 97.534 275.741ZM97.5109 271.118C97.9721 271.118 98.3667 271.011 98.6972 270.795C99.0277 270.575 99.2801 270.273 99.4556 269.887C99.6349 269.501 99.7259 269.056 99.7259 268.551V268.535C99.7259 268.036 99.6349 267.59 99.4556 267.199C99.2801 266.809 99.0277 266.504 98.6972 266.283C98.3667 266.063 97.9721 265.954 97.5109 265.954C97.051 265.954 96.6577 266.063 96.3323 266.283C96.0121 266.504 95.7673 266.809 95.597 267.199C95.4266 267.585 95.3421 268.031 95.3421 268.535V268.551C95.3421 269.056 95.4266 269.501 95.597 269.887C95.7673 270.273 96.0121 270.575 96.3323 270.795C96.6577 271.011 97.051 271.118 97.5109 271.118ZM107.089 273.024C106.294 273.024 105.61 272.854 105.04 272.515C104.47 272.169 104.029 271.681 103.719 271.05C103.414 270.42 103.26 269.674 103.26 268.813V268.806C103.26 267.955 103.414 267.212 103.719 266.577C104.029 265.941 104.465 265.446 105.024 265.091C105.591 264.735 106.25 264.558 107.006 264.558C107.767 264.558 108.42 264.727 108.966 265.068C109.516 265.408 109.939 265.886 110.234 266.501C110.529 267.112 110.678 267.827 110.678 268.648V269.218H104.087V268.055H109.867L109.085 269.136V268.483C109.085 267.903 108.996 267.422 108.815 267.042C108.641 266.656 108.397 266.369 108.087 266.178C107.777 265.989 107.42 265.894 107.014 265.894C106.609 265.894 106.246 265.994 105.926 266.194C105.61 266.388 105.36 266.679 105.175 267.065C104.995 267.449 104.905 267.923 104.905 268.483V269.136C104.905 269.672 104.995 270.129 105.175 270.51C105.355 270.89 105.61 271.181 105.94 271.381C106.276 271.581 106.672 271.681 107.127 271.681C107.476 271.681 107.777 271.633 108.027 271.538C108.282 271.438 108.491 271.315 108.65 271.171C108.815 271.025 108.928 270.882 108.988 270.743L109.019 270.683H110.594L110.579 270.75C110.51 271.021 110.387 271.291 110.211 271.56C110.037 271.827 109.804 272.069 109.513 272.289C109.229 272.509 108.883 272.686 108.478 272.822C108.077 272.956 107.615 273.024 107.089 273.024ZM116.99 272.867V262.035H121.261C122.001 262.035 122.642 262.172 123.182 262.448C123.723 262.718 124.138 263.101 124.429 263.597C124.723 264.086 124.872 264.668 124.872 265.338V265.353C124.872 266.084 124.686 266.727 124.316 267.283C123.946 267.832 123.431 268.22 122.77 268.446L125.195 272.867H123.25L121.043 268.701C121.029 268.701 121.013 268.701 120.998 268.701C120.983 268.701 120.968 268.701 120.953 268.701H118.672V272.867H116.99ZM118.672 267.335H121.095C121.741 267.335 122.242 267.167 122.597 266.832C122.953 266.491 123.13 266.013 123.13 265.398V265.383C123.13 264.782 122.945 264.309 122.575 263.965C122.209 263.619 121.699 263.446 121.043 263.446H118.672V267.335ZM130.269 273.024C129.472 273.024 128.789 272.854 128.219 272.515C127.649 272.169 127.209 271.681 126.899 271.05C126.592 270.42 126.44 269.674 126.44 268.813V268.806C126.44 267.955 126.592 267.212 126.899 266.577C127.209 265.941 127.644 265.446 128.204 265.091C128.77 264.735 129.43 264.558 130.186 264.558C130.947 264.558 131.6 264.727 132.144 265.068C132.695 265.408 133.118 265.886 133.414 266.501C133.709 267.112 133.856 267.827 133.856 268.648V269.218H127.266V268.055H133.045L132.265 269.136V268.483C132.265 267.903 132.175 267.422 131.995 267.042C131.819 266.656 131.577 266.369 131.267 266.178C130.957 265.989 130.598 265.894 130.193 265.894C129.787 265.894 129.425 265.994 129.104 266.194C128.789 266.388 128.54 266.679 128.354 267.065C128.174 267.449 128.083 267.923 128.083 268.483V269.136C128.083 269.672 128.174 270.129 128.354 270.51C128.534 270.89 128.789 271.181 129.12 271.381C129.456 271.581 129.85 271.681 130.306 271.681C130.656 271.681 130.957 271.633 131.207 271.538C131.462 271.438 131.669 271.315 131.829 271.171C131.995 271.025 132.107 270.882 132.168 270.743L132.197 270.683H133.774L133.759 270.75C133.688 271.021 133.566 271.291 133.391 271.56C133.215 271.827 132.984 272.069 132.693 272.289C132.407 272.509 132.062 272.686 131.656 272.822C131.257 272.956 130.794 273.024 130.269 273.024ZM138.757 273.024C138.103 273.024 137.531 272.93 137.047 272.739C136.562 272.544 136.176 272.276 135.89 271.935C135.606 271.591 135.438 271.19 135.388 270.735V270.72H137.024V270.735C137.129 271.04 137.329 271.288 137.625 271.478C137.92 271.668 138.31 271.764 138.796 271.764C139.13 271.764 139.423 271.716 139.673 271.62C139.929 271.526 140.129 271.394 140.274 271.223C140.419 271.053 140.492 270.858 140.492 270.638V270.622C140.492 270.367 140.389 270.152 140.184 269.977C139.979 269.801 139.641 269.659 139.171 269.549L137.864 269.249C137.355 269.134 136.932 268.976 136.596 268.776C136.261 268.575 136.013 268.331 135.853 268.04C135.693 267.745 135.612 267.399 135.612 267.005V266.997C135.612 266.522 135.748 266.101 136.018 265.736C136.289 265.366 136.662 265.078 137.137 264.873C137.617 264.663 138.165 264.558 138.78 264.558C139.4 264.558 139.941 264.655 140.402 264.85C140.867 265.041 141.235 265.306 141.505 265.645C141.775 265.981 141.936 266.372 141.986 266.816V266.824H140.424V266.809C140.35 266.524 140.169 266.286 139.883 266.096C139.604 265.905 139.234 265.811 138.773 265.811C138.478 265.811 138.215 265.858 137.985 265.954C137.754 266.044 137.572 266.171 137.437 266.336C137.307 266.496 137.242 266.687 137.242 266.907V266.921C137.242 267.092 137.284 267.242 137.369 267.372C137.46 267.498 137.599 267.609 137.79 267.711C137.98 267.805 138.224 267.89 138.525 267.965L139.823 268.258C140.605 268.443 141.185 268.711 141.565 269.061C141.951 269.412 142.143 269.882 142.143 270.472V270.488C142.143 270.987 141.996 271.431 141.7 271.816C141.405 272.197 141.002 272.494 140.492 272.709C139.986 272.919 139.408 273.024 138.757 273.024ZM147.533 273.024C146.737 273.024 146.049 272.854 145.469 272.515C144.894 272.174 144.45 271.688 144.14 271.058C143.829 270.423 143.674 269.669 143.674 268.798V268.783C143.674 267.908 143.829 267.155 144.14 266.524C144.455 265.894 144.9 265.408 145.477 265.068C146.057 264.727 146.742 264.558 147.533 264.558C148.328 264.558 149.014 264.727 149.59 265.068C150.165 265.403 150.607 265.889 150.918 266.524C151.234 267.155 151.391 267.908 151.391 268.783V268.798C151.391 269.669 151.234 270.423 150.918 271.058C150.607 271.688 150.165 272.174 149.59 272.515C149.019 272.854 148.333 273.024 147.533 273.024ZM147.533 271.659C147.998 271.659 148.394 271.546 148.719 271.321C149.044 271.09 149.292 270.762 149.462 270.337C149.632 269.911 149.717 269.399 149.717 268.798V268.783C149.717 268.178 149.632 267.663 149.462 267.237C149.292 266.811 149.044 266.487 148.719 266.262C148.394 266.031 147.998 265.916 147.533 265.916C147.068 265.916 146.672 266.031 146.346 266.262C146.021 266.487 145.771 266.811 145.596 267.237C145.427 267.663 145.341 268.178 145.341 268.783V268.798C145.341 269.399 145.427 269.911 145.596 270.337C145.771 270.762 146.021 271.09 146.346 271.321C146.672 271.546 147.068 271.659 147.533 271.659ZM153.402 272.867V261.518H155.032V272.867H153.402ZM160.173 273.024C159.563 273.024 159.047 272.906 158.627 272.672C158.212 272.431 157.899 272.087 157.689 271.636C157.484 271.181 157.381 270.633 157.381 269.992V264.715H159.01V269.609C159.01 270.279 159.143 270.783 159.408 271.118C159.673 271.453 160.106 271.62 160.706 271.62C161.026 271.62 161.312 271.573 161.562 271.478C161.813 271.378 162.023 271.236 162.192 271.05C162.362 270.866 162.488 270.643 162.567 270.383C162.653 270.121 162.695 269.827 162.695 269.496V264.715H164.331V272.867H162.695V271.636H162.575C162.446 271.926 162.267 272.176 162.042 272.386C161.816 272.591 161.547 272.749 161.231 272.859C160.921 272.969 160.569 273.024 160.173 273.024ZM169.751 272.919C168.86 272.919 168.215 272.749 167.814 272.409C167.42 272.064 167.221 271.501 167.221 270.72V265.999H165.945V264.715H167.221V262.658H168.888V264.715H170.637V265.999H168.888V270.323C168.888 270.762 168.975 271.08 169.151 271.276C169.326 271.465 169.616 271.56 170.022 271.56C170.141 271.56 170.245 271.559 170.329 271.554C170.419 271.549 170.521 271.541 170.637 271.531V272.837C170.507 272.857 170.366 272.874 170.216 272.89C170.067 272.909 169.912 272.919 169.751 272.919ZM172.566 272.867V264.715H174.202V272.867H172.566ZM173.392 263.259C173.112 263.259 172.871 263.159 172.671 262.959C172.471 262.758 172.371 262.518 172.371 262.238C172.371 261.957 172.471 261.72 172.671 261.524C172.871 261.324 173.112 261.224 173.392 261.224C173.671 261.224 173.912 261.324 174.112 261.524C174.312 261.72 174.412 261.957 174.412 262.238C174.412 262.518 174.312 262.758 174.112 262.959C173.912 263.159 173.671 263.259 173.392 263.259ZM180.019 273.024C179.224 273.024 178.536 272.854 177.955 272.515C177.38 272.174 176.937 271.688 176.627 271.058C176.317 270.423 176.162 269.669 176.162 268.798V268.783C176.162 267.908 176.317 267.155 176.627 266.524C176.942 265.894 177.388 265.408 177.963 265.068C178.543 264.727 179.229 264.558 180.019 264.558C180.816 264.558 181.501 264.727 182.077 265.068C182.652 265.403 183.095 265.889 183.405 266.524C183.72 267.155 183.878 267.908 183.878 268.783V268.798C183.878 269.669 183.72 270.423 183.405 271.058C183.095 271.688 182.652 272.174 182.077 272.515C181.506 272.854 180.82 273.024 180.019 273.024ZM180.019 271.659C180.485 271.659 180.88 271.546 181.205 271.321C181.531 271.09 181.778 270.762 181.948 270.337C182.119 269.911 182.205 269.399 182.205 268.798V268.783C182.205 268.178 182.119 267.663 181.948 267.237C181.778 266.811 181.531 266.487 181.205 266.262C180.88 266.031 180.485 265.916 180.019 265.916C179.554 265.916 179.16 266.031 178.834 266.262C178.509 266.487 178.258 266.811 178.083 267.237C177.913 267.663 177.827 268.178 177.827 268.783V268.798C177.827 269.399 177.913 269.911 178.083 270.337C178.258 270.762 178.509 271.09 178.834 271.321C179.16 271.546 179.554 271.659 180.019 271.659ZM185.815 272.867V264.715H187.443V265.946H187.571C187.771 265.511 188.067 265.17 188.456 264.925C188.847 264.679 189.34 264.558 189.936 264.558C190.852 264.558 191.551 264.82 192.037 265.346C192.522 265.871 192.766 266.619 192.766 267.59V272.867H191.129V267.973C191.129 267.292 190.986 266.787 190.701 266.456C190.421 266.121 189.981 265.954 189.38 265.954C188.984 265.954 188.642 266.041 188.351 266.217C188.062 266.386 187.836 266.632 187.676 266.952C187.521 267.267 187.443 267.645 187.443 268.086V272.867H185.815ZM202.156 272.867V263.492H198.748V262.035H207.244V263.492H203.837V272.867H202.156ZM208.987 272.867V264.715H210.622V272.867H208.987ZM209.812 263.259C209.532 263.259 209.291 263.159 209.092 262.959C208.892 262.758 208.791 262.518 208.791 262.238C208.791 261.957 208.892 261.72 209.092 261.524C209.291 261.324 209.532 261.224 209.812 261.224C210.092 261.224 210.333 261.324 210.533 261.524C210.733 261.72 210.833 261.957 210.833 262.238C210.833 262.518 210.733 262.758 210.533 262.959C210.333 263.159 210.092 263.259 209.812 263.259ZM212.987 272.867V264.715H214.616V265.968H214.744C214.924 265.519 215.204 265.17 215.584 264.925C215.97 264.679 216.43 264.558 216.965 264.558C217.335 264.558 217.668 264.618 217.964 264.737C218.259 264.858 218.511 265.028 218.721 265.248C218.937 265.464 219.104 265.718 219.225 266.013H219.353C219.487 265.718 219.677 265.464 219.923 265.248C220.168 265.028 220.453 264.858 220.779 264.737C221.109 264.618 221.459 264.558 221.829 264.558C222.38 264.558 222.85 264.665 223.241 264.881C223.63 265.091 223.929 265.396 224.134 265.795C224.339 266.196 224.441 266.679 224.441 267.244V272.867H222.813V267.635C222.813 267.26 222.755 266.95 222.64 266.704C222.525 266.454 222.349 266.267 222.115 266.141C221.884 266.016 221.595 265.954 221.244 265.954C220.899 265.954 220.596 266.034 220.336 266.194C220.081 266.349 219.881 266.559 219.735 266.824C219.595 267.084 219.525 267.38 219.525 267.711V272.867H217.896V267.47C217.896 267.16 217.831 266.892 217.702 266.666C217.576 266.436 217.395 266.262 217.161 266.141C216.925 266.016 216.647 265.954 216.327 265.954C216.002 265.954 215.71 266.039 215.45 266.209C215.193 266.379 214.991 266.609 214.841 266.9C214.691 267.184 214.616 267.504 214.616 267.86V272.867H212.987ZM230.146 273.024C229.35 273.024 228.668 272.854 228.097 272.515C227.526 272.169 227.087 271.681 226.775 271.05C226.471 270.42 226.318 269.674 226.318 268.813V268.806C226.318 267.955 226.471 267.212 226.775 266.577C227.087 265.941 227.522 265.446 228.082 265.091C228.647 264.735 229.308 264.558 230.064 264.558C230.825 264.558 231.477 264.727 232.023 265.068C232.574 265.408 232.996 265.886 233.291 266.501C233.587 267.112 233.734 267.827 233.734 268.648V269.218H227.144V268.055H232.923L232.143 269.136V268.483C232.143 267.903 232.053 267.422 231.873 267.042C231.697 266.656 231.455 266.369 231.145 266.178C230.834 265.989 230.476 265.894 230.072 265.894C229.666 265.894 229.303 265.994 228.983 266.194C228.668 266.388 228.418 266.679 228.232 267.065C228.053 267.449 227.962 267.923 227.962 268.483V269.136C227.962 269.672 228.053 270.129 228.232 270.51C228.413 270.89 228.668 271.181 228.998 271.381C229.334 271.581 229.728 271.681 230.184 271.681C230.534 271.681 230.834 271.633 231.085 271.538C231.34 271.438 231.547 271.315 231.707 271.171C231.873 271.025 231.986 270.882 232.046 270.743L232.075 270.683H233.652L233.637 270.75C233.566 271.021 233.445 271.291 233.269 271.56C233.094 271.827 232.86 272.069 232.571 272.289C232.285 272.509 231.941 272.686 231.535 272.822C231.135 272.956 230.671 273.024 230.146 273.024Z" fill="#454F5B"/>
<path d="M57.8696 299.769V297.614H52.1214V295.686C52.4186 295.156 52.7198 294.629 53.0234 294.109C53.327 293.584 53.6331 293.063 53.9419 292.548C54.257 292.028 54.5683 291.515 54.877 291.012C55.1922 290.502 55.506 290 55.8212 289.507C56.135 289.008 56.4502 288.518 56.7641 288.035H60.2114V295.647H61.741V297.614H60.2114V299.769H57.8696ZM54.3326 295.712H57.9183V289.897H57.7889C57.5609 290.25 57.3278 290.61 57.0895 290.978C56.8563 291.347 56.6206 291.724 56.3823 292.11C56.1492 292.494 55.9134 292.882 55.6738 293.272C55.442 293.657 55.2114 294.044 54.9834 294.435C54.7604 294.819 54.544 295.202 54.3326 295.581V295.712ZM68.4743 300.029C67.5301 300.029 66.7013 299.886 65.9852 299.599C65.2703 299.305 64.7118 298.902 64.3108 298.387C63.9098 297.867 63.7087 297.267 63.7087 296.59V296.573C63.7087 296.064 63.8253 295.603 64.0585 295.191C64.2968 294.779 64.6221 294.437 65.0346 294.166C65.4458 293.89 65.9173 293.701 66.4489 293.597V293.548C65.761 293.38 65.2024 293.065 64.7733 292.605C64.3505 292.139 64.1392 291.586 64.1392 290.946V290.93C64.1392 290.323 64.3236 289.783 64.6926 289.312C65.0615 288.835 65.5714 288.461 66.2209 288.19C66.8717 287.913 67.6223 287.775 68.4743 287.775C69.3249 287.775 70.0756 287.913 70.7264 288.19C71.3771 288.461 71.887 288.835 72.2547 289.312C72.6236 289.783 72.8081 290.323 72.8081 290.93V290.946C72.8081 291.586 72.5942 292.139 72.1663 292.605C71.7371 293.065 71.1812 293.38 70.4984 293.548V293.597C71.03 293.701 71.5014 293.89 71.9139 294.166C72.3251 294.437 72.648 294.779 72.8811 295.191C73.1194 295.603 73.2385 296.064 73.2385 296.573V296.59C73.2385 297.267 73.0387 297.867 72.6377 298.387C72.2367 298.902 71.6757 299.305 70.9544 299.599C70.2383 299.886 69.412 300.029 68.4743 300.029ZM68.4743 298.241C68.9021 298.241 69.2813 298.164 69.6118 298.013C69.9424 297.855 70.2012 297.641 70.3844 297.37C70.574 297.094 70.67 296.779 70.67 296.427V296.41C70.67 296.058 70.5777 295.747 70.3933 295.475C70.2088 295.2 69.9513 294.982 69.6208 294.825C69.2903 294.668 68.9073 294.59 68.4743 294.59C68.04 294.59 67.6583 294.668 67.3278 294.825C66.9972 294.982 66.7358 295.2 66.5462 295.475C66.3618 295.747 66.2695 296.058 66.2695 296.41V296.427C66.2695 296.779 66.3656 297.094 66.5552 297.37C66.7448 297.641 67.0049 297.855 67.3354 298.013C67.6659 298.164 68.0451 298.241 68.4743 298.241ZM68.4743 292.808C68.8483 292.808 69.1788 292.741 69.4658 292.605C69.7527 292.464 69.9756 292.271 70.1332 292.028C70.2959 291.784 70.3766 291.502 70.3766 291.182V291.165C70.3766 290.847 70.2959 290.563 70.1332 290.32C69.9705 290.077 69.7451 289.886 69.4581 289.751C69.1763 289.615 68.8483 289.548 68.4743 289.548C68.1002 289.548 67.7697 289.615 67.4815 289.751C67.1945 289.886 66.969 290.077 66.8063 290.32C66.6436 290.563 66.5629 290.847 66.5629 291.165V291.182C66.5629 291.502 66.6436 291.784 66.8063 292.028C66.969 292.271 67.1945 292.464 67.4815 292.605C67.7697 292.741 68.1002 292.808 68.4743 292.808ZM75.5239 299.769V287.393H77.899V292.198H78.0451C78.2513 291.71 78.5704 291.326 79.0046 291.044C79.4376 290.762 79.9744 290.621 80.6149 290.621C81.281 290.621 81.8396 290.754 82.2892 291.019C82.7453 291.28 83.0899 291.659 83.3231 292.158C83.5614 292.657 83.6805 293.264 83.6805 293.979V299.769H81.3054V294.515C81.3054 293.881 81.1735 293.402 80.907 293.077C80.6418 292.751 80.2268 292.589 79.6631 292.589C79.3005 292.589 78.9854 292.673 78.7202 292.841C78.4601 293.004 78.2565 293.234 78.1105 293.532C77.9695 293.83 77.899 294.182 77.899 294.59V299.769H75.5239Z" fill="#454F5B"/>
</g>
<defs>
<filter id="filter0_d_102_459" x="0.0001174" y="-3.57925e-06" width="433" height="362.541" filterUnits="userSpaceOnUse" color-interpolation-filters="sRGB">
<feFlood flood-opacity="0" result="BackgroundImageFix"/>
<feColorMatrix in="SourceAlpha" type="matrix" values="0 0 0 0 0 0 0 0 0 0 0 0 0 0 0 0 0 0 127 0" result="hardAlpha"/>
<feOffset dy="1.28"/>
<feGaussianBlur stdDeviation="2.56"/>
<feComposite in2="hardAlpha" operator="out"/>
<feColorMatrix type="matrix" values="0 0 0 0 0 0 0 0 0 0 0 0 0 0 0 0 0 0 0.15 0"/>
<feBlend mode="normal" in2="BackgroundImageFix" result="effect1_dropShadow_102_459"/>
<feBlend mode="normal" in="SourceGraphic" in2="effect1_dropShadow_102_459" result="shape"/>
</filter>
</defs>
</svg>
