<svg width="200" height="76" viewBox="0 0 200 76" fill="none" xmlns="http://www.w3.org/2000/svg">
<path d="M0 6.80595C0 3.04711 3.04687 0 6.8056 0H192.838C196.593 0 199.638 3.04711 199.638 6.80595V69.1944C199.638 72.9531 196.593 76 192.838 76H6.8056C3.04687 76 0 72.9531 0 69.1944V6.80595Z" fill="white"/>
<path d="M14.4753 17.6615V24.1132H13.6339V17.6615H14.4753ZM16.5491 17.6615V18.362H11.5642V17.6615H16.5491ZM16.7219 21.7689V21.6671C16.7219 21.3215 16.7723 21.0015 16.8731 20.7053C16.9729 20.407 17.1179 20.1488 17.3072 19.9307C17.4965 19.7085 17.7249 19.5377 17.9934 19.4164C18.2629 19.2919 18.5643 19.2302 18.8975 19.2302C19.2349 19.2302 19.5374 19.2919 19.8058 19.4164C20.0774 19.5377 20.3078 19.7085 20.4971 19.9307C20.6895 20.1488 20.8355 20.407 20.9363 20.7053C21.0361 21.0015 21.0865 21.3215 21.0865 21.6671V21.7689C21.0865 22.1146 21.0361 22.4355 20.9363 22.7307C20.8355 23.0259 20.6895 23.2841 20.4971 23.5063C20.3078 23.7244 20.0795 23.8962 19.81 24.0196C19.5446 24.141 19.2432 24.2017 18.9068 24.2017C18.5694 24.2017 18.2669 24.141 17.9985 24.0196C17.729 23.8962 17.4985 23.7244 17.3072 23.5063C17.1179 23.2841 16.9729 23.0259 16.8731 22.7307C16.7723 22.4355 16.7219 22.1146 16.7219 21.7689ZM17.5418 21.6671V21.7689C17.5418 22.0086 17.5695 22.2339 17.6261 22.4468C17.6816 22.6567 17.766 22.8429 17.8782 23.0054C17.9934 23.1679 18.1374 23.2965 18.3081 23.3911C18.4799 23.4827 18.6795 23.5279 18.9068 23.5279C19.1311 23.5279 19.3276 23.4827 19.4963 23.3911C19.667 23.2965 19.8089 23.1679 19.9211 23.0054C20.0332 22.8429 20.1176 22.6567 20.1741 22.4468C20.2328 22.2339 20.2626 22.0086 20.2626 21.7689V21.6671C20.2626 21.4305 20.2328 21.2083 20.1741 20.9985C20.1176 20.7855 20.0322 20.5983 19.917 20.4358C19.8048 20.2702 19.6629 20.1395 19.4911 20.0459C19.3234 19.9513 19.1249 19.904 18.8975 19.904C18.6733 19.904 18.4748 19.9513 18.304 20.0459C18.1353 20.1395 17.9934 20.2702 17.8782 20.4358C17.766 20.5983 17.6816 20.7855 17.6261 20.9985C17.5695 21.2083 17.5418 21.4305 17.5418 21.6671ZM24.1221 19.3186V19.9482H21.5299V19.3186H24.1221ZM22.4073 18.1532H23.2272V22.9251C23.2272 23.0877 23.2519 23.2111 23.3023 23.2934C23.3527 23.3757 23.4175 23.4302 23.4967 23.457C23.5769 23.4837 23.6623 23.4971 23.7539 23.4971C23.8218 23.4971 23.8927 23.4909 23.9668 23.4796C24.0439 23.4652 24.1016 23.4528 24.1396 23.4436L24.1438 24.1132C24.079 24.1338 23.9936 24.1534 23.8866 24.1709C23.7837 24.1914 23.6582 24.2017 23.5101 24.2017C23.3095 24.2017 23.1253 24.1616 22.9566 24.0824C22.7879 24.0022 22.6532 23.8695 22.5534 23.6833C22.4557 23.494 22.4073 23.2399 22.4073 22.921V18.1532ZM27.9107 23.2934V20.8256C27.9107 20.6364 27.8716 20.4728 27.7955 20.3339C27.7214 20.192 27.6093 20.0819 27.4581 20.0058C27.3079 19.9286 27.1217 19.8906 26.9006 19.8906C26.6928 19.8906 26.5117 19.9256 26.3553 19.9965C26.201 20.0675 26.0807 20.1611 25.9912 20.2763C25.9058 20.3915 25.8637 20.515 25.8637 20.6477H25.0438C25.0438 20.4769 25.088 20.3072 25.1765 20.1385C25.265 19.9698 25.3925 19.8175 25.5571 19.6818C25.7258 19.5429 25.9264 19.4339 26.1599 19.3546C26.3965 19.2713 26.6588 19.2302 26.9489 19.2302C27.2976 19.2302 27.6042 19.2888 27.8706 19.4071C28.1391 19.5254 28.3489 19.7044 28.5001 19.943C28.6534 20.1796 28.7306 20.4769 28.7306 20.8339V23.0671C28.7306 23.2265 28.7429 23.3963 28.7696 23.5773C28.7994 23.7573 28.8426 23.9127 28.8982 24.0423V24.1132H28.0434C28.0022 24.0186 27.9693 23.8931 27.9457 23.7368C27.922 23.5773 27.9107 23.4292 27.9107 23.2934ZM28.0516 21.2062L28.0609 21.7823H27.2328C26.9993 21.7823 26.7905 21.8018 26.6074 21.8399C26.4243 21.8759 26.271 21.9304 26.1465 22.0035C26.0231 22.0775 25.9285 22.1711 25.8637 22.2833C25.7978 22.3923 25.7659 22.5209 25.7659 22.669C25.7659 22.8192 25.7999 22.957 25.8678 23.0805C25.9357 23.2049 26.0375 23.3037 26.1733 23.3778C26.3121 23.4487 26.4819 23.4837 26.6825 23.4837C26.9345 23.4837 27.1557 23.4302 27.348 23.3243C27.5394 23.2183 27.6916 23.0877 27.8037 22.9344C27.9189 22.7811 27.9817 22.632 27.9899 22.4869L28.3397 22.8809C28.3191 23.0054 28.2635 23.1432 28.172 23.2934C28.0804 23.4436 27.958 23.5886 27.8037 23.7275C27.6535 23.8633 27.4735 23.9775 27.2637 24.069C27.0569 24.1575 26.8234 24.2017 26.5632 24.2017C26.2381 24.2017 25.9532 24.1379 25.7084 24.0114C25.4656 23.8839 25.2773 23.7141 25.1405 23.5012C25.0078 23.2862 24.9419 23.0455 24.9419 22.7791C24.9419 22.5219 24.9914 22.2966 25.0922 22.1012C25.193 21.9037 25.337 21.7391 25.5263 21.6095C25.7156 21.4768 25.9429 21.376 26.2093 21.3081C26.4747 21.2402 26.772 21.2062 27.0991 21.2062H28.0516ZM30.9102 17.3076V24.1132H30.0863V17.3076H30.9102ZM38.4956 22.0611H39.3464C39.3021 22.4694 39.1859 22.8336 38.9966 23.1556C38.8073 23.4775 38.5399 23.7337 38.1943 23.9229C37.8486 24.1091 37.4176 24.2017 36.9012 24.2017C36.5227 24.2017 36.178 24.1307 35.8684 23.9888C35.5608 23.8468 35.2965 23.6462 35.0753 23.386C34.8542 23.1237 34.6824 22.8089 34.561 22.4427C34.4427 22.0734 34.3841 21.663 34.3841 21.2104V20.5685C34.3841 20.1159 34.4427 19.7075 34.561 19.3413C34.6824 18.972 34.8552 18.6552 35.0795 18.3929C35.3068 18.1295 35.5804 17.9279 35.8993 17.7859C36.2182 17.644 36.5772 17.573 36.9763 17.573C37.4639 17.573 37.8753 17.6646 38.2127 17.8477C38.5491 18.0308 38.8104 18.2848 38.9966 18.6099C39.1859 18.9319 39.3021 19.3053 39.3464 19.7311H38.4956C38.4545 19.4297 38.3773 19.1715 38.2652 18.9555C38.1531 18.7364 37.9936 18.5688 37.7869 18.4505C37.5801 18.3322 37.3096 18.2735 36.9763 18.2735C36.6893 18.2735 36.4373 18.328 36.2182 18.4371C36.0032 18.5461 35.8211 18.7014 35.673 18.902C35.529 19.1026 35.4189 19.3444 35.3459 19.6242C35.2718 19.905 35.2348 20.2167 35.2348 20.5592V21.2104C35.2348 21.5272 35.2677 21.8234 35.3325 22.1012C35.4004 22.3789 35.5022 22.6227 35.638 22.8326C35.7738 23.0424 35.9466 23.208 36.1565 23.3284C36.3663 23.4467 36.6142 23.5063 36.9012 23.5063C37.2643 23.5063 37.5534 23.4487 37.7694 23.3335C37.9844 23.2183 38.1469 23.0527 38.257 22.8367C38.3691 22.6217 38.4483 22.3625 38.4956 22.0611ZM43.3211 23.0054V19.3186H44.1451V24.1132H43.3612L43.3211 23.0054ZM43.4764 21.9952L43.818 21.986C43.818 22.3049 43.784 22.6011 43.7161 22.8727C43.6503 23.1412 43.5443 23.3747 43.3962 23.5722C43.2491 23.7707 43.0557 23.926 42.816 24.0382C42.5774 24.1472 42.2863 24.2017 41.9437 24.2017C41.7102 24.2017 41.4952 24.1678 41.3008 24.0999C41.1084 24.032 40.9428 23.9271 40.804 23.7851C40.6661 23.6431 40.5581 23.459 40.4809 23.2317C40.4069 23.0043 40.3699 22.7307 40.3699 22.4118V19.3186H41.1897V22.4201C41.1897 22.6361 41.2134 22.8151 41.2607 22.957C41.3111 23.0959 41.378 23.206 41.4603 23.2893C41.5456 23.3685 41.6403 23.4251 41.7442 23.457C41.8501 23.4899 41.9592 23.5063 42.0713 23.5063C42.42 23.5063 42.6967 23.4395 42.9004 23.3068C43.104 23.171 43.2501 22.9889 43.3386 22.7616C43.4301 22.5312 43.4764 22.2761 43.4764 21.9952ZM48.1867 22.8418C48.1867 22.7235 48.1599 22.6135 48.1065 22.5137C48.0561 22.4098 47.9521 22.3172 47.7917 22.2339C47.6353 22.1485 47.3998 22.0744 47.0829 22.0127C46.8175 21.9572 46.5768 21.8903 46.3608 21.8132C46.1479 21.737 45.9668 21.6434 45.8156 21.5344C45.6685 21.4254 45.5544 21.2968 45.4752 21.1486C45.3949 21.0015 45.3548 20.8287 45.3548 20.6302C45.3548 20.4409 45.3969 20.263 45.4792 20.0943C45.5646 19.9256 45.685 19.7764 45.8382 19.6468C45.9946 19.5172 46.1818 19.4143 46.4009 19.3413C46.619 19.2672 46.8628 19.2302 47.1323 19.2302C47.516 19.2302 47.8441 19.2981 48.1157 19.4339C48.3873 19.5696 48.5961 19.7517 48.7401 19.979C48.8851 20.2033 48.9571 20.4533 48.9571 20.7279H48.1373C48.1373 20.5952 48.0982 20.4666 48.018 20.3422C47.9408 20.2156 47.8277 20.1107 47.6764 20.0274C47.5293 19.9451 47.3473 19.904 47.1323 19.904C46.905 19.904 46.7198 19.9389 46.5778 20.0099C46.439 20.0778 46.3371 20.1652 46.2723 20.2712C46.2106 20.3782 46.1798 20.4903 46.1798 20.6086C46.1798 20.6971 46.1942 20.7763 46.224 20.8472C46.2559 20.9151 46.3125 20.9789 46.3917 21.0375C46.4719 21.0941 46.584 21.1476 46.7291 21.198C46.8731 21.2474 47.0582 21.2978 47.2825 21.3482C47.6754 21.4367 47.9984 21.5426 48.2525 21.6671C48.5066 21.7916 48.6959 21.9438 48.8203 22.1238C48.9438 22.3038 49.0065 22.5219 49.0065 22.7791C49.0065 22.9889 48.9623 23.1813 48.8728 23.3551C48.7874 23.53 48.6619 23.6802 48.4963 23.8077C48.3338 23.9312 48.1393 24.0289 47.912 24.0999C47.6878 24.1678 47.4347 24.2017 47.1539 24.2017C46.7321 24.2017 46.3742 24.1266 46.082 23.9754C45.7889 23.8252 45.5677 23.6298 45.4175 23.3911C45.2663 23.1514 45.1912 22.8994 45.1912 22.633H46.0152C46.0275 22.8573 46.0923 23.0362 46.2106 23.1689C46.3289 23.2996 46.4729 23.3922 46.6447 23.4487C46.8155 23.5012 46.9852 23.5279 47.1539 23.5279C47.3781 23.5279 47.5664 23.4991 47.7166 23.4395C47.8709 23.3808 47.9871 23.2996 48.0673 23.1957C48.1466 23.0928 48.1867 22.9745 48.1867 22.8418ZM52.0905 19.3186V19.9482H49.4982V19.3186H52.0905ZM50.3757 18.1532H51.1955V22.9251C51.1955 23.0877 51.2202 23.2111 51.2706 23.2934C51.321 23.3757 51.3859 23.4302 51.4651 23.457C51.5453 23.4837 51.6307 23.4971 51.7222 23.4971C51.7901 23.4971 51.8611 23.4909 51.9351 23.4796C52.0123 23.4652 52.0699 23.4528 52.108 23.4436L52.1121 24.1132C52.0472 24.1338 51.9619 24.1534 51.8549 24.1709C51.752 24.1914 51.6266 24.2017 51.4784 24.2017C51.2778 24.2017 51.0937 24.1616 50.925 24.0824C50.7563 24.0022 50.6225 23.8695 50.5217 23.6833C50.424 23.494 50.3757 23.2399 50.3757 22.921V18.1532ZM52.7457 21.7689V21.6671C52.7457 21.3215 52.7961 21.0015 52.8969 20.7053C52.9967 20.407 53.1417 20.1488 53.331 19.9307C53.5203 19.7085 53.7487 19.5377 54.0182 19.4164C54.2867 19.2919 54.5881 19.2302 54.9214 19.2302C55.2588 19.2302 55.5612 19.2919 55.8297 19.4164C56.1012 19.5377 56.3316 19.7085 56.5209 19.9307C56.7133 20.1488 56.8593 20.407 56.9602 20.7053C57.0599 21.0015 57.1103 21.3215 57.1103 21.6671V21.7689C57.1103 22.1146 57.0599 22.4355 56.9602 22.7307C56.8593 23.0259 56.7133 23.2841 56.5209 23.5063C56.3316 23.7244 56.1033 23.8962 55.8348 24.0196C55.5684 24.141 55.267 24.2017 54.9306 24.2017C54.5932 24.2017 54.2908 24.141 54.0223 24.0196C53.7528 23.8962 53.5234 23.7244 53.331 23.5063C53.1417 23.2841 52.9967 23.0259 52.8969 22.7307C52.7961 22.4355 52.7457 22.1146 52.7457 21.7689ZM53.5656 21.6671V21.7689C53.5656 22.0086 53.5933 22.2339 53.6499 22.4468C53.7065 22.6567 53.7898 22.8429 53.903 23.0054C54.0182 23.1679 54.1612 23.2965 54.3319 23.3911C54.5037 23.4827 54.7032 23.5279 54.9306 23.5279C55.1548 23.5279 55.3513 23.4827 55.52 23.3911C55.6908 23.2965 55.8327 23.1679 55.9449 23.0054C56.057 22.8429 56.1413 22.6567 56.1979 22.4468C56.2565 22.2339 56.2864 22.0086 56.2864 21.7689V21.6671C56.2864 21.4305 56.2565 21.2083 56.1979 20.9985C56.1413 20.7855 56.0559 20.5983 55.9407 20.4358C55.8286 20.2702 55.6866 20.1395 55.5149 20.0459C55.3472 19.9513 55.1487 19.904 54.9214 19.904C54.6971 19.904 54.4996 19.9513 54.3278 20.0459C54.1591 20.1395 54.0182 20.2702 53.903 20.4358C53.7898 20.5983 53.7065 20.7855 53.6499 20.9985C53.5933 21.2083 53.5656 21.4305 53.5656 21.6671ZM58.9537 20.2712V24.1132H58.1297V19.3186H58.9095L58.9537 20.2712ZM58.785 21.5344L58.4044 21.521C58.4075 21.1929 58.4497 20.8904 58.533 20.6127C58.6153 20.3319 58.7377 20.0881 58.9002 19.8813C59.0627 19.6746 59.2654 19.5151 59.5081 19.403C59.7499 19.2878 60.0307 19.2302 60.3496 19.2302C60.5738 19.2302 60.7806 19.2631 60.9699 19.3279C61.1592 19.3896 61.3227 19.4884 61.4616 19.6242C61.6004 19.7599 61.7084 19.9348 61.7856 20.1478C61.8617 20.3597 61.9008 20.6168 61.9008 20.9182V24.1132H61.081V20.9583C61.081 20.7073 61.0378 20.5068 60.9524 20.3555C60.8691 20.2054 60.7518 20.0953 60.5975 20.0274C60.4443 19.9564 60.2642 19.9214 60.0575 19.9214C59.8147 19.9214 59.6121 19.9646 59.4506 20.05C59.288 20.1354 59.1574 20.2537 59.0597 20.4039C58.963 20.5551 58.892 20.7279 58.8478 20.9223C58.8066 21.1147 58.785 21.3184 58.785 21.5344ZM61.8916 21.0828L61.3423 21.2505C61.3454 20.9882 61.3875 20.7351 61.4709 20.4934C61.5562 20.2506 61.6786 20.0356 61.8381 19.8464C62.0006 19.6571 62.2001 19.5079 62.4367 19.3989C62.6733 19.2868 62.9429 19.2302 63.2473 19.2302C63.5045 19.2302 63.7318 19.2641 63.9293 19.332C64.1309 19.3999 64.2986 19.5048 64.4344 19.6468C64.5733 19.7857 64.6782 19.9646 64.7492 20.1827C64.8202 20.4018 64.8561 20.6611 64.8561 20.9625V24.1132H64.0322V20.9542C64.0322 20.6847 63.989 20.4769 63.9036 20.3288C63.8203 20.1786 63.702 20.0737 63.5487 20.014C63.3985 19.9523 63.2175 19.9214 63.0076 19.9214C62.8276 19.9214 62.6682 19.9523 62.5293 20.014C62.3905 20.0768 62.2742 20.1621 62.1796 20.2712C62.0849 20.3782 62.0129 20.5006 61.9625 20.6394C61.9152 20.7783 61.8916 20.9254 61.8916 21.0828ZM68.0862 24.2017C67.7518 24.2017 67.4494 24.1451 67.1779 24.033C66.9094 23.9178 66.6769 23.7573 66.4825 23.5506C66.2902 23.3438 66.142 23.098 66.0391 22.8151C65.9352 22.5312 65.8838 22.2215 65.8838 21.8841V21.6979C65.8838 21.3081 65.9414 20.9614 66.0566 20.6569C66.1719 20.3494 66.3282 20.0901 66.5267 19.8772C66.7242 19.6643 66.9485 19.5038 67.1995 19.3937C67.4504 19.2847 67.7107 19.2302 67.9792 19.2302C68.3228 19.2302 68.618 19.2888 68.8659 19.4071C69.1169 19.5254 69.3226 19.691 69.482 19.904C69.6415 20.1138 69.7598 20.3617 69.8359 20.6477C69.9131 20.9316 69.9511 21.2422 69.9511 21.5786V21.9458H66.3714V21.2772H69.1313V21.2155C69.12 21.0026 69.0758 20.7958 68.9986 20.5952C68.9245 20.3936 68.8073 20.229 68.6448 20.0984C68.4822 19.9688 68.26 19.904 67.9792 19.904C67.794 19.904 67.6223 19.943 67.4659 20.0233C67.3096 20.1004 67.1748 20.2156 67.0626 20.3689C66.9505 20.5222 66.8631 20.7104 66.8014 20.9316C66.7387 21.1528 66.7078 21.4089 66.7078 21.6979V21.8841C66.7078 22.1115 66.7387 22.3254 66.8014 22.527C66.8662 22.7245 66.9588 22.8994 67.0802 23.0496C67.2046 23.2008 67.3538 23.3181 67.5276 23.4045C67.7046 23.4899 67.9062 23.5331 68.1304 23.5331C68.4195 23.5331 68.6653 23.4734 68.8659 23.3551C69.0665 23.2368 69.2424 23.0794 69.3936 22.8809L69.8894 23.2759C69.7865 23.4323 69.6549 23.5814 69.4954 23.7234C69.336 23.8653 69.1395 23.9805 68.906 24.069C68.6756 24.1575 68.402 24.2017 68.0862 24.2017ZM71.7287 20.0716V24.1132H70.9088V19.3186H71.7061L71.7287 20.0716ZM73.2264 19.2919L73.2213 20.0541C73.1534 20.0397 73.0886 20.0305 73.0269 20.0274C72.9672 20.0223 72.8993 20.0192 72.8232 20.0192C72.6339 20.0192 72.4673 20.048 72.3222 20.1076C72.1772 20.1663 72.0548 20.2496 71.9539 20.3555C71.8542 20.4615 71.7739 20.589 71.7153 20.7372C71.6587 20.8812 71.6217 21.0406 71.6042 21.2155L71.3738 21.3482C71.3738 21.0591 71.4016 20.7866 71.4581 20.5325C71.5168 20.2784 71.6073 20.0541 71.7287 19.8597C71.849 19.6612 72.0033 19.5079 72.1895 19.3989C72.3778 19.2868 72.603 19.2302 72.8622 19.2302C72.9219 19.2302 72.9898 19.2374 73.067 19.2528C73.1431 19.2641 73.1966 19.2775 73.2264 19.2919Z" fill="#4B4B4B"/>
<path d="M14.6305 38.8108L12.5928 38.3232L13.3282 31.7829H20.5772V33.8485H15.4278L15.1089 36.7102C15.2807 36.6105 15.5399 36.5035 15.8886 36.3914C16.2373 36.2731 16.6272 36.2144 17.0592 36.2144C17.6846 36.2144 18.2401 36.3121 18.7246 36.5066C19.2091 36.702 19.6196 36.9849 19.957 37.3573C20.2995 37.7296 20.5587 38.1843 20.7367 38.7223C20.9136 39.2603 21.0021 39.8682 21.0021 40.5482C21.0021 41.1211 20.9136 41.6674 20.7367 42.1868C20.5587 42.7012 20.2903 43.162 19.9302 43.5694C19.5692 43.9716 19.1176 44.2874 18.5745 44.5178C18.0303 44.7482 17.3863 44.8634 16.6426 44.8634C16.0871 44.8634 15.5491 44.7811 15.0296 44.6155C14.5153 44.4499 14.0514 44.2051 13.6379 43.88C13.2305 43.555 12.9024 43.162 12.6545 42.7012C12.4117 42.2342 12.2852 41.7023 12.2728 41.1057H14.8074C14.8434 41.4719 14.9381 41.7887 15.0914 42.0541C15.2508 42.3144 15.4606 42.515 15.7209 42.6569C15.9801 42.7989 16.2846 42.8699 16.6333 42.8699C16.9584 42.8699 17.2361 42.8071 17.4666 42.6837C17.697 42.5592 17.8831 42.3885 18.0251 42.1693C18.166 41.9451 18.2699 41.6848 18.3347 41.3896C18.4057 41.0882 18.4407 40.7632 18.4407 40.4144C18.4407 40.0668 18.3996 39.7499 18.3173 39.4671C18.234 39.1831 18.1074 38.9383 17.9356 38.7316C17.7649 38.5248 17.5457 38.3643 17.2803 38.2522C17.0201 38.1401 16.7156 38.0845 16.368 38.0845C15.8948 38.0845 15.5285 38.1576 15.2683 38.3057C15.0142 38.4538 14.8023 38.6215 14.6305 38.8108ZM22.8814 43.4542C22.8814 43.0766 23.0111 42.7608 23.2713 42.5068C23.5367 42.2527 23.8885 42.1251 24.3257 42.1251C24.7628 42.1251 25.1116 42.2527 25.3708 42.5068C25.6373 42.7608 25.77 43.0766 25.77 43.4542C25.77 43.8327 25.6373 44.1485 25.3708 44.4026C25.1116 44.6567 24.7628 44.7842 24.3257 44.7842C23.8885 44.7842 23.5367 44.6567 23.2713 44.4026C23.0111 44.1485 22.8814 43.8327 22.8814 43.4542ZM34.4992 31.6502H34.8715V33.689H34.7203C34.0476 33.689 33.4479 33.7888 32.9212 33.9905C32.3955 34.191 31.9501 34.477 31.5839 34.8494C31.2229 35.2156 30.9451 35.6589 30.7507 36.1784C30.5614 36.6989 30.4668 37.2811 30.4668 37.9251V40.0688C30.4668 40.5297 30.511 40.938 30.5995 41.2919C30.6941 41.6406 30.8268 41.9328 30.9986 42.1693C31.1755 42.3998 31.3823 42.5746 31.6189 42.6919C31.8555 42.8051 32.1209 42.8606 32.4161 42.8606C32.6939 42.8606 32.9449 42.802 33.1701 42.6837C33.4005 42.5654 33.595 42.3998 33.7544 42.1868C33.92 41.9688 34.0445 41.7147 34.1268 41.4256C34.2152 41.1294 34.2595 40.8074 34.2595 40.4587C34.2595 40.111 34.2152 39.789 34.1268 39.4928C34.0445 39.1975 33.92 38.9435 33.7544 38.7316C33.5888 38.5124 33.3882 38.3438 33.1516 38.2255C32.916 38.1082 32.6497 38.0485 32.3544 38.0485C31.9533 38.0485 31.5984 38.1432 31.2908 38.3324C30.9894 38.5155 30.7538 38.7521 30.582 39.0412C30.4102 39.3313 30.3187 39.6347 30.3073 39.9536L29.5358 39.4578C29.5544 39.0031 29.649 38.5711 29.8198 38.1637C29.9967 37.7564 30.2395 37.3964 30.547 37.0826C30.8598 36.7637 31.2352 36.5158 31.6724 36.3379C32.1096 36.1548 32.6023 36.0632 33.1516 36.0632C33.7544 36.0632 34.2832 36.1784 34.7389 36.4088C35.1987 36.6393 35.5834 36.9561 35.8899 37.3573C36.1975 37.7595 36.4279 38.2234 36.5812 38.749C36.7355 39.2747 36.8116 39.8363 36.8116 40.433C36.8116 41.0584 36.7087 41.6406 36.502 42.1786C36.3014 42.7156 36.0082 43.1857 35.6245 43.5879C35.246 43.9891 34.7913 44.3028 34.2595 44.5271C33.7277 44.7513 33.1311 44.8634 32.4696 44.8634C31.7845 44.8634 31.1611 44.74 30.5995 44.491C30.044 44.237 29.5657 43.8831 29.1645 43.4284C28.7623 42.9727 28.4527 42.4327 28.2336 41.8062C28.0206 41.1798 27.9147 40.4947 27.9147 39.7499V38.7573C27.9147 37.7183 28.0649 36.7668 28.3663 35.9038C28.6739 35.0356 29.1141 34.2857 29.6871 33.653C30.2601 33.0153 30.9513 32.5215 31.7609 32.1728C32.5704 31.8251 33.4828 31.6502 34.4992 31.6502ZM44.5574 31.7572V44.6865H42.0053V34.6992L38.9389 35.6733V33.6623L44.2828 31.7572H44.5574ZM57.5844 42.6919V44.6865H48.7575V42.9851L52.9318 38.5094C53.3515 38.0424 53.6827 37.6319 53.9245 37.2781C54.1672 36.917 54.3411 36.595 54.447 36.3121C54.5591 36.0221 54.6157 35.7474 54.6157 35.4871C54.6157 35.0973 54.5509 34.764 54.4203 34.4863C54.2907 34.2023 54.0983 33.9843 53.8452 33.83C53.5963 33.6767 53.2898 33.5996 52.9236 33.5996C52.5327 33.5996 52.1963 33.6942 51.9124 33.8835C51.6357 34.0727 51.4228 34.335 51.2746 34.6724C51.1327 35.0088 51.0617 35.3905 51.0617 35.8153H48.5013C48.5013 35.0479 48.6844 34.3443 49.0506 33.7065C49.4168 33.0626 49.9332 32.5513 50.6008 32.1728C51.2684 31.7891 52.0605 31.5967 52.976 31.5967C53.8802 31.5967 54.6424 31.7449 55.2627 32.0401C55.8892 32.3302 56.3613 32.7488 56.6802 33.2992C57.0053 33.8423 57.1678 34.4924 57.1678 35.2485C57.1678 35.6733 57.0999 36.0899 56.9641 36.4983C56.8283 36.8995 56.6329 37.3017 56.3788 37.7029C56.1309 38.0989 55.8295 38.5011 55.4757 38.9085C55.1208 39.3158 54.7279 39.7386 54.2968 40.1758L52.0544 42.6919H57.5844Z" fill="#4B4B4B"/>
<path d="M15.8291 52.4528L13.6463 57.4933H18.1148L15.8291 52.4528Z" fill="#0C9D61"/>
<path d="M25.8009 56.1581V57.0304H21.9394V56.2857L23.7652 54.3281C23.9493 54.1234 24.0944 53.9444 24.2004 53.7891C24.3063 53.6317 24.3824 53.4908 24.4287 53.3663C24.4781 53.2398 24.5028 53.1195 24.5028 53.0063C24.5028 52.8355 24.474 52.6895 24.4174 52.5681C24.3598 52.4436 24.2765 52.348 24.1654 52.2811C24.0564 52.2132 23.9226 52.1803 23.7621 52.1803C23.5914 52.1803 23.4443 52.2214 23.3198 52.3037C23.1984 52.387 23.1048 52.5023 23.041 52.6494C22.9783 52.7965 22.9474 52.9631 22.9474 53.1493H21.8272C21.8272 52.8129 21.9075 52.5053 22.0679 52.2266C22.2274 51.9447 22.4537 51.7215 22.7458 51.5559C23.038 51.3882 23.3846 51.3039 23.7847 51.3039C24.1808 51.3039 24.5141 51.3687 24.7856 51.4972C25.0593 51.6248 25.2661 51.8079 25.406 52.0486C25.5479 52.2862 25.6189 52.5701 25.6189 52.9014C25.6189 53.0876 25.589 53.2696 25.5294 53.4476C25.4708 53.6235 25.3854 53.7994 25.2743 53.9753C25.1653 54.1481 25.0336 54.324 24.8782 54.502C24.7229 54.681 24.5511 54.8651 24.3628 55.0564L23.3815 56.1581H25.8009ZM26.484 52.7697V52.4704C26.484 52.2564 26.5303 52.061 26.6228 51.8851C26.7165 51.7092 26.8533 51.5682 27.0343 51.4623C27.2154 51.3563 27.4375 51.3039 27.7009 51.3039C27.9724 51.3039 28.1988 51.3563 28.3798 51.4623C28.5629 51.5682 28.6997 51.7092 28.7902 51.8851C28.8838 52.061 28.9301 52.2564 28.9301 52.4704V52.7697C28.9301 52.9785 28.8838 53.1709 28.7902 53.3468C28.6997 53.5227 28.5639 53.6636 28.3829 53.7696C28.2029 53.8755 27.9786 53.929 27.7122 53.929C27.4437 53.929 27.2174 53.8755 27.0343 53.7696C26.8533 53.6636 26.7165 53.5227 26.6228 53.3468C26.5303 53.1709 26.484 52.9785 26.484 52.7697ZM27.2246 52.4704V52.7697C27.2246 52.8602 27.241 52.9466 27.275 53.0289C27.311 53.1092 27.3645 53.175 27.4375 53.2264C27.5126 53.2758 27.6031 53.3005 27.7091 53.3005C27.8202 53.3005 27.9107 53.2758 27.9796 53.2264C28.0496 53.175 28.102 53.1092 28.1349 53.0289C28.1689 52.9466 28.1854 52.8602 28.1854 52.7697V52.4704C28.1854 52.3747 28.1679 52.2873 28.1309 52.207C28.0979 52.1247 28.0445 52.0589 27.9725 52.0095C27.9025 51.9581 27.812 51.9324 27.7009 51.9324C27.598 51.9324 27.5095 51.9581 27.4375 52.0095C27.3645 52.0589 27.311 52.1247 27.275 52.207C27.241 52.2873 27.2246 52.3747 27.2246 52.4704ZM29.1821 55.9452V55.6458C29.1821 55.4339 29.2285 55.2405 29.3221 55.0646C29.4177 54.8887 29.5555 54.7478 29.7366 54.6419C29.9197 54.5359 30.145 54.4834 30.4114 54.4834C30.6799 54.4834 30.9052 54.5359 31.0862 54.6419C31.2662 54.7478 31.404 54.8887 31.4966 55.0646C31.5892 55.2405 31.6366 55.4339 31.6366 55.6458V55.9452C31.6366 56.1571 31.5892 56.3505 31.4966 56.5264C31.4061 56.7023 31.2703 56.8432 31.0893 56.9492C30.9082 57.0551 30.685 57.1076 30.4186 57.1076C30.1501 57.1076 29.9238 57.0551 29.7407 56.9492C29.5566 56.8432 29.4177 56.7023 29.3221 56.5264C29.2285 56.3505 29.1821 56.1571 29.1821 55.9452ZM29.9269 55.6458V55.9452C29.9269 56.0378 29.9475 56.1252 29.9886 56.2085C30.0297 56.2908 30.0863 56.3566 30.1594 56.406C30.2345 56.4554 30.3209 56.4801 30.4186 56.4801C30.5431 56.4801 30.6398 56.4554 30.7097 56.406C30.7797 56.3566 30.827 56.2908 30.8527 56.2085C30.8815 56.1252 30.8959 56.0378 30.8959 55.9452V55.6458C30.8959 55.5533 30.8774 55.4669 30.8414 55.3866C30.8054 55.3033 30.7509 55.2375 30.6789 55.1891C30.6089 55.1367 30.5194 55.1109 30.4114 55.1109C30.3024 55.1109 30.2119 55.1367 30.1399 55.1891C30.0699 55.2375 30.0164 55.3033 29.9804 55.3866C29.9444 55.4669 29.9269 55.5533 29.9269 55.6458ZM30.6861 52.1916L27.9293 56.6035L27.3871 56.3165L30.1439 51.9046L30.6861 52.1916Z" fill="#0B9D61"/>
<path d="M36.9579 57.4111L38.1059 53.8642H38.8383L37.3303 58.0591H36.8499L36.9579 57.4111ZM36.0002 53.8642L37.1832 57.4306L37.2644 58.0591H36.784L35.2637 53.8642H36.0002ZM41.9716 56.9461C41.9716 56.8432 41.9479 56.7476 41.9016 56.6591C41.8574 56.5686 41.7659 56.4873 41.626 56.4153C41.4892 56.3402 41.2824 56.2754 41.0057 56.2209C40.7732 56.1725 40.5623 56.1139 40.3741 56.047C40.1879 55.9791 40.0284 55.8979 39.8968 55.8022C39.7682 55.7066 39.6684 55.5944 39.5985 55.4648C39.5285 55.3362 39.4936 55.185 39.4936 55.0112C39.4936 54.8466 39.5295 54.6902 39.6026 54.5421C39.6776 54.395 39.7815 54.2644 39.9163 54.1512C40.0531 54.037 40.2177 53.9475 40.409 53.8838C40.6004 53.819 40.8133 53.786 41.0489 53.786C41.3842 53.786 41.6712 53.8457 41.9088 53.965C42.1475 54.0833 42.3295 54.2428 42.4561 54.4413C42.5826 54.6378 42.6454 54.8569 42.6454 55.0966H41.9284C41.9284 54.9803 41.8934 54.8682 41.8234 54.7592C41.7566 54.6481 41.6568 54.5565 41.5251 54.4845C41.3966 54.4115 41.2371 54.3755 41.0489 54.3755C40.8493 54.3755 40.6878 54.4063 40.5634 54.4691C40.442 54.5277 40.3535 54.6049 40.2959 54.6974C40.2424 54.791 40.2146 54.8888 40.2146 54.9927C40.2146 55.0698 40.228 55.1398 40.2537 55.2015C40.2825 55.2612 40.3309 55.3167 40.4008 55.3681C40.4708 55.4175 40.5695 55.4638 40.696 55.508C40.8225 55.5523 40.984 55.5955 41.1805 55.6397C41.5241 55.7168 41.807 55.8104 42.0292 55.9185C42.2514 56.0275 42.417 56.1602 42.5261 56.3186C42.6341 56.476 42.6885 56.6673 42.6885 56.8916C42.6885 57.0757 42.6495 57.2434 42.5723 57.3956C42.4972 57.5489 42.3872 57.6806 42.2432 57.7917C42.1002 57.8997 41.9294 57.985 41.7309 58.0478C41.5344 58.1064 41.3132 58.1363 41.0674 58.1363C40.6981 58.1363 40.3854 58.0704 40.1293 57.9388C39.8741 57.8071 39.6797 57.6363 39.5481 57.4265C39.4164 57.2177 39.3505 56.9965 39.3505 56.764H40.0716C40.0819 56.9605 40.1385 57.1169 40.2424 57.2331C40.3453 57.3473 40.4718 57.4285 40.622 57.4769C40.7722 57.5242 40.9203 57.5468 41.0674 57.5468C41.2639 57.5468 41.4285 57.5211 41.5601 57.4697C41.6949 57.4182 41.7967 57.3473 41.8666 57.2568C41.9366 57.1662 41.9716 57.0623 41.9716 56.9461ZM49.1321 57.4501V58.0591H46.3095V57.4501H49.1321ZM46.4566 52.4138V58.0591H45.7087V52.4138H46.4566ZM52.3539 57.3421V55.1819C52.3539 55.0163 52.321 54.8733 52.2531 54.752C52.1883 54.6275 52.0906 54.5318 51.9589 54.465C51.8272 54.3981 51.6636 54.3641 51.4702 54.3641C51.2892 54.3641 51.1298 54.395 50.9929 54.4567C50.8592 54.5195 50.7533 54.6007 50.6751 54.7016C50.6 54.8024 50.563 54.9104 50.563 55.0266H49.846C49.846 54.8774 49.8841 54.7283 49.9623 54.5812C50.0394 54.4341 50.1505 54.3004 50.2955 54.1821C50.4426 54.0607 50.6186 53.965 50.8222 53.8951C51.029 53.8231 51.2594 53.786 51.5124 53.786C51.8179 53.786 52.0864 53.8385 52.3189 53.9414C52.5545 54.0453 52.7376 54.2016 52.8703 54.4104C53.004 54.6172 53.0719 54.8775 53.0719 55.1902V57.1436C53.0719 57.2835 53.0832 57.4327 53.1058 57.59C53.1326 57.7474 53.1696 57.8832 53.219 57.9974V58.0591H52.4701C52.4341 57.9758 52.4064 57.8668 52.3848 57.7289C52.3642 57.59 52.3539 57.4604 52.3539 57.3421ZM52.4784 55.5152L52.4855 56.0193H51.7614C51.5567 56.0193 51.3746 56.0368 51.2141 56.0697C51.0537 56.1005 50.9199 56.1489 50.8109 56.2137C50.7029 56.2785 50.6196 56.3598 50.563 56.4575C50.5064 56.5531 50.4776 56.6653 50.4776 56.7949C50.4776 56.9266 50.5074 57.0469 50.5671 57.1559C50.6267 57.264 50.7152 57.3504 50.8345 57.4152C50.9559 57.4769 51.104 57.5088 51.2799 57.5088C51.5001 57.5088 51.6935 57.4615 51.8622 57.3689C52.0299 57.2753 52.1626 57.1621 52.2613 57.0274C52.3621 56.8936 52.4166 56.763 52.4238 56.6365L52.7304 56.9811C52.7119 57.0901 52.6635 57.2094 52.5833 57.3421C52.503 57.4738 52.395 57.6003 52.2613 57.7217C52.1297 57.841 51.9712 57.9398 51.7881 58.02C51.6071 58.0982 51.4034 58.1363 51.175 58.1363C50.8911 58.1363 50.6422 58.0807 50.4272 57.9696C50.2153 57.8585 50.0497 57.7104 49.9314 57.5242C49.8151 57.3349 49.7565 57.1251 49.7565 56.8916C49.7565 56.6673 49.8008 56.4698 49.8882 56.2991C49.9767 56.1252 50.1032 55.9822 50.2678 55.8681C50.4334 55.7518 50.633 55.6644 50.8654 55.6047C51.0979 55.5451 51.3582 55.5152 51.6452 55.5152H52.4784ZM56.6424 56.9461C56.6424 56.8432 56.6187 56.7476 56.5724 56.6591C56.5282 56.5686 56.4366 56.4873 56.2967 56.4153C56.1599 56.3402 55.9532 56.2754 55.6765 56.2209C55.444 56.1725 55.2331 56.1139 55.0449 56.047C54.8587 55.9791 54.7003 55.8979 54.5676 55.8022C54.439 55.7066 54.3392 55.5944 54.2692 55.4648C54.1993 55.3362 54.1643 55.185 54.1643 55.0112C54.1643 54.8466 54.2014 54.6902 54.2734 54.5421C54.3485 54.395 54.4534 54.2644 54.5871 54.1512C54.7239 54.037 54.8885 53.9475 55.0798 53.8838C55.2712 53.819 55.4841 53.786 55.7197 53.786C56.055 53.786 56.342 53.8457 56.5807 53.965C56.8183 54.0833 57.0004 54.2428 57.1269 54.4413C57.2534 54.6378 57.3172 54.8569 57.3172 55.0966H56.5992C56.5992 54.9803 56.5642 54.8682 56.4953 54.7592C56.4274 54.6481 56.3287 54.5565 56.196 54.4845C56.0674 54.4115 55.9079 54.3755 55.7197 54.3755C55.5201 54.3755 55.3586 54.4063 55.2352 54.4691C55.1138 54.5277 55.0243 54.6049 54.9677 54.6974C54.9132 54.791 54.8854 54.8888 54.8854 54.9927C54.8854 55.0698 54.8988 55.1398 54.9245 55.2015C54.9533 55.2612 55.0027 55.3167 55.0716 55.3681C55.1416 55.4175 55.2403 55.4638 55.3668 55.508C55.4934 55.5523 55.6549 55.5955 55.8513 55.6397C56.1949 55.7168 56.4778 55.8104 56.7 55.9185C56.9222 56.0275 57.0878 56.1602 57.1968 56.3186C57.3048 56.476 57.3594 56.6673 57.3594 56.8916C57.3594 57.0757 57.3202 57.2434 57.2431 57.3956C57.168 57.5489 57.058 57.6806 56.914 57.7917C56.771 57.8997 56.6012 57.985 56.4017 58.0478C56.2052 58.1064 55.984 58.1363 55.7392 58.1363C55.3689 58.1363 55.0562 58.0704 54.8011 57.9388C54.5449 57.8071 54.3506 57.6363 54.2189 57.4265C54.0872 57.2177 54.0214 56.9965 54.0214 56.764H54.7424C54.7527 56.9605 54.8093 57.1169 54.9132 57.2331C55.0161 57.3473 55.1426 57.4285 55.2928 57.4769C55.4429 57.5242 55.5911 57.5468 55.7392 57.5468C55.9357 57.5468 56.0993 57.5211 56.2309 57.4697C56.3657 57.4182 56.4675 57.3473 56.5375 57.2568C56.6074 57.1662 56.6424 57.0623 56.6424 56.9461ZM60.0575 53.8642V54.4146H57.7904V53.8642H60.0575ZM58.5577 52.8438H59.2747V57.0202C59.2747 57.1621 59.2963 57.2691 59.3405 57.3421C59.3848 57.4141 59.4414 57.4615 59.5113 57.4851C59.5813 57.5088 59.6563 57.5201 59.7366 57.5201C59.7952 57.5201 59.858 57.515 59.9228 57.5047C59.9897 57.4913 60.0401 57.481 60.073 57.4738L60.0771 58.0591C60.0205 58.0766 59.9454 58.0941 59.8529 58.1095C59.7623 58.127 59.6522 58.1363 59.5226 58.1363C59.3467 58.1363 59.1853 58.1013 59.0382 58.0313C58.8911 57.9624 58.7738 57.8462 58.6853 57.6826C58.5999 57.517 58.5577 57.2948 58.5577 57.016V52.8438ZM63.2371 52.4138L64.703 55.2478L66.1719 52.4138H67.0216L65.0754 55.9493V58.0591H64.3265V55.9493L62.3803 52.4138H63.2371ZM69.1231 58.1363C68.831 58.1363 68.5656 58.0869 68.328 57.9892C68.0924 57.8883 67.8898 57.7474 67.719 57.5664C67.5514 57.3853 67.4217 57.1714 67.3312 56.9235C67.2407 56.6745 67.1955 56.403 67.1955 56.1088V55.9462C67.1955 55.6047 67.2458 55.3013 67.3466 55.0348C67.4475 54.7664 67.5843 54.539 67.7581 54.3528C67.931 54.1666 68.1274 54.0257 68.3476 53.9301C68.5667 53.8344 68.794 53.786 69.0295 53.786C69.3299 53.786 69.5881 53.8385 69.8052 53.9414C70.0243 54.0453 70.2043 54.1893 70.3442 54.3755C70.483 54.5596 70.587 54.7766 70.6538 55.0266C70.7217 55.2755 70.7546 55.5461 70.7546 55.8413V56.1633H67.6223V55.578H70.0377V55.5234C70.0274 55.3373 69.9882 55.1562 69.9214 54.9803C69.8566 54.8044 69.7537 54.6604 69.6107 54.5462C69.4688 54.4331 69.2754 54.3755 69.0295 54.3755C68.867 54.3755 68.7169 54.4104 68.5801 54.4804C68.4432 54.5473 68.3249 54.6481 68.2272 54.7828C68.1285 54.9176 68.0523 55.0811 67.9978 55.2755C67.9443 55.4689 67.9165 55.6922 67.9165 55.9462V56.1088C67.9165 56.3073 67.9443 56.4955 67.9978 56.6714C68.0554 56.8443 68.1367 56.9965 68.2426 57.1282C68.3507 57.2598 68.4813 57.3637 68.6345 57.4388C68.7888 57.5139 68.9647 57.551 69.1612 57.551C69.4142 57.551 69.6293 57.4995 69.8052 57.3956C69.9811 57.2928 70.1343 57.1539 70.266 56.9811L70.7011 57.3257C70.6106 57.4635 70.4954 57.5942 70.3555 57.7176C70.2156 57.8421 70.0438 57.9429 69.8401 58.02C69.6385 58.0982 69.3988 58.1363 69.1231 58.1363ZM74.0659 57.3421V55.1819C74.0659 55.0163 74.032 54.8733 73.9651 54.752C73.9003 54.6275 73.8025 54.5318 73.6709 54.465C73.5392 54.3981 73.3757 54.3641 73.1823 54.3641C73.0012 54.3641 72.8418 54.395 72.7049 54.4567C72.5702 54.5195 72.4643 54.6007 72.3871 54.7016C72.312 54.8024 72.275 54.9104 72.275 55.0266H71.558C71.558 54.8774 71.5961 54.7283 71.6743 54.5812C71.7514 54.4341 71.8625 54.3004 72.0075 54.1821C72.1546 54.0607 72.3306 53.965 72.5342 53.8951C72.741 53.8231 72.9714 53.786 73.2244 53.786C73.5299 53.786 73.7984 53.8385 74.0309 53.9414C74.2665 54.0453 74.4496 54.2016 74.5813 54.4104C74.716 54.6172 74.7829 54.8775 74.7829 55.1902V57.1436C74.7829 57.2835 74.7952 57.4327 74.8178 57.59C74.8435 57.7474 74.8816 57.8832 74.931 57.9974V58.0591H74.1821C74.1461 57.9758 74.1173 57.8668 74.0968 57.7289C74.0762 57.59 74.0659 57.4604 74.0659 57.3421ZM74.1904 55.5152L74.1976 56.0193H73.4724C73.2687 56.0193 73.0866 56.0368 72.9261 56.0697C72.7657 56.1005 72.6319 56.1489 72.5229 56.2137C72.4138 56.2785 72.3316 56.3598 72.275 56.4575C72.2184 56.5531 72.1896 56.6653 72.1896 56.7949C72.1896 56.9266 72.2194 57.0469 72.2791 57.1559C72.3377 57.264 72.4272 57.3504 72.5465 57.4152C72.6679 57.4769 72.8161 57.5088 72.992 57.5088C73.2121 57.5088 73.4055 57.4615 73.5731 57.3689C73.7418 57.2753 73.8746 57.1621 73.9733 57.0274C74.0741 56.8936 74.1276 56.763 74.1359 56.6365L74.4424 56.9811C74.4239 57.0901 74.3745 57.2094 74.2943 57.3421C74.2151 57.4738 74.107 57.6003 73.9733 57.7217C73.8406 57.841 73.6832 57.9398 73.5001 58.02C73.3191 58.0982 73.1143 58.1363 72.887 58.1363C72.6031 58.1363 72.3531 58.0807 72.1392 57.9696C71.9273 57.8585 71.7617 57.7104 71.6424 57.5242C71.5261 57.3349 71.4685 57.1251 71.4685 56.8916C71.4685 56.6673 71.5127 56.4698 71.6002 56.2991C71.6876 56.1252 71.8152 55.9822 71.9798 55.8681C72.1454 55.7518 72.3449 55.6644 72.5774 55.6047C72.8099 55.5451 73.0691 55.5152 73.3561 55.5152H74.1904ZM76.6283 54.5226V58.0591H75.9113V53.8642H76.6098L76.6283 54.5226ZM77.9388 53.8406L77.9357 54.5071C77.8761 54.4948 77.8195 54.4866 77.7649 54.4845C77.7135 54.4794 77.6538 54.4763 77.5859 54.4763C77.4214 54.4763 77.2753 54.502 77.1488 54.5544C77.0212 54.6059 76.9142 54.6779 76.8268 54.7715C76.7383 54.8641 76.6684 54.9752 76.617 55.1048C76.5676 55.2313 76.5357 55.3712 76.5203 55.5234L76.3186 55.6397C76.3186 55.3866 76.3433 55.149 76.3927 54.9258C76.4442 54.7036 76.5223 54.5071 76.6283 54.3374C76.7342 54.1636 76.869 54.0298 77.0315 53.9342C77.1971 53.8354 77.3936 53.786 77.621 53.786C77.6734 53.786 77.732 53.7932 77.7999 53.8056C77.8668 53.8159 77.9131 53.8282 77.9388 53.8406Z" fill="#4B4B4B"/>
<path d="M188.299 37.9997C188.299 27.9761 180.173 19.8504 170.15 19.8504C160.126 19.8504 152 27.9761 152 37.9997C152 48.0233 160.126 56.149 170.15 56.149C180.173 56.149 188.299 48.0233 188.299 37.9997Z" fill="#EBF2FF"/>
<path d="M170.002 35.6682C171.998 35.6682 173.613 34.0491 173.613 32.0514C173.613 30.0548 171.998 28.4357 170.002 28.4357C168.006 28.4357 166.381 30.0548 166.381 32.0514C166.381 34.0491 168.006 35.6682 170.002 35.6682Z" fill="url(#paint0_linear_102_3127)"/>
<path d="M177.316 35.6692C178.581 35.6692 179.6 34.6446 179.6 33.3825C179.6 32.1193 178.581 31.0947 177.316 31.0947C176.051 31.0947 175.032 32.1193 175.032 33.3825C175.032 34.6446 176.051 35.6692 177.316 35.6692Z" fill="url(#paint1_linear_102_3127)"/>
<path d="M162.678 35.6692C163.943 35.6692 164.972 34.6446 164.972 33.3825C164.972 32.1193 163.943 31.0947 162.678 31.0947C161.423 31.0947 160.394 32.1193 160.394 33.3825C160.394 34.6446 161.423 35.6692 162.678 35.6692Z" fill="url(#paint2_linear_102_3127)"/>
<path d="M164.931 37.7224C164.036 36.9849 163.223 37.0816 162.184 37.0816C160.621 37.0816 159.355 38.3407 159.355 39.8878V44.4283C159.355 45.1 159.901 45.6473 160.58 45.6473C163.491 45.6473 163.141 45.6997 163.141 45.5218C163.141 42.3041 162.76 39.9454 164.931 37.7224Z" fill="url(#paint3_linear_102_3127)"/>
<path d="M170.99 37.099C169.169 36.9468 167.595 37.1001 166.227 38.2254C163.943 40.0523 164.386 42.5119 164.386 45.5207C164.386 46.3169 165.034 46.9763 165.846 46.9763C174.621 46.9763 174.971 47.2592 175.485 46.1071C175.66 45.7172 175.608 45.8417 175.608 42.1138C175.608 39.1523 173.047 37.099 170.99 37.099Z" fill="url(#paint4_linear_102_3127)"/>
<path d="M177.82 37.0815C176.771 37.0815 175.958 36.9859 175.063 37.7214C177.223 39.9268 176.863 42.1251 176.863 45.5207C176.863 45.6997 176.565 45.6462 179.373 45.6462C180.073 45.6462 180.638 45.0794 180.638 44.384V39.8877C180.638 38.3406 179.373 37.0815 177.82 37.0815Z" fill="url(#paint5_linear_102_3127)"/>
<path d="M184.29 12.211L186.029 13.9427L187.767 12.211L188.302 12.7441L186.029 15.0126L183.766 12.7441L184.29 12.211Z" fill="black"/>
<defs>
<linearGradient id="paint0_linear_102_3127" x1="170.002" y1="28.4357" x2="170.002" y2="35.6682" gradientUnits="userSpaceOnUse">
<stop stop-color="#FFAD0D"/>
<stop offset="1" stop-color="#EA9F0C"/>
</linearGradient>
<linearGradient id="paint1_linear_102_3127" x1="177.316" y1="31.0947" x2="177.316" y2="35.6692" gradientUnits="userSpaceOnUse">
<stop stop-color="#FFAD0D"/>
<stop offset="1" stop-color="#EA9F0C"/>
</linearGradient>
<linearGradient id="paint2_linear_102_3127" x1="162.678" y1="31.0947" x2="162.678" y2="35.6692" gradientUnits="userSpaceOnUse">
<stop stop-color="#FFAD0D"/>
<stop offset="1" stop-color="#EA9F0C"/>
</linearGradient>
<linearGradient id="paint3_linear_102_3127" x1="162.143" y1="37.0775" x2="162.143" y2="45.6545" gradientUnits="userSpaceOnUse">
<stop stop-color="#316DE3"/>
<stop offset="1" stop-color="#1351CB"/>
</linearGradient>
<linearGradient id="paint4_linear_102_3127" x1="169.982" y1="37.0497" x2="169.982" y2="47.0071" gradientUnits="userSpaceOnUse">
<stop stop-color="#316DE3"/>
<stop offset="1" stop-color="#1351CB"/>
</linearGradient>
<linearGradient id="paint5_linear_102_3127" x1="177.851" y1="37.0774" x2="177.851" y2="45.6534" gradientUnits="userSpaceOnUse">
<stop stop-color="#316DE3"/>
<stop offset="1" stop-color="#1351CB"/>
</linearGradient>
</defs>
</svg>
