<svg width="347" height="291" viewBox="0 0 347 291" fill="none" xmlns="http://www.w3.org/2000/svg">
<g filter="url(#filter0_d_102_609)">
<path d="M338.998 3.0007H8.00187C5.79221 3.0007 4.00093 4.79198 4.00093 7.00163V281.498C4.00093 283.707 5.79221 285.499 8.00187 285.499H338.998C341.208 285.499 342.999 283.707 342.999 281.498V7.00163C342.999 4.79198 341.208 3.0007 338.998 3.0007Z" fill="white"/>
<mask id="mask0_102_609" style="mask-type:luminance" maskUnits="userSpaceOnUse" x="4" y="3" width="339" height="45">
<path d="M4.00093 3.0007H342.999V47.011H4.00093V3.0007Z" fill="white"/>
</mask>
<g mask="url(#mask0_102_609)">
<path d="M342.999 46.5108H4.00093V47.5111H342.999V46.5108Z" fill="#CAD3DB"/>
</g>
<path d="M32.3938 30.242C31.6657 30.242 31.033 30.132 30.4955 29.912C29.9578 29.6919 29.5345 29.3828 29.2256 28.9848C28.9208 28.5827 28.7494 28.1105 28.7113 27.5694L28.7049 27.4674H30.5526L30.5589 27.5314C30.5843 27.7595 30.6774 27.9605 30.8382 28.1346C31.0034 28.3036 31.2234 28.4366 31.4986 28.5336C31.7738 28.6317 32.089 28.6797 32.4446 28.6797C32.7875 28.6797 33.088 28.6297 33.3462 28.5276C33.6044 28.4266 33.8054 28.2866 33.9494 28.1085C34.0975 27.9265 34.1715 27.7194 34.1715 27.4864V27.4804C34.1715 27.1793 34.0488 26.9383 33.8033 26.7562C33.5621 26.5742 33.1557 26.4241 32.5842 26.3051L31.6192 26.1091C30.6668 25.914 29.9747 25.595 29.543 25.1498C29.1113 24.7057 28.8954 24.1366 28.8954 23.4424V23.4355C28.8954 22.8683 29.0457 22.3732 29.3462 21.9501C29.6468 21.527 30.0595 21.1989 30.5843 20.9659C31.1092 20.7288 31.7102 20.6108 32.3875 20.6108C33.0986 20.6108 33.7081 20.7268 34.216 20.9599C34.7281 21.1879 35.1281 21.504 35.416 21.9061C35.7039 22.3032 35.8668 22.7583 35.9049 23.2704L35.9112 23.3534H34.1081L34.0954 23.2774C34.0573 23.0574 33.9642 22.8643 33.816 22.6993C33.6721 22.5343 33.4774 22.4052 33.2319 22.3122C32.9906 22.2142 32.7092 22.1662 32.3875 22.1662C32.0742 22.1662 31.7991 22.2122 31.5621 22.3052C31.3251 22.3992 31.1409 22.5303 31.0097 22.6993C30.8784 22.8643 30.8128 23.0614 30.8128 23.2894V23.2964C30.8128 23.5925 30.9314 23.8356 31.1684 24.0266C31.4097 24.2126 31.7991 24.3607 32.3367 24.4707L33.3081 24.6677C33.9557 24.7988 34.4827 24.9768 34.889 25.2009C35.2996 25.4249 35.6022 25.707 35.7969 26.0451C35.9916 26.3842 36.089 26.7922 36.089 27.2703V27.2774C36.089 27.8825 35.9387 28.4076 35.6383 28.8517C35.3419 29.2918 34.9165 29.6349 34.3621 29.88C33.8117 30.121 33.1557 30.242 32.3938 30.242ZM37.9049 30.007V20.8449H39.8223V28.4266H43.8985V30.007H37.9049ZM44.9841 30.007L48.1651 20.8449H49.7968V22.6743H49.238L46.9968 30.007H44.9841ZM46.6857 27.7845L47.1555 26.3501H51.3904L51.8602 27.7845H46.6857ZM51.5873 30.007L49.3524 22.6743V20.8449H50.419L53.6062 30.007H51.5873ZM61.7904 30.242C61.0623 30.242 60.4294 30.132 59.8919 29.912C59.3544 29.6919 58.9311 29.3828 58.6221 28.9848C58.3173 28.5827 58.1459 28.1105 58.1078 27.5694L58.1015 27.4674H59.949L59.9554 27.5314C59.9808 27.7595 60.074 27.9605 60.2348 28.1346C60.3998 28.3036 60.62 28.4366 60.895 28.5336C61.1702 28.6317 61.4856 28.6797 61.8411 28.6797C62.1839 28.6797 62.4845 28.6297 62.7427 28.5276C63.0008 28.4266 63.2019 28.2866 63.3458 28.1085C63.494 27.9265 63.5681 27.7194 63.5681 27.4864V27.4804C63.5681 27.1793 63.4453 26.9383 63.1998 26.7562C62.9585 26.5742 62.5522 26.4241 61.9808 26.3051L61.0157 26.1091C60.0634 25.914 59.3713 25.595 58.9396 25.1498C58.5078 24.7057 58.2919 24.1366 58.2919 23.4424V23.4355C58.2919 22.8683 58.4422 22.3732 58.7427 21.9501C59.0432 21.527 59.4559 21.1989 59.9808 20.9659C60.5057 20.7288 61.1067 20.6108 61.784 20.6108C62.495 20.6108 63.1046 20.7268 63.6125 20.9599C64.1247 21.1879 64.5247 21.504 64.8125 21.9061C65.1003 22.3032 65.2633 22.7583 65.3014 23.2704L65.3078 23.3534H63.5046L63.4919 23.2774C63.4537 23.0574 63.3606 22.8643 63.2125 22.6993C63.0686 22.5343 62.8739 22.4052 62.6283 22.3122C62.3871 22.2142 62.1056 22.1662 61.784 22.1662C61.4708 22.1662 61.1956 22.2122 60.9586 22.3052C60.7215 22.3992 60.5374 22.5303 60.4062 22.6993C60.275 22.8643 60.2094 23.0614 60.2094 23.2894V23.2964C60.2094 23.5925 60.3279 23.8356 60.565 24.0266C60.8062 24.2126 61.1956 24.3607 61.7331 24.4707L62.7046 24.6677C63.3522 24.7988 63.8791 24.9768 64.2855 25.2009C64.6961 25.4249 64.9987 25.707 65.1934 26.0451C65.3882 26.3842 65.4855 26.7922 65.4855 27.2703V27.2774C65.4855 27.8825 65.3353 28.4076 65.0347 28.8517C64.7384 29.2918 64.313 29.6349 63.7585 29.88C63.2083 30.121 62.5522 30.242 61.7904 30.242ZM70.0188 30.033C69.1723 30.033 68.5627 29.884 68.1902 29.5879C67.8178 29.2878 67.6315 28.7987 67.6315 28.1215V24.4137H66.5522V23.0164H67.6315V21.347H69.5046V23.0164H70.9458V24.4137H69.5046V27.6965C69.5046 28.0095 69.5744 28.2396 69.714 28.3876C69.8579 28.5316 70.0865 28.6037 70.3998 28.6037C70.5183 28.6037 70.6156 28.6017 70.6918 28.5977C70.7722 28.5887 70.8569 28.5806 70.9458 28.5726V29.95C70.8315 29.971 70.6939 29.99 70.5331 30.007C70.3723 30.024 70.2008 30.033 70.0188 30.033ZM74.3935 30.115C73.9534 30.115 73.5595 30.03 73.2124 29.861C72.8695 29.6879 72.6008 29.4439 72.406 29.1308C72.2114 28.8137 72.114 28.4426 72.114 28.0195V28.0075C72.114 27.5884 72.2177 27.2283 72.4251 26.9283C72.6368 26.6272 72.9437 26.3921 73.3458 26.2231C73.7524 26.0491 74.2455 25.946 74.8246 25.912L77.4282 25.753V26.8833L75.1047 27.0353C74.7066 27.0573 74.4105 27.1413 74.2155 27.2894C74.0204 27.4374 73.9234 27.6384 73.9234 27.8925V27.9055C73.9234 28.1726 74.0254 28.3816 74.2285 28.5336C74.4315 28.6867 74.6936 28.7627 75.0156 28.7627C75.3037 28.7627 75.5598 28.7057 75.7838 28.5917C76.0079 28.4766 76.1859 28.3226 76.3169 28.1276C76.448 27.9285 76.514 27.7064 76.514 27.4614V25.2329C76.514 24.9278 76.412 24.6947 76.2089 24.5337C76.0099 24.3687 75.7208 24.2866 75.3397 24.2866C75.0046 24.2866 74.7316 24.3437 74.5205 24.4577C74.3125 24.5677 74.1734 24.7267 74.1014 24.9338L74.0884 24.9598H72.3743L72.3806 24.9028C72.4314 24.4917 72.586 24.1346 72.8441 23.8296C73.1066 23.5245 73.4579 23.2874 73.8984 23.1184C74.3425 22.9493 74.8566 22.8643 75.4407 22.8643C76.0589 22.8643 76.584 22.9593 77.0151 23.1504C77.4472 23.3364 77.7753 23.6075 77.9993 23.9626C78.2284 24.3137 78.3424 24.7378 78.3424 25.2329V30.007H76.514V29.0798H76.4C76.2809 29.2958 76.1229 29.4819 75.9239 29.6389C75.7288 29.7909 75.4998 29.91 75.2377 29.994C74.9796 30.075 74.6986 30.115 74.3935 30.115ZM83.0595 30.033C82.2133 30.033 81.6042 29.884 81.2311 29.5879C80.859 29.2878 80.673 28.7987 80.673 28.1215V24.4137H79.5937V23.0164H80.673V21.347H82.5454V23.0164H83.9867V24.4137H82.5454V27.6965C82.5454 28.0095 82.6154 28.2396 82.7554 28.3876C82.8995 28.5316 83.1275 28.6037 83.4406 28.6037C83.5596 28.6037 83.6567 28.6017 83.7327 28.5977C83.8137 28.5887 83.8977 28.5806 83.9867 28.5726V29.95C83.8727 29.971 83.7347 29.99 83.5746 30.007C83.4136 30.024 83.2416 30.033 83.0595 30.033ZM88.2467 30.153C87.6126 30.153 87.0705 30.066 86.6213 29.893C86.1772 29.7149 85.8282 29.4718 85.5741 29.1628C85.324 28.8537 85.178 28.5006 85.136 28.1025L85.13 28.0765H86.9524L86.9644 28.1025C87.0404 28.3186 87.1845 28.4956 87.3965 28.6357C87.6126 28.7757 87.9026 28.8457 88.2657 28.8457C88.5028 28.8457 88.7108 28.8137 88.8889 28.7497C89.0659 28.6827 89.2059 28.5917 89.307 28.4766C89.409 28.3626 89.46 28.2296 89.46 28.0765V28.0645C89.46 27.8785 89.384 27.7235 89.231 27.6004C89.0789 27.4784 88.8249 27.3764 88.4698 27.2963L87.3015 27.0483C86.8564 26.9553 86.4863 26.8202 86.1902 26.6422C85.8942 26.4602 85.6711 26.2381 85.5231 25.9751C85.3791 25.713 85.307 25.4079 85.307 25.0608V25.0548C85.307 24.6147 85.4281 24.2316 85.6691 23.9056C85.9152 23.5755 86.2553 23.3194 86.6914 23.1374C87.1315 22.9553 87.6416 22.8643 88.2217 22.8643C88.8309 22.8643 89.35 22.9574 89.7771 23.1434C90.2052 23.3254 90.5333 23.5715 90.7613 23.8806C90.9944 24.1846 91.1234 24.5257 91.1484 24.9028V24.9278H89.428L89.422 24.8958C89.371 24.7057 89.244 24.5387 89.0409 24.3947C88.8379 24.2466 88.5628 24.1726 88.2157 24.1726C88.0037 24.1726 87.8156 24.2036 87.6506 24.2677C87.4855 24.3307 87.3545 24.4197 87.2565 24.5337C87.1635 24.6487 87.1175 24.7838 87.1175 24.9408V24.9468C87.1175 25.0698 87.1485 25.1779 87.2125 25.2709C87.2755 25.3639 87.3795 25.4439 87.5236 25.5119C87.6676 25.5799 87.8596 25.641 88.1007 25.696L89.263 25.944C89.9611 26.0961 90.4782 26.3241 90.8123 26.6292C91.1464 26.9343 91.3134 27.3444 91.3134 27.8615V27.8675C91.3134 28.3286 91.1824 28.7307 90.9203 29.0738C90.6573 29.4168 90.2962 29.6829 89.8341 29.874C89.373 30.06 88.8439 30.153 88.2467 30.153Z" fill="#454F5B"/>
<path d="M31.965 91.0212V83.2694H36.9075V84.4347H33.351V86.7292H36.6013V87.8575H33.351V91.0212H31.965ZM38.3205 91.0212V85.1499H39.6528V91.0212H38.3205ZM38.992 84.1666C38.7736 84.1666 38.5855 84.0896 38.4279 83.9356C38.2703 83.7815 38.1915 83.5965 38.1915 83.3814C38.1915 83.1594 38.2703 82.9733 38.4279 82.8233C38.5855 82.6693 38.7736 82.5923 38.992 82.5923C39.2105 82.5923 39.3967 82.6693 39.5507 82.8233C39.7083 82.9733 39.7871 83.1594 39.7871 83.3814C39.7871 83.5965 39.7083 83.7815 39.5507 83.9356C39.3967 84.0896 39.2105 84.1666 38.992 84.1666ZM41.3022 91.0212V85.1499H42.6399V86.0521H42.7312C42.8314 85.737 43.0106 85.4909 43.2684 85.3159C43.5299 85.1408 43.8539 85.0528 44.2407 85.0528C44.3411 85.0528 44.4396 85.0598 44.5363 85.0738C44.6365 85.0848 44.719 85.0988 44.7834 85.1168V86.3151C44.6759 86.2901 44.5667 86.2721 44.4557 86.2611C44.3483 86.2471 44.2354 86.2401 44.1172 86.2401C43.8199 86.2401 43.5603 86.2951 43.3382 86.4061C43.1162 86.5172 42.9442 86.6772 42.8225 86.8842C42.7007 87.0883 42.6399 87.3304 42.6399 87.6094V91.0212H41.3022ZM47.9584 91.1392C47.4606 91.1392 47.0308 91.0692 46.6691 90.9302C46.3109 90.7872 46.028 90.5901 45.8202 90.3391C45.6126 90.085 45.4889 89.791 45.4495 89.4579V89.4468H46.7765L46.7819 89.4579C46.8536 89.6619 46.9879 89.829 47.1848 89.958C47.3818 90.087 47.6468 90.151 47.9799 90.151C48.202 90.151 48.3972 90.121 48.5655 90.06C48.7339 89.995 48.8664 89.908 48.963 89.7969C49.0598 89.6859 49.1082 89.5569 49.1082 89.4098V89.3988C49.1082 89.2268 49.0383 89.0838 48.8986 88.9687C48.7589 88.8507 48.5279 88.7557 48.2056 88.6847L47.2546 88.4696C46.8822 88.3876 46.5742 88.2726 46.3306 88.1255C46.0871 87.9785 45.9044 87.7975 45.7826 87.5834C45.6645 87.3684 45.6054 87.1173 45.6054 86.8313V86.8252C45.6054 86.4712 45.7039 86.1591 45.9008 85.891C46.1014 85.622 46.3789 85.4129 46.7335 85.2619C47.0881 85.1119 47.4964 85.0368 47.9584 85.0368C48.4348 85.0368 48.8449 85.1078 49.1887 85.2519C49.5326 85.3949 49.8011 85.592 49.9946 85.842C50.1879 86.0931 50.299 86.3781 50.3277 86.6962V86.7072H49.0706L49.0652 86.6912C49.0151 86.5052 48.895 86.3471 48.7052 86.2181C48.5189 86.0861 48.2683 86.0201 47.9531 86.0201C47.7561 86.0201 47.5788 86.0501 47.4212 86.1111C47.2672 86.1721 47.1454 86.2581 47.0559 86.3691C46.97 86.4762 46.927 86.6032 46.927 86.7502V86.7552C46.927 86.8702 46.9556 86.9703 47.0129 87.0563C47.0738 87.1423 47.1687 87.2173 47.2977 87.2823C47.4266 87.3463 47.5967 87.4043 47.8081 87.4544L48.7589 87.6635C49.3355 87.7925 49.7617 87.9845 50.0376 88.2386C50.3134 88.4927 50.4512 88.8347 50.4512 89.2648V89.2758C50.4512 89.6479 50.3438 89.974 50.1289 90.253C49.914 90.5321 49.6185 90.7511 49.2424 90.9082C48.8664 91.0622 48.4384 91.1392 47.9584 91.1392ZM54.0775 91.0482C53.4042 91.0482 52.919 90.9242 52.6216 90.6772C52.3243 90.4301 52.1757 90.026 52.1757 89.4639V86.1861H51.2625V85.1499H52.1757V83.7095H53.5349V85.1499H54.7706V86.1861H53.5349V89.1468C53.5349 89.4368 53.5958 89.6499 53.7176 89.786C53.843 89.918 54.0435 89.985 54.3193 89.985C54.416 89.985 54.4948 89.983 54.5556 89.979C54.6202 89.972 54.6918 89.965 54.7706 89.958V90.9892C54.6775 91.0072 54.57 91.0212 54.4482 91.0322C54.3301 91.0432 54.2065 91.0482 54.0775 91.0482ZM59.1813 91.0212V83.2694H62.3134C62.8685 83.2694 63.3449 83.3674 63.7424 83.5645C64.14 83.7615 64.4444 84.0396 64.6557 84.3977C64.8671 84.7558 64.9727 85.1818 64.9727 85.676V85.687C64.9727 86.1991 64.8437 86.6532 64.5859 87.0513C64.3315 87.4454 63.9752 87.7245 63.5167 87.8895L65.209 91.0212H63.6296L62.1038 88.1045C62.0967 88.1045 62.0859 88.1045 62.0716 88.1045C62.0573 88.1045 62.0447 88.1045 62.034 88.1045H60.5673V91.0212H59.1813ZM60.5673 87.0403H62.1683C62.6088 87.0403 62.9509 86.9243 63.1945 86.6912C63.438 86.4582 63.5597 86.1341 63.5597 85.719V85.708C63.5597 85.3029 63.4326 84.9828 63.1783 84.7468C62.9276 84.5067 62.582 84.3867 62.1414 84.3867H60.5673V87.0403ZM68.8515 91.1392C68.2677 91.1392 67.7663 91.0162 67.3472 90.7692C66.9318 90.5221 66.6113 90.171 66.3856 89.7159C66.16 89.2608 66.0471 88.7217 66.0471 88.0986V88.0935C66.0471 87.4774 66.1581 86.9403 66.3802 86.4821C66.6059 86.023 66.9246 85.669 67.3365 85.4179C67.7484 85.1638 68.2319 85.0368 68.7871 85.0368C69.3458 85.0368 69.8257 85.1599 70.2268 85.4069C70.6315 85.651 70.9432 85.9931 71.1616 86.4332C71.3801 86.8743 71.4893 87.3893 71.4893 87.9805V88.4216H66.7187V87.5244H70.8339L70.2 88.3616V87.8305C70.2 87.4394 70.1409 87.1153 70.0227 86.8582C69.9045 86.6002 69.7397 86.4061 69.5284 86.2771C69.3207 86.1491 69.0789 86.0841 68.8032 86.0841C68.5274 86.0841 68.282 86.1521 68.0671 86.2881C67.8558 86.4212 67.6875 86.6182 67.5622 86.8792C67.4404 87.1373 67.3794 87.4544 67.3794 87.8305V88.3676C67.3794 88.7287 67.4404 89.0388 67.5622 89.2968C67.6839 89.5509 67.8558 89.7479 68.0779 89.888C68.3036 90.024 68.5703 90.092 68.8784 90.092C69.1183 90.092 69.3243 90.058 69.4962 89.99C69.6717 89.918 69.8132 89.834 69.9206 89.7369C70.0281 89.6369 70.1033 89.5419 70.1463 89.4529L70.1624 89.4148H71.4302L71.4195 89.4639C71.373 89.6529 71.287 89.847 71.1616 90.044C71.0398 90.2371 70.8733 90.4181 70.662 90.5861C70.4543 90.7512 70.2 90.8852 69.8991 90.9892C69.5983 91.0893 69.2491 91.1392 68.8515 91.1392ZM75.0456 91.1392C74.5475 91.1392 74.1184 91.0692 73.7563 90.9302C73.3983 90.7872 73.1154 90.5901 72.9076 90.3391C72.6999 90.085 72.5763 89.791 72.5369 89.4579V89.4468H73.8643L73.8694 89.4579C73.9414 89.6619 74.0754 89.829 74.2724 89.958C74.4695 90.087 74.7346 90.151 75.0676 90.151C75.2897 90.151 75.4847 90.121 75.6528 90.06C75.8208 89.995 75.9538 89.908 76.0509 89.7969C76.1469 89.6859 76.1959 89.5569 76.1959 89.4098V89.3988C76.1959 89.2268 76.1259 89.0838 75.9858 88.9687C75.8458 88.8507 75.6158 88.7557 75.2927 88.6847L74.3425 88.4696C73.9694 88.3876 73.6615 88.2726 73.418 88.1255C73.1745 87.9785 72.9917 87.7975 72.87 87.5834C72.7518 87.3684 72.6928 87.1173 72.6928 86.8313V86.8252C72.6928 86.4712 72.7912 86.1591 72.9882 85.891C73.1888 85.622 73.4664 85.4129 73.8213 85.2619C74.1754 85.1119 74.5835 85.0368 75.0456 85.0368C75.5217 85.0368 75.9318 85.1078 76.2759 85.2519C76.62 85.3949 76.8881 85.592 77.0821 85.842C77.2751 86.0931 77.3862 86.3781 77.4152 86.6962V86.7072H76.1579L76.1529 86.6912C76.1029 86.5052 75.9828 86.3471 75.7928 86.2181C75.6068 86.0861 75.3557 86.0201 75.0406 86.0201C74.8436 86.0201 74.6665 86.0501 74.5085 86.1111C74.3545 86.1721 74.2324 86.2581 74.1434 86.3691C74.0574 86.4762 74.0144 86.6032 74.0144 86.7502V86.7552C74.0144 86.8702 74.0434 86.9703 74.1004 87.0563C74.1614 87.1423 74.2564 87.2173 74.3855 87.2823C74.5135 87.3463 74.6845 87.4043 74.8956 87.4544L75.8458 87.6635C76.4229 87.7925 76.849 87.9845 77.1251 88.2386C77.4012 88.4927 77.5382 88.8347 77.5382 89.2648V89.2758C77.5382 89.6479 77.4312 89.974 77.2161 90.253C77.0011 90.5321 76.706 90.7511 76.3299 90.9082C75.9538 91.0622 75.5257 91.1392 75.0456 91.1392ZM78.8875 92.9717V85.1499H80.2248V86.0681H80.3159C80.4239 85.857 80.5629 85.676 80.735 85.5259C80.911 85.3749 81.113 85.2589 81.3421 85.1758C81.5711 85.0938 81.8242 85.0528 82.0993 85.0528C82.5904 85.0528 83.0145 85.1759 83.3726 85.4229C83.7347 85.671 84.0137 86.0211 84.2108 86.4762C84.4118 86.9273 84.5118 87.4634 84.5118 88.0826V88.0935C84.5118 88.7167 84.4138 89.2538 84.2168 89.7049C84.0197 90.156 83.7397 90.5061 83.3786 90.7532C83.0205 90.9962 82.5944 91.1182 82.0993 91.1182C81.8312 91.1182 81.5802 91.0772 81.3471 90.9942C81.115 90.9082 80.911 90.7882 80.735 90.6341C80.5599 90.4801 80.4199 90.298 80.3159 90.087H80.2248V92.9717H78.8875ZM81.6802 89.99C81.9852 89.99 82.2463 89.915 82.4654 89.7639C82.6834 89.6099 82.8514 89.3919 82.9705 89.1088C83.0885 88.8227 83.1475 88.4836 83.1475 88.0935V88.0826C83.1475 87.6855 83.0885 87.3454 82.9705 87.0623C82.8514 86.7792 82.6834 86.5622 82.4654 86.4122C82.2463 86.2581 81.9852 86.1811 81.6802 86.1811C81.3761 86.1811 81.113 86.2581 80.891 86.4122C80.6729 86.5622 80.5019 86.7792 80.3809 87.0623C80.2628 87.3454 80.2028 87.6835 80.2028 88.0775V88.0885C80.2028 88.4816 80.2628 88.8227 80.3809 89.1088C80.5019 89.3919 80.6739 89.6099 80.896 89.7639C81.118 89.915 81.3801 89.99 81.6802 89.99ZM88.3957 91.1392C87.8126 91.1392 87.3095 91.0182 86.8864 90.7742C86.4643 90.5271 86.1382 90.176 85.9092 89.7209C85.6831 89.2668 85.5701 88.7217 85.5701 88.0885V88.0775C85.5701 87.4504 85.6851 86.9093 85.9142 86.4552C86.1432 85.9961 86.4673 85.645 86.8864 85.4019C87.3095 85.1579 87.8126 85.0368 88.3957 85.0368C88.9799 85.0368 89.481 85.1579 89.9001 85.4019C90.3232 85.645 90.6493 85.995 90.8783 86.4491C91.1074 86.9043 91.2224 87.4474 91.2224 88.0775V88.0885C91.2224 88.7217 91.1074 89.2668 90.8783 89.7209C90.6523 90.176 90.3282 90.5271 89.9061 90.7742C89.487 91.0182 88.9839 91.1392 88.3957 91.1392ZM88.3957 90.054C88.7038 90.054 88.9659 89.977 89.1809 89.823C89.399 89.6659 89.565 89.4418 89.68 89.1518C89.7951 88.8577 89.8521 88.5056 89.8521 88.0935V88.0826C89.8521 87.6675 89.7951 87.3143 89.68 87.0243C89.565 86.7302 89.399 86.5072 89.1809 86.3531C88.9659 86.1951 88.7038 86.1161 88.3957 86.1161C88.0877 86.1161 87.8246 86.1951 87.6066 86.3531C87.3875 86.5072 87.2215 86.7302 87.1064 87.0243C86.9924 87.3143 86.9344 87.6675 86.9344 88.0826V88.0935C86.9344 88.5056 86.9924 88.8577 87.1064 89.1518C87.2215 89.4458 87.3865 89.6689 87.6006 89.823C87.8196 89.977 88.0847 90.054 88.3957 90.054ZM92.5647 91.0212V85.1499H93.903V86.0521H93.994C94.1341 85.733 94.3451 85.4839 94.6282 85.3049C94.9113 85.1259 95.2633 85.0368 95.6864 85.0368C96.3416 85.0368 96.8437 85.2269 97.1908 85.606C97.5379 85.9861 97.7119 86.5252 97.7119 87.2233V91.0212H96.3736V87.5344C96.3736 87.0763 96.2776 86.7322 96.0835 86.5032C95.8945 86.2741 95.5964 86.1591 95.1923 86.1591C94.9273 86.1591 94.6982 86.2181 94.5042 86.3371C94.3111 86.4552 94.1621 86.6212 94.0581 86.8362C93.955 87.0513 93.903 87.3053 93.903 87.5994V91.0212H92.5647ZM101.51 91.1392C101.012 91.1392 100.583 91.0692 100.221 90.9302C99.8624 90.7872 99.5793 90.5901 99.3723 90.3391C99.1642 90.085 99.0402 89.791 99.0012 89.4579V89.4468H100.329L100.334 89.4579C100.406 89.6619 100.54 89.829 100.737 89.958C100.934 90.087 101.199 90.151 101.532 90.151C101.754 90.151 101.949 90.121 102.117 90.06C102.285 89.995 102.418 89.908 102.515 89.7969C102.611 89.6859 102.66 89.5569 102.66 89.4098V89.3988C102.66 89.2268 102.59 89.0838 102.45 88.9687C102.31 88.8507 102.08 88.7557 101.757 88.6847L100.807 88.4696C100.434 88.3876 100.125 88.2726 99.8824 88.1255C99.6384 87.9785 99.4563 87.7975 99.3343 87.5834C99.2163 87.3684 99.1573 87.1173 99.1573 86.8313V86.8252C99.1573 86.4712 99.2553 86.1591 99.4523 85.891C99.6534 85.622 99.9304 85.4129 100.286 85.2619C100.64 85.1119 101.048 85.0368 101.51 85.0368C101.986 85.0368 102.396 85.1078 102.74 85.2519C103.084 85.3949 103.352 85.592 103.546 85.842C103.739 86.0931 103.85 86.3781 103.879 86.6962V86.7072H102.622L102.617 86.6912C102.567 86.5052 102.447 86.3471 102.257 86.2181C102.071 86.0861 101.82 86.0201 101.505 86.0201C101.308 86.0201 101.131 86.0501 100.973 86.1111C100.819 86.1721 100.697 86.2581 100.608 86.3691C100.522 86.4762 100.479 86.6032 100.479 86.7502V86.7552C100.479 86.8702 100.508 86.9703 100.565 87.0563C100.626 87.1423 100.721 87.2173 100.85 87.2823C100.978 87.3463 101.149 87.4043 101.36 87.4544L102.31 87.6635C102.887 87.7925 103.313 87.9845 103.589 88.2386C103.865 88.4927 104.002 88.8347 104.002 89.2648V89.2758C104.002 89.6479 103.895 89.974 103.68 90.253C103.465 90.5321 103.17 90.7511 102.794 90.9082C102.418 91.0622 101.99 91.1392 101.51 91.1392ZM107.865 91.1392C107.282 91.1392 106.78 91.0162 106.361 90.7692C105.946 90.5221 105.625 90.171 105.4 89.7159C105.174 89.2608 105.061 88.7217 105.061 88.0986V88.0935C105.061 87.4774 105.172 86.9403 105.395 86.4821C105.62 86.023 105.939 85.669 106.351 85.4179C106.762 85.1638 107.246 85.0368 107.801 85.0368C108.359 85.0368 108.84 85.1599 109.241 85.4069C109.646 85.651 109.957 85.9931 110.176 86.4332C110.394 86.8743 110.503 87.3893 110.503 87.9805V88.4216H105.733V87.5244H109.848L109.214 88.3616V87.8305C109.214 87.4394 109.155 87.1153 109.037 86.8582C108.919 86.6002 108.753 86.4061 108.542 86.2771C108.334 86.1491 108.093 86.0841 107.817 86.0841C107.541 86.0841 107.296 86.1521 107.081 86.2881C106.87 86.4212 106.701 86.6182 106.576 86.8792C106.454 87.1373 106.394 87.4544 106.394 87.8305V88.3676C106.394 88.7287 106.454 89.0388 106.576 89.2968C106.698 89.5509 106.87 89.7479 107.092 89.888C107.317 90.024 107.584 90.092 107.892 90.092C108.132 90.092 108.338 90.058 108.51 89.99C108.685 89.918 108.827 89.834 108.935 89.7369C109.042 89.6369 109.118 89.5419 109.161 89.4529L109.177 89.4148H110.444L110.434 89.4639C110.387 89.6529 110.301 89.847 110.176 90.044C110.054 90.2371 109.888 90.4181 109.676 90.5861C109.469 90.7512 109.214 90.8852 108.914 90.9892C108.612 91.0893 108.263 91.1392 107.865 91.1392ZM43.9453 107.025L41.8662 99.2732H43.306L44.6383 105.092H44.7135L46.2447 99.2732H47.4749L49.0222 105.092H49.0974L50.4244 99.2732H51.8534L49.7796 107.025H48.4795L46.9001 101.476H46.8195L45.2508 107.025H43.9453ZM53.1642 107.025V101.154H54.4966V107.025H53.1642ZM53.8358 100.17C53.6173 100.17 53.4293 100.093 53.2717 99.9393C53.1141 99.7853 53.0353 99.6002 53.0353 99.3852C53.0353 99.1631 53.1141 98.9771 53.2717 98.8271C53.4293 98.673 53.6173 98.596 53.8358 98.596C54.0542 98.596 54.2405 98.673 54.3945 98.8271C54.5521 98.9771 54.6309 99.1631 54.6309 99.3852C54.6309 99.6002 54.5521 99.7853 54.3945 99.9393C54.2405 100.093 54.0542 100.17 53.8358 100.17ZM58.4561 107.052C57.7827 107.052 57.2974 106.928 57.0001 106.681C56.7028 106.434 56.5542 106.03 56.5542 105.468V102.19H55.6409V101.154H56.5542V99.7133H57.9134V101.154H59.149V102.19H57.9134V105.151C57.9134 105.441 57.9742 105.654 58.0961 105.79C58.2214 105.922 58.4219 105.989 58.6978 105.989C58.7944 105.989 58.8733 105.987 58.9342 105.983C58.9986 105.976 59.0703 105.969 59.149 105.962V106.993C59.0559 107.011 58.9485 107.025 58.8267 107.036C58.7085 107.047 58.585 107.052 58.4561 107.052ZM60.5404 107.025V98.881H61.8782V102.056H61.9696C62.1092 101.737 62.3206 101.488 62.6034 101.309C62.8864 101.13 63.2392 101.041 63.6618 101.041C64.0988 101.041 64.4677 101.127 64.7685 101.299C65.0694 101.467 65.2968 101.714 65.4508 102.04C65.6084 102.366 65.6872 102.761 65.6872 103.227V107.025H64.3494V103.538C64.3494 103.08 64.2528 102.736 64.0594 102.507C63.8695 102.278 63.5722 102.163 63.1676 102.163C62.9025 102.163 62.6733 102.222 62.4799 102.341C62.2864 102.459 62.1378 102.625 62.034 102.84C61.9302 103.055 61.8782 103.309 61.8782 103.603V107.025H60.5404ZM67.2828 107.025V101.154H68.6151V107.025H67.2828ZM67.9544 100.17C67.7358 100.17 67.5478 100.093 67.3902 99.9393C67.2326 99.7853 67.1539 99.6002 67.1539 99.3852C67.1539 99.1631 67.2326 98.9771 67.3902 98.8271C67.5478 98.673 67.7358 98.596 67.9544 98.596C68.1728 98.596 68.3591 98.673 68.513 98.8271C68.6706 98.9771 68.7495 99.1631 68.7495 99.3852C68.7495 99.6002 68.6706 99.7853 68.513 99.9393C68.3591 100.093 68.1728 100.17 67.9544 100.17ZM70.2644 107.025V101.154H71.6021V102.056H71.6934C71.8332 101.737 72.0444 101.488 72.3274 101.309C72.6104 101.13 72.9631 101.041 73.3857 101.041C74.0414 101.041 74.5425 101.231 74.8896 101.61C75.2377 101.99 75.4107 102.529 75.4107 103.227V107.025H74.0734V103.538C74.0734 103.08 73.9764 102.736 73.7833 102.507C73.5935 102.278 73.2962 102.163 72.8915 102.163C72.6265 102.163 72.3972 102.222 72.2039 102.341C72.0104 102.459 71.8618 102.625 71.758 102.84C71.654 103.055 71.6021 103.309 71.6021 103.603V107.025H70.2644ZM82.7554 107.218C82.1533 107.218 81.6302 107.125 81.1861 106.939C80.746 106.753 80.3989 106.493 80.1438 106.16C79.8897 105.827 79.7467 105.439 79.7147 104.994L79.7087 104.919H81.052L81.057 104.972C81.079 105.192 81.1651 105.382 81.3151 105.543C81.4691 105.704 81.6732 105.831 81.9282 105.924C82.1823 106.014 82.4724 106.058 82.7984 106.058C83.1095 106.058 83.3856 106.01 83.6256 105.913C83.8657 105.817 84.0537 105.684 84.1898 105.516C84.3258 105.344 84.3938 105.146 84.3938 104.924V104.919C84.3938 104.639 84.2848 104.412 84.0657 104.237C83.8477 104.057 83.4876 103.914 82.9865 103.807L82.1533 103.635C81.3581 103.467 80.78 103.198 80.4179 102.829C80.0598 102.457 79.8807 101.982 79.8807 101.406V101.401C79.8807 100.939 80.0028 100.533 80.2458 100.186C80.4929 99.8383 80.832 99.5682 81.2621 99.3752C81.6952 99.1781 82.1913 99.0791 82.7494 99.0791C83.3226 99.0791 83.8187 99.1761 84.2378 99.3692C84.6569 99.5592 84.9869 99.8193 85.226 100.148C85.4661 100.478 85.6011 100.851 85.6291 101.266L85.6351 101.336H84.3128L84.3028 101.272C84.2698 101.068 84.1858 100.89 84.0497 100.739C83.9177 100.585 83.7397 100.463 83.5176 100.374C83.2955 100.284 83.0365 100.239 82.7394 100.239C82.4564 100.239 82.2033 100.284 81.9812 100.374C81.7592 100.46 81.5842 100.581 81.4551 100.739C81.3301 100.898 81.2671 101.087 81.2671 101.309V101.315C81.2671 101.587 81.3731 101.812 81.5841 101.991C81.7992 102.17 82.1483 102.31 82.6314 102.41L83.4646 102.588C84.0087 102.702 84.4508 102.854 84.7909 103.044C85.132 103.234 85.38 103.47 85.5381 103.753C85.6991 104.032 85.7801 104.369 85.7801 104.763V104.768C85.7801 105.271 85.6561 105.704 85.409 106.069C85.166 106.434 84.8159 106.717 84.3618 106.918C83.9107 107.118 83.3746 107.218 82.7554 107.218ZM87.3375 107.025V99.2732H88.7238V105.86H92.2746V107.025H87.3375ZM93.1989 107.025L95.9495 99.2732H97.0998V100.712H96.6857L94.6492 107.025H93.1989ZM94.5852 105.022L94.9453 103.952H98.5011L98.8612 105.022H94.5852ZM98.8132 107.025L96.7767 100.712V99.2732H97.5079L100.264 107.025H98.8132Z" fill="#454F5B"/>
<path d="M107.025 163.038C107.025 182.925 90.9033 199.046 71.0166 199.046C51.1296 199.046 35.0082 182.925 35.0082 163.038C35.0082 143.151 51.1296 127.03 71.0166 127.03C90.9033 127.03 107.025 143.151 107.025 163.038ZM38.609 163.038C38.609 180.936 53.1184 195.446 71.0166 195.446C88.9148 195.446 103.424 180.936 103.424 163.038C103.424 145.14 88.9148 130.63 71.0166 130.63C53.1184 130.63 38.609 145.14 38.609 163.038Z" fill="#F4F6F8"/>
<path opacity="0.8" d="M71.0166 128.83C71.0166 127.836 71.8233 127.025 72.8164 127.075C79.7848 127.424 86.5163 129.79 92.1817 133.907C98.3341 138.376 102.913 144.679 105.263 151.911C107.612 159.143 107.612 166.933 105.263 174.166C102.913 181.397 98.3341 187.7 92.1817 192.17C86.0302 196.639 78.6205 199.046 71.0166 199.046C63.4123 199.046 56.0033 196.639 49.8514 192.17C43.6994 187.7 39.1204 181.397 36.7705 174.166C34.6065 167.505 34.4354 160.371 36.2572 153.637C36.5168 152.677 37.5372 152.16 38.4828 152.468C39.4285 152.775 39.9409 153.789 39.6866 154.751C38.0966 160.76 38.2662 167.116 40.1951 173.052C42.31 179.562 46.4312 185.234 51.9679 189.256C57.5047 193.279 64.1728 195.446 71.0166 195.446C77.8603 195.446 84.5289 193.279 90.0652 189.256C95.6025 185.234 99.7234 179.562 101.838 173.052C103.952 166.544 103.952 159.532 101.838 153.024C99.7234 146.515 95.6025 140.843 90.0652 136.82C85.015 133.151 79.0236 131.026 72.8161 130.68C71.8234 130.625 71.0166 129.824 71.0166 128.83Z" fill="#189F3F"/>
<path d="M58.0058 169.289C57.0993 169.289 56.3022 169.151 55.6145 168.875C54.9269 168.594 54.3903 168.206 54.0049 167.711C53.6193 167.211 53.4265 166.635 53.4265 165.984V165.969C53.4265 165.479 53.5385 165.036 53.7626 164.64C53.9918 164.244 54.3043 163.916 54.7003 163.655C55.0962 163.39 55.5494 163.207 56.06 163.108V163.062C55.3984 162.9 54.8618 162.598 54.4503 162.155C54.0439 161.707 53.8407 161.176 53.8407 160.561V160.545C53.8407 159.962 54.0179 159.443 54.372 158.99C54.7263 158.532 55.216 158.173 55.8412 157.912C56.4663 157.647 57.1879 157.514 58.0058 157.514C58.8237 157.514 59.5452 157.647 60.1703 157.912C60.7954 158.173 61.2852 158.532 61.6394 158.99C61.9936 159.443 62.1708 159.962 62.1708 160.545V160.561C62.1708 161.176 61.965 161.707 61.5534 162.155C61.1419 162.598 60.6079 162.9 59.9515 163.062V163.108C60.4621 163.207 60.9153 163.39 61.3113 163.655C61.7072 163.916 62.0171 164.244 62.2411 164.64C62.4703 165.036 62.585 165.479 62.585 165.969V165.984C62.585 166.635 62.3922 167.211 62.0067 167.711C61.6211 168.206 61.082 168.594 60.3891 168.875C59.7015 169.151 58.907 169.289 58.0058 169.289ZM58.0058 167.57C58.4173 167.57 58.782 167.497 59.0997 167.352C59.4175 167.201 59.665 166.995 59.8421 166.734C60.0245 166.469 60.1156 166.167 60.1156 165.828V165.813C60.1156 165.474 60.0271 165.175 59.8499 164.913C59.6728 164.648 59.4253 164.439 59.1076 164.288C58.7898 164.137 58.4225 164.062 58.0058 164.062C57.589 164.062 57.2217 164.137 56.9039 164.288C56.5862 164.439 56.3361 164.648 56.1538 164.913C55.9766 165.175 55.8881 165.474 55.8881 165.813V165.828C55.8881 166.167 55.9792 166.469 56.1616 166.734C56.3439 166.995 56.594 167.201 56.9117 167.352C57.2295 167.497 57.5942 167.57 58.0058 167.57ZM58.0058 162.351C58.3652 162.351 58.683 162.286 58.9591 162.155C59.2352 162.02 59.4488 161.835 59.5999 161.601C59.7562 161.366 59.8343 161.095 59.8343 160.788V160.772C59.8343 160.464 59.7562 160.193 59.5999 159.959C59.4436 159.725 59.2274 159.542 58.9513 159.412C58.6803 159.282 58.3652 159.217 58.0058 159.217C57.6463 159.217 57.3285 159.282 57.0524 159.412C56.7763 159.542 56.5602 159.725 56.4038 159.959C56.2475 160.193 56.1694 160.464 56.1694 160.772V160.788C56.1694 161.095 56.2475 161.366 56.4038 161.601C56.5602 161.835 56.7763 162.02 57.0524 162.155C57.3285 162.286 57.6463 162.351 58.0058 162.351ZM68.9615 169.328C68.0341 169.328 67.2344 169.089 66.5625 168.609C65.8956 168.125 65.3825 167.44 65.023 166.555C64.6635 165.669 64.4838 164.619 64.4838 163.405V163.39C64.4838 162.171 64.6635 161.121 65.023 160.24C65.3825 159.355 65.8956 158.673 66.5625 158.193C67.2344 157.714 68.0341 157.475 68.9615 157.475C69.894 157.475 70.6937 157.714 71.3604 158.193C72.0273 158.673 72.5404 159.355 72.8999 160.24C73.2594 161.121 73.4391 162.171 73.4391 163.39V163.405C73.4391 164.619 73.2594 165.669 72.8999 166.555C72.5404 167.44 72.0273 168.125 71.3604 168.609C70.6937 169.089 69.894 169.328 68.9615 169.328ZM68.9615 167.461C69.4095 167.461 69.7871 167.3 70.0945 166.977C70.4071 166.654 70.6441 166.19 70.8056 165.586C70.9723 164.981 71.0556 164.254 71.0556 163.405V163.39C71.0556 162.536 70.9723 161.809 70.8056 161.21C70.6441 160.605 70.4071 160.144 70.0945 159.826C69.7871 159.503 69.4095 159.342 68.9615 159.342C68.5186 159.342 68.141 159.503 67.8284 159.826C67.521 160.144 67.284 160.605 67.1172 161.21C66.9558 161.809 66.875 162.536 66.875 163.39V163.405C66.875 164.254 66.9558 164.981 67.1172 165.586C67.284 166.19 67.521 166.654 67.8284 166.977C68.141 167.3 68.5186 167.461 68.9615 167.461ZM78.1044 163.944C77.5573 163.944 77.0831 163.817 76.682 163.562C76.286 163.301 75.9789 162.934 75.7598 162.46C75.5468 161.981 75.4398 161.418 75.4398 160.772V160.764C75.4398 160.107 75.5468 159.545 75.7598 159.076C75.9789 158.602 76.286 158.238 76.682 157.982C77.0831 157.727 77.5573 157.6 78.1044 157.6C78.6565 157.6 79.1306 157.727 79.5267 157.982C79.9278 158.238 80.2349 158.602 80.4489 159.076C80.662 159.545 80.769 160.107 80.769 160.764V160.772C80.769 161.418 80.662 161.981 80.4489 162.46C80.2349 162.934 79.9278 163.301 79.5267 163.562C79.1306 163.817 78.6565 163.944 78.1044 163.944ZM78.1044 162.694C78.4485 162.694 78.7115 162.528 78.8936 162.194C79.0806 161.861 79.1746 161.387 79.1746 160.772V160.764C79.1746 160.144 79.0806 159.67 78.8936 159.342C78.7115 159.014 78.4485 158.85 78.1044 158.85C77.7653 158.85 77.5022 159.014 77.3152 159.342C77.1322 159.67 77.0411 160.144 77.0411 160.764V160.772C77.0411 161.387 77.1322 161.861 77.3152 162.194C77.5022 162.528 77.7653 162.694 78.1044 162.694ZM79.8388 169.039H78.0334L85.6211 157.764H87.4266L79.8388 169.039ZM87.3485 169.203C86.8014 169.203 86.3273 169.076 85.9262 168.82C85.5301 168.56 85.223 168.193 85.004 167.719C84.7909 167.245 84.6839 166.682 84.6839 166.031V166.024C84.6839 165.367 84.7909 164.804 85.004 164.335C85.223 163.861 85.5301 163.496 85.9262 163.241C86.3273 162.986 86.8014 162.858 87.3485 162.858C87.9007 162.858 88.3748 162.986 88.7709 163.241C89.172 163.496 89.479 163.861 89.6931 164.335C89.9061 164.804 90.0132 165.367 90.0132 166.024V166.031C90.0132 166.682 89.9061 167.245 89.6931 167.719C89.479 168.193 89.172 168.56 88.7709 168.82C88.3748 169.076 87.9007 169.203 87.3485 169.203ZM87.3485 167.953C87.6926 167.953 87.9557 167.787 88.1377 167.453C88.3258 167.12 88.4188 166.646 88.4188 166.031V166.024C88.4188 165.404 88.3258 164.929 88.1377 164.601C87.9557 164.273 87.6926 164.108 87.3485 164.108C87.0095 164.108 86.7464 164.273 86.5594 164.601C86.3773 164.929 86.2853 165.404 86.2853 166.024V166.031C86.2853 166.646 86.3773 167.12 86.5594 167.453C86.7464 167.787 87.0095 167.953 87.3485 167.953Z" fill="#212B36"/>
<path d="M145.896 91.0212V83.2694H149.029C149.584 83.2694 150.06 83.3674 150.457 83.5645C150.855 83.7615 151.159 84.0396 151.37 84.3977C151.582 84.7558 151.687 85.1818 151.687 85.676V85.687C151.687 86.1991 151.558 86.6532 151.3 87.0513C151.046 87.4454 150.69 87.7245 150.232 87.8895L151.925 91.0212H150.344L148.819 88.1045C148.812 88.1045 148.801 88.1045 148.787 88.1045C148.773 88.1045 148.76 88.1045 148.749 88.1045H147.282V91.0212H145.896ZM147.282 87.0403H148.884C149.324 87.0403 149.666 86.9243 149.909 86.6912C150.153 86.4582 150.275 86.1341 150.275 85.719V85.708C150.275 85.3029 150.148 84.9828 149.893 84.7468C149.643 84.5067 149.297 84.3867 148.857 84.3867H147.282V87.0403ZM155.566 91.1392C154.982 91.1392 154.481 91.0162 154.062 90.7692C153.647 90.5221 153.326 90.171 153.101 89.7159C152.875 89.2608 152.762 88.7217 152.762 88.0986V88.0935C152.762 87.4774 152.873 86.9403 153.095 86.4821C153.321 86.023 153.64 85.669 154.051 85.4179C154.463 85.1638 154.947 85.0368 155.502 85.0368C156.06 85.0368 156.541 85.1599 156.942 85.4069C157.347 85.651 157.658 85.9931 157.877 86.4332C158.095 86.8743 158.204 87.3893 158.204 87.9805V88.4216H153.434V87.5244H157.549L156.915 88.3616V87.8305C156.915 87.4394 156.856 87.1153 156.738 86.8582C156.62 86.6002 156.455 86.4061 156.244 86.2771C156.035 86.1491 155.794 86.0841 155.518 86.0841C155.242 86.0841 154.997 86.1521 154.782 86.2881C154.571 86.4212 154.402 86.6182 154.277 86.8792C154.155 87.1373 154.094 87.4544 154.094 87.8305V88.3676C154.094 88.7287 154.155 89.0388 154.277 89.2968C154.399 89.5509 154.571 89.7479 154.793 89.888C155.018 90.024 155.285 90.092 155.593 90.092C155.833 90.092 156.039 90.058 156.211 89.99C156.387 89.918 156.529 89.834 156.636 89.7369C156.743 89.6369 156.819 89.5419 156.862 89.4529L156.878 89.4148H158.145L158.135 89.4639C158.088 89.6529 158.002 89.847 157.877 90.044C157.755 90.2371 157.588 90.4181 157.377 90.5861C157.17 90.7512 156.915 90.8852 156.615 90.9892C156.314 91.0893 155.964 91.1392 155.566 91.1392ZM161.761 91.1392C161.263 91.1392 160.834 91.0692 160.471 90.9302C160.113 90.7872 159.83 90.5901 159.622 90.3391C159.415 90.085 159.291 89.791 159.252 89.4579V89.4468H160.579L160.585 89.4579C160.656 89.6619 160.791 89.829 160.988 89.958C161.185 90.087 161.449 90.151 161.783 90.151C162.005 90.151 162.2 90.121 162.368 90.06C162.536 89.995 162.669 89.908 162.765 89.7969C162.862 89.6859 162.91 89.5569 162.91 89.4098V89.3988C162.91 89.2268 162.841 89.0838 162.701 88.9687C162.561 88.8507 162.33 88.7557 162.008 88.6847L161.057 88.4696C160.685 88.3876 160.376 88.2726 160.133 88.1255C159.889 87.9785 159.706 87.7975 159.585 87.5834C159.467 87.3684 159.407 87.1173 159.407 86.8313V86.8252C159.407 86.4712 159.506 86.1591 159.703 85.891C159.903 85.622 160.181 85.4129 160.536 85.2619C160.891 85.1119 161.299 85.0368 161.761 85.0368C162.237 85.0368 162.647 85.1078 162.991 85.2519C163.335 85.3949 163.603 85.592 163.797 85.842C163.99 86.0931 164.101 86.3781 164.13 86.6962V86.7072H162.873L162.867 86.6912C162.817 86.5052 162.697 86.3471 162.508 86.2181C162.321 86.0861 162.071 86.0201 161.756 86.0201C161.559 86.0201 161.381 86.0501 161.224 86.1111C161.07 86.1721 160.948 86.2581 160.859 86.3691C160.773 86.4762 160.73 86.6032 160.73 86.7502V86.7552C160.73 86.8702 160.758 86.9703 160.816 87.0563C160.877 87.1423 160.971 87.2173 161.1 87.2823C161.229 87.3463 161.399 87.4043 161.611 87.4544L162.561 87.6635C163.138 87.7925 163.564 87.9845 163.84 88.2386C164.115 88.4927 164.253 88.8347 164.253 89.2648V89.2758C164.253 89.6479 164.146 89.974 163.931 90.253C163.716 90.5321 163.421 90.7511 163.045 90.9082C162.669 91.0622 162.241 91.1392 161.761 91.1392ZM168.138 91.1392C167.554 91.1392 167.051 91.0182 166.628 90.7742C166.206 90.5271 165.88 90.176 165.651 89.7209C165.425 89.2668 165.312 88.7217 165.312 88.0885V88.0775C165.312 87.4504 165.427 86.9093 165.656 86.4552C165.885 85.9961 166.209 85.645 166.628 85.4019C167.051 85.1579 167.554 85.0368 168.138 85.0368C168.721 85.0368 169.223 85.1579 169.642 85.4019C170.065 85.645 170.391 85.995 170.62 86.4491C170.849 86.9043 170.964 87.4474 170.964 88.0775V88.0885C170.964 88.7217 170.849 89.2668 170.62 89.7209C170.394 90.176 170.07 90.5271 169.648 90.7742C169.229 91.0182 168.725 91.1392 168.138 91.1392ZM168.138 90.054C168.445 90.054 168.707 89.977 168.922 89.823C169.141 89.6659 169.308 89.4418 169.422 89.1518C169.537 88.8577 169.594 88.5056 169.594 88.0935V88.0826C169.594 87.6675 169.537 87.3143 169.422 87.0243C169.308 86.7302 169.141 86.5072 168.922 86.3531C168.707 86.1951 168.445 86.1161 168.138 86.1161C167.83 86.1161 167.566 86.1951 167.348 86.3531C167.13 86.5072 166.963 86.7302 166.848 87.0243C166.734 87.3143 166.677 87.6675 166.677 88.0826V88.0935C166.677 88.5056 166.734 88.8577 166.848 89.1518C166.963 89.4458 167.128 89.6689 167.343 89.823C167.561 89.977 167.826 90.054 168.138 90.054ZM172.36 91.0212V82.8773H173.699V91.0212H172.36ZM177.324 91.1392C176.887 91.1392 176.52 91.0552 176.223 90.8872C175.926 90.7151 175.702 90.4661 175.552 90.14C175.401 89.811 175.326 89.4129 175.326 88.9477V85.1499H176.663V88.6416C176.663 89.0958 176.753 89.4378 176.932 89.6679C177.111 89.8969 177.403 90.011 177.808 90.011C178.023 90.011 178.213 89.979 178.378 89.915C178.546 89.8469 178.686 89.7499 178.797 89.6249C178.908 89.4989 178.992 89.3488 179.049 89.1728C179.106 88.9937 179.135 88.7937 179.135 88.5716V85.1499H180.473V91.0212H179.135V90.13H179.044C178.954 90.3371 178.829 90.5181 178.668 90.6721C178.507 90.8222 178.313 90.9392 178.088 91.0212C177.862 91.1002 177.607 91.1392 177.324 91.1392ZM184.416 91.0482C183.743 91.0482 183.258 90.9242 182.96 90.6772C182.663 90.4301 182.515 90.026 182.515 89.4639V86.1861H181.6V85.1499H182.515V83.7095H183.873V85.1499H185.109V86.1861H183.873V89.1468C183.873 89.4368 183.934 89.6499 184.056 89.786C184.181 89.918 184.382 89.985 184.658 89.985C184.754 89.985 184.833 89.983 184.894 89.979C184.958 89.972 185.03 89.965 185.109 89.958V90.9892C185.016 91.0072 184.908 91.0212 184.787 91.0322C184.668 91.0432 184.545 91.0482 184.416 91.0482ZM186.463 91.0212V85.1499H187.795V91.0212H186.463ZM187.135 84.1666C186.916 84.1666 186.728 84.0896 186.571 83.9356C186.413 83.7815 186.334 83.5965 186.334 83.3814C186.334 83.1594 186.413 82.9733 186.571 82.8233C186.728 82.6693 186.916 82.5923 187.135 82.5923C187.353 82.5923 187.539 82.6693 187.693 82.8233C187.851 82.9733 187.93 83.1594 187.93 83.3814C187.93 83.5965 187.851 83.7815 187.693 83.9356C187.539 84.0896 187.353 84.1666 187.135 84.1666ZM191.98 91.1392C191.397 91.1392 190.894 91.0182 190.47 90.7742C190.048 90.5271 189.722 90.176 189.493 89.7209C189.267 89.2668 189.154 88.7217 189.154 88.0885V88.0775C189.154 87.4504 189.269 86.9093 189.498 86.4552C189.727 85.9961 190.051 85.645 190.47 85.4019C190.894 85.1579 191.397 85.0368 191.98 85.0368C192.564 85.0368 193.065 85.1579 193.484 85.4019C193.907 85.645 194.233 85.995 194.462 86.4491C194.691 86.9043 194.806 87.4474 194.806 88.0775V88.0885C194.806 88.7217 194.691 89.2668 194.462 89.7209C194.236 90.176 193.912 90.5271 193.49 90.7742C193.071 91.0182 192.568 91.1392 191.98 91.1392ZM191.98 90.054C192.288 90.054 192.55 89.977 192.765 89.823C192.983 89.6659 193.15 89.4418 193.264 89.1518C193.379 88.8577 193.436 88.5056 193.436 88.0935V88.0826C193.436 87.6675 193.379 87.3143 193.264 87.0243C193.15 86.7302 192.983 86.5072 192.765 86.3531C192.55 86.1951 192.288 86.1161 191.98 86.1161C191.672 86.1161 191.409 86.1951 191.191 86.3531C190.972 86.5072 190.806 86.7302 190.691 87.0243C190.577 87.3143 190.518 87.6675 190.518 88.0826V88.0935C190.518 88.5056 190.577 88.8577 190.691 89.1518C190.806 89.4458 190.971 89.6689 191.186 89.823C191.404 89.977 191.669 90.054 191.98 90.054ZM196.149 91.0212V85.1499H197.487V86.0521H197.578C197.718 85.733 197.929 85.4839 198.212 85.3049C198.495 85.1259 198.847 85.0368 199.271 85.0368C199.926 85.0368 200.428 85.2269 200.775 85.606C201.122 85.9861 201.296 86.5252 201.296 87.2233V91.0212H199.958V87.5344C199.958 87.0763 199.862 86.7322 199.668 86.5032C199.479 86.2741 199.181 86.1591 198.776 86.1591C198.511 86.1591 198.282 86.2181 198.088 86.3371C197.895 86.4552 197.746 86.6212 197.643 86.8362C197.539 87.0513 197.487 87.3053 197.487 87.5994V91.0212H196.149ZM146.428 107.025L144.349 99.2732H145.789L147.121 105.092H147.196L148.728 99.2732H149.958L151.505 105.092H151.58L152.907 99.2732H154.336L152.263 107.025H150.962L149.383 101.476H149.302L147.734 107.025H146.428ZM155.647 107.025V101.154H156.98V107.025H155.647ZM156.319 100.17C156.1 100.17 155.912 100.093 155.754 99.9393C155.597 99.7853 155.518 99.6002 155.518 99.3852C155.518 99.1631 155.597 98.9771 155.754 98.8271C155.912 98.673 156.1 98.596 156.319 98.596C156.538 98.596 156.724 98.673 156.878 98.8271C157.035 98.9771 157.114 99.1631 157.114 99.3852C157.114 99.6002 157.035 99.7853 156.878 99.9393C156.724 100.093 156.538 100.17 156.319 100.17ZM160.939 107.052C160.265 107.052 159.78 106.928 159.483 106.681C159.185 106.434 159.037 106.03 159.037 105.468V102.19H158.124V101.154H159.037V99.7133H160.396V101.154H161.632V102.19H160.396V105.151C160.396 105.441 160.457 105.654 160.579 105.79C160.705 105.922 160.905 105.989 161.181 105.989C161.278 105.989 161.356 105.987 161.417 105.983C161.482 105.976 161.553 105.969 161.632 105.962V106.993C161.539 107.011 161.432 107.025 161.31 107.036C161.192 107.047 161.068 107.052 160.939 107.052ZM163.023 107.025V98.881H164.361V102.056H164.452C164.592 101.737 164.804 101.488 165.087 101.309C165.37 101.13 165.722 101.041 166.145 101.041C166.582 101.041 166.95 101.127 167.251 101.299C167.552 101.467 167.779 101.714 167.933 102.04C168.091 102.366 168.17 102.761 168.17 103.227V107.025H166.832V103.538C166.832 103.08 166.736 102.736 166.542 102.507C166.353 102.278 166.055 102.163 165.651 102.163C165.386 102.163 165.157 102.222 164.963 102.341C164.769 102.459 164.62 102.625 164.516 102.84C164.413 103.055 164.361 103.309 164.361 103.603V107.025H163.023ZM169.766 107.025V101.154H171.098V107.025H169.766ZM170.437 100.17C170.219 100.17 170.031 100.093 169.873 99.9393C169.716 99.7853 169.637 99.6002 169.637 99.3852C169.637 99.1631 169.716 98.9771 169.873 98.8271C170.031 98.673 170.219 98.596 170.437 98.596C170.656 98.596 170.842 98.673 170.996 98.8271C171.153 98.9771 171.232 99.1631 171.232 99.3852C171.232 99.6002 171.153 99.7853 170.996 99.9393C170.842 100.093 170.656 100.17 170.437 100.17ZM172.747 107.025V101.154H174.085V102.056H174.177C174.316 101.737 174.528 101.488 174.81 101.309C175.093 101.13 175.446 101.041 175.869 101.041C176.524 101.041 177.025 101.231 177.372 101.61C177.721 101.99 177.894 102.529 177.894 103.227V107.025H176.556V103.538C176.556 103.08 176.459 102.736 176.266 102.507C176.076 102.278 175.779 102.163 175.374 102.163C175.109 102.163 174.88 102.222 174.687 102.341C174.494 102.459 174.345 102.625 174.241 102.84C174.137 103.055 174.085 103.309 174.085 103.603V107.025H172.747ZM185.238 107.218C184.636 107.218 184.113 107.125 183.669 106.939C183.229 106.753 182.882 106.493 182.627 106.16C182.373 105.827 182.23 105.439 182.198 104.994L182.192 104.919H183.535L183.54 104.972C183.562 105.192 183.648 105.382 183.798 105.543C183.952 105.704 184.156 105.831 184.411 105.924C184.665 106.014 184.955 106.058 185.281 106.058C185.592 106.058 185.868 106.01 186.108 105.913C186.349 105.817 186.537 105.684 186.673 105.516C186.809 105.344 186.877 105.146 186.877 104.924V104.919C186.877 104.639 186.768 104.412 186.549 104.237C186.331 104.057 185.97 103.914 185.469 103.807L184.636 103.635C183.841 103.467 183.263 103.198 182.901 102.829C182.543 102.457 182.364 101.982 182.364 101.406V101.401C182.364 100.939 182.486 100.533 182.729 100.186C182.976 99.8383 183.315 99.5682 183.745 99.3752C184.178 99.1781 184.674 99.0791 185.232 99.0791C185.805 99.0791 186.302 99.1761 186.721 99.3692C187.14 99.5592 187.469 99.8193 187.709 100.148C187.949 100.478 188.084 100.851 188.112 101.266L188.118 101.336H186.796L186.786 101.272C186.753 101.068 186.669 100.89 186.533 100.739C186.401 100.585 186.222 100.463 186 100.374C185.778 100.284 185.519 100.239 185.222 100.239C184.939 100.239 184.686 100.284 184.464 100.374C184.242 100.46 184.067 100.581 183.938 100.739C183.813 100.898 183.75 101.087 183.75 101.309V101.315C183.75 101.587 183.856 101.812 184.067 101.991C184.282 102.17 184.631 102.31 185.114 102.41L185.947 102.588C186.492 102.702 186.934 102.854 187.274 103.044C187.615 103.234 187.863 103.47 188.021 103.753C188.182 104.032 188.263 104.369 188.263 104.763V104.768C188.263 105.271 188.139 105.704 187.892 106.069C187.649 106.434 187.299 106.717 186.845 106.918C186.393 107.118 185.857 107.218 185.238 107.218ZM189.82 107.025V99.2732H191.207V105.86H194.757V107.025H189.82ZM195.682 107.025L198.432 99.2732H199.583V100.712H199.169L197.132 107.025H195.682ZM197.068 105.022L197.428 103.952H200.984L201.344 105.022H197.068ZM201.296 107.025L199.26 100.712V99.2732H199.991L202.746 107.025H201.296Z" fill="#454F5B"/>
<path d="M209.508 163.038C209.508 182.925 193.386 199.046 173.5 199.046C153.613 199.046 137.491 182.925 137.491 163.038C137.491 143.151 153.613 127.03 173.5 127.03C193.386 127.03 209.508 143.151 209.508 163.038ZM141.092 163.038C141.092 180.936 155.601 195.446 173.5 195.446C191.398 195.446 205.907 180.936 205.907 163.038C205.907 145.14 191.398 130.63 173.5 130.63C155.601 130.63 141.092 145.14 141.092 163.038Z" fill="#F4F6F8"/>
<path opacity="0.8" d="M173.5 128.83C173.5 127.836 174.306 127.025 175.299 127.075C181.312 127.376 187.164 129.18 192.314 132.336C197.976 135.806 202.568 140.774 205.583 146.69C208.598 152.608 209.918 159.243 209.397 165.864C208.876 172.483 206.534 178.831 202.63 184.203C198.727 189.576 193.414 193.764 187.279 196.306C181.144 198.847 174.426 199.643 167.866 198.603C161.308 197.564 155.163 194.732 150.114 190.419C145.521 186.496 141.996 181.488 139.853 175.863C139.499 174.934 140.02 173.917 140.966 173.609C141.911 173.301 142.922 173.822 143.281 174.749C145.217 179.744 148.365 184.19 152.453 187.681C156.997 191.563 162.527 194.111 168.429 195.046C174.333 195.982 180.379 195.266 185.901 192.979C191.423 190.691 196.205 186.922 199.718 182.086C203.23 177.251 205.338 171.539 205.807 165.581C206.276 159.622 205.088 153.651 202.374 148.326C199.662 143 195.529 138.529 190.432 135.407C185.849 132.598 180.647 130.978 175.299 130.68C174.306 130.625 173.5 129.824 173.5 128.83Z" fill="#F5B129"/>
<path d="M156.135 169.039L160.942 159.772V159.639H155.253V157.756H163.317V159.662L158.605 169.039H156.135ZM169.444 169.328C168.516 169.328 167.717 169.089 167.045 168.609C166.378 168.125 165.865 167.44 165.506 166.555C165.146 165.669 164.967 164.619 164.967 163.405V163.39C164.967 162.171 165.146 161.121 165.506 160.24C165.865 159.355 166.378 158.673 167.045 158.193C167.717 157.714 168.516 157.475 169.444 157.475C170.376 157.475 171.176 157.714 171.843 158.193C172.509 158.673 173.022 159.355 173.382 160.24C173.742 161.121 173.922 162.171 173.922 163.39V163.405C173.922 164.619 173.742 165.669 173.382 166.555C173.022 167.44 172.509 168.125 171.843 168.609C171.176 169.089 170.376 169.328 169.444 169.328ZM169.444 167.461C169.892 167.461 170.27 167.3 170.577 166.977C170.889 166.654 171.126 166.19 171.288 165.586C171.455 164.981 171.538 164.254 171.538 163.405V163.39C171.538 162.536 171.455 161.809 171.288 161.21C171.126 160.605 170.889 160.144 170.577 159.826C170.27 159.503 169.892 159.342 169.444 159.342C169 159.342 168.623 159.503 168.31 159.826C168.003 160.144 167.766 160.605 167.599 161.21C167.438 161.809 167.357 162.536 167.357 163.39V163.405C167.357 164.254 167.438 164.981 167.599 165.586C167.766 166.19 168.003 166.654 168.31 166.977C168.623 167.3 169 167.461 169.444 167.461ZM178.587 163.944C178.04 163.944 177.565 163.817 177.164 163.562C176.768 163.301 176.461 162.934 176.242 162.46C176.029 161.981 175.922 161.418 175.922 160.772V160.764C175.922 160.107 176.029 159.545 176.242 159.076C176.461 158.602 176.768 158.238 177.164 157.982C177.565 157.727 178.04 157.6 178.587 157.6C179.139 157.6 179.613 157.727 180.009 157.982C180.41 158.238 180.717 158.602 180.931 159.076C181.144 159.545 181.251 160.107 181.251 160.764V160.772C181.251 161.418 181.144 161.981 180.931 162.46C180.717 162.934 180.41 163.301 180.009 163.562C179.613 163.817 179.139 163.944 178.587 163.944ZM178.587 162.694C178.931 162.694 179.194 162.528 179.376 162.194C179.563 161.861 179.657 161.387 179.657 160.772V160.764C179.657 160.144 179.563 159.67 179.376 159.342C179.194 159.014 178.931 158.85 178.587 158.85C178.248 158.85 177.985 159.014 177.797 159.342C177.614 159.67 177.523 160.144 177.523 160.764V160.772C177.523 161.387 177.614 161.861 177.797 162.194C177.985 162.528 178.248 162.694 178.587 162.694ZM180.321 169.039H178.516L186.103 157.764H187.909L180.321 169.039ZM187.831 169.203C187.284 169.203 186.81 169.076 186.409 168.82C186.012 168.56 185.705 168.193 185.486 167.719C185.273 167.245 185.166 166.682 185.166 166.031V166.024C185.166 165.367 185.273 164.804 185.486 164.335C185.705 163.861 186.012 163.496 186.409 163.241C186.81 162.986 187.284 162.858 187.831 162.858C188.383 162.858 188.857 162.986 189.253 163.241C189.654 163.496 189.961 163.861 190.175 164.335C190.388 164.804 190.495 165.367 190.495 166.024V166.031C190.495 166.682 190.388 167.245 190.175 167.719C189.961 168.193 189.654 168.56 189.253 168.82C188.857 169.076 188.383 169.203 187.831 169.203ZM187.831 167.953C188.175 167.953 188.438 167.787 188.62 167.453C188.808 167.12 188.901 166.646 188.901 166.031V166.024C188.901 165.404 188.808 164.929 188.62 164.601C188.438 164.273 188.175 164.108 187.831 164.108C187.492 164.108 187.229 164.273 187.042 164.601C186.86 164.929 186.768 165.404 186.768 166.024V166.031C186.768 166.646 186.86 167.12 187.042 167.453C187.229 167.787 187.492 167.953 187.831 167.953Z" fill="#212B36"/>
<path d="M241.863 91.0212V83.2694H246.805V84.4347H243.249V86.7292H246.499V87.8575H243.249V91.0212H241.863ZM248.218 91.0212V85.1499H249.55V91.0212H248.218ZM248.889 84.1666C248.671 84.1666 248.483 84.0896 248.325 83.9356C248.168 83.7815 248.089 83.5965 248.089 83.3814C248.089 83.1594 248.168 82.9733 248.325 82.8233C248.483 82.6693 248.671 82.5923 248.889 82.5923C249.108 82.5923 249.294 82.6693 249.448 82.8233C249.606 82.9733 249.684 83.1594 249.684 83.3814C249.684 83.5965 249.606 83.7815 249.448 83.9356C249.294 84.0896 249.108 84.1666 248.889 84.1666ZM251.2 91.0212V85.1499H252.537V86.0521H252.629C252.729 85.737 252.908 85.4909 253.166 85.3159C253.427 85.1408 253.751 85.0528 254.138 85.0528C254.238 85.0528 254.337 85.0598 254.433 85.0738C254.535 85.0848 254.617 85.0988 254.681 85.1168V86.3151C254.574 86.2901 254.465 86.2721 254.353 86.2611C254.245 86.2471 254.133 86.2401 254.014 86.2401C253.717 86.2401 253.458 86.2951 253.236 86.4061C253.014 86.5172 252.842 86.6772 252.72 86.8842C252.598 87.0883 252.537 87.3304 252.537 87.6094V91.0212H251.2ZM257.856 91.1392C257.358 91.1392 256.928 91.0692 256.567 90.9302C256.209 90.7872 255.926 90.5901 255.718 90.3391C255.51 90.085 255.387 89.791 255.347 89.4579V89.4468H256.674L256.68 89.4579C256.751 89.6619 256.885 89.829 257.082 89.958C257.279 90.087 257.544 90.151 257.877 90.151C258.099 90.151 258.294 90.121 258.463 90.06C258.631 89.995 258.763 89.908 258.861 89.7969C258.958 89.6859 259.006 89.5569 259.006 89.4098V89.3988C259.006 89.2268 258.936 89.0838 258.797 88.9687C258.656 88.8507 258.425 88.7557 258.103 88.6847L257.152 88.4696C256.78 88.3876 256.472 88.2726 256.228 88.1255C255.985 87.9785 255.802 87.7975 255.68 87.5834C255.562 87.3684 255.503 87.1173 255.503 86.8313V86.8252C255.503 86.4712 255.602 86.1591 255.799 85.891C255.999 85.622 256.277 85.4129 256.631 85.2619C256.986 85.1119 257.394 85.0368 257.856 85.0368C258.332 85.0368 258.743 85.1078 259.087 85.2519C259.431 85.3949 259.699 85.592 259.892 85.842C260.086 86.0931 260.197 86.3781 260.225 86.6962V86.7072H258.969L258.963 86.6912C258.913 86.5052 258.793 86.3471 258.602 86.2181C258.416 86.0861 258.166 86.0201 257.85 86.0201C257.653 86.0201 257.476 86.0501 257.319 86.1111C257.165 86.1721 257.043 86.2581 256.953 86.3691C256.867 86.4762 256.825 86.6032 256.825 86.7502V86.7552C256.825 86.8702 256.853 86.9703 256.91 87.0563C256.971 87.1423 257.066 87.2173 257.195 87.2823C257.324 87.3463 257.494 87.4043 257.705 87.4544L258.656 87.6635C259.234 87.7925 259.66 87.9845 259.935 88.2386C260.211 88.4927 260.349 88.8347 260.349 89.2648V89.2758C260.349 89.6479 260.242 89.974 260.027 90.253C259.812 90.5321 259.516 90.7511 259.14 90.9082C258.764 91.0622 258.336 91.1392 257.856 91.1392ZM263.975 91.0482C263.302 91.0482 262.816 90.9242 262.519 90.6772C262.222 90.4301 262.073 90.026 262.073 89.4639V86.1861H261.16V85.1499H262.073V83.7095H263.433V85.1499H264.668V86.1861H263.433V89.1468C263.433 89.4368 263.494 89.6499 263.616 89.786C263.741 89.918 263.941 89.985 264.217 89.985C264.314 89.985 264.393 89.983 264.453 89.979C264.518 89.972 264.59 89.965 264.668 89.958V90.9892C264.575 91.0072 264.468 91.0212 264.346 91.0322C264.228 91.0432 264.104 91.0482 263.975 91.0482ZM272.313 91.2143C271.578 91.2143 270.945 91.0502 270.411 90.7201C269.881 90.3911 269.471 89.924 269.181 89.3178C268.895 88.7097 268.751 87.9875 268.751 87.1533V87.1423C268.751 86.3041 268.895 85.5829 269.181 84.9778C269.471 84.3687 269.881 83.8996 270.411 83.5695C270.941 83.2404 271.573 83.0754 272.308 83.0754C272.895 83.0754 273.425 83.1924 273.898 83.4245C274.371 83.6545 274.755 83.9726 275.053 84.3807C275.35 84.7858 275.529 85.2519 275.59 85.778L275.584 85.821H274.231L274.225 85.794C274.161 85.4899 274.039 85.2249 273.86 84.9988C273.681 84.7698 273.459 84.5927 273.194 84.4667C272.929 84.3377 272.634 84.2737 272.308 84.2737C271.871 84.2737 271.491 84.3897 271.168 84.6227C270.846 84.8558 270.597 85.1869 270.422 85.617C270.25 86.0431 270.164 86.5502 270.164 87.1373V87.1483C270.164 87.7355 270.25 88.2436 270.422 88.6737C270.597 89.1038 270.846 89.4348 271.168 89.6679C271.491 89.8999 271.873 90.017 272.313 90.017C272.643 90.017 272.938 89.959 273.2 89.8449C273.465 89.7299 273.685 89.5689 273.86 89.3608C274.039 89.1498 274.161 88.9027 274.225 88.6197L274.236 88.5877H275.59V88.6307C275.522 89.1468 275.341 89.5979 275.047 89.985C274.754 90.3711 274.374 90.6741 273.909 90.8922C273.443 91.1072 272.911 91.2143 272.313 91.2143ZM279.533 91.1392C278.949 91.1392 278.446 91.0182 278.024 90.7742C277.601 90.5271 277.275 90.176 277.046 89.7209C276.821 89.2668 276.708 88.7217 276.708 88.0885V88.0775C276.708 87.4504 276.823 86.9093 277.052 86.4552C277.281 85.9961 277.605 85.645 278.024 85.4019C278.446 85.1579 278.949 85.0368 279.533 85.0368C280.118 85.0368 280.619 85.1579 281.038 85.4019C281.461 85.645 281.786 85.995 282.016 86.4491C282.245 86.9043 282.359 87.4474 282.359 88.0775V88.0885C282.359 88.7217 282.245 89.2668 282.016 89.7209C281.79 90.176 281.466 90.5271 281.043 90.7742C280.624 91.0182 280.121 91.1392 279.533 91.1392ZM279.533 90.054C279.841 90.054 280.102 89.977 280.318 89.823C280.537 89.6659 280.703 89.4418 280.818 89.1518C280.932 88.8577 280.99 88.5056 280.99 88.0935V88.0826C280.99 87.6675 280.932 87.3143 280.818 87.0243C280.703 86.7302 280.537 86.5072 280.318 86.3531C280.102 86.1951 279.841 86.1161 279.533 86.1161C279.225 86.1161 278.962 86.1951 278.744 86.3531C278.525 86.5072 278.359 86.7302 278.244 87.0243C278.129 87.3143 278.072 87.6675 278.072 88.0826V88.0935C278.072 88.5056 278.129 88.8577 278.244 89.1518C278.359 89.4458 278.523 89.6689 278.738 89.823C278.957 89.977 279.222 90.054 279.533 90.054ZM283.702 91.0212V85.1499H285.041V86.0521H285.132C285.271 85.733 285.483 85.4839 285.766 85.3049C286.048 85.1259 286.401 85.0368 286.824 85.0368C287.479 85.0368 287.98 85.2269 288.328 85.606C288.675 85.9861 288.85 86.5252 288.85 87.2233V91.0212H287.511V87.5344C287.511 87.0763 287.415 86.7322 287.221 86.5032C287.031 86.2741 286.734 86.1591 286.33 86.1591C286.065 86.1591 285.835 86.2181 285.642 86.3371C285.449 86.4552 285.3 86.6212 285.196 86.8362C285.092 87.0513 285.041 87.3053 285.041 87.5994V91.0212H283.702ZM292.738 91.0482C292.065 91.0482 291.58 90.9242 291.283 90.6772C290.986 90.4301 290.837 90.026 290.837 89.4639V86.1861H289.924V85.1499H290.837V83.7095H292.196V85.1499H293.432V86.1861H292.196V89.1468C292.196 89.4368 292.257 89.6499 292.378 89.786C292.504 89.918 292.704 89.985 292.981 89.985C293.078 89.985 293.156 89.983 293.217 89.979C293.282 89.972 293.353 89.965 293.432 89.958V90.9892C293.339 91.0072 293.232 91.0212 293.11 91.0322C292.992 91.0432 292.867 91.0482 292.738 91.0482ZM296.37 91.1182C296.001 91.1182 295.67 91.0463 295.376 90.9032C295.086 90.7602 294.857 90.5571 294.689 90.296C294.524 90.031 294.442 89.7199 294.442 89.3608V89.3509C294.442 89.0028 294.528 88.7037 294.7 88.4536C294.872 88.1996 295.124 88.0005 295.457 87.8575C295.79 87.7134 296.195 87.6294 296.671 87.6044L298.842 87.4704V88.3516L296.859 88.4806C296.483 88.5016 296.205 88.5806 296.026 88.7167C295.847 88.8527 295.758 89.0428 295.758 89.2858V89.2968C295.758 89.5479 295.853 89.7429 296.043 89.8819C296.236 90.022 296.481 90.092 296.778 90.092C297.047 90.092 297.288 90.038 297.499 89.9309C297.71 89.8229 297.877 89.6779 297.999 89.4958C298.12 89.3098 298.181 89.0998 298.181 88.8667V87.0083C298.181 86.7142 298.088 86.4912 297.902 86.3371C297.716 86.1791 297.44 86.1001 297.074 86.1001C296.769 86.1001 296.521 86.1541 296.327 86.2611C296.134 86.3651 296.003 86.5142 295.935 86.7072L295.93 86.7292H294.668L294.673 86.6802C294.716 86.3511 294.845 86.0631 295.06 85.816C295.274 85.5679 295.559 85.3769 295.914 85.2409C296.268 85.1048 296.676 85.0368 297.138 85.0368C297.648 85.0368 298.077 85.1158 298.428 85.2729C298.779 85.4269 299.046 85.653 299.229 85.95C299.411 86.2431 299.502 86.5962 299.502 87.0083V91.0212H298.181V90.215H298.09C297.982 90.4021 297.843 90.5631 297.671 90.6991C297.503 90.8352 297.308 90.9392 297.09 91.0102C296.871 91.0823 296.632 91.1182 296.37 91.1182ZM303.628 91.1392C303.038 91.1392 302.533 91.0182 302.114 90.7742C301.695 90.5311 301.373 90.18 301.151 89.7209C300.929 89.2628 300.818 88.7147 300.818 88.0775V88.0666C300.818 87.4324 300.929 86.8902 301.151 86.4391C301.373 85.987 301.695 85.642 302.114 85.4019C302.533 85.1579 303.036 85.0368 303.623 85.0368C304.128 85.0368 304.561 85.1239 304.923 85.2999C305.288 85.4719 305.576 85.712 305.788 86.0201C306.004 86.3241 306.136 86.6802 306.186 87.0883V87.1103H304.923L304.918 87.0943C304.857 86.8072 304.717 86.5732 304.499 86.3901C304.284 86.2081 303.994 86.1161 303.628 86.1161C303.324 86.1161 303.063 86.1931 302.844 86.3471C302.629 86.5012 302.465 86.7232 302.35 87.0133C302.236 87.3033 302.178 87.6545 302.178 88.0666V88.0775C302.178 88.4926 302.236 88.8487 302.35 89.1468C302.468 89.4398 302.635 89.6659 302.85 89.823C303.065 89.977 303.324 90.054 303.628 90.054C303.976 90.054 304.255 89.976 304.466 89.8179C304.681 89.6599 304.83 89.4279 304.912 89.1198L304.923 89.0977L306.181 89.0927L306.175 89.1408C306.111 89.5389 305.971 89.8879 305.755 90.189C305.544 90.4891 305.261 90.7241 304.907 90.8922C304.552 91.0572 304.126 91.1392 303.628 91.1392ZM309.844 91.0482C309.171 91.0482 308.685 90.9242 308.388 90.6772C308.091 90.4301 307.942 90.026 307.942 89.4639V86.1861H307.029V85.1499H307.942V83.7095H309.301V85.1499H310.538V86.1861H309.301V89.1468C309.301 89.4368 309.362 89.6499 309.484 89.786C309.609 89.918 309.81 89.985 310.086 89.985C310.183 89.985 310.262 89.983 310.323 89.979C310.387 89.972 310.459 89.965 310.538 89.958V90.9892C310.445 91.0072 310.337 91.0212 310.215 91.0322C310.096 91.0432 309.973 91.0482 309.844 91.0482ZM248.379 107.025V99.2732H251.512C252.067 99.2732 252.543 99.3712 252.94 99.5682C253.338 99.7653 253.642 100.043 253.853 100.401C254.065 100.759 254.17 101.186 254.17 101.68V101.691C254.17 102.203 254.041 102.657 253.783 103.055C253.529 103.449 253.173 103.728 252.715 103.893L254.407 107.025H252.827L251.302 104.108C251.295 104.108 251.284 104.108 251.27 104.108C251.255 104.108 251.243 104.108 251.232 104.108H249.765V107.025H248.379ZM249.765 103.044H251.366C251.807 103.044 252.149 102.928 252.392 102.695C252.636 102.462 252.758 102.138 252.758 101.723V101.712C252.758 101.307 252.63 100.987 252.376 100.75C252.126 100.51 251.78 100.39 251.34 100.39H249.765V103.044ZM258.049 107.143C257.465 107.143 256.964 107.02 256.545 106.773C256.13 106.526 255.809 106.175 255.584 105.72C255.358 105.265 255.245 104.725 255.245 104.102V104.097C255.245 103.481 255.356 102.944 255.578 102.486C255.804 102.027 256.123 101.673 256.534 101.422C256.946 101.168 257.43 101.041 257.985 101.041C258.543 101.041 259.024 101.164 259.425 101.411C259.83 101.655 260.141 101.997 260.36 102.437C260.578 102.878 260.687 103.393 260.687 103.984V104.425H255.917V103.528H260.032L259.398 104.365V103.834C259.398 103.443 259.339 103.119 259.221 102.862C259.103 102.604 258.938 102.41 258.727 102.281C258.518 102.153 258.277 102.088 258.001 102.088C257.725 102.088 257.48 102.156 257.265 102.292C257.054 102.425 256.885 102.622 256.76 102.883C256.638 103.141 256.577 103.458 256.577 103.834V104.371C256.577 104.732 256.638 105.043 256.76 105.301C256.882 105.555 257.054 105.752 257.276 105.892C257.501 106.028 257.768 106.096 258.076 106.096C258.316 106.096 258.522 106.062 258.694 105.994C258.87 105.922 259.012 105.838 259.119 105.741C259.226 105.641 259.302 105.546 259.345 105.457L259.361 105.419H260.628L260.618 105.468C260.571 105.657 260.485 105.851 260.36 106.048C260.238 106.241 260.071 106.422 259.86 106.59C259.653 106.755 259.398 106.889 259.097 106.993C258.797 107.093 258.447 107.143 258.049 107.143ZM264.244 107.143C263.746 107.143 263.317 107.073 262.954 106.934C262.596 106.791 262.313 106.594 262.105 106.343C261.898 106.089 261.774 105.795 261.735 105.462V105.451H263.062L263.068 105.462C263.139 105.666 263.274 105.833 263.471 105.962C263.668 106.091 263.932 106.155 264.265 106.155C264.487 106.155 264.683 106.125 264.851 106.064C265.019 105.999 265.152 105.912 265.248 105.801C265.345 105.69 265.393 105.561 265.393 105.414V105.403C265.393 105.231 265.324 105.088 265.184 104.972C265.044 104.854 264.813 104.759 264.491 104.688L263.54 104.473C263.168 104.391 262.859 104.276 262.616 104.129C262.372 103.982 262.189 103.801 262.068 103.587C261.95 103.372 261.89 103.121 261.89 102.835V102.829C261.89 102.475 261.989 102.163 262.186 101.895C262.386 101.626 262.664 101.417 263.018 101.266C263.374 101.116 263.782 101.041 264.244 101.041C264.72 101.041 265.13 101.112 265.474 101.256C265.818 101.399 266.086 101.596 266.28 101.846C266.473 102.097 266.584 102.382 266.613 102.7V102.711H265.356L265.35 102.695C265.3 102.509 265.18 102.351 264.991 102.222C264.804 102.09 264.554 102.024 264.239 102.024C264.042 102.024 263.864 102.054 263.707 102.115C263.553 102.176 263.431 102.262 263.342 102.373C263.256 102.48 263.213 102.607 263.213 102.754V102.759C263.213 102.874 263.241 102.974 263.299 103.06C263.36 103.146 263.454 103.221 263.583 103.286C263.712 103.35 263.882 103.408 264.094 103.458L265.044 103.667C265.621 103.796 266.047 103.988 266.323 104.242C266.598 104.496 266.736 104.838 266.736 105.269V105.28C266.736 105.652 266.629 105.978 266.414 106.257C266.199 106.536 265.904 106.755 265.528 106.912C265.152 107.066 264.724 107.143 264.244 107.143ZM270.62 107.143C270.037 107.143 269.534 107.022 269.111 106.778C268.689 106.531 268.363 106.18 268.134 105.725C267.908 105.271 267.795 104.725 267.795 104.092V104.081C267.795 103.454 267.91 102.913 268.139 102.459C268.368 102 268.692 101.649 269.111 101.406C269.534 101.162 270.037 101.041 270.62 101.041C271.204 101.041 271.706 101.162 272.125 101.406C272.548 101.649 272.874 101.999 273.103 102.453C273.332 102.908 273.447 103.451 273.447 104.081V104.092C273.447 104.725 273.332 105.271 273.103 105.725C272.877 106.18 272.553 106.531 272.131 106.778C271.712 107.022 271.208 107.143 270.62 107.143ZM270.62 106.058C270.928 106.058 271.19 105.981 271.405 105.827C271.624 105.67 271.791 105.446 271.905 105.156C272.02 104.861 272.077 104.509 272.077 104.097V104.086C272.077 103.671 272.02 103.318 271.905 103.028C271.791 102.734 271.624 102.511 271.405 102.357C271.19 102.199 270.928 102.12 270.62 102.12C270.313 102.12 270.049 102.199 269.831 102.357C269.613 102.511 269.446 102.734 269.331 103.028C269.217 103.318 269.16 103.671 269.16 104.086V104.097C269.16 104.509 269.217 104.861 269.331 105.156C269.446 105.45 269.611 105.673 269.826 105.827C270.044 105.981 270.309 106.058 270.62 106.058ZM274.843 107.025V98.881H276.182V107.025H274.843ZM279.807 107.143C279.37 107.143 279.003 107.059 278.706 106.891C278.409 106.719 278.185 106.47 278.035 106.144C277.884 105.815 277.809 105.417 277.809 104.951V101.154H279.146V104.645C279.146 105.099 279.236 105.442 279.415 105.672C279.594 105.901 279.886 106.015 280.291 106.015C280.506 106.015 280.696 105.983 280.861 105.919C281.029 105.851 281.169 105.754 281.28 105.629C281.391 105.503 281.475 105.353 281.532 105.177C281.589 104.997 281.618 104.797 281.618 104.575V101.154H282.956V107.025H281.618V106.134H281.527C281.437 106.341 281.312 106.522 281.151 106.676C280.99 106.826 280.796 106.943 280.571 107.025C280.345 107.104 280.09 107.143 279.807 107.143ZM286.899 107.052C286.226 107.052 285.741 106.928 285.443 106.681C285.146 106.434 284.998 106.03 284.998 105.468V102.19H284.083V101.154H284.998V99.7133H286.356V101.154H287.592V102.19H286.356V105.151C286.356 105.441 286.417 105.654 286.539 105.79C286.664 105.922 286.865 105.989 287.141 105.989C287.237 105.989 287.316 105.987 287.377 105.983C287.441 105.976 287.513 105.969 287.592 105.962V106.993C287.499 107.011 287.391 107.025 287.27 107.036C287.151 107.047 287.028 107.052 286.899 107.052ZM288.946 107.025V101.154H290.278V107.025H288.946ZM289.618 100.17C289.399 100.17 289.211 100.093 289.054 99.9393C288.896 99.7853 288.817 99.6002 288.817 99.3852C288.817 99.1631 288.896 98.9771 289.054 98.8271C289.211 98.673 289.399 98.596 289.618 98.596C289.836 98.596 290.022 98.673 290.176 98.8271C290.334 98.9771 290.413 99.1631 290.413 99.3852C290.413 99.6002 290.334 99.7853 290.176 99.9393C290.022 100.093 289.836 100.17 289.618 100.17ZM294.463 107.143C293.88 107.143 293.377 107.022 292.953 106.778C292.531 106.531 292.205 106.18 291.976 105.725C291.75 105.271 291.637 104.725 291.637 104.092V104.081C291.637 103.454 291.752 102.913 291.981 102.459C292.21 102 292.534 101.649 292.953 101.406C293.377 101.162 293.88 101.041 294.463 101.041C295.047 101.041 295.548 101.162 295.967 101.406C296.39 101.649 296.716 101.999 296.945 102.453C297.174 102.908 297.289 103.451 297.289 104.081V104.092C297.289 104.725 297.174 105.271 296.945 105.725C296.719 106.18 296.395 106.531 295.973 106.778C295.554 107.022 295.051 107.143 294.463 107.143ZM294.463 106.058C294.771 106.058 295.033 105.981 295.248 105.827C295.466 105.67 295.633 105.446 295.747 105.156C295.862 104.861 295.919 104.509 295.919 104.097V104.086C295.919 103.671 295.862 103.318 295.747 103.028C295.633 102.734 295.466 102.511 295.248 102.357C295.033 102.199 294.771 102.12 294.463 102.12C294.155 102.12 293.892 102.199 293.674 102.357C293.455 102.511 293.289 102.734 293.174 103.028C293.06 103.318 293.002 103.671 293.002 104.086V104.097C293.002 104.509 293.06 104.861 293.174 105.156C293.289 105.45 293.454 105.673 293.668 105.827C293.887 105.981 294.152 106.058 294.463 106.058ZM298.632 107.025V101.154H299.97V102.056H300.061C300.201 101.737 300.412 101.488 300.695 101.309C300.978 101.13 301.33 101.041 301.754 101.041C302.409 101.041 302.911 101.231 303.258 101.61C303.605 101.99 303.779 102.529 303.779 103.227V107.025H302.441V103.538C302.441 103.08 302.345 102.736 302.151 102.507C301.962 102.278 301.664 102.163 301.259 102.163C300.994 102.163 300.765 102.222 300.571 102.341C300.378 102.459 300.229 102.625 300.126 102.84C300.022 103.055 299.97 103.309 299.97 103.603V107.025H298.632Z" fill="#454F5B"/>
<path d="M311.991 163.038C311.991 182.925 295.869 199.046 275.982 199.046C256.096 199.046 239.974 182.925 239.974 163.038C239.974 143.151 256.096 127.03 275.982 127.03C295.869 127.03 311.991 143.151 311.991 163.038ZM243.575 163.038C243.575 180.936 258.084 195.446 275.982 195.446C293.881 195.446 308.39 180.936 308.39 163.038C308.39 145.14 293.881 130.63 275.982 130.63C258.084 130.63 243.575 145.14 243.575 163.038Z" fill="#F4F6F8"/>
<path opacity="0.8" d="M275.982 128.83C275.982 127.836 276.789 127.025 277.782 127.075C284.751 127.424 291.482 129.79 297.147 133.907C303.3 138.376 307.879 144.679 310.228 151.911C312.578 159.143 312.578 166.933 310.228 174.166C308.064 180.825 304.01 186.698 298.577 191.076C297.803 191.699 296.673 191.518 296.089 190.713C295.505 189.908 295.687 188.786 296.457 188.158C301.276 184.23 304.875 178.99 306.804 173.052C308.918 166.544 308.918 159.532 306.804 153.024C304.689 146.515 300.568 140.843 295.031 136.82C289.981 133.151 283.989 131.026 277.782 130.68C276.789 130.625 275.982 129.824 275.982 128.83Z" fill="#DE323B"/>
<path d="M263.816 169.039V166.969H258.29V165.117C258.577 164.606 258.866 164.101 259.159 163.601C259.45 163.095 259.744 162.595 260.041 162.101C260.343 161.601 260.643 161.108 260.94 160.623C261.242 160.133 261.544 159.652 261.846 159.178C262.148 158.699 262.45 158.227 262.752 157.764H266.066V165.078H267.535V166.969H266.066V169.039H263.816ZM260.416 165.141H263.863V159.553H263.738C263.519 159.891 263.294 160.238 263.065 160.592C262.841 160.947 262.614 161.309 262.385 161.679C262.161 162.049 261.935 162.421 261.705 162.796C261.481 163.166 261.26 163.538 261.041 163.913C260.828 164.283 260.619 164.65 260.416 165.015V165.141ZM273.927 169.328C273 169.328 272.201 169.089 271.528 168.609C270.861 168.125 270.348 167.44 269.989 166.555C269.629 165.669 269.45 164.619 269.45 163.405V163.39C269.45 162.171 269.629 161.121 269.989 160.24C270.348 159.355 270.861 158.673 271.528 158.193C272.201 157.714 273 157.475 273.927 157.475C274.859 157.475 275.659 157.714 276.327 158.193C276.993 158.673 277.506 159.355 277.866 160.24C278.225 161.121 278.405 162.171 278.405 163.39V163.405C278.405 164.619 278.225 165.669 277.866 166.555C277.506 167.44 276.993 168.125 276.327 168.609C275.659 169.089 274.859 169.328 273.927 169.328ZM273.927 167.461C274.375 167.461 274.753 167.3 275.06 166.977C275.372 166.654 275.609 166.19 275.771 165.586C275.938 164.981 276.021 164.254 276.021 163.405V163.39C276.021 162.536 275.938 161.809 275.771 161.21C275.609 160.605 275.372 160.144 275.06 159.826C274.753 159.503 274.375 159.342 273.927 159.342C273.484 159.342 273.107 159.503 272.794 159.826C272.487 160.144 272.25 160.605 272.083 161.21C271.922 161.809 271.841 162.536 271.841 163.39V163.405C271.841 164.254 271.922 164.981 272.083 165.586C272.25 166.19 272.487 166.654 272.794 166.977C273.107 167.3 273.484 167.461 273.927 167.461ZM283.07 163.944C282.523 163.944 282.049 163.817 281.648 163.562C281.252 163.301 280.945 162.934 280.726 162.46C280.512 161.981 280.405 161.418 280.405 160.772V160.764C280.405 160.107 280.512 159.545 280.726 159.076C280.945 158.602 281.252 158.238 281.648 157.982C282.049 157.727 282.523 157.6 283.07 157.6C283.622 157.6 284.096 157.727 284.492 157.982C284.894 158.238 285.201 158.602 285.415 159.076C285.628 159.545 285.735 160.107 285.735 160.764V160.772C285.735 161.418 285.628 161.981 285.415 162.46C285.201 162.934 284.894 163.301 284.492 163.562C284.096 163.817 283.622 163.944 283.07 163.944ZM283.07 162.694C283.414 162.694 283.677 162.528 283.859 162.194C284.046 161.861 284.14 161.387 284.14 160.772V160.764C284.14 160.144 284.046 159.67 283.859 159.342C283.677 159.014 283.414 158.85 283.07 158.85C282.731 158.85 282.468 159.014 282.281 159.342C282.098 159.67 282.007 160.144 282.007 160.764V160.772C282.007 161.387 282.098 161.861 282.281 162.194C282.468 162.528 282.731 162.694 283.07 162.694ZM284.805 169.039H282.999L290.587 157.764H292.392L284.805 169.039ZM292.314 169.203C291.767 169.203 291.293 169.076 290.892 168.82C290.496 168.56 290.189 168.193 289.97 167.719C289.757 167.245 289.65 166.682 289.65 166.031V166.024C289.65 165.367 289.757 164.804 289.97 164.335C290.189 163.861 290.496 163.496 290.892 163.241C291.293 162.986 291.767 162.858 292.314 162.858C292.866 162.858 293.341 162.986 293.737 163.241C294.138 163.496 294.445 163.861 294.659 164.335C294.872 164.804 294.979 165.367 294.979 166.024V166.031C294.979 166.682 294.872 167.245 294.659 167.719C294.445 168.193 294.138 168.56 293.737 168.82C293.341 169.076 292.866 169.203 292.314 169.203ZM292.314 167.953C292.658 167.953 292.921 167.787 293.103 167.453C293.292 167.12 293.385 166.646 293.385 166.031V166.024C293.385 165.404 293.292 164.929 293.103 164.601C292.921 164.273 292.658 164.108 292.314 164.108C291.975 164.108 291.712 164.273 291.525 164.601C291.343 164.929 291.251 165.404 291.251 166.024V166.031C291.251 166.646 291.343 167.12 291.525 167.453C291.712 167.787 291.975 167.953 292.314 167.953Z" fill="#212B36"/>
</g>
<defs>
<filter id="filter0_d_102_609" x="0" y="0" width="347" height="290.5" filterUnits="userSpaceOnUse" color-interpolation-filters="sRGB">
<feFlood flood-opacity="0" result="BackgroundImageFix"/>
<feColorMatrix in="SourceAlpha" type="matrix" values="0 0 0 0 0 0 0 0 0 0 0 0 0 0 0 0 0 0 127 0" result="hardAlpha"/>
<feOffset dy="1"/>
<feGaussianBlur stdDeviation="2"/>
<feComposite in2="hardAlpha" operator="out"/>
<feColorMatrix type="matrix" values="0 0 0 0 0 0 0 0 0 0 0 0 0 0 0 0 0 0 0.15 0"/>
<feBlend mode="normal" in2="BackgroundImageFix" result="effect1_dropShadow_102_609"/>
<feBlend mode="normal" in="SourceGraphic" in2="effect1_dropShadow_102_609" result="shape"/>
</filter>
</defs>
</svg>
