<svg width="200" height="76" viewBox="0 0 200 76" fill="none" xmlns="http://www.w3.org/2000/svg">
<path d="M0 6.80605C0 3.04721 3.04687 0 6.80561 0H192.837C196.595 0 199.642 3.04721 199.642 6.80605V69.1943C199.642 72.9531 196.595 76 192.837 76H6.80561C3.04687 76 0 72.9531 0 69.1943V6.80605Z" fill="white"/>
<path d="M17.0553 17.6614V24.1132H16.1953L12.9478 19.1375V24.1132H12.092V17.6614H12.9478L16.2087 22.6514V17.6614H17.0553ZM20.4354 24.2016C20.1022 24.2016 19.7987 24.1461 19.5271 24.0329C19.2587 23.9177 19.0262 23.7572 18.8318 23.5505C18.6394 23.3437 18.4923 23.0989 18.3884 22.815C18.2856 22.5311 18.2331 22.2214 18.2331 21.884V21.6978C18.2331 21.308 18.2907 20.9613 18.4059 20.6568C18.5211 20.3493 18.6785 20.09 18.876 19.8771C19.0735 19.6642 19.2988 19.5037 19.5498 19.3936C19.8008 19.2846 20.061 19.2301 20.3295 19.2301C20.6721 19.2301 20.9673 19.2897 21.2152 19.407C21.4662 19.5253 21.6719 19.6909 21.8313 19.9039C21.9908 20.1137 22.1091 20.3616 22.1863 20.6486C22.2624 20.9315 22.3015 21.2421 22.3015 21.5785V21.9468H18.7207V21.2771H21.4816V21.2154C21.4693 21.0025 21.425 20.7957 21.3489 20.5951C21.2748 20.3945 21.1566 20.2289 20.994 20.0983C20.8315 19.9687 20.6104 19.9039 20.3295 19.9039C20.1433 19.9039 19.9716 19.944 19.8152 20.0232C19.6588 20.1003 19.5241 20.2155 19.4119 20.3688C19.2998 20.5221 19.2124 20.7103 19.1507 20.9315C19.089 21.1537 19.0581 21.4088 19.0581 21.6978V21.884C19.0581 22.1114 19.089 22.3264 19.1507 22.527C19.2155 22.7245 19.3091 22.8993 19.4294 23.0495C19.5539 23.2007 19.7031 23.319 19.8769 23.4044C20.0549 23.4898 20.2555 23.533 20.4797 23.533C20.7698 23.533 21.0146 23.4733 21.2152 23.355C21.4168 23.2378 21.5927 23.0793 21.7429 22.8808L22.2388 23.2758C22.1359 23.4322 22.0042 23.5813 21.8447 23.7233C21.6853 23.8652 21.4888 23.9805 21.2553 24.0689C21.0249 24.1574 20.7523 24.2016 20.4354 24.2016ZM24.4719 23.2624L25.7043 19.3185H26.2444L26.1384 20.1034L24.8844 24.1132H24.3567L24.4719 23.2624ZM23.6439 19.3185L24.6941 23.3067L24.7692 24.1132H24.2158L22.824 19.3185H23.6439ZM27.4232 23.2758L28.4251 19.3185H29.2398L27.8491 24.1132H27.2998L27.4232 23.2758ZM26.3647 19.3185L27.5692 23.1956L27.7071 24.1132H27.1846L25.8946 20.0942L25.7887 19.3185H26.3647ZM36.352 22.062H37.2027C37.1585 22.4693 37.0412 22.8345 36.853 23.1565C36.6637 23.4785 36.3963 23.7336 36.0506 23.9228C35.705 24.109 35.2739 24.2016 34.7565 24.2016C34.379 24.2016 34.0344 24.1306 33.7238 23.9887C33.4172 23.8478 33.1529 23.6461 32.9307 23.3869C32.7095 23.1236 32.5387 22.8088 32.4173 22.4426C32.299 22.0733 32.2394 21.6629 32.2394 21.2113V20.5684C32.2394 20.1168 32.299 19.7074 32.4173 19.3412C32.5387 18.9719 32.7105 18.6561 32.9358 18.3927C33.1632 18.1294 33.4357 17.9278 33.7557 17.7858C34.0745 17.6439 34.4335 17.5729 34.8316 17.5729C35.3192 17.5729 35.7317 17.6645 36.0681 17.8476C36.4055 18.0307 36.6668 18.2847 36.853 18.6098C37.0412 18.9318 37.1585 19.3052 37.2027 19.731H36.352C36.3108 19.4296 36.2337 19.1715 36.1216 18.9554C36.0095 18.7374 35.85 18.5686 35.6432 18.4504C35.4365 18.3321 35.1659 18.2734 34.8316 18.2734C34.5456 18.2734 34.2926 18.3279 34.0745 18.437C33.8585 18.546 33.6774 18.7014 33.5293 18.9019C33.3843 19.1036 33.2753 19.3443 33.2012 19.6241C33.1271 19.9049 33.0911 20.2166 33.0911 20.5591V21.2113C33.0911 21.5271 33.123 21.8233 33.1878 22.1011C33.2557 22.3788 33.3576 22.6226 33.4933 22.8325C33.6302 23.0423 33.8029 23.2079 34.0118 23.3293C34.2216 23.4466 34.4705 23.5062 34.7565 23.5062C35.1196 23.5062 35.4098 23.4486 35.6248 23.3334C35.8408 23.2182 36.0033 23.0526 36.1123 22.8366C36.2245 22.6216 36.3047 22.3634 36.352 22.062ZM41.1774 23.0053V19.3185H42.0014V24.1132H41.2166L41.1774 23.0053ZM41.3318 21.9951L41.6732 21.9859C41.6732 22.3058 41.6393 22.601 41.5714 22.8726C41.5066 23.1411 41.4007 23.3746 41.2525 23.5721C41.1044 23.7706 40.911 23.9259 40.6724 24.0381C40.4327 24.1471 40.1416 24.2016 39.7991 24.2016C39.5656 24.2016 39.3516 24.1677 39.1561 24.0998C38.9648 24.0319 38.7992 23.927 38.6603 23.785C38.5215 23.6431 38.4134 23.4589 38.3373 23.2316C38.2632 23.0043 38.2262 22.7306 38.2262 22.4117V19.3185H39.0461V22.421C39.0461 22.636 39.0697 22.815 39.117 22.9569C39.1674 23.0958 39.2333 23.2059 39.3166 23.2892C39.402 23.3684 39.4966 23.425 39.5995 23.4569C39.7065 23.4898 39.8155 23.5062 39.9276 23.5062C40.2764 23.5062 40.552 23.4394 40.7567 23.3067C40.9604 23.1709 41.1065 22.9888 41.195 22.7615C41.2865 22.5311 41.3318 22.276 41.3318 21.9951ZM46.042 22.8417C46.042 22.7234 46.0163 22.6144 45.9628 22.5136C45.9124 22.4097 45.8075 22.3171 45.648 22.2348C45.4917 22.1484 45.2551 22.0754 44.9393 22.0126C44.6729 21.9571 44.4321 21.8902 44.2172 21.8131C44.0042 21.7369 43.8222 21.6433 43.672 21.5343C43.5239 21.4253 43.4107 21.2967 43.3304 21.1485C43.2512 21.0014 43.2112 20.8286 43.2112 20.6301C43.2112 20.4408 43.2523 20.2629 43.3346 20.0942C43.421 19.9255 43.5403 19.7763 43.6936 19.6467C43.851 19.5171 44.0382 19.4152 44.2563 19.3412C44.4754 19.2671 44.7192 19.2301 44.9877 19.2301C45.3724 19.2301 45.6995 19.298 45.971 19.4338C46.2436 19.5695 46.4514 19.7516 46.5964 19.9789C46.7415 20.2032 46.8135 20.4532 46.8135 20.7278H45.9936C45.9936 20.5951 45.9536 20.4665 45.8744 20.3421C45.7972 20.2155 45.683 20.1106 45.5328 20.0273C45.3847 19.945 45.2037 19.9039 44.9877 19.9039C44.7603 19.9039 44.5762 19.9388 44.4342 20.0098C44.2953 20.0777 44.1935 20.1651 44.1287 20.2711C44.0659 20.3781 44.0351 20.4902 44.0351 20.6085C44.0351 20.697 44.0495 20.7762 44.0793 20.8471C44.1123 20.915 44.1678 20.9788 44.248 21.0385C44.3273 21.094 44.4393 21.1475 44.5844 21.1979C44.7294 21.2473 44.9136 21.2977 45.1388 21.3481C45.5318 21.4366 45.8548 21.5435 46.1089 21.667C46.3629 21.7915 46.5522 21.9437 46.6757 22.1237C46.8002 22.3037 46.8618 22.5228 46.8618 22.779C46.8618 22.9888 46.8176 23.1812 46.7292 23.355C46.6438 23.5299 46.5183 23.6801 46.3527 23.8076C46.1901 23.9311 45.9947 24.0288 45.7674 24.0998C45.5431 24.1677 45.2911 24.2016 45.0103 24.2016C44.5875 24.2016 44.2306 24.1265 43.9374 23.9753C43.6452 23.8251 43.4241 23.6297 43.2729 23.391C43.1227 23.1514 43.0465 22.8993 43.0465 22.6329H43.8715C43.8828 22.8582 43.9477 23.0361 44.066 23.1688C44.1843 23.2995 44.3293 23.3921 44.5001 23.4486C44.6719 23.5021 44.8416 23.5278 45.0103 23.5278C45.2345 23.5278 45.4217 23.499 45.5729 23.4394C45.7262 23.3807 45.8435 23.2995 45.9227 23.1956C46.0029 23.0927 46.042 22.9744 46.042 22.8417ZM49.9458 19.3185V19.9481H47.3536V19.3185H49.9458ZM48.231 18.1531H49.0509V22.9261C49.0509 23.0886 49.0766 23.211 49.126 23.2933C49.1764 23.3766 49.2412 23.4312 49.3214 23.4569C49.4006 23.4836 49.487 23.497 49.5786 23.497C49.6465 23.497 49.7174 23.4918 49.7915 23.4795C49.8676 23.4651 49.9253 23.4528 49.9643 23.4445L49.9684 24.1132C49.9036 24.1337 49.8172 24.1533 49.7113 24.1708C49.6074 24.1913 49.4819 24.2016 49.3348 24.2016C49.1342 24.2016 48.9491 24.1615 48.7803 24.0823C48.6127 24.0021 48.4779 23.8694 48.3771 23.6832C48.2804 23.4939 48.231 23.2398 48.231 22.9209V18.1531ZM50.6021 21.7688V21.667C50.6021 21.3214 50.6525 21.0014 50.7523 20.7062C50.8531 20.4069 50.9981 20.1487 51.1864 19.9306C51.3757 19.7084 51.605 19.5377 51.8735 19.4163C52.142 19.2918 52.4434 19.2301 52.7777 19.2301C53.1141 19.2301 53.4175 19.2918 53.686 19.4163C53.9576 19.5377 54.188 19.7084 54.3773 19.9306C54.5686 20.1487 54.7157 20.4069 54.8155 20.7062C54.9163 21.0014 54.9667 21.3214 54.9667 21.667V21.7688C54.9667 22.1145 54.9163 22.4354 54.8155 22.7306C54.7157 23.0259 54.5686 23.284 54.3773 23.5062C54.188 23.7243 53.9586 23.8961 53.6901 24.0206C53.4247 24.1409 53.1233 24.2016 52.7859 24.2016C52.4496 24.2016 52.1472 24.1409 51.8776 24.0206C51.6092 23.8961 51.3787 23.7243 51.1864 23.5062C50.9981 23.284 50.8531 23.0259 50.7523 22.7306C50.6525 22.4354 50.6021 22.1145 50.6021 21.7688ZM51.422 21.667V21.7688C51.422 22.0085 51.4497 22.2348 51.5063 22.4467C51.5618 22.6566 51.6462 22.8428 51.7583 23.0053C51.8735 23.1678 52.0165 23.2964 52.1883 23.391C52.3591 23.4826 52.5586 23.5278 52.7859 23.5278C53.0112 23.5278 53.2077 23.4826 53.3754 23.391C53.5472 23.2964 53.6891 23.1678 53.8012 23.0053C53.9134 22.8428 53.9977 22.6566 54.0533 22.4467C54.1129 22.2348 54.1427 22.0085 54.1427 21.7688V21.667C54.1427 21.4314 54.1129 21.2082 54.0533 20.9984C53.9977 20.7854 53.9123 20.5982 53.7971 20.4357C53.6839 20.2701 53.543 20.1405 53.3712 20.0458C53.2025 19.9512 53.0051 19.9039 52.7777 19.9039C52.5535 19.9039 52.3549 19.9512 52.1842 20.0458C52.0155 20.1405 51.8735 20.2701 51.7583 20.4357C51.6462 20.5982 51.5618 20.7854 51.5063 20.9984C51.4497 21.2082 51.422 21.4314 51.422 21.667ZM56.8101 20.2711V24.1132H55.9851V19.3185H56.7659L56.8101 20.2711ZM56.6414 21.5343L56.2608 21.5209C56.2628 21.1928 56.3061 20.8904 56.3883 20.6126C56.4717 20.3318 56.594 20.088 56.7566 19.8812C56.9191 19.6745 57.1218 19.515 57.3635 19.4029C57.6063 19.2877 57.886 19.2301 58.206 19.2301C58.4302 19.2301 58.637 19.263 58.8263 19.3278C59.0145 19.3895 59.1791 19.4883 59.3179 19.6241C59.4568 19.7609 59.5638 19.9347 59.641 20.1477C59.7181 20.3606 59.7562 20.6167 59.7562 20.9181V24.1132H58.9363V20.9582C58.9363 20.7072 58.8942 20.5067 58.8078 20.3554C58.7255 20.2053 58.6072 20.0962 58.4539 20.0273C58.2996 19.9574 58.1196 19.9213 57.9128 19.9213C57.6711 19.9213 57.4684 19.9645 57.3059 20.0499C57.1434 20.1353 57.0138 20.2536 56.916 20.4048C56.8183 20.555 56.7473 20.7278 56.7031 20.9233C56.6619 21.1146 56.6414 21.3183 56.6414 21.5343ZM59.748 21.0827L59.1976 21.2504C59.2007 20.9881 59.2439 20.735 59.3262 20.4933C59.4126 20.2505 59.535 20.0355 59.6945 19.8463C59.857 19.657 60.0565 19.5078 60.2921 19.3988C60.5287 19.2867 60.7992 19.2301 61.1037 19.2301C61.3599 19.2301 61.5882 19.264 61.7857 19.3319C61.9863 19.3998 62.155 19.5047 62.2908 19.6467C62.4297 19.7856 62.5346 19.9645 62.6055 20.1826C62.6765 20.4017 62.7115 20.661 62.7115 20.9624V24.1132H61.8875V20.9541C61.8875 20.6846 61.8443 20.4768 61.7589 20.3287C61.6767 20.1785 61.5584 20.0736 61.4051 20.015C61.2539 19.9522 61.0739 19.9213 60.864 19.9213C60.684 19.9213 60.5246 19.9522 60.3857 20.015C60.2469 20.0767 60.1296 20.1621 60.0359 20.2711C59.9413 20.3781 59.8683 20.5005 59.8179 20.6393C59.7716 20.7782 59.748 20.9253 59.748 21.0827ZM65.9415 24.2016C65.6082 24.2016 65.3058 24.1461 65.0332 24.0329C64.7648 23.9177 64.5333 23.7572 64.3378 23.5505C64.1455 23.3437 63.9984 23.0989 63.8945 22.815C63.7916 22.5311 63.7402 22.2214 63.7402 21.884V21.6978C63.7402 21.308 63.7978 20.9613 63.913 20.6568C64.0282 20.3493 64.1846 20.09 64.3821 19.8771C64.5806 19.6642 64.8048 19.5037 65.0558 19.3936C65.3068 19.2846 65.5671 19.2301 65.8356 19.2301C66.1781 19.2301 66.4733 19.2897 66.7223 19.407C66.9733 19.5253 67.178 19.6909 67.3374 19.9039C67.4969 20.1137 67.6151 20.3616 67.6923 20.6486C67.7694 20.9315 67.8075 21.2421 67.8075 21.5785V21.9468H64.2268V21.2771H66.9877V21.2154C66.9763 21.0025 66.9311 20.7957 66.855 20.5951C66.7809 20.3945 66.6626 20.2289 66.5001 20.0983C66.3375 19.9687 66.1164 19.9039 65.8356 19.9039C65.6494 19.9039 65.4786 19.944 65.3212 20.0232C65.1649 20.1003 65.0312 20.2155 64.918 20.3688C64.8059 20.5221 64.7195 20.7103 64.6567 20.9315C64.595 21.1537 64.5642 21.4088 64.5642 21.6978V21.884C64.5642 22.1114 64.595 22.3264 64.6567 22.527C64.7215 22.7245 64.8152 22.8993 64.9365 23.0495C65.06 23.2007 65.2091 23.319 65.384 23.4044C65.5609 23.4898 65.7615 23.533 65.9868 23.533C66.2759 23.533 66.5206 23.4733 66.7223 23.355C66.9229 23.2378 67.0988 23.0793 67.249 22.8808L67.7458 23.2758C67.6419 23.4322 67.5102 23.5813 67.3508 23.7233C67.1914 23.8652 66.9949 23.9805 66.7614 24.0689C66.531 24.1574 66.2584 24.2016 65.9415 24.2016ZM69.5841 20.0726V24.1132H68.7641V19.3185H69.5624L69.5841 20.0726ZM71.0818 19.2918L71.0776 20.054C71.0097 20.0396 70.9449 20.0304 70.8822 20.0273C70.8236 20.0222 70.7557 20.0191 70.6785 20.0191C70.4892 20.0191 70.3226 20.0489 70.1776 20.1075C70.0335 20.1662 69.9111 20.2495 69.8103 20.3554C69.7095 20.4624 69.6303 20.5889 69.5707 20.7371C69.5151 20.8811 69.478 21.0405 69.4606 21.2154L69.2301 21.3481C69.2301 21.059 69.258 20.7865 69.3135 20.5334C69.3732 20.2793 69.4627 20.054 69.5841 19.8596C69.7054 19.6611 69.8587 19.5078 70.0449 19.3988C70.2342 19.2867 70.4584 19.2301 70.7186 19.2301C70.7773 19.2301 70.8452 19.2373 70.9223 19.2527C70.9995 19.264 71.052 19.2774 71.0818 19.2918Z" fill="#4B4B4B"/>
<path d="M20.9229 41.1509C20.9229 41.9594 20.7337 42.6425 20.3561 43.1979C19.9776 43.7472 19.4581 44.1639 18.7956 44.4467C18.1404 44.7245 17.3957 44.8633 16.5624 44.8633C15.7303 44.8633 14.9824 44.7245 14.321 44.4467C13.6595 44.1639 13.1359 43.7472 12.7522 43.1979C12.3685 42.6425 12.1762 41.9594 12.1762 41.1509C12.1762 40.6067 12.2853 40.1171 12.5044 39.6789C12.7224 39.2366 13.0269 38.858 13.4167 38.5453C13.8128 38.2264 14.2767 37.9836 14.8086 37.818C15.3404 37.6473 15.9185 37.5619 16.5449 37.5619C17.3843 37.5619 18.1342 37.709 18.7956 38.0042C19.4581 38.2994 19.9776 38.716 20.3561 39.254C20.7337 39.792 20.9229 40.4236 20.9229 41.1509ZM18.3533 40.9822C18.3533 40.5862 18.2762 40.2467 18.1229 39.9628C17.9748 39.6737 17.7649 39.4515 17.4934 39.2983C17.2218 39.145 16.906 39.0678 16.5449 39.0678C16.1849 39.0678 15.8691 39.145 15.5965 39.2983C15.3249 39.4515 15.112 39.6737 14.9587 39.9628C14.8116 40.2467 14.7375 40.5862 14.7375 40.9822C14.7375 41.3721 14.8116 41.7084 14.9587 41.9923C15.112 42.2763 15.3249 42.4943 15.5965 42.6486C15.8742 42.7957 16.1962 42.8698 16.5624 42.8698C16.9297 42.8698 17.2455 42.7957 17.5109 42.6486C17.7824 42.4943 17.9892 42.2763 18.1311 41.9923C18.2792 41.7084 18.3533 41.3721 18.3533 40.9822ZM20.6483 35.2042C20.6483 35.8594 20.4744 36.4417 20.1257 36.9498C19.777 37.4518 19.2925 37.8448 18.6722 38.1287C18.0581 38.4126 17.3545 38.5535 16.5624 38.5535C15.7652 38.5535 15.0565 38.4126 14.4362 38.1287C13.8159 37.8448 13.3314 37.4518 12.9827 36.9498C12.6339 36.4417 12.4601 35.8594 12.4601 35.2042C12.4601 34.4245 12.6339 33.7682 12.9827 33.2364C13.3375 32.6994 13.8221 32.291 14.4362 32.0133C15.0565 31.7366 15.759 31.5977 16.5449 31.5977C17.3432 31.5977 18.0489 31.7366 18.663 32.0133C19.2833 32.291 19.7677 32.6994 20.1164 33.2364C20.4713 33.7682 20.6483 34.4245 20.6483 35.2042ZM18.0962 35.3194C18.0962 34.9707 18.0345 34.6693 17.91 34.4152C17.7855 34.155 17.6086 33.9544 17.3781 33.8124C17.1539 33.6715 16.8762 33.6005 16.5449 33.6005C16.226 33.6005 15.9514 33.6684 15.721 33.8042C15.4968 33.94 15.3218 34.1375 15.1984 34.3977C15.0801 34.6518 15.0205 34.9594 15.0205 35.3194C15.0205 35.6681 15.0801 35.9747 15.1984 36.2411C15.3218 36.5013 15.4998 36.705 15.7302 36.8521C15.9607 37.0002 16.2384 37.0743 16.5624 37.0743C16.8875 37.0743 17.1622 37.0002 17.3874 36.8521C17.6179 36.705 17.7917 36.5013 17.91 36.2411C18.0345 35.9747 18.0962 35.6681 18.0962 35.3194ZM24.4584 42.7453H24.6271C25.3359 42.7453 25.9449 42.66 26.453 42.4882C26.9674 42.3112 27.3891 42.0571 27.7204 41.7269C28.0506 41.3957 28.2964 40.9915 28.4558 40.5121C28.6153 40.0276 28.6945 39.4783 28.6945 38.8642V36.418C28.6945 35.951 28.6482 35.5406 28.5536 35.1867C28.4641 34.8318 28.3344 34.5397 28.1637 34.3092C27.9981 34.0727 27.8026 33.8957 27.5784 33.7774C27.3593 33.6591 27.1176 33.6005 26.8522 33.6005C26.5683 33.6005 26.3172 33.6715 26.0981 33.8124C25.88 33.9482 25.6939 34.1344 25.5396 34.371C25.3925 34.6076 25.2773 34.8791 25.195 35.1867C25.1178 35.4881 25.0798 35.8039 25.0798 36.1341C25.0798 36.4653 25.1178 36.7811 25.195 37.0825C25.2711 37.3778 25.3863 37.6411 25.5396 37.8715C25.6939 38.0958 25.8852 38.2758 26.1156 38.4126C26.3461 38.5422 26.6186 38.607 26.9313 38.607C27.2327 38.607 27.5012 38.5515 27.7378 38.4383C27.9806 38.321 28.1843 38.1667 28.3489 37.9775C28.5207 37.7892 28.6502 37.5794 28.7397 37.349C28.8333 37.1185 28.8807 36.885 28.8807 36.6484L29.7232 37.1093C29.7232 37.5228 29.6347 37.9302 29.4567 38.3324C29.2798 38.7346 29.0319 39.1008 28.713 39.431C28.3992 39.756 28.0361 40.0163 27.6226 40.2107C27.2091 40.4061 26.7657 40.5039 26.2936 40.5039C25.6908 40.5039 25.1559 40.3938 24.6889 40.1757C24.2229 39.9515 23.8268 39.6439 23.5018 39.254C23.1829 38.858 22.9401 38.3972 22.7756 37.8715C22.6099 37.3459 22.5266 36.776 22.5266 36.1608C22.5266 35.5354 22.6275 34.947 22.828 34.3977C23.0348 33.8484 23.3279 33.3639 23.7055 32.9442C24.0902 32.5245 24.5479 32.1974 25.0798 31.9608C25.6167 31.718 26.2133 31.5977 26.8696 31.5977C27.5249 31.5977 28.1215 31.7242 28.6595 31.9783C29.1975 32.2324 29.6584 32.5924 30.0421 33.0594C30.4258 33.5203 30.7209 34.0727 30.9277 34.7166C31.1406 35.3605 31.2477 36.0755 31.2477 36.8614V37.747C31.2477 38.5864 31.1561 39.3662 30.973 40.0873C30.795 40.8073 30.5265 41.4605 30.1665 42.0458C29.8116 42.625 29.3683 43.1208 28.8365 43.5343C28.3108 43.9478 27.6998 44.2636 27.0023 44.4827C26.3049 44.7008 25.5252 44.8109 24.6632 44.8109H24.4584V42.7453Z" fill="#4B4B4B"/>
<path d="M15.83 52.4529L13.6462 57.4933H18.1147L15.83 52.4529Z" fill="#0C9D61"/>
<path d="M25.7741 51.3851V51.9858L23.5913 57.0304H22.4124L24.5953 52.2574H21.785V51.3851H25.7741ZM26.4839 52.7697V52.4714C26.4839 52.2564 26.5302 52.0609 26.6238 51.885C26.7164 51.7102 26.8532 51.5692 27.0343 51.4633C27.2153 51.3573 27.4375 51.3038 27.7009 51.3038C27.9724 51.3038 28.1987 51.3573 28.3797 51.4633C28.5628 51.5692 28.7007 51.7102 28.7912 51.885C28.8838 52.0609 28.9301 52.2564 28.9301 52.4714V52.7697C28.9301 52.9785 28.8838 53.1709 28.7912 53.3468C28.7007 53.5227 28.5649 53.6636 28.3839 53.7696C28.2028 53.8755 27.9796 53.929 27.7132 53.929C27.4436 53.929 27.2184 53.8755 27.0343 53.7696C26.8532 53.6636 26.7164 53.5227 26.6238 53.3468C26.5302 53.1709 26.4839 52.9785 26.4839 52.7697ZM27.2246 52.4714V52.7697C27.2246 52.8602 27.241 52.9466 27.275 53.0289C27.311 53.1092 27.3655 53.175 27.4375 53.2274C27.5126 53.2758 27.6031 53.3005 27.7091 53.3005C27.8202 53.3005 27.9107 53.2758 27.9806 53.2274C28.0506 53.175 28.102 53.1092 28.136 53.0289C28.1689 52.9466 28.1864 52.8602 28.1864 52.7697V52.4714C28.1864 52.3757 28.1678 52.2872 28.1318 52.207C28.0979 52.1247 28.0454 52.0589 27.9724 52.0095C27.9024 51.9581 27.813 51.9323 27.7009 51.9323C27.598 51.9323 27.5105 51.9581 27.4375 52.0095C27.3655 52.0589 27.311 52.1247 27.275 52.207C27.241 52.2872 27.2246 52.3757 27.2246 52.4714ZM29.1821 55.9452V55.6458C29.1821 55.4339 29.2294 55.2405 29.322 55.0646C29.4177 54.8887 29.5555 54.7478 29.7366 54.6419C29.9207 54.5359 30.1449 54.4834 30.4113 54.4834C30.6798 54.4834 30.9051 54.5359 31.0861 54.6419C31.2672 54.7478 31.404 54.8887 31.4966 55.0646C31.5902 55.2405 31.6365 55.4339 31.6365 55.6458V55.9452C31.6365 56.1571 31.5902 56.3505 31.4966 56.5264C31.4061 56.7023 31.2713 56.8432 31.0903 56.9491C30.9092 57.0551 30.685 57.1076 30.4196 57.1076C30.1501 57.1076 29.9238 57.0551 29.7407 56.9491C29.5576 56.8432 29.4177 56.7023 29.322 56.5264C29.2294 56.3505 29.1821 56.1571 29.1821 55.9452ZM29.9269 55.6458V55.9452C29.9269 56.0377 29.9475 56.1262 29.9886 56.2085C30.0297 56.2908 30.0873 56.3566 30.1593 56.406C30.2344 56.4554 30.3209 56.4801 30.4196 56.4801C30.5431 56.4801 30.6397 56.4554 30.7097 56.406C30.7796 56.3566 30.828 56.2908 30.8537 56.2085C30.8815 56.1262 30.8958 56.0377 30.8958 55.9452V55.6458C30.8958 55.5532 30.8784 55.4668 30.8413 55.3866C30.8053 55.3033 30.7508 55.2374 30.6788 55.1891C30.6088 55.1366 30.5204 55.1109 30.4113 55.1109C30.3033 55.1109 30.2128 55.1366 30.1398 55.1891C30.0698 55.2374 30.0174 55.3033 29.9814 55.3866C29.9454 55.4668 29.9269 55.5532 29.9269 55.6458ZM30.687 52.1916L27.9302 56.6035L27.3871 56.3165L30.1439 51.9046L30.687 52.1916Z" fill="#0B9D61"/>
<path d="M36.9588 57.4121L38.1058 53.8642H38.8392L37.3301 58.0591H36.8498L36.9588 57.4121ZM36.0011 53.8642L37.183 57.4306L37.2643 58.0591H36.7839L35.2646 53.8642H36.0011ZM41.9715 56.9461C41.9715 56.8432 41.9478 56.7475 41.9016 56.6591C41.8573 56.5685 41.7657 56.4873 41.6269 56.4153C41.489 56.3402 41.2823 56.2754 41.0066 56.2209C40.7731 56.1725 40.5632 56.1139 40.3739 56.047C40.1878 55.9801 40.0294 55.8979 39.8977 55.8022C39.7681 55.7065 39.6683 55.5944 39.5984 55.4648C39.5294 55.3362 39.4945 55.185 39.4945 55.0112C39.4945 54.8466 39.5304 54.6902 39.6024 54.5421C39.6775 54.395 39.7825 54.2643 39.9162 54.1512C40.0541 54.037 40.2176 53.9485 40.409 53.8837C40.6003 53.8189 40.8132 53.786 41.0487 53.786C41.3851 53.786 41.6722 53.8457 41.9098 53.965C42.1474 54.0833 42.3295 54.2427 42.456 54.4413C42.5825 54.6378 42.6463 54.8568 42.6463 55.0965H41.9293C41.9293 54.9803 41.8943 54.8682 41.8244 54.7602C41.7575 54.648 41.6578 54.5565 41.5261 54.4845C41.3965 54.4125 41.237 54.3754 41.0487 54.3754C40.8502 54.3754 40.6877 54.4073 40.5643 54.469C40.4429 54.5287 40.3534 54.6048 40.2968 54.6974C40.2423 54.791 40.2155 54.8887 40.2155 54.9926C40.2155 55.0698 40.2279 55.1397 40.2536 55.2015C40.2824 55.2611 40.3318 55.3167 40.4018 55.3681C40.4707 55.4175 40.5694 55.4638 40.696 55.508C40.8225 55.5522 40.984 55.5954 41.1805 55.6397C41.524 55.7168 41.8069 55.8104 42.0301 55.9184C42.2523 56.0275 42.4179 56.1602 42.5259 56.3186C42.635 56.476 42.6884 56.6673 42.6884 56.8915C42.6884 57.0757 42.6504 57.2434 42.5722 57.3956C42.4971 57.5489 42.3881 57.6805 42.243 57.7916C42.1011 57.8996 41.9303 57.985 41.7308 58.0478C41.5343 58.1064 41.3142 58.1362 41.0683 58.1362C40.699 58.1362 40.3863 58.0704 40.1301 57.9387C39.874 57.8071 39.6806 57.6363 39.5479 57.4275C39.4163 57.2176 39.3504 56.9965 39.3504 56.764H40.0716C40.0819 56.9605 40.1394 57.1168 40.2423 57.2331C40.3462 57.3472 40.4727 57.4285 40.6219 57.4779C40.7721 57.5242 40.9212 57.5468 41.0683 57.5468C41.2648 57.5468 41.4284 57.5211 41.5611 57.4697C41.6948 57.4182 41.7966 57.3473 41.8666 57.2567C41.9365 57.1662 41.9715 57.0623 41.9715 56.9461ZM49.133 57.4501V58.0591H46.3104V57.4501H49.133ZM46.4575 52.4138V58.0591H45.7086V52.4138H46.4575ZM52.3548 57.3421V55.1819C52.3548 55.0173 52.3209 54.8733 52.254 54.7519C52.1892 54.6275 52.0904 54.5318 51.9588 54.4649C51.8271 54.3981 51.6646 54.3641 51.4702 54.3641C51.2891 54.3641 51.1307 54.395 50.9939 54.4577C50.8591 54.5194 50.7532 54.6007 50.676 54.7015C50.6009 54.8023 50.5629 54.9103 50.5629 55.0276H49.8459C49.8459 54.8774 49.885 54.7283 49.9622 54.5812C50.0403 54.4341 50.1514 54.3003 50.2954 54.1821C50.4425 54.0607 50.6184 53.965 50.8231 53.895C51.0299 53.823 51.2603 53.786 51.5134 53.786C51.8179 53.786 52.0874 53.8385 52.3199 53.9413C52.5544 54.0452 52.7385 54.2016 52.8702 54.4104C53.0049 54.6172 53.0718 54.8774 53.0718 55.1901V57.1436C53.0718 57.2835 53.0831 57.4326 53.1068 57.59C53.1325 57.7474 53.1695 57.8832 53.2189 57.9974V58.0591H52.471C52.435 57.9768 52.4062 57.8667 52.3857 57.7299C52.3651 57.59 52.3548 57.4604 52.3548 57.3421ZM52.4783 55.5152L52.4865 56.0192H51.7613C51.5566 56.0192 51.3745 56.0367 51.215 56.0696C51.0546 56.1015 50.9198 56.1489 50.8118 56.2137C50.7028 56.2785 50.6205 56.3597 50.5629 56.4574C50.5063 56.5531 50.4775 56.6663 50.4775 56.7949C50.4775 56.9265 50.5074 57.0469 50.567 57.1559C50.6267 57.2639 50.7161 57.3514 50.8344 57.4151C50.9558 57.4779 51.105 57.5087 51.2809 57.5087C51.5 57.5087 51.6944 57.4625 51.8621 57.3688C52.0298 57.2763 52.1635 57.1621 52.2612 57.0273C52.362 56.8936 52.4166 56.763 52.4238 56.6364L52.7303 56.981C52.7128 57.0901 52.6634 57.2104 52.5832 57.3421C52.5029 57.4738 52.396 57.6003 52.2612 57.7217C52.1295 57.841 51.9721 57.9398 51.788 58.02C51.607 58.0982 51.4033 58.1362 51.176 58.1362C50.891 58.1362 50.6421 58.0807 50.4271 57.9696C50.2152 57.8585 50.0506 57.7104 49.9313 57.5242C49.815 57.3349 49.7564 57.125 49.7564 56.8915C49.7564 56.6673 49.8006 56.4698 49.8891 56.299C49.9765 56.1252 50.1031 55.9822 50.2687 55.868C50.4343 55.7518 50.6328 55.6644 50.8653 55.6047C51.0978 55.545 51.358 55.5152 51.645 55.5152H52.4783ZM56.6423 56.9461C56.6423 56.8432 56.6196 56.7475 56.5723 56.6591C56.5291 56.5685 56.4366 56.4873 56.2977 56.4153C56.1609 56.3402 55.9541 56.2754 55.6774 56.2209C55.4449 56.1725 55.234 56.1139 55.0448 56.047C54.8586 55.9801 54.7002 55.8979 54.5685 55.8022C54.4389 55.7065 54.3391 55.5944 54.2702 55.4648C54.2002 55.3362 54.1653 55.185 54.1653 55.0112C54.1653 54.8466 54.2013 54.6902 54.2733 54.5421C54.3484 54.395 54.4533 54.2643 54.5881 54.1512C54.7249 54.037 54.8884 53.9485 55.0797 53.8837C55.2711 53.8189 55.485 53.786 55.7196 53.786C56.056 53.786 56.3429 53.8457 56.5805 53.965C56.8182 54.0833 57.0003 54.2427 57.1268 54.4413C57.2543 54.6378 57.3171 54.8568 57.3171 55.0965H56.6001C56.6001 54.9803 56.5652 54.8682 56.4952 54.7602C56.4284 54.648 56.3285 54.5565 56.1969 54.4845C56.0673 54.4125 55.9089 54.3754 55.7196 54.3754C55.5211 54.3754 55.3595 54.4073 55.2351 54.469C55.1137 54.5287 55.0242 54.6048 54.9676 54.6974C54.9131 54.791 54.8864 54.8887 54.8864 54.9926C54.8864 55.0698 54.8987 55.1397 54.9255 55.2015C54.9533 55.2611 55.0026 55.3167 55.0725 55.3681C55.1425 55.4175 55.2402 55.4638 55.3667 55.508C55.4933 55.5522 55.6548 55.5954 55.8512 55.6397C56.1958 55.7168 56.4787 55.8104 56.7009 55.9184C56.9231 56.0275 57.0887 56.1602 57.1967 56.3186C57.3058 56.476 57.3603 56.6673 57.3603 56.8915C57.3603 57.0757 57.3212 57.2434 57.2431 57.3956C57.169 57.5489 57.0589 57.6805 56.9139 57.7916C56.7719 57.8996 56.6012 57.985 56.4026 58.0478C56.2061 58.1064 55.985 58.1362 55.7391 58.1362C55.3698 58.1362 55.0571 58.0704 54.801 57.9387C54.5448 57.8071 54.3515 57.6363 54.2198 57.4275C54.0871 57.2176 54.0213 56.9965 54.0213 56.764H54.7423C54.7526 56.9605 54.8102 57.1168 54.9131 57.2331C55.017 57.3472 55.1435 57.4285 55.2937 57.4779C55.4429 57.5242 55.592 57.5468 55.7391 57.5468C55.9356 57.5468 56.1002 57.5211 56.2318 57.4697C56.3656 57.4182 56.4684 57.3473 56.5374 57.2567C56.6073 57.1662 56.6423 57.0623 56.6423 56.9461ZM60.0585 53.8642V54.4145H57.7903V53.8642H60.0585ZM58.5576 52.8448H59.2746V57.0201C59.2746 57.1621 59.2973 57.2691 59.3415 57.3421C59.3847 57.4141 59.4423 57.4625 59.5112 57.4851C59.5812 57.5088 59.6563 57.5201 59.7365 57.5201C59.7962 57.5201 59.8579 57.5149 59.9227 57.5046C59.9896 57.4913 60.0399 57.481 60.0739 57.4738L60.078 58.0591C60.0204 58.0776 59.9464 58.0941 59.8528 58.1095C59.7622 58.128 59.6522 58.1362 59.5236 58.1362C59.3477 58.1362 59.1862 58.1013 59.0391 58.0323C58.8909 57.9624 58.7737 57.8462 58.6862 57.6826C58.6008 57.518 58.5576 57.2948 58.5576 57.016V52.8448ZM63.2144 52.4138H63.9397L65.7882 57.016L67.6346 52.4138H68.3629L66.0679 58.0591H65.5022L63.2144 52.4138ZM62.9778 52.4138H63.6176L63.7226 55.8567V58.0591H62.9778V52.4138ZM67.9556 52.4138H68.5954V58.0591H67.8517V55.8567L67.9556 52.4138ZM69.6117 56.0079V55.9184C69.6117 55.616 69.6559 55.3362 69.7434 55.078C69.8308 54.8167 69.9584 54.5904 70.123 54.3991C70.2886 54.2057 70.4891 54.0555 70.7247 53.9496C70.9592 53.8405 71.2226 53.786 71.5147 53.786C71.8099 53.786 72.0743 53.8405 72.3099 53.9496C72.5475 54.0555 72.7491 54.2057 72.9147 54.3991C73.0824 54.5904 73.211 54.8167 73.2984 55.078C73.3869 55.3362 73.4301 55.616 73.4301 55.9184V56.0079C73.4301 56.3104 73.3869 56.5912 73.2984 56.8494C73.211 57.1076 73.0824 57.3339 72.9147 57.5283C72.7491 57.7196 72.5496 57.8688 72.314 57.9778C72.0815 58.0838 71.8171 58.1362 71.5229 58.1362C71.2287 58.1362 70.9634 58.0838 70.7278 57.9778C70.4933 57.8688 70.2917 57.7196 70.123 57.5283C69.9584 57.3339 69.8308 57.1076 69.7434 56.8494C69.6559 56.5912 69.6117 56.3104 69.6117 56.0079ZM70.3287 55.9184V56.0079C70.3287 56.2178 70.3533 56.4153 70.4027 56.6015C70.4511 56.7846 70.5252 56.9481 70.6239 57.0901C70.7247 57.232 70.8492 57.3442 70.9994 57.4275C71.1495 57.5077 71.3234 57.5468 71.5229 57.5468C71.7194 57.5468 71.8912 57.5077 72.0383 57.4275C72.1885 57.3442 72.313 57.232 72.4107 57.0901C72.5095 56.9481 72.5825 56.7846 72.6318 56.6015C72.6833 56.4153 72.709 56.2178 72.709 56.0079V55.9184C72.709 55.7117 72.6833 55.5172 72.6318 55.3331C72.5825 55.1469 72.5074 54.9834 72.4066 54.8414C72.3088 54.6964 72.1844 54.5822 72.0342 54.4999C71.8871 54.4176 71.7143 54.3754 71.5147 54.3754C71.3182 54.3754 71.1454 54.4176 70.9952 54.4999C70.8481 54.5822 70.7247 54.6964 70.6239 54.8414C70.5252 54.9834 70.4511 55.1469 70.4027 55.3331C70.3533 55.5172 70.3287 55.7117 70.3287 55.9184ZM75.0472 54.7602V58.0591H74.3302V53.8642H75.008L75.0472 54.7602ZM74.8764 55.8022L74.5781 55.7909C74.5812 55.5039 74.6233 55.2395 74.7056 54.9957C74.7889 54.7509 74.9052 54.5369 75.0554 54.3569C75.2045 54.1759 75.3835 54.036 75.5903 53.9372C75.7991 53.8364 76.0306 53.786 76.2836 53.786C76.4904 53.786 76.6766 53.8148 76.8422 53.8714C77.0078 53.9259 77.1487 54.0144 77.265 54.1357C77.3843 54.2571 77.4738 54.4145 77.5365 54.6089C77.5982 54.7992 77.6291 55.0338 77.6291 55.3105V58.0591H76.908V55.3023C76.908 55.0832 76.8761 54.9073 76.8113 54.7756C76.7465 54.6408 76.6519 54.5441 76.5284 54.4845C76.404 54.4228 76.2517 54.3909 76.0707 54.3909C75.8927 54.3909 75.7292 54.4289 75.5821 54.504C75.437 54.5791 75.3125 54.682 75.2066 54.8137C75.1027 54.9453 75.0214 55.0965 74.9618 55.2673C74.9052 55.436 74.8764 55.614 74.8764 55.8022ZM80.4754 53.8642V54.4145H78.2072V53.8642H80.4754ZM78.9746 52.8448H79.6916V57.0201C79.6916 57.1621 79.7142 57.2691 79.7574 57.3421C79.8016 57.4141 79.8582 57.4625 79.9282 57.4851C79.9981 57.5088 80.0732 57.5201 80.1534 57.5201C80.2131 57.5201 80.2748 57.5149 80.3397 57.5046C80.4065 57.4913 80.4569 57.481 80.4908 57.4738L80.495 58.0591C80.4374 58.0776 80.3623 58.0941 80.2697 58.1095C80.1792 58.128 80.0691 58.1362 79.9405 58.1362C79.7646 58.1362 79.6031 58.1013 79.455 58.0323C79.3079 57.9624 79.1906 57.8462 79.1032 57.6826C79.0178 57.518 78.9746 57.2948 78.9746 57.016V52.8448ZM82.0338 52.1041V58.0591H81.3168V52.1041H82.0338ZM81.8631 55.8022L81.5648 55.7909C81.5668 55.5039 81.6101 55.2395 81.6923 54.9957C81.7757 54.7509 81.8919 54.5369 82.0411 54.3569C82.1912 54.1759 82.3702 54.036 82.577 53.9372C82.7858 53.8364 83.0173 53.786 83.2703 53.786C83.4771 53.786 83.6632 53.8148 83.8289 53.8714C83.9945 53.9259 84.1354 54.0144 84.2516 54.1357C84.3699 54.2571 84.4604 54.4145 84.5232 54.6089C84.5849 54.7992 84.6158 55.0338 84.6158 55.3105V58.0591H83.8947V55.3023C83.8947 55.0832 83.8628 54.9073 83.798 54.7756C83.7332 54.6408 83.6386 54.5441 83.5151 54.4845C83.3906 54.4228 83.2384 54.3909 83.0574 54.3909C82.8794 54.3909 82.7159 54.4289 82.5688 54.504C82.4237 54.5791 82.2982 54.682 82.1922 54.8137C82.0894 54.9453 82.0081 55.0965 81.9484 55.2673C81.8919 55.436 81.8631 55.614 81.8631 55.8022Z" fill="#4B4B4B"/>
<path d="M188.299 38.0008C188.299 27.9772 180.173 19.8514 170.15 19.8514C160.126 19.8514 152 27.9772 152 38.0008C152 48.0244 160.126 56.1501 170.15 56.1501C180.173 56.1501 188.299 48.0244 188.299 38.0008Z" fill="#EBF2FF"/>
<path d="M173.768 32.9298C173.768 35.1713 171.867 36.9859 169.52 36.9859C167.172 36.9859 165.271 35.1713 165.271 32.9298C165.271 30.6894 167.172 28.8738 169.52 28.8738C171.867 28.8738 173.768 30.6894 173.768 32.9298ZM171.222 43.7462C171.226 41.5398 173.063 39.7345 175.372 39.6635C174.876 39.3456 174.338 39.0987 173.768 38.93C173.601 38.8796 173.435 38.8416 173.265 38.8045L173.117 38.7778C172.982 38.7541 172.847 38.7367 172.71 38.7202L172.55 38.7037C172.369 38.7037 172.196 38.676 171.998 38.676H167.042C166.854 38.676 166.67 38.676 166.489 38.7037L166.33 38.7202C166.192 38.7202 166.057 38.7541 165.923 38.7778L165.777 38.8045C165.605 38.8416 165.424 38.8796 165.271 38.93C162.747 39.6738 161.023 41.9008 161.023 44.4231C161.023 45.9167 162.29 47.1264 163.856 47.1264H173.098C171.927 46.3663 171.222 45.0989 171.222 43.7462Z" fill="url(#paint0_linear_102_3167)"/>
<path d="M175.655 40.2035H175.647C173.645 40.2035 172.026 41.7558 172.026 43.668C172.026 45.5814 173.652 47.1305 175.655 47.1264C177.657 47.1264 179.28 45.5742 179.277 43.6619C179.277 41.7527 177.654 40.2035 175.655 40.2035ZM177.482 44.0044H176.046V45.3756C176.046 45.5639 175.884 45.7182 175.687 45.7182C175.489 45.7182 175.328 45.5639 175.328 45.3756V44.0044H173.892C173.695 44.0044 173.533 43.8501 173.533 43.6619C173.533 43.4736 173.695 43.3193 173.892 43.3193H175.328V41.9481C175.328 41.7599 175.489 41.6056 175.687 41.6056C175.884 41.6056 176.046 41.7599 176.046 41.9481V43.3193H177.482C177.679 43.3193 177.841 43.4736 177.841 43.6619C177.841 43.8501 177.679 44.0044 177.482 44.0044Z" fill="url(#paint1_linear_102_3167)"/>
<path d="M184.296 12.2112L186.031 13.943L187.766 12.2112L188.299 12.7444L186.031 15.0126L183.762 12.7444L184.296 12.2112Z" fill="black"/>
<defs>
<linearGradient id="paint0_linear_102_3167" x1="168.198" y1="28.8738" x2="168.198" y2="47.1264" gradientUnits="userSpaceOnUse">
<stop stop-color="#316DE3"/>
<stop offset="1" stop-color="#1351CB"/>
</linearGradient>
<linearGradient id="paint1_linear_102_3167" x1="175.651" y1="40.2035" x2="175.651" y2="47.1264" gradientUnits="userSpaceOnUse">
<stop stop-color="#FFAD0D"/>
<stop offset="1" stop-color="#EA9F0C"/>
</linearGradient>
</defs>
</svg>
