<svg width="338" height="283" viewBox="0 0 338 283" fill="none" xmlns="http://www.w3.org/2000/svg">
<g filter="url(#filter0_d_102_432)">
<path d="M330 3H8C5.79086 3 4 4.79086 4 7V274C4 276.209 5.79086 278 8 278H330C332.209 278 334 276.209 334 274V7C334 4.79086 332.209 3 330 3Z" fill="white"/>
<mask id="mask0_102_432" style="mask-type:luminance" maskUnits="userSpaceOnUse" x="4" y="3" width="330" height="44">
<path d="M4 3H334V47H4V3Z" fill="white"/>
</mask>
<g mask="url(#mask0_102_432)">
<path d="M334 46.5H4V47.5H334V46.5Z" fill="#CAD3DB"/>
</g>
<path d="M31.333 30V22.421H28.584V20.84H35.998V22.421H33.25V30H31.333ZM37.395 30V23.011H39.248V30H37.395ZM38.328 21.938C38.044 21.938 37.799 21.839 37.591 21.64C37.384 21.437 37.28 21.194 37.28 20.91C37.28 20.622 37.384 20.379 37.591 20.18C37.799 19.977 38.044 19.875 38.328 19.875C38.615 19.875 38.861 19.977 39.064 20.18C39.267 20.379 39.369 20.622 39.369 20.91C39.369 21.194 39.267 21.437 39.064 21.64C38.861 21.839 38.615 21.938 38.328 21.938ZM44.193 30.146C43.465 30.146 42.845 30.004 42.333 29.721C41.825 29.433 41.438 29.018 41.171 28.477C40.905 27.931 40.771 27.271 40.771 26.496V26.483C40.771 25.713 40.905 25.059 41.171 24.522C41.438 23.985 41.825 23.574 42.333 23.291C42.845 23.003 43.465 22.859 44.193 22.859C44.811 22.859 45.342 22.965 45.786 23.176C46.23 23.388 46.582 23.686 46.84 24.071C47.098 24.456 47.255 24.909 47.31 25.43V25.449H45.589L45.583 25.436C45.52 25.097 45.371 24.827 45.139 24.624C44.91 24.416 44.597 24.312 44.199 24.312C43.869 24.312 43.588 24.397 43.355 24.566C43.126 24.731 42.953 24.975 42.834 25.296C42.716 25.618 42.657 26.014 42.657 26.483V26.496C42.657 26.966 42.716 27.366 42.834 27.696C42.957 28.022 43.133 28.269 43.361 28.438C43.59 28.608 43.869 28.692 44.199 28.692C44.58 28.692 44.885 28.604 45.113 28.426C45.342 28.248 45.496 27.981 45.577 27.626L45.589 27.607L47.303 27.601V27.645C47.236 28.149 47.073 28.589 46.814 28.965C46.556 29.342 46.207 29.634 45.767 29.841C45.327 30.044 44.802 30.146 44.193 30.146ZM48.82 30V20.339H50.674V30H48.82ZM53.219 30L51.074 26.966L52.458 25.855L55.409 30H53.219ZM50.547 27.791L50.483 25.772H50.788L53.124 23.011H55.225L52.35 26.185L51.359 26.928L50.547 27.791ZM59.23 30.146C58.524 30.146 57.914 30 57.402 29.708C56.895 29.412 56.503 28.993 56.228 28.451C55.953 27.91 55.815 27.264 55.815 26.515V26.509C55.815 25.768 55.951 25.125 56.222 24.579C56.497 24.033 56.884 23.61 57.383 23.31C57.887 23.009 58.477 22.859 59.154 22.859C59.836 22.859 60.424 23.005 60.919 23.297C61.414 23.589 61.795 23.997 62.062 24.522C62.328 25.047 62.461 25.662 62.461 26.369V26.947H56.742V25.785H61.573L60.703 26.883V26.141C60.703 25.722 60.638 25.373 60.506 25.093C60.379 24.814 60.202 24.604 59.973 24.465C59.749 24.321 59.486 24.249 59.186 24.249C58.89 24.249 58.625 24.323 58.393 24.471C58.164 24.615 57.982 24.829 57.847 25.112C57.715 25.392 57.65 25.734 57.65 26.141V26.89C57.65 27.283 57.715 27.62 57.847 27.899C57.978 28.178 58.164 28.392 58.405 28.54C58.646 28.688 58.934 28.762 59.269 28.762C59.539 28.762 59.77 28.722 59.96 28.642C60.151 28.561 60.303 28.468 60.417 28.362C60.536 28.252 60.616 28.153 60.659 28.064L60.678 28.026H62.404L62.392 28.089C62.337 28.309 62.237 28.54 62.093 28.781C61.949 29.018 61.75 29.24 61.497 29.448C61.247 29.655 60.934 29.824 60.557 29.956C60.185 30.083 59.743 30.146 59.23 30.146ZM66.879 30.025C66.033 30.025 65.424 29.877 65.051 29.581C64.679 29.281 64.493 28.792 64.493 28.115V24.408H63.414V23.011H64.493V21.342H66.365V23.011H67.806V24.408H66.365V27.689C66.365 28.003 66.435 28.233 66.575 28.381C66.719 28.525 66.947 28.597 67.26 28.597C67.379 28.597 67.476 28.595 67.552 28.591C67.633 28.582 67.717 28.574 67.806 28.565V29.943C67.692 29.964 67.554 29.983 67.394 30C67.233 30.017 67.061 30.025 66.879 30.025ZM72.065 30.146C71.431 30.146 70.889 30.059 70.44 29.886C69.996 29.708 69.647 29.465 69.393 29.156C69.143 28.847 68.997 28.493 68.955 28.096L68.949 28.07H70.771L70.783 28.096C70.859 28.312 71.003 28.489 71.215 28.629C71.431 28.769 71.721 28.838 72.084 28.838C72.321 28.838 72.529 28.807 72.707 28.743C72.884 28.675 73.024 28.584 73.125 28.47C73.227 28.356 73.278 28.223 73.278 28.07V28.058C73.278 27.871 73.202 27.717 73.049 27.594C72.897 27.472 72.643 27.37 72.288 27.29L71.12 27.042C70.675 26.949 70.305 26.813 70.009 26.636C69.713 26.454 69.49 26.232 69.342 25.969C69.198 25.707 69.126 25.402 69.126 25.055V25.049C69.126 24.609 69.247 24.226 69.488 23.9C69.734 23.57 70.074 23.314 70.51 23.132C70.95 22.95 71.46 22.859 72.04 22.859C72.649 22.859 73.168 22.952 73.595 23.138C74.023 23.32 74.351 23.566 74.579 23.875C74.812 24.179 74.941 24.52 74.966 24.896V24.922H73.246L73.24 24.89C73.189 24.7 73.062 24.533 72.859 24.389C72.656 24.241 72.381 24.167 72.034 24.167C71.822 24.167 71.634 24.198 71.469 24.262C71.304 24.325 71.173 24.414 71.075 24.528C70.982 24.643 70.936 24.778 70.936 24.935V24.941C70.936 25.064 70.967 25.172 71.031 25.265C71.094 25.358 71.198 25.438 71.342 25.506C71.486 25.574 71.678 25.635 71.919 25.69L73.081 25.938C73.779 26.09 74.296 26.318 74.63 26.623C74.964 26.928 75.131 27.338 75.131 27.854V27.861C75.131 28.322 75 28.724 74.738 29.067C74.475 29.41 74.114 29.676 73.652 29.867C73.191 30.053 72.662 30.146 72.065 30.146ZM81.143 30V28.572H83.809C84.363 28.572 84.784 28.458 85.072 28.229C85.364 28 85.51 27.668 85.51 27.232V27.22C85.51 26.936 85.442 26.697 85.307 26.502C85.175 26.308 84.979 26.162 84.716 26.064C84.458 25.963 84.141 25.912 83.764 25.912H81.143V24.649H83.542C84.058 24.649 84.454 24.545 84.729 24.338C85.004 24.131 85.142 23.839 85.142 23.462V23.449C85.142 23.077 85.015 22.787 84.761 22.58C84.511 22.368 84.158 22.262 83.701 22.262H81.143V20.84H84.189C84.786 20.84 85.294 20.933 85.713 21.12C86.136 21.302 86.46 21.564 86.684 21.907C86.913 22.245 87.027 22.649 87.027 23.119V23.132C87.027 23.453 86.953 23.754 86.805 24.033C86.661 24.312 86.464 24.545 86.214 24.731C85.965 24.918 85.683 25.034 85.37 25.081V25.195C85.776 25.224 86.136 25.339 86.449 25.538C86.767 25.736 87.014 25.995 87.192 26.312C87.374 26.629 87.465 26.983 87.465 27.372V27.385C87.465 27.918 87.336 28.381 87.078 28.775C86.824 29.164 86.46 29.467 85.986 29.683C85.516 29.894 84.953 30 84.297 30H81.143ZM80.184 30V20.84H82.101V30H80.184ZM89.845 32.463C89.739 32.463 89.629 32.461 89.515 32.457C89.401 32.452 89.289 32.448 89.179 32.444V31.047C89.242 31.056 89.316 31.06 89.401 31.06C89.49 31.064 89.576 31.066 89.661 31.066C89.991 31.066 90.254 31.001 90.448 30.87C90.643 30.738 90.772 30.537 90.835 30.267L90.899 30L88.442 23.011H90.48L92.149 29.042L91.724 28.305H92.276L91.87 29.042L93.54 23.011H95.495L93.114 29.994C92.911 30.607 92.664 31.094 92.372 31.454C92.084 31.818 91.735 32.076 91.324 32.228C90.914 32.385 90.421 32.463 89.845 32.463ZM103.594 30.235C102.866 30.235 102.234 30.125 101.696 29.905C101.159 29.685 100.736 29.376 100.427 28.978C100.122 28.576 99.951 28.104 99.913 27.562L99.906 27.461H101.753L101.76 27.524C101.785 27.753 101.878 27.954 102.039 28.127C102.204 28.297 102.424 28.43 102.699 28.527C102.974 28.625 103.29 28.673 103.645 28.673C103.988 28.673 104.288 28.623 104.546 28.521C104.805 28.419 105.006 28.28 105.149 28.102C105.298 27.92 105.372 27.713 105.372 27.48V27.474C105.372 27.173 105.249 26.932 105.003 26.75C104.762 26.568 104.356 26.418 103.785 26.299L102.82 26.103C101.868 25.908 101.176 25.588 100.744 25.144C100.312 24.7 100.097 24.131 100.097 23.437V23.43C100.097 22.863 100.247 22.368 100.547 21.945C100.848 21.522 101.26 21.194 101.785 20.961C102.31 20.724 102.911 20.605 103.588 20.605C104.299 20.605 104.908 20.722 105.416 20.955C105.928 21.183 106.328 21.498 106.616 21.9C106.903 22.298 107.066 22.753 107.104 23.265L107.111 23.348H105.308L105.295 23.271C105.257 23.051 105.164 22.859 105.016 22.694C104.872 22.529 104.678 22.4 104.432 22.307C104.191 22.209 103.91 22.161 103.588 22.161C103.275 22.161 103 22.207 102.763 22.3C102.526 22.393 102.342 22.525 102.21 22.694C102.079 22.859 102.014 23.056 102.014 23.284V23.291C102.014 23.587 102.132 23.83 102.369 24.021C102.61 24.207 103 24.355 103.537 24.465L104.508 24.662C105.156 24.793 105.683 24.971 106.089 25.195C106.499 25.419 106.802 25.701 106.997 26.039C107.191 26.378 107.289 26.786 107.289 27.264V27.271C107.289 27.876 107.138 28.4 106.838 28.845C106.542 29.285 106.116 29.628 105.562 29.873C105.012 30.114 104.356 30.235 103.594 30.235ZM111.821 30.025C110.974 30.025 110.365 29.877 109.993 29.581C109.62 29.281 109.434 28.792 109.434 28.115V24.408H108.355V23.011H109.434V21.342H111.307V23.011H112.748V24.408H111.307V27.689C111.307 28.003 111.376 28.233 111.516 28.381C111.66 28.525 111.889 28.597 112.202 28.597C112.32 28.597 112.417 28.595 112.494 28.591C112.574 28.582 112.659 28.574 112.748 28.565V29.943C112.633 29.964 112.496 29.983 112.335 30C112.174 30.017 112.003 30.025 111.821 30.025ZM116.194 30.108C115.754 30.108 115.361 30.023 115.014 29.854C114.671 29.681 114.402 29.437 114.208 29.124C114.013 28.807 113.916 28.436 113.916 28.013V28C113.916 27.582 114.019 27.222 114.227 26.921C114.438 26.621 114.745 26.386 115.147 26.217C115.553 26.043 116.046 25.94 116.626 25.906L119.229 25.747V26.877L116.905 27.029C116.507 27.05 116.211 27.135 116.017 27.283C115.822 27.431 115.725 27.632 115.725 27.886V27.899C115.725 28.166 115.826 28.375 116.029 28.527C116.232 28.68 116.495 28.756 116.816 28.756C117.104 28.756 117.36 28.699 117.584 28.584C117.809 28.47 117.986 28.316 118.118 28.121C118.249 27.922 118.314 27.7 118.314 27.455V25.227C118.314 24.922 118.213 24.689 118.01 24.528C117.811 24.363 117.521 24.281 117.14 24.281C116.806 24.281 116.533 24.338 116.321 24.452C116.114 24.562 115.974 24.721 115.902 24.928L115.89 24.954H114.176L114.182 24.896C114.233 24.486 114.387 24.128 114.646 23.824C114.908 23.519 115.259 23.282 115.699 23.113C116.144 22.944 116.658 22.859 117.242 22.859C117.86 22.859 118.384 22.954 118.816 23.145C119.248 23.331 119.576 23.602 119.8 23.957C120.028 24.308 120.143 24.731 120.143 25.227V30H118.314V29.073H118.2C118.082 29.289 117.923 29.475 117.724 29.632C117.529 29.784 117.301 29.903 117.039 29.987C116.78 30.068 116.499 30.108 116.194 30.108ZM124.859 30.025C124.013 30.025 123.403 29.877 123.031 29.581C122.658 29.281 122.472 28.792 122.472 28.115V24.408H121.393V23.011H122.472V21.342H124.345V23.011H125.786V24.408H124.345V27.689C124.345 28.003 124.415 28.233 124.554 28.381C124.698 28.525 124.927 28.597 125.24 28.597C125.358 28.597 125.456 28.595 125.532 28.591C125.612 28.582 125.697 28.574 125.786 28.565V29.943C125.671 29.964 125.534 29.983 125.373 30C125.212 30.017 125.041 30.025 124.859 30.025ZM129.639 30.146C129.118 30.146 128.68 30.044 128.325 29.841C127.973 29.638 127.709 29.342 127.531 28.953C127.354 28.559 127.265 28.085 127.265 27.531V23.011H129.118V27.105C129.118 27.601 129.215 27.975 129.41 28.229C129.609 28.483 129.929 28.61 130.369 28.61C130.597 28.61 130.798 28.574 130.972 28.502C131.149 28.426 131.298 28.32 131.416 28.185C131.535 28.049 131.623 27.886 131.683 27.696C131.746 27.501 131.778 27.285 131.778 27.048V23.011H133.631V30H131.778V28.921H131.664C131.558 29.175 131.41 29.395 131.219 29.581C131.029 29.763 130.8 29.903 130.534 30C130.267 30.097 129.969 30.146 129.639 30.146ZM138.271 30.146C137.637 30.146 137.095 30.059 136.646 29.886C136.202 29.708 135.853 29.465 135.599 29.156C135.349 28.847 135.203 28.493 135.161 28.096L135.155 28.07H136.977L136.989 28.096C137.065 28.312 137.209 28.489 137.421 28.629C137.637 28.769 137.927 28.838 138.291 28.838C138.528 28.838 138.735 28.807 138.913 28.743C139.09 28.675 139.23 28.584 139.332 28.47C139.433 28.356 139.484 28.223 139.484 28.07V28.058C139.484 27.871 139.408 27.717 139.255 27.594C139.103 27.472 138.849 27.37 138.494 27.29L137.326 27.042C136.881 26.949 136.511 26.813 136.215 26.636C135.919 26.454 135.696 26.232 135.548 25.969C135.404 25.707 135.333 25.402 135.333 25.055V25.049C135.333 24.609 135.453 24.226 135.694 23.9C135.94 23.57 136.28 23.314 136.716 23.132C137.156 22.95 137.666 22.859 138.246 22.859C138.855 22.859 139.374 22.952 139.801 23.138C140.229 23.32 140.557 23.566 140.785 23.875C141.018 24.179 141.147 24.52 141.172 24.896V24.922H139.452L139.446 24.89C139.395 24.7 139.268 24.533 139.065 24.389C138.862 24.241 138.587 24.167 138.24 24.167C138.028 24.167 137.84 24.198 137.675 24.262C137.51 24.325 137.379 24.414 137.281 24.528C137.188 24.643 137.142 24.778 137.142 24.935V24.941C137.142 25.064 137.173 25.172 137.237 25.265C137.3 25.358 137.404 25.438 137.548 25.506C137.692 25.574 137.884 25.635 138.125 25.69L139.287 25.938C139.985 26.09 140.502 26.318 140.836 26.623C141.17 26.928 141.337 27.338 141.337 27.854V27.861C141.337 28.322 141.206 28.724 140.944 29.067C140.681 29.41 140.32 29.676 139.858 29.867C139.397 30.053 138.868 30.146 138.271 30.146Z" fill="#454F5B"/>
<path d="M55.629 97.199C54.82 97.199 54.127 97.02 53.549 96.66C52.971 96.297 52.525 95.783 52.213 95.119C51.904 94.455 51.75 93.674 51.75 92.775V92.764C51.75 91.857 51.906 91.074 52.219 90.414C52.535 89.754 52.982 89.244 53.561 88.885C54.143 88.525 54.832 88.346 55.629 88.346C56.43 88.346 57.119 88.525 57.697 88.885C58.279 89.244 58.727 89.756 59.039 90.42C59.352 91.08 59.508 91.861 59.508 92.764V92.775C59.508 93.674 59.352 94.455 59.039 95.119C58.73 95.779 58.285 96.291 57.703 96.654C57.125 97.018 56.434 97.199 55.629 97.199ZM55.629 96.227C56.207 96.227 56.705 96.084 57.123 95.799C57.541 95.514 57.863 95.113 58.09 94.598C58.316 94.078 58.43 93.471 58.43 92.775V92.764C58.43 92.061 58.316 91.451 58.09 90.936C57.863 90.42 57.541 90.021 57.123 89.74C56.705 89.459 56.207 89.318 55.629 89.318C55.055 89.318 54.559 89.459 54.141 89.74C53.723 90.021 53.398 90.42 53.168 90.936C52.941 91.451 52.828 92.061 52.828 92.764V92.775C52.828 93.471 52.939 94.078 53.162 94.598C53.385 95.113 53.705 95.514 54.123 95.799C54.541 96.084 55.043 96.227 55.629 96.227ZM61.207 99.109V90.684H62.227V91.691H62.32C62.449 91.457 62.611 91.258 62.807 91.094C63.002 90.926 63.225 90.797 63.475 90.707C63.725 90.617 63.996 90.572 64.289 90.572C64.824 90.572 65.289 90.709 65.684 90.982C66.082 91.252 66.391 91.631 66.609 92.119C66.828 92.607 66.938 93.18 66.938 93.836V93.848C66.938 94.508 66.828 95.082 66.609 95.57C66.391 96.059 66.082 96.438 65.684 96.707C65.289 96.977 64.824 97.111 64.289 97.111C64 97.111 63.727 97.066 63.469 96.977C63.215 96.883 62.988 96.754 62.789 96.59C62.594 96.426 62.438 96.23 62.32 96.004H62.227V99.109H61.207ZM64.055 96.209C64.441 96.209 64.771 96.115 65.045 95.928C65.318 95.736 65.527 95.465 65.672 95.113C65.82 94.758 65.895 94.336 65.895 93.848V93.836C65.895 93.344 65.82 92.922 65.672 92.57C65.527 92.219 65.318 91.949 65.045 91.762C64.771 91.57 64.441 91.475 64.055 91.475C63.672 91.475 63.342 91.57 63.064 91.762C62.787 91.953 62.574 92.225 62.426 92.576C62.277 92.928 62.203 93.348 62.203 93.836V93.848C62.203 94.332 62.277 94.752 62.426 95.107C62.574 95.459 62.787 95.73 63.064 95.922C63.342 96.113 63.672 96.209 64.055 96.209ZM71.109 97.111C70.508 97.111 69.99 96.979 69.557 96.713C69.127 96.447 68.795 96.072 68.561 95.588C68.33 95.1 68.215 94.525 68.215 93.865V93.859C68.215 93.207 68.33 92.635 68.561 92.143C68.795 91.65 69.125 91.266 69.551 90.988C69.977 90.711 70.475 90.572 71.045 90.572C71.619 90.572 72.111 90.705 72.521 90.971C72.936 91.236 73.252 91.607 73.471 92.084C73.693 92.557 73.805 93.107 73.805 93.736V94.135H68.742V93.32H73.283L72.779 94.064V93.66C72.779 93.164 72.705 92.756 72.557 92.436C72.408 92.115 72.203 91.877 71.941 91.721C71.68 91.561 71.379 91.48 71.039 91.48C70.699 91.48 70.395 91.564 70.125 91.732C69.859 91.896 69.648 92.141 69.492 92.465C69.336 92.789 69.258 93.188 69.258 93.66V94.064C69.258 94.514 69.334 94.898 69.486 95.219C69.639 95.535 69.855 95.779 70.137 95.951C70.418 96.119 70.75 96.203 71.133 96.203C71.418 96.203 71.666 96.164 71.877 96.086C72.088 96.008 72.262 95.908 72.398 95.787C72.535 95.666 72.631 95.543 72.686 95.418L72.709 95.365H73.729L73.717 95.412C73.662 95.627 73.564 95.836 73.424 96.039C73.287 96.238 73.109 96.42 72.891 96.584C72.672 96.744 72.412 96.873 72.111 96.971C71.814 97.064 71.48 97.111 71.109 97.111ZM75.387 97V90.684H76.406V91.633H76.5C76.66 91.297 76.891 91.037 77.191 90.854C77.492 90.666 77.875 90.572 78.34 90.572C79.051 90.572 79.596 90.775 79.975 91.182C80.357 91.584 80.549 92.16 80.549 92.91V97H79.529V93.156C79.529 92.586 79.408 92.164 79.166 91.891C78.928 91.613 78.557 91.475 78.053 91.475C77.717 91.475 77.426 91.547 77.18 91.691C76.934 91.836 76.742 92.041 76.605 92.307C76.473 92.572 76.406 92.891 76.406 93.262V97H75.387Z" fill="#454F5B"/>
<path d="M268 90.5H96C94.8954 90.5 94 91.3954 94 92.5V93.5C94 94.6046 94.8954 95.5 96 95.5H268C269.105 95.5 270 94.6046 270 93.5V92.5C270 91.3954 269.105 90.5 268 90.5Z" fill="#F4F6F8"/>
<path opacity="0.8" d="M143 90.5H96C94.8954 90.5 94 91.3954 94 92.5V93.5C94 94.6046 94.8954 95.5 96 95.5H143C144.105 95.5 145 94.6046 145 93.5V92.5C145 91.3954 144.105 90.5 143 90.5Z" fill="#006FD6"/>
<path d="M282.92 97V90.215H282.82L280.74 91.656V90.062L282.93 88.545H284.69V97H282.92ZM290.2 97.217C289.6 97.217 289.07 97.107 288.62 96.889C288.17 96.67 287.81 96.373 287.54 95.998C287.28 95.619 287.13 95.195 287.1 94.727L287.09 94.645H288.7L288.71 94.686C288.75 94.893 288.84 95.082 288.97 95.254C289.11 95.422 289.28 95.557 289.49 95.658C289.7 95.756 289.94 95.805 290.21 95.805C290.51 95.805 290.78 95.738 291.01 95.605C291.24 95.473 291.42 95.291 291.55 95.061C291.68 94.826 291.75 94.559 291.75 94.258V94.246C291.75 93.945 291.68 93.68 291.55 93.449C291.42 93.219 291.24 93.039 291.01 92.91C290.78 92.781 290.51 92.717 290.21 92.717C290 92.717 289.81 92.748 289.63 92.811C289.45 92.869 289.29 92.959 289.14 93.08C289.06 93.143 288.99 93.215 288.92 93.297C288.85 93.375 288.79 93.459 288.75 93.549H287.23L287.62 88.545H292.91V89.951H289L288.79 92.359H288.89C289.01 92.168 289.15 92.004 289.33 91.867C289.51 91.73 289.71 91.625 289.94 91.551C290.18 91.477 290.43 91.439 290.7 91.439C291.23 91.439 291.69 91.559 292.1 91.797C292.51 92.035 292.83 92.363 293.06 92.781C293.29 93.195 293.41 93.672 293.41 94.211V94.223C293.41 94.816 293.28 95.338 293 95.787C292.73 96.236 292.36 96.588 291.87 96.842C291.39 97.092 290.83 97.217 290.2 97.217ZM298.22 97.217C297.52 97.217 296.92 97.037 296.42 96.678C295.92 96.314 295.53 95.801 295.26 95.137C294.99 94.473 294.86 93.686 294.86 92.775V92.764C294.86 91.85 294.99 91.062 295.26 90.402C295.53 89.738 295.92 89.227 296.42 88.867C296.92 88.508 297.52 88.328 298.22 88.328C298.92 88.328 299.52 88.508 300.02 88.867C300.52 89.227 300.9 89.738 301.17 90.402C301.44 91.062 301.57 91.85 301.57 92.764V92.775C301.57 93.686 301.44 94.473 301.17 95.137C300.9 95.801 300.52 96.314 300.02 96.678C299.52 97.037 298.92 97.217 298.22 97.217ZM298.22 95.816C298.55 95.816 298.84 95.695 299.07 95.453C299.3 95.211 299.48 94.863 299.6 94.41C299.72 93.957 299.79 93.412 299.79 92.775V92.764C299.79 92.123 299.72 91.578 299.6 91.129C299.48 90.676 299.3 90.33 299.07 90.092C298.84 89.85 298.55 89.729 298.22 89.729C297.88 89.729 297.6 89.85 297.37 90.092C297.14 90.33 296.96 90.676 296.83 91.129C296.71 91.578 296.65 92.123 296.65 92.764V92.775C296.65 93.412 296.71 93.957 296.83 94.41C296.96 94.863 297.14 95.211 297.37 95.453C297.6 95.695 297.88 95.816 298.22 95.816Z" fill="#454F5B"/>
<path d="M19.078 125V116.545H20.133V125H19.078ZM22.16 125V118.684H23.18V119.633H23.273C23.434 119.297 23.664 119.037 23.965 118.854C24.266 118.666 24.648 118.572 25.113 118.572C25.824 118.572 26.369 118.775 26.748 119.182C27.131 119.584 27.322 120.16 27.322 120.91V125H26.303V121.156C26.303 120.586 26.182 120.164 25.939 119.891C25.701 119.613 25.33 119.475 24.826 119.475C24.49 119.475 24.199 119.547 23.953 119.691C23.707 119.836 23.516 120.041 23.379 120.307C23.246 120.572 23.18 120.891 23.18 121.262V125H22.16ZM33.199 121.982V121.045H35.59C36.195 121.045 36.664 120.889 36.996 120.576C37.328 120.26 37.494 119.824 37.494 119.27V119.258C37.494 118.699 37.328 118.264 36.996 117.951C36.664 117.639 36.195 117.482 35.59 117.482H33.199V116.545H35.859C36.391 116.545 36.859 116.658 37.266 116.885C37.672 117.111 37.99 117.428 38.221 117.834C38.455 118.24 38.572 118.711 38.572 119.246V119.258C38.572 119.793 38.455 120.266 38.221 120.676C37.99 121.086 37.672 121.406 37.266 121.637C36.859 121.867 36.391 121.982 35.859 121.982H33.199ZM32.672 125V116.545H33.727V125H32.672ZM40.172 125V118.684H41.191V119.621H41.285C41.406 119.289 41.611 119.031 41.9 118.848C42.189 118.664 42.547 118.572 42.973 118.572C43.07 118.572 43.166 118.578 43.26 118.59C43.357 118.598 43.432 118.605 43.482 118.613V119.604C43.377 119.584 43.273 119.57 43.172 119.562C43.074 119.551 42.969 119.545 42.855 119.545C42.531 119.545 42.244 119.609 41.994 119.738C41.744 119.867 41.547 120.047 41.402 120.277C41.262 120.508 41.191 120.777 41.191 121.086V125H40.172ZM47.162 125.111C46.564 125.111 46.047 124.98 45.609 124.719C45.176 124.453 44.84 124.076 44.602 123.588C44.367 123.1 44.25 122.52 44.25 121.848V121.836C44.25 121.16 44.367 120.578 44.602 120.09C44.84 119.602 45.176 119.227 45.609 118.965C46.047 118.703 46.564 118.572 47.162 118.572C47.764 118.572 48.281 118.703 48.715 118.965C49.148 119.227 49.482 119.602 49.717 120.09C49.955 120.578 50.074 121.16 50.074 121.836V121.848C50.074 122.52 49.955 123.1 49.717 123.588C49.482 124.076 49.148 124.453 48.715 124.719C48.281 124.98 47.764 125.111 47.162 125.111ZM47.162 124.209C47.561 124.209 47.898 124.115 48.176 123.928C48.453 123.74 48.664 123.471 48.809 123.119C48.957 122.768 49.031 122.344 49.031 121.848V121.836C49.031 121.336 48.957 120.91 48.809 120.559C48.664 120.207 48.453 119.939 48.176 119.756C47.898 119.568 47.561 119.475 47.162 119.475C46.764 119.475 46.426 119.568 46.148 119.756C45.871 119.939 45.658 120.207 45.51 120.559C45.365 120.91 45.293 121.336 45.293 121.836V121.848C45.293 122.344 45.365 122.768 45.51 123.119C45.658 123.471 45.871 123.74 46.148 123.928C46.426 124.115 46.764 124.209 47.162 124.209ZM54.258 127.227C53.75 127.227 53.307 127.154 52.928 127.01C52.549 126.869 52.246 126.668 52.02 126.406C51.797 126.148 51.658 125.848 51.604 125.504L51.615 125.498H52.67L52.676 125.504C52.73 125.742 52.895 125.938 53.168 126.09C53.441 126.246 53.805 126.324 54.258 126.324C54.824 126.324 55.266 126.195 55.582 125.938C55.902 125.684 56.062 125.324 56.062 124.859V123.582H55.969C55.836 123.812 55.67 124.01 55.471 124.174C55.271 124.338 55.047 124.463 54.797 124.549C54.547 124.631 54.277 124.672 53.988 124.672C53.445 124.672 52.975 124.543 52.576 124.285C52.182 124.023 51.877 123.664 51.662 123.207C51.447 122.75 51.34 122.227 51.34 121.637V121.625C51.34 121.035 51.447 120.512 51.662 120.055C51.881 119.594 52.189 119.232 52.588 118.971C52.986 118.705 53.461 118.572 54.012 118.572C54.309 118.572 54.582 118.619 54.832 118.713C55.082 118.807 55.303 118.939 55.494 119.111C55.689 119.283 55.852 119.488 55.98 119.727H56.051V118.684H57.07V124.912C57.07 125.381 56.955 125.789 56.725 126.137C56.498 126.484 56.174 126.752 55.752 126.939C55.33 127.131 54.832 127.227 54.258 127.227ZM54.211 123.77C54.602 123.77 54.936 123.68 55.213 123.5C55.494 123.316 55.709 123.064 55.857 122.744C56.01 122.424 56.086 122.055 56.086 121.637V121.625C56.086 121.207 56.01 120.836 55.857 120.512C55.709 120.188 55.494 119.934 55.213 119.75C54.936 119.566 54.602 119.475 54.211 119.475C53.82 119.475 53.488 119.566 53.215 119.75C52.945 119.934 52.738 120.188 52.594 120.512C52.453 120.836 52.383 121.207 52.383 121.625V121.637C52.383 122.055 52.453 122.424 52.594 122.744C52.738 123.064 52.945 123.316 53.215 123.5C53.488 123.68 53.82 123.77 54.211 123.77ZM58.969 125V118.684H59.988V119.621H60.082C60.203 119.289 60.408 119.031 60.697 118.848C60.986 118.664 61.344 118.572 61.77 118.572C61.867 118.572 61.963 118.578 62.057 118.59C62.154 118.598 62.229 118.605 62.279 118.613V119.604C62.174 119.584 62.07 119.57 61.969 119.562C61.871 119.551 61.766 119.545 61.652 119.545C61.328 119.545 61.041 119.609 60.791 119.738C60.541 119.867 60.344 120.047 60.199 120.277C60.059 120.508 59.988 120.777 59.988 121.086V125H58.969ZM65.941 125.111C65.34 125.111 64.822 124.979 64.389 124.713C63.959 124.447 63.627 124.072 63.393 123.588C63.162 123.1 63.047 122.525 63.047 121.865V121.859C63.047 121.207 63.162 120.635 63.393 120.143C63.627 119.65 63.957 119.266 64.383 118.988C64.809 118.711 65.307 118.572 65.877 118.572C66.451 118.572 66.943 118.705 67.354 118.971C67.768 119.236 68.084 119.607 68.303 120.084C68.525 120.557 68.637 121.107 68.637 121.736V122.135H63.574V121.32H68.115L67.611 122.064V121.66C67.611 121.164 67.537 120.756 67.389 120.436C67.24 120.115 67.035 119.877 66.773 119.721C66.512 119.561 66.211 119.48 65.871 119.48C65.531 119.48 65.227 119.564 64.957 119.732C64.691 119.896 64.48 120.141 64.324 120.465C64.168 120.789 64.09 121.188 64.09 121.66V122.064C64.09 122.514 64.166 122.898 64.318 123.219C64.471 123.535 64.688 123.779 64.969 123.951C65.25 124.119 65.582 124.203 65.965 124.203C66.25 124.203 66.498 124.164 66.709 124.086C66.92 124.008 67.094 123.908 67.23 123.787C67.367 123.666 67.463 123.543 67.518 123.418L67.541 123.365H68.561L68.549 123.412C68.494 123.627 68.396 123.836 68.256 124.039C68.119 124.238 67.941 124.42 67.723 124.584C67.504 124.744 67.244 124.873 66.943 124.971C66.646 125.064 66.312 125.111 65.941 125.111ZM72.387 125.111C71.918 125.111 71.504 125.041 71.145 124.9C70.785 124.756 70.496 124.555 70.277 124.297C70.062 124.039 69.936 123.736 69.896 123.389H70.939C71.025 123.65 71.193 123.861 71.443 124.021C71.693 124.182 72.02 124.262 72.422 124.262C72.707 124.262 72.957 124.221 73.172 124.139C73.391 124.053 73.562 123.938 73.688 123.793C73.812 123.645 73.875 123.475 73.875 123.283V123.271C73.875 123.057 73.789 122.875 73.617 122.727C73.445 122.574 73.164 122.451 72.773 122.357L71.795 122.123C71.4 122.029 71.076 121.908 70.822 121.76C70.568 121.607 70.381 121.422 70.26 121.203C70.139 120.98 70.078 120.719 70.078 120.418V120.412C70.078 120.061 70.18 119.746 70.383 119.469C70.59 119.191 70.871 118.973 71.227 118.812C71.582 118.652 71.982 118.572 72.428 118.572C72.869 118.572 73.26 118.643 73.6 118.783C73.943 118.92 74.219 119.115 74.426 119.369C74.637 119.623 74.766 119.922 74.812 120.266H73.811C73.744 120.016 73.592 119.812 73.354 119.656C73.115 119.5 72.805 119.422 72.422 119.422C72.172 119.422 71.949 119.463 71.754 119.545C71.559 119.623 71.404 119.732 71.291 119.873C71.178 120.014 71.121 120.178 71.121 120.365V120.377C71.121 120.518 71.158 120.643 71.232 120.752C71.307 120.861 71.422 120.957 71.578 121.039C71.734 121.121 71.936 121.193 72.182 121.256L73.154 121.49C73.748 121.635 74.189 121.842 74.479 122.111C74.771 122.381 74.918 122.742 74.918 123.195V123.207C74.918 123.582 74.807 123.914 74.584 124.203C74.361 124.488 74.059 124.711 73.676 124.871C73.297 125.031 72.867 125.111 72.387 125.111ZM78.551 125.111C78.082 125.111 77.668 125.041 77.309 124.9C76.949 124.756 76.66 124.555 76.441 124.297C76.227 124.039 76.1 123.736 76.061 123.389H77.104C77.189 123.65 77.357 123.861 77.607 124.021C77.857 124.182 78.184 124.262 78.586 124.262C78.871 124.262 79.121 124.221 79.336 124.139C79.555 124.053 79.727 123.938 79.852 123.793C79.977 123.645 80.039 123.475 80.039 123.283V123.271C80.039 123.057 79.953 122.875 79.781 122.727C79.609 122.574 79.328 122.451 78.938 122.357L77.959 122.123C77.564 122.029 77.24 121.908 76.986 121.76C76.732 121.607 76.545 121.422 76.424 121.203C76.303 120.98 76.242 120.719 76.242 120.418V120.412C76.242 120.061 76.344 119.746 76.547 119.469C76.754 119.191 77.035 118.973 77.391 118.812C77.746 118.652 78.146 118.572 78.592 118.572C79.033 118.572 79.424 118.643 79.764 118.783C80.107 118.92 80.383 119.115 80.59 119.369C80.801 119.623 80.93 119.922 80.977 120.266H79.975C79.908 120.016 79.756 119.812 79.518 119.656C79.279 119.5 78.969 119.422 78.586 119.422C78.336 119.422 78.113 119.463 77.918 119.545C77.723 119.623 77.568 119.732 77.455 119.873C77.342 120.014 77.285 120.178 77.285 120.365V120.377C77.285 120.518 77.322 120.643 77.396 120.752C77.471 120.861 77.586 120.957 77.742 121.039C77.898 121.121 78.1 121.193 78.346 121.256L79.318 121.49C79.912 121.635 80.354 121.842 80.643 122.111C80.936 122.381 81.082 122.742 81.082 123.195V123.207C81.082 123.582 80.971 123.914 80.748 124.203C80.525 124.488 80.223 124.711 79.84 124.871C79.461 125.031 79.031 125.111 78.551 125.111Z" fill="#454F5B"/>
<path d="M268 118.5H96C94.8954 118.5 94 119.395 94 120.5V121.5C94 122.605 94.8954 123.5 96 123.5H268C269.105 123.5 270 122.605 270 121.5V120.5C270 119.395 269.105 118.5 268 118.5Z" fill="#F4F6F8"/>
<path opacity="0.8" d="M268 118.5H96C94.8954 118.5 94 119.395 94 120.5V121.5C94 122.605 94.8954 123.5 96 123.5H268C269.105 123.5 270 122.605 270 121.5V120.5C270 119.395 269.105 118.5 268 118.5Z" fill="#006FD6"/>
<path d="M284.22 125.217C283.73 125.217 283.28 125.129 282.85 124.953C282.43 124.777 282.06 124.51 281.74 124.15C281.42 123.791 281.18 123.338 281 122.791C280.82 122.244 280.73 121.598 280.73 120.852V120.84C280.73 119.898 280.87 119.092 281.15 118.42C281.44 117.744 281.84 117.227 282.37 116.867C282.89 116.508 283.51 116.328 284.23 116.328C284.78 116.328 285.27 116.428 285.71 116.627C286.14 116.826 286.5 117.098 286.79 117.441C287.07 117.785 287.26 118.178 287.34 118.619L287.35 118.678H285.62L285.6 118.625C285.54 118.445 285.44 118.291 285.31 118.162C285.18 118.029 285.03 117.926 284.85 117.852C284.67 117.777 284.47 117.74 284.24 117.74C283.83 117.74 283.5 117.861 283.23 118.104C282.97 118.346 282.78 118.674 282.64 119.088C282.51 119.502 282.44 119.965 282.41 120.477C282.41 120.535 282.41 120.594 282.41 120.652C282.41 120.707 282.41 120.766 282.41 120.828L282.67 122.24C282.67 122.537 282.74 122.805 282.88 123.043C283.01 123.281 283.2 123.471 283.43 123.611C283.67 123.748 283.93 123.816 284.21 123.816C284.5 123.816 284.76 123.748 284.99 123.611C285.22 123.475 285.41 123.291 285.54 123.061C285.68 122.826 285.75 122.564 285.75 122.275V122.264C285.75 121.967 285.69 121.705 285.55 121.479C285.42 121.248 285.24 121.066 285.01 120.934C284.78 120.801 284.52 120.734 284.22 120.734C283.94 120.734 283.67 120.799 283.44 120.928C283.21 121.057 283.02 121.234 282.88 121.461C282.74 121.684 282.67 121.941 282.67 122.234V122.24H282.32V120.67H282.53C282.63 120.451 282.78 120.248 282.97 120.061C283.16 119.873 283.4 119.723 283.69 119.609C283.98 119.492 284.32 119.434 284.71 119.434C285.26 119.434 285.74 119.553 286.15 119.791C286.57 120.029 286.89 120.357 287.12 120.775C287.35 121.193 287.46 121.67 287.46 122.205V122.217C287.46 122.791 287.33 123.305 287.05 123.758C286.78 124.211 286.39 124.568 285.91 124.83C285.42 125.088 284.86 125.217 284.22 125.217ZM292.26 125.217C291.66 125.217 291.13 125.107 290.68 124.889C290.23 124.67 289.87 124.373 289.6 123.998C289.34 123.619 289.19 123.195 289.16 122.727L289.15 122.645H290.76L290.77 122.686C290.81 122.893 290.9 123.082 291.03 123.254C291.17 123.422 291.34 123.557 291.55 123.658C291.77 123.756 292 123.805 292.27 123.805C292.57 123.805 292.84 123.738 293.07 123.605C293.3 123.473 293.48 123.291 293.61 123.061C293.74 122.826 293.81 122.559 293.81 122.258V122.246C293.81 121.945 293.74 121.68 293.61 121.449C293.48 121.219 293.3 121.039 293.07 120.91C292.84 120.781 292.58 120.717 292.28 120.717C292.06 120.717 291.87 120.748 291.69 120.811C291.51 120.869 291.35 120.959 291.2 121.08C291.12 121.143 291.05 121.215 290.98 121.297C290.91 121.375 290.86 121.459 290.81 121.549H289.29L289.69 116.545H294.97V117.951H291.06L290.85 120.359H290.96C291.07 120.168 291.21 120.004 291.39 119.867C291.57 119.73 291.78 119.625 292.01 119.551C292.24 119.477 292.49 119.439 292.76 119.439C293.29 119.439 293.76 119.559 294.16 119.797C294.57 120.035 294.89 120.363 295.12 120.781C295.36 121.195 295.47 121.672 295.47 122.211V122.223C295.47 122.816 295.34 123.338 295.06 123.787C294.79 124.236 294.42 124.588 293.93 124.842C293.45 125.092 292.9 125.217 292.26 125.217ZM300.28 125.217C299.58 125.217 298.98 125.037 298.48 124.678C297.98 124.314 297.6 123.801 297.33 123.137C297.06 122.473 296.92 121.686 296.92 120.775V120.764C296.92 119.85 297.06 119.062 297.33 118.402C297.6 117.738 297.98 117.227 298.48 116.867C298.98 116.508 299.58 116.328 300.28 116.328C300.98 116.328 301.58 116.508 302.08 116.867C302.58 117.227 302.96 117.738 303.23 118.402C303.5 119.062 303.64 119.85 303.64 120.764V120.775C303.64 121.686 303.5 122.473 303.23 123.137C302.96 123.801 302.58 124.314 302.08 124.678C301.58 125.037 300.98 125.217 300.28 125.217ZM300.28 123.816C300.62 123.816 300.9 123.695 301.13 123.453C301.36 123.211 301.54 122.863 301.66 122.41C301.79 121.957 301.85 121.412 301.85 120.775V120.764C301.85 120.123 301.79 119.578 301.66 119.129C301.54 118.676 301.36 118.33 301.13 118.092C300.9 117.85 300.62 117.729 300.28 117.729C299.95 117.729 299.66 117.85 299.43 118.092C299.2 118.33 299.02 118.676 298.9 119.129C298.78 119.578 298.71 120.123 298.71 120.764V120.775C298.71 121.412 298.78 121.957 298.9 122.41C299.02 122.863 299.2 123.211 299.43 123.453C299.66 123.695 299.95 123.816 300.28 123.816Z" fill="#454F5B"/>
<path d="M39.629 153.199C38.82 153.199 38.127 153.02 37.549 152.66C36.971 152.297 36.525 151.783 36.213 151.119C35.904 150.455 35.75 149.674 35.75 148.775V148.764C35.75 147.857 35.906 147.074 36.219 146.414C36.535 145.754 36.982 145.244 37.561 144.885C38.143 144.525 38.832 144.346 39.629 144.346C40.43 144.346 41.119 144.525 41.697 144.885C42.279 145.244 42.727 145.756 43.039 146.42C43.352 147.08 43.508 147.861 43.508 148.764V148.775C43.508 149.674 43.352 150.455 43.039 151.119C42.73 151.779 42.285 152.291 41.703 152.654C41.125 153.018 40.434 153.199 39.629 153.199ZM39.629 152.227C40.207 152.227 40.705 152.084 41.123 151.799C41.541 151.514 41.863 151.113 42.09 150.598C42.316 150.078 42.43 149.471 42.43 148.775V148.764C42.43 148.061 42.316 147.451 42.09 146.936C41.863 146.42 41.541 146.021 41.123 145.74C40.705 145.459 40.207 145.318 39.629 145.318C39.055 145.318 38.559 145.459 38.141 145.74C37.723 146.021 37.398 146.42 37.168 146.936C36.941 147.451 36.828 148.061 36.828 148.764V148.775C36.828 149.471 36.939 150.078 37.162 150.598C37.385 151.113 37.705 151.514 38.123 151.799C38.541 152.084 39.043 152.227 39.629 152.227ZM45.207 153V146.684H46.227V147.633H46.32C46.48 147.297 46.711 147.037 47.012 146.854C47.312 146.666 47.695 146.572 48.16 146.572C48.871 146.572 49.416 146.775 49.795 147.182C50.178 147.584 50.369 148.16 50.369 148.91V153H49.35V149.156C49.35 148.586 49.229 148.164 48.986 147.891C48.748 147.613 48.377 147.475 47.873 147.475C47.537 147.475 47.246 147.547 47 147.691C46.754 147.836 46.562 148.041 46.426 148.307C46.293 148.572 46.227 148.891 46.227 149.262V153H45.207ZM55.719 153V144.545H56.773V148.201H61.414V144.545H62.469V153H61.414V149.15H56.773V153H55.719ZM67.092 153.111C66.494 153.111 65.977 152.98 65.539 152.719C65.105 152.453 64.77 152.076 64.531 151.588C64.297 151.1 64.18 150.52 64.18 149.848V149.836C64.18 149.16 64.297 148.578 64.531 148.09C64.77 147.602 65.105 147.227 65.539 146.965C65.977 146.703 66.494 146.572 67.092 146.572C67.693 146.572 68.211 146.703 68.645 146.965C69.078 147.227 69.412 147.602 69.646 148.09C69.885 148.578 70.004 149.16 70.004 149.836V149.848C70.004 150.52 69.885 151.1 69.646 151.588C69.412 152.076 69.078 152.453 68.645 152.719C68.211 152.98 67.693 153.111 67.092 153.111ZM67.092 152.209C67.49 152.209 67.828 152.115 68.105 151.928C68.383 151.74 68.594 151.471 68.738 151.119C68.887 150.768 68.961 150.344 68.961 149.848V149.836C68.961 149.336 68.887 148.91 68.738 148.559C68.594 148.207 68.383 147.939 68.105 147.756C67.828 147.568 67.49 147.475 67.092 147.475C66.693 147.475 66.355 147.568 66.078 147.756C65.801 147.939 65.588 148.207 65.439 148.559C65.295 148.91 65.223 149.336 65.223 149.836V149.848C65.223 150.344 65.295 150.768 65.439 151.119C65.588 151.471 65.801 151.74 66.078 151.928C66.355 152.115 66.693 152.209 67.092 152.209ZM71.645 153V144.176H72.664V153H71.645ZM76.953 153.111C76.422 153.111 75.957 152.977 75.559 152.707C75.16 152.438 74.852 152.059 74.633 151.57C74.414 151.078 74.305 150.504 74.305 149.848V149.836C74.305 149.176 74.414 148.602 74.633 148.113C74.852 147.625 75.158 147.246 75.553 146.977C75.951 146.707 76.418 146.572 76.953 146.572C77.242 146.572 77.514 146.619 77.768 146.713C78.025 146.803 78.254 146.93 78.453 147.094C78.652 147.258 78.809 147.453 78.922 147.68H79.016V144.176H80.035V153H79.016V151.992H78.922C78.793 152.227 78.631 152.428 78.436 152.596C78.24 152.76 78.018 152.887 77.768 152.977C77.518 153.066 77.246 153.111 76.953 153.111ZM77.188 152.209C77.57 152.209 77.9 152.113 78.178 151.922C78.455 151.73 78.668 151.459 78.816 151.107C78.965 150.752 79.039 150.332 79.039 149.848V149.836C79.039 149.348 78.965 148.928 78.816 148.576C78.668 148.225 78.455 147.953 78.178 147.762C77.9 147.57 77.57 147.475 77.188 147.475C76.805 147.475 76.475 147.57 76.197 147.762C75.924 147.949 75.713 148.219 75.564 148.57C75.42 148.922 75.348 149.344 75.348 149.836V149.848C75.348 150.336 75.42 150.758 75.564 151.113C75.713 151.465 75.924 151.736 76.197 151.928C76.475 152.115 76.805 152.209 77.188 152.209Z" fill="#454F5B"/>
<path d="M268 146.5H96C94.8954 146.5 94 147.395 94 148.5V149.5C94 150.605 94.8954 151.5 96 151.5H268C269.105 151.5 270 150.605 270 149.5V148.5C270 147.395 269.105 146.5 268 146.5Z" fill="#F4F6F8"/>
<path opacity="0.8" d="M110 146.5H96C94.8954 146.5 94 147.395 94 148.5V149.5C94 150.605 94.8954 151.5 96 151.5H110C111.105 151.5 112 150.605 112 149.5V148.5C112 147.395 111.105 146.5 110 146.5Z" fill="#006FD6"/>
<path d="M284.06 153.217C283.46 153.217 282.93 153.107 282.48 152.889C282.03 152.67 281.67 152.373 281.4 151.998C281.14 151.619 280.99 151.195 280.96 150.727L280.95 150.645H282.55L282.57 150.686C282.61 150.893 282.7 151.082 282.83 151.254C282.97 151.422 283.14 151.557 283.35 151.658C283.56 151.756 283.8 151.805 284.07 151.805C284.37 151.805 284.64 151.738 284.87 151.605C285.1 151.473 285.28 151.291 285.41 151.061C285.54 150.826 285.61 150.559 285.61 150.258V150.246C285.61 149.945 285.54 149.68 285.41 149.449C285.28 149.219 285.1 149.039 284.87 148.91C284.64 148.781 284.37 148.717 284.07 148.717C283.86 148.717 283.67 148.748 283.49 148.811C283.31 148.869 283.14 148.959 283 149.08C282.92 149.143 282.85 149.215 282.78 149.297C282.71 149.375 282.65 149.459 282.61 149.549H281.09L281.48 144.545H286.77V145.951H282.86L282.65 148.359H282.75C282.87 148.168 283.01 148.004 283.19 147.867C283.37 147.73 283.57 147.625 283.8 147.551C284.04 147.477 284.29 147.439 284.56 147.439C285.09 147.439 285.55 147.559 285.96 147.797C286.37 148.035 286.69 148.363 286.92 148.781C287.15 149.195 287.27 149.672 287.27 150.211V150.223C287.27 150.816 287.13 151.338 286.86 151.787C286.59 152.236 286.21 152.588 285.73 152.842C285.25 153.092 284.69 153.217 284.06 153.217ZM292.08 153.217C291.38 153.217 290.78 153.037 290.28 152.678C289.78 152.314 289.39 151.801 289.12 151.137C288.85 150.473 288.72 149.686 288.72 148.775V148.764C288.72 147.85 288.85 147.062 289.12 146.402C289.39 145.738 289.78 145.227 290.28 144.867C290.78 144.508 291.38 144.328 292.08 144.328C292.78 144.328 293.38 144.508 293.88 144.867C294.38 145.227 294.76 145.738 295.03 146.402C295.3 147.062 295.43 147.85 295.43 148.764V148.775C295.43 149.686 295.3 150.473 295.03 151.137C294.76 151.801 294.38 152.314 293.88 152.678C293.38 153.037 292.78 153.217 292.08 153.217ZM292.08 151.816C292.41 151.816 292.7 151.695 292.93 151.453C293.16 151.211 293.34 150.863 293.46 150.41C293.58 149.957 293.65 149.412 293.65 148.775V148.764C293.65 148.123 293.58 147.578 293.46 147.129C293.34 146.676 293.16 146.33 292.93 146.092C292.7 145.85 292.41 145.729 292.08 145.729C291.74 145.729 291.46 145.85 291.23 146.092C291 146.33 290.82 146.676 290.69 147.129C290.57 147.578 290.51 148.123 290.51 148.764V148.775C290.51 149.412 290.57 149.957 290.69 150.41C290.82 150.863 291 151.211 291.23 151.453C291.46 151.695 291.74 151.816 292.08 151.816Z" fill="#454F5B"/>
<path d="M31.078 181V172.545H34.307C34.85 172.545 35.322 172.65 35.725 172.861C36.131 173.068 36.445 173.359 36.668 173.734C36.891 174.109 37.002 174.551 37.002 175.059V175.07C37.002 175.656 36.852 176.164 36.551 176.594C36.25 177.023 35.834 177.322 35.303 177.49L37.26 181H36.023L34.213 177.654C34.205 177.654 34.195 177.654 34.184 177.654C34.172 177.654 34.162 177.654 34.154 177.654H32.133V181H31.078ZM32.133 176.717H34.213C34.756 176.717 35.174 176.578 35.467 176.301C35.764 176.02 35.912 175.621 35.912 175.105V175.094C35.912 174.59 35.758 174.195 35.449 173.91C35.141 173.625 34.713 173.482 34.166 173.482H32.133V176.717ZM41.191 181.111C40.59 181.111 40.072 180.979 39.639 180.713C39.209 180.447 38.877 180.072 38.643 179.588C38.412 179.1 38.297 178.525 38.297 177.865V177.859C38.297 177.207 38.412 176.635 38.643 176.143C38.877 175.65 39.207 175.266 39.633 174.988C40.059 174.711 40.557 174.572 41.127 174.572C41.701 174.572 42.193 174.705 42.604 174.971C43.018 175.236 43.334 175.607 43.553 176.084C43.775 176.557 43.887 177.107 43.887 177.736V178.135H38.824V177.32H43.365L42.861 178.064V177.66C42.861 177.164 42.787 176.756 42.639 176.436C42.49 176.115 42.285 175.877 42.023 175.721C41.762 175.561 41.461 175.48 41.121 175.48C40.781 175.48 40.477 175.564 40.207 175.732C39.941 175.896 39.73 176.141 39.574 176.465C39.418 176.789 39.34 177.188 39.34 177.66V178.064C39.34 178.514 39.416 178.898 39.568 179.219C39.721 179.535 39.938 179.779 40.219 179.951C40.5 180.119 40.832 180.203 41.215 180.203C41.5 180.203 41.748 180.164 41.959 180.086C42.17 180.008 42.344 179.908 42.48 179.787C42.617 179.666 42.713 179.543 42.768 179.418L42.791 179.365H43.811L43.799 179.412C43.744 179.627 43.646 179.836 43.506 180.039C43.369 180.238 43.191 180.42 42.973 180.584C42.754 180.744 42.494 180.873 42.193 180.971C41.896 181.064 41.562 181.111 41.191 181.111ZM47.637 181.111C47.168 181.111 46.754 181.041 46.395 180.9C46.035 180.756 45.746 180.555 45.527 180.297C45.312 180.039 45.186 179.736 45.146 179.389H46.189C46.275 179.65 46.443 179.861 46.693 180.021C46.943 180.182 47.27 180.262 47.672 180.262C47.957 180.262 48.207 180.221 48.422 180.139C48.641 180.053 48.812 179.938 48.938 179.793C49.062 179.645 49.125 179.475 49.125 179.283V179.271C49.125 179.057 49.039 178.875 48.867 178.727C48.695 178.574 48.414 178.451 48.023 178.357L47.045 178.123C46.65 178.029 46.326 177.908 46.072 177.76C45.818 177.607 45.631 177.422 45.51 177.203C45.389 176.98 45.328 176.719 45.328 176.418V176.412C45.328 176.061 45.43 175.746 45.633 175.469C45.84 175.191 46.121 174.973 46.477 174.812C46.832 174.652 47.232 174.572 47.678 174.572C48.119 174.572 48.51 174.643 48.85 174.783C49.193 174.92 49.469 175.115 49.676 175.369C49.887 175.623 50.016 175.922 50.062 176.266H49.061C48.994 176.016 48.842 175.812 48.604 175.656C48.365 175.5 48.055 175.422 47.672 175.422C47.422 175.422 47.199 175.463 47.004 175.545C46.809 175.623 46.654 175.732 46.541 175.873C46.428 176.014 46.371 176.178 46.371 176.365V176.377C46.371 176.518 46.408 176.643 46.482 176.752C46.557 176.861 46.672 176.957 46.828 177.039C46.984 177.121 47.186 177.193 47.432 177.256L48.404 177.49C48.998 177.635 49.439 177.842 49.729 178.111C50.021 178.381 50.168 178.742 50.168 179.195V179.207C50.168 179.582 50.057 179.914 49.834 180.203C49.611 180.488 49.309 180.711 48.926 180.871C48.547 181.031 48.117 181.111 47.637 181.111ZM54.346 181.111C53.748 181.111 53.23 180.98 52.793 180.719C52.359 180.453 52.023 180.076 51.785 179.588C51.551 179.1 51.434 178.52 51.434 177.848V177.836C51.434 177.16 51.551 176.578 51.785 176.09C52.023 175.602 52.359 175.227 52.793 174.965C53.23 174.703 53.748 174.572 54.346 174.572C54.947 174.572 55.465 174.703 55.898 174.965C56.332 175.227 56.666 175.602 56.9 176.09C57.139 176.578 57.258 177.16 57.258 177.836V177.848C57.258 178.52 57.139 179.1 56.9 179.588C56.666 180.076 56.332 180.453 55.898 180.719C55.465 180.98 54.947 181.111 54.346 181.111ZM54.346 180.209C54.744 180.209 55.082 180.115 55.359 179.928C55.637 179.74 55.848 179.471 55.992 179.119C56.141 178.768 56.215 178.344 56.215 177.848V177.836C56.215 177.336 56.141 176.91 55.992 176.559C55.848 176.207 55.637 175.939 55.359 175.756C55.082 175.568 54.744 175.475 54.346 175.475C53.947 175.475 53.609 175.568 53.332 175.756C53.055 175.939 52.842 176.207 52.693 176.559C52.549 176.91 52.477 177.336 52.477 177.836V177.848C52.477 178.344 52.549 178.768 52.693 179.119C52.842 179.471 53.055 179.74 53.332 179.928C53.609 180.115 53.947 180.209 54.346 180.209ZM58.898 181V172.176H59.918V181H58.898ZM63.662 181L61.324 174.684H62.402L64.131 179.887H64.225L65.953 174.684H67.031L64.693 181H63.662ZM70.723 181.111C70.121 181.111 69.604 180.979 69.17 180.713C68.74 180.447 68.408 180.072 68.174 179.588C67.943 179.1 67.828 178.525 67.828 177.865V177.859C67.828 177.207 67.943 176.635 68.174 176.143C68.408 175.65 68.738 175.266 69.164 174.988C69.59 174.711 70.088 174.572 70.658 174.572C71.232 174.572 71.725 174.705 72.135 174.971C72.549 175.236 72.865 175.607 73.084 176.084C73.307 176.557 73.418 177.107 73.418 177.736V178.135H68.355V177.32H72.896L72.393 178.064V177.66C72.393 177.164 72.318 176.756 72.17 176.436C72.021 176.115 71.816 175.877 71.555 175.721C71.293 175.561 70.992 175.48 70.652 175.48C70.312 175.48 70.008 175.564 69.738 175.732C69.473 175.896 69.262 176.141 69.105 176.465C68.949 176.789 68.871 177.188 68.871 177.66V178.064C68.871 178.514 68.947 178.898 69.1 179.219C69.252 179.535 69.469 179.779 69.75 179.951C70.031 180.119 70.363 180.203 70.746 180.203C71.031 180.203 71.279 180.164 71.49 180.086C71.701 180.008 71.875 179.908 72.012 179.787C72.148 179.666 72.244 179.543 72.299 179.418L72.322 179.365H73.342L73.33 179.412C73.275 179.627 73.178 179.836 73.037 180.039C72.9 180.238 72.723 180.42 72.504 180.584C72.285 180.744 72.025 180.873 71.725 180.971C71.428 181.064 71.094 181.111 70.723 181.111ZM77.332 181.111C76.801 181.111 76.336 180.977 75.938 180.707C75.539 180.438 75.23 180.059 75.012 179.57C74.793 179.078 74.684 178.504 74.684 177.848V177.836C74.684 177.176 74.793 176.602 75.012 176.113C75.23 175.625 75.537 175.246 75.932 174.977C76.33 174.707 76.797 174.572 77.332 174.572C77.621 174.572 77.893 174.619 78.146 174.713C78.404 174.803 78.633 174.93 78.832 175.094C79.031 175.258 79.188 175.453 79.301 175.68H79.395V172.176H80.414V181H79.395V179.992H79.301C79.172 180.227 79.01 180.428 78.814 180.596C78.619 180.76 78.396 180.887 78.146 180.977C77.896 181.066 77.625 181.111 77.332 181.111ZM77.566 180.209C77.949 180.209 78.279 180.113 78.557 179.922C78.834 179.73 79.047 179.459 79.195 179.107C79.344 178.752 79.418 178.332 79.418 177.848V177.836C79.418 177.348 79.344 176.928 79.195 176.576C79.047 176.225 78.834 175.953 78.557 175.762C78.279 175.57 77.949 175.475 77.566 175.475C77.184 175.475 76.854 175.57 76.576 175.762C76.303 175.949 76.092 176.219 75.943 176.57C75.799 176.922 75.727 177.344 75.727 177.836V177.848C75.727 178.336 75.799 178.758 75.943 179.113C76.092 179.465 76.303 179.736 76.576 179.928C76.854 180.115 77.184 180.209 77.566 180.209Z" fill="#454F5B"/>
<path d="M268 174.5H96C94.8954 174.5 94 175.395 94 176.5V177.5C94 178.605 94.8954 179.5 96 179.5H268C269.105 179.5 270 178.605 270 177.5V176.5C270 175.395 269.105 174.5 268 174.5Z" fill="#F4F6F8"/>
<path opacity="0.8" d="M230 174.5H96C94.8954 174.5 94 175.395 94 176.5V177.5C94 178.605 94.8954 179.5 96 179.5H230C231.105 179.5 232 178.605 232 177.5V176.5C232 175.395 231.105 174.5 230 174.5Z" fill="#006FD6"/>
<path d="M284.78 181V179.447H280.63V178.059C280.85 177.676 281.06 177.297 281.28 176.922C281.5 176.543 281.72 176.168 281.95 175.797C282.17 175.422 282.4 175.053 282.62 174.689C282.85 174.322 283.07 173.961 283.3 173.605C283.53 173.246 283.75 172.893 283.98 172.545H286.46V178.029H287.56V179.447H286.46V181H284.78ZM282.23 178.076H284.81V173.887H284.72C284.55 174.141 284.38 174.4 284.21 174.666C284.04 174.932 283.88 175.203 283.7 175.48C283.54 175.758 283.37 176.037 283.19 176.318C283.03 176.596 282.86 176.875 282.7 177.156C282.54 177.434 282.38 177.709 282.23 177.982V178.076ZM292.36 181.217C291.66 181.217 291.06 181.037 290.56 180.678C290.06 180.314 289.67 179.801 289.4 179.137C289.13 178.473 289 177.686 289 176.775V176.764C289 175.85 289.13 175.062 289.4 174.402C289.67 173.738 290.06 173.227 290.56 172.867C291.06 172.508 291.66 172.328 292.36 172.328C293.06 172.328 293.66 172.508 294.16 172.867C294.66 173.227 295.04 173.738 295.31 174.402C295.58 175.062 295.71 175.85 295.71 176.764V176.775C295.71 177.686 295.58 178.473 295.31 179.137C295.04 179.801 294.66 180.314 294.16 180.678C293.66 181.037 293.06 181.217 292.36 181.217ZM292.36 179.816C292.69 179.816 292.98 179.695 293.21 179.453C293.44 179.211 293.62 178.863 293.74 178.41C293.87 177.957 293.93 177.412 293.93 176.775V176.764C293.93 176.123 293.87 175.578 293.74 175.129C293.62 174.676 293.44 174.33 293.21 174.092C292.98 173.85 292.69 173.729 292.36 173.729C292.03 173.729 291.74 173.85 291.51 174.092C291.28 174.33 291.1 174.676 290.97 175.129C290.85 175.578 290.79 176.123 290.79 176.764V176.775C290.79 177.412 290.85 177.957 290.97 178.41C291.1 178.863 291.28 179.211 291.51 179.453C291.74 179.695 292.03 179.816 292.36 179.816ZM300.57 181.217C299.88 181.217 299.28 181.037 298.77 180.678C298.27 180.314 297.89 179.801 297.62 179.137C297.35 178.473 297.21 177.686 297.21 176.775V176.764C297.21 175.85 297.35 175.062 297.62 174.402C297.89 173.738 298.27 173.227 298.77 172.867C299.28 172.508 299.88 172.328 300.57 172.328C301.27 172.328 301.87 172.508 302.37 172.867C302.87 173.227 303.26 173.738 303.53 174.402C303.79 175.062 303.93 175.85 303.93 176.764V176.775C303.93 177.686 303.79 178.473 303.53 179.137C303.26 179.801 302.87 180.314 302.37 180.678C301.87 181.037 301.27 181.217 300.57 181.217ZM300.57 179.816C300.91 179.816 301.19 179.695 301.42 179.453C301.66 179.211 301.83 178.863 301.96 178.41C302.08 177.957 302.14 177.412 302.14 176.775V176.764C302.14 176.123 302.08 175.578 301.96 175.129C301.83 174.676 301.66 174.33 301.42 174.092C301.19 173.85 300.91 173.729 300.57 173.729C300.24 173.729 299.96 173.85 299.72 174.092C299.49 174.33 299.31 174.676 299.19 175.129C299.07 175.578 299.01 176.123 299.01 176.764V176.775C299.01 177.412 299.07 177.957 299.19 178.41C299.31 178.863 299.49 179.211 299.72 179.453C299.96 179.695 300.24 179.816 300.57 179.816Z" fill="#454F5B"/>
<path d="M46.482 209.199C45.717 209.199 45.055 209.02 44.496 208.66C43.938 208.301 43.506 207.791 43.201 207.131C42.9 206.471 42.75 205.688 42.75 204.781V204.77C42.75 203.859 42.9 203.074 43.201 202.414C43.506 201.754 43.936 201.244 44.49 200.885C45.049 200.525 45.711 200.346 46.477 200.346C47.07 200.346 47.609 200.463 48.094 200.697C48.582 200.928 48.984 201.25 49.301 201.664C49.617 202.074 49.816 202.549 49.898 203.088L49.893 203.1H48.832L48.826 203.088C48.732 202.725 48.574 202.412 48.352 202.15C48.129 201.885 47.857 201.68 47.537 201.535C47.221 201.391 46.867 201.318 46.477 201.318C45.938 201.318 45.469 201.459 45.07 201.74C44.676 202.021 44.371 202.42 44.156 202.936C43.941 203.451 43.834 204.062 43.834 204.77V204.781C43.834 205.484 43.941 206.094 44.156 206.609C44.371 207.125 44.676 207.523 45.07 207.805C45.469 208.086 45.939 208.227 46.482 208.227C46.877 208.227 47.234 208.164 47.555 208.039C47.875 207.91 48.145 207.729 48.363 207.494C48.582 207.256 48.734 206.975 48.82 206.65L48.832 206.639H49.898V206.65C49.805 207.166 49.602 207.615 49.289 207.998C48.977 208.377 48.58 208.672 48.1 208.883C47.623 209.094 47.084 209.199 46.482 209.199ZM51.598 209V200.176H52.617V209H51.598ZM57.17 209.111C56.572 209.111 56.055 208.98 55.617 208.719C55.184 208.453 54.848 208.076 54.609 207.588C54.375 207.1 54.258 206.52 54.258 205.848V205.836C54.258 205.16 54.375 204.578 54.609 204.09C54.848 203.602 55.184 203.227 55.617 202.965C56.055 202.703 56.572 202.572 57.17 202.572C57.771 202.572 58.289 202.703 58.723 202.965C59.156 203.227 59.49 203.602 59.725 204.09C59.963 204.578 60.082 205.16 60.082 205.836V205.848C60.082 206.52 59.963 207.1 59.725 207.588C59.49 208.076 59.156 208.453 58.723 208.719C58.289 208.98 57.771 209.111 57.17 209.111ZM57.17 208.209C57.568 208.209 57.906 208.115 58.184 207.928C58.461 207.74 58.672 207.471 58.816 207.119C58.965 206.768 59.039 206.344 59.039 205.848V205.836C59.039 205.336 58.965 204.91 58.816 204.559C58.672 204.207 58.461 203.939 58.184 203.756C57.906 203.568 57.568 203.475 57.17 203.475C56.771 203.475 56.434 203.568 56.156 203.756C55.879 203.939 55.666 204.207 55.518 204.559C55.373 204.91 55.301 205.336 55.301 205.836V205.848C55.301 206.344 55.373 206.768 55.518 207.119C55.666 207.471 55.879 207.74 56.156 207.928C56.434 208.115 56.771 208.209 57.17 208.209ZM63.832 209.111C63.363 209.111 62.949 209.041 62.59 208.9C62.23 208.756 61.941 208.555 61.723 208.297C61.508 208.039 61.381 207.736 61.342 207.389H62.385C62.471 207.65 62.639 207.861 62.889 208.021C63.139 208.182 63.465 208.262 63.867 208.262C64.152 208.262 64.402 208.221 64.617 208.139C64.836 208.053 65.008 207.938 65.133 207.793C65.258 207.645 65.32 207.475 65.32 207.283V207.271C65.32 207.057 65.234 206.875 65.062 206.727C64.891 206.574 64.609 206.451 64.219 206.357L63.24 206.123C62.846 206.029 62.521 205.908 62.268 205.76C62.014 205.607 61.826 205.422 61.705 205.203C61.584 204.98 61.523 204.719 61.523 204.418V204.412C61.523 204.061 61.625 203.746 61.828 203.469C62.035 203.191 62.316 202.973 62.672 202.812C63.027 202.652 63.428 202.572 63.873 202.572C64.314 202.572 64.705 202.643 65.045 202.783C65.389 202.92 65.664 203.115 65.871 203.369C66.082 203.623 66.211 203.922 66.258 204.266H65.256C65.189 204.016 65.037 203.812 64.799 203.656C64.561 203.5 64.25 203.422 63.867 203.422C63.617 203.422 63.395 203.463 63.199 203.545C63.004 203.623 62.85 203.732 62.736 203.873C62.623 204.014 62.566 204.178 62.566 204.365V204.377C62.566 204.518 62.604 204.643 62.678 204.752C62.752 204.861 62.867 204.957 63.023 205.039C63.18 205.121 63.381 205.193 63.627 205.256L64.6 205.49C65.193 205.635 65.635 205.842 65.924 206.111C66.217 206.381 66.363 206.742 66.363 207.195V207.207C66.363 207.582 66.252 207.914 66.029 208.203C65.807 208.488 65.504 208.711 65.121 208.871C64.742 209.031 64.312 209.111 63.832 209.111ZM70.523 209.111C69.922 209.111 69.404 208.979 68.971 208.713C68.541 208.447 68.209 208.072 67.975 207.588C67.744 207.1 67.629 206.525 67.629 205.865V205.859C67.629 205.207 67.744 204.635 67.975 204.143C68.209 203.65 68.539 203.266 68.965 202.988C69.391 202.711 69.889 202.572 70.459 202.572C71.033 202.572 71.525 202.705 71.936 202.971C72.35 203.236 72.666 203.607 72.885 204.084C73.107 204.557 73.219 205.107 73.219 205.736V206.135H68.156V205.32H72.697L72.193 206.064V205.66C72.193 205.164 72.119 204.756 71.971 204.436C71.822 204.115 71.617 203.877 71.355 203.721C71.094 203.561 70.793 203.48 70.453 203.48C70.113 203.48 69.809 203.564 69.539 203.732C69.273 203.896 69.062 204.141 68.906 204.465C68.75 204.789 68.672 205.188 68.672 205.66V206.064C68.672 206.514 68.748 206.898 68.9 207.219C69.053 207.535 69.27 207.779 69.551 207.951C69.832 208.119 70.164 208.203 70.547 208.203C70.832 208.203 71.08 208.164 71.291 208.086C71.502 208.008 71.676 207.908 71.812 207.787C71.949 207.666 72.045 207.543 72.1 207.418L72.123 207.365H73.143L73.131 207.412C73.076 207.627 72.979 207.836 72.838 208.039C72.701 208.238 72.523 208.42 72.305 208.584C72.086 208.744 71.826 208.873 71.525 208.971C71.229 209.064 70.895 209.111 70.523 209.111ZM77.133 209.111C76.602 209.111 76.137 208.977 75.738 208.707C75.34 208.438 75.031 208.059 74.812 207.57C74.594 207.078 74.484 206.504 74.484 205.848V205.836C74.484 205.176 74.594 204.602 74.812 204.113C75.031 203.625 75.338 203.246 75.732 202.977C76.131 202.707 76.598 202.572 77.133 202.572C77.422 202.572 77.693 202.619 77.947 202.713C78.205 202.803 78.434 202.93 78.633 203.094C78.832 203.258 78.988 203.453 79.102 203.68H79.195V200.176H80.215V209H79.195V207.992H79.102C78.973 208.227 78.811 208.428 78.615 208.596C78.42 208.76 78.197 208.887 77.947 208.977C77.697 209.066 77.426 209.111 77.133 209.111ZM77.367 208.209C77.75 208.209 78.08 208.113 78.357 207.922C78.635 207.73 78.848 207.459 78.996 207.107C79.145 206.752 79.219 206.332 79.219 205.848V205.836C79.219 205.348 79.145 204.928 78.996 204.576C78.848 204.225 78.635 203.953 78.357 203.762C78.08 203.57 77.75 203.475 77.367 203.475C76.984 203.475 76.654 203.57 76.377 203.762C76.104 203.949 75.893 204.219 75.744 204.57C75.6 204.922 75.527 205.344 75.527 205.836V205.848C75.527 206.336 75.6 206.758 75.744 207.113C75.893 207.465 76.104 207.736 76.377 207.928C76.654 208.115 76.984 208.209 77.367 208.209Z" fill="#454F5B"/>
<path d="M268 202.5H96C94.8954 202.5 94 203.395 94 204.5V205.5C94 206.605 94.8954 207.5 96 207.5H268C269.105 207.5 270 206.605 270 205.5V204.5C270 203.395 269.105 202.5 268 202.5Z" fill="#F4F6F8"/>
<path opacity="0.8" d="M167 202.5H96C94.8954 202.5 94 203.395 94 204.5V205.5C94 206.605 94.8954 207.5 96 207.5H167C168.105 207.5 169 206.605 169 205.5V204.5C169 203.395 168.105 202.5 167 202.5Z" fill="#006FD6"/>
<path d="M280.86 209V207.811L283.58 205.121C283.98 204.738 284.29 204.424 284.51 204.178C284.72 203.928 284.88 203.711 284.96 203.527C285.05 203.34 285.09 203.146 285.09 202.947V202.93C285.09 202.688 285.04 202.475 284.93 202.291C284.83 202.107 284.68 201.965 284.49 201.863C284.29 201.758 284.06 201.705 283.79 201.705C283.52 201.705 283.28 201.764 283.06 201.881C282.85 201.994 282.69 202.152 282.57 202.355C282.46 202.555 282.4 202.789 282.4 203.059V203.088H280.76V203.059C280.76 202.52 280.89 202.045 281.15 201.635C281.41 201.225 281.78 200.904 282.24 200.674C282.71 200.443 283.26 200.328 283.87 200.328C284.46 200.328 284.97 200.432 285.41 200.639C285.85 200.846 286.2 201.133 286.45 201.5C286.71 201.867 286.83 202.295 286.83 202.783V202.801C286.83 203.121 286.77 203.436 286.64 203.744C286.52 204.049 286.31 204.379 286.01 204.734C285.71 205.09 285.31 205.506 284.79 205.982L282.75 207.887L283.23 207.113V207.887L282.75 207.576H286.96V209H280.86ZM291.83 209.217C291.13 209.217 290.54 209.037 290.03 208.678C289.53 208.314 289.15 207.801 288.88 207.137C288.61 206.473 288.47 205.686 288.47 204.775V204.764C288.47 203.85 288.61 203.062 288.88 202.402C289.15 201.738 289.53 201.227 290.03 200.867C290.54 200.508 291.13 200.328 291.83 200.328C292.53 200.328 293.13 200.508 293.63 200.867C294.13 201.227 294.51 201.738 294.78 202.402C295.05 203.062 295.19 203.85 295.19 204.764V204.775C295.19 205.686 295.05 206.473 294.78 207.137C294.51 207.801 294.13 208.314 293.63 208.678C293.13 209.037 292.53 209.217 291.83 209.217ZM291.83 207.816C292.17 207.816 292.45 207.695 292.68 207.453C292.91 207.211 293.09 206.863 293.21 206.41C293.34 205.957 293.4 205.412 293.4 204.775V204.764C293.4 204.123 293.34 203.578 293.21 203.129C293.09 202.676 292.91 202.33 292.68 202.092C292.45 201.85 292.17 201.729 291.83 201.729C291.5 201.729 291.21 201.85 290.98 202.092C290.75 202.33 290.57 202.676 290.45 203.129C290.33 203.578 290.27 204.123 290.27 204.764V204.775C290.27 205.412 290.33 205.957 290.45 206.41C290.57 206.863 290.75 207.211 290.98 207.453C291.21 207.695 291.5 207.816 291.83 207.816ZM300.04 209.217C299.35 209.217 298.75 209.037 298.25 208.678C297.75 208.314 297.36 207.801 297.09 207.137C296.82 206.473 296.69 205.686 296.69 204.775V204.764C296.69 203.85 296.82 203.062 297.09 202.402C297.36 201.738 297.75 201.227 298.25 200.867C298.75 200.508 299.35 200.328 300.04 200.328C300.74 200.328 301.34 200.508 301.84 200.867C302.34 201.227 302.73 201.738 303 202.402C303.27 203.062 303.4 203.85 303.4 204.764V204.775C303.4 205.686 303.27 206.473 303 207.137C302.73 207.801 302.34 208.314 301.84 208.678C301.34 209.037 300.74 209.217 300.04 209.217ZM300.04 207.816C300.38 207.816 300.66 207.695 300.89 207.453C301.13 207.211 301.31 206.863 301.43 206.41C301.55 205.957 301.62 205.412 301.62 204.775V204.764C301.62 204.123 301.55 203.578 301.43 203.129C301.31 202.676 301.13 202.33 300.89 202.092C300.66 201.85 300.38 201.729 300.04 201.729C299.71 201.729 299.43 201.85 299.2 202.092C298.96 202.33 298.79 202.676 298.66 203.129C298.54 203.578 298.48 204.123 298.48 204.764V204.775C298.48 205.412 298.54 205.957 298.66 206.41C298.79 206.863 298.96 207.211 299.2 207.453C299.43 207.695 299.71 207.816 300.04 207.816Z" fill="#454F5B"/>
</g>
<defs>
<filter id="filter0_d_102_432" x="0" y="0" width="338" height="283" filterUnits="userSpaceOnUse" color-interpolation-filters="sRGB">
<feFlood flood-opacity="0" result="BackgroundImageFix"/>
<feColorMatrix in="SourceAlpha" type="matrix" values="0 0 0 0 0 0 0 0 0 0 0 0 0 0 0 0 0 0 127 0" result="hardAlpha"/>
<feOffset dy="1"/>
<feGaussianBlur stdDeviation="2"/>
<feComposite in2="hardAlpha" operator="out"/>
<feColorMatrix type="matrix" values="0 0 0 0 0 0 0 0 0 0 0 0 0 0 0 0 0 0 0.15 0"/>
<feBlend mode="normal" in2="BackgroundImageFix" result="effect1_dropShadow_102_432"/>
<feBlend mode="normal" in="SourceGraphic" in2="effect1_dropShadow_102_432" result="shape"/>
</filter>
</defs>
</svg>
