<svg width="328" height="177" viewBox="0 0 328 177" fill="none" xmlns="http://www.w3.org/2000/svg">
<path d="M177 88.5006C177 137.377 137.377 177 88.4996 177C39.6228 177 0 137.377 0 88.5006C0 39.6232 39.6228 9.16394e-05 88.4996 9.16394e-05C137.377 9.16394e-05 177 39.6232 177 88.5006ZM43.9055 88.5006C43.9055 113.128 63.871 133.094 88.4996 133.094C113.129 133.094 133.093 113.128 133.093 88.5006C133.093 63.8715 113.129 43.9054 88.4996 43.9054C63.871 43.9054 43.9055 63.8715 43.9055 88.5006Z" fill="#1939B5"/>
<path d="M118.222 171.859C106.017 176.211 93.0044 177.83 80.1052 176.601C67.2048 175.372 54.7323 171.324 43.5683 164.746C32.4044 158.167 22.8213 149.217 15.4964 138.528C8.17123 127.839 3.28304 115.671 1.17684 102.885C-0.929364 90.0984 -0.202064 77.0066 3.30738 64.5331C6.81682 52.058 13.0227 40.5072 21.4866 30.6959C29.9506 20.8831 40.4659 13.0486 52.2898 7.748C64.1139 2.44591 76.9577 -0.195424 89.9151 0.0121203L89.2118 43.9115C82.6839 43.807 76.2112 45.1374 70.2536 47.8101C64.2959 50.4813 58.9972 54.4291 54.7324 59.3728C50.4674 64.3166 47.3404 70.1383 45.5721 76.4229C43.8036 82.7089 43.4372 89.3055 44.4985 95.7483C45.5598 102.191 48.0229 108.322 51.7139 113.709C55.4049 119.095 60.2338 123.604 65.8592 126.92C71.4839 130.235 77.77 132.275 84.2696 132.893C90.7691 133.512 97.327 132.697 103.477 130.504L118.222 171.859Z" fill="#FEDC60"/>
<path d="M1.93298 106.896C-0.813173 93.9728 -0.631165 80.5989 2.46558 67.7566C5.56217 54.9127 11.495 42.9259 19.8285 32.6756C28.162 22.4238 38.6849 14.1683 50.6251 8.51382C62.5654 2.86085 75.6199 -0.047741 88.8311 0.00153212L88.6669 43.9069C82.009 43.8815 75.4318 45.3477 69.4145 48.1966C63.3985 51.0455 58.0962 55.2054 53.8969 60.3701C49.6978 65.5363 46.7082 71.576 45.1479 78.0472C43.5875 84.5184 43.4958 91.2583 44.8795 97.7699L1.93298 106.896Z" fill="#F2A1A6"/>
<path d="M0.665425 77.668C3.34633 55.9296 13.9937 35.9561 30.5481 21.6131C47.1025 7.27017 68.3876 -0.423929 90.2869 0.0180362L89.3999 43.9145C78.3657 43.692 67.64 47.5696 59.2984 54.7964C50.9567 62.0246 45.5916 72.0882 44.2408 83.0418L0.665425 77.668Z" fill="#F6CBC7"/>
<path d="M41.6329 13.4293C56.1404 4.37199 72.9621 -0.288021 90.0614 0.0150831L89.2864 43.913C80.6696 43.7607 72.1946 46.1094 64.8839 50.6724L41.6329 13.4293Z" fill="#FF8074"/>
<path d="M231.326 29.2266H218.162V42.3974H231.326V29.2266Z" fill="#1939B5"/>
<path d="M220.631 29.2266H228.858C229.512 29.2266 230.139 29.4864 230.602 29.9493C231.065 30.4121 231.326 31.0407 231.326 31.6962V39.9278C231.326 40.5833 231.065 41.2119 230.602 41.6748C230.139 42.1376 229.512 42.3974 228.858 42.3974H220.631C219.975 42.3974 219.348 42.1376 218.885 41.6748C218.422 41.2119 218.162 40.5833 218.162 39.9278V31.6962C218.162 31.0407 218.422 30.4121 218.885 29.9493C219.348 29.4864 219.975 29.2266 220.631 29.2266Z" fill="#1939B5" stroke="white" stroke-width="0.822474"/>
<path d="M236.235 41.0656V34.4809H238.539C238.998 34.4809 239.375 34.56 239.674 34.7183C239.971 34.8751 240.194 35.0856 240.34 35.3514C240.485 35.6157 240.558 35.9083 240.558 36.2293C240.558 36.513 240.507 36.746 240.407 36.9311C240.309 37.1148 240.177 37.2611 240.014 37.3686C239.853 37.4746 239.679 37.5552 239.49 37.606V37.6702C239.692 37.6836 239.895 37.7538 240.098 37.8822C240.303 38.0106 240.473 38.1958 240.61 38.4362C240.748 38.6766 240.815 38.9692 240.815 39.3171C240.815 39.6471 240.74 39.9442 240.591 40.207C240.44 40.4713 240.204 40.6803 239.88 40.8341C239.556 40.9894 239.135 41.0656 238.615 41.0656H236.235ZM237.034 40.3593H238.615C239.137 40.3593 239.507 40.2578 239.725 40.0562C239.946 39.8531 240.056 39.6068 240.056 39.3171C240.056 39.0946 240 38.8886 239.886 38.699C239.773 38.5093 239.611 38.357 239.401 38.2421C239.19 38.1271 238.942 38.0689 238.654 38.0689H237.034V40.3593ZM237.034 37.3746H238.512C238.753 37.3746 238.969 37.3268 239.162 37.2327C239.358 37.1387 239.511 37.0058 239.626 36.8341C239.741 36.6623 239.799 36.4608 239.799 36.2293C239.799 35.9397 239.698 35.6948 239.496 35.4932C239.295 35.2902 238.977 35.1871 238.539 35.1871H237.034V37.3746ZM244.094 41.1686C243.617 41.1686 243.207 41.0641 242.862 40.8535C242.52 40.6415 242.254 40.3459 242.068 39.9666C241.884 39.5844 241.791 39.1409 241.791 38.6348C241.791 38.1286 241.884 37.6836 242.068 37.2969C242.254 36.9087 242.514 36.6071 242.847 36.3906C243.181 36.1711 243.571 36.0621 244.018 36.0621C244.274 36.0621 244.528 36.1054 244.779 36.1905C245.03 36.2771 245.258 36.416 245.464 36.6086C245.67 36.7997 245.833 37.0536 245.956 37.3686C246.078 37.6837 246.139 38.0719 246.139 38.5317V38.8543H242.332V38.1973H245.367C245.367 37.9196 245.312 37.6702 245.2 37.4522C245.091 37.2327 244.934 37.061 244.731 36.9341C244.53 36.8072 244.291 36.7445 244.018 36.7445C243.714 36.7445 243.453 36.8191 243.232 36.9699C243.014 37.1178 242.845 37.3104 242.727 37.5478C242.61 37.7867 242.55 38.042 242.55 38.3137V38.7512C242.55 39.1245 242.614 39.4396 242.744 39.6994C242.874 39.9562 243.056 40.1533 243.287 40.2876C243.519 40.4205 243.788 40.4877 244.094 40.4877C244.294 40.4877 244.473 40.4594 244.634 40.4041C244.797 40.3459 244.937 40.2608 245.055 40.1473C245.173 40.0308 245.264 39.8875 245.329 39.7158L246.062 39.9218C245.985 40.1697 245.856 40.3892 245.673 40.5773C245.491 40.7639 245.266 40.9103 244.997 41.0148C244.73 41.1178 244.428 41.1686 244.094 41.1686ZM249.158 41.1686C248.748 41.1686 248.383 41.0656 248.068 40.8565C247.753 40.6475 247.507 40.3519 247.329 39.9696C247.152 39.5859 247.062 39.132 247.062 38.6094C247.062 38.0913 247.152 37.6403 247.329 37.2581C247.507 36.8774 247.755 36.5817 248.071 36.3742C248.389 36.1666 248.755 36.0621 249.172 36.0621C249.493 36.0621 249.748 36.1159 249.933 36.2234C250.123 36.3279 250.266 36.4488 250.365 36.5832C250.466 36.7161 250.544 36.8251 250.599 36.9117H250.663V34.4809H251.423V41.0656H250.69V40.3071H250.599C250.544 40.3966 250.465 40.5116 250.362 40.6475C250.259 40.7834 250.112 40.9043 249.921 41.0118C249.73 41.1163 249.476 41.1686 249.158 41.1686ZM249.261 40.4877C249.566 40.4877 249.823 40.4086 250.033 40.2488C250.244 40.0891 250.404 39.8666 250.513 39.5844C250.622 39.2992 250.677 38.9692 250.677 38.5959C250.677 38.2271 250.623 37.9046 250.516 37.6284C250.408 37.3492 250.25 37.1327 250.041 36.9789C249.83 36.8221 249.57 36.7445 249.261 36.7445C248.94 36.7445 248.672 36.8266 248.458 36.9923C248.246 37.1551 248.086 37.3761 247.979 37.6568C247.874 37.936 247.821 38.2495 247.821 38.5959C247.821 38.9483 247.874 39.2678 247.982 39.5545C248.091 39.8397 248.252 40.0667 248.464 40.2369C248.679 40.4041 248.945 40.4877 249.261 40.4877Z" fill="black"/>
<path d="M310.378 41.1566C309.952 41.1566 309.575 41.0835 309.242 40.9371C308.912 40.7923 308.649 40.5893 308.455 40.3295C308.261 40.0682 308.156 39.7651 308.14 39.4201H308.949C308.967 39.6322 309.04 39.8158 309.168 39.9696C309.297 40.1219 309.466 40.2399 309.673 40.3235C309.881 40.4071 310.112 40.4489 310.364 40.4489C310.648 40.4489 310.899 40.3996 311.117 40.3011C311.335 40.2025 311.507 40.0652 311.632 39.889C311.756 39.7128 311.819 39.5097 311.819 39.2783C311.819 39.0364 311.758 38.8229 311.638 38.6378C311.519 38.4511 311.342 38.3063 311.111 38.2003C310.88 38.0958 310.596 38.0435 310.261 38.0435H309.734V37.3357H310.261C310.523 37.3357 310.753 37.2895 310.95 37.1939C311.15 37.0998 311.305 36.9669 311.416 36.7952C311.529 36.6235 311.586 36.422 311.586 36.1905C311.586 35.968 311.537 35.7739 311.438 35.6097C311.339 35.4439 311.201 35.3155 311.02 35.223C310.842 35.1304 310.633 35.0841 310.39 35.0841C310.163 35.0841 309.948 35.1259 309.748 35.2095C309.548 35.2916 309.385 35.4111 309.258 35.5679C309.131 35.7217 309.062 35.9083 309.052 36.1263H308.28C308.293 35.7814 308.398 35.4798 308.592 35.22C308.788 34.9587 309.043 34.7541 309.358 34.6093C309.675 34.4629 310.024 34.3898 310.403 34.3898C310.811 34.3898 311.16 34.4734 311.451 34.6377C311.743 34.8004 311.967 35.0169 312.123 35.2842C312.28 35.553 312.358 35.8411 312.358 36.1532C312.358 36.5235 312.261 36.84 312.065 37.1013C311.873 37.3626 311.61 37.5433 311.278 37.6448V37.6956C311.693 37.7643 312.019 37.9419 312.252 38.2271C312.486 38.5093 312.603 38.8602 312.603 39.2783C312.603 39.6366 312.506 39.9577 312.31 40.2428C312.117 40.5265 311.853 40.749 311.519 40.9118C311.184 41.0745 310.803 41.1566 310.378 41.1566ZM314.281 41.1178C314.123 41.1178 313.985 41.0611 313.872 40.9476C313.758 40.8341 313.702 40.6982 313.702 40.5385C313.702 40.3802 313.758 40.2444 313.872 40.1309C313.985 40.0174 314.123 39.9607 314.281 39.9607C314.439 39.9607 314.575 40.0174 314.689 40.1309C314.802 40.2444 314.859 40.3802 314.859 40.5385C314.859 40.6445 314.833 40.7401 314.78 40.8282C314.727 40.9162 314.657 40.9864 314.571 41.0402C314.484 41.0924 314.388 41.1178 314.281 41.1178ZM318.187 41.1566C317.761 41.1566 317.384 41.0835 317.051 40.9371C316.721 40.7923 316.458 40.5893 316.264 40.3295C316.07 40.0682 315.965 39.7651 315.949 39.4201H316.758C316.776 39.6322 316.849 39.8158 316.977 39.9696C317.106 40.1219 317.275 40.2399 317.482 40.3235C317.69 40.4071 317.92 40.4489 318.174 40.4489C318.456 40.4489 318.707 40.3996 318.926 40.3011C319.144 40.2025 319.316 40.0652 319.44 39.889C319.565 39.7128 319.626 39.5097 319.626 39.2783C319.626 39.0364 319.567 38.8229 319.447 38.6378C319.326 38.4511 319.152 38.3063 318.92 38.2003C318.689 38.0958 318.405 38.0435 318.07 38.0435H317.543V37.3357H318.07C318.332 37.3357 318.562 37.2895 318.759 37.1939C318.957 37.0998 319.114 36.9669 319.225 36.7952C319.338 36.6235 319.395 36.422 319.395 36.1905C319.395 35.968 319.346 35.7739 319.247 35.6097C319.149 35.4439 319.01 35.3155 318.829 35.223C318.651 35.1304 318.441 35.0841 318.199 35.0841C317.972 35.0841 317.757 35.1259 317.555 35.2095C317.357 35.2916 317.194 35.4111 317.067 35.5679C316.94 35.7217 316.872 35.9083 316.861 36.1263H316.089C316.103 35.7814 316.207 35.4798 316.401 35.22C316.597 34.9587 316.852 34.7541 317.167 34.6093C317.484 34.4629 317.833 34.3898 318.212 34.3898C318.62 34.3898 318.969 34.4734 319.261 34.6377C319.552 34.8004 319.776 35.0169 319.932 35.2842C320.089 35.553 320.167 35.8411 320.167 36.1532C320.167 36.5235 320.07 36.84 319.874 37.1013C319.682 37.3626 319.419 37.5433 319.087 37.6448V37.6956C319.502 37.7643 319.828 37.9419 320.061 38.2271C320.295 38.5093 320.412 38.8602 320.412 39.2783C320.412 39.6366 320.315 39.9577 320.119 40.2428C319.926 40.5265 319.662 40.749 319.328 40.9118C318.993 41.0745 318.612 41.1566 318.187 41.1566ZM325.084 39.8307V39.4843C325.084 39.244 325.133 39.0245 325.232 38.8244C325.333 38.6228 325.479 38.463 325.669 38.3421C325.863 38.2196 326.096 38.1584 326.371 38.1584C326.648 38.1584 326.883 38.2196 327.071 38.3421C327.261 38.463 327.403 38.6228 327.5 38.8244C327.595 39.0245 327.644 39.244 327.644 39.4843V39.8307C327.644 40.0711 327.595 40.2921 327.497 40.4937C327.4 40.6938 327.256 40.8535 327.065 40.976C326.877 41.0969 326.645 41.1566 326.371 41.1566C326.092 41.1566 325.857 41.0969 325.666 40.976C325.475 40.8535 325.33 40.6938 325.232 40.4937C325.133 40.2921 325.084 40.0711 325.084 39.8307ZM325.741 39.4843V39.8307C325.741 40.0308 325.787 40.21 325.881 40.3683C325.977 40.5251 326.139 40.6027 326.371 40.6027C326.596 40.6027 326.754 40.5251 326.847 40.3683C326.941 40.21 326.987 40.0308 326.987 39.8307V39.4843C326.987 39.2843 326.943 39.1066 326.853 38.9498C326.763 38.7915 326.602 38.7124 326.371 38.7124C326.145 38.7124 325.984 38.7915 325.885 38.9498C325.788 39.1066 325.741 39.2843 325.741 39.4843ZM321.803 36.0621V35.7157C321.803 35.4753 321.854 35.2558 321.953 35.0557C322.053 34.8542 322.199 34.6929 322.389 34.5735C322.583 34.451 322.816 34.3898 323.09 34.3898C323.37 34.3898 323.603 34.451 323.792 34.5735C323.98 34.6929 324.122 34.8542 324.219 35.0557C324.316 35.2558 324.364 35.4753 324.364 35.7157V36.0621C324.364 36.3025 324.315 36.5235 324.216 36.7251C324.119 36.9236 323.976 37.0849 323.785 37.2073C323.597 37.3268 323.365 37.388 323.09 37.388C322.811 37.388 322.577 37.3268 322.386 37.2073C322.196 37.0849 322.051 36.9236 321.953 36.7251C321.854 36.5235 321.803 36.3025 321.803 36.0621ZM322.46 35.7157V36.0621C322.46 36.2622 322.507 36.4413 322.602 36.5996C322.696 36.7564 322.859 36.8341 323.09 36.8341C323.316 36.8341 323.474 36.7564 323.567 36.5996C323.661 36.4413 323.709 36.2622 323.709 36.0621V35.7157C323.709 35.5156 323.662 35.338 323.573 35.1812C323.483 35.0229 323.322 34.9438 323.09 34.9438C322.865 34.9438 322.704 35.0229 322.605 35.1812C322.508 35.338 322.46 35.5156 322.46 35.7157ZM322.048 41.0656L326.577 34.4809H327.31L322.781 41.0656H322.048Z" fill="black"/>
<path d="M231.326 55.5698H218.162V68.7421H231.326V55.5698Z" fill="#FEDC60"/>
<path d="M220.631 55.5698H228.858C229.512 55.5698 230.139 55.8311 230.602 56.2939C231.065 56.7568 231.326 57.3854 231.326 58.0394V66.2725C231.326 66.928 231.065 67.5551 230.602 68.0195C230.139 68.4823 229.512 68.7421 228.858 68.7421H220.631C219.975 68.7421 219.348 68.4823 218.885 68.0195C218.422 67.5551 218.162 66.928 218.162 66.2725V58.0394C218.162 57.3854 218.422 56.7568 218.885 56.2939C219.348 55.8311 219.975 55.5698 220.631 55.5698Z" fill="#FEDC60" stroke="white" stroke-width="0.822474"/>
<path d="M241.536 62.8831H240.739C240.691 62.6532 240.609 62.4516 240.491 62.2784C240.374 62.1037 240.234 61.9589 240.067 61.8409C239.901 61.72 239.717 61.6304 239.516 61.5706C239.314 61.5109 239.105 61.4811 238.886 61.4811C238.487 61.4811 238.126 61.5811 237.802 61.7827C237.481 61.9842 237.224 62.2814 237.034 62.6741C236.845 63.0653 236.751 63.5475 236.751 64.1179C236.751 64.6883 236.845 65.1691 237.034 65.5618C237.224 65.953 237.481 66.2501 237.802 66.4517C238.126 66.6533 238.487 66.7548 238.886 66.7548C239.105 66.7548 239.314 66.7249 239.516 66.6637C239.717 66.604 239.901 66.5159 240.067 66.3979C240.234 66.277 240.374 66.1307 240.491 65.9575C240.609 65.7813 240.691 65.5797 240.739 65.3528H241.536C241.476 65.6887 241.366 65.9903 241.208 66.2561C241.049 66.5219 240.852 66.7473 240.616 66.934C240.38 67.1191 240.116 67.2594 239.822 67.355C239.531 67.4521 239.219 67.4999 238.886 67.4999C238.324 67.4999 237.824 67.3625 237.388 67.0893C236.951 66.8145 236.606 66.4248 236.355 65.9187C236.104 65.4125 235.979 64.8122 235.979 64.1179C235.979 63.4221 236.104 62.8219 236.355 62.3157C236.606 61.811 236.951 61.4198 237.388 61.1466C237.824 60.8719 238.324 60.7345 238.886 60.7345C239.219 60.7345 239.531 60.7823 239.822 60.8794C240.116 60.9749 240.38 61.1168 240.616 61.3034C240.852 61.4885 241.049 61.7125 241.208 61.9783C241.366 62.2426 241.476 62.5442 241.536 62.8831ZM244.176 67.5267C243.862 67.5267 243.579 67.467 243.323 67.349C243.068 67.2296 242.865 67.0564 242.716 66.8309C242.565 66.604 242.49 66.3293 242.49 66.0082C242.49 65.7245 242.545 65.4961 242.657 65.3199C242.769 65.1422 242.919 65.0034 243.104 64.9018C243.29 64.8018 243.497 64.7256 243.722 64.6764C243.949 64.6256 244.177 64.5853 244.407 64.5539C244.707 64.5166 244.951 64.4867 245.137 64.4673C245.326 64.4464 245.463 64.4106 245.548 64.3613C245.636 64.3121 245.681 64.227 245.681 64.1045V64.0791C245.681 63.7611 245.593 63.5147 245.42 63.3385C245.248 63.1638 244.988 63.0757 244.639 63.0757C244.276 63.0757 243.992 63.1549 243.786 63.3132C243.58 63.4714 243.435 63.6416 243.352 63.8208L242.632 63.564C242.76 63.2639 242.932 63.0309 243.146 62.8637C243.362 62.6935 243.598 62.5755 243.853 62.5098C244.112 62.4411 244.364 62.4068 244.613 62.4068C244.772 62.4068 244.954 62.4262 245.16 62.465C245.367 62.5009 245.568 62.577 245.76 62.692C245.956 62.8085 246.117 62.9831 246.247 63.2176C246.375 63.4505 246.439 63.7641 246.439 64.1553V67.4103H245.681V66.7414H245.642C245.59 66.8489 245.505 66.9638 245.384 67.0863C245.264 67.2072 245.105 67.3117 244.906 67.3968C244.706 67.4834 244.463 67.5267 244.176 67.5267ZM244.291 66.8444C244.591 66.8444 244.845 66.7846 245.049 66.6682C245.258 66.5502 245.415 66.3979 245.52 66.2113C245.627 66.0246 245.681 65.8276 245.681 65.623V64.9272C245.648 64.966 245.578 65.0019 245.467 65.0332C245.361 65.0646 245.236 65.09 245.096 65.1139C244.955 65.1363 244.819 65.1557 244.687 65.1721C244.555 65.187 244.449 65.2005 244.369 65.2109C244.171 65.2363 243.986 65.2781 243.815 65.3363C243.646 65.3916 243.509 65.4767 243.404 65.5902C243.301 65.7022 243.249 65.8545 243.249 66.0471C243.249 66.3099 243.347 66.5099 243.541 66.6443C243.738 66.7772 243.989 66.8444 244.291 66.8444ZM247.928 67.4103V60.8241H248.687V63.2549H248.751C248.806 63.1698 248.884 63.0608 248.982 62.9279C249.082 62.792 249.227 62.6726 249.414 62.5666C249.602 62.4606 249.857 62.4068 250.178 62.4068C250.595 62.4068 250.961 62.5098 251.279 62.7189C251.595 62.9264 251.843 63.2206 252.021 63.6028C252.198 63.9851 252.288 64.4345 252.288 64.9541C252.288 65.4767 252.198 65.9306 252.021 66.3143C251.843 66.6951 251.597 66.9907 251.282 67.2012C250.967 67.4088 250.602 67.5133 250.192 67.5133C249.874 67.5133 249.62 67.461 249.429 67.355C249.239 67.249 249.091 67.1281 248.988 66.9922C248.885 66.8548 248.806 66.7414 248.751 66.6518H248.661V67.4103H247.928ZM248.673 64.9407C248.673 65.3139 248.728 65.6424 248.837 65.9276C248.946 66.2113 249.106 66.4323 249.317 66.5935C249.527 66.7518 249.784 66.8309 250.089 66.8309C250.405 66.8309 250.671 66.7473 250.883 66.5801C251.097 66.4114 251.258 66.1844 251.365 65.8992C251.474 65.6111 251.53 65.2915 251.53 64.9407C251.53 64.5928 251.476 64.2807 251.368 64.0015C251.264 63.7208 251.104 63.4983 250.889 63.3355C250.677 63.1713 250.41 63.0877 250.089 63.0877C249.78 63.0877 249.52 63.1668 249.311 63.3236C249.1 63.4774 248.942 63.6939 248.834 63.9731C248.727 64.2493 248.673 64.5719 248.673 64.9407ZM253.45 67.4103V62.471H254.208V67.4103H253.45ZM253.835 61.6468C253.687 61.6468 253.559 61.5975 253.453 61.496C253.347 61.396 253.294 61.275 253.294 61.1332C253.294 60.9913 253.347 60.8704 253.453 60.7704C253.559 60.6688 253.687 60.618 253.835 60.618C253.983 60.618 254.11 60.6688 254.214 60.7704C254.322 60.8704 254.375 60.9913 254.375 61.1332C254.375 61.275 254.322 61.396 254.214 61.496C254.11 61.5975 253.983 61.6468 253.835 61.6468ZM256.357 64.439V67.4103H255.598V62.471H256.331V63.2429H256.396C256.511 62.9921 256.687 62.7905 256.923 62.6382C257.159 62.4829 257.463 62.4068 257.837 62.4068C258.171 62.4068 258.464 62.4755 258.714 62.6128C258.965 62.7472 259.159 62.9533 259.3 63.2295C259.439 63.5043 259.509 63.8522 259.509 64.2717V67.4103H258.749V64.3225C258.749 63.9358 258.649 63.6327 258.447 63.4162C258.246 63.1982 257.969 63.0877 257.617 63.0877C257.375 63.0877 257.159 63.1414 256.968 63.2459C256.779 63.3505 256.63 63.5043 256.521 63.7059C256.412 63.9074 256.357 64.1523 256.357 64.439ZM262.967 67.5133C262.491 67.5133 262.08 67.4088 261.735 67.1983C261.392 66.9862 261.127 66.6906 260.941 66.3098C260.756 65.9291 260.663 65.4857 260.663 64.9795C260.663 64.4733 260.756 64.0268 260.941 63.6416C261.127 63.2534 261.386 62.9503 261.719 62.7338C262.053 62.5158 262.443 62.4068 262.889 62.4068C263.146 62.4068 263.4 62.4501 263.651 62.5352C263.902 62.6203 264.13 62.7607 264.336 62.9533C264.542 63.1444 264.706 63.3968 264.829 63.7118C264.95 64.0269 265.011 64.4151 265.011 64.8765V65.1975H261.204V64.542H264.239C264.239 64.2628 264.184 64.0149 264.072 63.7954C263.963 63.5774 263.806 63.4042 263.603 63.2773C263.401 63.1519 263.164 63.0877 262.889 63.0877C262.586 63.0877 262.325 63.1638 262.104 63.3132C261.886 63.461 261.717 63.6536 261.599 63.8925C261.481 64.1299 261.423 64.3852 261.423 64.657V65.0944C261.423 65.4677 261.487 65.7843 261.616 66.0441C261.747 66.3009 261.928 66.4965 262.159 66.6324C262.391 66.7653 262.659 66.8309 262.967 66.8309C263.165 66.8309 263.346 66.8041 263.506 66.7473C263.67 66.6906 263.811 66.604 263.928 66.4905C264.046 66.3755 264.138 66.2307 264.202 66.059L264.935 66.2651C264.857 66.5144 264.727 66.7324 264.545 66.922C264.363 67.1087 264.138 67.2535 263.87 67.3595C263.601 67.4611 263.301 67.5133 262.967 67.5133ZM268.314 62.471V63.1145H265.755V62.471H268.314ZM266.501 61.287H267.26V65.9948C267.26 66.2098 267.291 66.3711 267.352 66.4771C267.416 66.5831 267.499 66.6533 267.597 66.6906C267.697 66.7249 267.805 66.7414 267.915 66.7414C267.999 66.7414 268.067 66.7369 268.121 66.7279C268.175 66.7175 268.218 66.71 268.25 66.7025L268.405 67.3849C268.353 67.4043 268.281 67.4237 268.188 67.4431C268.097 67.464 267.979 67.4745 267.839 67.4745C267.624 67.4745 267.413 67.4282 267.207 67.3356C267.004 67.2446 266.836 67.1042 266.7 66.9146C266.567 66.7264 266.501 66.489 266.501 66.2009V61.287Z" fill="black"/>
<path d="M310.378 67.4999C309.952 67.4999 309.575 67.4282 309.242 67.2819C308.912 67.1355 308.649 66.934 308.455 66.6741C308.262 66.4129 308.156 66.1083 308.14 65.7634H308.949C308.967 65.9754 309.04 66.159 309.168 66.3143C309.297 66.4666 309.466 66.5846 309.673 66.6682C309.881 66.7518 310.112 66.7936 310.364 66.7936C310.648 66.7936 310.899 66.7428 311.117 66.6443C311.336 66.5458 311.507 66.4084 311.632 66.2337C311.756 66.0575 311.819 65.8545 311.819 65.623C311.819 65.3796 311.758 65.1661 311.638 64.9824C311.519 64.7958 311.342 64.6495 311.111 64.545C310.88 64.4404 310.596 64.3882 310.261 64.3882H309.734V63.6804H310.261C310.523 63.6804 310.753 63.6326 310.95 63.5386C311.15 63.4445 311.305 63.3116 311.416 63.1399C311.529 62.9682 311.587 62.7666 311.587 62.5352C311.587 62.3127 311.537 62.1186 311.438 61.9529C311.339 61.7887 311.201 61.6588 311.02 61.5677C310.842 61.4751 310.633 61.4288 310.39 61.4288C310.163 61.4288 309.949 61.4706 309.748 61.5542C309.548 61.6364 309.385 61.7543 309.258 61.9111C309.131 62.0649 309.064 62.2515 309.052 62.471H308.28C308.293 62.1261 308.398 61.823 308.592 61.5647C308.788 61.3019 309.043 61.0988 309.358 60.9525C309.675 60.8077 310.024 60.7345 310.403 60.7345C310.811 60.7345 311.16 60.8166 311.451 60.9824C311.743 61.1451 311.967 61.3601 312.123 61.6289C312.28 61.8962 312.358 62.1858 312.358 62.4964C312.358 62.8667 312.261 63.1832 312.065 63.4445C311.873 63.7073 311.61 63.888 311.278 63.988V64.0403C311.693 64.109 312.019 64.2852 312.252 64.5703C312.486 64.854 312.603 65.2049 312.603 65.623C312.603 65.9799 312.506 66.3024 312.31 66.5876C312.117 66.8698 311.853 67.0937 311.519 67.2565C311.184 67.4192 310.803 67.4999 310.378 67.4999ZM314.281 67.461C314.123 67.461 313.985 67.4043 313.872 67.2908C313.758 67.1773 313.702 67.0415 313.702 66.8832C313.702 66.7249 313.758 66.5875 313.872 66.4741C313.985 66.3606 314.123 66.3039 314.281 66.3039C314.439 66.3039 314.575 66.3606 314.689 66.4741C314.802 66.5875 314.859 66.7249 314.859 66.8832C314.859 66.9877 314.833 67.0848 314.78 67.1729C314.727 67.261 314.659 67.3311 314.571 67.3849C314.484 67.4357 314.388 67.461 314.281 67.461ZM318.187 67.4999C317.761 67.4999 317.384 67.4282 317.051 67.2819C316.721 67.1355 316.458 66.934 316.264 66.6741C316.07 66.4129 315.965 66.1083 315.949 65.7634H316.758C316.776 65.9754 316.849 66.159 316.977 66.3143C317.106 66.4666 317.275 66.5846 317.482 66.6682C317.69 66.7518 317.921 66.7936 318.174 66.7936C318.456 66.7936 318.707 66.7428 318.926 66.6443C319.144 66.5458 319.316 66.4084 319.441 66.2337C319.565 66.0575 319.626 65.8545 319.626 65.623C319.626 65.3796 319.567 65.1661 319.447 64.9824C319.326 64.7958 319.152 64.6495 318.92 64.545C318.689 64.4404 318.405 64.3882 318.07 64.3882H317.543V63.6804H318.07C318.332 63.6804 318.562 63.6326 318.759 63.5386C318.957 63.4445 319.114 63.3116 319.225 63.1399C319.338 62.9682 319.395 62.7666 319.395 62.5352C319.395 62.3127 319.346 62.1186 319.247 61.9529C319.149 61.7887 319.01 61.6588 318.829 61.5677C318.651 61.4751 318.441 61.4288 318.199 61.4288C317.972 61.4288 317.757 61.4706 317.555 61.5542C317.357 61.6364 317.194 61.7543 317.067 61.9111C316.94 62.0649 316.872 62.2515 316.861 62.471H316.089C316.103 62.1261 316.207 61.823 316.401 61.5647C316.597 61.3019 316.852 61.0988 317.167 60.9525C317.484 60.8077 317.833 60.7345 318.212 60.7345C318.62 60.7345 318.969 60.8166 319.261 60.9824C319.552 61.1451 319.776 61.3601 319.932 61.6289C320.089 61.8962 320.167 62.1858 320.167 62.4964C320.167 62.8667 320.07 63.1832 319.874 63.4445C319.682 63.7073 319.419 63.888 319.087 63.988V64.0403C319.502 64.109 319.828 64.2852 320.061 64.5703C320.295 64.854 320.412 65.2049 320.412 65.623C320.412 65.9799 320.315 66.3024 320.119 66.5876C319.926 66.8698 319.662 67.0937 319.328 67.2565C318.993 67.4192 318.612 67.4999 318.187 67.4999ZM325.084 66.1755V65.8276C325.084 65.5887 325.133 65.3677 325.232 65.1691C325.333 64.9675 325.479 64.8063 325.669 64.6868C325.863 64.5644 326.096 64.5032 326.371 64.5032C326.65 64.5032 326.883 64.5644 327.071 64.6868C327.261 64.8063 327.403 64.9675 327.5 65.1691C327.595 65.3677 327.644 65.5887 327.644 65.8276V66.1755C327.644 66.4159 327.595 66.6368 327.497 66.8384C327.4 67.037 327.256 67.1983 327.065 67.3207C326.877 67.4401 326.645 67.4999 326.371 67.4999C326.092 67.4999 325.857 67.4401 325.666 67.3207C325.475 67.1983 325.33 67.037 325.232 66.8384C325.133 66.6368 325.084 66.4159 325.084 66.1755ZM325.741 65.8276V66.1755C325.741 66.3755 325.787 66.5532 325.883 66.713C325.977 66.8683 326.139 66.9474 326.371 66.9474C326.596 66.9474 326.754 66.8683 326.847 66.713C326.941 66.5532 326.987 66.3755 326.987 66.1755V65.8276C326.987 65.629 326.943 65.4513 326.853 65.2945C326.763 65.1363 326.602 65.0556 326.371 65.0556C326.145 65.0556 325.984 65.1363 325.885 65.2945C325.788 65.4513 325.741 65.629 325.741 65.8276ZM321.805 62.4068V62.0589C321.805 61.8185 321.854 61.599 321.953 61.4005C322.053 61.1989 322.199 61.0376 322.39 60.9182C322.583 60.7957 322.816 60.7345 323.09 60.7345C323.37 60.7345 323.603 60.7957 323.792 60.9182C323.98 61.0376 324.122 61.1989 324.219 61.4005C324.316 61.599 324.364 61.8185 324.364 62.0589V62.4068C324.364 62.6472 324.315 62.8667 324.216 63.0683C324.119 63.2684 323.976 63.4296 323.785 63.552C323.597 63.6715 323.365 63.7312 323.09 63.7312C322.811 63.7312 322.577 63.6715 322.386 63.552C322.196 63.4296 322.051 63.2684 321.953 63.0683C321.854 62.8667 321.805 62.6472 321.805 62.4068ZM322.46 62.0589V62.4068C322.46 62.6054 322.507 62.7846 322.602 62.9428C322.696 63.0996 322.859 63.1787 323.09 63.1787C323.316 63.1787 323.474 63.0996 323.567 62.9428C323.661 62.7846 323.709 62.6054 323.709 62.4068V62.0589C323.709 61.8603 323.662 61.6811 323.573 61.5259C323.483 61.3661 323.322 61.2869 323.09 61.2869C322.865 61.2869 322.704 61.3661 322.605 61.5259C322.508 61.6811 322.46 61.8603 322.46 62.0589ZM322.048 67.4103L326.577 60.8241H327.31L322.781 67.4103H322.048Z" fill="black"/>
<path d="M231.326 81.9145H218.162V95.0868H231.326V81.9145Z" fill="#F2A1A6"/>
<path d="M220.631 81.9145H228.858C229.512 81.9145 230.139 82.1743 230.602 82.6372C231.065 83.1015 231.326 83.7287 231.326 84.3841V92.6172C231.326 93.2712 231.065 93.8998 230.602 94.3627C230.139 94.8255 229.512 95.0868 228.858 95.0868H220.631C219.975 95.0868 219.348 94.8255 218.885 94.3627C218.422 93.8998 218.162 93.2712 218.162 92.6172V84.3841C218.162 83.7287 218.422 83.1015 218.885 82.6372C219.348 82.1743 219.975 81.9145 220.631 81.9145Z" fill="#F2A1A6" stroke="white" stroke-width="0.822474"/>
<path d="M237.433 93.7535L235.632 87.1673H236.442L237.818 92.5321H237.883L239.285 87.1673H240.185L241.587 92.5321H241.651L243.028 87.1673H243.839L242.038 93.7535H241.215L239.761 88.5051H239.71L238.256 93.7535H237.433ZM245.723 93.8699C245.409 93.8699 245.126 93.8103 244.87 93.6923C244.617 93.5729 244.413 93.3996 244.263 93.1757C244.113 92.9472 244.039 92.674 244.039 92.3515C244.039 92.0693 244.094 91.8393 244.206 91.6631C244.316 91.4855 244.466 91.3466 244.652 91.245C244.839 91.145 245.045 91.0704 245.269 91.0211C245.497 90.9688 245.726 90.9285 245.954 90.8986C246.254 90.8598 246.498 90.8315 246.684 90.812C246.873 90.7896 247.01 90.7553 247.097 90.7061C247.185 90.6568 247.228 90.5701 247.228 90.4477V90.4223C247.228 90.1058 247.141 89.8579 246.968 89.6832C246.796 89.507 246.535 89.4189 246.186 89.4189C245.824 89.4189 245.539 89.4981 245.335 89.6563C245.129 89.8161 244.984 89.9848 244.9 90.1655L244.179 89.9072C244.307 89.6071 244.479 89.3741 244.694 89.2069C244.911 89.0367 245.147 88.9202 245.402 88.853C245.659 88.7844 245.911 88.75 246.16 88.75C246.319 88.75 246.501 88.7694 246.707 88.8083C246.914 88.8441 247.116 88.9203 247.309 89.0367C247.504 89.1517 247.665 89.3264 247.794 89.5608C247.922 89.7937 247.987 90.1073 247.987 90.5V93.7535H247.228V93.0845H247.189C247.138 93.192 247.052 93.307 246.932 93.4295C246.813 93.5519 246.653 93.6549 246.453 93.7415C246.253 93.8266 246.011 93.8699 245.723 93.8699ZM245.839 93.1876C246.14 93.1876 246.392 93.1294 246.598 93.0115C246.805 92.8935 246.962 92.7412 247.067 92.5545C247.174 92.3679 247.228 92.1723 247.228 91.9662V91.2719C247.197 91.3092 247.125 91.345 247.016 91.3779C246.908 91.4078 246.785 91.4347 246.643 91.4585C246.504 91.4794 246.368 91.4989 246.235 91.5153C246.104 91.5302 245.998 91.5437 245.916 91.5541C245.718 91.5795 245.535 91.6213 245.363 91.6795C245.193 91.7363 245.057 91.8199 244.951 91.9333C244.848 92.0453 244.797 92.1977 244.797 92.3903C244.797 92.6546 244.894 92.8532 245.09 92.989C245.287 93.1219 245.536 93.1876 245.839 93.1876ZM249.372 93.7535V88.8142H250.105V89.5608H250.158C250.247 89.3159 250.41 89.1173 250.646 88.965C250.882 88.8127 251.147 88.7366 251.443 88.7366C251.498 88.7366 251.568 88.7381 251.652 88.7411C251.736 88.7426 251.798 88.7455 251.842 88.75V89.522C251.816 89.516 251.757 89.5056 251.666 89.4936C251.574 89.4787 251.48 89.4712 251.379 89.4712C251.138 89.4712 250.925 89.5205 250.735 89.622C250.549 89.7206 250.401 89.8579 250.292 90.0326C250.184 90.2073 250.131 90.4059 250.131 90.6284V93.7535H249.372ZM254.456 93.8565C254.046 93.8565 253.681 93.7535 253.366 93.5445C253.051 93.3355 252.805 93.0383 252.627 92.6576C252.449 92.2738 252.36 91.8199 252.36 91.2973C252.36 90.7777 252.449 90.3282 252.627 89.946C252.805 89.5653 253.053 89.2696 253.369 89.0621C253.687 88.8546 254.053 88.75 254.47 88.75C254.791 88.75 255.044 88.8038 255.231 88.9113C255.421 89.0158 255.564 89.1367 255.663 89.2711C255.763 89.404 255.842 89.513 255.897 89.5996H255.961V87.1673H256.72V93.7535H255.987V92.995H255.897C255.842 93.0845 255.763 93.1981 255.66 93.3354C255.557 93.4713 255.409 93.5923 255.219 93.6998C255.028 93.8043 254.774 93.8565 254.456 93.8565ZM254.559 93.1757C254.864 93.1757 255.121 93.0965 255.331 92.9367C255.542 92.777 255.701 92.5545 255.81 92.2708C255.919 91.9856 255.975 91.6571 255.975 91.2838C255.975 90.915 255.921 90.5926 255.813 90.3163C255.706 90.0371 255.548 89.8206 255.337 89.6668C255.128 89.51 254.868 89.4324 254.559 89.4324C254.238 89.4324 253.969 89.5145 253.756 89.6803C253.544 89.843 253.384 90.064 253.277 90.3447C253.171 90.6239 253.118 90.9374 253.118 91.2838C253.118 91.6362 253.172 91.9558 253.28 92.2425C253.389 92.5277 253.55 92.7546 253.762 92.9248C253.977 93.092 254.243 93.1757 254.559 93.1757ZM258.216 93.7535V88.8142H258.949V89.5608H259C259.091 89.3159 259.254 89.1173 259.49 88.965C259.725 88.8127 259.991 88.7366 260.287 88.7366C260.342 88.7366 260.412 88.7381 260.496 88.7411C260.58 88.7426 260.642 88.7455 260.686 88.75V89.522C260.66 89.516 260.6 89.5056 260.509 89.4936C260.418 89.4787 260.323 89.4712 260.223 89.4712C259.982 89.4712 259.767 89.5205 259.579 89.622C259.392 89.7206 259.245 89.8579 259.136 90.0326C259.028 90.2073 258.974 90.4059 258.974 90.6284V93.7535H258.216ZM263.442 93.8565C262.995 93.8565 262.604 93.7505 262.268 93.5385C261.934 93.3265 261.672 93.0293 261.483 92.6471C261.296 92.2664 261.204 91.8199 261.204 91.3093C261.204 90.7956 261.296 90.3462 261.483 89.9625C261.672 89.5787 261.934 89.2801 262.268 89.0681C262.604 88.8561 262.995 88.75 263.442 88.75C263.887 88.75 264.278 88.8561 264.612 89.0681C264.948 89.2801 265.21 89.5787 265.396 89.9625C265.586 90.3462 265.68 90.7956 265.68 91.3093C265.68 91.8199 265.586 92.2664 265.396 92.6471C265.21 93.0293 264.948 93.3265 264.612 93.5385C264.278 93.7505 263.887 93.8565 263.442 93.8565ZM263.442 93.1757C263.781 93.1757 264.059 93.0891 264.278 92.9144C264.496 92.7412 264.659 92.5127 264.763 92.229C264.868 91.9468 264.922 91.6407 264.922 91.3093C264.922 90.9793 264.868 90.6717 264.763 90.3865C264.659 90.1013 264.496 89.8714 264.278 89.6952C264.059 89.5205 263.781 89.4324 263.442 89.4324C263.103 89.4324 262.824 89.5205 262.606 89.6952C262.386 89.8714 262.225 90.1013 262.12 90.3865C262.014 90.6717 261.962 90.9793 261.962 91.3093C261.962 91.6407 262.014 91.9468 262.12 92.229C262.225 92.5127 262.386 92.7412 262.606 92.9144C262.824 93.0891 263.103 93.1757 263.442 93.1757ZM266.942 93.7535V87.1673H267.7V89.5996H267.764C267.82 89.513 267.897 89.404 267.996 89.2711C268.097 89.1367 268.241 89.0158 268.427 88.9113C268.616 88.8038 268.871 88.75 269.192 88.75C269.608 88.75 269.974 88.8546 270.292 89.0621C270.609 89.2696 270.857 89.5653 271.034 89.946C271.214 90.3282 271.302 90.7777 271.302 91.2973C271.302 91.8199 271.214 92.2738 271.034 92.6576C270.857 93.0383 270.61 93.3355 270.295 93.5445C269.98 93.7535 269.617 93.8565 269.205 93.8565C268.887 93.8565 268.633 93.8043 268.442 93.6998C268.253 93.5923 268.105 93.4713 268.002 93.3354C267.899 93.1981 267.82 93.0845 267.764 92.995H267.675V93.7535H266.942ZM267.687 91.2838C267.687 91.6571 267.742 91.9856 267.851 92.2708C267.96 92.5545 268.12 92.777 268.33 92.9367C268.541 93.0965 268.798 93.1757 269.102 93.1757C269.419 93.1757 269.685 93.092 269.897 92.9248C270.112 92.7546 270.271 92.5277 270.379 92.2425C270.488 91.9558 270.543 91.6362 270.543 91.2838C270.543 90.9374 270.489 90.6239 270.382 90.3447C270.277 90.064 270.118 89.843 269.903 89.6803C269.691 89.5145 269.423 89.4324 269.102 89.4324C268.793 89.4324 268.533 89.51 268.324 89.6668C268.114 89.8206 267.956 90.0371 267.848 90.3163C267.741 90.5926 267.687 90.915 267.687 91.2838ZM274.534 93.8565C274.058 93.8565 273.647 93.752 273.302 93.5415C272.959 93.3295 272.695 93.0338 272.508 92.6546C272.323 92.2723 272.232 91.8288 272.232 91.3227C272.232 90.8165 272.323 90.3715 272.508 89.9848C272.695 89.5966 272.953 89.295 273.286 89.0785C273.62 88.859 274.01 88.75 274.457 88.75C274.713 88.75 274.967 88.7933 275.218 88.8784C275.469 88.965 275.697 89.1039 275.903 89.2965C276.11 89.4876 276.274 89.74 276.396 90.0565C276.519 90.3716 276.578 90.7583 276.578 91.2197V91.5422H272.771V90.8852H275.808C275.808 90.6075 275.751 90.3581 275.641 90.1401C275.53 89.9206 275.373 89.7474 275.17 89.622C274.969 89.4951 274.731 89.4324 274.457 89.4324C274.154 89.4324 273.892 89.507 273.671 89.6563C273.453 89.8057 273.285 89.9983 273.167 90.2357C273.049 90.4746 272.99 90.7285 272.99 91.0017V91.4391C272.99 91.8109 273.055 92.1275 273.183 92.3873C273.314 92.6441 273.495 92.8412 273.726 92.9755C273.958 93.1084 274.227 93.1757 274.534 93.1757C274.733 93.1757 274.914 93.1473 275.073 93.092C275.238 93.0338 275.378 92.9472 275.496 92.8337C275.614 92.7188 275.705 92.5754 275.769 92.4037L276.502 92.6097C276.425 92.8576 276.295 93.0771 276.113 93.2653C275.93 93.4519 275.705 93.5982 275.438 93.7027C275.169 93.8057 274.869 93.8565 274.534 93.8565Z" fill="black"/>
<path d="M308.373 93.7535V93.1757L310.547 90.7956C310.802 90.5164 311.013 90.2745 311.177 90.0684C311.343 89.8609 311.465 89.6653 311.544 89.4831C311.626 89.2995 311.667 89.1054 311.667 88.9038C311.667 88.6724 311.61 88.4723 311.499 88.3036C311.39 88.1334 311.24 88.0035 311.048 87.9109C310.859 87.8183 310.644 87.772 310.406 87.772C310.153 87.772 309.932 87.8258 309.743 87.9303C309.557 88.0333 309.412 88.1782 309.309 88.3648C309.209 88.5514 309.158 88.7694 309.158 89.0203H308.4C308.4 88.635 308.488 88.2961 308.665 88.0035C308.845 87.7123 309.086 87.4854 309.393 87.3226C309.702 87.1598 310.048 87.0777 310.432 87.0777C310.817 87.0777 311.159 87.1598 311.458 87.3226C311.755 87.4854 311.989 87.7049 312.158 87.9811C312.328 88.2588 312.412 88.5664 312.412 88.9038C312.412 89.1472 312.368 89.3831 312.28 89.6146C312.195 89.8445 312.044 90.1013 311.831 90.3835C311.619 90.6642 311.323 91.0076 310.945 91.4122L309.467 92.995V93.0473H312.528V93.7535H308.373ZM314.423 93.8058C314.263 93.8058 314.127 93.749 314.014 93.6355C313.9 93.5221 313.844 93.3847 313.844 93.2264C313.844 93.0682 313.9 92.9323 314.014 92.8188C314.127 92.7053 314.263 92.6471 314.423 92.6471C314.581 92.6471 314.717 92.7053 314.831 92.8188C314.944 92.9323 315.001 93.0682 315.001 93.2264C315.001 93.331 314.974 93.428 314.92 93.5161C314.869 93.6041 314.799 93.6744 314.711 93.7281C314.626 93.7804 314.529 93.8058 314.423 93.8058ZM318.275 93.8446C317.899 93.8446 317.558 93.7684 317.257 93.6191C316.954 93.4683 316.712 93.2638 316.53 93.001C316.348 92.7397 316.247 92.4425 316.231 92.108H317.002C317.033 92.4052 317.167 92.6515 317.408 92.8471C317.65 93.0398 317.939 93.1368 318.275 93.1368C318.545 93.1368 318.786 93.0726 318.996 92.9472C319.208 92.8203 319.374 92.6471 319.495 92.4261C319.616 92.2036 319.677 91.9513 319.677 91.6706C319.677 91.3824 319.614 91.1271 319.488 90.9016C319.364 90.6747 319.192 90.4955 318.974 90.3641C318.754 90.2342 318.505 90.167 318.224 90.1655C318.023 90.1625 317.815 90.1939 317.603 90.2581C317.391 90.3208 317.217 90.4014 317.079 90.5L316.333 90.4089L316.733 87.1673H320.154V87.875H317.402L317.169 89.8176H317.208C317.343 89.7101 317.512 89.622 317.717 89.5503C317.92 89.4802 318.132 89.4443 318.353 89.4443C318.756 89.4443 319.114 89.5414 319.431 89.734C319.747 89.9251 319.997 90.1864 320.176 90.5194C320.358 90.8508 320.449 91.2301 320.449 91.6571C320.449 92.0782 320.355 92.453 320.167 92.783C319.98 93.1115 319.723 93.3698 319.395 93.5609C319.067 93.749 318.693 93.8446 318.275 93.8446ZM325.084 92.5187V92.1723C325.084 91.9319 325.133 91.7124 325.232 91.5123C325.333 91.3107 325.479 91.151 325.669 91.03C325.863 90.9076 326.096 90.8464 326.371 90.8464C326.65 90.8464 326.883 90.9076 327.071 91.03C327.261 91.151 327.403 91.3107 327.5 91.5123C327.595 91.7124 327.645 91.9319 327.645 92.1723V92.5187C327.645 92.7591 327.595 92.98 327.497 93.1816C327.4 93.3817 327.256 93.5414 327.065 93.6639C326.877 93.7833 326.646 93.8446 326.371 93.8446C326.092 93.8446 325.857 93.7833 325.666 93.6639C325.475 93.5414 325.33 93.3817 325.232 93.1816C325.133 92.98 325.084 92.7591 325.084 92.5187ZM325.741 92.1723V92.5187C325.741 92.7188 325.787 92.8979 325.883 93.0562C325.977 93.213 326.139 93.2906 326.371 93.2906C326.596 93.2906 326.755 93.213 326.847 93.0562C326.941 92.8979 326.988 92.7188 326.988 92.5187V92.1723C326.988 91.9722 326.943 91.7945 326.853 91.6377C326.764 91.4794 326.602 91.4003 326.371 91.4003C326.145 91.4003 325.984 91.4794 325.886 91.6377C325.789 91.7945 325.741 91.9722 325.741 92.1723ZM321.805 88.75V88.4021C321.805 88.1632 321.854 87.9438 321.953 87.7437C322.053 87.5421 322.199 87.3808 322.39 87.2614C322.583 87.1389 322.816 87.0777 323.09 87.0777C323.37 87.0777 323.603 87.1389 323.792 87.2614C323.98 87.3808 324.122 87.5421 324.219 87.7437C324.316 87.9438 324.364 88.1632 324.364 88.4021V88.75C324.364 88.9904 324.315 89.2114 324.216 89.413C324.119 89.6116 323.976 89.7728 323.785 89.8952C323.597 90.0147 323.365 90.0744 323.09 90.0744C322.811 90.0744 322.577 90.0147 322.386 89.8952C322.196 89.7728 322.051 89.6116 321.953 89.413C321.854 89.2114 321.805 88.9904 321.805 88.75ZM322.46 88.4021V88.75C322.46 88.9501 322.507 89.1293 322.602 89.2876C322.696 89.4443 322.859 89.522 323.09 89.522C323.316 89.522 323.474 89.4443 323.567 89.2876C323.661 89.1293 323.709 88.9501 323.709 88.75V88.4021C323.709 88.2035 323.662 88.0259 323.573 87.8691C323.483 87.7108 323.322 87.6317 323.09 87.6317C322.865 87.6317 322.704 87.7108 322.605 87.8691C322.508 88.0259 322.46 88.2035 322.46 88.4021ZM322.048 93.7535L326.577 87.1673H327.31L322.781 93.7535H322.048Z" fill="black"/>
<path d="M231.326 108.258H218.162V121.43H231.326V108.258Z" fill="#F6CBC7"/>
<path d="M220.631 108.258H228.858C229.512 108.258 230.139 108.518 230.602 108.982C231.065 109.445 231.326 110.073 231.326 110.727V118.96C231.326 119.616 231.065 120.243 230.602 120.707C230.139 121.17 229.512 121.43 228.858 121.43H220.631C219.975 121.43 219.348 121.17 218.885 120.707C218.422 120.243 218.162 119.616 218.162 118.96V110.727C218.162 110.073 218.422 109.445 218.885 108.982C219.348 108.518 219.975 108.258 220.631 108.258Z" fill="#F6CBC7" stroke="white" stroke-width="0.822474"/>
<path d="M238.269 120.098H236.237V113.512H238.359C238.998 113.512 239.544 113.645 239.998 113.908C240.453 114.169 240.801 114.545 241.043 115.037C241.287 115.525 241.408 116.11 241.408 116.792C241.408 117.479 241.285 118.069 241.04 118.565C240.797 119.057 240.44 119.437 239.973 119.703C239.505 119.967 238.938 120.098 238.269 120.098ZM237.034 119.39H238.217C238.762 119.39 239.213 119.286 239.571 119.075C239.929 118.866 240.197 118.566 240.371 118.178C240.547 117.79 240.636 117.328 240.636 116.792C240.636 116.261 240.549 115.802 240.374 115.419C240.201 115.033 239.941 114.738 239.596 114.532C239.251 114.324 238.821 114.22 238.308 114.22H237.034V119.39ZM242.642 120.098V115.159H243.375V115.905H243.426C243.517 115.661 243.68 115.462 243.916 115.31C244.152 115.157 244.418 115.081 244.713 115.081C244.769 115.081 244.839 115.083 244.922 115.084C245.006 115.087 245.069 115.09 245.112 115.095V115.867C245.087 115.859 245.027 115.85 244.934 115.837C244.845 115.822 244.749 115.814 244.649 115.814C244.409 115.814 244.194 115.865 244.006 115.967C243.819 116.065 243.671 116.203 243.562 116.377C243.455 116.552 243.401 116.749 243.401 116.973V120.098H242.642ZM247.465 120.215C247.152 120.215 246.868 120.155 246.613 120.037C246.357 119.918 246.156 119.744 246.005 119.519C245.856 119.292 245.779 119.017 245.779 118.696C245.779 118.414 245.836 118.184 245.947 118.008C246.059 117.83 246.208 117.691 246.395 117.59C246.581 117.49 246.786 117.414 247.011 117.364C247.238 117.314 247.467 117.273 247.697 117.243C247.997 117.204 248.24 117.175 248.427 117.155C248.615 117.134 248.752 117.099 248.839 117.049C248.925 117 248.97 116.915 248.97 116.792V116.767C248.97 116.449 248.884 116.203 248.709 116.026C248.539 115.852 248.277 115.764 247.928 115.764C247.565 115.764 247.281 115.843 247.075 116.001C246.869 116.161 246.726 116.33 246.642 116.51L245.921 116.252C246.05 115.952 246.221 115.719 246.436 115.552C246.653 115.381 246.889 115.263 247.144 115.198C247.401 115.129 247.653 115.095 247.903 115.095C248.061 115.095 248.243 115.114 248.449 115.153C248.657 115.189 248.857 115.265 249.051 115.381C249.245 115.496 249.408 115.671 249.536 115.905C249.665 116.138 249.729 116.452 249.729 116.845V120.098H248.97V119.429H248.931C248.881 119.537 248.794 119.652 248.675 119.774C248.554 119.895 248.394 120 248.195 120.086C247.995 120.171 247.752 120.215 247.465 120.215ZM247.58 119.532C247.88 119.532 248.134 119.474 248.34 119.356C248.548 119.238 248.704 119.086 248.809 118.899C248.916 118.713 248.97 118.515 248.97 118.311V117.615C248.937 117.654 248.867 117.69 248.758 117.723C248.651 117.753 248.527 117.779 248.385 117.802C248.246 117.824 248.109 117.844 247.976 117.86C247.846 117.875 247.74 117.888 247.658 117.899C247.461 117.924 247.277 117.966 247.105 118.024C246.935 118.079 246.798 118.165 246.693 118.278C246.59 118.39 246.539 118.542 246.539 118.735C246.539 118.999 246.636 119.198 246.832 119.334C247.029 119.467 247.279 119.532 247.58 119.532ZM252.233 120.098L250.728 115.159H251.526L252.594 118.941H252.645L253.7 115.159H254.51L255.552 118.928H255.604L256.672 115.159H257.469L255.964 120.098H255.217L254.136 116.304H254.06L252.979 120.098H252.233ZM260.375 120.201C259.898 120.201 259.488 120.097 259.143 119.886C258.801 119.674 258.535 119.379 258.349 118.999C258.165 118.617 258.072 118.174 258.072 117.667C258.072 117.161 258.165 116.715 258.349 116.33C258.535 115.941 258.795 115.64 259.128 115.423C259.462 115.204 259.852 115.095 260.297 115.095C260.555 115.095 260.809 115.138 261.06 115.223C261.311 115.308 261.539 115.449 261.745 115.641C261.951 115.832 262.114 116.085 262.237 116.4C262.359 116.715 262.42 117.103 262.42 117.564V117.885H258.613V117.23H261.648C261.648 116.951 261.593 116.703 261.481 116.483C261.372 116.265 261.215 116.092 261.012 115.967C260.811 115.84 260.572 115.776 260.297 115.776C259.995 115.776 259.734 115.852 259.513 116.001C259.295 116.149 259.126 116.343 259.008 116.58C258.891 116.818 258.831 117.073 258.831 117.346V117.782C258.831 118.156 258.895 118.472 259.025 118.732C259.155 118.989 259.337 119.184 259.568 119.32C259.8 119.453 260.069 119.519 260.375 119.519C260.575 119.519 260.754 119.492 260.915 119.435C261.078 119.378 261.218 119.292 261.336 119.178C261.454 119.063 261.545 118.919 261.61 118.748L262.343 118.953C262.266 119.202 262.137 119.42 261.954 119.61C261.772 119.797 261.547 119.941 261.278 120.047C261.011 120.15 260.709 120.201 260.375 120.201ZM263.574 120.098V115.159H264.308V115.905H264.36C264.449 115.661 264.612 115.462 264.848 115.31C265.084 115.157 265.35 115.081 265.645 115.081C265.702 115.081 265.771 115.083 265.854 115.084C265.938 115.087 266.002 115.09 266.044 115.095V115.867C266.019 115.859 265.96 115.85 265.868 115.837C265.777 115.822 265.683 115.814 265.581 115.814C265.341 115.814 265.127 115.865 264.938 115.967C264.751 116.065 264.603 116.203 264.494 116.377C264.387 116.552 264.333 116.749 264.333 116.973V120.098H263.574Z" fill="black"/>
<path d="M312.307 113.512V120.098H311.51V114.348H311.471L309.863 115.416V114.606L311.51 113.512H312.307ZM314.378 120.15C314.22 120.15 314.082 120.094 313.969 119.979C313.856 119.865 313.799 119.729 313.799 119.571C313.799 119.413 313.856 119.275 313.969 119.162C314.082 119.049 314.22 118.992 314.378 118.992C314.536 118.992 314.672 119.049 314.786 119.162C314.901 119.275 314.957 119.413 314.957 119.571C314.957 119.676 314.931 119.773 314.877 119.861C314.825 119.949 314.756 120.019 314.668 120.073C314.581 120.124 314.486 120.15 314.378 120.15ZM318.263 120.188C317.993 120.185 317.723 120.133 317.452 120.034C317.182 119.935 316.936 119.77 316.713 119.535C316.489 119.299 316.31 118.981 316.176 118.581C316.04 118.178 315.973 117.672 315.973 117.063C315.973 116.479 316.028 115.962 316.137 115.513C316.246 115.06 316.406 114.68 316.613 114.371C316.821 114.06 317.072 113.824 317.366 113.663C317.661 113.503 317.994 113.422 318.366 113.422C318.735 113.422 319.062 113.496 319.35 113.645C319.638 113.79 319.874 113.994 320.056 114.256C320.24 114.517 320.357 114.818 320.41 115.159H319.626C319.553 114.863 319.411 114.617 319.202 114.423C318.992 114.227 318.713 114.13 318.366 114.13C317.856 114.13 317.454 114.351 317.16 114.796C316.869 115.24 316.721 115.862 316.719 116.664H316.77C316.891 116.482 317.033 116.327 317.199 116.198C317.366 116.067 317.549 115.967 317.751 115.895C317.953 115.825 318.166 115.789 318.392 115.789C318.769 115.789 319.114 115.883 319.426 116.073C319.74 116.259 319.991 116.518 320.179 116.848C320.369 117.175 320.463 117.551 320.463 117.976C320.463 118.383 320.371 118.756 320.189 119.095C320.007 119.432 319.75 119.7 319.42 119.9C319.092 120.097 318.707 120.192 318.263 120.188ZM318.263 119.482C318.533 119.482 318.775 119.413 318.989 119.278C319.205 119.143 319.377 118.962 319.501 118.735C319.628 118.508 319.691 118.254 319.691 117.976C319.691 117.703 319.629 117.455 319.507 117.233C319.388 117.007 319.22 116.828 319.008 116.695C318.799 116.563 318.559 116.497 318.289 116.497C318.084 116.497 317.894 116.537 317.72 116.619C317.544 116.698 317.39 116.807 317.257 116.946C317.125 117.087 317.022 117.246 316.948 117.425C316.873 117.605 316.834 117.791 316.834 117.988C316.834 118.25 316.896 118.495 317.018 118.722C317.142 118.95 317.312 119.132 317.526 119.272C317.742 119.411 317.988 119.482 318.263 119.482ZM325.084 118.863V118.516C325.084 118.277 325.133 118.057 325.232 117.857C325.333 117.655 325.479 117.494 325.669 117.375C325.863 117.252 326.096 117.191 326.371 117.191C326.649 117.191 326.883 117.252 327.071 117.375C327.261 117.494 327.403 117.655 327.5 117.857C327.595 118.057 327.645 118.277 327.645 118.516V118.863C327.645 119.104 327.595 119.325 327.497 119.526C327.4 119.725 327.256 119.886 327.065 120.009C326.877 120.128 326.646 120.188 326.371 120.188C326.092 120.188 325.857 120.128 325.666 120.009C325.475 119.886 325.33 119.725 325.232 119.526C325.133 119.325 325.084 119.104 325.084 118.863ZM325.741 118.516V118.863C325.741 119.063 325.787 119.243 325.881 119.401C325.977 119.558 326.139 119.635 326.371 119.635C326.596 119.635 326.755 119.558 326.847 119.401C326.941 119.243 326.988 119.063 326.988 118.863V118.516C326.988 118.317 326.943 118.139 326.853 117.982C326.764 117.824 326.602 117.745 326.371 117.745C326.145 117.745 325.984 117.824 325.886 117.982C325.789 118.139 325.741 118.317 325.741 118.516ZM321.803 115.095V114.747C321.803 114.506 321.854 114.287 321.953 114.088C322.053 113.887 322.199 113.726 322.389 113.606C322.583 113.484 322.816 113.422 323.091 113.422C323.37 113.422 323.603 113.484 323.792 113.606C323.98 113.726 324.122 113.887 324.219 114.088C324.316 114.287 324.364 114.506 324.364 114.747V115.095C324.364 115.335 324.315 115.556 324.216 115.758C324.119 115.956 323.976 116.117 323.785 116.24C323.597 116.359 323.365 116.419 323.091 116.419C322.811 116.419 322.577 116.359 322.386 116.24C322.196 116.117 322.051 115.956 321.953 115.758C321.854 115.556 321.803 115.335 321.803 115.095ZM322.46 114.747V115.095C322.46 115.293 322.507 115.472 322.602 115.632C322.696 115.788 322.859 115.867 323.091 115.867C323.316 115.867 323.474 115.788 323.567 115.632C323.661 115.472 323.709 115.293 323.709 115.095V114.747C323.709 114.548 323.662 114.371 323.573 114.214C323.483 114.055 323.322 113.975 323.091 113.975C322.865 113.975 322.704 114.055 322.605 114.214C322.508 114.371 322.46 114.548 322.46 114.747ZM322.048 120.098L326.577 113.512H327.31L322.781 120.098H322.048Z" fill="black"/>
<path d="M231.326 134.602H218.162V147.775H231.326V134.602Z" fill="#FF8074"/>
<path d="M220.631 134.602H228.858C229.512 134.602 230.14 134.862 230.603 135.325C231.066 135.789 231.326 136.417 231.326 137.072V145.305C231.326 145.959 231.066 146.588 230.603 147.051C230.14 147.515 229.512 147.775 228.858 147.775H220.631C219.977 147.775 219.348 147.515 218.885 147.051C218.422 146.588 218.162 145.959 218.162 145.305V137.072C218.162 136.417 218.422 135.789 218.885 135.325C219.348 134.862 219.977 134.602 220.631 134.602Z" fill="#FF8074" stroke="white" stroke-width="0.822474"/>
<path d="M235.877 140.564V139.857H240.816V140.564H238.745V146.443H237.948V140.564H235.877ZM242.726 146.558C242.412 146.558 242.129 146.5 241.873 146.382C241.618 146.262 241.415 146.089 241.266 145.864C241.115 145.637 241.04 145.362 241.04 145.041C241.04 144.757 241.095 144.529 241.207 144.352C241.319 144.175 241.467 144.035 241.654 143.934C241.841 143.834 242.047 143.758 242.272 143.709C242.499 143.658 242.727 143.618 242.957 143.587C243.258 143.549 243.501 143.519 243.688 143.5C243.876 143.479 244.013 143.443 244.098 143.394C244.186 143.345 244.231 143.26 244.231 143.137V143.112C244.231 142.794 244.143 142.547 243.97 142.371C243.798 142.196 243.538 142.108 243.189 142.108C242.826 142.108 242.542 142.187 242.336 142.346C242.13 142.504 241.985 142.674 241.902 142.853L241.182 142.597C241.31 142.297 241.482 142.064 241.696 141.896C241.912 141.726 242.148 141.608 242.403 141.542C242.662 141.474 242.914 141.439 243.162 141.439C243.322 141.439 243.504 141.459 243.71 141.496C243.917 141.534 244.118 141.61 244.31 141.725C244.506 141.841 244.667 142.016 244.797 142.249C244.925 142.483 244.99 142.797 244.99 143.188V146.443H244.231V145.774H244.192C244.14 145.881 244.055 145.996 243.934 146.117C243.814 146.24 243.655 146.344 243.455 146.43C243.256 146.516 243.013 146.558 242.726 146.558ZM242.841 145.877C243.141 145.877 243.395 145.817 243.599 145.699C243.808 145.581 243.964 145.431 244.07 145.244C244.177 145.057 244.231 144.86 244.231 144.654V143.96C244.198 143.999 244.128 144.035 244.018 144.066C243.912 144.096 243.786 144.123 243.646 144.146C243.505 144.169 243.37 144.187 243.237 144.205C243.105 144.22 242.999 144.233 242.919 144.244C242.721 144.269 242.536 144.311 242.365 144.369C242.196 144.424 242.059 144.509 241.954 144.623C241.851 144.735 241.799 144.887 241.799 145.08C241.799 145.342 241.897 145.543 242.091 145.677C242.288 145.81 242.539 145.877 242.841 145.877ZM246.477 146.443V139.857H247.237V142.288H247.301C247.356 142.202 247.434 142.093 247.532 141.961C247.632 141.825 247.777 141.705 247.964 141.599C248.152 141.493 248.407 141.439 248.728 141.439C249.145 141.439 249.511 141.542 249.829 141.751C250.145 141.959 250.393 142.253 250.571 142.635C250.749 143.016 250.838 143.467 250.838 143.985C250.838 144.509 250.749 144.962 250.571 145.347C250.393 145.728 250.147 146.023 249.832 146.234C249.517 146.441 249.152 146.546 248.742 146.546C248.424 146.546 248.17 146.494 247.979 146.388C247.788 146.282 247.641 146.159 247.538 146.025C247.435 145.887 247.356 145.774 247.301 145.684H247.211V146.443H246.477ZM247.223 143.973C247.223 144.347 247.279 144.675 247.388 144.96C247.497 145.244 247.656 145.465 247.867 145.626C248.077 145.784 248.334 145.864 248.639 145.864C248.955 145.864 249.221 145.78 249.433 145.613C249.647 145.444 249.808 145.217 249.915 144.932C250.024 144.644 250.08 144.324 250.08 143.973C250.08 143.625 250.026 143.313 249.918 143.034C249.814 142.753 249.654 142.531 249.439 142.368C249.227 142.204 248.96 142.12 248.639 142.12C248.33 142.12 248.07 142.199 247.861 142.356C247.65 142.51 247.492 142.727 247.385 143.006C247.277 143.282 247.223 143.604 247.223 143.973ZM252.758 139.857V146.443H251.998V139.857H252.758ZM256.219 146.546C255.743 146.546 255.332 146.441 254.988 146.231C254.644 146.019 254.38 145.722 254.193 145.342C254.008 144.962 253.917 144.518 253.917 144.012C253.917 143.506 254.008 143.06 254.193 142.674C254.38 142.286 254.64 141.983 254.971 141.766C255.306 141.548 255.695 141.439 256.142 141.439C256.399 141.439 256.654 141.481 256.905 141.568C257.154 141.653 257.382 141.793 257.589 141.986C257.795 142.177 257.959 142.429 258.081 142.744C258.204 143.06 258.265 143.448 258.265 143.909V144.23H254.456V143.575H257.493C257.493 143.295 257.436 143.048 257.326 142.828C257.215 142.61 257.06 142.437 256.855 142.31C256.654 142.185 256.416 142.12 256.142 142.12C255.84 142.12 255.577 142.196 255.358 142.346C255.138 142.494 254.97 142.686 254.852 142.925C254.734 143.162 254.675 143.418 254.675 143.69V144.127C254.675 144.5 254.74 144.817 254.868 145.077C254.999 145.334 255.18 145.529 255.412 145.665C255.643 145.798 255.912 145.864 256.219 145.864C256.418 145.864 256.599 145.837 256.76 145.78C256.923 145.722 257.063 145.637 257.181 145.523C257.299 145.407 257.39 145.263 257.454 145.092L258.187 145.298C258.11 145.547 257.98 145.765 257.798 145.955C257.615 146.14 257.39 146.286 257.123 146.391C256.854 146.494 256.554 146.546 256.219 146.546Z" fill="black"/>
<path d="M312.307 139.857V146.443H311.51V140.693H311.471L309.863 141.76V140.95L311.51 139.857H312.307ZM314.378 146.494C314.22 146.494 314.084 146.437 313.97 146.323C313.857 146.21 313.8 146.074 313.8 145.916C313.8 145.756 313.857 145.62 313.97 145.507C314.084 145.393 314.22 145.336 314.378 145.336C314.536 145.336 314.674 145.393 314.787 145.507C314.901 145.62 314.957 145.756 314.957 145.916C314.957 146.02 314.931 146.117 314.877 146.205C314.826 146.292 314.756 146.364 314.668 146.417C314.583 146.468 314.486 146.494 314.378 146.494ZM318.263 146.532C317.993 146.528 317.723 146.477 317.452 146.379C317.182 146.28 316.936 146.114 316.713 145.88C316.489 145.644 316.312 145.326 316.176 144.924C316.041 144.521 315.973 144.017 315.973 143.407C315.973 142.824 316.028 142.307 316.137 141.858C316.247 141.405 316.406 141.024 316.613 140.715C316.821 140.405 317.072 140.169 317.366 140.008C317.661 139.848 317.994 139.767 318.366 139.767C318.735 139.767 319.064 139.84 319.35 139.988C319.64 140.134 319.876 140.337 320.058 140.6C320.24 140.862 320.358 141.162 320.412 141.504H319.626C319.553 141.208 319.413 140.962 319.202 140.767C318.992 140.572 318.713 140.475 318.366 140.475C317.856 140.475 317.454 140.696 317.16 141.139C316.869 141.584 316.722 142.207 316.719 143.009H316.772C316.891 142.827 317.033 142.671 317.199 142.541C317.366 142.411 317.551 142.31 317.751 142.24C317.953 142.17 318.166 142.134 318.392 142.134C318.769 142.134 319.114 142.228 319.428 142.416C319.74 142.603 319.991 142.861 320.18 143.191C320.369 143.519 320.463 143.896 320.463 144.32C320.463 144.727 320.371 145.101 320.189 145.44C320.007 145.775 319.75 146.044 319.42 146.243C319.093 146.441 318.707 146.537 318.263 146.532ZM318.263 145.825C318.533 145.825 318.775 145.758 318.99 145.623C319.207 145.487 319.377 145.307 319.501 145.08C319.628 144.853 319.691 144.599 319.691 144.32C319.691 144.048 319.629 143.8 319.507 143.578C319.388 143.352 319.222 143.173 319.01 143.04C318.799 142.907 318.559 142.841 318.289 142.841C318.086 142.841 317.896 142.882 317.72 142.964C317.544 143.043 317.39 143.152 317.257 143.291C317.125 143.431 317.022 143.591 316.948 143.77C316.873 143.948 316.836 144.136 316.836 144.333C316.836 144.594 316.897 144.839 317.018 145.066C317.143 145.293 317.312 145.477 317.527 145.616C317.744 145.756 317.988 145.825 318.263 145.825ZM325.085 145.208V144.86C325.085 144.62 325.135 144.4 325.233 144.202C325.333 144 325.48 143.839 325.671 143.719C325.863 143.597 326.096 143.536 326.371 143.536C326.65 143.536 326.883 143.597 327.073 143.719C327.261 143.839 327.403 144 327.5 144.202C327.597 144.4 327.645 144.62 327.645 144.86V145.208C327.645 145.448 327.595 145.669 327.497 145.871C327.4 146.07 327.256 146.231 327.065 146.353C326.877 146.473 326.646 146.532 326.371 146.532C326.092 146.532 325.857 146.473 325.666 146.353C325.476 146.231 325.332 146.07 325.233 145.871C325.135 145.669 325.085 145.448 325.085 145.208ZM325.741 144.86V145.208C325.741 145.407 325.789 145.586 325.883 145.746C325.977 145.901 326.139 145.98 326.371 145.98C326.596 145.98 326.755 145.901 326.847 145.746C326.941 145.586 326.989 145.407 326.989 145.208V144.86C326.989 144.662 326.943 144.484 326.853 144.327C326.764 144.169 326.602 144.088 326.371 144.088C326.145 144.088 325.984 144.169 325.886 144.327C325.789 144.484 325.741 144.662 325.741 144.86ZM321.805 141.439V141.092C321.805 140.851 321.854 140.632 321.953 140.433C322.053 140.231 322.199 140.07 322.39 139.951C322.583 139.828 322.816 139.767 323.091 139.767C323.37 139.767 323.603 139.828 323.792 139.951C323.98 140.07 324.124 140.231 324.219 140.433C324.316 140.632 324.364 140.851 324.364 141.092V141.439C324.364 141.68 324.315 141.899 324.216 142.101C324.119 142.301 323.976 142.462 323.785 142.583C323.597 142.704 323.365 142.764 323.091 142.764C322.813 142.764 322.577 142.704 322.387 142.583C322.196 142.462 322.051 142.301 321.953 142.101C321.854 141.899 321.805 141.68 321.805 141.439ZM322.46 141.092V141.439C322.46 141.638 322.508 141.817 322.602 141.975C322.696 142.132 322.859 142.211 323.091 142.211C323.316 142.211 323.474 142.132 323.567 141.975C323.661 141.817 323.709 141.638 323.709 141.439V141.092C323.709 140.893 323.664 140.714 323.573 140.559C323.483 140.399 323.322 140.32 323.091 140.32C322.867 140.32 322.704 140.399 322.605 140.559C322.508 140.714 322.46 140.893 322.46 141.092ZM322.048 146.443L326.577 139.857H327.31L322.783 146.443H322.048Z" fill="black"/>
</svg>
