<svg width="347" height="291" viewBox="0 0 347 291" fill="none" xmlns="http://www.w3.org/2000/svg">
<g filter="url(#filter0_d_102_628)">
<path d="M338.998 3.0007H8.00187C5.79221 3.0007 4.00093 4.79198 4.00093 7.00163V281.498C4.00093 283.707 5.79221 285.499 8.00187 285.499H338.998C341.208 285.499 342.999 283.707 342.999 281.498V7.00163C342.999 4.79198 341.208 3.0007 338.998 3.0007Z" fill="white"/>
<mask id="mask0_102_628" style="mask-type:luminance" maskUnits="userSpaceOnUse" x="4" y="3" width="339" height="45">
<path d="M4.00093 3.0007H342.999V47.011H4.00093V3.0007Z" fill="white"/>
</mask>
<g mask="url(#mask0_102_628)">
<path d="M342.999 46.5108H4.00093V47.5111H342.999V46.5108Z" fill="#CAD3DB"/>
</g>
<path d="M31.3403 30.007V22.4262H28.5907V20.8449H36.0064V22.4262H33.2577V30.007H31.3403ZM37.4037 30.007V23.0164H39.2571V30.007H37.4037ZM38.3369 21.9441C38.0528 21.9441 37.8078 21.8441 37.5997 21.645C37.3927 21.442 37.2887 21.1989 37.2887 20.9149C37.2887 20.6278 37.3927 20.3837 37.5997 20.1847C37.8078 19.9817 38.0528 19.8806 38.3369 19.8806C38.624 19.8806 38.8701 19.9817 39.0731 20.1847C39.2762 20.3837 39.3782 20.6278 39.3782 20.9149C39.3782 21.1989 39.2762 21.442 39.0731 21.645C38.8701 21.8441 38.624 21.9441 38.3369 21.9441ZM44.2033 30.153C43.4751 30.153 42.855 30.011 42.3429 29.7279C41.8347 29.4398 41.4477 29.0248 41.1806 28.4836C40.9145 27.9375 40.7805 27.2774 40.7805 26.5022V26.4902C40.7805 25.719 40.9145 25.0658 41.1806 24.5277C41.4477 23.9906 41.8347 23.5795 42.3429 23.2964C42.855 23.0084 43.4751 22.8643 44.2033 22.8643C44.8214 22.8643 45.3526 22.9704 45.7967 23.1814C46.2408 23.3935 46.5929 23.6915 46.8509 24.0766C47.109 24.4627 47.266 24.9148 47.321 25.4359V25.4549H45.5996L45.5936 25.4419C45.5306 25.1039 45.3816 24.8328 45.1495 24.6297C44.9205 24.4217 44.6074 24.3187 44.2093 24.3187C43.8792 24.3187 43.5981 24.4027 43.3651 24.5727C43.136 24.7378 42.963 24.9808 42.844 25.3029C42.7259 25.624 42.6669 26.02 42.6669 26.4902V26.5022C42.6669 26.9723 42.7259 27.3724 42.844 27.7024C42.967 28.0285 43.1431 28.2756 43.3711 28.4456C43.6002 28.6147 43.8792 28.6997 44.2093 28.6997C44.5904 28.6997 44.8954 28.6107 45.1235 28.4326C45.3526 28.2546 45.5066 27.9885 45.5876 27.6324L45.5996 27.6134L47.314 27.6074V27.6514C47.247 28.1556 47.084 28.5957 46.8249 28.9718C46.5669 29.3488 46.2178 29.6409 45.7777 29.848C45.3376 30.052 44.8124 30.153 44.2033 30.153ZM48.8314 30.007V20.3437H50.6858V30.007H48.8314ZM53.2314 30.007L51.0859 26.9723L52.4702 25.861L55.4219 30.007H53.2314ZM50.5588 27.7975L50.4947 25.779H50.7998L53.1364 23.0164H55.2379L52.3622 26.1911L51.371 26.9343L50.5588 27.7975ZM59.2438 30.153C58.5376 30.153 57.9275 30.007 57.4154 29.7149C56.9083 29.4188 56.5162 28.9998 56.2411 28.4576C55.9661 27.9165 55.828 27.2703 55.828 26.5212V26.5152C55.828 25.774 55.964 25.1308 56.2351 24.5847C56.5102 24.0386 56.8973 23.6155 57.3964 23.3154C57.9005 23.0144 58.4906 22.8643 59.1678 22.8643C59.85 22.8643 60.4381 23.0104 60.9332 23.3024C61.4283 23.5945 61.8094 24.0026 62.0765 24.5277C62.3425 25.0528 62.4756 25.669 62.4756 26.3751V26.9533H56.7552V25.791H61.5874L60.7171 26.8893V26.1471C60.7171 25.728 60.6521 25.3789 60.5201 25.0988C60.3931 24.8198 60.216 24.6107 59.987 24.4707C59.7629 24.3267 59.5009 24.2546 59.1998 24.2546C58.9037 24.2546 58.6387 24.3287 58.4066 24.4767C58.1775 24.6207 57.9955 24.8348 57.8605 25.1179C57.7294 25.3979 57.6634 25.741 57.6634 26.1471V26.8963C57.6634 27.2893 57.7294 27.6264 57.8605 27.9055C57.9915 28.1846 58.1776 28.3986 58.4186 28.5466C58.6607 28.6947 58.9477 28.7687 59.2828 28.7687C59.5529 28.7687 59.7839 28.7287 59.974 28.6487C60.165 28.5677 60.3171 28.4746 60.4311 28.3686C60.5501 28.2586 60.6301 28.1596 60.6731 28.0705L60.6921 28.0325H62.4185L62.4066 28.0955C62.3515 28.3166 62.2515 28.5466 62.1075 28.7877C61.9634 29.0247 61.7654 29.2478 61.5113 29.4549C61.2613 29.6619 60.9482 29.832 60.5711 29.963C60.199 30.09 59.7569 30.153 59.2438 30.153ZM66.8946 30.033C66.0484 30.033 65.4393 29.884 65.0662 29.5879C64.6941 29.2878 64.508 28.7987 64.508 28.1215V24.4137H63.4288V23.0164H64.508V21.347H66.3805V23.0164H67.8218V24.4137H66.3805V27.6965C66.3805 28.0095 66.4505 28.2396 66.5905 28.3876C66.7345 28.5316 66.9626 28.6037 67.2757 28.6037C67.3947 28.6037 67.4917 28.6017 67.5677 28.5977C67.6488 28.5887 67.7328 28.5806 67.8218 28.5726V29.95C67.7078 29.971 67.5697 29.99 67.4097 30.007C67.2487 30.024 67.0766 30.033 66.8946 30.033ZM72.0818 30.153C71.4476 30.153 70.9055 30.066 70.4564 29.893C70.0123 29.7149 69.6632 29.4718 69.4092 29.1628C69.1591 28.8537 69.0131 28.5006 68.9711 28.1025L68.9651 28.0765H70.7875L70.7995 28.1025C70.8755 28.3186 71.0196 28.4956 71.2316 28.6357C71.4477 28.7757 71.7377 28.8457 72.1008 28.8457C72.3379 28.8457 72.5459 28.8137 72.7239 28.7497C72.901 28.6827 73.041 28.5917 73.143 28.4766C73.2441 28.3626 73.2951 28.2296 73.2951 28.0765V28.0645C73.2951 27.8785 73.2191 27.7235 73.066 27.6004C72.914 27.4784 72.6599 27.3764 72.3049 27.2963L71.1366 27.0483C70.6915 26.9553 70.3214 26.8202 70.0253 26.6422C69.7292 26.4602 69.5062 26.2381 69.3582 25.9751C69.2141 25.713 69.1421 25.4079 69.1421 25.0608V25.0548C69.1421 24.6147 69.2631 24.2316 69.5042 23.9056C69.7502 23.5755 70.0903 23.3194 70.5264 23.1374C70.9665 22.9553 71.4766 22.8643 72.0568 22.8643C72.6659 22.8643 73.185 22.9574 73.6121 23.1434C74.0402 23.3254 74.3683 23.5715 74.5964 23.8806C74.8294 24.1846 74.9585 24.5257 74.9835 24.9028V24.9278H73.2631L73.2571 24.8958C73.2061 24.7057 73.079 24.5387 72.876 24.3947C72.6729 24.2466 72.3979 24.1726 72.0508 24.1726C71.8388 24.1726 71.6507 24.2036 71.4857 24.2677C71.3206 24.3307 71.1896 24.4197 71.0916 24.5337C70.9985 24.6487 70.9525 24.7838 70.9525 24.9408V24.9468C70.9525 25.0698 70.9835 25.1779 71.0475 25.2709C71.1106 25.3639 71.2146 25.4439 71.3586 25.5119C71.5027 25.5799 71.6947 25.641 71.9358 25.696L73.098 25.944C73.7962 26.0961 74.3133 26.3241 74.6474 26.6292C74.9815 26.9343 75.1485 27.3444 75.1485 27.8615V27.8675C75.1485 28.3286 75.0175 28.7307 74.7554 29.0738C74.4923 29.4168 74.1313 29.6829 73.6692 29.874C73.2081 30.06 72.6789 30.153 72.0818 30.153ZM81.1619 30.007V28.5787H83.8285C84.3827 28.5787 84.8038 28.4646 85.0918 28.2356C85.3839 28.0075 85.5299 27.6745 85.5299 27.2394V27.2264C85.5299 26.9423 85.4619 26.7032 85.3269 26.5092C85.1948 26.3141 84.9988 26.1681 84.7357 26.0711C84.4777 25.9691 84.1606 25.918 83.7835 25.918H81.1619V24.6547H83.5615C84.0776 24.6547 84.4737 24.5507 84.7487 24.3437C85.0238 24.1366 85.1619 23.8445 85.1619 23.4674V23.4545C85.1619 23.0824 85.0348 22.7923 84.7808 22.5853C84.5307 22.3732 84.1776 22.2672 83.7205 22.2672H81.1619V20.8449H84.2086C84.8058 20.8449 85.3139 20.9389 85.733 21.1249C86.1561 21.307 86.4802 21.569 86.7042 21.9121C86.9333 22.2502 87.0473 22.6553 87.0473 23.1244V23.1374C87.0473 23.4595 86.9733 23.7595 86.8252 24.0386C86.6812 24.3187 86.4842 24.5507 86.2341 24.7378C85.985 24.9238 85.703 25.0398 85.3899 25.0868V25.2009C85.796 25.2309 86.1561 25.3449 86.4691 25.544C86.7872 25.743 87.0343 26.001 87.2123 26.3181C87.3944 26.6362 87.4854 26.9893 87.4854 27.3784V27.3914C87.4854 27.9245 87.3563 28.3876 87.0983 28.7817C86.8442 29.1708 86.4802 29.4739 86.0061 29.6899C85.5359 29.901 84.9728 30.007 84.3167 30.007H81.1619ZM80.2027 30.007V20.8449H82.1201V30.007H80.2027ZM89.8659 32.4706C89.7599 32.4706 89.6499 32.4686 89.5359 32.4646C89.4218 32.4596 89.3098 32.4556 89.1998 32.4516V31.0542C89.2628 31.0632 89.3368 31.0672 89.4218 31.0672C89.5108 31.0712 89.5979 31.0742 89.6819 31.0742C90.012 31.0742 90.2751 31.0082 90.4691 30.8772C90.6641 30.7462 90.7932 30.5451 90.8562 30.2741L90.9202 30.007L88.4626 23.0164H90.5011L92.1705 29.0488L91.7454 28.3116H92.2975L91.8914 29.0488L93.5618 23.0164H95.5173L93.1357 30.001C92.9327 30.6141 92.6856 31.1012 92.3935 31.4613C92.1055 31.8254 91.7564 32.0835 91.3453 32.2355C90.9352 32.3926 90.4421 32.4706 89.8659 32.4706ZM101.301 27.1183V25.62H103.65C104.2 25.62 104.628 25.4799 104.932 25.2009C105.242 24.9168 105.397 24.5147 105.397 23.9946V23.9816C105.397 23.4615 105.242 23.0614 104.932 22.7813C104.628 22.5022 104.2 22.3632 103.65 22.3632H101.301V20.8449H104.12C104.763 20.8449 105.327 20.9769 105.809 21.2389C106.292 21.497 106.666 21.8611 106.933 22.3312C107.204 22.8013 107.339 23.3494 107.339 23.9756V23.9886C107.339 24.6187 107.204 25.1689 106.933 25.639C106.666 26.1091 106.292 26.4732 105.809 26.7312C105.327 26.9893 104.763 27.1183 104.12 27.1183H101.301ZM100.342 30.007V20.8449H102.26V30.007H100.342ZM108.92 30.007V23.0164H110.774V24.1026H110.888C111.003 23.7215 111.212 23.4275 111.517 23.2194C111.821 23.0084 112.2 22.9023 112.653 22.9023C112.78 22.9023 112.903 22.9113 113.021 22.9273C113.144 22.9443 113.252 22.9663 113.345 22.9914V24.6107C113.205 24.5767 113.063 24.5507 112.92 24.5337C112.78 24.5127 112.638 24.5027 112.494 24.5027C112.143 24.5027 111.838 24.5677 111.58 24.6988C111.322 24.8258 111.123 25.0078 110.984 25.2449C110.844 25.4819 110.774 25.766 110.774 26.0961V30.007H108.92ZM114.596 30.007V23.0164H116.45V30.007H114.596ZM115.529 21.9441C115.246 21.9441 115 21.8441 114.793 21.645C114.586 21.442 114.482 21.1989 114.482 20.9149C114.482 20.6278 114.586 20.3837 114.793 20.1847C115 19.9817 115.246 19.8806 115.529 19.8806C115.817 19.8806 116.063 19.9817 116.266 20.1847C116.469 20.3837 116.57 20.6278 116.57 20.9149C116.57 21.1989 116.469 21.442 116.266 21.645C116.063 21.8441 115.817 21.9441 115.529 21.9441ZM121.421 30.153C120.706 30.153 120.09 30.009 119.574 29.7209C119.058 29.4289 118.662 29.0128 118.387 28.4706C118.112 27.9245 117.973 27.2724 117.973 26.5152V26.5022C117.973 25.749 118.114 25.1018 118.393 24.5597C118.673 24.0176 119.068 23.6005 119.58 23.3084C120.097 23.0123 120.71 22.8643 121.421 22.8643C122.132 22.8643 122.745 23.0104 123.257 23.3024C123.773 23.5945 124.171 24.0136 124.45 24.5597C124.729 25.1018 124.869 25.749 124.869 26.5022V26.5152C124.869 27.2724 124.731 27.9245 124.456 28.4706C124.181 29.0128 123.786 29.4289 123.269 29.7209C122.757 30.009 122.14 30.153 121.421 30.153ZM121.421 28.6997C121.751 28.6997 122.03 28.6126 122.26 28.4386C122.488 28.2656 122.664 28.0155 122.787 27.6894C122.91 27.3634 122.971 26.9723 122.971 26.5152V26.5022C122.971 26.0451 122.91 25.656 122.787 25.3339C122.664 25.0078 122.486 24.7588 122.253 24.5847C122.024 24.4067 121.747 24.3187 121.421 24.3187C121.095 24.3187 120.816 24.4067 120.583 24.5847C120.355 24.7588 120.179 25.0078 120.056 25.3339C119.934 25.656 119.872 26.0451 119.872 26.5022V26.5152C119.872 26.9763 119.931 27.3704 120.05 27.6965C120.173 28.0215 120.348 28.2716 120.577 28.4456C120.81 28.6147 121.091 28.6997 121.421 28.6997ZM126.38 30.007V23.0164H128.234V24.1026H128.348C128.463 23.7215 128.672 23.4275 128.977 23.2194C129.281 23.0084 129.66 22.9023 130.113 22.9023C130.24 22.9023 130.363 22.9113 130.481 22.9273C130.604 22.9443 130.712 22.9663 130.806 22.9914V24.6107C130.665 24.5767 130.524 24.5507 130.38 24.5337C130.24 24.5127 130.098 24.5027 129.954 24.5027C129.603 24.5027 129.298 24.5677 129.04 24.6988C128.782 24.8258 128.583 25.0078 128.444 25.2449C128.304 25.4819 128.234 25.766 128.234 26.0961V30.007H126.38ZM132.056 30.007V23.0164H133.91V30.007H132.056ZM132.99 21.9441C132.706 21.9441 132.461 21.8441 132.253 21.645C132.046 21.442 131.942 21.1989 131.942 20.9149C131.942 20.6278 132.046 20.3837 132.253 20.1847C132.461 19.9817 132.706 19.8806 132.99 19.8806C133.277 19.8806 133.523 19.9817 133.726 20.1847C133.929 20.3837 134.031 20.6278 134.031 20.9149C134.031 21.1989 133.929 21.442 133.726 21.645C133.523 21.8441 133.277 21.9441 132.99 21.9441ZM138.678 30.033C137.832 30.033 137.222 29.884 136.85 29.5879C136.477 29.2878 136.291 28.7987 136.291 28.1215V24.4137H135.212V23.0164H136.291V21.347H138.164V23.0164H139.606V24.4137H138.164V27.6965C138.164 28.0095 138.234 28.2396 138.373 28.3876C138.517 28.5316 138.746 28.6037 139.059 28.6037C139.177 28.6037 139.275 28.6017 139.351 28.5977C139.431 28.5887 139.517 28.5806 139.606 28.5726V29.95C139.492 29.971 139.353 29.99 139.192 30.007C139.031 30.024 138.86 30.033 138.678 30.033ZM141.98 32.4706C141.874 32.4706 141.764 32.4686 141.65 32.4646C141.535 32.4596 141.423 32.4556 141.313 32.4516V31.0542C141.377 31.0632 141.451 31.0672 141.535 31.0672C141.624 31.0712 141.711 31.0742 141.796 31.0742C142.126 31.0742 142.388 31.0082 142.583 30.8772C142.777 30.7462 142.907 30.5451 142.97 30.2741L143.034 30.007L140.577 23.0164H142.615L144.285 29.0488L143.86 28.3116H144.412L144.006 29.0488L145.675 23.0164H147.63L145.25 30.001C145.047 30.6141 144.799 31.1012 144.507 31.4613C144.219 31.8254 143.87 32.0835 143.459 32.2355C143.048 32.3926 142.555 32.4706 141.98 32.4706Z" fill="#454F5B"/>
<path opacity="0.8" d="M165.366 173.121C162.337 181.732 157.25 189.473 150.547 195.669C143.843 201.865 135.728 206.329 126.906 208.672C118.083 211.015 108.822 211.167 99.9283 209.114C91.0342 207.061 82.7763 202.865 75.8737 196.893L86.1361 185.033C91.1062 189.333 97.0516 192.354 103.456 193.832C109.86 195.311 116.527 195.202 122.88 193.514C129.231 191.827 135.074 188.613 139.901 184.152C144.728 179.691 148.391 174.118 150.571 167.918L165.366 173.121Z" fill="#75DAE2"/>
<path d="M163.02 130.29C169.451 143.683 170.298 159.08 165.375 173.096L150.577 167.899C154.122 157.808 153.512 146.721 148.882 137.079L163.02 130.29Z" fill="#EE705D"/>
<path d="M112.526 98.523C123.107 98.523 133.471 101.52 142.419 107.166C151.366 112.813 158.532 120.878 163.086 130.428L148.93 137.179C145.651 130.302 140.492 124.495 134.049 120.43C127.607 116.364 120.144 114.207 112.526 114.207V98.523Z" fill="#FFA865"/>
<path d="M75.9357 196.946C67.2797 189.477 61.1162 179.539 58.2726 168.465C55.4299 157.392 56.0431 145.713 60.031 134.998C64.0189 124.284 71.1906 115.046 80.5818 108.525C89.973 102.005 101.135 98.515 112.567 98.523L112.555 114.207C104.324 114.201 96.2874 116.714 89.5259 121.408C82.7643 126.103 77.6011 132.754 74.7294 140.469C71.8588 148.184 71.4167 156.593 73.4641 164.565C75.5106 172.538 79.9486 179.694 86.1811 185.071L75.9357 196.946Z" fill="#FCD78E"/>
<path d="M266.98 117.527H258.978V125.529H266.98V117.527Z" fill="#EE705D"/>
<path d="M277.044 125.712C276.402 125.712 275.85 125.592 275.388 125.352C274.93 125.112 274.577 124.779 274.33 124.353C274.083 123.923 273.96 123.427 273.96 122.865V117.777H274.926V122.801C274.926 123.198 275.009 123.549 275.173 123.853C275.342 124.154 275.583 124.39 275.898 124.562C276.214 124.734 276.596 124.82 277.044 124.82C277.491 124.82 277.871 124.734 278.182 124.562C278.497 124.39 278.737 124.154 278.902 123.853C279.067 123.549 279.149 123.198 279.149 122.801V117.777H280.116V122.865C280.116 123.427 279.992 123.923 279.745 124.353C279.502 124.779 279.151 125.112 278.692 125.352C278.234 125.592 277.684 125.712 277.044 125.712ZM281.964 125.529V119.738H282.899V120.597H282.985C283.096 120.293 283.284 120.057 283.549 119.888C283.814 119.72 284.142 119.636 284.532 119.636C284.621 119.636 284.709 119.641 284.795 119.652C284.885 119.659 284.953 119.666 284.999 119.674V120.581C284.902 120.563 284.808 120.551 284.714 120.544C284.625 120.533 284.528 120.528 284.424 120.528C284.127 120.528 283.864 120.587 283.635 120.705C283.406 120.823 283.225 120.988 283.092 121.199C282.963 121.41 282.899 121.657 282.899 121.94V125.529H281.964ZM288.379 127.571C287.913 127.571 287.507 127.505 287.159 127.372C286.812 127.244 286.534 127.059 286.327 126.819C286.123 126.583 285.996 126.306 285.945 125.991L285.956 125.986H286.923L286.928 125.991C286.978 126.209 287.129 126.389 287.38 126.528C287.63 126.672 287.963 126.744 288.379 126.744C288.898 126.744 289.302 126.626 289.593 126.389C289.887 126.156 290.034 125.826 290.034 125.4V124.229H289.948C289.826 124.441 289.674 124.621 289.49 124.772C289.308 124.922 289.102 125.037 288.873 125.116C288.644 125.191 288.396 125.228 288.131 125.228C287.634 125.228 287.202 125.11 286.837 124.874C286.475 124.634 286.196 124.305 285.999 123.886C285.802 123.467 285.704 122.987 285.704 122.446V122.435C285.704 121.894 285.802 121.414 285.999 120.995C286.2 120.572 286.483 120.241 286.848 120.001C287.213 119.758 287.648 119.636 288.153 119.636C288.425 119.636 288.676 119.679 288.905 119.765C289.134 119.851 289.336 119.973 289.513 120.13C289.692 120.288 289.84 120.476 289.959 120.694H290.023V119.738H290.958V125.449C290.958 125.878 290.852 126.252 290.641 126.572C290.433 126.891 290.136 127.136 289.749 127.308C289.361 127.483 288.905 127.571 288.379 127.571ZM288.336 124.401C288.694 124.401 289 124.319 289.254 124.154C289.513 123.986 289.71 123.755 289.846 123.461C289.985 123.168 290.055 122.829 290.055 122.446V122.435C290.055 122.051 289.985 121.711 289.846 121.414C289.71 121.117 289.513 120.884 289.254 120.716C289 120.547 288.694 120.463 288.336 120.463C287.977 120.463 287.673 120.547 287.422 120.716C287.175 120.884 286.986 121.117 286.853 121.414C286.724 121.711 286.66 122.051 286.66 122.435V122.446C286.66 122.829 286.724 123.168 286.853 123.461C286.986 123.755 287.175 123.986 287.422 124.154C287.673 124.319 287.977 124.401 288.336 124.401ZM295.062 125.631C294.511 125.631 294.036 125.509 293.638 125.266C293.244 125.022 292.94 124.679 292.725 124.235C292.513 123.787 292.408 123.261 292.408 122.656V122.65C292.408 122.051 292.513 121.527 292.725 121.075C292.94 120.624 293.242 120.272 293.632 120.017C294.024 119.763 294.48 119.636 295.003 119.636C295.529 119.636 295.981 119.758 296.357 120.001C296.736 120.245 297.026 120.585 297.227 121.022C297.431 121.455 297.533 121.96 297.533 122.537V122.903H292.891V122.156H297.055L296.593 122.838V122.468C296.593 122.012 296.525 121.638 296.389 121.344C296.253 121.05 296.065 120.832 295.825 120.689C295.585 120.542 295.309 120.469 294.998 120.469C294.686 120.469 294.407 120.546 294.16 120.7C293.916 120.85 293.722 121.074 293.579 121.371C293.436 121.668 293.364 122.033 293.364 122.468V122.838C293.364 123.25 293.434 123.603 293.573 123.896C293.714 124.186 293.913 124.41 294.171 124.568C294.428 124.722 294.733 124.799 295.084 124.799C295.345 124.799 295.572 124.763 295.766 124.691C295.959 124.62 296.118 124.528 296.244 124.417C296.369 124.306 296.457 124.194 296.507 124.079L296.528 124.031H297.463L297.452 124.074C297.402 124.271 297.313 124.462 297.184 124.648C297.058 124.831 296.896 124.997 296.695 125.148C296.494 125.295 296.256 125.413 295.981 125.502C295.709 125.588 295.402 125.631 295.062 125.631ZM298.984 125.529V119.738H299.919V120.608H300.005C300.151 120.3 300.363 120.062 300.638 119.894C300.914 119.722 301.265 119.636 301.691 119.636C302.343 119.636 302.843 119.822 303.191 120.195C303.542 120.563 303.717 121.092 303.717 121.779V125.529H302.782V122.005C302.782 121.482 302.671 121.095 302.449 120.845C302.23 120.59 301.89 120.463 301.428 120.463C301.12 120.463 300.853 120.529 300.628 120.662C300.402 120.794 300.227 120.982 300.101 121.226C299.98 121.469 299.919 121.761 299.919 122.101V125.529H298.984ZM307.467 125.572C306.873 125.572 306.44 125.452 306.172 125.212C305.907 124.972 305.774 124.577 305.774 124.025V120.512H304.861V119.738H305.774V118.24H306.742V119.738H308.01V120.512H306.742V123.789C306.742 124.129 306.806 124.374 306.935 124.525C307.064 124.672 307.279 124.745 307.58 124.745C307.662 124.745 307.732 124.743 307.789 124.74C307.85 124.736 307.924 124.731 308.01 124.723V125.518C307.92 125.533 307.83 125.545 307.741 125.556C307.651 125.567 307.56 125.572 307.467 125.572Z" fill="#454F5B"/>
<path d="M266.98 141.533H258.978V149.535H266.98V141.533Z" fill="#FFA865"/>
<path d="M273.97 149.535V141.783H274.937V145.135H279.192V141.783H280.159V149.535H279.192V146.005H274.937V149.535H273.97ZM282.04 149.535V143.743H282.974V149.535H282.04ZM282.512 142.626C282.337 142.626 282.185 142.563 282.056 142.438C281.93 142.309 281.868 142.157 281.868 141.981C281.868 141.802 281.93 141.65 282.056 141.525C282.185 141.4 282.337 141.337 282.512 141.337C282.691 141.337 282.844 141.4 282.969 141.525C283.094 141.65 283.157 141.802 283.157 141.981C283.157 142.157 283.094 142.309 282.969 142.438C282.844 142.563 282.691 142.626 282.512 142.626ZM287.122 151.576C286.656 151.576 286.25 151.51 285.902 151.377C285.555 151.249 285.278 151.064 285.069 150.824C284.865 150.588 284.738 150.312 284.688 149.997L284.698 149.992H285.666L285.672 149.997C285.722 150.215 285.872 150.395 286.123 150.534C286.373 150.677 286.706 150.749 287.122 150.749C287.641 150.749 288.046 150.631 288.336 150.395C288.629 150.162 288.776 149.832 288.776 149.406V148.235H288.69C288.568 148.447 288.416 148.627 288.234 148.778C288.051 148.928 287.845 149.043 287.616 149.122C287.387 149.197 287.14 149.234 286.875 149.234C286.377 149.234 285.945 149.116 285.58 148.88C285.219 148.64 284.938 148.311 284.741 147.891C284.544 147.472 284.446 146.992 284.446 146.451V146.44C284.446 145.9 284.544 145.42 284.741 145.001C284.942 144.578 285.226 144.247 285.591 144.007C285.956 143.763 286.391 143.641 286.896 143.641C287.168 143.641 287.419 143.685 287.648 143.771C287.877 143.857 288.08 143.979 288.255 144.136C288.434 144.294 288.583 144.482 288.701 144.7H288.765V143.743H289.701V149.455C289.701 149.884 289.595 150.258 289.383 150.577C289.175 150.896 288.878 151.141 288.491 151.313C288.105 151.488 287.648 151.576 287.122 151.576ZM287.079 148.407C287.437 148.407 287.743 148.325 287.997 148.16C288.255 147.992 288.452 147.76 288.588 147.466C288.728 147.173 288.797 146.834 288.797 146.451V146.44C288.797 146.057 288.728 145.717 288.588 145.42C288.452 145.123 288.255 144.89 287.997 144.722C287.743 144.553 287.437 144.469 287.079 144.469C286.721 144.469 286.416 144.553 286.166 144.722C285.919 144.89 285.729 145.123 285.596 145.42C285.467 145.717 285.403 146.057 285.403 146.44V146.451C285.403 146.834 285.467 147.173 285.596 147.466C285.729 147.76 285.919 147.992 286.166 148.16C286.416 148.325 286.721 148.407 287.079 148.407ZM291.495 149.535V141.444H292.429V144.614H292.515C292.662 144.306 292.873 144.068 293.149 143.9C293.425 143.727 293.776 143.641 294.203 143.641C294.636 143.641 295.003 143.726 295.304 143.894C295.605 144.059 295.834 144.301 295.991 144.62C296.149 144.938 296.228 145.327 296.228 145.785V149.535H295.293V146.011C295.293 145.488 295.182 145.101 294.96 144.851C294.742 144.596 294.402 144.469 293.94 144.469C293.631 144.469 293.364 144.535 293.138 144.668C292.913 144.8 292.737 144.988 292.612 145.232C292.49 145.475 292.429 145.767 292.429 146.107V149.535H291.495Z" fill="#454F5B"/>
<path d="M266.98 165.539H258.978V173.54H266.98V165.539Z" fill="#FCD78E"/>
<path d="M273.97 173.54V165.789H275.093L277.747 172.256H277.833L280.486 165.789H281.61V173.54H280.707V167.62H280.234L281.32 166.003L278.198 173.54H277.382L274.266 166.003L275.345 167.62H274.873V173.54H273.97ZM285.833 173.642C285.281 173.642 284.806 173.52 284.408 173.277C284.014 173.033 283.71 172.69 283.495 172.246C283.284 171.798 283.178 171.272 283.178 170.667V170.661C283.178 170.063 283.284 169.539 283.495 169.086C283.71 168.635 284.013 168.283 284.403 168.028C284.793 167.774 285.251 167.647 285.774 167.647C286.3 167.647 286.751 167.769 287.127 168.012C287.507 168.256 287.797 168.596 287.997 169.033C288.201 169.467 288.303 169.972 288.303 170.548V170.914H283.662V170.167H287.825L287.363 170.849V170.479C287.363 170.024 287.295 169.65 287.159 169.355C287.023 169.061 286.835 168.843 286.595 168.7C286.355 168.553 286.08 168.48 285.768 168.48C285.457 168.48 285.176 168.557 284.929 168.711C284.686 168.861 284.492 169.085 284.349 169.383C284.206 169.68 284.134 170.045 284.134 170.479V170.849C284.134 171.261 284.204 171.614 284.344 171.907C284.483 172.197 284.682 172.421 284.94 172.579C285.198 172.733 285.503 172.81 285.854 172.81C286.116 172.81 286.343 172.774 286.536 172.702C286.73 172.631 286.889 172.539 287.014 172.428C287.14 172.317 287.227 172.205 287.277 172.09L287.299 172.042H288.234L288.223 172.085C288.173 172.282 288.083 172.473 287.954 172.659C287.829 172.842 287.666 173.008 287.465 173.159C287.265 173.306 287.027 173.424 286.751 173.513C286.479 173.599 286.173 173.642 285.833 173.642ZM291.892 173.642C291.405 173.642 290.979 173.519 290.614 173.272C290.249 173.025 289.966 172.677 289.765 172.23C289.564 171.778 289.464 171.252 289.464 170.65V170.64C289.464 170.035 289.564 169.508 289.765 169.06C289.966 168.612 290.247 168.265 290.609 168.018C290.974 167.771 291.402 167.647 291.892 167.647C292.157 167.647 292.406 167.69 292.639 167.776C292.875 167.858 293.085 167.975 293.267 168.125C293.45 168.275 293.593 168.454 293.697 168.662H293.783V165.45H294.718V173.54H293.783V172.616H293.697C293.579 172.831 293.43 173.016 293.251 173.17C293.072 173.32 292.868 173.436 292.639 173.519C292.41 173.601 292.161 173.642 291.892 173.642ZM292.107 172.815C292.458 172.815 292.761 172.727 293.015 172.552C293.269 172.376 293.464 172.128 293.6 171.805C293.736 171.479 293.804 171.094 293.804 170.65V170.64C293.804 170.192 293.736 169.807 293.6 169.485C293.464 169.162 293.269 168.913 293.015 168.737C292.761 168.562 292.458 168.474 292.107 168.474C291.756 168.474 291.454 168.562 291.199 168.737C290.949 168.909 290.755 169.156 290.619 169.48C290.487 169.802 290.421 170.189 290.421 170.64V170.65C290.421 171.098 290.487 171.485 290.619 171.811C290.755 172.133 290.949 172.382 291.199 172.557C291.454 172.729 291.756 172.815 292.107 172.815ZM296.534 173.54V167.749H297.468V173.54H296.534ZM297.007 166.632C296.831 166.632 296.679 166.569 296.55 166.444C296.425 166.315 296.362 166.163 296.362 165.987C296.362 165.808 296.425 165.656 296.55 165.531C296.679 165.406 296.831 165.343 297.007 165.343C297.186 165.343 297.338 165.406 297.463 165.531C297.588 165.656 297.651 165.808 297.651 165.987C297.651 166.163 297.588 166.315 297.463 166.444C297.338 166.569 297.186 166.632 297.007 166.632ZM301.17 173.642C300.733 173.642 300.366 173.56 300.069 173.395C299.772 173.227 299.548 172.983 299.398 172.665C299.251 172.342 299.177 171.954 299.177 171.499V167.749H300.112V171.274C300.112 171.793 300.212 172.179 300.413 172.434C300.617 172.688 300.95 172.815 301.412 172.815C301.666 172.815 301.89 172.777 302.083 172.702C302.281 172.627 302.445 172.52 302.578 172.38C302.711 172.237 302.809 172.065 302.874 171.864C302.942 171.66 302.976 171.431 302.976 171.177V167.749H303.91V173.54H302.976V172.675H302.89C302.797 172.879 302.67 173.055 302.509 173.202C302.347 173.345 302.153 173.454 301.927 173.529C301.705 173.606 301.453 173.642 301.17 173.642ZM305.656 173.54V167.749H306.591V168.63H306.677C306.806 168.318 307.003 168.077 307.268 167.905C307.537 167.733 307.861 167.647 308.24 167.647C308.502 167.647 308.736 167.69 308.944 167.776C309.152 167.862 309.331 167.982 309.481 168.136C309.632 168.286 309.752 168.462 309.841 168.662H309.927C310.031 168.458 310.17 168.281 310.346 168.13C310.521 167.976 310.724 167.858 310.954 167.776C311.187 167.69 311.435 167.647 311.7 167.647C312.094 167.647 312.427 167.72 312.699 167.867C312.975 168.014 313.185 168.229 313.328 168.512C313.471 168.791 313.543 169.133 313.543 169.539V173.54H312.608V169.754C312.608 169.467 312.563 169.23 312.474 169.044C312.388 168.854 312.255 168.712 312.076 168.619C311.897 168.523 311.672 168.474 311.4 168.474C311.131 168.474 310.896 168.535 310.695 168.657C310.495 168.779 310.339 168.941 310.228 169.146C310.117 169.346 310.061 169.571 310.061 169.818V173.54H309.127V169.608C309.127 169.378 309.077 169.18 308.976 169.011C308.88 168.839 308.74 168.707 308.557 168.614C308.378 168.521 308.167 168.474 307.924 168.474C307.673 168.474 307.446 168.54 307.241 168.673C307.041 168.805 306.882 168.984 306.763 169.21C306.649 169.433 306.591 169.68 306.591 169.952V173.54H305.656Z" fill="#454F5B"/>
<path d="M266.98 189.544H258.978V197.546H266.98V189.544Z" fill="#91E1E8"/>
<path d="M273.97 197.546V189.794H274.937V196.676H278.676V197.546H273.97ZM282.217 197.648C281.669 197.648 281.195 197.528 280.793 197.288C280.395 197.045 280.087 196.699 279.869 196.252C279.654 195.804 279.546 195.272 279.546 194.655V194.645C279.546 194.025 279.654 193.492 279.869 193.044C280.087 192.597 280.395 192.253 280.793 192.013C281.195 191.773 281.669 191.653 282.217 191.653C282.768 191.653 283.243 191.773 283.64 192.013C284.038 192.253 284.344 192.597 284.559 193.044C284.777 193.492 284.886 194.025 284.886 194.645V194.655C284.886 195.272 284.777 195.804 284.559 196.252C284.344 196.699 284.038 197.045 283.64 197.288C283.243 197.528 282.768 197.648 282.217 197.648ZM282.217 196.821C282.582 196.821 282.892 196.735 283.146 196.563C283.4 196.391 283.594 196.144 283.726 195.822C283.862 195.5 283.93 195.11 283.93 194.655V194.645C283.93 194.186 283.862 193.796 283.726 193.474C283.594 193.152 283.4 192.906 283.146 192.738C282.892 192.566 282.582 192.48 282.217 192.48C281.852 192.48 281.542 192.566 281.288 192.738C281.033 192.906 280.837 193.152 280.701 193.474C280.569 193.796 280.503 194.186 280.503 194.645V194.655C280.503 195.11 280.569 195.5 280.701 195.822C280.837 196.144 281.033 196.391 281.288 196.563C281.542 196.735 281.852 196.821 282.217 196.821ZM287.24 197.546L285.618 191.755H286.552L287.691 196.386H287.777L289.071 191.755H289.959L291.253 196.386H291.339L292.478 191.755H293.407L291.785 197.546H290.845L289.55 193.066H289.464L288.174 197.546H287.24Z" fill="#454F5B"/>
<path d="M178.178 148.228C177.525 148.228 176.961 148.109 176.485 147.868C176.009 147.628 175.64 147.293 175.378 146.863C175.121 146.434 174.992 145.934 174.992 145.365V140.283H176.372V145.252C176.372 145.606 176.442 145.918 176.582 146.186C176.725 146.451 176.931 146.659 177.199 146.81C177.468 146.956 177.796 147.03 178.183 147.03C178.566 147.03 178.892 146.956 179.161 146.81C179.429 146.659 179.633 146.451 179.773 146.186C179.913 145.918 179.982 145.606 179.982 145.252V140.283H181.363V145.365C181.363 145.934 181.234 146.434 180.976 146.863C180.718 147.293 180.351 147.628 179.875 147.868C179.402 148.109 178.837 148.228 178.178 148.228ZM183.131 148.035V142.163H184.468V143.065H184.56C184.66 142.75 184.839 142.504 185.097 142.329C185.358 142.154 185.682 142.066 186.069 142.066C186.169 142.066 186.268 142.073 186.365 142.087C186.466 142.098 186.548 142.112 186.612 142.13V143.328C186.505 143.303 186.396 143.285 186.284 143.274C186.176 143.26 186.064 143.253 185.945 143.253C185.648 143.253 185.389 143.308 185.167 143.419C184.945 143.53 184.773 143.691 184.651 143.898C184.529 144.102 184.468 144.344 184.468 144.623V148.035H183.131ZM190.082 150.098C189.566 150.098 189.121 150.03 188.745 149.894C188.372 149.757 188.079 149.564 187.864 149.313C187.649 149.066 187.518 148.778 187.472 148.449L187.477 148.433H188.809L188.82 148.449C188.863 148.635 188.994 148.787 189.212 148.905C189.434 149.027 189.731 149.088 190.104 149.088C190.563 149.088 190.917 148.986 191.168 148.782C191.422 148.578 191.549 148.288 191.549 147.912V146.783H191.458C191.347 146.994 191.202 147.173 191.023 147.32C190.848 147.467 190.644 147.578 190.415 147.653C190.19 147.724 189.941 147.76 189.669 147.76C189.174 147.76 188.746 147.642 188.385 147.406C188.023 147.166 187.744 146.835 187.547 146.412C187.354 145.99 187.257 145.501 187.257 144.946V144.935C187.257 144.369 187.355 143.872 187.552 143.441C187.749 143.011 188.029 142.675 188.39 142.431C188.755 142.188 189.191 142.066 189.695 142.066C189.968 142.066 190.216 142.109 190.442 142.195C190.672 142.281 190.873 142.402 191.045 142.56C191.22 142.718 191.363 142.907 191.474 143.129H191.544V142.163H192.881V147.889C192.881 148.341 192.767 148.732 192.538 149.061C192.312 149.394 191.99 149.65 191.571 149.829C191.152 150.008 190.655 150.098 190.082 150.098ZM190.082 146.697C190.39 146.697 190.656 146.623 190.878 146.477C191.1 146.326 191.27 146.12 191.388 145.859C191.51 145.597 191.571 145.293 191.571 144.946V144.935C191.571 144.588 191.51 144.283 191.388 144.022C191.27 143.757 191.1 143.55 190.878 143.403C190.656 143.253 190.39 143.178 190.082 143.178C189.771 143.178 189.506 143.253 189.287 143.403C189.072 143.55 188.908 143.757 188.793 144.022C188.682 144.283 188.627 144.588 188.627 144.935V144.946C188.627 145.29 188.682 145.594 188.793 145.859C188.908 146.12 189.072 146.326 189.287 146.477C189.506 146.623 189.771 146.697 190.082 146.697ZM197.034 148.153C196.451 148.153 195.949 148.03 195.53 147.782C195.115 147.535 194.795 147.184 194.568 146.729C194.342 146.274 194.23 145.735 194.23 145.112V145.107C194.23 144.491 194.341 143.954 194.563 143.495C194.788 143.036 195.108 142.682 195.52 142.431C195.931 142.177 196.415 142.05 196.97 142.05C197.528 142.05 198.008 142.173 198.409 142.42C198.814 142.664 199.125 143.006 199.345 143.446C199.563 143.888 199.673 144.403 199.673 144.994V145.435H194.901V144.538H199.016L198.382 145.375V144.844C198.382 144.453 198.323 144.129 198.205 143.872C198.087 143.614 197.922 143.419 197.711 143.29C197.503 143.162 197.262 143.097 196.986 143.097C196.71 143.097 196.465 143.165 196.25 143.301C196.039 143.434 195.871 143.632 195.745 143.893C195.623 144.151 195.563 144.468 195.563 144.844V145.381C195.563 145.742 195.623 146.052 195.745 146.31C195.867 146.564 196.039 146.761 196.261 146.901C196.486 147.037 196.753 147.105 197.061 147.105C197.301 147.105 197.507 147.071 197.679 147.003C197.854 146.931 197.996 146.847 198.103 146.75C198.211 146.65 198.286 146.555 198.329 146.466L198.345 146.428H199.613L199.603 146.477C199.556 146.666 199.47 146.86 199.345 147.057C199.223 147.25 199.056 147.431 198.844 147.599C198.637 147.764 198.382 147.899 198.082 148.003C197.781 148.103 197.432 148.153 197.034 148.153ZM201.01 148.035V142.163H202.347V143.065H202.439C202.578 142.746 202.79 142.497 203.072 142.318C203.355 142.139 203.709 142.05 204.132 142.05C204.787 142.05 205.288 142.24 205.635 142.619C205.983 142.999 206.156 143.538 206.156 144.237V148.035H204.819V144.548C204.819 144.09 204.722 143.745 204.529 143.516C204.339 143.287 204.042 143.172 203.637 143.172C203.371 143.172 203.142 143.231 202.949 143.35C202.756 143.468 202.607 143.634 202.503 143.85C202.399 144.065 202.347 144.319 202.347 144.613V148.035H201.01ZM210.046 148.062C209.373 148.062 208.888 147.938 208.591 147.69C208.293 147.443 208.145 147.039 208.145 146.477V143.199H207.231V142.163H208.145V140.723H209.504V142.163H210.739V143.199H209.504V146.16C209.504 146.45 209.564 146.663 209.686 146.799C209.812 146.931 210.012 146.998 210.288 146.998C210.384 146.998 210.463 146.996 210.524 146.992C210.589 146.985 210.66 146.978 210.739 146.971V148.003C210.646 148.021 210.538 148.035 210.417 148.046C210.299 148.057 210.175 148.062 210.046 148.062Z" fill="#637381"/>
<path d="M185.961 166.039V164.849L188.687 162.159C189.085 161.776 189.394 161.462 189.612 161.216C189.831 160.966 189.983 160.748 190.069 160.564C190.155 160.377 190.198 160.184 190.198 159.984V159.967C190.198 159.725 190.146 159.512 190.04 159.328C189.939 159.145 189.79 159.002 189.595 158.9C189.399 158.795 189.167 158.742 188.898 158.742C188.624 158.742 188.382 158.801 188.171 158.918C187.96 159.031 187.796 159.189 187.679 159.393C187.562 159.592 187.503 159.826 187.503 160.096V160.125H185.867L185.861 160.096C185.861 159.557 185.992 159.082 186.254 158.672C186.521 158.262 186.886 157.941 187.351 157.711C187.819 157.48 188.362 157.365 188.98 157.365C189.562 157.365 190.073 157.469 190.515 157.676C190.961 157.883 191.309 158.17 191.559 158.537C191.813 158.904 191.94 159.332 191.94 159.82V159.838C191.94 160.158 191.877 160.473 191.752 160.782C191.627 161.087 191.416 161.417 191.119 161.773C190.821 162.128 190.415 162.544 189.899 163.021L187.86 164.925L188.335 164.151V164.925L187.86 164.614H192.063V166.039H185.961ZM196.939 166.256C196.243 166.256 195.644 166.076 195.14 165.717C194.639 165.354 194.254 164.839 193.984 164.175C193.715 163.511 193.58 162.724 193.58 161.814V161.802C193.58 160.888 193.715 160.1 193.984 159.439C194.254 158.775 194.639 158.264 195.14 157.904C195.644 157.545 196.243 157.365 196.939 157.365C197.638 157.365 198.237 157.545 198.737 157.904C199.237 158.264 199.623 158.775 199.893 159.439C200.162 160.1 200.297 160.888 200.297 161.802V161.814C200.297 162.724 200.162 163.511 199.893 164.175C199.623 164.839 199.237 165.354 198.737 165.717C198.237 166.076 197.638 166.256 196.939 166.256ZM196.939 164.855C197.275 164.855 197.558 164.733 197.788 164.491C198.023 164.249 198.2 163.901 198.321 163.448C198.446 162.995 198.509 162.45 198.509 161.814V161.802C198.509 161.161 198.446 160.615 198.321 160.166C198.2 159.713 198.023 159.367 197.788 159.129C197.558 158.887 197.275 158.766 196.939 158.766C196.607 158.766 196.323 158.887 196.089 159.129C195.859 159.367 195.681 159.713 195.556 160.166C195.435 160.615 195.374 161.161 195.374 161.802V161.814C195.374 162.45 195.435 162.995 195.556 163.448C195.681 163.901 195.859 164.249 196.089 164.491C196.323 164.733 196.607 164.855 196.939 164.855Z" fill="#212B36"/>
<path d="M24.9619 111.026V103.274H26.5522L28.8838 109.242H28.9748L31.3013 103.274H32.8917V111.026H31.6454V105.514H30.9683L32.3436 103.488L29.3999 111.026H28.4537L25.515 103.488L26.8903 105.514H26.2082V111.026H24.9619ZM37.1787 111.144C36.5946 111.144 36.0935 111.021 35.6744 110.774C35.2593 110.527 34.9382 110.176 34.7131 109.721C34.4871 109.265 34.3741 108.726 34.3741 108.103V108.098C34.3741 107.482 34.4851 106.945 34.7071 106.487C34.9332 106.028 35.2523 105.674 35.6634 105.423C36.0755 105.169 36.5586 105.041 37.1137 105.041C37.6728 105.041 38.1529 105.164 38.554 105.412C38.9591 105.656 39.2702 105.998 39.4893 106.438C39.7073 106.879 39.8163 107.394 39.8163 107.985V108.426H35.0462V107.529H39.1612L38.527 108.366V107.835C38.527 107.444 38.468 107.12 38.35 106.863C38.232 106.605 38.0669 106.411 37.8559 106.282C37.6478 106.154 37.4058 106.089 37.1307 106.089C36.8546 106.089 36.6096 106.157 36.3945 106.293C36.1825 106.426 36.0144 106.623 35.8894 106.884C35.7674 107.142 35.7064 107.459 35.7064 107.835V108.372C35.7064 108.733 35.7674 109.043 35.8894 109.301C36.0114 109.556 36.1825 109.753 36.4055 109.893C36.6306 110.029 36.8977 110.097 37.2057 110.097C37.4458 110.097 37.6518 110.063 37.8229 109.995C37.9989 109.923 38.1399 109.839 38.248 109.742C38.355 109.642 38.43 109.547 38.473 109.458L38.489 109.42H39.7573L39.7463 109.469C39.7003 109.658 39.6143 109.852 39.4893 110.049C39.3672 110.242 39.2002 110.423 38.9891 110.591C38.7811 110.756 38.527 110.89 38.226 110.994C37.9259 111.094 37.5758 111.144 37.1787 111.144ZM43.2711 111.123C42.784 111.123 42.3589 111.001 41.9978 110.758C41.6357 110.511 41.3567 110.16 41.1597 109.705C40.9626 109.249 40.8646 108.714 40.8646 108.098V108.087C40.8646 107.464 40.9606 106.927 41.1546 106.476C41.3507 106.021 41.6288 105.672 41.9868 105.428C42.3489 105.181 42.777 105.058 43.2711 105.058C43.5392 105.058 43.7902 105.101 44.0233 105.187C44.2554 105.269 44.4604 105.387 44.6354 105.541C44.8145 105.695 44.9545 105.878 45.0545 106.089H45.1516V102.882H46.4839V111.026H45.1516V110.108H45.0545C44.9475 110.319 44.8055 110.502 44.6305 110.656C44.4584 110.806 44.2574 110.922 44.0283 111.005C43.7993 111.083 43.5462 111.123 43.2711 111.123ZM43.6902 109.995C43.9943 109.995 44.2554 109.92 44.4744 109.769C44.6965 109.615 44.8665 109.397 44.9846 109.113C45.1066 108.827 45.1676 108.488 45.1676 108.098V108.087C45.1676 107.693 45.1066 107.355 44.9846 107.072C44.8665 106.789 44.6965 106.571 44.4744 106.417C44.2554 106.263 43.9943 106.186 43.6902 106.186C43.3892 106.186 43.1281 106.263 42.9061 106.417C42.687 106.567 42.519 106.786 42.4009 107.072C42.2819 107.355 42.2229 107.693 42.2229 108.087V108.098C42.2229 108.492 42.2819 108.83 42.4009 109.113C42.519 109.397 42.687 109.615 42.9061 109.769C43.1241 109.92 43.3852 109.995 43.6902 109.995ZM48.1863 111.026V105.155H49.5186V111.026H48.1863ZM48.8584 104.171C48.6394 104.171 48.4514 104.094 48.2943 103.94C48.1363 103.786 48.0573 103.601 48.0573 103.386C48.0573 103.164 48.1363 102.978 48.2943 102.828C48.4514 102.674 48.6394 102.597 48.8584 102.597C49.0765 102.597 49.2626 102.674 49.4166 102.828C49.5746 102.978 49.6536 103.164 49.6536 103.386C49.6536 103.601 49.5746 103.786 49.4166 103.94C49.2626 104.094 49.0765 104.171 48.8584 104.171ZM53.1134 111.144C52.6763 111.144 52.3092 111.06 52.0122 110.892C51.7141 110.72 51.491 110.471 51.34 110.145C51.19 109.816 51.115 109.418 51.115 108.952V105.155H52.4523V108.646C52.4523 109.1 52.5413 109.442 52.7213 109.673C52.9004 109.902 53.1915 110.016 53.5965 110.016C53.8116 110.016 54.0016 109.984 54.1657 109.92C54.3347 109.852 54.4738 109.755 54.5848 109.63C54.6958 109.504 54.7798 109.353 54.8378 109.177C54.8948 108.998 54.9239 108.798 54.9239 108.576V105.155H56.2612V111.026H54.9239V110.135H54.8318C54.7428 110.342 54.6178 110.523 54.4558 110.677C54.2947 110.827 54.1017 110.944 53.8756 111.026C53.6505 111.105 53.3955 111.144 53.1134 111.144ZM57.8945 111.026V105.155H59.2319V106.068H59.3239C59.4489 105.742 59.651 105.489 59.931 105.31C60.2131 105.13 60.5482 105.041 60.9353 105.041C61.2003 105.041 61.4384 105.085 61.6494 105.171C61.8645 105.257 62.0495 105.378 62.2026 105.536C62.3566 105.693 62.4756 105.881 62.5577 106.1H62.6547C62.7507 105.889 62.8857 105.704 63.0568 105.547C63.2328 105.385 63.4369 105.262 63.6699 105.176C63.906 105.086 64.16 105.041 64.4321 105.041C64.8262 105.041 65.1632 105.121 65.4423 105.278C65.7254 105.432 65.9424 105.654 66.0925 105.944C66.2465 106.234 66.3235 106.581 66.3235 106.986V111.026H64.9862V107.314C64.9862 107.056 64.9462 106.843 64.8682 106.675C64.7922 106.506 64.6761 106.379 64.5181 106.293C64.3611 106.207 64.162 106.164 63.922 106.164C63.6889 106.164 63.4869 106.218 63.3148 106.325C63.1428 106.429 63.0087 106.571 62.9117 106.75C62.8187 106.929 62.7727 107.131 62.7727 107.357V111.026H61.4344V107.217C61.4344 106.999 61.3914 106.811 61.3064 106.653C61.2233 106.496 61.1013 106.376 60.9403 106.293C60.7832 106.207 60.5952 106.164 60.3761 106.164C60.1581 106.164 59.961 106.222 59.785 106.336C59.614 106.447 59.4779 106.601 59.3769 106.798C59.2809 106.991 59.2319 107.21 59.2319 107.453V111.026H57.8945Z" fill="#637381"/>
<path d="M35.2112 129.03V127.841L37.9369 125.15C38.335 124.767 38.644 124.453 38.8631 124.207C39.0811 123.957 39.2342 123.74 39.3202 123.556C39.4062 123.369 39.4482 123.176 39.4482 122.976V122.959C39.4482 122.717 39.3962 122.504 39.2902 122.32C39.1891 122.137 39.0401 121.993 38.8451 121.891C38.65 121.786 38.417 121.733 38.1479 121.733C37.8738 121.733 37.6318 121.792 37.4207 121.909C37.2097 122.022 37.0457 122.181 36.9286 122.385C36.8116 122.584 36.7526 122.818 36.7526 123.088V123.117H35.1172L35.1122 123.088C35.1122 122.549 35.2422 122.073 35.5043 121.663C35.7703 121.253 36.1354 120.932 36.6005 120.702C37.0697 120.471 37.6128 120.356 38.2299 120.356C38.8121 120.356 39.3232 120.46 39.7653 120.667C40.2104 120.874 40.5585 121.161 40.8085 121.528C41.0626 121.895 41.1896 122.324 41.1896 122.812V122.83C41.1896 123.15 41.1266 123.465 41.0016 123.773C40.8765 124.078 40.6655 124.408 40.3684 124.764C40.0724 125.119 39.6653 125.535 39.1502 126.012L37.1107 127.917L37.5848 127.143V127.917L37.1107 127.606H41.3126V129.03H35.2112ZM46.1888 129.247C45.4926 129.247 44.8935 129.067 44.3894 128.708C43.8893 128.345 43.5042 127.831 43.2351 127.167C42.965 126.502 42.83 125.715 42.83 124.805V124.793C42.83 123.879 42.965 123.092 43.2351 122.431C43.5042 121.766 43.8893 121.255 44.3894 120.895C44.8935 120.536 45.4926 120.356 46.1888 120.356C46.8879 120.356 47.4881 120.536 47.9882 120.895C48.4883 121.255 48.8724 121.766 49.1425 122.431C49.4115 123.092 49.5466 123.879 49.5466 124.793V124.805C49.5466 125.715 49.4115 126.502 49.1425 127.167C48.8724 127.831 48.4883 128.345 47.9882 128.708C47.4881 129.067 46.8879 129.247 46.1888 129.247ZM46.1888 127.847C46.5249 127.847 46.8079 127.725 47.038 127.483C47.273 127.241 47.4501 126.893 47.5721 126.439C47.6971 125.986 47.7592 125.441 47.7592 124.805V124.793C47.7592 124.152 47.6971 123.607 47.5721 123.158C47.4501 122.705 47.273 122.359 47.038 122.12C46.8079 121.878 46.5249 121.757 46.1888 121.757C45.8567 121.757 45.5736 121.878 45.3386 122.12C45.1085 122.359 44.9305 122.705 44.8055 123.158C44.6844 123.607 44.6234 124.152 44.6234 124.793V124.805C44.6234 125.441 44.6844 125.986 44.8055 126.439C44.9305 126.893 45.1085 127.241 45.3386 127.483C45.5736 127.725 45.8567 127.847 46.1888 127.847ZM54.4057 129.247C53.7095 129.247 53.1104 129.067 52.6063 128.708C52.1062 128.345 51.7211 127.831 51.451 127.167C51.182 126.502 51.0469 125.715 51.0469 124.805V124.793C51.0469 123.879 51.182 123.092 51.451 122.431C51.7211 121.766 52.1062 121.255 52.6063 120.895C53.1104 120.536 53.7095 120.356 54.4057 120.356C55.1049 120.356 55.704 120.536 56.2041 120.895C56.7042 121.255 57.0893 121.766 57.3594 122.431C57.6284 123.092 57.7635 123.879 57.7635 124.793V124.805C57.7635 125.715 57.6284 126.502 57.3594 127.167C57.0893 127.831 56.7042 128.345 56.2041 128.708C55.704 129.067 55.1049 129.247 54.4057 129.247ZM54.4057 127.847C54.7418 127.847 55.0248 127.725 55.2549 127.483C55.4899 127.241 55.667 126.893 55.788 126.439C55.9131 125.986 55.9761 125.441 55.9761 124.805V124.793C55.9761 124.152 55.9131 123.607 55.788 123.158C55.667 122.705 55.4899 122.359 55.2549 122.12C55.0248 121.878 54.7418 121.757 54.4057 121.757C54.0736 121.757 53.7896 121.878 53.5555 122.12C53.3255 122.359 53.1474 122.705 53.0224 123.158C52.9013 123.607 52.8403 124.152 52.8403 124.793V124.805C52.8403 125.441 52.9013 125.986 53.0224 126.439C53.1474 126.893 53.3255 127.241 53.5555 127.483C53.7896 127.725 54.0736 127.847 54.4057 127.847Z" fill="#212B36"/>
<path d="M142.989 85.0198V77.268H144.376V80.4908H148.147V77.268H149.528V85.0198H148.147V81.657H144.376V85.0198H142.989ZM151.322 85.0198V79.1485H152.655V85.0198H151.322ZM151.994 78.1652C151.775 78.1652 151.587 78.0882 151.429 77.9342C151.272 77.7801 151.193 77.5951 151.193 77.38C151.193 77.158 151.272 76.9719 151.429 76.8219C151.587 76.6679 151.775 76.5909 151.994 76.5909C152.212 76.5909 152.399 76.6679 152.553 76.8219C152.71 76.9719 152.789 77.158 152.789 77.38C152.789 77.5951 152.71 77.7801 152.553 77.9342C152.399 78.0882 152.212 78.1652 151.994 78.1652ZM156.829 87.0833C156.313 87.0833 155.867 87.0153 155.491 86.8792C155.118 86.7422 154.825 86.5492 154.61 86.2981C154.395 86.0511 154.264 85.763 154.218 85.4339L154.223 85.4179H155.555L155.566 85.4339C155.609 85.62 155.739 85.772 155.958 85.89C156.18 86.0121 156.478 86.0731 156.85 86.0731C157.309 86.0731 157.663 85.971 157.914 85.767C158.168 85.5629 158.295 85.2729 158.295 84.8968V83.7685H158.204C158.093 83.9796 157.948 84.1586 157.769 84.3056C157.593 84.4527 157.391 84.5637 157.162 84.6387C156.936 84.7097 156.688 84.7457 156.415 84.7457C155.92 84.7457 155.492 84.6277 155.131 84.3917C154.769 84.1516 154.49 83.8205 154.293 83.3974C154.099 82.9753 154.003 82.4862 154.003 81.9311V81.9201C154.003 81.354 154.101 80.8568 154.298 80.4267C154.495 79.9966 154.774 79.6606 155.136 79.4165C155.501 79.1734 155.936 79.0514 156.442 79.0514C156.714 79.0514 156.963 79.0944 157.189 79.1805C157.418 79.2665 157.619 79.3875 157.79 79.5455C157.966 79.7036 158.109 79.8926 158.22 80.1147H158.29V79.1485H159.627V84.8748C159.627 85.3259 159.513 85.717 159.284 86.0461C159.058 86.3791 158.736 86.6352 158.317 86.8142C157.898 86.9933 157.402 87.0833 156.829 87.0833ZM156.829 83.6825C157.137 83.6825 157.402 83.6085 157.624 83.4625C157.846 83.3114 158.016 83.1054 158.134 82.8443C158.256 82.5822 158.317 82.2782 158.317 81.9311V81.9201C158.317 81.573 158.256 81.2679 158.134 81.0069C158.016 80.7418 157.846 80.5358 157.624 80.3887C157.402 80.2387 157.137 80.1637 156.829 80.1637C156.517 80.1637 156.253 80.2387 156.033 80.3887C155.818 80.5358 155.654 80.7418 155.539 81.0069C155.428 81.2679 155.372 81.573 155.372 81.9201V81.9311C155.372 82.2752 155.428 82.5792 155.539 82.8443C155.654 83.1054 155.818 83.3114 156.033 83.4625C156.253 83.6085 156.517 83.6825 156.829 83.6825ZM161.32 85.0198V76.8759H162.658V80.0507H162.749C162.889 79.7316 163.1 79.4825 163.383 79.3035C163.666 79.1245 164.018 79.0354 164.441 79.0354C164.878 79.0354 165.248 79.1214 165.548 79.2935C165.849 79.4615 166.076 79.7086 166.23 80.0347C166.388 80.3607 166.467 80.7558 166.467 81.2219V85.0198H165.129V81.533C165.129 81.0749 165.033 80.7308 164.838 80.5018C164.649 80.2727 164.351 80.1577 163.947 80.1577C163.682 80.1577 163.453 80.2167 163.259 80.3357C163.066 80.4538 162.917 80.6198 162.813 80.8348C162.71 81.0499 162.658 81.3039 162.658 81.598V85.0198H161.32Z" fill="#637381"/>
<path d="M151.412 103.241C150.81 103.241 150.283 103.132 149.83 102.913C149.377 102.694 149.017 102.397 148.752 102.022C148.49 101.643 148.342 101.219 148.306 100.75L148.301 100.668H149.906L149.918 100.709C149.961 100.917 150.049 101.106 150.182 101.278C150.318 101.446 150.492 101.581 150.703 101.682C150.914 101.78 151.152 101.829 151.418 101.829C151.723 101.829 151.99 101.762 152.221 101.63C152.452 101.497 152.632 101.315 152.761 101.085C152.893 100.849 152.96 100.582 152.96 100.281V100.269C152.96 99.9683 152.893 99.7032 152.761 99.4722C152.632 99.2421 152.452 99.0621 152.221 98.933C151.99 98.804 151.724 98.74 151.424 98.74C151.213 98.74 151.017 98.771 150.838 98.834C150.658 98.892 150.496 98.9821 150.351 99.1031C150.273 99.1661 150.199 99.2381 150.129 99.3202C150.062 99.3982 150.006 99.4822 149.959 99.5722H148.441L148.834 94.567H154.12V95.9734H150.211L150 98.3829H150.105C150.219 98.1909 150.363 98.0269 150.539 97.8898C150.719 97.7538 150.924 97.6477 151.154 97.5737C151.389 97.4997 151.64 97.4627 151.91 97.4627C152.438 97.4627 152.905 97.5818 153.311 97.8198C153.722 98.0579 154.042 98.386 154.272 98.8041C154.507 99.2181 154.624 99.6953 154.624 100.234V100.246C154.624 100.84 154.487 101.362 154.214 101.811C153.944 102.26 153.567 102.612 153.083 102.866C152.602 103.116 152.045 103.241 151.412 103.241ZM159.43 103.241C158.734 103.241 158.135 103.061 157.631 102.702C157.131 102.339 156.746 101.825 156.475 101.161C156.206 100.496 156.071 99.7093 156.071 98.799V98.787C156.071 97.8728 156.206 97.0856 156.475 96.4245C156.746 95.7603 157.131 95.2492 157.631 94.8891C158.135 94.5301 158.734 94.35 159.43 94.35C160.129 94.35 160.728 94.5301 161.229 94.8891C161.729 95.2492 162.114 95.7603 162.384 96.4245C162.653 97.0856 162.788 97.8728 162.788 98.787V98.799C162.788 99.7093 162.653 100.496 162.384 101.161C162.114 101.825 161.729 102.339 161.229 102.702C160.728 103.061 160.129 103.241 159.43 103.241ZM159.43 101.841C159.766 101.841 160.049 101.719 160.279 101.477C160.514 101.235 160.691 100.887 160.812 100.433C160.937 99.9803 161.001 99.4352 161.001 98.799V98.787C161.001 98.1459 160.937 97.6007 160.812 97.1516C160.691 96.6985 160.514 96.3525 160.279 96.1144C160.049 95.8723 159.766 95.7513 159.43 95.7513C159.098 95.7513 158.814 95.8723 158.58 96.1144C158.35 96.3525 158.172 96.6985 158.047 97.1516C157.926 97.6007 157.865 98.1459 157.865 98.787V98.799C157.865 99.4352 157.926 99.9803 158.047 100.433C158.172 100.887 158.35 101.235 158.58 101.477C158.814 101.719 159.098 101.841 159.43 101.841Z" fill="#212B36"/>
<path d="M121.985 222.052V214.3H123.371V220.886H126.922V222.052H121.985ZM130.548 222.17C129.964 222.17 129.461 222.049 129.038 221.805C128.616 221.558 128.29 221.207 128.061 220.751C127.835 220.297 127.722 219.752 127.722 219.119V219.108C127.722 218.481 127.837 217.94 128.066 217.486C128.295 217.027 128.619 216.676 129.038 216.432C129.461 216.188 129.964 216.067 130.548 216.067C131.132 216.067 131.634 216.188 132.052 216.432C132.475 216.676 132.801 217.026 133.03 217.48C133.259 217.935 133.374 218.478 133.374 219.108V219.119C133.374 219.752 133.259 220.297 133.03 220.751C132.804 221.207 132.48 221.558 132.058 221.805C131.639 222.049 131.136 222.17 130.548 222.17ZM130.548 221.085C130.857 221.085 131.118 221.008 131.333 220.854C131.551 220.696 131.718 220.472 131.832 220.182C131.947 219.888 132.004 219.536 132.004 219.124V219.113C132.004 218.698 131.947 218.345 131.832 218.055C131.718 217.761 131.551 217.538 131.333 217.384C131.118 217.226 130.857 217.147 130.548 217.147C130.24 217.147 129.976 217.226 129.758 217.384C129.54 217.538 129.373 217.761 129.259 218.055C129.144 218.345 129.087 218.698 129.087 219.113V219.124C129.087 219.536 129.144 219.888 129.259 220.182C129.373 220.476 129.538 220.699 129.753 220.854C129.971 221.008 130.236 221.085 130.548 221.085ZM135.604 222.052L134.008 216.18H135.351L136.324 220.596H136.42L137.548 216.18H138.821L139.955 220.596H140.052L141.024 216.18H142.351L140.756 222.052H139.359L138.214 217.797H138.123L136.984 222.052H135.604Z" fill="#637381"/>
<path d="M124.496 240.056V233.269H124.39L122.316 234.711V233.117L124.502 231.599H126.265V240.056H124.496ZM128.944 240.056L132.549 233.105V233.005H128.282V231.593H134.33V233.023L130.796 240.056H128.944ZM138.925 240.273C138.229 240.273 137.63 240.093 137.126 239.734C136.626 239.371 136.241 238.857 135.971 238.193C135.702 237.528 135.567 236.741 135.567 235.831V235.819C135.567 234.905 135.702 234.118 135.971 233.456C136.241 232.792 136.626 232.281 137.126 231.921C137.63 231.562 138.229 231.382 138.925 231.382C139.625 231.382 140.224 231.562 140.724 231.921C141.224 232.281 141.609 232.792 141.879 233.456C142.148 234.118 142.283 234.905 142.283 235.819V235.831C142.283 236.741 142.148 237.528 141.879 238.193C141.609 238.857 141.224 239.371 140.724 239.734C140.224 240.093 139.625 240.273 138.925 240.273ZM138.925 238.873C139.261 238.873 139.545 238.751 139.775 238.509C140.01 238.267 140.187 237.918 140.308 237.465C140.433 237.012 140.496 236.467 140.496 235.831V235.819C140.496 235.178 140.433 234.633 140.308 234.184C140.187 233.73 140.01 233.384 139.775 233.146C139.545 232.904 139.261 232.783 138.925 232.783C138.593 232.783 138.309 232.904 138.075 233.146C137.845 233.384 137.667 233.73 137.542 234.184C137.421 234.633 137.36 235.178 137.36 235.819V235.831C137.36 236.467 137.421 237.012 137.542 237.465C137.667 237.918 137.845 238.267 138.075 238.509C138.309 238.751 138.593 238.873 138.925 238.873Z" fill="#212B36"/>
</g>
<defs>
<filter id="filter0_d_102_628" x="0" y="0" width="347" height="290.5" filterUnits="userSpaceOnUse" color-interpolation-filters="sRGB">
<feFlood flood-opacity="0" result="BackgroundImageFix"/>
<feColorMatrix in="SourceAlpha" type="matrix" values="0 0 0 0 0 0 0 0 0 0 0 0 0 0 0 0 0 0 127 0" result="hardAlpha"/>
<feOffset dy="1"/>
<feGaussianBlur stdDeviation="2"/>
<feComposite in2="hardAlpha" operator="out"/>
<feColorMatrix type="matrix" values="0 0 0 0 0 0 0 0 0 0 0 0 0 0 0 0 0 0 0.15 0"/>
<feBlend mode="normal" in2="BackgroundImageFix" result="effect1_dropShadow_102_628"/>
<feBlend mode="normal" in="SourceGraphic" in2="effect1_dropShadow_102_628" result="shape"/>
</filter>
</defs>
</svg>
