<svg width="552" height="127" viewBox="0 0 552 127" fill="none" xmlns="http://www.w3.org/2000/svg">
<path d="M190.504 42.8195C177.906 42.8195 170.832 37.8549 170.832 28.174V27.8017H180.14V28.9187C180.14 32.7662 182.064 34.3177 190.504 34.3177C197.951 34.3177 199.688 33.2006 199.688 30.4081C199.688 27.8637 198.261 26.9329 193.979 26.1882L182.312 24.5126C174.866 23.3335 170.459 19.6101 170.459 12.8458C170.459 6.57805 175.548 -2.73242e-05 189.511 -2.73242e-05C202.295 -2.73242e-05 208.252 5.89542 208.252 14.6455V15.0178H198.882V14.149C198.882 10.1774 196.834 8.50182 188.58 8.50182C181.878 8.50182 179.83 9.80503 179.83 12.4735C179.83 14.8937 181.195 15.7625 184.671 16.3831L196.337 18.2448C205.646 19.7342 208.997 24.2644 208.997 29.9737C208.997 36.7379 203.722 42.8195 190.504 42.8195ZM225.634 42.8195C216.884 42.8195 212.726 37.4205 212.726 30.4701V11.1082H222.034V27.3673C222.034 32.3939 224.144 34.5038 230.04 34.5038C236.121 34.5038 238.293 32.1457 238.293 26.8708V11.1082H247.602V42.199H238.914V32.7042H238.418C237.611 37.917 233.825 42.8195 225.634 42.8195ZM261.67 52.7487H252.362V11.1082H260.988V19.6101H261.608C262.725 13.6526 266.697 10.4877 274.02 10.4877C283.576 10.4877 288.913 16.8175 288.913 26.6846C288.913 36.5517 283.7 42.8195 274.33 42.8195C267.131 42.8195 263.16 39.2823 262.105 33.8212H261.67V52.7487ZM261.67 27.119C261.67 32.456 264.897 34.3177 270.731 34.3177C276.688 34.3177 279.481 32.3318 279.481 26.6846C279.481 20.9753 276.688 19.0516 270.793 19.0516C264.773 19.0516 261.67 21.0995 261.67 26.6226V27.119ZM309.291 42.8195C298.927 42.8195 291.853 37.7308 291.853 26.6846C291.853 16.7554 298.865 10.4877 309.105 10.4877C319.282 10.4877 326.046 15.8246 326.046 25.5676C326.046 26.6846 325.922 27.4914 325.798 28.5463H300.479C300.727 33.3248 302.961 35.3726 308.981 35.3726C314.504 35.3726 316.427 33.9453 316.427 31.2769V30.6563H325.736V31.3389C325.736 38.1032 319.158 42.8195 309.291 42.8195ZM308.919 17.7484C303.395 17.7484 301.037 19.6101 300.603 23.6438H317.11C316.862 19.548 314.38 17.7484 308.919 17.7484ZM339.302 42.199H329.994V11.1082H338.62V19.3619H339.178C340.047 14.3352 343.336 10.4877 349.604 10.4877C356.554 10.4877 359.409 15.2661 359.409 21.3477V26.4984H350.1V23.2715C350.1 19.8583 348.735 18.3689 344.95 18.3689C340.792 18.3689 339.302 20.2927 339.302 24.2023V42.199ZM374.571 42.199H365.262V18.8033H360.856V11.1082H365.448C366.441 4.84044 371.902 0.620545 381.459 0.620545H384.19V7.38479H379.97C375.874 7.38479 373.95 8.06742 374.198 11.1082H384.19V18.8033H374.571V42.199ZM396.601 7.94331H387.293V0.620545H396.601V7.94331ZM396.601 42.199H387.293V11.1082H396.601V42.199ZM410.814 42.199H401.505V0.620545H410.814V42.199ZM432.193 42.8195C421.83 42.8195 414.755 37.7308 414.755 26.6846C414.755 16.7554 421.768 10.4877 432.007 10.4877C442.185 10.4877 448.949 15.8246 448.949 25.5676C448.949 26.6846 448.825 27.4914 448.701 28.5463H423.381C423.63 33.3248 425.864 35.3726 431.883 35.3726C437.406 35.3726 439.33 33.9453 439.33 31.2769V30.6563H448.639V31.3389C448.639 38.1032 442.061 42.8195 432.193 42.8195ZM431.821 17.7484C426.298 17.7484 423.94 19.6101 423.505 23.6438H440.013C439.764 19.548 437.282 17.7484 431.821 17.7484ZM468.597 42.8195C458.109 42.8195 452.338 38.7237 452.338 31.5251V31.3389H461.646V31.8974C461.646 34.69 463.384 35.4347 468.659 35.4347C473.624 35.4347 474.803 34.628 474.803 32.7662C474.803 31.0286 473.872 30.5322 470.21 30.0357L461.46 28.9807C455.255 28.2981 451.779 25.5055 451.779 20.2927C451.779 14.8317 456.434 10.4877 467.108 10.4877C477.285 10.4877 483.056 14.3352 483.056 21.9062V22.0924H473.748V21.72C473.748 19.1757 472.507 17.8725 466.797 17.8725C462.143 17.8725 460.964 18.6792 460.964 20.6651C460.964 22.2786 461.833 22.9612 465.928 23.4576L472.569 24.2644C480.884 25.1952 483.987 27.9878 483.987 33.1386C483.987 38.972 478.216 42.8195 468.597 42.8195ZM499.1 42.199H487.122V31.3389H499.1V42.199ZM512.748 7.94331H503.439V0.620545H512.748V7.94331ZM512.748 42.199H503.439V11.1082H512.748V42.199ZM526.929 42.199H517.62V11.1082H526.246V20.6651H526.805C527.611 15.4522 531.335 10.4877 539.464 10.4877C547.966 10.4877 552 15.9487 552 22.8371V42.199H542.691V25.9399C542.691 20.9753 540.644 18.8654 534.934 18.8654C529.039 18.8654 526.929 21.2236 526.929 26.4984V42.199Z" fill="black"/>
<path d="M175.957 119.27H171.308V90.4335H194.248V94.6084H175.957V103.561H193.603V107.692H175.957V119.27ZM202.352 119.27H197.704V97.8794H201.965V103.647H202.266C202.912 100.204 205.236 97.449 209.626 97.449C214.489 97.449 216.598 100.935 216.598 104.981V107.779H211.993V105.885C211.993 102.829 210.702 101.409 207.517 101.409C203.858 101.409 202.352 103.432 202.352 107.262V119.27ZM230.278 119.701C223.262 119.701 218.657 115.741 218.657 108.596C218.657 101.925 223.219 97.449 230.192 97.449C236.82 97.449 241.339 101.107 241.339 107.606C241.339 108.381 241.296 108.984 241.167 109.629H223.004C223.176 113.761 225.199 115.956 230.149 115.956C234.625 115.956 236.475 114.493 236.475 111.953V111.609H241.124V111.996C241.124 116.559 236.648 119.701 230.278 119.701ZM230.106 101.107C225.371 101.107 223.305 103.216 223.047 107.047H236.949V106.961C236.949 103.001 234.668 101.107 230.106 101.107ZM255.58 119.701C248.565 119.701 243.96 115.741 243.96 108.596C243.96 101.925 248.522 97.449 255.494 97.449C262.122 97.449 266.642 101.107 266.642 107.606C266.642 108.381 266.599 108.984 266.469 109.629H248.307C248.479 113.761 250.502 115.956 255.451 115.956C259.927 115.956 261.778 114.493 261.778 111.953V111.609H266.426V111.996C266.426 116.559 261.95 119.701 255.58 119.701ZM255.408 101.107C250.674 101.107 248.608 103.216 248.35 107.047H262.252V106.961C262.252 103.001 259.97 101.107 255.408 101.107ZM291.51 119.701C282.557 119.701 276.618 113.847 276.618 104.852C276.618 95.8565 282.557 90.0031 291.51 90.0031C299.644 90.0031 305.325 94.3071 305.325 101.193V101.796H300.204V101.193C300.204 96.8034 297.406 94.4362 291.553 94.4362C284.795 94.4362 281.524 97.6642 281.524 104.852C281.524 112.039 284.795 115.224 291.553 115.224C297.406 115.224 300.204 112.9 300.204 108.467V107.908H305.325V108.467C305.325 115.397 299.687 119.701 291.51 119.701ZM319.682 119.701C312.58 119.701 307.803 115.181 307.803 108.596C307.803 101.925 312.58 97.449 319.682 97.449C326.826 97.449 331.604 101.925 331.604 108.596C331.604 115.181 326.826 119.701 319.682 119.701ZM319.682 115.569C324.89 115.569 327.042 113.115 327.042 108.596C327.042 104.034 324.89 101.538 319.682 101.538C314.517 101.538 312.365 104.034 312.365 108.596C312.365 113.115 314.517 115.569 319.682 115.569ZM339.625 119.27H334.977V97.8794H339.238V104.335H339.496C340.056 100.763 342.38 97.449 347.717 97.449C352.58 97.449 355.206 100.419 355.808 104.508H356.066C356.626 100.849 359.036 97.449 364.459 97.449C370.011 97.449 372.809 101.236 372.809 106.401V119.27H368.204V107.649C368.204 103.432 366.525 101.624 362.393 101.624C357.831 101.624 356.196 103.948 356.196 108.682V119.27H351.59V107.649C351.59 103.432 349.955 101.624 345.823 101.624C341.218 101.624 339.625 103.948 339.625 108.682V119.27ZM381.614 126.587H376.966V97.8794H381.227V103.819H381.614C382.475 99.8592 385.488 97.449 390.524 97.449C397.152 97.449 400.896 101.968 400.896 108.596C400.896 115.224 397.238 119.701 390.567 119.701C385.746 119.701 382.647 117.161 381.786 113.245H381.614V126.587ZM381.614 108.941C381.614 113.331 384.412 115.483 388.974 115.483C393.579 115.483 396.248 113.718 396.248 108.596C396.248 103.432 393.536 101.71 389.06 101.71C384.283 101.71 381.614 103.948 381.614 108.553V108.941ZM415.05 119.701C407.949 119.701 403.171 115.181 403.171 108.596C403.171 101.925 407.949 97.449 415.05 97.449C422.195 97.449 426.972 101.925 426.972 108.596C426.972 115.181 422.195 119.701 415.05 119.701ZM415.05 115.569C420.258 115.569 422.41 113.115 422.41 108.596C422.41 104.034 420.258 101.538 415.05 101.538C409.885 101.538 407.733 104.034 407.733 108.596C407.733 113.115 409.885 115.569 415.05 115.569ZM434.994 119.27H430.345V97.8794H434.606V104.508H434.908C435.553 100.892 438.394 97.449 443.817 97.449C449.756 97.449 452.683 101.452 452.683 106.401V119.27H448.035V107.649C448.035 103.647 446.227 101.624 441.794 101.624C437.103 101.624 434.994 104.034 434.994 108.682V119.27ZM467.585 119.701C460.569 119.701 455.964 115.741 455.964 108.596C455.964 101.925 460.526 97.449 467.499 97.449C474.127 97.449 478.646 101.107 478.646 107.606C478.646 108.381 478.603 108.984 478.474 109.629H460.311C460.483 113.761 462.506 115.956 467.456 115.956C471.932 115.956 473.783 114.493 473.783 111.953V111.609H478.431V111.996C478.431 116.559 473.955 119.701 467.585 119.701ZM467.413 101.107C462.678 101.107 460.612 103.216 460.354 107.047H474.256V106.961C474.256 103.001 471.975 101.107 467.413 101.107ZM486.776 119.27H482.128V97.8794H486.389V104.508H486.69C487.335 100.892 490.176 97.449 495.599 97.449C501.539 97.449 504.465 101.452 504.465 106.401V119.27H499.817V107.649C499.817 103.647 498.009 101.624 493.576 101.624C488.885 101.624 486.776 104.034 486.776 108.682V119.27ZM522.638 119.27H517.732C513.126 119.27 510.286 117.247 510.286 112.039V101.753H506.67V97.8794H510.286V93.1881H514.891V97.8794H522.638V101.753H514.891V111.781C514.891 114.407 516.096 115.095 518.764 115.095H522.638V119.27ZM535.66 119.701C528.774 119.701 524.857 116.989 524.857 112.039V111.91H529.505V112.255C529.505 115.052 531.184 115.956 535.66 115.956C539.835 115.956 541.083 115.095 541.083 113.202C541.083 111.437 540.05 110.877 536.994 110.447L531.141 109.672C527.095 109.156 524.642 107.434 524.642 103.862C524.642 100.117 528.042 97.449 534.627 97.449C541.169 97.449 545.129 100.074 545.129 105.153V105.282H540.523V105.024C540.523 102.485 539.232 101.15 534.498 101.15C530.581 101.15 529.204 102.011 529.204 104.034C529.204 105.713 530.065 106.315 533.293 106.746L538.242 107.434C543.321 108.08 545.645 109.801 545.645 113.331C545.645 117.333 541.686 119.701 535.66 119.701Z" fill="black"/>
<path d="M117.108 5.16474H0V119.27H117.108V5.16474Z" fill="black"/>
<path d="M49.4518 86.5271C50.2863 82.117 50.9972 77.4748 52.0017 72.8326C52.4962 70.4032 51.8935 69.3664 49.22 69.5521C46.5465 69.7378 43.564 69.645 40.7205 69.5521C37.877 69.4593 37.367 68.0047 39.0051 65.9312C47.072 55.8112 55.2315 45.815 63.3602 35.8497C64.2719 34.7201 65.3228 33.9154 66.8218 34.7665C68.3208 35.6176 68.0117 36.6698 67.7645 37.9387C66.8682 42.5809 66.1264 47.2231 65.1373 51.7725C64.6274 54.1245 65.2919 54.9601 67.7027 54.8673C70.1222 54.7435 72.5464 54.7435 74.9659 54.8673C76.3413 54.8673 78.1494 54.14 78.8602 56.0433C79.5711 57.9466 78.0721 58.7512 77.3149 59.8809C74.2241 63.7494 71.0922 67.6127 67.919 71.4709C63.2726 77.1034 58.6622 82.7153 54.0879 88.3066C53.1916 89.4053 52.1871 90.2873 50.6572 89.7302C49.1273 89.1732 49.4518 87.8579 49.4518 86.5271Z" fill="white"/>
</svg>
