<svg width="1161" height="818" viewBox="0 0 1161 818" fill="none" xmlns="http://www.w3.org/2000/svg">
<g filter="url(#filter0_dd_103_772)">
<path d="M1126.38 10.6514H34.6169C27.2637 10.6514 21.3027 16.6124 21.3027 23.9656V772.225C21.3027 779.578 27.2637 785.539 34.6169 785.539H1126.38C1133.74 785.539 1139.7 779.578 1139.7 772.225V23.9656C1139.7 16.6124 1133.74 10.6514 1126.38 10.6514Z" fill="white"/>
<path d="M21.3027 23.9656C21.3027 16.6124 27.2637 10.6514 34.6169 10.6514H1126.38C1133.74 10.6514 1139.7 16.6124 1139.7 23.9656V154.445H21.3027V23.9656Z" fill="#F1F3F5"/>
<path d="M67.6096 44.576H58.9021V48.8099H66.9172V52.245H58.9021V59.9139H54.9078V41.1409H67.6096V44.576ZM81.9675 53.9492C82.7486 55.1741 83.3877 55.9996 83.8847 56.4256C84.3996 56.8517 84.9322 57.047 85.4825 57.0114V59.8341C85.0741 59.9938 84.5327 60.0737 83.8581 60.0737C82.8462 60.0737 81.9941 59.7808 81.3018 59.195C80.6094 58.6092 79.8106 57.5973 78.9052 56.1593L77.0412 53.2036C75.4791 55.2629 74.1654 57.4997 73.1002 59.9139H68.7598C69.8782 57.0736 71.8753 53.816 74.7512 50.1413L69.0793 41.1409H73.4464L77.4407 47.4785C79.1449 45.2417 80.3698 43.1291 81.1154 41.1409H85.4558C84.87 42.6676 84.0978 44.1942 83.1391 45.721C82.1805 47.2477 81.0444 48.8365 79.7307 50.4875L81.9675 53.9492ZM98.9887 60.127C97.3732 60.127 96.1839 59.7631 95.4204 59.0352C94.6571 58.3073 94.2754 57.1978 94.2754 55.7067V48.7566H92.1185V45.8541H94.2754V42.0995H98.0567V45.8541H100.959V48.7566H98.0567V54.9611C98.0567 55.6889 98.2076 56.2126 98.5093 56.5321C98.8112 56.8517 99.3171 57.0114 100.027 57.0114C100.347 57.0114 100.657 56.9759 100.959 56.9049V59.8074C100.48 60.0205 99.8231 60.127 98.9887 60.127ZM110.388 45.6411C110.743 45.6411 111.063 45.6677 111.347 45.721C111.649 45.7742 111.879 45.8452 112.039 45.934L111.294 49.7153C110.903 49.6087 110.468 49.5555 109.989 49.5555C109.048 49.5555 108.276 49.9106 107.672 50.6206C107.086 51.313 106.793 52.4136 106.793 53.9225V59.9139H103.012V45.8541H106.607V49.0495C106.82 48.1265 107.228 47.3276 107.832 46.653C108.453 45.9784 109.305 45.6411 110.388 45.6411ZM124.499 55.8664C124.499 56.4167 124.569 56.7807 124.712 56.9582C124.853 57.1357 125.138 57.2245 125.564 57.2245V59.8607C125.031 60.0028 124.499 60.0737 123.966 60.0737C123.167 60.0737 122.528 59.9229 122.049 59.621C121.587 59.3192 121.267 58.9198 121.09 58.4228C120.291 59.5944 119.004 60.1802 117.229 60.1802C115.755 60.1802 114.574 59.7985 113.687 59.0352C112.817 58.2541 112.382 57.1978 112.382 55.8664C112.382 54.4462 112.888 53.3278 113.9 52.5112C114.93 51.6947 116.332 51.2863 118.108 51.2863C119.101 51.2863 119.989 51.4106 120.771 51.6591V50.9668C120.771 50.2212 120.539 49.6443 120.078 49.2359C119.634 48.8276 118.96 48.6235 118.054 48.6235C117.256 48.6235 116.537 48.7655 115.898 49.0495C115.276 49.3335 114.787 49.6531 114.433 50.0082L112.941 47.4785C113.492 46.9103 114.246 46.44 115.205 46.0672C116.181 45.6766 117.273 45.4813 118.481 45.4813C120.379 45.4813 121.853 45.9163 122.901 46.7861C123.966 47.6559 124.499 48.9164 124.499 50.5674V55.8664ZM118.268 57.5174C119.048 57.5174 119.66 57.2867 120.105 56.825C120.548 56.3634 120.771 55.7156 120.771 54.8812V54.0291C120.238 53.8337 119.59 53.7361 118.827 53.7361C117.975 53.7361 117.317 53.9136 116.856 54.2687C116.412 54.606 116.19 55.0853 116.19 55.7067C116.19 56.2569 116.377 56.7008 116.75 57.0381C117.14 57.3576 117.646 57.5174 118.268 57.5174ZM140.9 40.342V59.9139H137.279V57.9701C136.32 59.4968 134.89 60.2601 132.992 60.2601C131.837 60.2601 130.808 59.9938 129.903 59.4613C128.997 58.911 128.278 58.0855 127.746 56.9848C127.231 55.8841 126.974 54.5173 126.974 52.884C126.974 51.2508 127.231 49.8839 127.746 48.7833C128.278 47.6826 128.997 46.866 129.903 46.3334C130.808 45.7832 131.837 45.508 132.992 45.508C134.767 45.508 136.142 46.1914 137.119 47.5584V40.342H140.9ZM133.95 57.1446C134.944 57.1446 135.716 56.7895 136.267 56.0795C136.834 55.3694 137.119 54.3043 137.119 52.884C137.119 51.4817 136.834 50.4253 136.267 49.7153C135.716 49.0052 134.944 48.6501 133.95 48.6501C132.956 48.6501 132.184 49.0052 131.634 49.7153C131.082 50.4076 130.808 51.4638 130.808 52.884C130.808 54.322 131.082 55.396 131.634 56.1061C132.184 56.7984 132.956 57.1446 133.95 57.1446ZM155.742 58.1298C154.481 59.5501 152.67 60.2601 150.31 60.2601C148.161 60.2601 146.422 59.6477 145.09 58.4228C143.776 57.1801 143.12 55.3605 143.12 52.9639C143.12 51.313 143.43 49.9283 144.052 48.8099C144.691 47.6915 145.534 46.866 146.582 46.3334C147.628 45.7832 148.8 45.508 150.097 45.508C151.765 45.508 153.096 45.9251 154.091 46.7595C155.103 47.5761 155.609 48.6767 155.609 50.0614C155.609 51.5171 155.049 52.6267 153.931 53.39C152.813 54.1356 151.223 54.5084 149.164 54.5084C148.366 54.5084 147.593 54.4551 146.848 54.3486C147.309 56.2126 148.56 57.1446 150.602 57.1446C151.951 57.1446 153.113 56.6919 154.091 55.7865L155.742 58.1298ZM149.963 48.4371C149.093 48.4371 148.366 48.73 147.78 49.3158C147.211 49.8839 146.865 50.7271 146.741 51.8455C147.557 51.9165 148.179 51.952 148.605 51.952C149.812 51.952 150.69 51.8012 151.242 51.4994C151.791 51.1798 152.067 50.7094 152.067 50.088C152.067 49.5555 151.871 49.1471 151.481 48.8631C151.108 48.5792 150.602 48.4371 149.963 48.4371ZM162.358 60.2867C161.133 60.2867 160.041 60.1181 159.082 59.7808C158.141 59.4257 157.359 58.9553 156.739 58.3695L158.39 55.8398C158.816 56.2481 159.349 56.6031 159.988 56.9049C160.644 57.1889 161.372 57.331 162.171 57.331C163.556 57.331 164.248 56.8606 164.248 55.9197C164.248 55.5113 164.07 55.2007 163.716 54.9877C163.377 54.7747 162.748 54.5173 161.825 54.2155C160.138 53.7006 158.94 53.1237 158.23 52.4846C157.519 51.8455 157.165 50.9579 157.165 49.8218C157.165 49.0585 157.369 48.3483 157.777 47.6915C158.204 47.0169 158.833 46.4843 159.668 46.0938C160.52 45.6854 161.559 45.4813 162.784 45.4813C163.83 45.4813 164.771 45.6234 165.606 45.9074C166.458 46.1914 167.141 46.5731 167.657 47.0524L166.192 49.5289C165.287 48.801 164.176 48.4371 162.863 48.4371C162.278 48.4371 161.816 48.5613 161.479 48.8099C161.141 49.0406 160.973 49.3514 160.973 49.7419C160.973 50.1147 161.15 50.4076 161.505 50.6206C161.878 50.8336 162.544 51.091 163.503 51.3928C165.135 51.8899 166.289 52.4846 166.964 53.1769C167.638 53.8693 167.976 54.748 167.976 55.8132C167.976 57.1801 167.478 58.2719 166.485 59.0885C165.49 59.8873 164.115 60.2867 162.358 60.2867Z" fill="#21252A"/>
<path fill-rule="evenodd" clip-rule="evenodd" d="M1078.45 50.594C1078.45 43.2408 1084.41 37.2798 1091.77 37.2798C1099.12 37.2798 1105.08 43.2408 1105.08 50.594C1105.08 57.9472 1099.12 63.9082 1091.77 63.9082C1084.41 63.9082 1078.45 57.9472 1078.45 50.594ZM1102.12 50.594C1102.12 44.8749 1097.49 40.2385 1091.77 40.2385C1086.05 40.2385 1081.41 44.8749 1081.41 50.594C1081.41 56.3131 1086.05 60.9495 1091.77 60.9495C1097.49 60.9495 1102.12 56.3131 1102.12 50.594ZM1086.93 46.5526C1087.74 44.239 1090.1 42.8497 1092.52 43.2643C1094.94 43.679 1096.7 45.7767 1096.7 48.227C1096.7 49.8613 1095.75 51.135 1094.27 52.1208C1093.47 52.6499 1092.7 52.995 1092.14 53.181C1091.36 53.4393 1090.53 53.0204 1090.27 52.2454C1090.01 51.4702 1090.43 50.6324 1091.2 50.3741C1091.53 50.2641 1092.09 50.0175 1092.63 49.6589C1093.37 49.1655 1093.74 48.6638 1093.74 48.2249C1093.74 47.215 1093.02 46.3512 1092.02 46.1805C1091.1 46.0219 1090.19 46.5039 1089.8 47.3363L1089.72 47.5344C1089.45 48.3052 1088.6 48.7102 1087.83 48.4391C1087.06 48.1679 1086.66 47.3234 1086.93 46.5526ZM1093.26 56.5114C1093.26 55.6944 1092.6 55.032 1091.78 55.032L1091.58 55.0436C1090.85 55.135 1090.29 55.7573 1090.29 56.5114C1090.29 57.3285 1090.95 57.9909 1091.78 57.9909L1091.96 57.9793C1092.69 57.8879 1093.26 57.2656 1093.26 56.5114Z" fill="#21252A"/>
<path d="M288.919 83.2139H57.2511C55.4128 83.2139 53.9226 84.7041 53.9226 86.5424V126.485C53.9226 128.323 55.4128 129.814 57.2511 129.814H288.919C290.757 129.814 292.247 128.323 292.247 126.485V86.5424C292.247 84.7041 290.757 83.2139 288.919 83.2139Z" fill="url(#paint0_linear_103_772)"/>
<path d="M77.2065 100.03V113.171H75.6967L71.7077 107.001C70.3656 104.951 69.3342 103.317 68.6135 102.099V113.171H67.0105V100.03H68.9304L72.4533 105.454C73.8203 107.579 74.8641 109.238 75.5848 110.431V100.03H77.2065ZM81.3689 108.641C81.4186 109.76 81.7231 110.605 82.2823 111.176C82.8415 111.736 83.5871 112.015 84.5191 112.015C85.5504 112.015 86.4203 111.661 87.1286 110.953L87.9488 111.978C87.5387 112.451 87.0229 112.805 86.4017 113.04C85.7927 113.276 85.1279 113.395 84.4072 113.395C83.0279 113.395 81.9095 112.966 81.052 112.108C80.207 111.251 79.7845 109.983 79.7845 108.306C79.7845 107.175 79.977 106.23 80.3624 105.473C80.7475 104.715 81.2632 104.149 81.9095 103.776C82.568 103.404 83.3075 103.217 84.1276 103.217C85.3453 103.217 86.3209 103.602 87.0541 104.373C87.7872 105.144 88.1538 106.206 88.1538 107.56C88.1538 107.996 88.1289 108.355 88.0793 108.641H81.3689ZM84.0903 104.541C83.3571 104.541 82.7544 104.79 82.2823 105.286C81.81 105.771 81.518 106.491 81.4062 107.448H86.644C86.5695 105.51 85.7181 104.541 84.0903 104.541ZM97.504 113.171H95.7519L93.2541 109.126L90.7191 113.171H89.0601L92.2662 108.138L89.2465 103.422H90.9987L93.31 107.094L95.6214 103.422H97.299L94.298 108.064L97.504 113.171ZM102.742 113.301C101.773 113.301 101.071 113.071 100.636 112.612C100.201 112.139 99.9831 111.463 99.9831 110.58V104.69H98.3615V103.422H99.9831V100.813H101.586V103.422H103.916V104.69H101.586V110.207C101.586 110.804 101.698 111.244 101.922 111.531C102.158 111.803 102.574 111.941 103.171 111.941C103.432 111.941 103.68 111.91 103.916 111.847V113.115C103.643 113.239 103.251 113.301 102.742 113.301ZM120.649 103.217C121.632 103.217 122.415 103.528 122.998 104.149C123.595 104.758 123.893 105.596 123.893 106.666V113.171H122.29V106.926C122.29 106.23 122.122 105.671 121.786 105.249C121.451 104.814 120.936 104.596 120.239 104.596C119.556 104.596 119.009 104.82 118.599 105.268C118.189 105.715 117.984 106.281 117.984 106.964V113.171H116.381V106.926C116.381 106.23 116.213 105.671 115.878 105.249C115.542 104.814 115.027 104.596 114.331 104.596C113.647 104.596 113.101 104.82 112.69 105.268C112.28 105.715 112.075 106.281 112.075 106.964V113.171H110.472V103.422H112.001V104.802C112.2 104.354 112.523 103.981 112.97 103.683C113.417 103.373 114.008 103.217 114.741 103.217C115.412 103.217 115.996 103.366 116.493 103.664C117.003 103.963 117.382 104.391 117.63 104.951C117.891 104.441 118.27 104.025 118.767 103.702C119.277 103.379 119.904 103.217 120.649 103.217ZM130.53 113.395C129.212 113.395 128.144 112.966 127.324 112.108C126.504 111.251 126.094 109.983 126.094 108.306C126.094 106.628 126.504 105.361 127.324 104.503C128.144 103.646 129.212 103.217 130.53 103.217C131.387 103.217 132.145 103.404 132.804 103.776C133.475 104.149 134.002 104.715 134.388 105.473C134.773 106.23 134.966 107.175 134.966 108.306C134.966 109.436 134.773 110.382 134.388 111.139C134.002 111.897 133.475 112.463 132.804 112.835C132.145 113.208 131.387 113.395 130.53 113.395ZM130.53 112.034C131.399 112.034 132.082 111.724 132.58 111.102C133.077 110.468 133.326 109.536 133.326 108.306C133.326 107.076 133.077 106.15 132.58 105.528C132.082 104.895 131.399 104.578 130.53 104.578C129.659 104.578 128.976 104.895 128.48 105.528C127.982 106.15 127.734 107.076 127.734 108.306C127.734 109.536 127.982 110.468 128.48 111.102C128.976 111.724 129.659 112.034 130.53 112.034ZM141.667 103.217C142.723 103.217 143.569 103.534 144.202 104.168C144.836 104.79 145.153 105.64 145.153 106.721V113.171H143.55V107.001C143.55 106.281 143.37 105.696 143.009 105.249C142.649 104.802 142.089 104.578 141.332 104.578C140.561 104.578 139.952 104.814 139.505 105.286C139.058 105.746 138.834 106.318 138.834 107.001V113.171H137.231V103.422H138.759V104.839C138.958 104.403 139.3 104.025 139.785 103.702C140.281 103.379 140.91 103.217 141.667 103.217ZM151.052 113.301C150.083 113.301 149.382 113.071 148.946 112.612C148.512 112.139 148.294 111.463 148.294 110.58V104.69H146.672V103.422H148.294V100.813H149.897V103.422H152.227V104.69H149.897V110.207C149.897 110.804 150.009 111.244 150.232 111.531C150.469 111.803 150.885 111.941 151.481 111.941C151.742 111.941 151.991 111.91 152.227 111.847V113.115C151.954 113.239 151.562 113.301 151.052 113.301ZM158.651 103.217C159.707 103.217 160.546 103.534 161.167 104.168C161.801 104.79 162.118 105.64 162.118 106.721V113.171H160.515V107.001C160.515 106.281 160.335 105.696 159.974 105.249C159.627 104.802 159.073 104.578 158.315 104.578C157.545 104.578 156.936 104.814 156.489 105.286C156.041 105.746 155.818 106.318 155.818 107.001V113.171H154.196V99.4705H155.818V104.708C156.053 104.298 156.407 103.951 156.88 103.664C157.353 103.366 157.943 103.217 158.651 103.217Z" fill="#21252A"/>
<path fill-rule="evenodd" clip-rule="evenodd" d="M273.489 103.51C273.921 103.077 274.624 103.077 275.057 103.51C275.455 103.907 275.487 104.531 275.157 104.965L275.057 105.08L269.731 110.405C269.335 110.802 268.712 110.836 268.276 110.504L268.163 110.405L262.837 105.08C262.403 104.646 262.403 103.944 262.837 103.51C263.234 103.113 263.857 103.08 264.293 103.411L264.406 103.51L268.947 108.05L273.489 103.51Z" fill="#21252A"/>
<path d="M288.919 83.2139H57.2511C55.4128 83.2139 53.9226 84.7041 53.9226 86.5424V126.485C53.9226 128.323 55.4128 129.814 57.2511 129.814H288.919C290.757 129.814 292.247 128.323 292.247 126.485V86.5424C292.247 84.7041 290.757 83.2139 288.919 83.2139Z" stroke="#CED4D9" stroke-width="1.33095"/>
</g>
<path d="M53.2568 709.648C53.2568 707.442 55.0451 705.654 57.2511 705.654H163.765V753.585H57.2511C55.0451 753.585 53.2568 751.797 53.2568 749.591V709.648Z" fill="#E5F1FF"/>
<path fill-rule="evenodd" clip-rule="evenodd" d="M91.7223 723.469C91.7525 723.496 91.7811 723.525 91.8083 723.556C91.8858 723.643 91.9474 723.738 91.9928 723.84C92.0552 723.978 92.0898 724.133 92.0898 724.294V729.619C92.0898 730.233 91.593 730.73 90.9802 730.73C90.3674 730.73 89.8707 730.233 89.8707 729.619V726.972L83.3323 733.511C82.8991 733.944 82.1966 733.944 81.7633 733.511L78.1097 729.858L72.2372 735.731C71.8039 736.163 71.1014 736.163 70.6681 735.731C70.2349 735.297 70.2349 734.595 70.6681 734.161L77.3252 727.504C77.7585 727.071 78.4611 727.071 78.8943 727.504L82.5479 731.157L88.3016 725.404H85.6545C85.0417 725.404 84.545 724.907 84.545 724.294C84.545 723.681 85.0417 723.185 85.6545 723.185H90.9802C91.2655 723.185 91.5258 723.292 91.7223 723.469Z" fill="#0000A0"/>
<path d="M109.207 734.673C108.735 735.258 108.12 735.717 107.362 736.053C106.604 736.376 105.772 736.537 104.864 736.537C103.622 736.537 102.534 736.283 101.602 735.773C100.67 735.251 99.9497 734.48 99.4402 733.462C98.9308 732.43 98.6759 731.181 98.6759 729.715C98.6759 728.249 98.9308 727.006 99.4402 725.987C99.9621 724.955 100.689 724.186 101.621 723.676C102.553 723.154 103.64 722.893 104.883 722.893C105.728 722.893 106.505 723.023 107.213 723.284C107.934 723.533 108.536 723.893 109.021 724.365L107.754 725.987C106.983 725.267 106.045 724.906 104.939 724.906C103.597 724.906 102.609 725.365 101.975 726.285C101.354 727.192 101.043 728.336 101.043 729.715C101.043 731.094 101.354 732.243 101.975 733.163C102.609 734.07 103.591 734.524 104.92 734.524C105.567 734.524 106.12 734.412 106.579 734.189C107.039 733.953 107.455 733.636 107.828 733.238L109.207 734.673ZM116.351 726.248C117.433 726.248 118.283 726.565 118.905 727.199C119.539 727.82 119.856 728.671 119.856 729.752V736.276H117.656V730.218C117.656 729.573 117.494 729.056 117.172 728.671C116.86 728.287 116.375 728.093 115.718 728.093C115.047 728.093 114.518 728.292 114.133 728.69C113.748 729.088 113.555 729.597 113.555 730.218V736.276H111.356V722.576H113.555V727.721C113.791 727.311 114.139 726.963 114.599 726.677C115.059 726.391 115.643 726.248 116.351 726.248ZM130.465 733.723C130.465 734.121 130.52 734.382 130.632 734.506C130.744 734.629 130.955 734.692 131.266 734.692V736.239C130.968 736.339 130.651 736.388 130.315 736.388C129.78 736.388 129.365 736.276 129.067 736.053C128.768 735.817 128.563 735.519 128.451 735.158C128.19 735.568 127.823 735.892 127.352 736.127C126.879 736.351 126.313 736.463 125.655 736.463C124.649 736.463 123.834 736.195 123.214 735.661C122.604 735.114 122.3 734.387 122.3 733.48C122.3 732.511 122.648 731.74 123.344 731.169C124.052 730.598 125.034 730.312 126.289 730.312C127.035 730.312 127.699 730.417 128.284 730.628V729.92C128.284 729.336 128.109 728.883 127.762 728.559C127.413 728.236 126.904 728.075 126.233 728.075C125.649 728.075 125.127 728.18 124.668 728.392C124.207 728.59 123.829 728.827 123.531 729.1L122.636 727.609C123.009 727.224 123.524 726.901 124.183 726.64C124.854 726.367 125.605 726.229 126.438 726.229C127.706 726.229 128.694 726.528 129.402 727.124C130.11 727.709 130.465 728.559 130.465 729.678V733.723ZM126.215 734.841C126.835 734.841 127.333 734.661 127.706 734.301C128.091 733.928 128.284 733.412 128.284 732.753V732.082C127.86 731.896 127.314 731.803 126.643 731.803C125.959 731.803 125.432 731.945 125.059 732.231C124.698 732.518 124.518 732.909 124.518 733.406C124.518 733.841 124.673 734.189 124.984 734.45C125.295 734.711 125.705 734.841 126.215 734.841ZM138.444 726.341C138.928 726.341 139.295 726.404 139.544 726.528L139.078 728.709C138.805 728.634 138.512 728.597 138.201 728.597C137.468 728.597 136.885 728.87 136.449 729.417C136.027 729.951 135.816 730.747 135.816 731.803V736.276H133.616V726.472H135.704V728.653C135.853 728.031 136.151 727.49 136.598 727.031C137.046 726.572 137.661 726.341 138.444 726.341ZM145.315 736.425C144.259 736.425 143.482 736.176 142.985 735.68C142.501 735.183 142.258 734.45 142.258 733.48V728.187H140.693V726.472H142.258V723.844H144.458V726.472H146.62V728.187H144.458V733.033C144.458 733.567 144.563 733.958 144.775 734.207C144.998 734.456 145.378 734.58 145.912 734.58C146.147 734.58 146.384 734.555 146.62 734.506V736.202C146.297 736.351 145.862 736.425 145.315 736.425Z" fill="#0000A0"/>
<path d="M163.765 705.654H165.096V704.322H163.765V705.654ZM163.765 753.585V754.916H165.096V753.585H163.765ZM57.251 706.985H163.765V704.322H57.251V706.985ZM162.433 705.654V753.585H165.096V705.654H162.433ZM163.765 752.253H57.251V754.916H163.765V752.253ZM54.5881 749.591V709.648H51.9253V749.591H54.5881ZM57.251 752.253C55.7803 752.253 54.5881 751.062 54.5881 749.591H51.9253C51.9253 752.532 54.3097 754.916 57.251 754.916V752.253ZM57.251 704.322C54.3097 704.322 51.9253 706.707 51.9253 709.648H54.5881C54.5881 708.177 55.7803 706.985 57.251 706.985V704.322Z" fill="#8DB7F4"/>
<path d="M163.765 705.654H252.97C255.176 705.654 256.964 707.442 256.964 709.648V749.591C256.964 751.797 255.176 753.585 252.97 753.585H163.765V705.654Z" fill="#CED4D9"/>
<path d="M163.765 706.985H252.97C254.441 706.985 255.633 708.177 255.633 709.648V749.591C255.633 751.062 254.441 752.254 252.97 752.254H163.765V706.985Z" fill="white"/>
<path fill-rule="evenodd" clip-rule="evenodd" d="M184.855 724.294C184.855 723.681 184.358 723.185 183.746 723.185L183.596 723.192C183.051 723.26 182.627 723.728 182.627 724.294C182.627 724.906 183.124 725.403 183.746 725.403L183.884 725.395C184.431 725.326 184.855 724.859 184.855 724.294ZM200.822 724.294C200.822 723.681 200.326 723.185 199.713 723.185H188.174L188.035 723.192C187.488 723.26 187.065 723.728 187.065 724.294C187.065 724.906 187.561 725.403 188.174 725.403H199.713L199.853 725.395C200.399 725.326 200.822 724.859 200.822 724.294ZM200.822 729.619C200.822 729.007 200.326 728.51 199.713 728.51H188.174L188.035 728.518C187.488 728.586 187.065 729.053 187.065 729.619C187.065 730.232 187.561 730.728 188.174 730.728H199.713L199.853 730.72C200.399 730.651 200.822 730.185 200.822 729.619ZM199.713 733.836C200.326 733.836 200.822 734.333 200.822 734.945C200.822 735.511 200.399 735.977 199.853 736.046L199.713 736.054H188.174C187.561 736.054 187.065 735.557 187.065 734.945C187.065 734.379 187.488 733.912 188.035 733.844L188.174 733.836H199.713ZM183.746 728.51C184.358 728.51 184.855 729.007 184.855 729.619C184.855 730.185 184.431 730.651 183.884 730.72L183.746 730.728C183.124 730.728 182.627 730.232 182.627 729.619C182.627 729.053 183.051 728.586 183.596 728.518L183.746 728.51ZM184.855 734.945C184.855 734.333 184.358 733.836 183.746 733.836L183.596 733.844C183.051 733.912 182.627 734.379 182.627 734.945C182.627 735.557 183.124 736.054 183.746 736.054L183.884 736.046C184.431 735.977 184.855 735.511 184.855 734.945Z" fill="#6F7780"/>
<path d="M211.648 734.282H217.613V736.276H209.318V723.135H211.648V734.282ZM219.888 736.276V726.472H222.088V736.276H219.888ZM220.988 724.776C220.603 724.776 220.28 724.664 220.019 724.44C219.77 724.204 219.646 723.899 219.646 723.527C219.646 723.154 219.77 722.849 220.019 722.613C220.28 722.378 220.603 722.259 220.988 722.259C221.373 722.259 221.69 722.378 221.939 722.613C222.2 722.849 222.33 723.154 222.33 723.527C222.33 723.899 222.2 724.204 221.939 724.44C221.69 724.664 221.373 724.776 220.988 724.776ZM228.037 736.537C227.217 736.537 226.49 736.419 225.856 736.183C225.222 735.934 224.7 735.612 224.29 735.214L225.278 733.723C225.588 734.021 225.974 734.275 226.434 734.487C226.893 734.685 227.403 734.785 227.962 734.785C228.472 734.785 228.875 734.685 229.174 734.487C229.484 734.289 229.64 733.977 229.64 733.555C229.64 733.207 229.497 732.94 229.211 732.753C228.925 732.567 228.44 732.362 227.757 732.138C226.651 731.803 225.844 731.418 225.334 730.983C224.824 730.535 224.57 729.92 224.57 729.137C224.57 728.615 224.707 728.137 224.98 727.702C225.266 727.255 225.688 726.9 226.247 726.64C226.818 726.367 227.515 726.229 228.335 726.229C229.018 726.229 229.646 726.329 230.218 726.528C230.789 726.714 231.249 726.963 231.597 727.273L230.684 728.746C230.05 728.236 229.274 727.982 228.354 727.982C227.857 727.982 227.466 728.087 227.179 728.298C226.906 728.497 226.769 728.764 226.769 729.1C226.769 729.423 226.912 729.678 227.198 729.864C227.484 730.039 227.993 730.237 228.726 730.461C229.807 730.808 230.59 731.213 231.075 731.672C231.56 732.132 231.802 732.735 231.802 733.48C231.802 734.4 231.466 735.139 230.795 735.698C230.124 736.258 229.204 736.537 228.037 736.537ZM237.757 736.425C236.702 736.425 235.924 736.176 235.427 735.68C234.943 735.183 234.7 734.45 234.7 733.48V728.187H233.135V726.472H234.7V723.843H236.9V726.472H239.062V728.187H236.9V733.033C236.9 733.567 237.005 733.958 237.217 734.207C237.441 734.456 237.82 734.58 238.354 734.58C238.59 734.58 238.827 734.555 239.062 734.506V736.202C238.739 736.351 238.305 736.425 237.757 736.425Z" fill="#4B545C"/>
<path d="M1023.86 481.975H54.5884V483.306H1023.86V481.975Z" fill="#21252A"/>
<path d="M53.2568 283.593H1022.53" stroke="#CED4D9" stroke-width="1.33095" stroke-dasharray="2.66 2.66"/>
<path d="M1051.85 286.031V286.917H1050.77V288.919H1049.74V286.917H1045.79V286.043L1049.38 280.471H1050.77V286.031H1051.85ZM1046.74 286.031H1049.74V281.393L1046.74 286.031ZM1055.8 289.062C1054.87 289.062 1054.15 288.691 1053.64 287.948C1053.14 287.205 1052.89 286.123 1052.89 284.701C1052.89 283.279 1053.14 282.196 1053.64 281.453C1054.15 280.71 1054.87 280.339 1055.8 280.339C1056.74 280.339 1057.46 280.71 1057.96 281.453C1058.46 282.196 1058.71 283.279 1058.71 284.701C1058.71 286.123 1058.46 287.205 1057.96 287.948C1057.46 288.691 1056.74 289.062 1055.8 289.062ZM1055.8 288.188C1057.03 288.188 1057.65 287.025 1057.65 284.701C1057.65 282.376 1057.03 281.214 1055.8 281.214C1054.57 281.214 1053.96 282.376 1053.96 284.701C1053.96 287.025 1054.57 288.188 1055.8 288.188ZM1062.8 289.062C1061.86 289.062 1061.15 288.691 1060.64 287.948C1060.14 287.205 1059.89 286.123 1059.89 284.701C1059.89 283.279 1060.14 282.196 1060.64 281.453C1061.15 280.71 1061.86 280.339 1062.8 280.339C1063.73 280.339 1064.45 280.71 1064.96 281.453C1065.46 282.196 1065.71 283.279 1065.71 284.701C1065.71 286.123 1065.46 287.205 1064.96 287.948C1064.45 288.691 1063.73 289.062 1062.8 289.062ZM1062.8 288.188C1064.03 288.188 1064.64 287.025 1064.64 284.701C1064.64 282.376 1064.03 281.214 1062.8 281.214C1061.57 281.214 1060.95 282.376 1060.95 284.701C1060.95 287.025 1061.57 288.188 1062.8 288.188ZM1071.37 288.919L1069.37 285.791L1068.28 286.882V288.919H1067.25V280.111H1068.28V285.719L1071.14 282.652H1072.31L1070.06 285.072L1072.51 288.919H1071.37ZM1079.44 280.471C1080.21 280.471 1080.89 280.634 1081.46 280.962C1082.04 281.282 1082.48 281.757 1082.8 282.388C1083.12 283.019 1083.28 283.79 1083.28 284.701C1083.28 285.603 1083.12 286.37 1082.8 287.001C1082.48 287.632 1082.04 288.112 1081.46 288.439C1080.89 288.759 1080.21 288.919 1079.44 288.919H1076.7V280.471H1079.44ZM1079.44 287.984C1080.38 287.984 1081.07 287.672 1081.51 287.049C1081.96 286.426 1082.18 285.643 1082.18 284.701C1082.18 283.758 1081.96 282.975 1081.51 282.352C1081.07 281.721 1080.38 281.405 1079.44 281.405H1077.77V287.984H1079.44ZM1090.39 288.919L1087.84 284.689L1086.14 286.594V288.919H1085.05V280.471H1086.14V285.24L1090.27 280.471H1091.53L1088.58 283.85L1091.63 288.919H1090.39ZM1098.32 288.919L1095.76 284.689L1094.06 286.594V288.919H1092.97V280.471H1094.06V285.24L1098.2 280.471H1099.45L1096.51 283.85L1099.55 288.919H1098.32Z" fill="#4B545C"/>
<path d="M53.2568 383.45H1022.53" stroke="#CED4D9" stroke-width="1.33095" stroke-dasharray="2.66 2.66"/>
<path d="M1051.42 388.542V389.441H1046.14V388.674C1048.8 386.557 1050.12 384.748 1050.12 383.246C1050.12 382.782 1049.98 382.415 1049.69 382.143C1049.4 381.872 1049 381.736 1048.48 381.736C1048.08 381.736 1047.72 381.816 1047.39 381.976C1047.07 382.135 1046.8 382.331 1046.58 382.563L1046.05 381.868C1046.3 381.58 1046.64 381.337 1047.07 381.137C1047.5 380.937 1047.99 380.837 1048.55 380.837C1049.39 380.837 1050.04 381.053 1050.49 381.484C1050.95 381.916 1051.18 382.483 1051.18 383.186C1051.18 384.177 1050.79 385.147 1050.03 386.098C1049.27 387.04 1048.42 387.855 1047.49 388.542H1051.42ZM1055.8 389.585C1054.87 389.585 1054.15 389.213 1053.65 388.47C1053.14 387.727 1052.89 386.645 1052.89 385.223C1052.89 383.801 1053.14 382.719 1053.65 381.976C1054.15 381.233 1054.87 380.861 1055.8 380.861C1056.74 380.861 1057.46 381.233 1057.96 381.976C1058.46 382.719 1058.71 383.801 1058.71 385.223C1058.71 386.645 1058.46 387.727 1057.96 388.47C1057.46 389.213 1056.74 389.585 1055.8 389.585ZM1055.8 388.71C1057.03 388.71 1057.65 387.548 1057.65 385.223C1057.65 382.898 1057.03 381.736 1055.8 381.736C1054.57 381.736 1053.96 382.898 1053.96 385.223C1053.96 387.548 1054.57 388.71 1055.8 388.71ZM1062.8 389.585C1061.87 389.585 1061.15 389.213 1060.64 388.47C1060.14 387.727 1059.89 386.645 1059.89 385.223C1059.89 383.801 1060.14 382.719 1060.64 381.976C1061.15 381.233 1061.87 380.861 1062.8 380.861C1063.73 380.861 1064.45 381.233 1064.96 381.976C1065.46 382.719 1065.71 383.801 1065.71 385.223C1065.71 386.645 1065.46 387.727 1064.96 388.47C1064.45 389.213 1063.73 389.585 1062.8 389.585ZM1062.8 388.71C1064.03 388.71 1064.65 387.548 1064.65 385.223C1064.65 382.898 1064.03 381.736 1062.8 381.736C1061.57 381.736 1060.95 382.898 1060.95 385.223C1060.95 387.548 1061.57 388.71 1062.8 388.71ZM1071.37 389.441L1069.37 386.313L1068.28 387.404V389.441H1067.25V380.634H1068.28V386.242L1071.14 383.174H1072.31L1070.06 385.594L1072.51 389.441H1071.37ZM1079.44 380.993C1080.21 380.993 1080.89 381.157 1081.46 381.484C1082.04 381.804 1082.49 382.279 1082.8 382.91C1083.12 383.541 1083.28 384.312 1083.28 385.223C1083.28 386.126 1083.12 386.893 1082.8 387.524C1082.49 388.155 1082.04 388.634 1081.46 388.962C1080.89 389.281 1080.21 389.441 1079.44 389.441H1076.71V380.993H1079.44ZM1079.44 388.506C1080.38 388.506 1081.07 388.195 1081.51 387.572C1081.96 386.949 1082.18 386.166 1082.18 385.223C1082.18 384.28 1081.96 383.497 1081.51 382.874C1081.07 382.243 1080.38 381.928 1079.44 381.928H1077.77V388.506H1079.44ZM1090.39 389.441L1087.84 385.211L1086.14 387.116V389.441H1085.05V380.993H1086.14V385.762L1090.27 380.993H1091.53L1088.58 384.372L1091.63 389.441H1090.39ZM1098.32 389.441L1095.76 385.211L1094.06 387.116V389.441H1092.97V380.993H1094.06V385.762L1098.2 380.993H1099.45L1096.51 384.372L1099.55 389.441H1098.32Z" fill="#4B545C"/>
<path d="M1069.12 484.782C1068.18 484.782 1067.46 484.41 1066.96 483.667C1066.46 482.924 1066.21 481.842 1066.21 480.42C1066.21 478.998 1066.46 477.915 1066.96 477.172C1067.46 476.43 1068.18 476.058 1069.12 476.058C1070.05 476.058 1070.77 476.43 1071.28 477.172C1071.78 477.915 1072.03 478.998 1072.03 480.42C1072.03 481.842 1071.78 482.924 1071.28 483.667C1070.77 484.41 1070.05 484.782 1069.12 484.782ZM1069.12 483.907C1070.35 483.907 1070.96 482.744 1070.96 480.42C1070.96 478.095 1070.35 476.933 1069.12 476.933C1067.89 476.933 1067.27 478.095 1067.27 480.42C1067.27 482.744 1067.89 483.907 1069.12 483.907ZM1079.44 476.19C1080.21 476.19 1080.89 476.354 1081.46 476.681C1082.04 477.001 1082.48 477.476 1082.8 478.107C1083.12 478.738 1083.28 479.509 1083.28 480.42C1083.28 481.322 1083.12 482.089 1082.8 482.72C1082.48 483.352 1082.04 483.831 1081.46 484.158C1080.89 484.478 1080.21 484.638 1079.44 484.638H1076.7V476.19H1079.44ZM1079.44 483.703C1080.38 483.703 1081.07 483.392 1081.51 482.768C1081.96 482.145 1082.18 481.362 1082.18 480.42C1082.18 479.477 1081.96 478.694 1081.51 478.071C1081.07 477.44 1080.38 477.124 1079.44 477.124H1077.77V483.703H1079.44ZM1090.39 484.638L1087.84 480.408L1086.14 482.313V484.638H1085.05V476.19H1086.14V480.959L1090.27 476.19H1091.53L1088.58 479.569L1091.63 484.638H1090.39ZM1098.32 484.638L1095.76 480.408L1094.06 482.313V484.638H1092.97V476.19H1094.06V480.959L1098.2 476.19H1099.45L1096.51 479.569L1099.55 484.638H1098.32Z" fill="#4B545C"/>
<path d="M53.2568 583.163H1022.53" stroke="#CED4D9" stroke-width="1.33095" stroke-dasharray="2.66 2.66"/>
<path d="M1041.33 585.133V584.211H1044.84V585.133H1041.33ZM1051.42 587.59V588.489H1046.14V587.722C1048.8 585.605 1050.12 583.795 1050.12 582.293C1050.12 581.83 1049.98 581.463 1049.69 581.191C1049.4 580.919 1049 580.784 1048.48 580.784C1048.08 580.784 1047.72 580.863 1047.39 581.023C1047.07 581.183 1046.8 581.379 1046.58 581.61L1046.05 580.915C1046.3 580.628 1046.64 580.384 1047.07 580.184C1047.5 579.985 1047.99 579.885 1048.55 579.885C1049.39 579.885 1050.04 580.101 1050.49 580.532C1050.95 580.963 1051.18 581.531 1051.18 582.234C1051.18 583.224 1050.79 584.195 1050.03 585.145C1049.27 586.088 1048.42 586.903 1047.49 587.59H1051.42ZM1055.8 588.632C1054.87 588.632 1054.15 588.261 1053.64 587.518C1053.14 586.775 1052.89 585.693 1052.89 584.271C1052.89 582.849 1053.14 581.766 1053.64 581.023C1054.15 580.28 1054.87 579.909 1055.8 579.909C1056.74 579.909 1057.46 580.28 1057.96 581.023C1058.46 581.766 1058.71 582.849 1058.71 584.271C1058.71 585.693 1058.46 586.775 1057.96 587.518C1057.46 588.261 1056.74 588.632 1055.8 588.632ZM1055.8 587.758C1057.03 587.758 1057.65 586.595 1057.65 584.271C1057.65 581.946 1057.03 580.784 1055.8 580.784C1054.57 580.784 1053.96 581.946 1053.96 584.271C1053.96 586.595 1054.57 587.758 1055.8 587.758ZM1062.8 588.632C1061.87 588.632 1061.15 588.261 1060.64 587.518C1060.14 586.775 1059.89 585.693 1059.89 584.271C1059.89 582.849 1060.14 581.766 1060.64 581.023C1061.15 580.28 1061.87 579.909 1062.8 579.909C1063.73 579.909 1064.45 580.28 1064.96 581.023C1065.46 581.766 1065.71 582.849 1065.71 584.271C1065.71 585.693 1065.46 586.775 1064.96 587.518C1064.45 588.261 1063.73 588.632 1062.8 588.632ZM1062.8 587.758C1064.03 587.758 1064.65 586.595 1064.65 584.271C1064.65 581.946 1064.03 580.784 1062.8 580.784C1061.57 580.784 1060.95 581.946 1060.95 584.271C1060.95 586.595 1061.57 587.758 1062.8 587.758ZM1071.37 588.489L1069.37 585.361L1068.28 586.451V588.489H1067.25V579.681H1068.28V585.289L1071.14 582.222H1072.31L1070.06 584.642L1072.51 588.489H1071.37ZM1079.44 580.041C1080.21 580.041 1080.89 580.204 1081.46 580.532C1082.04 580.851 1082.48 581.327 1082.8 581.958C1083.12 582.589 1083.28 583.36 1083.28 584.271C1083.28 585.173 1083.12 585.94 1082.8 586.571C1082.48 587.202 1082.04 587.682 1081.46 588.009C1080.89 588.329 1080.21 588.489 1079.44 588.489H1076.71V580.041H1079.44ZM1079.44 587.554C1080.38 587.554 1081.07 587.242 1081.51 586.619C1081.96 585.996 1082.18 585.213 1082.18 584.271C1082.18 583.328 1081.96 582.545 1081.51 581.922C1081.07 581.291 1080.38 580.975 1079.44 580.975H1077.77V587.554H1079.44ZM1090.39 588.489L1087.84 584.259L1086.14 586.164V588.489H1085.05V580.041H1086.14V584.81L1090.27 580.041H1091.53L1088.58 583.42L1091.63 588.489H1090.39ZM1098.32 588.489L1095.76 584.259L1094.06 586.164V588.489H1092.97V580.041H1094.06V584.81L1098.2 580.041H1099.45L1096.51 583.42L1099.55 588.489H1098.32Z" fill="#4B545C"/>
<path d="M1107.08 179.076H53.9226V633.091H1107.08V179.076Z" stroke="#CED4D9" stroke-width="1.33095" stroke-dasharray="2.66 2.66"/>
<path d="M469.326 675.697C472.635 675.697 475.318 673.014 475.318 669.705C475.318 666.396 472.635 663.714 469.326 663.714C466.017 663.714 463.335 666.396 463.335 669.705C463.335 673.014 466.017 675.697 469.326 675.697Z" fill="#3B6FEB"/>
<path d="M485.507 663.767C486.54 663.767 487.44 663.986 488.207 664.422C488.974 664.848 489.57 665.482 489.996 666.324C490.423 667.165 490.636 668.193 490.636 669.407C490.636 670.611 490.423 671.633 489.996 672.475C489.57 673.316 488.974 673.955 488.207 674.392C487.44 674.818 486.54 675.031 485.507 675.031H481.864V663.767H485.507ZM485.507 673.785C486.764 673.785 487.685 673.369 488.271 672.539C488.867 671.708 489.166 670.664 489.166 669.407C489.166 668.15 488.867 667.106 488.271 666.276C487.685 665.434 486.764 665.013 485.507 665.013H483.286V673.785H485.507ZM500.115 675.031L496.712 669.391L494.443 671.932V675.031H492.99V663.767H494.443V670.126L499.956 663.767H501.633L497.703 668.273L501.761 675.031H500.115ZM510.677 675.031L507.274 669.391L505.006 671.932V675.031H503.552V663.767H505.006V670.126L510.518 663.767H512.195L508.265 668.273L512.323 675.031H510.677Z" fill="#21252A"/>
<path d="M531.903 675.697C535.212 675.697 537.894 673.014 537.894 669.705C537.894 666.396 535.212 663.714 531.903 663.714C528.594 663.714 525.912 666.396 525.912 669.705C525.912 673.014 528.594 675.697 531.903 675.697Z" fill="#B299E3"/>
<path d="M545.11 673.785H550.973V675.031H543.688V663.767H550.797V665.013H545.11V668.672H550.286V669.918H545.11V673.785ZM557.72 675.239C556.399 675.239 555.36 674.909 554.604 674.248C553.858 673.577 553.486 672.576 553.486 671.245V663.767H554.94V671.229C554.94 672.145 555.185 672.837 555.674 673.306C556.175 673.764 556.857 673.993 557.72 673.993C558.582 673.993 559.259 673.764 559.749 673.306C560.249 672.837 560.5 672.145 560.5 671.229V663.767H561.953V671.245C561.953 672.576 561.575 673.577 560.819 674.248C560.063 674.909 559.03 675.239 557.72 675.239ZM568.693 670.589H566.408V675.031H564.954V663.767H569.045C569.748 663.767 570.381 663.9 570.946 664.167C571.521 664.433 571.974 664.822 572.304 665.333C572.634 665.844 572.799 666.462 572.799 667.186C572.799 668.049 572.565 668.763 572.096 669.327C571.628 669.881 571.004 670.254 570.227 670.446L573.167 675.031H571.537L568.693 670.589ZM566.408 669.375H568.757C569.567 669.375 570.195 669.194 570.642 668.832C571.1 668.459 571.329 667.911 571.329 667.186C571.329 666.473 571.106 665.929 570.658 665.557C570.222 665.173 569.609 664.982 568.821 664.982H566.408V669.375Z" fill="#21252A"/>
<path d="M593.149 675.697C596.457 675.697 599.14 673.014 599.14 669.705C599.14 666.396 596.457 663.714 593.149 663.714C589.84 663.714 587.157 666.396 587.157 669.705C587.157 673.014 589.84 675.697 593.149 675.697Z" fill="#FFCD33"/>
<path d="M614.088 663.767V675.031H612.794L609.375 669.743C608.224 667.985 607.34 666.584 606.722 665.541V675.031H605.348V663.767H606.994L610.014 668.416C611.185 670.238 612.08 671.66 612.698 672.682V663.767H614.088ZM621.411 675.239C620.42 675.239 619.552 675.02 618.806 674.584C618.061 674.136 617.48 673.476 617.065 672.603C616.65 671.718 616.442 670.653 616.442 669.407C616.442 668.161 616.65 667.101 617.065 666.228C617.48 665.344 618.061 664.683 618.806 664.247C619.552 663.799 620.42 663.575 621.411 663.575C622.401 663.575 623.264 663.799 623.999 664.247C624.745 664.683 625.325 665.344 625.74 666.228C626.156 667.101 626.364 668.161 626.364 669.407C626.364 670.653 626.156 671.718 625.74 672.603C625.325 673.476 624.745 674.136 623.999 674.584C623.264 675.02 622.401 675.239 621.411 675.239ZM621.411 673.992C622.604 673.992 623.482 673.556 624.047 672.682C624.611 671.809 624.894 670.717 624.894 669.407C624.894 668.097 624.611 667.005 624.047 666.132C623.482 665.258 622.604 664.822 621.411 664.822C620.207 664.822 619.323 665.258 618.758 666.132C618.194 667.005 617.912 668.097 617.912 669.407C617.912 670.717 618.194 671.809 618.758 672.682C619.323 673.556 620.207 673.992 621.411 673.992ZM635.831 675.031L632.428 669.391L630.159 671.931V675.031H628.706V663.767H630.159V670.126L635.672 663.767H637.349L633.419 668.273L637.477 675.031H635.831Z" fill="#21252A"/>
<path d="M657.057 675.697C660.366 675.697 663.048 673.014 663.048 669.705C663.048 666.396 660.366 663.714 657.057 663.714C653.748 663.714 651.065 666.396 651.065 669.705C651.065 673.014 653.748 675.697 657.057 675.697Z" fill="#FF474B"/>
<path d="M672.541 675.239C671.732 675.239 670.97 675.111 670.256 674.855C669.543 674.589 668.962 674.248 668.515 673.833L669.298 672.746C669.66 673.087 670.113 673.38 670.656 673.625C671.199 673.87 671.822 673.992 672.525 673.992C673.271 673.992 673.873 673.827 674.331 673.497C674.789 673.167 675.018 672.672 675.018 672.011C675.018 671.489 674.815 671.079 674.41 670.781C674.016 670.472 673.356 670.179 672.429 669.902C671.684 669.679 671.061 669.439 670.56 669.183C670.059 668.928 669.66 668.598 669.362 668.193C669.063 667.788 668.914 667.282 668.914 666.675C668.914 666.079 669.069 665.546 669.378 665.077C669.687 664.609 670.134 664.241 670.72 663.975C671.316 663.709 672.019 663.575 672.829 663.575C673.585 663.575 674.272 663.698 674.89 663.943C675.508 664.177 675.971 664.459 676.28 664.79L675.481 665.812C675.151 665.503 674.757 665.264 674.299 665.093C673.841 664.912 673.335 664.822 672.781 664.822C672.046 664.822 671.46 664.987 671.023 665.317C670.587 665.636 670.368 666.068 670.368 666.611C670.368 666.952 670.453 667.234 670.624 667.458C670.805 667.671 671.071 667.863 671.423 668.033C671.785 668.203 672.323 668.411 673.036 668.656C673.771 668.89 674.378 669.141 674.858 669.407C675.348 669.673 675.737 670.014 676.024 670.43C676.322 670.834 676.471 671.34 676.471 671.947C676.471 672.597 676.312 673.172 675.992 673.673C675.673 674.174 675.215 674.562 674.618 674.839C674.032 675.106 673.34 675.239 672.541 675.239ZM680.213 673.785H686.076V675.031H678.791V663.767H685.901V665.013H680.213V668.672H685.389V669.918H680.213V673.785ZM695.745 675.031L692.342 669.391L690.073 671.931V675.031H688.619V663.767H690.073V670.126L695.585 663.767H697.263L693.333 668.273L697.391 675.031H695.745Z" fill="#21252A"/>
<path d="M169.343 613.462C169.959 613.622 170.406 613.953 170.686 614.457L169.895 615.068C169.599 614.636 169.252 614.345 168.852 614.193C168.461 614.049 167.989 613.965 167.438 613.941C166.695 613.941 166.044 613.778 165.485 613.45C164.926 613.114 164.49 612.619 164.179 611.964C163.867 611.301 163.712 610.502 163.712 609.568C163.712 608.633 163.867 607.838 164.179 607.183C164.49 606.52 164.926 606.025 165.485 605.697C166.044 605.362 166.695 605.194 167.438 605.194C168.181 605.194 168.828 605.362 169.379 605.697C169.939 606.025 170.374 606.52 170.686 607.183C170.997 607.838 171.153 608.633 171.153 609.568C171.153 610.51 170.993 611.313 170.674 611.976C170.362 612.639 169.919 613.134 169.343 613.462ZM164.814 609.568C164.814 610.55 165.026 611.369 165.449 612.024C165.872 612.679 166.536 613.007 167.438 613.007C168.333 613.007 168.992 612.679 169.415 612.024C169.839 611.369 170.05 610.55 170.05 609.568C170.05 608.585 169.839 607.766 169.415 607.111C168.992 606.456 168.333 606.129 167.438 606.129C166.536 606.129 165.872 606.456 165.449 607.111C165.026 607.766 164.814 608.585 164.814 609.568ZM176.17 609.292C176.657 609.428 177.056 609.679 177.368 610.047C177.687 610.414 177.847 610.866 177.847 611.401C177.847 611.888 177.731 612.324 177.5 612.707C177.268 613.091 176.933 613.39 176.493 613.606C176.054 613.821 175.535 613.929 174.935 613.929C174.328 613.929 173.789 613.829 173.318 613.63C172.846 613.422 172.479 613.178 172.215 612.899L172.755 612.216C173.002 612.463 173.31 612.663 173.677 612.815C174.045 612.967 174.452 613.043 174.9 613.043C175.491 613.043 175.946 612.891 176.266 612.587C176.593 612.284 176.757 611.88 176.757 611.377C176.757 610.818 176.561 610.406 176.17 610.143C175.778 609.879 175.247 609.747 174.576 609.747H174.36V608.921H174.576C175.191 608.921 175.67 608.785 176.014 608.513C176.365 608.234 176.541 607.85 176.541 607.363C176.541 606.971 176.405 606.66 176.134 606.428C175.862 606.188 175.475 606.069 174.971 606.069C174.54 606.069 174.173 606.149 173.869 606.308C173.565 606.46 173.29 606.656 173.042 606.895L172.503 606.236C172.767 605.949 173.114 605.701 173.545 605.493C173.977 605.286 174.468 605.182 175.019 605.182C175.547 605.182 176.006 605.274 176.397 605.458C176.789 605.641 177.084 605.893 177.284 606.212C177.492 606.532 177.596 606.895 177.596 607.303C177.596 607.806 177.46 608.23 177.188 608.573C176.917 608.917 176.577 609.156 176.17 609.292ZM187.829 612.887V613.786H182.557V613.019C185.209 610.902 186.535 609.092 186.535 607.59C186.535 607.127 186.391 606.76 186.103 606.488C185.816 606.216 185.412 606.081 184.893 606.081C184.494 606.081 184.13 606.161 183.803 606.32C183.483 606.48 183.212 606.676 182.988 606.907L182.461 606.212C182.716 605.925 183.056 605.681 183.479 605.481C183.911 605.282 184.406 605.182 184.965 605.182C185.804 605.182 186.451 605.398 186.906 605.829C187.362 606.26 187.589 606.828 187.589 607.531C187.589 608.521 187.206 609.492 186.439 610.442C185.68 611.385 184.833 612.2 183.899 612.887H187.829ZM192.215 613.929C191.28 613.929 190.561 613.558 190.058 612.815C189.554 612.072 189.303 610.99 189.303 609.568C189.303 608.146 189.554 607.063 190.058 606.32C190.561 605.577 191.28 605.206 192.215 605.206C193.149 605.206 193.868 605.577 194.372 606.32C194.875 607.063 195.126 608.146 195.126 609.568C195.126 610.99 194.875 612.072 194.372 612.815C193.868 613.558 193.149 613.929 192.215 613.929ZM192.215 613.055C193.445 613.055 194.06 611.892 194.06 609.568C194.06 607.243 193.445 606.081 192.215 606.081C190.984 606.081 190.369 607.243 190.369 609.568C190.369 611.892 190.984 613.055 192.215 613.055ZM201.825 612.887V613.786H196.552V613.019C199.205 610.902 200.531 609.092 200.531 607.59C200.531 607.127 200.387 606.76 200.099 606.488C199.812 606.216 199.408 606.081 198.889 606.081C198.49 606.081 198.126 606.161 197.799 606.32C197.479 606.48 197.207 606.676 196.984 606.907L196.457 606.212C196.712 605.925 197.052 605.681 197.475 605.481C197.906 605.282 198.402 605.182 198.961 605.182C199.8 605.182 200.447 605.398 200.902 605.829C201.358 606.26 201.585 606.828 201.585 607.531C201.585 608.521 201.202 609.492 200.435 610.442C199.676 611.385 198.829 612.2 197.895 612.887H201.825ZM207.049 612.959H208.907V613.786H204.126V612.959H206.019V606.692L204.209 607.926V606.931L206.39 605.338H207.049V612.959Z" fill="#4B545C"/>
<path d="M403.674 613.462C404.289 613.622 404.736 613.953 405.016 614.457L404.225 615.068C403.929 614.636 403.582 614.345 403.182 614.193C402.791 614.049 402.32 613.965 401.768 613.941C401.026 613.941 400.374 613.778 399.815 613.45C399.256 613.114 398.821 612.619 398.509 611.964C398.198 611.301 398.042 610.502 398.042 609.568C398.042 608.633 398.198 607.838 398.509 607.183C398.821 606.52 399.256 606.025 399.815 605.697C400.374 605.362 401.026 605.194 401.768 605.194C402.511 605.194 403.159 605.362 403.71 605.697C404.269 606.025 404.704 606.52 405.016 607.183C405.327 607.838 405.483 608.633 405.483 609.568C405.483 610.51 405.323 611.313 405.004 611.976C404.692 612.639 404.249 613.134 403.674 613.462ZM399.144 609.568C399.144 610.55 399.356 611.369 399.779 612.024C400.203 612.679 400.866 613.007 401.768 613.007C402.663 613.007 403.322 612.679 403.746 612.024C404.169 611.369 404.381 610.55 404.381 609.568C404.381 608.585 404.169 607.766 403.746 607.111C403.322 606.456 402.663 606.129 401.768 606.129C400.866 606.129 400.203 606.456 399.779 607.111C399.356 607.766 399.144 608.585 399.144 609.568ZM410.5 609.292C410.987 609.428 411.387 609.679 411.698 610.047C412.018 610.414 412.178 610.866 412.178 611.401C412.178 611.888 412.062 612.324 411.83 612.707C411.598 613.091 411.263 613.39 410.823 613.606C410.384 613.821 409.865 613.929 409.266 613.929C408.659 613.929 408.119 613.829 407.648 613.63C407.177 613.422 406.809 613.178 406.546 612.899L407.085 612.216C407.333 612.463 407.64 612.663 408.008 612.815C408.375 612.967 408.782 613.043 409.23 613.043C409.821 613.043 410.276 612.891 410.596 612.587C410.923 612.284 411.087 611.88 411.087 611.377C411.087 610.818 410.891 610.406 410.5 610.143C410.108 609.879 409.577 609.747 408.906 609.747H408.691V608.921H408.906C409.521 608.921 410.001 608.785 410.344 608.513C410.696 608.234 410.871 607.85 410.871 607.363C410.871 606.971 410.736 606.66 410.464 606.428C410.192 606.188 409.805 606.069 409.302 606.069C408.87 606.069 408.503 606.149 408.199 606.308C407.896 606.46 407.62 606.656 407.372 606.895L406.833 606.236C407.097 605.949 407.444 605.701 407.876 605.493C408.307 605.286 408.798 605.182 409.35 605.182C409.877 605.182 410.336 605.274 410.728 605.458C411.119 605.641 411.415 605.893 411.614 606.212C411.822 606.532 411.926 606.895 411.926 607.303C411.926 607.806 411.79 608.23 411.518 608.573C411.247 608.917 410.907 609.156 410.5 609.292ZM422.159 612.887V613.786H416.887V613.019C419.539 610.902 420.865 609.092 420.865 607.59C420.865 607.127 420.721 606.76 420.434 606.488C420.146 606.216 419.743 606.081 419.223 606.081C418.824 606.081 418.461 606.161 418.133 606.32C417.813 606.48 417.542 606.676 417.318 606.907L416.791 606.212C417.047 605.925 417.386 605.681 417.809 605.481C418.241 605.282 418.736 605.182 419.295 605.182C420.134 605.182 420.781 605.398 421.237 605.829C421.692 606.26 421.92 606.828 421.92 607.531C421.92 608.521 421.536 609.492 420.769 610.442C420.01 611.385 419.164 612.2 418.229 612.887H422.159ZM426.545 613.929C425.61 613.929 424.891 613.558 424.388 612.815C423.885 612.072 423.633 610.99 423.633 609.568C423.633 608.146 423.885 607.063 424.388 606.32C424.891 605.577 425.61 605.206 426.545 605.206C427.48 605.206 428.199 605.577 428.702 606.32C429.205 607.063 429.457 608.146 429.457 609.568C429.457 610.99 429.205 612.072 428.702 612.815C428.199 613.558 427.48 613.929 426.545 613.929ZM426.545 613.055C427.775 613.055 428.39 611.892 428.39 609.568C428.39 607.243 427.775 606.081 426.545 606.081C425.315 606.081 424.7 607.243 424.7 609.568C424.7 611.892 425.315 613.055 426.545 613.055ZM436.155 612.887V613.786H430.883V613.019C433.535 610.902 434.861 609.092 434.861 607.59C434.861 607.127 434.717 606.76 434.43 606.488C434.142 606.216 433.739 606.081 433.219 606.081C432.82 606.081 432.456 606.161 432.129 606.32C431.809 606.48 431.538 606.676 431.314 606.907L430.787 606.212C431.042 605.925 431.382 605.681 431.805 605.481C432.237 605.282 432.732 605.182 433.291 605.182C434.13 605.182 434.777 605.398 435.232 605.829C435.688 606.26 435.915 606.828 435.915 607.531C435.915 608.521 435.532 609.492 434.765 610.442C434.006 611.385 433.159 612.2 432.225 612.887H436.155ZM441.38 612.959H443.237V613.786H438.456V612.959H440.349V606.692L438.54 607.926V606.931L440.721 605.338H441.38V612.959Z" fill="#4B545C"/>
<path d="M638.004 613.462C638.619 613.622 639.067 613.953 639.346 614.457L638.555 615.068C638.26 614.636 637.912 614.345 637.513 614.193C637.122 614.049 636.65 613.965 636.099 613.941C635.356 613.941 634.705 613.778 634.146 613.45C633.587 613.114 633.151 612.619 632.84 611.964C632.528 611.301 632.372 610.502 632.372 609.568C632.372 608.633 632.528 607.838 632.84 607.183C633.151 606.52 633.587 606.025 634.146 605.697C634.705 605.362 635.356 605.194 636.099 605.194C636.842 605.194 637.489 605.362 638.04 605.697C638.599 606.025 639.035 606.52 639.346 607.183C639.658 607.838 639.814 608.633 639.814 609.568C639.814 610.51 639.654 611.313 639.334 611.976C639.023 612.639 638.579 613.134 638.004 613.462ZM633.475 609.568C633.475 610.55 633.686 611.369 634.11 612.024C634.533 612.679 635.196 613.007 636.099 613.007C636.994 613.007 637.653 612.679 638.076 612.024C638.5 611.369 638.711 610.55 638.711 609.568C638.711 608.585 638.5 607.766 638.076 607.111C637.653 606.456 636.994 606.129 636.099 606.129C635.196 606.129 634.533 606.456 634.11 607.111C633.686 607.766 633.475 608.585 633.475 609.568ZM644.771 612.959H646.628V613.786H641.847V612.959H643.74V606.692L641.931 607.926V606.931L644.111 605.338H644.771V612.959ZM656.49 612.887V613.786H651.217V613.019C653.869 610.902 655.196 609.092 655.196 607.59C655.196 607.127 655.052 606.76 654.764 606.488C654.477 606.216 654.073 606.081 653.554 606.081C653.154 606.081 652.791 606.161 652.463 606.32C652.144 606.48 651.872 606.676 651.649 606.907L651.121 606.212C651.377 605.925 651.717 605.681 652.14 605.481C652.571 605.282 653.067 605.182 653.626 605.182C654.465 605.182 655.112 605.398 655.567 605.829C656.022 606.26 656.25 606.828 656.25 607.531C656.25 608.521 655.867 609.492 655.1 610.442C654.341 611.385 653.494 612.2 652.559 612.887H656.49ZM660.875 613.929C659.941 613.929 659.222 613.558 658.718 612.815C658.215 612.072 657.964 610.99 657.964 609.568C657.964 608.146 658.215 607.063 658.718 606.32C659.222 605.577 659.941 605.206 660.875 605.206C661.81 605.206 662.529 605.577 663.032 606.32C663.536 607.063 663.787 608.146 663.787 609.568C663.787 610.99 663.536 612.072 663.032 612.815C662.529 613.558 661.81 613.929 660.875 613.929ZM660.875 613.055C662.106 613.055 662.721 611.892 662.721 609.568C662.721 607.243 662.106 606.081 660.875 606.081C659.645 606.081 659.03 607.243 659.03 609.568C659.03 611.892 659.645 613.055 660.875 613.055ZM670.486 612.887V613.786H665.213V613.019C667.865 610.902 669.191 609.092 669.191 607.59C669.191 607.127 669.048 606.76 668.76 606.488C668.472 606.216 668.069 606.081 667.55 606.081C667.15 606.081 666.787 606.161 666.459 606.32C666.14 606.48 665.868 606.676 665.645 606.907L665.117 606.212C665.373 605.925 665.712 605.681 666.136 605.481C666.567 605.282 667.063 605.182 667.622 605.182C668.461 605.182 669.108 605.398 669.563 605.829C670.018 606.26 670.246 606.828 670.246 607.531C670.246 608.521 669.862 609.492 669.096 610.442C668.337 611.385 667.49 612.2 666.555 612.887H670.486ZM677.484 612.887V613.786H672.211V613.019C674.863 610.902 676.189 609.092 676.189 607.59C676.189 607.127 676.046 606.76 675.758 606.488C675.47 606.216 675.067 606.081 674.548 606.081C674.148 606.081 673.785 606.161 673.457 606.32C673.138 606.48 672.866 606.676 672.643 606.907L672.115 606.212C672.371 605.925 672.71 605.681 673.134 605.481C673.565 605.282 674.06 605.182 674.62 605.182C675.458 605.182 676.106 605.398 676.561 605.829C677.016 606.26 677.244 606.828 677.244 607.531C677.244 608.521 676.86 609.492 676.094 610.442C675.335 611.385 674.488 612.2 673.553 612.887H677.484Z" fill="#4B545C"/>
<path d="M872.334 613.462C872.95 613.622 873.397 613.953 873.677 614.457L872.886 615.068C872.59 614.636 872.243 614.345 871.843 614.193C871.452 614.049 870.98 613.965 870.429 613.941C869.686 613.941 869.035 613.778 868.476 613.45C867.917 613.114 867.481 612.619 867.17 611.964C866.858 611.301 866.703 610.502 866.703 609.568C866.703 608.633 866.858 607.838 867.17 607.183C867.481 606.52 867.917 606.025 868.476 605.697C869.035 605.362 869.686 605.194 870.429 605.194C871.172 605.194 871.819 605.362 872.37 605.697C872.93 606.025 873.365 606.52 873.677 607.183C873.988 607.838 874.144 608.633 874.144 609.568C874.144 610.51 873.984 611.313 873.665 611.976C873.353 612.639 872.91 613.134 872.334 613.462ZM867.805 609.568C867.805 610.55 868.017 611.369 868.44 612.024C868.863 612.679 869.526 613.007 870.429 613.007C871.324 613.007 871.983 612.679 872.406 612.024C872.83 611.369 873.041 610.55 873.041 609.568C873.041 608.585 872.83 607.766 872.406 607.111C871.983 606.456 871.324 606.129 870.429 606.129C869.526 606.129 868.863 606.456 868.44 607.111C868.017 607.766 867.805 608.585 867.805 609.568ZM880.874 612.887V613.786H875.602V613.019C878.254 610.902 879.58 609.092 879.58 607.59C879.58 607.127 879.436 606.76 879.149 606.488C878.861 606.216 878.458 606.081 877.938 606.081C877.539 606.081 877.176 606.161 876.848 606.32C876.528 606.48 876.257 606.676 876.033 606.907L875.506 606.212C875.762 605.925 876.101 605.681 876.524 605.481C876.956 605.282 877.451 605.182 878.01 605.182C878.849 605.182 879.496 605.398 879.952 605.829C880.407 606.26 880.635 606.828 880.635 607.531C880.635 608.521 880.251 609.492 879.484 610.442C878.725 611.385 877.878 612.2 876.944 612.887H880.874ZM890.82 612.887V613.786H885.547V613.019C888.2 610.902 889.526 609.092 889.526 607.59C889.526 607.127 889.382 606.76 889.094 606.488C888.807 606.216 888.403 606.081 887.884 606.081C887.485 606.081 887.121 606.161 886.794 606.32C886.474 606.48 886.203 606.676 885.979 606.907L885.452 606.212C885.707 605.925 886.047 605.681 886.47 605.481C886.902 605.282 887.397 605.182 887.956 605.182C888.795 605.182 889.442 605.398 889.897 605.829C890.353 606.26 890.58 606.828 890.58 607.531C890.58 608.521 890.197 609.492 889.43 610.442C888.671 611.385 887.824 612.2 886.89 612.887H890.82ZM895.206 613.929C894.271 613.929 893.552 613.558 893.049 612.815C892.545 612.072 892.294 610.99 892.294 609.568C892.294 608.146 892.545 607.063 893.049 606.32C893.552 605.577 894.271 605.206 895.206 605.206C896.14 605.206 896.859 605.577 897.362 606.32C897.866 607.063 898.117 608.146 898.117 609.568C898.117 610.99 897.866 612.072 897.362 612.815C896.859 613.558 896.14 613.929 895.206 613.929ZM895.206 613.055C896.436 613.055 897.051 611.892 897.051 609.568C897.051 607.243 896.436 606.081 895.206 606.081C893.975 606.081 893.36 607.243 893.36 609.568C893.36 611.892 893.975 613.055 895.206 613.055ZM904.816 612.887V613.786H899.543V613.019C902.196 610.902 903.522 609.092 903.522 607.59C903.522 607.127 903.378 606.76 903.09 606.488C902.803 606.216 902.399 606.081 901.88 606.081C901.481 606.081 901.117 606.161 900.79 606.32C900.47 606.48 900.198 606.676 899.975 606.907L899.448 606.212C899.703 605.925 900.043 605.681 900.466 605.481C900.897 605.282 901.393 605.182 901.952 605.182C902.791 605.182 903.438 605.398 903.893 605.829C904.348 606.26 904.576 606.828 904.576 607.531C904.576 608.521 904.193 609.492 903.426 610.442C902.667 611.385 901.82 612.2 900.885 612.887H904.816ZM911.814 612.887V613.786H906.541V613.019C909.194 610.902 910.52 609.092 910.52 607.59C910.52 607.127 910.376 606.76 910.088 606.488C909.801 606.216 909.397 606.081 908.878 606.081C908.479 606.081 908.115 606.161 907.788 606.32C907.468 606.48 907.196 606.676 906.973 606.907L906.445 606.212C906.701 605.925 907.041 605.681 907.464 605.481C907.895 605.282 908.391 605.182 908.95 605.182C909.789 605.182 910.436 605.398 910.891 605.829C911.346 606.26 911.574 606.828 911.574 607.531C911.574 608.521 911.191 609.492 910.424 610.442C909.665 611.385 908.818 612.2 907.883 612.887H911.814Z" fill="#4B545C"/>
<path d="M139.799 382.118H113.171V481.975H139.799V382.118Z" fill="#E9ECEF"/>
<path opacity="0.8" d="M139.799 462.004H113.171V481.975H139.799V462.004Z" fill="#3B6FEB"/>
<path d="M179.742 318.21H153.113V481.975H179.742V318.21Z" fill="#E9ECEF"/>
<path d="M219.685 342.175H193.056V481.975H219.685V342.175Z" fill="#E9ECEF"/>
<path d="M259.627 230.336H232.999V481.975H259.627V230.336Z" fill="#E9ECEF"/>
<path d="M179.742 418.066H153.113V481.975H179.742V418.066Z" fill="#B299E3"/>
<path opacity="0.8" d="M219.685 346.17H193.056V481.975H219.685V346.17Z" fill="#FFCD33"/>
<path d="M259.627 362.147H232.999V481.975H259.627V362.147Z" fill="#FFA344"/>
<path d="M139.799 563.192H113.171V483.306H139.799V563.192Z" fill="#E9ECEF"/>
<path d="M179.742 531.237H153.113V483.306H179.742V531.237Z" fill="#E9ECEF"/>
<path d="M219.685 488.632H193.056V483.306H219.685V488.632Z" fill="#E9ECEF"/>
<path d="M259.627 541.889H232.999V483.306H259.627V541.889Z" fill="#E9ECEF"/>
<path d="M374.129 322.204H347.501V481.975H374.129V322.204Z" fill="#E9ECEF"/>
<path d="M414.072 238.325H387.444V481.975H414.072V238.325Z" fill="#E9ECEF"/>
<path d="M454.015 418.066H427.386V481.975H454.015V418.066Z" fill="#E9ECEF"/>
<path d="M493.958 242.319H467.329V481.975H493.958V242.319Z" fill="#E9ECEF"/>
<path opacity="0.8" d="M374.129 442.032H347.501V481.975H374.129V442.032Z" fill="#3B6FEB"/>
<path d="M414.072 342.175H387.444V481.975H414.072V342.175Z" fill="#B299E3"/>
<path d="M493.958 256.964H467.329V481.975H493.958V256.964Z" fill="#FFA344"/>
<path d="M374.129 579.169H347.501V483.306H374.129V579.169Z" fill="#F1F3F5"/>
<path d="M414.072 519.255H387.444V483.306H414.072V519.255Z" fill="#E9ECEF"/>
<path d="M454.015 579.169H427.386V483.306H454.015V579.169Z" fill="#E9ECEF"/>
<path opacity="0.8" d="M454.015 495.289H427.386V483.306H454.015V495.289Z" fill="#FFCD33"/>
<path d="M493.958 495.289H467.329V483.306H493.958V495.289Z" fill="#F1F3F5"/>
<path d="M608.46 206.37H581.832V481.975H608.46V206.37Z" fill="#E9ECEF"/>
<path d="M648.403 282.261H621.774V481.975H648.403V282.261Z" fill="#E9ECEF"/>
<path d="M688.345 342.175H661.717V481.975H688.345V342.175Z" fill="#E9ECEF"/>
<path opacity="0.8" d="M688.345 362.147H661.717V481.975H688.345V362.147Z" fill="#FFCD33"/>
<path d="M728.288 226.342H701.659V481.975H728.288V226.342Z" fill="#E9ECEF"/>
<path opacity="0.8" d="M608.46 256.964H581.832V481.975H608.46V256.964Z" fill="#3B6FEB"/>
<path d="M648.403 382.118H621.774V481.975H648.403V382.118Z" fill="#B299E3"/>
<path d="M728.288 306.227H701.659V481.975H728.288V306.227Z" fill="#FFA344"/>
<path d="M608.46 535.232H581.832V483.306H608.46V535.232Z" fill="#E9ECEF"/>
<path d="M648.403 551.209H621.774V483.306H648.403V551.209Z" fill="#E9ECEF"/>
<path d="M688.345 503.278H661.717V483.306H688.345V503.278Z" fill="#E9ECEF"/>
<path d="M728.288 591.151H701.659V483.306H728.288V591.151Z" fill="#E9ECEF"/>
<path d="M842.79 222.347H816.162V481.975H842.79V222.347Z" fill="#E9ECEF"/>
<path d="M882.733 232.999H856.104V481.975H882.733V232.999Z" fill="#E9ECEF"/>
<path d="M922.676 314.216H896.047V481.975H922.676V314.216Z" fill="#E9ECEF"/>
<path opacity="0.8" d="M922.676 370.135H896.047V481.975H922.676V370.135Z" fill="#FFCD33"/>
<path d="M962.618 414.072H935.99V481.975H962.618V414.072Z" fill="#E9ECEF"/>
<path opacity="0.7" d="M842.79 250.307H816.162V481.975H842.79V250.307Z" fill="#3B6FEB"/>
<path d="M882.733 290.25H856.104V481.975H882.733V290.25Z" fill="#B299E3"/>
<path d="M842.79 511.266H816.162V483.306H842.79V511.266Z" fill="#E9ECEF"/>
<path d="M882.733 563.192H856.104V483.306H882.733V563.192Z" fill="#E9ECEF"/>
<path d="M922.676 527.243H896.047V483.306H922.676V527.243Z" fill="#E9ECEF"/>
<path d="M962.618 591.151H935.99V483.306H962.618V591.151Z" fill="#E9ECEF"/>
<path d="M962.618 519.255H935.99V483.306H962.618V519.255Z" fill="#FFA344"/>
<defs>
<filter id="filter0_dd_103_772" x="-7.25048e-05" y="-5.72407e-06" width="1161" height="817.493" filterUnits="userSpaceOnUse" color-interpolation-filters="sRGB">
<feFlood flood-opacity="0" result="BackgroundImageFix"/>
<feColorMatrix in="SourceAlpha" type="matrix" values="0 0 0 0 0 0 0 0 0 0 0 0 0 0 0 0 0 0 127 0" result="hardAlpha"/>
<feOffset dy="10.6476"/>
<feGaussianBlur stdDeviation="10.6476"/>
<feColorMatrix type="matrix" values="0 0 0 0 0.0352941 0 0 0 0 0.117647 0 0 0 0 0.258824 0 0 0 0.25 0"/>
<feBlend mode="normal" in2="BackgroundImageFix" result="effect1_dropShadow_103_772"/>
<feColorMatrix in="SourceAlpha" type="matrix" values="0 0 0 0 0 0 0 0 0 0 0 0 0 0 0 0 0 0 127 0" result="hardAlpha"/>
<feOffset/>
<feGaussianBlur stdDeviation="0.665476"/>
<feColorMatrix type="matrix" values="0 0 0 0 0.0352941 0 0 0 0 0.117647 0 0 0 0 0.258824 0 0 0 0.5 0"/>
<feBlend mode="normal" in2="effect1_dropShadow_103_772" result="effect2_dropShadow_103_772"/>
<feBlend mode="normal" in="SourceGraphic" in2="effect2_dropShadow_103_772" result="shape"/>
</filter>
<linearGradient id="paint0_linear_103_772" x1="173.085" y1="82.5481" x2="173.085" y2="130.479" gradientUnits="userSpaceOnUse">
<stop stop-color="white"/>
<stop offset="1" stop-color="#F8F9FA"/>
</linearGradient>
</defs>
</svg>
