<svg width="36" height="36" viewBox="0 0 36 36" fill="none" xmlns="http://www.w3.org/2000/svg">
<path d="M18 35.9814C27.9438 35.9814 36 27.9278 36 17.984C36 8.04025 27.9305 0 18 0C8.06952 0 0 8.05357 0 17.9974C0 27.9412 8.05621 35.9947 18 35.9947V35.9814Z" fill="#105DFB"/>
<path fill-rule="evenodd" clip-rule="evenodd" d="M6.27226 25.6516V9.95708H13.5258C14.0799 9.95708 14.6287 10.0663 15.1406 10.2783C15.6526 10.4904 16.1178 10.8012 16.5096 11.193C16.9015 11.5849 17.2123 12.0501 17.4243 12.5621C17.6364 13.074 17.7456 13.6228 17.7456 14.1769C17.7456 15.6545 17.2863 16.573 15.6157 17.5182C17.6178 18.4234 18.1662 19.6879 18.1662 21.4584C18.1662 23.8411 16.0496 25.6649 13.6655 25.6649H6.25893L6.27226 25.6516ZM9.34457 12.5396V16.3201H12.9387C12.9387 16.3201 14.6852 16.32 14.6852 14.4298C14.6852 12.5395 12.9387 12.5396 12.9387 12.5396H9.34457ZM9.34457 22.9892V18.9025H13.1943C13.8186 18.9025 15.1192 19.222 15.1192 21.1522C15.1192 22.5766 13.8319 22.9626 13.1943 22.9759H9.34457V22.9892ZM24.7435 14.2834C22.5378 14.2834 19.2618 15.8541 19.2618 20.0739C19.2618 22.643 20.6635 25.9444 24.8833 25.9444C28.2617 25.9444 29.8165 23.4684 30.1613 22.2304H26.9865C26.8215 22.7895 26.2091 23.4151 24.8833 23.4151C22.9584 23.4151 22.2702 21.7778 22.1677 20.9392H30.1613V20.0739C30.1613 15.8541 26.9479 14.2834 24.7435 14.2834ZM24.7435 16.6929C22.9451 16.6929 22.2822 18.1837 22.1677 18.9158H26.9865C26.9865 18.1837 26.5406 16.6929 24.7302 16.6929H24.7435Z" fill="white"/>
<path d="M20.906 10.849V12.7925H28.479V10.849H20.906Z" fill="white"/>
</svg>
