<svg width="53" height="53" viewBox="0 0 53 53" fill="none" xmlns="http://www.w3.org/2000/svg">
<g filter="url(#filter0_d_103_702)">
<path d="M39.7501 1.9875H13.2501C7.76176 1.9875 3.31259 6.43667 3.31259 11.925V38.425C3.31259 43.9133 7.76176 48.3625 13.2501 48.3625H39.7501C45.2384 48.3625 49.6876 43.9133 49.6876 38.425V11.925C49.6876 6.43667 45.2384 1.9875 39.7501 1.9875Z" fill="white"/>
<path d="M39.7501 1.9875H13.2501C7.76176 1.9875 3.31259 6.43667 3.31259 11.925V38.425C3.31259 43.9133 7.76176 48.3625 13.2501 48.3625H39.7501C45.2384 48.3625 49.6876 43.9133 49.6876 38.425V11.925C49.6876 6.43667 45.2384 1.9875 39.7501 1.9875Z" stroke="#D9E1E7" stroke-width="1.32184"/>
<path d="M34.7812 17.9934L34.0922 29.0704C33.9199 31.8927 33.8405 33.3105 33.125 34.3308C32.7805 34.8343 32.33 35.2582 31.8 35.5762C30.74 36.2122 29.3222 36.2122 26.4867 36.2122C23.6512 36.2122 22.2334 36.2122 21.1734 35.5762C20.6567 35.245 20.2062 34.821 19.8484 34.3175C19.1462 33.3105 19.0535 31.8928 18.8812 29.0573L18.2187 17.9934M16.5625 17.9934H36.4375M30.9785 17.9934L30.2233 16.4433C29.7198 15.4098 29.468 14.893 29.044 14.575C28.9513 14.4955 28.8451 14.4425 28.7391 14.3762C28.2621 14.1377 27.6925 14.1378 26.5398 14.1378C25.3605 14.1378 24.7774 14.1377 24.2872 14.3895C24.1812 14.4425 24.0752 14.5088 23.9824 14.5883C23.5452 14.9195 23.2934 15.4627 22.8164 16.536L22.1407 17.9934M23.744 30.1437V23.5187M29.2559 30.1437V23.5187" stroke="#99B2C6" stroke-width="1.98276" stroke-linecap="round"/>
</g>
<defs>
<filter id="filter0_d_103_702" x="-0.000123796" y="-7.16966e-07" width="53.0002" height="53" filterUnits="userSpaceOnUse" color-interpolation-filters="sRGB">
<feFlood flood-opacity="0" result="BackgroundImageFix"/>
<feColorMatrix in="SourceAlpha" type="matrix" values="0 0 0 0 0 0 0 0 0 0 0 0 0 0 0 0 0 0 127 0" result="hardAlpha"/>
<feOffset dy="1.32184"/>
<feGaussianBlur stdDeviation="1.32184"/>
<feColorMatrix type="matrix" values="0 0 0 0 0.0627451 0 0 0 0 0.0941176 0 0 0 0 0.156863 0 0 0 0.05 0"/>
<feBlend mode="normal" in2="BackgroundImageFix" result="effect1_dropShadow_103_702"/>
<feBlend mode="normal" in="SourceGraphic" in2="effect1_dropShadow_103_702" result="shape"/>
</filter>
</defs>
</svg>
