<svg width="13" height="13" viewBox="0 0 13 13" fill="none" xmlns="http://www.w3.org/2000/svg">
<path d="M6.95342 5.89521C6.95635 5.83384 6.94683 5.77253 6.92536 5.71496C6.9039 5.65739 6.87097 5.60476 6.82858 5.56029C6.78618 5.51582 6.7352 5.48042 6.67872 5.45623C6.62224 5.43204 6.56142 5.41957 6.49998 5.41957C6.43854 5.41957 6.37775 5.43204 6.32127 5.45623C6.2648 5.48042 6.21381 5.51582 6.17141 5.56029C6.12902 5.60476 6.09609 5.65739 6.07463 5.71496C6.05317 5.77253 6.04361 5.83384 6.04654 5.89521V9.52273C6.04654 9.64299 6.09432 9.75832 6.17935 9.84335C6.26439 9.92839 6.37972 9.97617 6.49998 9.97617C6.62024 9.97617 6.73557 9.92839 6.82061 9.84335C6.90564 9.75832 6.95342 9.64299 6.95342 9.52273V5.89521Z" fill="#809FB8"/>
<path fill-rule="evenodd" clip-rule="evenodd" d="M6.49946 2.06878e-08C4.77556 0.00013746 3.12231 0.685072 1.90343 1.90415C0.684539 3.12323 -0.000137419 4.7766 2.06878e-08 6.50051C0.00013746 8.22441 0.685072 9.87766 1.90415 11.0965C3.12323 12.3154 4.7766 13.0001 6.50051 13C8.22441 12.9998 9.87766 12.3149 11.0965 11.0958C12.3154 9.8767 13.0001 8.22337 13 6.49946C12.9998 4.77556 12.3149 3.12231 11.0958 1.90343C9.8767 0.684539 8.22337 -0.000137419 6.49946 2.06878e-08ZM0.906878 6.49946C0.906878 5.01622 1.49609 3.59372 2.5449 2.5449C3.59372 1.49609 5.01622 0.906878 6.49946 0.906878C7.98271 0.906878 9.40521 1.49609 10.454 2.5449C11.5028 3.59372 12.092 5.01622 12.092 6.49946C12.092 7.98271 11.5028 9.40521 10.454 10.454C9.40521 11.5028 7.98271 12.092 6.49946 12.092C5.01622 12.092 3.59372 11.5028 2.5449 10.454C1.49609 9.40521 0.906878 7.98271 0.906878 6.49946Z" fill="#809FB8"/>
<path d="M7.10479 4.08149C7.10451 4.24202 7.04045 4.39587 6.92674 4.50918C6.81304 4.6225 6.65898 4.68601 6.49845 4.68574C6.33792 4.68546 6.18408 4.62143 6.07076 4.50773C5.95744 4.39402 5.89393 4.23996 5.8942 4.07943C5.89448 3.91891 5.95854 3.76506 6.07224 3.65174C6.12855 3.59563 6.19533 3.55115 6.26882 3.52086C6.34231 3.49057 6.42105 3.47505 6.50054 3.47519C6.58002 3.47532 6.65868 3.49111 6.73207 3.52165C6.80545 3.55219 6.87212 3.5969 6.92823 3.6532C6.98434 3.7095 7.02879 3.77632 7.05908 3.84981C7.08937 3.92329 7.10492 4.002 7.10479 4.08149Z" fill="#809FB8"/>
</svg>
