<svg width="136" height="40" viewBox="0 0 136 40" fill="none" xmlns="http://www.w3.org/2000/svg">
<g filter="url(#filter0_d_103_735)">
<path d="M126 1.5H10C5.85786 1.5 2.5 4.85786 2.5 9V29C2.5 33.1421 5.85786 36.5 10 36.5H126C130.142 36.5 133.5 33.1421 133.5 29V9C133.5 4.85786 130.142 1.5 126 1.5Z" fill="white"/>
<path d="M126 1.5H10C5.85786 1.5 2.5 4.85786 2.5 9V29C2.5 33.1421 5.85786 36.5 10 36.5H126C130.142 36.5 133.5 33.1421 133.5 29V9C133.5 4.85786 130.142 1.5 126 1.5Z" stroke="#D9E1E7"/>
<path d="M29.3298 17.333L25.9999 20.667L22.6699 17.333" stroke="#17181A" stroke-width="1.5" stroke-linecap="round" stroke-linejoin="round"/>
<path d="M45.9398 22.16V25.208H44.8599V17.204H45.9398V18.032C46.1585 17.7327 46.4443 17.4888 46.7743 17.32C47.1043 17.1512 47.4692 17.0621 47.8398 17.06C49.3498 17.06 50.4199 18.2 50.4199 20.096C50.4199 21.992 49.3498 23.144 47.8398 23.144C47.0798 23.144 46.4098 22.796 45.9398 22.16ZM49.2899 20.096C49.2899 18.896 48.6299 18.02 47.5499 18.02C46.8899 18.02 46.2298 18.404 45.9398 18.872V21.332C46.2298 21.788 46.8899 22.184 47.5499 22.184C48.6299 22.184 49.2899 21.308 49.2899 20.096ZM56.4498 23H55.3699V22.364C54.9099 22.868 54.2498 23.144 53.4698 23.144C52.5098 23.144 51.4498 22.496 51.4498 21.224C51.4498 19.904 52.4998 19.328 53.4698 19.328C54.2498 19.328 54.9199 19.58 55.3699 20.096V19.136C55.3699 18.416 54.7798 17.984 53.9498 17.984C53.2898 17.984 52.7298 18.236 52.2098 18.752L51.7399 18.008C52.3899 17.372 53.1799 17.06 54.1199 17.06C55.3799 17.06 56.4498 17.612 56.4498 19.088V23ZM55.3699 21.728V20.744C55.0399 20.312 54.4799 20.084 53.8799 20.084C53.0999 20.084 52.5499 20.552 52.5499 21.236C52.5499 21.92 53.0999 22.388 53.8799 22.388C54.4799 22.388 55.0399 22.16 55.3699 21.728ZM57.6699 22.244L58.1898 21.452C58.5798 21.884 59.3499 22.28 60.1299 22.28C60.9499 22.28 61.3799 21.944 61.3799 21.452C61.3799 20.876 60.7199 20.684 59.9799 20.516C58.9899 20.288 57.8398 20.024 57.8398 18.776C57.8398 17.852 58.6299 17.06 60.0499 17.06C61.0399 17.06 61.7599 17.42 62.2599 17.888L61.7799 18.644C61.4399 18.236 60.7899 17.936 60.0599 17.936C59.3299 17.936 58.8699 18.224 58.8699 18.692C58.8699 19.196 59.4998 19.364 60.2198 19.532C61.2198 19.76 62.4199 20.036 62.4199 21.368C62.4199 22.364 61.6098 23.144 60.0798 23.144C59.1098 23.144 58.2599 22.844 57.6699 22.244ZM65.3899 23.144C64.4699 23.144 64.0099 22.628 64.0099 21.716V18.152H63.0499V17.204H64.0099V15.62H65.0898V17.204H66.2599V18.152H65.0898V21.476C65.0898 21.884 65.2799 22.184 65.6499 22.184C65.8999 22.184 66.1299 22.076 66.2399 21.956L66.5099 22.772C66.2899 22.988 65.9499 23.144 65.3899 23.144ZM70.2399 19.016C70.2399 16.772 71.3399 14.876 73.6399 14.876C74.6399 14.876 75.3799 15.248 75.8899 15.8L75.2999 16.712C74.8999 16.244 74.4299 15.944 73.6399 15.944C72.1799 15.944 71.4498 17.348 71.4498 18.836C71.4498 18.932 71.4498 19.016 71.4598 19.1C71.8098 18.56 72.6799 17.924 73.6599 17.924C75.0999 17.924 76.3099 18.788 76.3099 20.492C76.3099 21.932 75.1999 23.144 73.4299 23.144C71.1399 23.144 70.2399 21.212 70.2399 19.016ZM75.0999 20.528C75.0999 19.46 74.3099 18.956 73.3599 18.956C72.6199 18.956 71.8999 19.388 71.4799 20.024C71.5699 20.96 72.0599 22.076 73.3699 22.076C74.5199 22.076 75.0999 21.236 75.0999 20.528ZM88.9199 23H87.8398V19.136C87.8398 18.464 87.5398 18.02 86.8298 18.02C86.2398 18.02 85.6699 18.428 85.3899 18.848V23H84.3099V19.136C84.3099 18.464 84.0199 18.02 83.2899 18.02C82.7299 18.02 82.1599 18.44 81.8699 18.86V23H80.7899V17.204H81.8699V18.02C82.1099 17.66 82.8799 17.06 83.7499 17.06C84.6199 17.06 85.1398 17.516 85.3198 18.14C85.6498 17.6 86.4199 17.06 87.2699 17.06C88.3399 17.06 88.9199 17.648 88.9199 18.812V23ZM93.2098 23.144C91.4098 23.144 90.2799 21.776 90.2799 20.096C90.2799 18.428 91.4098 17.06 93.2098 17.06C95.0198 17.06 96.1299 18.428 96.1299 20.096C96.1299 21.776 95.0198 23.144 93.2098 23.144ZM93.2098 22.184C94.3698 22.184 95.0099 21.2 95.0099 20.096C95.0099 19.004 94.3698 18.02 93.2098 18.02C92.0498 18.02 91.4099 19.004 91.4099 20.096C91.4099 21.2 92.0498 22.184 93.2098 22.184ZM102.5 23H101.42V19.292C101.42 18.332 100.92 18.02 100.18 18.02C99.5099 18.02 98.8998 18.428 98.5798 18.86V23H97.4999V17.204H98.5798V18.02C98.9698 17.552 99.7399 17.06 100.64 17.06C101.86 17.06 102.5 17.708 102.5 18.932V23ZM105.8 23.144C104.89 23.144 104.42 22.628 104.42 21.716V18.152H103.46V17.204H104.42V15.62H105.5V17.204H106.68V18.152H105.5V21.476C105.5 21.884 105.7 22.184 106.07 22.184C106.32 22.184 106.55 22.076 106.66 21.956L106.93 22.772C106.7 22.988 106.37 23.144 105.8 23.144ZM112.87 23H111.79V19.268C111.79 18.308 111.3 18.02 110.55 18.02C109.88 18.02 109.27 18.428 108.96 18.86V23H107.88V14.996H108.96V18.02C109.34 17.552 110.12 17.06 111.01 17.06C112.24 17.06 112.87 17.684 112.87 18.908V23ZM114.09 22.244L114.6 21.452C115 21.884 115.77 22.28 116.55 22.28C117.36 22.28 117.79 21.944 117.79 21.452C117.79 20.876 117.13 20.684 116.39 20.516C115.41 20.288 114.25 20.024 114.25 18.776C114.25 17.852 115.05 17.06 116.46 17.06C117.46 17.06 118.18 17.42 118.67 17.888L118.19 18.644C117.85 18.236 117.21 17.936 116.47 17.936C115.74 17.936 115.29 18.224 115.29 18.692C115.29 19.196 115.91 19.364 116.63 19.532C117.64 19.76 118.84 20.036 118.84 21.368C118.84 22.364 118.02 23.144 116.5 23.144C115.53 23.144 114.67 22.844 114.09 22.244Z" fill="#17181A"/>
</g>
<defs>
<filter id="filter0_d_103_735" x="0" y="0" width="136" height="40" filterUnits="userSpaceOnUse" color-interpolation-filters="sRGB">
<feFlood flood-opacity="0" result="BackgroundImageFix"/>
<feColorMatrix in="SourceAlpha" type="matrix" values="0 0 0 0 0 0 0 0 0 0 0 0 0 0 0 0 0 0 127 0" result="hardAlpha"/>
<feOffset dy="1"/>
<feGaussianBlur stdDeviation="1"/>
<feColorMatrix type="matrix" values="0 0 0 0 0.0627451 0 0 0 0 0.0941176 0 0 0 0 0.156863 0 0 0 0.05 0"/>
<feBlend mode="normal" in2="BackgroundImageFix" result="effect1_dropShadow_103_735"/>
<feBlend mode="normal" in="SourceGraphic" in2="effect1_dropShadow_103_735" result="shape"/>
</filter>
</defs>
</svg>
