<svg width="94" height="52" viewBox="0 0 94 52" fill="none" xmlns="http://www.w3.org/2000/svg">
<g filter="url(#filter0_dd_103_766)">
<path d="M81.0345 2.16092H12.9655C9.38517 2.16092 6.48274 5.06336 6.48274 8.64369V28.092C6.48274 31.6723 9.38517 34.5747 12.9655 34.5747H81.0345C84.6148 34.5747 87.5173 31.6723 87.5173 28.092V8.64369C87.5173 5.06336 84.6148 2.16092 81.0345 2.16092Z" fill="#17181A"/>
<path d="M26.6552 19.5671C26.6552 20.6044 25.9853 21.5876 24.343 21.7173V22.6897H23.5758V21.7281C22.463 21.6524 21.6418 21.2094 21.0908 20.5936L21.7066 19.7616C22.128 20.2262 22.7655 20.6476 23.5758 20.7448V18.3894C22.4738 18.1085 21.3177 17.7088 21.3177 16.3474C21.3177 15.2345 22.2361 14.4025 23.5758 14.3053V13.3113H24.343V14.3161C25.2397 14.4025 25.9528 14.7483 26.4931 15.2993L25.8556 16.0989C25.445 15.6667 24.9156 15.4074 24.343 15.3101V17.417C25.4666 17.7195 26.6552 18.1301 26.6552 19.5671ZM22.4306 16.2717C22.4306 16.7904 22.9276 17.028 23.5758 17.2117V15.2669C22.8844 15.3209 22.4306 15.7099 22.4306 16.2717ZM24.343 18.5947V20.7448C25.2289 20.6476 25.5531 20.1182 25.5531 19.6644C25.5531 19.0485 25.0237 18.8 24.343 18.5947ZM32.777 21.6092H27.6989V20.7557C30.4 18.6812 31.6426 17.6007 31.6426 16.4662C31.6426 15.6235 30.9403 15.2561 30.238 15.2561C29.3844 15.2561 28.7253 15.6127 28.2823 16.1421L27.6449 15.4398C28.2391 14.6943 29.2223 14.2945 30.2272 14.2945C31.5237 14.2945 32.7446 15.0292 32.7446 16.4662C32.7446 17.8708 31.3941 19.1349 29.4168 20.6584H32.777V21.6092ZM33.8013 20.5612L34.4064 19.8589C34.8602 20.4099 35.6057 20.7772 36.416 20.7772C37.4101 20.7772 38.0043 20.3018 38.0043 19.5455C38.0043 18.746 37.356 18.411 36.308 18.411C36.0163 18.411 35.6381 18.411 35.5301 18.4219V17.4386C35.6489 17.4494 36.0271 17.4494 36.308 17.4494C37.1832 17.4494 37.8962 17.1253 37.8962 16.3798C37.8962 15.6451 37.2048 15.2561 36.3512 15.2561C35.5949 15.2561 35.0006 15.5478 34.4712 16.0881L33.8986 15.4182C34.4388 14.7807 35.2924 14.2945 36.4485 14.2945C37.9179 14.2945 38.9767 15.0184 38.9767 16.2285C38.9767 17.2333 38.1232 17.7628 37.4101 17.8924C38.0908 17.9572 39.0848 18.5191 39.0848 19.6536C39.0848 20.8637 38.0799 21.7389 36.4485 21.7389C35.1951 21.7389 34.2659 21.2094 33.8013 20.5612ZM40.2355 21.0474C40.2355 20.68 40.538 20.3775 40.9054 20.3775C41.2727 20.3775 41.586 20.68 41.586 21.0474C41.586 21.4147 41.2727 21.7281 40.9054 21.7281C40.538 21.7281 40.2355 21.4147 40.2355 21.0474ZM47.8451 21.6092H42.7669V20.7557C45.4681 18.6812 46.7107 17.6007 46.7107 16.4662C46.7107 15.6235 46.0084 15.2561 45.3061 15.2561C44.4525 15.2561 43.7934 15.6127 43.3504 16.1421L42.7129 15.4398C43.3072 14.6943 44.2904 14.2945 45.2953 14.2945C46.5918 14.2945 47.8127 15.0292 47.8127 16.4662C47.8127 17.8708 46.4621 19.1349 44.4849 20.6584H47.8451V21.6092ZM49.2476 20.6044L49.885 19.8697C50.3604 20.4531 51.0087 20.7772 51.8515 20.7772C52.7915 20.7772 53.4182 20.1614 53.4182 19.3726C53.4182 18.5083 52.8023 17.9572 51.8731 17.9572C51.2464 17.9572 50.7278 18.1517 50.2524 18.6055L49.4745 18.357V14.4025H54.034V15.3533H50.5549V17.6547C50.9007 17.309 51.5057 17.0173 52.208 17.0173C53.4182 17.0173 54.5094 17.8492 54.5094 19.3294C54.5094 20.8097 53.3857 21.7389 51.8623 21.7389C50.6306 21.7389 49.8094 21.3067 49.2476 20.6044ZM55.511 18.0113C55.511 16.2285 56.3322 14.2945 58.331 14.2945C60.3299 14.2945 61.151 16.2285 61.151 18.0113C61.151 19.794 60.3299 21.7389 58.331 21.7389C56.3322 21.7389 55.511 19.794 55.511 18.0113ZM60.049 18.0113C60.049 16.6067 59.6059 15.2561 58.331 15.2561C57.0561 15.2561 56.613 16.6067 56.613 18.0113C56.613 19.4159 57.0561 20.7772 58.331 20.7772C59.6059 20.7772 60.049 19.4159 60.049 18.0113ZM62.4141 23.0138L61.9603 22.6356C62.306 22.4195 62.641 21.9874 62.695 21.6308C62.6734 21.6308 62.5869 21.6524 62.5329 21.6524C62.1979 21.6524 61.9495 21.3931 61.9495 21.0366C61.9495 20.6692 62.2412 20.3775 62.6085 20.3775C63.0083 20.3775 63.3649 20.7016 63.3649 21.2743C63.3649 21.9766 62.9651 22.6248 62.4141 23.0138ZM66.0909 21.6092H65.0104V15.8179L63.8435 17.0389L63.2061 16.3798L65.1401 14.4025H66.0909V21.6092ZM67.7483 20.8961L68.2669 20.0858C68.6343 20.4963 69.0665 20.7665 69.7796 20.7665C71.1626 20.7665 71.746 19.4483 71.746 18.1734V17.9248C71.4111 18.411 70.6331 18.9945 69.7579 18.9945C68.4614 18.9945 67.3593 18.2057 67.3593 16.6715C67.3593 15.3857 68.3641 14.2837 69.9524 14.2837C72.0269 14.2837 72.8373 16.0232 72.8373 18.0113C72.8373 20.0209 71.8324 21.7281 69.7796 21.7281C68.872 21.7281 68.2129 21.3931 67.7483 20.8961ZM71.7136 17.0929C71.6487 16.2609 71.1842 15.2453 70.0065 15.2453C68.9801 15.2453 68.4614 16.0016 68.4614 16.6391C68.4614 17.6007 69.1745 18.0545 70.0281 18.0545C70.6871 18.0545 71.3462 17.6763 71.7136 17.0929Z" fill="white"/>
<path d="M49.5932 39.7609C49.2912 40.1635 48.8997 40.4903 48.4496 40.7153C47.9995 40.9403 47.5032 41.0575 47 41.0575C46.4968 41.0575 46.0005 40.9403 45.5505 40.7153C45.1004 40.4903 44.7088 40.1635 44.4069 39.7609L40.5173 34.5747H53.4828L49.5932 39.7609Z" fill="#17181A"/>
</g>
<defs>
<filter id="filter0_dd_103_766" x="-1.90816e-05" y="3.81632e-06" width="94" height="51.8621" filterUnits="userSpaceOnUse" color-interpolation-filters="sRGB">
<feFlood flood-opacity="0" result="BackgroundImageFix"/>
<feColorMatrix in="SourceAlpha" type="matrix" values="0 0 0 0 0 0 0 0 0 0 0 0 0 0 0 0 0 0 127 0" result="hardAlpha"/>
<feOffset dy="2.16"/>
<feGaussianBlur stdDeviation="2.16"/>
<feColorMatrix type="matrix" values="0 0 0 0 0.0705882 0 0 0 0 0.0705882 0 0 0 0 0.0901961 0 0 0 0.06 0"/>
<feBlend mode="normal" in2="BackgroundImageFix" result="effect1_dropShadow_103_766"/>
<feColorMatrix in="SourceAlpha" type="matrix" values="0 0 0 0 0 0 0 0 0 0 0 0 0 0 0 0 0 0 127 0" result="hardAlpha"/>
<feOffset dy="4.32"/>
<feGaussianBlur stdDeviation="3.24"/>
<feColorMatrix type="matrix" values="0 0 0 0 0.0705882 0 0 0 0 0.0705882 0 0 0 0 0.0901961 0 0 0 0.08 0"/>
<feBlend mode="normal" in2="effect1_dropShadow_103_766" result="effect2_dropShadow_103_766"/>
<feBlend mode="normal" in="SourceGraphic" in2="effect2_dropShadow_103_766" result="shape"/>
</filter>
</defs>
</svg>
