<svg width="117" height="52" viewBox="0 0 117 52" fill="none" xmlns="http://www.w3.org/2000/svg">
<g filter="url(#filter0_dd_103_725)">
<path d="M105 2H12C8.68629 2 6 4.68629 6 8V30C6 33.3137 8.68629 36 12 36H105C108.314 36 111 33.3137 111 30V8C111 4.68629 108.314 2 105 2Z" fill="#17181A"/>
<path d="M30.019 20.354C30.019 21.698 29.1511 22.972 27.0231 23.14V24.4H26.0291V23.154C24.5871 23.056 23.5231 22.482 22.8091 21.684L23.6071 20.606C24.1531 21.208 24.9791 21.754 26.0291 21.88V18.828C24.6011 18.464 23.1031 17.946 23.1031 16.182C23.1031 14.74 24.2931 13.662 26.0291 13.536V12.248H27.0231V13.55C28.1851 13.662 29.1091 14.11 29.8091 14.824L28.983 15.86C28.4586 15.3148 27.7703 14.9559 27.0231 14.838V17.568C28.4791 17.96 30.019 18.492 30.019 20.354ZM24.545 16.084C24.545 16.756 25.1891 17.064 26.0291 17.302V14.782C25.1331 14.852 24.545 15.356 24.545 16.084ZM27.0231 19.094V21.88C28.1711 21.754 28.5911 21.068 28.5911 20.48C28.5911 19.682 27.9051 19.36 27.0231 19.094ZM34.634 23H33.2341V15.496L31.722 17.078L30.8961 16.224L33.402 13.662H34.634V23ZM39.665 23H38.2651V15.496L36.7531 17.078L35.9271 16.224L38.433 13.662H39.665V23ZM43.9401 23H42.4001L46.04 14.894H41.1121V13.662H47.6641V14.628L43.9401 23ZM47.4781 22.272C47.4781 21.796 47.8701 21.404 48.3461 21.404C48.8221 21.404 49.2281 21.796 49.2281 22.272C49.2242 22.5047 49.13 22.7268 48.9655 22.8914C48.8009 23.056 48.5788 23.1501 48.3461 23.154C48.1148 23.1496 47.8945 23.0548 47.7323 22.8899C47.5701 22.7251 47.4788 22.5033 47.4781 22.272ZM50.884 21.698L51.7101 20.746C52.3261 21.502 53.1661 21.922 54.2581 21.922C55.4761 21.922 56.2881 21.124 56.2881 20.102C56.2881 18.982 55.4901 18.268 54.2861 18.268C53.4741 18.268 52.802 18.52 52.186 19.108L51.178 18.786V13.662H57.0861V14.894H52.5781V17.876C53.0261 17.428 53.81 17.05 54.72 17.05C56.288 17.05 57.7021 18.128 57.7021 20.046C57.7021 21.964 56.246 23.168 54.272 23.168C52.676 23.168 51.612 22.608 50.884 21.698ZM65.6641 23H59.084V21.894C62.584 19.206 64.194 17.806 64.194 16.336C64.194 15.244 63.2841 14.768 62.3741 14.768C61.2681 14.768 60.4141 15.23 59.8401 15.916L59.014 15.006C59.784 14.04 61.058 13.522 62.36 13.522C64.04 13.522 65.6221 14.474 65.6221 16.336C65.6221 18.156 63.8721 19.794 61.3101 21.768H65.6641V23ZM67.272 18.338C67.272 16.028 68.3361 13.522 70.9261 13.522C73.5161 13.522 74.5801 16.028 74.5801 18.338C74.5801 20.648 73.5161 23.168 70.9261 23.168C68.3361 23.168 67.272 20.648 67.272 18.338ZM73.152 18.338C73.152 16.518 72.5781 14.768 70.9261 14.768C69.2741 14.768 68.7001 16.518 68.7001 18.338C68.7001 20.158 69.2741 21.922 70.9261 21.922C72.5781 21.922 73.152 20.158 73.152 18.338ZM76.217 24.82L75.6291 24.33C76.0771 24.05 76.5111 23.49 76.5811 23.028C76.5531 23.028 76.441 23.056 76.371 23.056C75.937 23.056 75.6151 22.72 75.6151 22.258C75.6151 21.782 75.9931 21.404 76.4691 21.404C76.9871 21.404 77.449 21.824 77.449 22.566C77.449 23.476 76.931 24.316 76.217 24.82ZM79.2731 22.076L79.9451 21.026C80.4211 21.558 80.9811 21.908 81.9051 21.908C83.6971 21.908 84.4531 20.2 84.4531 18.548V18.226C84.0191 18.856 83.0111 19.612 81.8771 19.612C80.1971 19.612 78.769 18.59 78.769 16.602C78.769 14.936 80.0711 13.508 82.1291 13.508C84.8171 13.508 85.8671 15.762 85.8671 18.338C85.8671 20.942 84.5651 23.154 81.9051 23.154C80.7291 23.154 79.8751 22.72 79.2731 22.076ZM84.4111 17.148C84.3271 16.07 83.725 14.754 82.199 14.754C80.869 14.754 80.1971 15.734 80.1971 16.56C80.1971 17.806 81.1211 18.394 82.2271 18.394C83.0811 18.394 83.9351 17.904 84.4111 17.148ZM87.165 20.62C87.165 19.402 88.173 18.548 89.321 18.184C88.257 17.862 87.319 17.162 87.319 15.958C87.319 14.264 89.0131 13.522 90.6371 13.522C92.2191 13.522 93.941 14.264 93.941 15.958C93.941 17.162 92.9891 17.862 91.925 18.184C93.0731 18.548 94.0811 19.402 94.0811 20.62C94.0811 22.244 92.4991 23.168 90.6371 23.168C88.7471 23.168 87.165 22.258 87.165 20.62ZM92.527 16.168C92.527 15.286 91.6871 14.768 90.6371 14.768C89.5451 14.768 88.733 15.286 88.733 16.168C88.733 17.162 90.0631 17.526 90.6371 17.624C91.2111 17.526 92.527 17.162 92.527 16.168ZM92.6811 20.452C92.6811 19.36 91.1971 18.884 90.6371 18.814C90.0491 18.884 88.579 19.36 88.579 20.452C88.579 21.362 89.5171 21.922 90.6371 21.922C91.7151 21.922 92.6811 21.362 92.6811 20.452Z" fill="white"/>
<path d="M60.9 40.8C60.6206 41.1726 60.2582 41.475 59.8416 41.6833C59.425 41.8916 58.9657 42 58.5 42C58.0343 42 57.575 41.8916 57.1584 41.6833C56.7418 41.475 56.3794 41.1726 56.1 40.8L52.5 36H64.5L60.9 40.8Z" fill="#17181A"/>
</g>
<defs>
<filter id="filter0_dd_103_725" x="0" y="0" width="117" height="52" filterUnits="userSpaceOnUse" color-interpolation-filters="sRGB">
<feFlood flood-opacity="0" result="BackgroundImageFix"/>
<feColorMatrix in="SourceAlpha" type="matrix" values="0 0 0 0 0 0 0 0 0 0 0 0 0 0 0 0 0 0 127 0" result="hardAlpha"/>
<feOffset dy="2"/>
<feGaussianBlur stdDeviation="2"/>
<feColorMatrix type="matrix" values="0 0 0 0 0.0705882 0 0 0 0 0.0705882 0 0 0 0 0.0901961 0 0 0 0.06 0"/>
<feBlend mode="normal" in2="BackgroundImageFix" result="effect1_dropShadow_103_725"/>
<feColorMatrix in="SourceAlpha" type="matrix" values="0 0 0 0 0 0 0 0 0 0 0 0 0 0 0 0 0 0 127 0" result="hardAlpha"/>
<feOffset dy="4"/>
<feGaussianBlur stdDeviation="3"/>
<feColorMatrix type="matrix" values="0 0 0 0 0.0705882 0 0 0 0 0.0705882 0 0 0 0 0.0901961 0 0 0 0.08 0"/>
<feBlend mode="normal" in2="effect1_dropShadow_103_725" result="effect2_dropShadow_103_725"/>
<feBlend mode="normal" in="SourceGraphic" in2="effect2_dropShadow_103_725" result="shape"/>
</filter>
</defs>
</svg>
