<svg width="53" height="53" viewBox="0 0 53 53" fill="none" xmlns="http://www.w3.org/2000/svg">
<g filter="url(#filter0_d_103_689)">
<path d="M39.7501 1.9875H13.2501C7.76176 1.9875 3.31259 6.43667 3.31259 11.925V38.425C3.31259 43.9133 7.76176 48.3625 13.2501 48.3625H39.7501C45.2384 48.3625 49.6876 43.9133 49.6876 38.425V11.925C49.6876 6.43667 45.2384 1.9875 39.7501 1.9875Z" fill="white"/>
<path d="M39.7501 1.9875H13.2501C7.76176 1.9875 3.31259 6.43667 3.31259 11.925V38.425C3.31259 43.9133 7.76176 48.3625 13.2501 48.3625H39.7501C45.2384 48.3625 49.6876 43.9133 49.6876 38.425V11.925C49.6876 6.43667 45.2384 1.9875 39.7501 1.9875Z" stroke="#D9E1E7" stroke-width="1.32184"/>
<path d="M19.8751 24.0753V18.7752C19.8751 17.5297 19.8751 16.9202 20.1136 16.4432C20.3256 16.0325 20.6701 15.688 21.0809 15.476C21.5579 15.2375 22.1674 15.2375 23.4129 15.2375H28.7129M28.7129 15.2375C29.0176 15.2375 29.2162 15.2507 29.415 15.3037C29.6402 15.3567 29.8524 15.4363 30.0511 15.5688C30.2764 15.7013 30.4619 15.8868 30.8461 16.271L34.3043 19.7293C34.6753 20.1003 34.8741 20.299 35.0066 20.5242C35.1259 20.7097 35.2186 20.935 35.2716 21.1602C35.3113 21.3457 35.3246 21.5445 35.3379 21.8625M28.7129 15.2375V18.3248C28.7129 19.5703 28.7128 20.1798 28.9513 20.6568C29.1633 21.0675 29.4945 21.412 29.9185 21.624C30.3823 21.8625 31.005 21.8625 32.2373 21.8625H35.3379M35.3379 21.8625V31.588C35.3379 32.8202 35.3378 33.4297 35.086 33.9067C34.8873 34.3175 34.5428 34.6619 34.1321 34.8739C33.6551 35.1124 33.0323 35.1125 31.8001 35.1125H27.5998M23.1876 27.3878L25.4004 29.5872M17.6623 35.1125V32.3566L25.9435 24.0753L28.7129 26.8313L20.4316 35.1125H17.6623Z" stroke="#99B2C6" stroke-width="1.98276" stroke-linecap="round" stroke-linejoin="round"/>
</g>
<defs>
<filter id="filter0_d_103_689" x="-0.000123796" y="-7.16966e-07" width="53.0002" height="53" filterUnits="userSpaceOnUse" color-interpolation-filters="sRGB">
<feFlood flood-opacity="0" result="BackgroundImageFix"/>
<feColorMatrix in="SourceAlpha" type="matrix" values="0 0 0 0 0 0 0 0 0 0 0 0 0 0 0 0 0 0 127 0" result="hardAlpha"/>
<feOffset dy="1.32184"/>
<feGaussianBlur stdDeviation="1.32184"/>
<feColorMatrix type="matrix" values="0 0 0 0 0.0627451 0 0 0 0 0.0941176 0 0 0 0 0.156863 0 0 0 0.05 0"/>
<feBlend mode="normal" in2="BackgroundImageFix" result="effect1_dropShadow_103_689"/>
<feBlend mode="normal" in="SourceGraphic" in2="effect1_dropShadow_103_689" result="shape"/>
</filter>
</defs>
</svg>
