<svg width="38" height="38" viewBox="0 0 38 38" fill="none" xmlns="http://www.w3.org/2000/svg">
<path d="M37.9998 18.9999C37.9998 29.4933 29.4933 37.9998 18.9999 37.9998C8.50652 37.9998 0 29.4933 0 18.9999C0 19.004 18.9999 0.00271427 18.9999 0C29.4933 0 37.9998 8.50652 37.9998 18.9999Z" fill="#0052B4"/>
<path d="M18.9494 18.9999H18.9996V18.9497L18.9494 18.9999Z" fill="#F1F5F7"/>
<path d="M18.9999 9.9138V0.00126896H18.9972C8.50514 0.0026261 0 8.50779 0 19.0012H9.91253V13.418L15.4944 19.0012H18.9497L18.9999 18.9496V15.4957L13.4179 9.9138H18.9999Z" fill="#F1F5F7"/>
<path d="M9.6125 2.4781C6.63749 4.1733 4.17323 6.63757 2.47802 9.61258V18.9999H7.43425V7.43441H18.9998V2.4781H9.6125Z" fill="#D80027"/>
<path d="M18.9996 16.6629L12.2492 9.91252H9.91359L18.9996 18.9999V16.6629Z" fill="#D80027"/>
<path d="M11.458 22.3045L12.5003 24.4841L14.8549 23.9399L13.8004 26.1153L15.695 27.6163L13.3362 28.1484L13.343 30.5653L11.458 29.0536L9.57296 30.5653L9.57975 28.1484L7.221 27.6163L9.11556 26.1153L8.06109 23.9399L10.4157 24.4841L11.458 22.3045ZM28.4453 26.4343L28.9664 27.5254L30.1444 27.2526L29.6165 28.3397L30.5637 29.0915L29.3844 29.3561L29.3884 30.5653L28.4453 29.8095L27.5034 30.5653L27.5061 29.3561L26.3267 29.0915L27.274 28.3397L26.7475 27.2526L27.9241 27.5254L28.4453 26.4343ZM23.5948 14.8701L24.116 15.9599L25.294 15.6871L24.766 16.7756L25.7134 17.526L24.534 17.792L24.5381 18.9999L23.5948 18.2439L22.6516 18.9999L22.6557 17.792L21.4764 17.526L22.4237 16.7756L21.8957 15.6871L23.0737 15.9599L23.5948 14.8701ZM28.4453 8.26083L28.9664 9.35067L30.1444 9.07922L29.6165 10.1663L30.5637 10.9168L29.3844 11.1828L29.3884 12.3906L28.4453 11.6347L27.5034 12.3906L27.5061 11.1828L26.3267 10.9168L27.274 10.1663L26.7475 9.07922L27.9241 9.35067L28.4453 8.26083ZM32.6822 13.2171L33.2047 14.3069L34.3813 14.0354L33.8548 15.1225L34.8007 15.873L33.6227 16.1391L33.6254 17.3483L32.6822 16.5923L31.7404 17.3483L31.7431 16.1391L30.5637 15.873L31.511 15.1225L30.9844 14.0354L32.1611 14.3069L32.6822 13.2171ZM29.6531 18.9999L30.0643 20.262H31.3902L30.3167 21.0424L30.7279 22.3045L29.6531 21.5241L28.5796 22.3045L28.9894 21.0424L27.916 20.262H29.2432L29.6531 18.9999Z" fill="#F1F5F7"/>
</svg>
