<svg width="352" height="354" viewBox="0 0 352 354" fill="none" xmlns="http://www.w3.org/2000/svg">
<path d="M339.757 0H12.2435C5.48161 0 0 5.48157 0 12.2435V340.778C0 347.539 5.48161 353.021 12.2435 353.021H339.757C346.518 353.021 352 347.539 352 340.778V12.2435C352 5.48157 346.518 0 339.757 0Z" fill="white"/>
<path opacity="0.3" d="M175.49 176.511H0V353.021H175.49V176.511Z" fill="#A0EBAA"/>
<path opacity="0.3" d="M350.981 176.511H175.491V353.021H350.981V176.511Z" fill="#FFE5B5"/>
<path opacity="0.3" d="M175.49 0.00222778H0V176.512H175.49V0.00222778Z" fill="#A0EBAA"/>
<path opacity="0.3" d="M350.981 0.00231934H175.491V176.512H350.981V0.00231934Z" fill="#A0EBAA"/>
<path d="M251.695 176.798C251.695 135.275 218.035 101.613 176.511 101.613" stroke="url(#paint0_linear_103_967)" stroke-width="4.10096" stroke-linecap="round"/>
<path d="M244.86 176.791C244.86 139.044 214.259 108.443 176.511 108.443" stroke="url(#paint1_linear_103_967)" stroke-width="4.10096" stroke-linecap="round"/>
<path d="M258.53 176.797C258.53 131.5 221.809 94.7786 176.511 94.7786" stroke="url(#paint2_linear_103_967)" stroke-width="4.10096" stroke-linecap="round"/>
<path d="M265.365 176.797C265.365 127.724 225.584 87.9425 176.511 87.9425" stroke="url(#paint3_linear_103_967)" stroke-width="4.10096" stroke-linecap="round"/>
<path d="M272.2 176.796C272.2 123.949 229.359 81.1076 176.511 81.1076" stroke="url(#paint4_linear_103_967)" stroke-width="4.10096" stroke-linecap="round"/>
<path d="M279.035 176.798C279.035 120.175 233.133 74.2739 176.511 74.2739" stroke="url(#paint5_linear_103_967)" stroke-width="4.10096" stroke-linecap="round"/>
<path d="M285.87 176.795C285.87 116.398 236.909 67.4366 176.511 67.4366" stroke="url(#paint6_linear_103_967)" stroke-width="4.10096" stroke-linecap="round"/>
<path d="M292.704 176.388C292.704 112.217 240.683 60.194 176.511 60.194" stroke="url(#paint7_linear_103_967)" stroke-width="4.10096" stroke-linecap="round"/>
<path d="M299.539 176.796C299.539 108.849 244.458 53.7668 176.511 53.7668" stroke="url(#paint8_linear_103_967)" stroke-width="4.10096" stroke-linecap="round"/>
<path d="M306.374 176.795C306.374 105.074 248.233 46.9319 176.511 46.9319" stroke="url(#paint9_linear_103_967)" stroke-width="4.10096" stroke-linecap="round"/>
<path d="M99.2876 176.796C99.2876 135.273 132.948 101.611 174.471 101.611" stroke="url(#paint10_linear_103_967)" stroke-width="4.10096" stroke-linecap="round"/>
<path d="M106.123 176.796C106.123 139.048 136.724 108.447 174.472 108.447" stroke="url(#paint11_linear_103_967)" stroke-width="4.10096" stroke-linecap="round"/>
<path d="M92.4526 176.797C92.4526 131.5 129.174 94.7786 174.471 94.7786" stroke="url(#paint12_linear_103_967)" stroke-width="4.10096" stroke-linecap="round"/>
<path d="M85.6167 176.797C85.6167 127.724 125.398 87.9425 174.472 87.9425" stroke="url(#paint13_linear_103_967)" stroke-width="4.10096" stroke-linecap="round"/>
<path d="M78.7817 176.796C78.7817 123.949 121.624 81.1076 174.471 81.1076" stroke="url(#paint14_linear_103_967)" stroke-width="4.10096" stroke-linecap="round"/>
<path d="M71.9468 176.796C71.9468 120.173 117.848 74.2715 174.471 74.2715" stroke="url(#paint15_linear_103_967)" stroke-width="4.10096" stroke-linecap="round"/>
<path d="M65.1123 176.797C65.1123 116.4 114.075 67.4389 174.472 67.4389" stroke="url(#paint16_linear_103_967)" stroke-width="4.10096" stroke-linecap="round"/>
<path d="M58.2773 176.795C58.2773 112.622 110.299 60.6005 174.472 60.6005" stroke="url(#paint17_linear_103_967)" stroke-width="4.10096" stroke-linecap="round"/>
<path d="M51.4424 176.796C51.4424 108.849 106.525 53.7668 174.472 53.7668" stroke="url(#paint18_linear_103_967)" stroke-width="4.10096" stroke-linecap="round"/>
<path d="M44.6074 176.795C44.6074 105.074 102.75 46.9319 174.472 46.9319" stroke="url(#paint19_linear_103_967)" stroke-width="4.10096" stroke-linecap="round"/>
<path d="M37.7725 176.795C37.7725 101.298 98.9747 40.0959 174.472 40.0959" stroke="url(#paint20_linear_103_967)" stroke-width="4.10096" stroke-linecap="round"/>
<path d="M251.695 178.094C251.695 219.617 218.035 253.278 176.511 253.278" stroke="url(#paint21_linear_103_967)" stroke-width="4.10096" stroke-linecap="round"/>
<path d="M244.86 178.094C244.86 215.842 214.259 246.443 176.511 246.443" stroke="url(#paint22_linear_103_967)" stroke-width="4.10096" stroke-linecap="round"/>
<path d="M258.53 178.093C258.53 223.39 221.809 260.112 176.511 260.112" stroke="url(#paint23_linear_103_967)" stroke-width="4.10096" stroke-linecap="round"/>
<path d="M265.365 178.095C265.365 227.168 225.584 266.95 176.511 266.95" stroke="url(#paint24_linear_103_967)" stroke-width="4.10096" stroke-linecap="round"/>
<path d="M272.2 178.094C272.2 230.941 229.359 273.782 176.511 273.782" stroke="url(#paint25_linear_103_967)" stroke-width="4.10096" stroke-linecap="round"/>
<path d="M279.035 178.094C279.035 234.717 233.133 280.619 176.511 280.619" stroke="url(#paint26_linear_103_967)" stroke-width="4.10096" stroke-linecap="round"/>
<path d="M285.87 178.095C285.87 238.492 236.909 287.453 176.511 287.453" stroke="url(#paint27_linear_103_967)" stroke-width="4.10096" stroke-linecap="round"/>
<path d="M99.2876 178.092C99.2876 219.615 132.948 253.277 174.471 253.277" stroke="url(#paint28_linear_103_967)" stroke-width="4.10096" stroke-linecap="round"/>
<path d="M106.123 178.096C106.123 215.844 136.724 246.445 174.472 246.445" stroke="url(#paint29_linear_103_967)" stroke-width="4.10096" stroke-linecap="round"/>
<path d="M92.4526 178.093C92.4526 223.39 129.174 260.112 174.471 260.112" stroke="url(#paint30_linear_103_967)" stroke-width="4.10096" stroke-linecap="round"/>
<path d="M85.6167 178.093C85.6167 227.166 125.398 266.948 174.472 266.948" stroke="url(#paint31_linear_103_967)" stroke-width="4.10096" stroke-linecap="round"/>
<path d="M78.7817 178.094C78.7817 230.941 121.624 273.782 174.471 273.782" stroke="url(#paint32_linear_103_967)" stroke-width="4.10096" stroke-linecap="round"/>
<path d="M71.9468 178.094C71.9468 234.717 117.848 280.619 174.471 280.619" stroke="url(#paint33_linear_103_967)" stroke-width="4.10096" stroke-linecap="round"/>
<path d="M65.1123 178.095C65.1123 238.492 114.075 287.453 174.472 287.453" stroke="url(#paint34_linear_103_967)" stroke-width="4.10096" stroke-linecap="round"/>
<path d="M58.2773 178.095C58.2773 242.268 110.299 294.29 174.472 294.29" stroke="url(#paint35_linear_103_967)" stroke-width="4.10096" stroke-linecap="round"/>
<path d="M51.4424 178.094C51.4424 246.041 106.525 301.122 174.472 301.122" stroke="url(#paint36_linear_103_967)" stroke-width="4.10096" stroke-linecap="round"/>
<path d="M44.6074 178.095C44.6074 249.817 102.75 307.958 174.472 307.958" stroke="url(#paint37_linear_103_967)" stroke-width="4.10096" stroke-linecap="round"/>
<path d="M174.981 352.511V0.510498" stroke="white" stroke-width="3.06087"/>
<path d="M0 177.02H352" stroke="white" stroke-width="3.06087"/>
<g filter="url(#filter0_d_103_967)">
<path d="M175.49 244.874C212.68 244.874 242.829 214.725 242.829 177.534C242.829 140.344 212.68 110.195 175.49 110.195C138.3 110.195 108.151 140.344 108.151 177.534C108.151 214.725 138.3 244.874 175.49 244.874Z" fill="white"/>
</g>
<path d="M151.466 207.588C153.239 207.588 154.384 206.207 154.384 204.591C154.384 202.975 153.239 201.594 151.466 201.594C149.693 201.594 148.548 202.975 148.548 204.591C148.548 206.207 149.693 207.588 151.466 207.588ZM151.466 206.713C150.299 206.713 149.535 205.826 149.535 204.591C149.535 203.357 150.299 202.47 151.466 202.47C152.633 202.47 153.396 203.357 153.396 204.591C153.396 205.826 152.633 206.713 151.466 206.713ZM158.558 207.588C160.039 207.588 161.004 206.679 161.004 205.31V201.751H160.061V205.254C160.061 206.207 159.512 206.713 158.558 206.713C157.603 206.713 157.054 206.207 157.054 205.254V201.751H156.112V205.31C156.112 206.679 157.077 207.588 158.558 207.588ZM165.277 207.52C165.557 207.52 165.928 207.486 166.298 207.374V206.589C165.973 206.655 165.659 206.689 165.411 206.689C164.772 206.689 164.492 206.465 164.492 205.904V202.56H166.276V201.751H164.492V200.068H163.549V201.751H162.415V202.56H163.549V205.971C163.549 206.993 164.166 207.52 165.277 207.52ZM173.286 207.588C175.059 207.588 176.204 206.207 176.204 204.591C176.204 202.975 175.059 201.594 173.286 201.594C171.513 201.594 170.368 202.975 170.368 204.591C170.368 206.207 171.513 207.588 173.286 207.588ZM173.286 206.713C172.119 206.713 171.356 205.826 171.356 204.591C171.356 203.357 172.119 202.47 173.286 202.47C174.454 202.47 175.217 203.357 175.217 204.591C175.217 205.826 174.454 206.713 173.286 206.713ZM178.384 207.43H179.326V202.56H180.988V201.751H179.326V200.909C179.326 200.214 179.618 199.934 180.269 199.934C180.46 199.934 180.718 199.956 181.01 200.012V199.215C180.673 199.136 180.381 199.114 180.145 199.114C178.967 199.114 178.384 199.652 178.384 200.887V201.751H177.217V202.56H178.384V207.43ZM186.953 199.574L184.697 200.73V201.684L186.784 200.618V207.43H187.75V199.574H186.953ZM193.143 207.588C195.074 207.588 196.297 206.083 196.297 203.503C196.297 200.921 195.074 199.417 193.143 199.417C191.214 199.417 189.991 200.921 189.991 203.503C189.991 206.083 191.214 207.588 193.143 207.588ZM193.143 206.689C191.774 206.689 191 205.657 191 203.503C191 201.347 191.774 200.315 193.143 200.315C194.514 200.315 195.288 201.347 195.288 203.503C195.288 205.657 194.514 206.689 193.143 206.689ZM201.249 207.588C203.179 207.588 204.402 206.083 204.402 203.503C204.402 200.921 203.179 199.417 201.249 199.417C199.318 199.417 198.095 200.921 198.095 203.503C198.095 206.083 199.318 207.588 201.249 207.588ZM201.249 206.689C199.879 206.689 199.106 205.657 199.106 203.503C199.106 201.347 199.879 200.315 201.249 200.315C202.618 200.315 203.393 201.347 203.393 203.503C203.393 205.657 202.618 206.689 201.249 206.689Z" fill="#6C767B"/>
<path d="M148.01 159.256V165.989H165.304L151.019 194.966H159.183L173.364 165.377V159.256H148.01ZM196.335 176.601C199.957 175.071 201.895 172.213 201.895 168.592C201.895 163.032 197.354 158.541 189.039 158.541C180.673 158.541 176.133 163.032 176.133 168.592C176.133 172.213 178.072 175.071 181.744 176.601C177.408 178.131 175.113 181.142 175.113 185.273C175.113 191.293 180.061 195.681 189.039 195.681C197.968 195.681 202.916 191.293 202.916 185.273C202.916 181.142 200.619 178.131 196.335 176.601ZM189.039 164.612C192.815 164.612 194.651 166.449 194.651 169.254C194.651 172.112 192.815 173.897 189.039 173.897C185.214 173.897 183.377 172.112 183.377 169.254C183.377 166.449 185.214 164.612 189.039 164.612ZM189.039 189.355C184.652 189.355 182.714 187.366 182.714 184.56C182.714 181.702 184.652 179.713 189.039 179.713C193.324 179.713 195.315 181.702 195.315 184.56C195.315 187.366 193.324 189.355 189.039 189.355Z" fill="#004061"/>
<path d="M258.597 335.264H260.409V326.693H258.597V335.264ZM265.925 328.848C264.995 328.848 264.272 329.264 263.929 329.925V329.02H262.227V335.264H263.966V331.738C263.966 330.893 264.455 330.428 265.263 330.428C266.011 330.428 266.329 330.819 266.329 331.627V335.264H268.067V331.174C268.067 329.681 267.247 328.848 265.925 328.848ZM270.204 335.264H271.943V330.537H273.559V329.02H271.943V328.457C271.943 327.942 272.2 327.698 272.861 327.698C273.081 327.698 273.302 327.722 273.559 327.771V326.302C273.192 326.228 272.837 326.192 272.506 326.192C270.878 326.192 270.204 326.963 270.204 328.272V329.02H269.053V330.537H270.204V335.264ZM274.615 335.264H276.353V326.302H274.615V335.264ZM282.528 329.02V329.95C282.16 329.252 281.377 328.848 280.483 328.848C278.855 328.848 277.667 330.195 277.667 332.141C277.667 334.089 278.855 335.436 280.483 335.436C281.377 335.436 282.16 335.031 282.528 334.333V335.264H284.241V329.02H282.528ZM280.997 333.868C280.03 333.868 279.43 333.17 279.43 332.141C279.43 331.113 280.03 330.416 280.997 330.416C281.965 330.416 282.564 331.113 282.564 332.141C282.564 333.17 281.965 333.868 280.997 333.868ZM293.48 328.848C292.525 328.848 291.729 329.302 291.399 330.012C291.104 329.264 290.418 328.848 289.538 328.848C288.656 328.848 287.945 329.277 287.603 329.925V329.02H285.901V335.264H287.639V331.725C287.639 330.893 288.117 330.428 288.877 330.428C289.574 330.428 289.868 330.807 289.868 331.603V335.264H291.606V331.725C291.606 330.893 292.084 330.428 292.855 330.428C293.541 330.428 293.835 330.807 293.835 331.603V335.264H295.574V331.174C295.574 329.693 294.79 328.848 293.48 328.848ZM304.767 328.848C303.811 328.848 303.016 329.302 302.685 330.012C302.392 329.264 301.706 328.848 300.824 328.848C299.943 328.848 299.232 329.277 298.89 329.925V329.02H297.188V335.264H298.926V331.725C298.926 330.893 299.404 330.428 300.163 330.428C300.861 330.428 301.155 330.807 301.155 331.603V335.264H302.893V331.725C302.893 330.893 303.371 330.428 304.142 330.428C304.828 330.428 305.122 330.807 305.122 331.603V335.264H306.86V331.174C306.86 329.693 306.077 328.848 304.767 328.848ZM312.98 329.02V329.95C312.613 329.252 311.83 328.848 310.936 328.848C309.308 328.848 308.12 330.195 308.12 332.141C308.12 334.089 309.308 335.436 310.936 335.436C311.83 335.436 312.613 335.031 312.98 334.333V335.264H314.695V329.02H312.98ZM311.45 333.868C310.483 333.868 309.884 333.17 309.884 332.141C309.884 331.113 310.483 330.416 311.45 330.416C312.417 330.416 313.018 331.113 313.018 332.141C313.018 333.17 312.417 333.868 311.45 333.868ZM319.085 335.349C319.525 335.349 319.941 335.3 320.334 335.19V333.709C320.04 333.783 319.722 333.807 319.489 333.807C318.876 333.807 318.644 333.611 318.644 333.06V330.537H320.309V329.02H318.644V327.184H316.905V329.02H315.766V330.537H316.905V333.329C316.905 334.75 317.566 335.349 319.085 335.349ZM322.473 328.102C323.122 328.102 323.55 327.673 323.55 327.061C323.55 326.449 323.122 326.02 322.473 326.02C321.824 326.02 321.396 326.449 321.396 327.061C321.396 327.673 321.824 328.102 322.473 328.102ZM321.604 335.264H323.342V329.02H321.604V335.264ZM327.998 335.436C330.042 335.436 331.34 333.966 331.34 332.141C331.34 330.305 330.042 328.848 327.998 328.848C325.966 328.848 324.668 330.305 324.668 332.141C324.668 333.966 325.966 335.436 327.998 335.436ZM327.998 333.868C327.031 333.868 326.431 333.17 326.431 332.141C326.431 331.113 327.031 330.416 327.998 330.416C328.965 330.416 329.565 331.113 329.565 332.141C329.565 333.17 328.965 333.868 327.998 333.868ZM336.336 328.848C335.407 328.848 334.684 329.264 334.341 329.925V329.02H332.639V335.264H334.377V331.738C334.377 330.893 334.868 330.428 335.675 330.428C336.423 330.428 336.741 330.819 336.741 331.627V335.264H338.479V331.174C338.479 329.681 337.659 328.848 336.336 328.848Z" fill="#004061"/>
<path d="M21.6003 310.369L18.9813 314.875L16.3612 310.369H14.2305V318.939H16.006V312.965L18.2956 316.87H19.6659L21.9555 312.965V318.939H23.7311V310.369H21.6003ZM31.4398 315.731C31.4398 313.785 30.2156 312.523 28.3664 312.523C26.4447 312.523 25.1714 313.908 25.1714 315.842C25.1714 317.837 26.5055 319.111 28.5381 319.111C29.7015 319.111 30.6197 318.695 31.2073 317.984L30.2155 316.956C29.7985 317.409 29.2483 317.629 28.5988 317.629C27.6806 317.629 27.0931 317.201 26.9214 316.332H31.4024C31.4269 316.124 31.4398 315.927 31.4398 315.731ZM28.3792 313.993C29.1864 313.993 29.6525 314.433 29.7132 315.205H26.9214C27.0685 314.422 27.5708 313.993 28.3792 313.993ZM35.3461 319.025C35.7877 319.025 36.2035 318.976 36.596 318.866V317.384C36.3016 317.458 35.9827 317.482 35.7503 317.482C35.1382 317.482 34.9057 317.287 34.9057 316.736V314.214H36.5715V312.695H34.9057V310.859H33.1675V312.695H32.0285V314.214H33.1675V317.004C33.1675 318.425 33.8286 319.025 35.3461 319.025ZM42.2511 312.695V313.626C41.8843 312.927 41.1004 312.523 40.2068 312.523C38.5784 312.523 37.3904 313.87 37.3904 315.818C37.3904 317.764 38.5784 319.111 40.2068 319.111C41.1004 319.111 41.8843 318.706 42.2511 318.009V318.939H43.9659V312.695H42.2511ZM40.7208 317.544C39.7536 317.544 39.1531 316.845 39.1531 315.818C39.1531 314.788 39.7536 314.091 40.7208 314.091C41.688 314.091 42.2884 314.788 42.2884 315.818C42.2884 316.845 41.688 317.544 40.7208 317.544ZM49.371 312.523C48.5019 312.523 47.7426 312.903 47.3641 313.564V309.977H45.6247V318.939H47.3267V317.996C47.6947 318.706 48.4773 319.111 49.371 319.111C51.0122 319.111 52.2003 317.764 52.2003 315.818C52.2003 313.87 51.0122 312.523 49.371 312.523ZM48.857 317.544C47.8897 317.544 47.3022 316.845 47.3022 315.818C47.3022 314.788 47.8897 314.091 48.857 314.091C49.8242 314.091 50.4247 314.788 50.4247 315.818C50.4247 316.845 49.8242 317.544 48.857 317.544ZM56.4792 319.111C58.5247 319.111 59.8225 317.641 59.8225 315.818C59.8225 313.981 58.5247 312.523 56.4792 312.523C54.4466 312.523 53.1488 313.981 53.1488 315.818C53.1488 317.641 54.4466 319.111 56.4792 319.111ZM56.4792 317.544C55.512 317.544 54.9127 316.845 54.9127 315.818C54.9127 314.788 55.512 314.091 56.4792 314.091C57.4465 314.091 58.0469 314.788 58.0469 315.818C58.0469 316.845 57.4465 317.544 56.4792 317.544ZM61.1204 318.939H62.8597V309.977H61.1204V318.939ZM65.4098 311.777C66.0582 311.777 66.4869 311.348 66.4869 310.736C66.4869 310.124 66.0582 309.695 65.4098 309.695C64.7615 309.695 64.3328 310.124 64.3328 310.736C64.3328 311.348 64.7615 311.777 65.4098 311.777ZM64.5407 318.939H66.2789V312.695H64.5407V318.939ZM70.8733 319.111C72.0975 319.111 73.1138 318.584 73.6289 317.666L72.3312 316.76C71.9877 317.287 71.4854 317.531 70.9224 317.531C69.9925 317.531 69.3676 316.87 69.3676 315.818C69.3676 314.764 69.9925 314.103 70.9224 314.103C71.4854 314.103 71.9877 314.348 72.3312 314.875L73.6289 313.957C73.1138 313.05 72.0975 312.523 70.8733 312.523C68.9026 312.523 67.6048 313.87 67.6048 315.818C67.6048 317.752 68.9026 319.111 70.8733 319.111ZM19.8376 326.723V330.078H16.0422V326.723H14.2305V335.293H16.0422V331.743H19.8376V335.293H21.6378V326.723H19.8376ZM29.3476 332.085C29.3476 330.139 28.1234 328.878 26.2742 328.878C24.3514 328.878 23.0781 330.262 23.0781 332.196C23.0781 334.191 24.4133 335.465 26.4459 335.465C27.6082 335.465 28.5276 335.049 29.1151 334.339L28.1234 333.311C27.7064 333.763 27.1561 333.984 26.5066 333.984C25.5884 333.984 25.0009 333.555 24.8292 332.686H29.3102C29.3348 332.478 29.3476 332.281 29.3476 332.085ZM26.2859 330.347C27.0942 330.347 27.5603 330.787 27.6211 331.56H24.8292C24.9764 330.776 25.4787 330.347 26.2859 330.347ZM35.137 329.049V329.98C34.7702 329.282 33.9863 328.878 33.0927 328.878C31.4643 328.878 30.2762 330.224 30.2762 332.172C30.2762 334.118 31.4643 335.465 33.0927 335.465C33.9863 335.465 34.7702 335.061 35.137 334.363V335.293H36.8507V329.049H35.137ZM33.6067 333.898C32.6394 333.898 32.039 333.2 32.039 332.172C32.039 331.143 32.6394 330.445 33.6067 330.445C34.5739 330.445 35.1743 331.143 35.1743 332.172C35.1743 333.2 34.5739 333.898 33.6067 333.898ZM38.5106 335.293H40.25V326.331H38.5106V335.293ZM44.6493 335.379C45.0897 335.379 45.5056 335.33 45.8981 335.221V333.738C45.6037 333.812 45.286 333.836 45.0523 333.836C44.4402 333.836 44.2077 333.641 44.2077 333.09V330.568H45.8736V329.049H44.2077V327.213H42.4695V329.049H41.3305V330.568H42.4695V333.359C42.4695 334.779 43.1307 335.379 44.6493 335.379ZM50.8534 328.878C49.9469 328.878 49.2495 329.27 48.8944 329.894V326.331H47.155V335.293H48.8944V331.768C48.8944 330.923 49.3838 330.457 50.1922 330.457C50.9386 330.457 51.2575 330.849 51.2575 331.658V335.293H52.9958V331.204C52.9958 329.71 52.1758 328.878 50.8534 328.878Z" fill="#004061"/>
<path d="M19.8376 16.5248V19.8797H16.0422V16.5248H14.2305V25.0956H16.0422V21.5443H19.8376V25.0956H21.6378V16.5248H19.8376ZM29.3476 21.8866C29.3476 19.9405 28.1234 18.6788 26.2742 18.6788C24.3514 18.6788 23.0781 20.0631 23.0781 21.9976C23.0781 23.9928 24.4133 25.2661 26.4459 25.2661C27.6082 25.2661 28.5276 24.8502 29.1151 24.14L28.1234 23.112C27.7064 23.5641 27.1561 23.7849 26.5066 23.7849C25.5884 23.7849 25.0009 23.3562 24.8292 22.4871H29.3102C29.3348 22.2791 29.3476 22.0829 29.3476 21.8866ZM26.2859 20.1484C27.0942 20.1484 27.5603 20.59 27.6211 21.361H24.8292C24.9764 20.5771 25.4787 20.1484 26.2859 20.1484ZM35.137 18.8506V19.7816C34.7702 19.083 33.9863 18.6788 33.0927 18.6788C31.4643 18.6788 30.2762 20.0257 30.2762 21.9731C30.2762 23.9192 31.4643 25.2661 33.0927 25.2661C33.9863 25.2661 34.7702 24.8619 35.137 24.1645V25.0956H36.8507V18.8506H35.137ZM33.6067 23.6996C32.6394 23.6996 32.039 23.001 32.039 21.9731C32.039 20.9439 32.6394 20.2465 33.6067 20.2465C34.5739 20.2465 35.1743 20.9439 35.1743 21.9731C35.1743 23.001 34.5739 23.6996 33.6067 23.6996ZM42.0244 18.7279C41.1927 18.7279 40.5187 19.1566 40.2127 19.8797V18.8506H38.5106V25.0956H40.25V22.0712C40.25 20.8832 40.7512 20.3937 41.792 20.3937C42.0245 20.3937 42.2943 20.4182 42.5513 20.4673V18.8143C42.3924 18.7524 42.2207 18.7279 42.0244 18.7279ZM46.5861 25.1808C47.0265 25.1808 47.4423 25.1317 47.8348 25.0219V23.5396C47.5405 23.6132 47.2228 23.6377 46.9903 23.6377C46.3782 23.6377 46.1446 23.4426 46.1446 22.8912V20.3692H47.8103V18.8506H46.1446V17.0142H44.4063V18.8506H43.2674V20.3692H44.4063V23.1611C44.4063 24.5804 45.0675 25.1808 46.5861 25.1808ZM19.8376 32.879V36.2339H16.0422V32.879H14.2305V41.4498H16.0422V37.8986H19.8376V41.4498H21.6378V32.879H19.8376ZM29.3476 38.2408C29.3476 36.2947 28.1234 35.0331 26.2742 35.0331C24.3514 35.0331 23.0781 36.4173 23.0781 38.3518C23.0781 40.347 24.4133 41.6203 26.4459 41.6203C27.6082 41.6203 28.5276 41.2045 29.1151 40.4942L28.1234 39.4662C27.7064 39.9183 27.1561 40.1391 26.5066 40.1391C25.5884 40.1391 25.0009 39.7104 24.8292 38.8413H29.3102C29.3348 38.6333 29.3476 38.4371 29.3476 38.2408ZM26.2859 36.5026C27.0942 36.5026 27.5603 36.9442 27.6211 37.7152H24.8292C24.9764 36.9313 25.4787 36.5026 26.2859 36.5026ZM35.137 35.2048V36.1358C34.7702 35.4372 33.9863 35.0331 33.0927 35.0331C31.4643 35.0331 30.2762 36.38 30.2762 38.3273C30.2762 40.2734 31.4643 41.6203 33.0927 41.6203C33.9863 41.6203 34.7702 41.2161 35.137 40.5188V41.4498H36.8507V35.2048H35.137ZM33.6067 40.0538C32.6394 40.0538 32.039 39.3553 32.039 38.3273C32.039 37.2981 32.6394 36.6007 33.6067 36.6007C34.5739 36.6007 35.1743 37.2981 35.1743 38.3273C35.1743 39.3553 34.5739 40.0538 33.6067 40.0538ZM38.5106 41.4498H40.25V32.4865H38.5106V41.4498ZM44.6493 41.535C45.0897 41.535 45.5056 41.486 45.8981 41.3762V39.8938C45.6037 39.9674 45.286 39.9919 45.0523 39.9919C44.4402 39.9919 44.2077 39.7968 44.2077 39.2455V36.7234H45.8736V35.2048H44.2077V33.3685H42.4695V35.2048H41.3305V36.7234H42.4695V39.5153C42.4695 40.9346 43.1307 41.535 44.6493 41.535ZM50.8534 35.0331C49.9469 35.0331 49.2495 35.4256 48.8944 36.0494V32.4865H47.155V41.4498H48.8944V37.9231C48.8944 37.0785 49.3838 36.6136 50.1922 36.6136C50.9386 36.6136 51.2575 37.0049 51.2575 37.8133V41.4498H52.9958V37.36C52.9958 35.866 52.1758 35.0331 50.8534 35.0331Z" fill="#004061"/>
<path d="M275.405 27.308C277.119 27.308 278.539 26.5125 279.25 24.9694L277.706 24.1622C277.241 25.1539 276.409 25.606 275.441 25.606C273.899 25.606 272.87 24.4554 272.87 22.8515C272.87 21.2477 273.899 20.097 275.441 20.097C276.409 20.097 277.229 20.5503 277.695 21.542L279.25 20.7336C278.539 19.1905 277.119 18.395 275.405 18.395C272.748 18.395 270.985 20.3178 270.985 22.8644C270.985 25.4226 272.772 27.308 275.405 27.308ZM284.014 20.7219C283.109 20.7219 282.411 21.1133 282.055 21.7371V18.1742H280.317V27.1375H282.055V23.6108C282.055 22.7663 282.546 22.3013 283.353 22.3013C284.101 22.3013 284.419 22.6927 284.419 23.501V27.1375H286.158V23.0478C286.158 21.5537 285.337 20.7219 284.014 20.7219ZM290.754 27.308C292.798 27.308 294.096 25.8397 294.096 24.015C294.096 22.1786 292.798 20.7219 290.754 20.7219C288.721 20.7219 287.423 22.1786 287.423 24.015C287.423 25.8397 288.721 27.308 290.754 27.308ZM290.754 25.7416C289.786 25.7416 289.186 25.043 289.186 24.015C289.186 22.9858 289.786 22.2885 290.754 22.2885C291.721 22.2885 292.32 22.9858 292.32 24.015C292.32 25.043 291.721 25.7416 290.754 25.7416ZM295.395 27.1375H297.133V18.1742H295.395V27.1375ZM304.715 23.9297C304.715 21.9824 303.491 20.7219 301.643 20.7219C299.72 20.7219 298.447 22.1051 298.447 24.0395C298.447 26.0348 299.781 27.308 301.814 27.308C302.977 27.308 303.895 26.8922 304.483 26.1819L303.491 25.1539C303.075 25.606 302.524 25.8268 301.876 25.8268C300.957 25.8268 300.37 25.3981 300.198 24.529H304.679C304.704 24.321 304.715 24.1248 304.715 23.9297ZM301.655 22.1903C302.463 22.1903 302.928 22.6319 302.989 23.4029H300.198C300.345 22.6191 300.847 22.1903 301.655 22.1903ZM308.4 27.308C310.102 27.308 311.094 26.5008 311.094 25.2392C311.094 24.3701 310.616 23.758 309.282 23.4519L308.204 23.1949C307.653 23.0723 307.469 22.9134 307.469 22.6798C307.469 22.3738 307.75 22.1787 308.351 22.1787C308.938 22.1787 309.55 22.3737 310.151 22.827L310.995 21.6764C310.432 21.0888 309.477 20.7219 308.375 20.7219C306.722 20.7219 305.743 21.5537 305.743 22.7417C305.743 23.5991 306.257 24.2113 307.567 24.5173L308.608 24.7614C309.135 24.8841 309.354 25.0558 309.354 25.3374C309.354 25.6551 309.024 25.8642 308.411 25.8642C307.641 25.8642 306.857 25.5453 306.356 25.0558L305.51 26.1948C306.122 26.8922 307.176 27.308 308.4 27.308ZM315.043 27.2228C315.485 27.2228 315.901 27.1737 316.292 27.0639V25.5815C315.999 25.6551 315.68 25.6796 315.447 25.6796C314.835 25.6796 314.603 25.4845 314.603 24.9332V22.4111H316.267V20.8925H314.603V19.0562H312.864V20.8925H311.726V22.4111H312.864V25.203C312.864 26.6224 313.526 27.2228 315.043 27.2228ZM323.356 23.9297C323.356 21.9824 322.131 20.7219 320.283 20.7219C318.361 20.7219 317.087 22.1051 317.087 24.0395C317.087 26.0348 318.421 27.308 320.454 27.308C321.617 27.308 322.536 26.8922 323.123 26.1819L322.132 25.1539C321.716 25.606 321.164 25.8268 320.516 25.8268C319.598 25.8268 319.009 25.3981 318.838 24.529H323.319C323.344 24.321 323.356 24.1248 323.356 23.9297ZM320.295 22.1903C321.104 22.1903 321.568 22.6319 321.629 23.4029H318.838C318.986 22.6191 319.487 22.1903 320.295 22.1903ZM328.155 20.7699C327.322 20.7699 326.648 21.1986 326.342 21.9217V20.8925H324.641V27.1375H326.379V24.1131C326.379 22.9251 326.881 22.4356 327.922 22.4356C328.154 22.4356 328.423 22.4602 328.68 22.5093V20.8563C328.521 20.7944 328.35 20.7699 328.155 20.7699ZM332.541 27.308C334.586 27.308 335.884 25.8397 335.884 24.015C335.884 22.1786 334.586 20.7219 332.541 20.7219C330.51 20.7219 329.212 22.1786 329.212 24.015C329.212 25.8397 330.51 27.308 332.541 27.308ZM332.541 25.7416C331.574 25.7416 330.974 25.043 330.974 24.015C330.974 22.9858 331.574 22.2885 332.541 22.2885C333.508 22.2885 334.109 22.9858 334.109 24.015C334.109 25.043 333.508 25.7416 332.541 25.7416ZM337.182 27.1375H338.921V18.1742H337.182V27.1375ZM296.858 39.0959C297.801 38.8144 298.34 38.1532 298.34 37.1615C298.34 35.8017 297.312 34.9209 295.646 34.9209H291.679V43.4917H295.94C297.629 43.4917 298.659 42.5969 298.659 41.1893C298.659 40.0503 297.997 39.3284 296.858 39.0959ZM295.132 36.4629C296.124 36.4629 296.49 36.769 296.49 37.4056C296.49 38.0434 296.124 38.3728 295.132 38.3728H293.467V36.4629H295.132ZM295.426 41.9486H293.467V39.8914H295.426C296.405 39.8914 296.785 40.2466 296.785 40.9323C296.785 41.618 296.405 41.9486 295.426 41.9486ZM304.587 37.2467V38.1778C304.22 37.4792 303.436 37.0762 302.543 37.0762C300.914 37.0762 299.726 38.4219 299.726 40.3692C299.726 42.3154 300.914 43.6622 302.543 43.6622C303.436 43.6622 304.22 43.2581 304.587 42.5607V43.4917H306.302V37.2467H304.587ZM303.057 42.0958C302.089 42.0958 301.489 41.3972 301.489 40.3692C301.489 39.3401 302.089 38.6427 303.057 38.6427C304.024 38.6427 304.624 39.3401 304.624 40.3692C304.624 41.3972 304.024 42.0958 303.057 42.0958ZM307.961 43.4917H309.7V34.5284H307.961V43.4917ZM315.874 37.2467V38.1778C315.507 37.4792 314.723 37.0762 313.829 37.0762C312.201 37.0762 311.013 38.4219 311.013 40.3692C311.013 42.3154 312.201 43.6622 313.829 43.6622C314.723 43.6622 315.507 43.2581 315.874 42.5607V43.4917H317.588V37.2467H315.874ZM314.343 42.0958C313.376 42.0958 312.777 41.3972 312.777 40.3692C312.777 39.3401 313.376 38.6427 314.343 38.6427C315.311 38.6427 315.911 39.3401 315.911 40.3692C315.911 41.3972 315.311 42.0958 314.343 42.0958ZM322.946 37.0762C322.015 37.0762 321.293 37.4921 320.949 38.1532V37.2467H319.247V43.4917H320.987V39.965C320.987 39.1205 321.476 38.6555 322.285 38.6555C323.031 38.6555 323.35 39.0469 323.35 39.8552V43.4917H325.088V39.402C325.088 37.9079 324.268 37.0762 322.946 37.0762ZM329.623 43.6622C330.847 43.6622 331.863 43.1366 332.377 42.2184L331.08 41.3119C330.737 41.8388 330.235 42.0829 329.672 42.0829C328.741 42.0829 328.117 41.4217 328.117 40.3692C328.117 39.3167 328.741 38.6555 329.672 38.6555C330.235 38.6555 330.737 38.8997 331.08 39.4265L332.377 38.5083C331.863 37.6019 330.847 37.0762 329.623 37.0762C327.651 37.0762 326.353 38.4219 326.353 40.3692C326.353 42.3037 327.651 43.6622 329.623 43.6622ZM339.306 40.2839C339.306 38.3366 338.082 37.0762 336.232 37.0762C334.311 37.0762 333.037 38.4593 333.037 40.3938C333.037 42.389 334.371 43.6622 336.404 43.6622C337.568 43.6622 338.486 43.2464 339.073 42.5362L338.082 41.5082C337.666 41.9602 337.114 42.181 336.466 42.181C335.548 42.181 334.959 41.7523 334.788 40.8832H339.27C339.294 40.6753 339.306 40.479 339.306 40.2839ZM336.245 38.5446C337.054 38.5446 337.518 38.9861 337.579 39.7571H334.788C334.934 38.9733 335.437 38.5446 336.245 38.5446Z" fill="#004061"/>
<defs>
<filter id="filter0_d_103_967" x="79.5829" y="86.0388" width="191.814" height="191.814" filterUnits="userSpaceOnUse" color-interpolation-filters="sRGB">
<feFlood flood-opacity="0" result="BackgroundImageFix"/>
<feColorMatrix in="SourceAlpha" type="matrix" values="0 0 0 0 0 0 0 0 0 0 0 0 0 0 0 0 0 0 127 0" result="hardAlpha"/>
<feOffset dy="4.41161"/>
<feGaussianBlur stdDeviation="14.284"/>
<feComposite in2="hardAlpha" operator="out"/>
<feColorMatrix type="matrix" values="0 0 0 0 0 0 0 0 0 0 0 0 0 0 0 0 0 0 0.08 0"/>
<feBlend mode="normal" in2="BackgroundImageFix" result="effect1_dropShadow_103_967"/>
<feBlend mode="normal" in="SourceGraphic" in2="effect1_dropShadow_103_967" result="shape"/>
</filter>
<linearGradient id="paint0_linear_103_967" x1="214.104" y1="101.613" x2="214.104" y2="176.798" gradientUnits="userSpaceOnUse">
<stop stop-color="#82DF8F"/>
<stop offset="1" stop-color="#6CF87C" stop-opacity="0.32"/>
</linearGradient>
<linearGradient id="paint1_linear_103_967" x1="210.686" y1="108.443" x2="210.686" y2="176.791" gradientUnits="userSpaceOnUse">
<stop stop-color="#82DF8F"/>
<stop offset="1" stop-color="#6CF87C" stop-opacity="0.32"/>
</linearGradient>
<linearGradient id="paint2_linear_103_967" x1="217.521" y1="94.7786" x2="217.521" y2="176.797" gradientUnits="userSpaceOnUse">
<stop stop-color="#82DF8F"/>
<stop offset="1" stop-color="#6CF87C" stop-opacity="0.32"/>
</linearGradient>
<linearGradient id="paint3_linear_103_967" x1="220.939" y1="87.9425" x2="220.939" y2="176.797" gradientUnits="userSpaceOnUse">
<stop stop-color="#82DF8F"/>
<stop offset="1" stop-color="#6CF87C" stop-opacity="0.32"/>
</linearGradient>
<linearGradient id="paint4_linear_103_967" x1="224.355" y1="81.1076" x2="224.355" y2="176.796" gradientUnits="userSpaceOnUse">
<stop stop-color="#82DF8F"/>
<stop offset="1" stop-color="#6CF87C" stop-opacity="0.32"/>
</linearGradient>
<linearGradient id="paint5_linear_103_967" x1="227.774" y1="74.2739" x2="227.774" y2="176.798" gradientUnits="userSpaceOnUse">
<stop stop-color="#82DF8F"/>
<stop offset="1" stop-color="#6CF87C" stop-opacity="0.32"/>
</linearGradient>
<linearGradient id="paint6_linear_103_967" x1="231.19" y1="67.4366" x2="231.19" y2="176.795" gradientUnits="userSpaceOnUse">
<stop stop-color="#82DF8F"/>
<stop offset="1" stop-color="#6CF87C" stop-opacity="0.32"/>
</linearGradient>
<linearGradient id="paint7_linear_103_967" x1="234.608" y1="60.194" x2="234.608" y2="176.388" gradientUnits="userSpaceOnUse">
<stop stop-color="#82DF8F"/>
<stop offset="1" stop-color="#6CF87C" stop-opacity="0.32"/>
</linearGradient>
<linearGradient id="paint8_linear_103_967" x1="238.025" y1="53.7668" x2="238.025" y2="176.796" gradientUnits="userSpaceOnUse">
<stop stop-color="#82DF8F"/>
<stop offset="1" stop-color="#6CF87C" stop-opacity="0.32"/>
</linearGradient>
<linearGradient id="paint9_linear_103_967" x1="241.443" y1="46.9319" x2="241.443" y2="176.795" gradientUnits="userSpaceOnUse">
<stop stop-color="#82DF8F"/>
<stop offset="1" stop-color="#6CF87C" stop-opacity="0.32"/>
</linearGradient>
<linearGradient id="paint10_linear_103_967" x1="136.879" y1="101.611" x2="136.879" y2="176.796" gradientUnits="userSpaceOnUse">
<stop stop-color="#86E894" stop-opacity="0.32"/>
<stop offset="1" stop-color="#82DF8F"/>
</linearGradient>
<linearGradient id="paint11_linear_103_967" x1="140.297" y1="108.447" x2="140.297" y2="176.796" gradientUnits="userSpaceOnUse">
<stop stop-color="#86E894" stop-opacity="0.32"/>
<stop offset="1" stop-color="#82DF8F"/>
</linearGradient>
<linearGradient id="paint12_linear_103_967" x1="133.462" y1="94.7786" x2="133.462" y2="176.797" gradientUnits="userSpaceOnUse">
<stop stop-color="#86E894" stop-opacity="0.32"/>
<stop offset="1" stop-color="#82DF8F"/>
</linearGradient>
<linearGradient id="paint13_linear_103_967" x1="130.044" y1="87.9425" x2="130.044" y2="176.797" gradientUnits="userSpaceOnUse">
<stop stop-color="#86E894" stop-opacity="0.32"/>
<stop offset="1" stop-color="#82DF8F"/>
</linearGradient>
<linearGradient id="paint14_linear_103_967" x1="126.627" y1="81.1076" x2="126.627" y2="176.796" gradientUnits="userSpaceOnUse">
<stop stop-color="#86E894" stop-opacity="0.32"/>
<stop offset="1" stop-color="#82DF8F"/>
</linearGradient>
<linearGradient id="paint15_linear_103_967" x1="123.209" y1="74.2715" x2="123.209" y2="176.796" gradientUnits="userSpaceOnUse">
<stop stop-color="#86E894" stop-opacity="0.32"/>
<stop offset="1" stop-color="#82DF8F"/>
</linearGradient>
<linearGradient id="paint16_linear_103_967" x1="119.793" y1="67.4389" x2="119.793" y2="176.797" gradientUnits="userSpaceOnUse">
<stop stop-color="#86E894" stop-opacity="0.32"/>
<stop offset="1" stop-color="#82DF8F"/>
</linearGradient>
<linearGradient id="paint17_linear_103_967" x1="116.375" y1="60.6005" x2="116.375" y2="176.795" gradientUnits="userSpaceOnUse">
<stop stop-color="#86E894" stop-opacity="0.32"/>
<stop offset="1" stop-color="#82DF8F"/>
</linearGradient>
<linearGradient id="paint18_linear_103_967" x1="112.958" y1="53.7668" x2="112.958" y2="176.796" gradientUnits="userSpaceOnUse">
<stop stop-color="#86E894" stop-opacity="0.32"/>
<stop offset="1" stop-color="#82DF8F"/>
</linearGradient>
<linearGradient id="paint19_linear_103_967" x1="109.54" y1="46.9319" x2="109.54" y2="176.795" gradientUnits="userSpaceOnUse">
<stop stop-color="#86E894" stop-opacity="0.32"/>
<stop offset="1" stop-color="#82DF8F"/>
</linearGradient>
<linearGradient id="paint20_linear_103_967" x1="106.123" y1="40.0959" x2="106.123" y2="176.795" gradientUnits="userSpaceOnUse">
<stop stop-color="#86E894" stop-opacity="0.32"/>
<stop offset="1" stop-color="#82DF8F"/>
</linearGradient>
<linearGradient id="paint21_linear_103_967" x1="175.845" y1="215.686" x2="251.03" y2="215.686" gradientUnits="userSpaceOnUse">
<stop offset="0.00520833" stop-color="#FFF0D2"/>
<stop offset="1" stop-color="#F9A542"/>
</linearGradient>
<linearGradient id="paint22_linear_103_967" x1="175.906" y1="212.268" x2="244.255" y2="212.268" gradientUnits="userSpaceOnUse">
<stop offset="0.00520833" stop-color="#FFF0D2"/>
<stop offset="1" stop-color="#F9A542"/>
</linearGradient>
<linearGradient id="paint23_linear_103_967" x1="175.786" y1="219.102" x2="257.805" y2="219.102" gradientUnits="userSpaceOnUse">
<stop offset="0.00520833" stop-color="#FFF0D2"/>
<stop offset="1" stop-color="#F9A542"/>
</linearGradient>
<linearGradient id="paint24_linear_103_967" x1="175.725" y1="222.523" x2="264.579" y2="222.523" gradientUnits="userSpaceOnUse">
<stop offset="0.00520833" stop-color="#FFF0D2"/>
<stop offset="1" stop-color="#F9A542"/>
</linearGradient>
<linearGradient id="paint25_linear_103_967" x1="175.664" y1="225.938" x2="271.353" y2="225.938" gradientUnits="userSpaceOnUse">
<stop offset="0.00520833" stop-color="#FFF0D2"/>
<stop offset="1" stop-color="#F9A542"/>
</linearGradient>
<linearGradient id="paint26_linear_103_967" x1="175.604" y1="229.356" x2="278.128" y2="229.356" gradientUnits="userSpaceOnUse">
<stop offset="0.00520833" stop-color="#FFF0D2"/>
<stop offset="1" stop-color="#F9A542"/>
</linearGradient>
<linearGradient id="paint27_linear_103_967" x1="175.543" y1="232.774" x2="284.902" y2="232.774" gradientUnits="userSpaceOnUse">
<stop offset="0.00520833" stop-color="#FFF0D2"/>
<stop offset="1" stop-color="#F9A542"/>
</linearGradient>
<linearGradient id="paint28_linear_103_967" x1="136.879" y1="253.277" x2="136.879" y2="178.092" gradientUnits="userSpaceOnUse">
<stop stop-color="#82DF8F"/>
<stop offset="1" stop-color="#86E894" stop-opacity="0.32"/>
</linearGradient>
<linearGradient id="paint29_linear_103_967" x1="140.297" y1="246.445" x2="140.297" y2="178.096" gradientUnits="userSpaceOnUse">
<stop stop-color="#82DF8F"/>
<stop offset="1" stop-color="#86E894" stop-opacity="0.32"/>
</linearGradient>
<linearGradient id="paint30_linear_103_967" x1="133.462" y1="260.112" x2="133.462" y2="178.093" gradientUnits="userSpaceOnUse">
<stop stop-color="#82DF8F"/>
<stop offset="1" stop-color="#86E894" stop-opacity="0.32"/>
</linearGradient>
<linearGradient id="paint31_linear_103_967" x1="130.044" y1="266.948" x2="130.044" y2="178.093" gradientUnits="userSpaceOnUse">
<stop stop-color="#82DF8F"/>
<stop offset="1" stop-color="#86E894" stop-opacity="0.32"/>
</linearGradient>
<linearGradient id="paint32_linear_103_967" x1="126.627" y1="273.782" x2="126.627" y2="178.094" gradientUnits="userSpaceOnUse">
<stop stop-color="#82DF8F"/>
<stop offset="1" stop-color="#86E894" stop-opacity="0.32"/>
</linearGradient>
<linearGradient id="paint33_linear_103_967" x1="123.209" y1="280.619" x2="123.209" y2="178.094" gradientUnits="userSpaceOnUse">
<stop stop-color="#82DF8F"/>
<stop offset="1" stop-color="#86E894" stop-opacity="0.32"/>
</linearGradient>
<linearGradient id="paint34_linear_103_967" x1="119.793" y1="287.453" x2="119.793" y2="178.095" gradientUnits="userSpaceOnUse">
<stop stop-color="#82DF8F"/>
<stop offset="1" stop-color="#86E894" stop-opacity="0.32"/>
</linearGradient>
<linearGradient id="paint35_linear_103_967" x1="116.375" y1="294.289" x2="116.375" y2="178.095" gradientUnits="userSpaceOnUse">
<stop stop-color="#82DF8F"/>
<stop offset="1" stop-color="#86E894" stop-opacity="0.32"/>
</linearGradient>
<linearGradient id="paint36_linear_103_967" x1="112.958" y1="301.122" x2="112.958" y2="178.094" gradientUnits="userSpaceOnUse">
<stop stop-color="#82DF8F"/>
<stop offset="1" stop-color="#86E894" stop-opacity="0.32"/>
</linearGradient>
<linearGradient id="paint37_linear_103_967" x1="109.54" y1="307.958" x2="109.54" y2="178.094" gradientUnits="userSpaceOnUse">
<stop stop-color="#82DF8F"/>
<stop offset="1" stop-color="#86E894" stop-opacity="0.32"/>
</linearGradient>
</defs>
</svg>
