<svg width="38" height="38" viewBox="0 0 38 38" fill="none" xmlns="http://www.w3.org/2000/svg">
<path d="M18.9999 37.9998C29.4933 37.9998 37.9998 29.4905 37.9998 18.9999C37.9998 8.50923 29.4933 0 18.9999 0C8.50652 0 0 8.50923 0 18.9999C0 29.4905 8.50652 37.9998 18.9999 37.9998Z" fill="#F1F5F7"/>
<path d="M25.6089 18.9999C25.6089 20.6556 22.6504 24.7813 18.9997 24.7813C15.3504 24.7813 12.3918 20.6556 12.3918 18.9999C12.3792 18.1241 12.5409 17.2545 12.8674 16.4417C13.1939 15.6289 13.6786 14.8891 14.2935 14.2653C14.9085 13.6415 15.6412 13.1462 16.4493 12.8081C17.2573 12.47 18.1245 12.2959 19.0004 12.2959C19.8763 12.2959 20.7434 12.47 21.5515 12.8081C22.3595 13.1462 23.0923 13.6415 23.7072 14.2653C24.3221 14.8891 24.8068 15.6289 25.1333 16.4417C25.4598 17.2545 25.6215 18.1241 25.6089 18.9999Z" fill="#D80027"/>
<path d="M25.6089 18.9999C25.6215 19.8757 25.4598 20.7453 25.1333 21.5581C24.8068 22.3709 24.3221 23.1107 23.7072 23.7344C23.0923 24.3582 22.3595 24.8535 21.5515 25.1916C20.7434 25.5297 19.8763 25.7039 19.0004 25.7039C18.1245 25.7039 17.2573 25.5297 16.4493 25.1916C15.6412 24.8535 14.9085 24.3582 14.2935 23.7344C13.6786 23.1107 13.1939 22.3709 12.8674 21.5581C12.5409 20.7453 12.3792 19.8757 12.3918 18.9999" fill="#0052B4"/>
<path d="M26.0038 24.8356L27.7558 23.0849L28.9243 24.252L27.1722 26.0163L26.0038 24.8356ZM23.0832 27.7669L24.8352 26.0163L26.0038 27.1834L24.2504 28.934L23.0832 27.7669ZM29.5078 28.3506L31.2599 26.5998L32.4285 27.7669L30.6764 29.5177L29.5078 28.3506ZM26.5873 31.2684L28.3394 29.5177L29.5078 30.6848L27.7558 32.4355L26.5873 31.2684ZM27.7558 26.5998L29.5078 24.8356L30.6764 26.0163L28.9243 27.7669L27.7558 26.5998ZM24.8366 29.5177L26.5887 27.7669L27.7572 28.934L26.0038 30.6848L24.8366 29.5177ZM29.516 13.1641L24.8434 8.49567L26.0119 7.31497L30.6845 11.997L29.516 13.1641ZM24.8434 11.997L23.0914 10.2464L24.2585 9.07915L26.0106 10.8299L24.8434 11.997ZM27.7626 14.9149L26.0106 13.1641L27.179 11.997L28.9311 13.7478L27.7626 14.9149ZM28.3475 8.49567L26.5954 6.73133L27.7626 5.56422L29.5146 7.31497L28.3475 8.49567ZM31.268 11.4135L29.516 9.66279L30.6845 8.49567L32.4366 10.2464L31.268 11.4135ZM6.73517 26.5862L11.4078 31.2684L10.2393 32.4355L5.56665 27.7533L6.73517 26.5862ZM11.4064 27.7533L13.1585 29.5041L11.9913 30.6712L10.2393 28.9206L11.4064 27.7533ZM8.48717 24.8356L10.2393 26.5862L9.07081 27.7533L7.31873 26.0027L8.48717 24.8356ZM10.2393 23.0849L14.9119 27.7533L13.7434 28.9206L9.07081 24.252L10.2393 23.0849ZM11.4064 6.73133L6.73517 11.4L5.56665 10.2328L10.2393 5.56422L11.4064 6.73133ZM13.1585 8.48209L8.48717 13.1641L7.31873 11.9834L11.9913 7.31497L13.1585 8.48209ZM14.9133 10.2328L10.242 14.9149L9.07346 13.7478L13.7461 9.06573L14.9133 10.2328Z" fill="black"/>
</svg>
