<svg width="1120" height="389" viewBox="0 0 1120 389" fill="none" xmlns="http://www.w3.org/2000/svg">
<path d="M1112 0.5H8C3.85786 0.5 0.5 3.85786 0.5 8V381C0.5 385.142 3.85786 388.5 8 388.5H1112C1116.14 388.5 1119.5 385.142 1119.5 381V8C1119.5 3.85786 1116.14 0.5 1112 0.5Z" fill="white"/>
<path d="M1112 0.5H8C3.85786 0.5 0.5 3.85786 0.5 8V381C0.5 385.142 3.85786 388.5 8 388.5H1112C1116.14 388.5 1119.5 385.142 1119.5 381V8C1119.5 3.85786 1116.14 0.5 1112 0.5Z" stroke="#F1F5F7"/>
<path d="M24.1399 43.5V33.348H20.5039V31.494H29.8819V33.348H26.2459V43.5H24.1399ZM33.6379 43.716C30.8839 43.716 29.1739 41.646 29.1739 39.144C29.1739 36.66 30.8839 34.59 33.6379 34.59C36.4279 34.59 38.1199 36.66 38.1199 39.144C38.1199 41.646 36.4279 43.716 33.6379 43.716ZM33.6379 42.042C35.2579 42.042 36.1579 40.692 36.1579 39.144C36.1579 37.614 35.2579 36.264 33.6379 36.264C32.0359 36.264 31.1359 37.614 31.1359 39.144C31.1359 40.692 32.0359 42.042 33.6379 42.042ZM42.6429 43.716C41.1849 43.716 40.4109 42.924 40.4109 41.484V36.462H38.9709V34.806H40.4109V32.43H42.3009V34.806H44.0649V36.462H42.3009V41.016C42.3009 41.61 42.5889 42.042 43.1289 42.042C43.4889 42.042 43.8309 41.898 43.9749 41.736L44.4249 43.158C44.0829 43.482 43.5249 43.716 42.6429 43.716ZM51.0909 43.5V42.564C50.4429 43.302 49.4349 43.716 48.2829 43.716C46.8609 43.716 45.2589 42.762 45.2589 40.836C45.2589 38.838 46.8609 38.01 48.2829 38.01C49.4529 38.01 50.4609 38.388 51.0909 39.126V37.83C51.0909 36.822 50.2629 36.21 49.0569 36.21C48.0849 36.21 47.2389 36.57 46.4829 37.308L45.7089 35.994C46.7169 35.04 47.9769 34.59 49.3629 34.59C51.2889 34.59 52.9809 35.4 52.9809 37.74V43.5H51.0909ZM51.0909 41.52V40.206C50.6589 39.612 49.8489 39.306 49.0209 39.306C47.9589 39.306 47.1669 39.918 47.1669 40.872C47.1669 41.808 47.9589 42.42 49.0209 42.42C49.8489 42.42 50.6589 42.114 51.0909 41.52ZM55.4309 43.5V31.494H57.3209V43.5H55.4309ZM64.4499 43.5V31.494H69.7239C72.2439 31.494 73.6479 33.222 73.6479 35.256C73.6479 37.29 72.2259 39.018 69.7239 39.018H66.5559V43.5H64.4499ZM71.4879 35.256C71.4879 34.104 70.6239 33.348 69.4359 33.348H66.5559V37.164H69.4359C70.6239 37.164 71.4879 36.408 71.4879 35.256ZM75.3469 43.5V34.806H77.2369V36.084C77.8849 35.256 78.9289 34.608 80.0629 34.608V36.48C79.8674 36.4408 79.6683 36.4227 79.4689 36.426C78.6769 36.426 77.6149 36.966 77.2369 37.578V43.5H75.3469ZM85.5109 43.716C82.7569 43.716 81.0469 41.646 81.0469 39.144C81.0469 36.66 82.7569 34.59 85.5109 34.59C88.3009 34.59 89.9929 36.66 89.9929 39.144C89.9929 41.646 88.3009 43.716 85.5109 43.716ZM85.5109 42.042C87.1309 42.042 88.0309 40.692 88.0309 39.144C88.0309 37.614 87.1309 36.264 85.5109 36.264C83.9089 36.264 83.0089 37.614 83.0089 39.144C83.0089 40.692 83.9089 42.042 85.5109 42.042ZM98.0259 43.5V42.312C97.3599 43.176 96.3519 43.716 95.2359 43.716C93.0039 43.716 91.3659 42.024 91.3659 39.162C91.3659 36.354 92.9859 34.59 95.2359 34.59C96.3159 34.59 97.3239 35.094 98.0259 36.012V31.494H99.9159V43.5H98.0259ZM98.0259 40.89V37.434C97.5939 36.786 96.6759 36.264 95.7759 36.264C94.2819 36.264 93.3279 37.47 93.3279 39.162C93.3279 40.836 94.2819 42.042 95.7759 42.042C96.6759 42.042 97.5939 41.538 98.0259 40.89ZM108.233 43.5V42.348C107.843 42.7776 107.368 43.1213 106.838 43.3568C106.308 43.5924 105.735 43.7147 105.155 43.716C103.283 43.716 102.365 42.744 102.365 40.962V34.806H104.255V40.278C104.255 41.628 104.939 42.042 106.001 42.042C106.955 42.042 107.783 41.502 108.233 40.908V34.806H110.123V43.5H108.233ZM112.038 39.144C112.038 36.516 113.892 34.59 116.538 34.59C118.23 34.59 119.256 35.31 119.868 36.138L118.626 37.29C118.14 36.606 117.474 36.264 116.628 36.264C115.044 36.264 114 37.452 114 39.144C114 40.836 115.044 42.042 116.628 42.042C117.474 42.042 118.14 41.682 118.626 41.016L119.868 42.168C119.256 42.996 118.23 43.716 116.538 43.716C113.892 43.716 112.038 41.79 112.038 39.144ZM124.135 43.716C122.677 43.716 121.903 42.924 121.903 41.484V36.462H120.463V34.806H121.903V32.43H123.793V34.806H125.557V36.462H123.793V41.016C123.793 41.61 124.081 42.042 124.621 42.042C124.981 42.042 125.323 41.898 125.467 41.736L125.917 43.158C125.575 43.482 125.017 43.716 124.135 43.716ZM131.176 41.808L132.346 40.188C133.174 41.07 134.47 41.844 136.144 41.844C137.872 41.844 138.556 40.998 138.556 40.206C138.556 39.126 137.278 38.802 135.82 38.424C133.858 37.938 131.554 37.362 131.554 34.824C131.554 32.844 133.3 31.314 135.928 31.314C137.8 31.314 139.312 31.908 140.428 32.988L139.222 34.554C138.286 33.618 137.008 33.186 135.748 33.186C134.506 33.186 133.714 33.78 133.714 34.68C133.714 35.616 134.938 35.922 136.36 36.282C138.34 36.786 140.698 37.398 140.698 40.008C140.698 42.006 139.294 43.716 136.054 43.716C133.84 43.716 132.238 42.942 131.176 41.808ZM147.893 43.5V42.564C147.245 43.302 146.237 43.716 145.085 43.716C143.663 43.716 142.061 42.762 142.061 40.836C142.061 38.838 143.663 38.01 145.085 38.01C146.255 38.01 147.263 38.388 147.893 39.126V37.83C147.893 36.822 147.065 36.21 145.859 36.21C144.887 36.21 144.041 36.57 143.285 37.308L142.511 35.994C143.519 35.04 144.779 34.59 146.165 34.59C148.091 34.59 149.783 35.4 149.783 37.74V43.5H147.893ZM147.893 41.52V40.206C147.461 39.612 146.651 39.306 145.823 39.306C144.761 39.306 143.969 39.918 143.969 40.872C143.969 41.808 144.761 42.42 145.823 42.42C146.651 42.42 147.461 42.114 147.893 41.52ZM152.234 43.5V31.494H154.124V43.5H152.234ZM156.036 39.144C156.036 36.624 157.872 34.59 160.446 34.59C163.056 34.59 164.73 36.588 164.73 39.324V39.774H158.016C158.16 41.088 159.15 42.168 160.788 42.168C161.634 42.168 162.642 41.826 163.254 41.214L164.118 42.456C163.254 43.284 161.976 43.716 160.59 43.716C157.98 43.716 156.036 41.898 156.036 39.144ZM160.446 36.138C158.826 36.138 158.088 37.38 157.998 38.442H162.894C162.858 37.416 162.156 36.138 160.446 36.138ZM165.839 42.366L166.703 40.998C167.315 41.628 168.521 42.222 169.655 42.222C170.789 42.222 171.365 41.808 171.365 41.16C171.365 40.404 170.447 40.134 169.385 39.9C167.891 39.576 166.109 39.18 166.109 37.236C166.109 35.814 167.333 34.59 169.529 34.59C171.005 34.59 172.121 35.112 172.913 35.814L172.121 37.146C171.599 36.552 170.627 36.102 169.547 36.102C168.557 36.102 167.927 36.462 167.927 37.074C167.927 37.74 168.791 37.974 169.817 38.208C171.329 38.532 173.183 38.964 173.183 41.016C173.183 42.546 171.905 43.716 169.565 43.716C168.089 43.716 166.739 43.248 165.839 42.366Z" fill="#17181A"/>
<mask id="mask0_103_746" style="mask-type:luminance" maskUnits="userSpaceOnUse" x="182" y="31" width="14" height="14">
<path d="M182 31H196V45H182V31Z" fill="white"/>
</mask>
<g mask="url(#mask0_103_746)">
<path d="M189.438 37.417C189.441 37.3578 189.432 37.2986 189.411 37.2431C189.39 37.1875 189.358 37.1367 189.318 37.0938C189.277 37.0509 189.227 37.0168 189.173 36.9934C189.118 36.9701 189.06 36.9581 189 36.9581C188.941 36.9581 188.883 36.9701 188.828 36.9934C188.774 37.0168 188.724 37.0509 188.683 37.0938C188.643 37.1367 188.611 37.1875 188.59 37.2431C188.569 37.2986 188.56 37.3578 188.563 37.417V40.917C188.563 41.033 188.609 41.1443 188.691 41.2263C188.773 41.3084 188.884 41.3545 189 41.3545C189.117 41.3545 189.228 41.3084 189.31 41.2263C189.392 41.1443 189.438 41.033 189.438 40.917V37.417Z" fill="#809FB8"/>
<path fill-rule="evenodd" clip-rule="evenodd" d="M189 31.729C187.337 31.7291 185.742 32.39 184.566 33.5662C183.389 34.7425 182.729 36.3377 182.729 38.001C182.729 39.6643 183.39 41.2594 184.566 42.4355C185.742 43.6115 187.338 44.2721 189.001 44.272C190.664 44.2719 192.259 43.611 193.435 42.4348C194.612 41.2585 195.272 39.6633 195.272 38C195.272 36.3367 194.611 34.7416 193.435 33.5655C192.259 32.3895 190.663 31.7289 189 31.729ZM183.604 38C183.604 36.5689 184.173 35.1964 185.184 34.1844C186.196 33.1725 187.569 32.604 189 32.604C190.431 32.604 191.804 33.1725 192.816 34.1844C193.827 35.1964 194.396 36.5689 194.396 38C194.396 39.4311 193.827 40.8036 192.816 41.8156C191.804 42.8275 190.431 43.396 189 43.396C187.569 43.396 186.196 42.8275 185.184 41.8156C184.173 40.8036 183.604 39.4311 183.604 38Z" fill="#809FB8"/>
<path d="M189.584 35.667C189.584 35.8219 189.522 35.9703 189.412 36.0797C189.303 36.189 189.154 36.2503 188.999 36.25C188.844 36.2498 188.696 36.188 188.586 36.0783C188.477 35.9686 188.416 35.8199 188.416 35.665C188.416 35.5102 188.478 35.3617 188.588 35.2524C188.642 35.1982 188.707 35.1553 188.777 35.1261C188.848 35.0969 188.924 35.0819 189.001 35.082C189.078 35.0822 189.154 35.0974 189.224 35.1269C189.295 35.1563 189.36 35.1995 189.414 35.2538C189.468 35.3081 189.511 35.3726 189.54 35.4435C189.569 35.5144 189.584 35.5903 189.584 35.667Z" fill="#809FB8"/>
</g>
<g filter="url(#filter0_dd_103_746)">
<path d="M552 24H459C455.686 24 453 26.6863 453 30V52C453 55.3137 455.686 58 459 58H552C555.314 58 558 55.3137 558 52V30C558 26.6863 555.314 24 552 24Z" fill="#17181A"/>
<path d="M477.019 42.354C477.019 43.698 476.151 44.972 474.023 45.14V46.4H473.029V45.154C471.587 45.056 470.523 44.482 469.809 43.684L470.607 42.606C471.153 43.208 471.979 43.754 473.029 43.88V40.828C471.601 40.464 470.103 39.946 470.103 38.182C470.103 36.74 471.293 35.662 473.029 35.536V34.248H474.023V35.55C475.185 35.662 476.109 36.11 476.809 36.824L475.983 37.86C475.459 37.3148 474.77 36.9559 474.023 36.838V39.568C475.479 39.96 477.019 40.492 477.019 42.354ZM471.545 38.084C471.545 38.756 472.189 39.064 473.029 39.302V36.782C472.133 36.852 471.545 37.356 471.545 38.084ZM474.023 41.094V43.88C475.171 43.754 475.591 43.068 475.591 42.48C475.591 41.682 474.905 41.36 474.023 41.094ZM481.634 45H480.234V37.496L478.722 39.078L477.896 38.224L480.402 35.662H481.634V45ZM486.665 45H485.265V37.496L483.753 39.078L482.927 38.224L485.433 35.662H486.665V45ZM490.94 45H489.4L493.04 36.894H488.112V35.662H494.664V36.628L490.94 45ZM494.478 44.272C494.478 43.796 494.87 43.404 495.346 43.404C495.822 43.404 496.228 43.796 496.228 44.272C496.224 44.5047 496.13 44.7268 495.965 44.8914C495.801 45.056 495.579 45.1501 495.346 45.154C495.115 45.1496 494.895 45.0548 494.732 44.8899C494.57 44.7251 494.479 44.5033 494.478 44.272ZM497.884 43.698L498.71 42.746C499.326 43.502 500.166 43.922 501.258 43.922C502.476 43.922 503.288 43.124 503.288 42.102C503.288 40.982 502.49 40.268 501.286 40.268C500.474 40.268 499.802 40.52 499.186 41.108L498.178 40.786V35.662H504.086V36.894H499.578V39.876C500.026 39.428 500.81 39.05 501.72 39.05C503.288 39.05 504.702 40.128 504.702 42.046C504.702 43.964 503.246 45.168 501.272 45.168C499.676 45.168 498.612 44.608 497.884 43.698ZM512.664 45H506.084V43.894C509.584 41.206 511.194 39.806 511.194 38.336C511.194 37.244 510.284 36.768 509.374 36.768C508.268 36.768 507.414 37.23 506.84 37.916L506.014 37.006C506.784 36.04 508.058 35.522 509.36 35.522C511.04 35.522 512.622 36.474 512.622 38.336C512.622 40.156 510.872 41.794 508.31 43.768H512.664V45ZM514.272 40.338C514.272 38.028 515.336 35.522 517.926 35.522C520.516 35.522 521.58 38.028 521.58 40.338C521.58 42.648 520.516 45.168 517.926 45.168C515.336 45.168 514.272 42.648 514.272 40.338ZM520.152 40.338C520.152 38.518 519.578 36.768 517.926 36.768C516.274 36.768 515.7 38.518 515.7 40.338C515.7 42.158 516.274 43.922 517.926 43.922C519.578 43.922 520.152 42.158 520.152 40.338ZM523.217 46.82L522.629 46.33C523.077 46.05 523.511 45.49 523.581 45.028C523.553 45.028 523.441 45.056 523.371 45.056C522.937 45.056 522.615 44.72 522.615 44.258C522.615 43.782 522.993 43.404 523.469 43.404C523.987 43.404 524.449 43.824 524.449 44.566C524.449 45.476 523.931 46.316 523.217 46.82ZM526.273 44.076L526.945 43.026C527.421 43.558 527.981 43.908 528.905 43.908C530.697 43.908 531.453 42.2 531.453 40.548V40.226C531.019 40.856 530.011 41.612 528.877 41.612C527.197 41.612 525.769 40.59 525.769 38.602C525.769 36.936 527.071 35.508 529.129 35.508C531.817 35.508 532.867 37.762 532.867 40.338C532.867 42.942 531.565 45.154 528.905 45.154C527.729 45.154 526.875 44.72 526.273 44.076ZM531.411 39.148C531.327 38.07 530.725 36.754 529.199 36.754C527.869 36.754 527.197 37.734 527.197 38.56C527.197 39.806 528.121 40.394 529.227 40.394C530.081 40.394 530.935 39.904 531.411 39.148ZM534.165 42.62C534.165 41.402 535.173 40.548 536.321 40.184C535.257 39.862 534.319 39.162 534.319 37.958C534.319 36.264 536.013 35.522 537.637 35.522C539.219 35.522 540.941 36.264 540.941 37.958C540.941 39.162 539.989 39.862 538.925 40.184C540.073 40.548 541.081 41.402 541.081 42.62C541.081 44.244 539.499 45.168 537.637 45.168C535.747 45.168 534.165 44.258 534.165 42.62ZM539.527 38.168C539.527 37.286 538.687 36.768 537.637 36.768C536.545 36.768 535.733 37.286 535.733 38.168C535.733 39.162 537.063 39.526 537.637 39.624C538.211 39.526 539.527 39.162 539.527 38.168ZM539.681 42.452C539.681 41.36 538.197 40.884 537.637 40.814C537.049 40.884 535.579 41.36 535.579 42.452C535.579 43.362 536.517 43.922 537.637 43.922C538.715 43.922 539.681 43.362 539.681 42.452Z" fill="white"/>
<path d="M507.9 62.8C507.621 63.1726 507.258 63.475 506.842 63.6833C506.425 63.8916 505.966 64 505.5 64C505.034 64 504.575 63.8916 504.158 63.6833C503.742 63.475 503.379 63.1726 503.1 62.8L499.5 58H511.5L507.9 62.8Z" fill="#17181A"/>
</g>
<path d="M719 42.5C721.485 42.5 723.5 40.4853 723.5 38C723.5 35.5147 721.485 33.5 719 33.5C716.515 33.5 714.5 35.5147 714.5 38C714.5 40.4853 716.515 42.5 719 42.5Z" stroke="#A584F3" stroke-width="3"/>
<path d="M737.74 42H733.89V33.996H737.64C739.07 33.996 739.9 34.872 739.9 36.036C739.9 37.044 739.24 37.716 738.51 37.872C739.36 38.004 740.06 38.868 740.06 39.84C740.06 41.1 739.22 42 737.74 42ZM735.09 35.052V37.392H737.42C738.22 37.392 738.66 36.888 738.66 36.228C738.66 35.568 738.22 35.052 737.42 35.052H735.09ZM735.09 38.448V40.944H737.48C738.32 40.944 738.82 40.464 738.82 39.684C738.82 39.024 738.36 38.448 737.48 38.448H735.09ZM746.17 42H745.09V41.364C744.64 41.868 743.98 42.144 743.2 42.144C742.24 42.144 741.18 41.496 741.18 40.224C741.18 38.904 742.22 38.328 743.2 38.328C743.98 38.328 744.65 38.58 745.09 39.096V38.136C745.09 37.416 744.5 36.984 743.68 36.984C743.02 36.984 742.45 37.236 741.94 37.752L741.47 37.008C742.12 36.372 742.91 36.06 743.84 36.06C745.1 36.06 746.17 36.612 746.17 38.088V42ZM745.09 40.728V39.744C744.77 39.312 744.2 39.084 743.6 39.084C742.82 39.084 742.27 39.552 742.27 40.236C742.27 40.92 742.82 41.388 743.6 41.388C744.2 41.388 744.77 41.16 745.09 40.728ZM748.98 42H747.9V33.996H748.98V42ZM755.36 42H754.28V41.364C753.82 41.868 753.16 42.144 752.38 42.144C751.42 42.144 750.37 41.496 750.37 40.224C750.37 38.904 751.41 38.328 752.38 38.328C753.16 38.328 753.84 38.58 754.28 39.096V38.136C754.28 37.416 753.69 36.984 752.86 36.984C752.2 36.984 751.64 37.236 751.12 37.752L750.66 37.008C751.3 36.372 752.1 36.06 753.03 36.06C754.29 36.06 755.36 36.612 755.36 38.088V42ZM754.28 40.728V39.744C753.96 39.312 753.39 39.084 752.79 39.084C752.01 39.084 751.46 39.552 751.46 40.236C751.46 40.92 752.01 41.388 752.79 41.388C753.39 41.388 753.96 41.16 754.28 40.728ZM762.08 42H761V38.292C761 37.332 760.51 37.02 759.77 37.02C759.09 37.02 758.48 37.428 758.17 37.86V42H757.09V36.204H758.17V37.02C758.55 36.552 759.32 36.06 760.22 36.06C761.45 36.06 762.08 36.708 762.08 37.932V42ZM763.43 39.096C763.43 37.356 764.63 36.06 766.39 36.06C767.48 36.06 768.14 36.516 768.56 37.08L767.84 37.74C767.49 37.248 767.02 37.02 766.43 37.02C765.29 37.02 764.56 37.896 764.56 39.096C764.56 40.296 765.29 41.184 766.43 41.184C767.02 41.184 767.49 40.944 767.84 40.464L768.56 41.124C768.14 41.688 767.48 42.144 766.39 42.144C764.63 42.144 763.43 40.836 763.43 39.096ZM769.39 39.096C769.39 37.416 770.6 36.06 772.29 36.06C774.03 36.06 775.11 37.416 775.11 39.192V39.456H770.53C770.61 40.44 771.33 41.256 772.49 41.256C773.11 41.256 773.78 41.016 774.21 40.572L774.71 41.28C774.14 41.844 773.32 42.144 772.39 42.144C770.66 42.144 769.39 40.92 769.39 39.096ZM772.29 36.948C771.13 36.948 770.57 37.884 770.51 38.676H774.05C774.03 37.908 773.51 36.948 772.29 36.948Z" fill="#809FB8"/>
<path d="M802 42.5C804.485 42.5 806.5 40.4853 806.5 38C806.5 35.5147 804.485 33.5 802 33.5C799.515 33.5 797.5 35.5147 797.5 38C797.5 40.4853 799.515 42.5 802 42.5Z" stroke="#D0EFFC" stroke-width="3"/>
<path d="M818.09 42H816.89V33.996H818.09V42ZM824.84 42H823.76V38.292C823.76 37.332 823.27 37.02 822.53 37.02C821.86 37.02 821.24 37.428 820.93 37.86V42H819.85V36.204H820.93V37.02C821.32 36.552 822.08 36.06 822.98 36.06C824.21 36.06 824.84 36.708 824.84 37.932V42ZM826.2 39.096C826.2 37.356 827.4 36.06 829.15 36.06C830.24 36.06 830.9 36.516 831.32 37.08L830.6 37.74C830.25 37.248 829.78 37.02 829.2 37.02C828.06 37.02 827.32 37.896 827.32 39.096C827.32 40.296 828.06 41.184 829.2 41.184C829.78 41.184 830.25 40.944 830.6 40.464L831.32 41.124C830.9 41.688 830.24 42.144 829.15 42.144C827.4 42.144 826.2 40.836 826.2 39.096ZM835.08 42.144C833.28 42.144 832.15 40.776 832.15 39.096C832.15 37.428 833.28 36.06 835.08 36.06C836.89 36.06 838 37.428 838 39.096C838 40.776 836.89 42.144 835.08 42.144ZM835.08 41.184C836.24 41.184 836.88 40.2 836.88 39.096C836.88 38.004 836.24 37.02 835.08 37.02C833.92 37.02 833.28 38.004 833.28 39.096C833.28 40.2 833.92 41.184 835.08 41.184ZM847.5 42H846.42V38.136C846.42 37.464 846.12 37.02 845.41 37.02C844.82 37.02 844.25 37.428 843.97 37.848V42H842.89V38.136C842.89 37.464 842.6 37.02 841.87 37.02C841.31 37.02 840.74 37.44 840.46 37.86V42H839.38V36.204H840.46V37.02C840.7 36.66 841.46 36.06 842.33 36.06C843.2 36.06 843.72 36.516 843.9 37.14C844.24 36.6 845 36.06 845.86 36.06C846.92 36.06 847.5 36.648 847.5 37.812V42ZM848.86 39.096C848.86 37.416 850.07 36.06 851.76 36.06C853.5 36.06 854.58 37.416 854.58 39.192V39.456H850C850.08 40.44 850.8 41.256 851.97 41.256C852.58 41.256 853.25 41.016 853.68 40.572L854.19 41.28C853.61 41.844 852.8 42.144 851.86 42.144C850.13 42.144 848.86 40.92 848.86 39.096ZM851.76 36.948C850.6 36.948 850.05 37.884 849.99 38.676H853.53C853.5 37.908 852.99 36.948 851.76 36.948Z" fill="#809FB8"/>
<path d="M882 42.5C884.485 42.5 886.5 40.4853 886.5 38C886.5 35.5147 884.485 33.5 882 33.5C879.515 33.5 877.5 35.5147 877.5 38C877.5 40.4853 879.515 42.5 882 42.5Z" stroke="#41BFF3" stroke-width="3"/>
<path d="M902.26 42H896.89V33.996H902.26V35.052H898.09V37.392H902.18V38.448H898.09V40.944H902.26V42ZM908.67 42H907.45L905.83 39.744L904.2 42H902.97L905.15 39.024L903.11 36.204H904.33L905.83 38.292L907.32 36.204H908.54L906.49 39.024L908.67 42ZM910.72 41.16V44.208H909.64V36.204H910.72V37.032C910.937 36.7329 911.221 36.489 911.549 36.3201C911.877 36.1512 912.241 36.0621 912.61 36.06C914.13 36.06 915.19 37.2 915.19 39.096C915.19 40.992 914.13 42.144 912.61 42.144C911.86 42.144 911.19 41.796 910.72 41.16ZM914.07 39.096C914.07 37.896 913.41 37.02 912.33 37.02C911.67 37.02 911.01 37.404 910.72 37.872V40.332C911.01 40.788 911.67 41.184 912.33 41.184C913.41 41.184 914.07 40.308 914.07 39.096ZM916.2 39.096C916.2 37.416 917.42 36.06 919.11 36.06C920.85 36.06 921.93 37.416 921.93 39.192V39.456H917.34C917.43 40.44 918.15 41.256 919.31 41.256C919.92 41.256 920.6 41.016 921.03 40.572L921.53 41.28C920.96 41.844 920.14 42.144 919.2 42.144C917.48 42.144 916.2 40.92 916.2 39.096ZM919.11 36.948C917.94 36.948 917.39 37.884 917.33 38.676H920.87C920.85 37.908 920.33 36.948 919.11 36.948ZM928.27 42H927.19V38.292C927.19 37.332 926.7 37.02 925.95 37.02C925.28 37.02 924.67 37.428 924.36 37.86V42H923.28V36.204H924.36V37.02C924.74 36.552 925.51 36.06 926.41 36.06C927.63 36.06 928.27 36.708 928.27 37.932V42ZM929.48 41.244L929.99 40.452C930.39 40.884 931.16 41.28 931.94 41.28C932.75 41.28 933.19 40.944 933.19 40.452C933.19 39.876 932.53 39.684 931.78 39.516C930.8 39.288 929.65 39.024 929.65 37.776C929.65 36.852 930.44 36.06 931.85 36.06C932.85 36.06 933.57 36.42 934.06 36.888L933.58 37.644C933.25 37.236 932.6 36.936 931.87 36.936C931.13 36.936 930.68 37.224 930.68 37.692C930.68 38.196 931.3 38.364 932.02 38.532C933.03 38.76 934.23 39.036 934.23 40.368C934.23 41.364 933.41 42.144 931.89 42.144C930.92 42.144 930.07 41.844 929.48 41.244ZM935.23 39.096C935.23 37.416 936.45 36.06 938.14 36.06C939.88 36.06 940.96 37.416 940.96 39.192V39.456H936.37C936.46 40.44 937.18 41.256 938.34 41.256C938.95 41.256 939.63 41.016 940.06 40.572L940.56 41.28C939.99 41.844 939.17 42.144 938.23 42.144C936.51 42.144 935.23 40.92 935.23 39.096ZM938.14 36.948C936.97 36.948 936.42 37.884 936.36 38.676H939.9C939.88 37.908 939.36 36.948 938.14 36.948ZM941.81 41.244L942.32 40.452C942.72 40.884 943.49 41.28 944.27 41.28C945.08 41.28 945.51 40.944 945.51 40.452C945.51 39.876 944.85 39.684 944.11 39.516C943.13 39.288 941.97 39.024 941.97 37.776C941.97 36.852 942.77 36.06 944.18 36.06C945.18 36.06 945.9 36.42 946.39 36.888L945.91 37.644C945.57 37.236 944.93 36.936 944.19 36.936C943.46 36.936 943.01 37.224 943.01 37.692C943.01 38.196 943.63 38.364 944.35 38.532C945.36 38.76 946.56 39.036 946.56 40.368C946.56 41.364 945.74 42.144 944.22 42.144C943.25 42.144 942.39 41.844 941.81 41.244Z" fill="#809FB8"/>
<g filter="url(#filter1_d_103_746)">
<path d="M1092 20.5H976C971.858 20.5 968.5 23.8579 968.5 28V48C968.5 52.1421 971.858 55.5 976 55.5H1092C1096.14 55.5 1099.5 52.1421 1099.5 48V28C1099.5 23.8579 1096.14 20.5 1092 20.5Z" fill="white"/>
<path d="M1092 20.5H976C971.858 20.5 968.5 23.8579 968.5 28V48C968.5 52.1421 971.858 55.5 976 55.5H1092C1096.14 55.5 1099.5 52.1421 1099.5 48V28C1099.5 23.8579 1096.14 20.5 1092 20.5Z" stroke="#D9E1E7"/>
<path d="M995.33 36.333L992 39.667L988.67 36.333" stroke="#17181A" stroke-width="1.5" stroke-linecap="round" stroke-linejoin="round"/>
<path d="M1011.94 41.16V44.208H1010.86V36.204H1011.94V37.032C1012.16 36.7327 1012.44 36.4888 1012.77 36.32C1013.1 36.1512 1013.47 36.0621 1013.84 36.06C1015.35 36.06 1016.42 37.2 1016.42 39.096C1016.42 40.992 1015.35 42.144 1013.84 42.144C1013.08 42.144 1012.41 41.796 1011.94 41.16ZM1015.29 39.096C1015.29 37.896 1014.63 37.02 1013.55 37.02C1012.89 37.02 1012.23 37.404 1011.94 37.872V40.332C1012.23 40.788 1012.89 41.184 1013.55 41.184C1014.63 41.184 1015.29 40.308 1015.29 39.096ZM1022.45 42H1021.37V41.364C1020.91 41.868 1020.25 42.144 1019.47 42.144C1018.51 42.144 1017.45 41.496 1017.45 40.224C1017.45 38.904 1018.5 38.328 1019.47 38.328C1020.25 38.328 1020.92 38.58 1021.37 39.096V38.136C1021.37 37.416 1020.78 36.984 1019.95 36.984C1019.29 36.984 1018.73 37.236 1018.21 37.752L1017.74 37.008C1018.39 36.372 1019.18 36.06 1020.12 36.06C1021.38 36.06 1022.45 36.612 1022.45 38.088V42ZM1021.37 40.728V39.744C1021.04 39.312 1020.48 39.084 1019.88 39.084C1019.1 39.084 1018.55 39.552 1018.55 40.236C1018.55 40.92 1019.1 41.388 1019.88 41.388C1020.48 41.388 1021.04 41.16 1021.37 40.728ZM1023.67 41.244L1024.19 40.452C1024.58 40.884 1025.35 41.28 1026.13 41.28C1026.95 41.28 1027.38 40.944 1027.38 40.452C1027.38 39.876 1026.72 39.684 1025.98 39.516C1024.99 39.288 1023.84 39.024 1023.84 37.776C1023.84 36.852 1024.63 36.06 1026.05 36.06C1027.04 36.06 1027.76 36.42 1028.26 36.888L1027.78 37.644C1027.44 37.236 1026.79 36.936 1026.06 36.936C1025.33 36.936 1024.87 37.224 1024.87 37.692C1024.87 38.196 1025.5 38.364 1026.22 38.532C1027.22 38.76 1028.42 39.036 1028.42 40.368C1028.42 41.364 1027.61 42.144 1026.08 42.144C1025.11 42.144 1024.26 41.844 1023.67 41.244ZM1031.39 42.144C1030.47 42.144 1030.01 41.628 1030.01 40.716V37.152H1029.05V36.204H1030.01V34.62H1031.09V36.204H1032.26V37.152H1031.09V40.476C1031.09 40.884 1031.28 41.184 1031.65 41.184C1031.9 41.184 1032.13 41.076 1032.24 40.956L1032.51 41.772C1032.29 41.988 1031.95 42.144 1031.39 42.144ZM1036.24 38.016C1036.24 35.772 1037.34 33.876 1039.64 33.876C1040.64 33.876 1041.38 34.248 1041.89 34.8L1041.3 35.712C1040.9 35.244 1040.43 34.944 1039.64 34.944C1038.18 34.944 1037.45 36.348 1037.45 37.836C1037.45 37.932 1037.45 38.016 1037.46 38.1C1037.81 37.56 1038.68 36.924 1039.66 36.924C1041.1 36.924 1042.31 37.788 1042.31 39.492C1042.31 40.932 1041.2 42.144 1039.43 42.144C1037.14 42.144 1036.24 40.212 1036.24 38.016ZM1041.1 39.528C1041.1 38.46 1040.31 37.956 1039.36 37.956C1038.62 37.956 1037.9 38.388 1037.48 39.024C1037.57 39.96 1038.06 41.076 1039.37 41.076C1040.52 41.076 1041.1 40.236 1041.1 39.528ZM1054.92 42H1053.84V38.136C1053.84 37.464 1053.54 37.02 1052.83 37.02C1052.24 37.02 1051.67 37.428 1051.39 37.848V42H1050.31V38.136C1050.31 37.464 1050.02 37.02 1049.29 37.02C1048.73 37.02 1048.16 37.44 1047.87 37.86V42H1046.79V36.204H1047.87V37.02C1048.11 36.66 1048.88 36.06 1049.75 36.06C1050.62 36.06 1051.14 36.516 1051.32 37.14C1051.65 36.6 1052.42 36.06 1053.27 36.06C1054.34 36.06 1054.92 36.648 1054.92 37.812V42ZM1059.21 42.144C1057.41 42.144 1056.28 40.776 1056.28 39.096C1056.28 37.428 1057.41 36.06 1059.21 36.06C1061.02 36.06 1062.13 37.428 1062.13 39.096C1062.13 40.776 1061.02 42.144 1059.21 42.144ZM1059.21 41.184C1060.37 41.184 1061.01 40.2 1061.01 39.096C1061.01 38.004 1060.37 37.02 1059.21 37.02C1058.05 37.02 1057.41 38.004 1057.41 39.096C1057.41 40.2 1058.05 41.184 1059.21 41.184ZM1068.5 42H1067.42V38.292C1067.42 37.332 1066.92 37.02 1066.18 37.02C1065.51 37.02 1064.9 37.428 1064.58 37.86V42H1063.5V36.204H1064.58V37.02C1064.97 36.552 1065.74 36.06 1066.64 36.06C1067.86 36.06 1068.5 36.708 1068.5 37.932V42ZM1071.8 42.144C1070.89 42.144 1070.42 41.628 1070.42 40.716V37.152H1069.46V36.204H1070.42V34.62H1071.5V36.204H1072.68V37.152H1071.5V40.476C1071.5 40.884 1071.7 41.184 1072.07 41.184C1072.32 41.184 1072.55 41.076 1072.66 40.956L1072.93 41.772C1072.7 41.988 1072.37 42.144 1071.8 42.144ZM1078.87 42H1077.79V38.268C1077.79 37.308 1077.3 37.02 1076.55 37.02C1075.88 37.02 1075.27 37.428 1074.96 37.86V42H1073.88V33.996H1074.96V37.02C1075.34 36.552 1076.12 36.06 1077.01 36.06C1078.24 36.06 1078.87 36.684 1078.87 37.908V42ZM1080.09 41.244L1080.6 40.452C1081 40.884 1081.77 41.28 1082.55 41.28C1083.36 41.28 1083.79 40.944 1083.79 40.452C1083.79 39.876 1083.13 39.684 1082.39 39.516C1081.41 39.288 1080.25 39.024 1080.25 37.776C1080.25 36.852 1081.05 36.06 1082.46 36.06C1083.46 36.06 1084.18 36.42 1084.67 36.888L1084.19 37.644C1083.85 37.236 1083.21 36.936 1082.47 36.936C1081.74 36.936 1081.29 37.224 1081.29 37.692C1081.29 38.196 1081.91 38.364 1082.63 38.532C1083.64 38.76 1084.84 39.036 1084.84 40.368C1084.84 41.364 1084.02 42.144 1082.5 42.144C1081.53 42.144 1080.67 41.844 1080.09 41.244Z" fill="#17181A"/>
</g>
<path d="M23.4198 90H22.2198V83.568L20.9238 84.924L20.2158 84.192L22.3638 81.996H23.4198V90ZM30.5768 90H24.9368V89.052C27.9368 86.748 29.3168 85.548 29.3168 84.288C29.3168 83.352 28.5368 82.944 27.7568 82.944C26.8088 82.944 26.0758 83.34 25.5848 83.928L24.8768 83.148C25.5368 82.32 26.6288 81.876 27.7448 81.876C29.1848 81.876 30.5408 82.692 30.5408 84.288C30.5408 85.848 29.0408 87.252 26.8448 88.944H30.5768V90ZM32.1338 88.884L32.8418 88.068C33.3698 88.716 34.0898 89.076 35.0258 89.076C36.0698 89.076 36.7658 88.392 36.7658 87.516C36.7658 86.556 36.0818 85.944 35.0498 85.944C34.3538 85.944 33.7778 86.16 33.2498 86.664L32.3858 86.388V81.996H37.4498V83.052H33.5858V85.608C33.9698 85.224 34.6418 84.9 35.4218 84.9C36.7658 84.9 37.9778 85.824 37.9778 87.468C37.9778 89.112 36.7298 90.144 35.0378 90.144C33.6698 90.144 32.7578 89.664 32.1338 88.884ZM44.6588 90H43.2908L41.3588 87.504L40.4828 88.392V90H39.4028V81.996H40.4828V87.144L43.2788 84.204H44.6348L42.1388 86.832L44.6588 90ZM23.4198 153H22.2198V146.568L20.9238 147.924L20.2158 147.192L22.3638 144.996H23.4198V153ZM24.8648 149.004C24.8648 147.024 25.7768 144.876 27.9968 144.876C30.2168 144.876 31.1288 147.024 31.1288 149.004C31.1288 150.984 30.2168 153.144 27.9968 153.144C25.7768 153.144 24.8648 150.984 24.8648 149.004ZM29.9048 149.004C29.9048 147.444 29.4128 145.944 27.9968 145.944C26.5808 145.944 26.0888 147.444 26.0888 149.004C26.0888 150.564 26.5808 152.076 27.9968 152.076C29.4128 152.076 29.9048 150.564 29.9048 149.004ZM32.2358 149.004C32.2358 147.024 33.1478 144.876 35.3678 144.876C37.5878 144.876 38.4998 147.024 38.4998 149.004C38.4998 150.984 37.5878 153.144 35.3678 153.144C33.1478 153.144 32.2358 150.984 32.2358 149.004ZM37.2758 149.004C37.2758 147.444 36.7838 145.944 35.3678 145.944C33.9518 145.944 33.4598 147.444 33.4598 149.004C33.4598 150.564 33.9518 152.076 35.3678 152.076C36.7838 152.076 37.2758 150.564 37.2758 149.004ZM45.1748 153H43.8068L41.8748 150.504L40.9988 151.392V153H39.9188V144.996H40.9988V150.144L43.7948 147.204H45.1508L42.6548 149.832L45.1748 153ZM22.7718 216H21.4518L24.5718 209.052H20.3478V207.996H25.9638V208.824L22.7718 216ZM27.0128 214.884L27.7208 214.068C28.2488 214.716 28.9688 215.076 29.9048 215.076C30.9488 215.076 31.6448 214.392 31.6448 213.516C31.6448 212.556 30.9608 211.944 29.9288 211.944C29.2328 211.944 28.6568 212.16 28.1288 212.664L27.2648 212.388V207.996H32.3288V209.052H28.4648V211.608C28.8488 211.224 29.5208 210.9 30.3008 210.9C31.6448 210.9 32.8568 211.824 32.8568 213.468C32.8568 215.112 31.6088 216.144 29.9168 216.144C28.5488 216.144 27.6368 215.664 27.0128 214.884ZM39.5378 216H38.1698L36.2378 213.504L35.3618 214.392V216H34.2818V207.996H35.3618V213.144L38.1578 210.204H39.5138L37.0178 212.832L39.5378 216ZM20.7318 277.884L21.4398 277.068C21.9678 277.716 22.6878 278.076 23.6238 278.076C24.6678 278.076 25.3638 277.392 25.3638 276.516C25.3638 275.556 24.6798 274.944 23.6478 274.944C22.9518 274.944 22.3758 275.16 21.8478 275.664L20.9838 275.388V270.996H26.0478V272.052H22.1838V274.608C22.5678 274.224 23.2398 273.9 24.0198 273.9C25.3638 273.9 26.5758 274.824 26.5758 276.468C26.5758 278.112 25.3278 279.144 23.6358 279.144C22.2678 279.144 21.3558 278.664 20.7318 277.884ZM27.6888 275.004C27.6888 273.024 28.6008 270.876 30.8208 270.876C33.0408 270.876 33.9528 273.024 33.9528 275.004C33.9528 276.984 33.0408 279.144 30.8208 279.144C28.6008 279.144 27.6888 276.984 27.6888 275.004ZM32.7288 275.004C32.7288 273.444 32.2368 271.944 30.8208 271.944C29.4048 271.944 28.9128 273.444 28.9128 275.004C28.9128 276.564 29.4048 278.076 30.8208 278.076C32.2368 278.076 32.7288 276.564 32.7288 275.004ZM40.6278 279H39.2598L37.3278 276.504L36.4518 277.392V279H35.3718V270.996H36.4518V276.144L39.2478 273.204H40.6038L38.1078 275.832L40.6278 279ZM20.5518 338.004C20.5518 336.024 21.4638 333.876 23.6838 333.876C25.9038 333.876 26.8158 336.024 26.8158 338.004C26.8158 339.984 25.9038 342.144 23.6838 342.144C21.4638 342.144 20.5518 339.984 20.5518 338.004ZM25.5918 338.004C25.5918 336.444 25.0998 334.944 23.6838 334.944C22.2678 334.944 21.7758 336.444 21.7758 338.004C21.7758 339.564 22.2678 341.076 23.6838 341.076C25.0998 341.076 25.5918 339.564 25.5918 338.004Z" fill="#99B2C6"/>
<path fill-rule="evenodd" clip-rule="evenodd" d="M62 87V86H1080V87H62ZM62 150V149H1080V150H62ZM62 213V212H1080V213H62ZM62 276V275H1080V276H62ZM62 339V338H1080V339H62Z" fill="#F1F5F7"/>
<path d="M88.1201 362.268L88.6961 361.356C89.0321 361.74 89.4761 362.076 90.1361 362.076C91.0601 362.076 91.6361 361.452 91.6361 360.516V354.996H92.8361V360.528C92.8361 362.304 91.7081 363.144 90.2201 363.144C89.3801 363.144 88.6721 362.892 88.1201 362.268ZM99.2501 363H98.1701V362.364C97.7141 362.868 97.0541 363.144 96.2741 363.144C95.3141 363.144 94.2581 362.496 94.2581 361.224C94.2581 359.904 95.3021 359.328 96.2741 359.328C97.0541 359.328 97.7261 359.58 98.1701 360.096V359.136C98.1701 358.416 97.5821 357.984 96.7541 357.984C96.0941 357.984 95.5301 358.236 95.0141 358.752L94.5461 358.008C95.1941 357.372 95.9861 357.06 96.9221 357.06C98.1821 357.06 99.2501 357.612 99.2501 359.088V363ZM98.1701 361.728V360.744C97.8461 360.312 97.2821 360.084 96.6821 360.084C95.9021 360.084 95.3501 360.552 95.3501 361.236C95.3501 361.92 95.9021 362.388 96.6821 362.388C97.2821 362.388 97.8461 362.16 98.1701 361.728ZM105.973 363H104.893V359.292C104.893 358.332 104.401 358.02 103.657 358.02C102.985 358.02 102.373 358.428 102.061 358.86V363H100.981V357.204H102.061V358.02C102.445 357.552 103.213 357.06 104.113 357.06C105.337 357.06 105.973 357.708 105.973 358.932V363ZM161.088 363H159.888V354.996H165.264V356.052H161.088V358.392H165.18V359.448H161.088V363ZM166.172 360.096C166.172 358.416 167.384 357.06 169.076 357.06C170.816 357.06 171.896 358.416 171.896 360.192V360.456H167.312C167.396 361.44 168.116 362.256 169.28 362.256C169.892 362.256 170.564 362.016 170.996 361.572L171.5 362.28C170.924 362.844 170.108 363.144 169.172 363.144C167.444 363.144 166.172 361.92 166.172 360.096ZM169.076 357.948C167.912 357.948 167.36 358.884 167.3 359.676H170.84C170.816 358.908 170.3 357.948 169.076 357.948ZM174.327 363H173.247V354.996H174.327V358.044C174.783 357.42 175.467 357.06 176.223 357.06C177.735 357.06 178.803 358.248 178.803 360.108C178.803 362.004 177.723 363.144 176.223 363.144C175.443 363.144 174.759 362.748 174.327 362.172V363ZM174.327 358.884V361.344C174.615 361.812 175.275 362.184 175.935 362.184C177.015 362.184 177.687 361.32 177.687 360.108C177.687 358.896 177.015 358.02 175.935 358.02C175.275 358.02 174.615 358.416 174.327 358.884ZM240.976 363H239.776V356.64L237.184 363H236.68L234.088 356.64V363H232.888V354.996H234.604L236.932 360.744L239.26 354.996H240.976V363ZM247.387 363H246.307V362.364C245.851 362.868 245.191 363.144 244.411 363.144C243.451 363.144 242.395 362.496 242.395 361.224C242.395 359.904 243.439 359.328 244.411 359.328C245.191 359.328 245.863 359.58 246.307 360.096V359.136C246.307 358.416 245.719 357.984 244.891 357.984C244.231 357.984 243.667 358.236 243.151 358.752L242.683 358.008C243.331 357.372 244.123 357.06 245.059 357.06C246.319 357.06 247.387 357.612 247.387 359.088V363ZM246.307 361.728V360.744C245.983 360.312 245.419 360.084 244.819 360.084C244.039 360.084 243.487 360.552 243.487 361.236C243.487 361.92 244.039 362.388 244.819 362.388C245.419 362.388 245.983 362.16 246.307 361.728ZM250.198 363H249.118V357.204H250.198V358.092C250.642 357.516 251.326 357.072 252.094 357.072V358.164C251.972 358.138 251.847 358.126 251.722 358.128C251.182 358.128 250.45 358.536 250.198 358.968V363ZM312.92 363H311.6L310.952 361.344H307.028L306.38 363H305.06L308.24 354.996H309.74L312.92 363ZM310.604 360.276L308.984 356.04L307.376 360.276H310.604ZM314.936 362.16V365.208H313.856V357.204H314.936V358.032C315.154 357.733 315.439 357.489 315.768 357.32C316.098 357.151 316.462 357.062 316.832 357.06C318.344 357.06 319.412 358.2 319.412 360.096C319.412 361.992 318.344 363.144 316.832 363.144C316.076 363.144 315.404 362.796 314.936 362.16ZM318.284 360.096C318.284 358.896 317.624 358.02 316.544 358.02C315.884 358.02 315.224 358.404 314.936 358.872V361.332C315.224 361.788 315.884 362.184 316.544 362.184C317.624 362.184 318.284 361.308 318.284 360.096ZM321.862 363H320.782V357.204H321.862V358.092C322.306 357.516 322.99 357.072 323.758 357.072V358.164C323.636 358.138 323.511 358.126 323.386 358.128C322.846 358.128 322.114 358.536 321.862 358.968V363ZM384.976 363H383.776V356.64L381.184 363H380.68L378.088 356.64V363H376.888V354.996H378.604L380.932 360.744L383.26 354.996H384.976V363ZM391.387 363H390.307V362.364C389.851 362.868 389.191 363.144 388.411 363.144C387.451 363.144 386.395 362.496 386.395 361.224C386.395 359.904 387.439 359.328 388.411 359.328C389.191 359.328 389.863 359.58 390.307 360.096V359.136C390.307 358.416 389.719 357.984 388.891 357.984C388.231 357.984 387.667 358.236 387.151 358.752L386.683 358.008C387.331 357.372 388.123 357.06 389.059 357.06C390.319 357.06 391.387 357.612 391.387 359.088V363ZM390.307 361.728V360.744C389.983 360.312 389.419 360.084 388.819 360.084C388.039 360.084 387.487 360.552 387.487 361.236C387.487 361.92 388.039 362.388 388.819 362.388C389.419 362.388 389.983 362.16 390.307 361.728ZM392.83 365.268L392.998 364.296C393.13 364.356 393.334 364.392 393.478 364.392C393.874 364.392 394.138 364.26 394.318 363.828L394.654 363.06L392.266 357.204H393.418L395.23 361.752L397.042 357.204H398.206L395.35 364.104C394.978 365.016 394.342 365.34 393.502 365.352C393.322 365.352 392.998 365.316 392.83 365.268ZM451.12 362.268L451.696 361.356C452.032 361.74 452.476 362.076 453.136 362.076C454.06 362.076 454.636 361.452 454.636 360.516V354.996H455.836V360.528C455.836 362.304 454.708 363.144 453.22 363.144C452.38 363.144 451.672 362.892 451.12 362.268ZM462.586 363H461.506V362.208C461.062 362.688 460.33 363.144 459.442 363.144C458.206 363.144 457.594 362.52 457.594 361.296V357.204H458.674V360.936C458.674 361.896 459.154 362.184 459.898 362.184C460.57 362.184 461.182 361.8 461.506 361.368V357.204H462.586V363ZM469.29 363H468.21V359.292C468.21 358.332 467.718 358.02 466.974 358.02C466.302 358.02 465.69 358.428 465.378 358.86V363H464.298V357.204H465.378V358.02C465.762 357.552 466.53 357.06 467.43 357.06C468.654 357.06 469.29 357.708 469.29 358.932V363ZM523.12 362.268L523.696 361.356C524.032 361.74 524.476 362.076 525.136 362.076C526.06 362.076 526.636 361.452 526.636 360.516V354.996H527.836V360.528C527.836 362.304 526.708 363.144 525.22 363.144C524.38 363.144 523.672 362.892 523.12 362.268ZM534.586 363H533.506V362.208C533.062 362.688 532.33 363.144 531.442 363.144C530.206 363.144 529.594 362.52 529.594 361.296V357.204H530.674V360.936C530.674 361.896 531.154 362.184 531.898 362.184C532.57 362.184 533.182 361.8 533.506 361.368V357.204H534.586V363ZM537.378 363H536.298V354.996H537.378V363ZM598.92 363H597.6L596.952 361.344H593.028L592.38 363H591.06L594.24 354.996H595.74L598.92 363ZM596.604 360.276L594.984 356.04L593.376 360.276H596.604ZM604.708 363H603.628V362.208C603.184 362.688 602.452 363.144 601.564 363.144C600.328 363.144 599.716 362.52 599.716 361.296V357.204H600.796V360.936C600.796 361.896 601.276 362.184 602.02 362.184C602.692 362.184 603.304 361.8 603.628 361.368V357.204H604.708V363ZM606.371 364.488L606.887 363.696C607.367 364.248 607.955 364.464 608.747 364.464C609.647 364.464 610.547 364.032 610.547 362.808V362.052C610.103 362.628 609.419 363.048 608.639 363.048C607.139 363.048 606.059 361.944 606.059 360.048C606.059 358.188 607.139 357.06 608.639 357.06C609.395 357.06 610.079 357.42 610.547 358.044V357.204H611.627V362.772C611.627 364.764 610.175 365.352 608.747 365.352C607.775 365.352 607.067 365.148 606.371 364.488ZM610.547 361.224V358.872C610.247 358.404 609.587 358.02 608.939 358.02C607.859 358.02 607.187 358.86 607.187 360.048C607.187 361.248 607.859 362.088 608.939 362.088C609.587 362.088 610.247 361.692 610.547 361.224ZM665.396 361.872L666.08 360.948C666.62 361.548 667.484 362.076 668.6 362.076C669.896 362.076 670.352 361.416 670.352 360.84C670.352 360 669.44 359.76 668.42 359.496C667.136 359.16 665.648 358.788 665.648 357.156C665.648 355.836 666.812 354.876 668.48 354.876C669.716 354.876 670.688 355.272 671.396 355.992L670.7 356.88C670.088 356.232 669.248 355.944 668.384 355.944C667.496 355.944 666.884 356.4 666.884 357.072C666.884 357.792 667.748 358.02 668.744 358.272C670.052 358.62 671.576 359.028 671.576 360.732C671.576 361.98 670.712 363.144 668.552 363.144C667.124 363.144 666.08 362.628 665.396 361.872ZM672.582 360.096C672.582 358.416 673.794 357.06 675.486 357.06C677.226 357.06 678.306 358.416 678.306 360.192V360.456H673.722C673.806 361.44 674.526 362.256 675.69 362.256C676.302 362.256 676.974 362.016 677.406 361.572L677.91 362.28C677.334 362.844 676.518 363.144 675.582 363.144C673.854 363.144 672.582 361.92 672.582 360.096ZM675.486 357.948C674.322 357.948 673.77 358.884 673.71 359.676H677.25C677.226 358.908 676.71 357.948 675.486 357.948ZM680.737 362.16V365.208H679.657V357.204H680.737V358.032C680.955 357.733 681.24 357.489 681.569 357.32C681.899 357.151 682.263 357.062 682.633 357.06C684.145 357.06 685.213 358.2 685.213 360.096C685.213 361.992 684.145 363.144 682.633 363.144C681.877 363.144 681.205 362.796 680.737 362.16ZM684.085 360.096C684.085 358.896 683.425 358.02 682.345 358.02C681.685 358.02 681.025 358.404 680.737 358.872V361.332C681.025 361.788 681.685 362.184 682.345 362.184C683.425 362.184 684.085 361.308 684.085 360.096ZM688.179 363.144C687.267 363.144 686.799 362.628 686.799 361.716V358.152H685.839V357.204H686.799V355.62H687.879V357.204H689.055V358.152H687.879V361.476C687.879 361.884 688.071 362.184 688.443 362.184C688.695 362.184 688.923 362.076 689.031 361.956L689.307 362.772C689.079 362.988 688.743 363.144 688.179 363.144ZM742.55 359.004C742.55 356.628 744.2 354.864 746.58 354.864C748.97 354.864 750.62 356.628 750.62 359.004C750.62 361.38 748.97 363.144 746.58 363.144C744.2 363.144 742.55 361.38 742.55 359.004ZM749.38 359.004C749.38 357.24 748.28 355.932 746.58 355.932C744.87 355.932 743.79 357.24 743.79 359.004C743.79 360.756 744.87 362.076 746.58 362.076C748.28 362.076 749.38 360.756 749.38 359.004ZM751.68 360.096C751.68 358.356 752.88 357.06 754.63 357.06C755.72 357.06 756.38 357.516 756.8 358.08L756.08 358.74C755.74 358.248 755.27 358.02 754.68 358.02C753.54 358.02 752.81 358.896 752.81 360.096C752.81 361.296 753.54 362.184 754.68 362.184C755.27 362.184 755.74 361.944 756.08 361.464L756.8 362.124C756.38 362.688 755.72 363.144 754.63 363.144C752.88 363.144 751.68 361.836 751.68 360.096ZM759.59 363.144C758.68 363.144 758.21 362.628 758.21 361.716V358.152H757.25V357.204H758.21V355.62H759.29V357.204H760.46V358.152H759.29V361.476C759.29 361.884 759.48 362.184 759.85 362.184C760.1 362.184 760.33 362.076 760.44 361.956L760.72 362.772C760.49 362.988 760.15 363.144 759.59 363.144ZM820.68 363H819.52L815.09 356.856V363H813.89V354.996H815.12L819.48 360.996V354.996H820.68V363ZM825 363.144C823.2 363.144 822.07 361.776 822.07 360.096C822.07 358.428 823.2 357.06 825 357.06C826.81 357.06 827.93 358.428 827.93 360.096C827.93 361.776 826.81 363.144 825 363.144ZM825 362.184C826.16 362.184 826.8 361.2 826.8 360.096C826.8 359.004 826.16 358.02 825 358.02C823.85 358.02 823.2 359.004 823.2 360.096C823.2 361.2 823.85 362.184 825 362.184ZM832 363H830.83L828.45 357.204H829.6L831.41 361.752L833.22 357.204H834.39L832 363ZM890.74 363H887.89V354.996H890.74C893.24 354.996 894.9 356.7 894.9 359.004C894.9 361.32 893.24 363 890.74 363ZM889.09 356.052V361.944H890.74C892.59 361.944 893.66 360.624 893.66 359.004C893.66 357.36 892.63 356.052 890.74 356.052H889.09ZM895.96 360.096C895.96 358.416 897.18 357.06 898.87 357.06C900.61 357.06 901.69 358.416 901.69 360.192V360.456H897.1C897.19 361.44 897.91 362.256 899.07 362.256C899.68 362.256 900.36 362.016 900.79 361.572L901.29 362.28C900.72 362.844 899.9 363.144 898.96 363.144C897.24 363.144 895.96 361.92 895.96 360.096ZM898.87 357.948C897.7 357.948 897.15 358.884 897.09 359.676H900.63C900.61 358.908 900.09 357.948 898.87 357.948ZM902.68 360.096C902.68 358.356 903.88 357.06 905.63 357.06C906.72 357.06 907.38 357.516 907.8 358.08L907.08 358.74C906.74 358.248 906.27 358.02 905.68 358.02C904.54 358.02 903.81 358.896 903.81 360.096C903.81 361.296 904.54 362.184 905.68 362.184C906.27 362.184 906.74 361.944 907.08 361.464L907.8 362.124C907.38 362.688 906.72 363.144 905.63 363.144C903.88 363.144 902.68 361.836 902.68 360.096ZM961.12 362.268L961.7 361.356C962.03 361.74 962.48 362.076 963.14 362.076C964.06 362.076 964.64 361.452 964.64 360.516V354.996H965.84V360.528C965.84 362.304 964.71 363.144 963.22 363.144C962.38 363.144 961.67 362.892 961.12 362.268ZM972.25 363H971.17V362.364C970.71 362.868 970.05 363.144 969.27 363.144C968.31 363.144 967.26 362.496 967.26 361.224C967.26 359.904 968.3 359.328 969.27 359.328C970.05 359.328 970.73 359.58 971.17 360.096V359.136C971.17 358.416 970.58 357.984 969.75 357.984C969.09 357.984 968.53 358.236 968.01 358.752L967.55 358.008C968.19 357.372 968.99 357.06 969.92 357.06C971.18 357.06 972.25 357.612 972.25 359.088V363ZM971.17 361.728V360.744C970.85 360.312 970.28 360.084 969.68 360.084C968.9 360.084 968.35 360.552 968.35 361.236C968.35 361.92 968.9 362.388 969.68 362.388C970.28 362.388 970.85 362.16 971.17 361.728ZM978.97 363H977.89V359.292C977.89 358.332 977.4 358.02 976.66 358.02C975.99 358.02 975.37 358.428 975.06 358.86V363H973.98V357.204H975.06V358.02C975.45 357.552 976.21 357.06 977.11 357.06C978.34 357.06 978.97 357.708 978.97 358.932V363ZM1034.09 363H1032.89V354.996H1038.26V356.052H1034.09V358.392H1038.18V359.448H1034.09V363ZM1039.17 360.096C1039.17 358.416 1040.38 357.06 1042.08 357.06C1043.82 357.06 1044.9 358.416 1044.9 360.192V360.456H1040.31C1040.4 361.44 1041.12 362.256 1042.28 362.256C1042.89 362.256 1043.56 362.016 1044 361.572L1044.5 362.28C1043.92 362.844 1043.11 363.144 1042.17 363.144C1040.44 363.144 1039.17 361.92 1039.17 360.096ZM1042.08 357.948C1040.91 357.948 1040.36 358.884 1040.3 359.676H1043.84C1043.82 358.908 1043.3 357.948 1042.08 357.948ZM1047.33 363H1046.25V354.996H1047.33V358.044C1047.54 357.741 1047.83 357.493 1048.16 357.322C1048.48 357.151 1048.85 357.061 1049.22 357.06C1050.73 357.06 1051.8 358.248 1051.8 360.108C1051.8 362.004 1050.72 363.144 1049.22 363.144C1048.44 363.144 1047.76 362.748 1047.33 362.172V363ZM1047.33 358.884V361.344C1047.61 361.812 1048.27 362.184 1048.93 362.184C1050.01 362.184 1050.69 361.32 1050.69 360.108C1050.69 358.896 1050.01 358.02 1048.93 358.02C1048.27 358.02 1047.61 358.416 1047.33 358.884Z" fill="#99B2C6"/>
<path fill-rule="evenodd" clip-rule="evenodd" d="M71.7129 338.776C179.545 338.776 117.11 151.838 203.059 151.838C274.203 151.838 227.787 250.551 328.323 250.551C396.833 250.551 407.373 205.85 454.406 205.85C501.439 205.85 490.742 265.481 548.381 265.481C606.019 265.481 607.746 133.668 654.719 133.668C701.69 133.668 712.84 283.168 764.83 283.168C816.82 283.168 839.26 230.048 906.94 230.048C974.63 230.048 942.47 338.776 1065.31 338.776H71.7129Z" fill="url(#paint0_linear_103_746)"/>
<path fill-rule="evenodd" clip-rule="evenodd" d="M70 338.752C193.128 338.752 163.877 289.176 194.348 289.176C224.818 289.176 232.14 307.946 258.96 307.946C285.78 307.946 300.002 202.666 336.575 202.666C373.148 202.666 372.911 266.844 414.359 266.844C455.807 266.844 458.891 72 503.997 72C549.102 72 540.569 187.519 584.457 187.519C628.344 187.519 621.029 262.223 662.477 262.223C703.93 262.223 708.39 213.704 745.17 213.704C781.95 213.704 788.04 299.96 831.93 299.96C875.82 299.96 890.45 273.776 917.27 273.776C966.64 273.776 998.95 338.755 1066 338.755L70 338.752Z" fill="url(#paint1_linear_103_746)"/>
<defs>
<filter id="filter0_dd_103_746" x="447" y="22" width="117" height="52" filterUnits="userSpaceOnUse" color-interpolation-filters="sRGB">
<feFlood flood-opacity="0" result="BackgroundImageFix"/>
<feColorMatrix in="SourceAlpha" type="matrix" values="0 0 0 0 0 0 0 0 0 0 0 0 0 0 0 0 0 0 127 0" result="hardAlpha"/>
<feOffset dy="2"/>
<feGaussianBlur stdDeviation="2"/>
<feColorMatrix type="matrix" values="0 0 0 0 0.0705882 0 0 0 0 0.0705882 0 0 0 0 0.0901961 0 0 0 0.06 0"/>
<feBlend mode="normal" in2="BackgroundImageFix" result="effect1_dropShadow_103_746"/>
<feColorMatrix in="SourceAlpha" type="matrix" values="0 0 0 0 0 0 0 0 0 0 0 0 0 0 0 0 0 0 127 0" result="hardAlpha"/>
<feOffset dy="4"/>
<feGaussianBlur stdDeviation="3"/>
<feColorMatrix type="matrix" values="0 0 0 0 0.0705882 0 0 0 0 0.0705882 0 0 0 0 0.0901961 0 0 0 0.08 0"/>
<feBlend mode="normal" in2="effect1_dropShadow_103_746" result="effect2_dropShadow_103_746"/>
<feBlend mode="normal" in="SourceGraphic" in2="effect2_dropShadow_103_746" result="shape"/>
</filter>
<filter id="filter1_d_103_746" x="966" y="19" width="136" height="40" filterUnits="userSpaceOnUse" color-interpolation-filters="sRGB">
<feFlood flood-opacity="0" result="BackgroundImageFix"/>
<feColorMatrix in="SourceAlpha" type="matrix" values="0 0 0 0 0 0 0 0 0 0 0 0 0 0 0 0 0 0 127 0" result="hardAlpha"/>
<feOffset dy="1"/>
<feGaussianBlur stdDeviation="1"/>
<feColorMatrix type="matrix" values="0 0 0 0 0.0627451 0 0 0 0 0.0941176 0 0 0 0 0.156863 0 0 0 0.05 0"/>
<feBlend mode="normal" in2="BackgroundImageFix" result="effect1_dropShadow_103_746"/>
<feBlend mode="normal" in="SourceGraphic" in2="effect1_dropShadow_103_746" result="shape"/>
</filter>
<linearGradient id="paint0_linear_103_746" x1="568.509" y1="133.668" x2="568.509" y2="338.776" gradientUnits="userSpaceOnUse">
<stop stop-color="#39D5F8" stop-opacity="0.4"/>
<stop offset="1" stop-color="#12AFF0" stop-opacity="0.6"/>
</linearGradient>
<linearGradient id="paint1_linear_103_746" x1="568" y1="72" x2="568" y2="338.755" gradientUnits="userSpaceOnUse">
<stop stop-color="#D5A0FF" stop-opacity="0.4"/>
<stop offset="1" stop-color="#8571F4" stop-opacity="0.6"/>
</linearGradient>
</defs>
</svg>
