<svg width="38" height="38" viewBox="0 0 38 38" fill="none" xmlns="http://www.w3.org/2000/svg">
<path fill-rule="evenodd" clip-rule="evenodd" d="M8.2908 1.24863L19 0L29.7092 1.24863L38 13.5443L19 38L0 13.5443L8.2908 1.24863Z" fill="#FDB300"/>
<path d="M7.69634 13.5443L19 38L0 13.5443H7.69634ZM30.3036 13.5443L19 38L38 13.5443" fill="#EA6C00"/>
<path fill-rule="evenodd" clip-rule="evenodd" d="M7.69605 13.5443H30.3034L18.9997 38" fill="#FDAD00"/>
<path d="M18.9997 1.56663e-05L8.2905 1.24865L7.69605 13.5443L18.9997 1.56663e-05ZM18.9997 1.56663e-05L29.7089 1.24865L30.3047 13.5443" fill="#FDD231"/>
<path d="M38 13.5443L29.7092 1.24864L30.3036 13.5443H38ZM0 13.5443L8.2908 1.24864L7.69634 13.5443" fill="#FDAD00"/>
<path fill-rule="evenodd" clip-rule="evenodd" d="M18.9997 1.56663e-05L7.69605 13.5443H30.3034" fill="#FEEEB7"/>
</svg>
