<svg width="38" height="38" viewBox="0 0 38 38" fill="none" xmlns="http://www.w3.org/2000/svg">
<path d="M5.63431e-06 18.9999C5.63431e-06 21.3206 0.417965 23.5463 1.18203 25.6091L18.9999 27.2648L36.8177 25.6091C37.5817 23.5463 37.9998 21.3206 37.9998 18.9999C37.9998 16.6792 37.5817 14.4535 36.8177 12.3906L18.9999 10.735L1.18203 12.3906C0.398508 14.506 -0.0017321 16.7441 5.63431e-06 18.9999Z" fill="#FFDA44"/>
<path d="M36.8192 12.3906C34.1334 5.15712 27.1699 0 19 0C10.8314 0 3.86652 5.15712 1.18211 12.3906H36.8192ZM1.18211 25.6091C3.86652 32.8427 10.8314 37.9998 19 37.9998C27.1699 37.9998 34.1334 32.8427 36.8192 25.6091H1.18211Z" fill="#D80027"/>
</svg>
