<svg width="594" height="272" viewBox="0 0 594 272" fill="none" xmlns="http://www.w3.org/2000/svg">
<path d="M585.36 0.539993H8.64004C4.16653 0.539993 0.540039 4.16649 0.540039 8.63999V262.44C0.540039 266.913 4.16653 270.54 8.64004 270.54H585.36C589.833 270.54 593.46 266.913 593.46 262.44V8.63999C593.46 4.16649 589.833 0.539993 585.36 0.539993Z" fill="white"/>
<path d="M585.36 0.539993H8.64004C4.16653 0.539993 0.540039 4.16649 0.540039 8.63999V262.44C0.540039 266.913 4.16653 270.54 8.64004 270.54H585.36C589.833 270.54 593.46 266.913 593.46 262.44V8.63999C593.46 4.16649 589.833 0.539993 585.36 0.539993Z" stroke="#F1F5F7" stroke-width="1.08"/>
<path d="M29.4106 41.04L26.8532 36.7372H24.8487V41.04H22.8269V29.5142H27.89C30.1709 29.5142 31.657 31.0003 31.657 33.1257C31.657 35.182 30.3092 36.288 28.9268 36.5126L31.7434 41.04H29.4106ZM29.5834 33.1257C29.5834 32.0198 28.754 31.294 27.6135 31.294H24.8487V34.9574H27.6135C28.754 34.9574 29.5834 34.2316 29.5834 33.1257ZM32.5847 36.8582C32.5847 34.439 34.3473 32.4864 36.8183 32.4864C39.3239 32.4864 40.9309 34.4044 40.9309 37.031V37.463H34.4855C34.6238 38.7244 35.5741 39.7612 37.1466 39.7612C37.9588 39.7612 38.9265 39.4329 39.514 38.8454L40.3435 40.0377C39.514 40.8326 38.2871 41.2473 36.9566 41.2473C34.451 41.2473 32.5847 39.502 32.5847 36.8582ZM36.8183 33.9724C35.2631 33.9724 34.5546 35.1648 34.4672 36.1843H39.1684C39.1338 35.1993 38.4599 33.9724 36.8183 33.9724ZM44.9161 41.04L41.512 32.6937H43.4474L45.8838 38.9491L48.3203 32.6937H50.273L46.8688 41.04H44.9161ZM50.894 36.8582C50.894 34.439 52.6565 32.4864 55.1276 32.4864C57.6332 32.4864 59.2402 34.4044 59.2402 37.031V37.463H52.7948C52.933 38.7244 53.8834 39.7612 55.4559 39.7612C56.268 39.7612 57.2357 39.4329 57.8232 38.8454L58.6527 40.0377C57.8233 40.8326 56.5964 41.2473 55.2658 41.2473C52.7602 41.2473 50.894 39.502 50.894 36.8582ZM55.1276 33.9724C53.5724 33.9724 52.8639 35.1648 52.7775 36.1843H57.4776C57.4431 35.1993 56.7692 33.9724 55.1276 33.9724ZM66.6641 41.04V35.8214C66.6641 34.5254 66.0075 34.0934 64.988 34.0934C64.0549 34.0934 63.26 34.6464 62.8452 35.2166V41.04H61.0308V32.6937H62.8452V33.8342C63.2121 33.415 63.6635 33.0782 64.1698 32.8459C64.6761 32.6136 65.2258 32.4911 65.7828 32.4864C67.58 32.4864 68.4785 33.454 68.4785 35.1648V41.04H66.6641ZM76.4683 41.04V39.934C76.0943 40.3465 75.6383 40.6764 75.1295 40.9026C74.6207 41.1287 74.0703 41.2461 73.5135 41.2473C71.7164 41.2473 70.8351 40.3142 70.8351 38.6035V32.6937H72.6495V37.9468C72.6495 39.2428 73.3061 39.6403 74.3256 39.6403C75.2415 39.6403 76.0363 39.1219 76.4683 38.5516V32.6937H78.2828V41.04H76.4683ZM80.1209 36.8582C80.1209 34.439 81.8835 32.4864 84.3545 32.4864C86.8601 32.4864 88.4672 34.4044 88.4672 37.031V37.463H82.0217C82.16 38.7244 83.1104 39.7612 84.6828 39.7612C85.495 39.7612 86.4627 39.4329 87.0502 38.8454L87.8796 40.0377C87.0502 40.8326 85.8233 41.2473 84.4928 41.2473C81.9872 41.2473 80.1209 39.502 80.1209 36.8582ZM84.3545 33.9724C82.7993 33.9724 82.0908 35.1648 82.0044 36.1843H86.7046C86.6701 35.1993 85.9961 33.9724 84.3545 33.9724ZM94.0054 39.4156L95.1286 37.8604C95.5942 38.3621 96.1583 38.7623 96.7857 39.0359C97.4131 39.3094 98.0902 39.4505 98.7747 39.4502C100.434 39.4502 101.09 38.638 101.09 37.8777C101.09 36.8409 99.8633 36.5299 98.4637 36.167C96.5801 35.7004 94.3683 35.1475 94.3683 32.711C94.3683 30.8102 96.0444 29.3414 98.5673 29.3414C100.364 29.3414 101.816 29.9116 102.887 30.9484L101.73 32.4518C100.831 31.5532 99.6041 31.1385 98.3945 31.1385C97.2022 31.1385 96.4419 31.7088 96.4419 32.5728C96.4419 33.4713 97.6169 33.7651 98.982 34.1107C100.883 34.5945 103.147 35.182 103.147 37.6876C103.147 39.6057 101.799 41.2473 98.6883 41.2473C96.5628 41.2473 95.0249 40.5043 94.0054 39.4156ZM110.607 41.04V35.7868C110.607 34.4908 109.933 34.0934 108.914 34.0934C107.998 34.0934 107.203 34.6464 106.771 35.2166V41.04H104.957V29.5142H106.771V33.8342C107.324 33.1776 108.413 32.4864 109.726 32.4864C111.523 32.4864 112.422 33.4195 112.422 35.1302V41.04H110.607ZM119.876 41.04V40.1414C119.254 40.8499 118.286 41.2473 117.18 41.2473C115.815 41.2473 114.277 40.3315 114.277 38.4825C114.277 36.5644 115.815 35.7696 117.18 35.7696C118.303 35.7696 119.271 36.1324 119.876 36.8409V35.5968C119.876 34.6291 119.081 34.0416 117.923 34.0416C116.99 34.0416 116.178 34.3872 115.452 35.0956L114.709 33.8342C115.677 32.9184 116.886 32.4864 118.217 32.4864C120.066 32.4864 121.69 33.264 121.69 35.5104V41.04H119.876ZM119.876 39.1392V37.8777C119.461 37.3075 118.682 37.0137 117.889 37.0137C116.869 37.0137 116.109 37.6012 116.109 38.5171C116.109 39.4156 116.869 40.0032 117.889 40.0032C118.682 40.0032 119.461 39.7094 119.876 39.1392ZM124.042 41.04V32.6937H125.857V33.9206C126.479 33.1257 127.481 32.5036 128.57 32.5036V34.3008C128.382 34.2631 128.191 34.2457 127.999 34.2489C127.239 34.2489 126.22 34.7673 125.857 35.3548V41.04H124.042ZM129.515 36.8582C129.515 34.439 131.277 32.4864 133.748 32.4864C136.254 32.4864 137.861 34.4044 137.861 37.031V37.463H131.416C131.554 38.7244 132.504 39.7612 134.077 39.7612C134.889 39.7612 135.856 39.4329 136.444 38.8454L137.273 40.0377C136.444 40.8326 135.217 41.2473 133.887 41.2473C131.381 41.2473 129.515 39.502 129.515 36.8582ZM133.748 33.9724C132.193 33.9724 131.485 35.1648 131.397 36.1843H136.098C136.064 35.1993 135.39 33.9724 133.748 33.9724Z" fill="#17181A"/>
<mask id="mask0_103_771" style="mask-type:luminance" maskUnits="userSpaceOnUse" x="147" y="28" width="17" height="16">
<path d="M147.96 28.08H163.08V43.2H147.96V28.08Z" fill="white"/>
</mask>
<g mask="url(#mask0_103_771)">
<path d="M155.993 35.0104C155.996 34.9464 155.986 34.8825 155.964 34.8225C155.942 34.7625 155.907 34.7077 155.863 34.6614C155.819 34.615 155.766 34.5781 155.707 34.5529C155.648 34.5277 155.585 34.5147 155.521 34.5147C155.457 34.5147 155.393 34.5277 155.334 34.5529C155.276 34.5781 155.222 34.615 155.178 34.6614C155.134 34.7077 155.1 34.7625 155.077 34.8225C155.055 34.8825 155.045 34.9464 155.048 35.0104V38.7904C155.048 38.9157 155.098 39.0359 155.187 39.1245C155.275 39.2131 155.395 39.2629 155.521 39.2629C155.646 39.2629 155.766 39.2131 155.855 39.1245C155.943 39.0359 155.993 38.9157 155.993 38.7904V35.0104Z" fill="#809FB8"/>
<path fill-rule="evenodd" clip-rule="evenodd" d="M155.52 28.8673C154.631 28.8674 153.75 29.0426 152.928 29.3831C152.106 29.7236 151.36 30.2225 150.731 30.8515C150.102 31.4805 149.603 32.2272 149.263 33.049C148.922 33.8708 148.747 34.7516 148.747 35.6411C148.747 36.5306 148.923 37.4113 149.263 38.233C149.604 39.0548 150.103 39.8014 150.732 40.4303C151.361 41.0592 152.107 41.5581 152.929 41.8984C153.751 42.2387 154.632 42.4138 155.521 42.4138C157.317 42.4136 159.04 41.6999 160.31 40.4295C161.58 39.1592 162.294 37.4364 162.294 35.64C162.294 33.8436 161.58 32.1209 160.31 30.8508C159.039 29.5806 157.316 28.8672 155.52 28.8673ZM149.692 35.64C149.692 34.0944 150.306 32.6121 151.399 31.5192C152.492 30.4263 153.974 29.8123 155.52 29.8123C157.066 29.8123 158.548 30.4263 159.641 31.5192C160.734 32.6121 161.348 34.0944 161.348 35.64C161.348 37.1856 160.734 38.6679 159.641 39.7608C158.548 40.8537 157.066 41.4677 155.52 41.4677C153.974 41.4677 152.492 40.8537 151.399 39.7608C150.306 38.6679 149.692 37.1856 149.692 35.64Z" fill="#809FB8"/>
<path d="M156.151 33.1204C156.151 33.2876 156.084 33.4479 155.965 33.566C155.847 33.6841 155.686 33.7503 155.519 33.75C155.352 33.7497 155.191 33.683 155.073 33.5645C154.955 33.446 154.889 33.2855 154.889 33.1182C154.89 32.9509 154.956 32.7906 155.075 32.6725C155.134 32.6141 155.203 32.5677 155.28 32.5361C155.356 32.5046 155.438 32.4884 155.521 32.4886C155.604 32.4887 155.686 32.5051 155.762 32.537C155.839 32.5688 155.908 32.6154 155.967 32.6741C156.025 32.7327 156.072 32.8023 156.103 32.8789C156.135 32.9555 156.151 33.0375 156.151 33.1204Z" fill="#809FB8"/>
</g>
<path d="M565.92 25.38H557.28C554 25.38 551.34 28.0394 551.34 31.32V39.96C551.34 43.2406 554 45.9 557.28 45.9H565.92C569.201 45.9 571.86 43.2406 571.86 39.96V31.32C571.86 28.0394 569.201 25.38 565.92 25.38Z" fill="white"/>
<path d="M565.92 25.38H557.28C554 25.38 551.34 28.0394 551.34 31.32V39.96C551.34 43.2406 554 45.9 557.28 45.9H565.92C569.201 45.9 571.86 43.2406 571.86 39.96V31.32C571.86 28.0394 569.201 25.38 565.92 25.38Z" stroke="#D9E1E7" stroke-width="1.08"/>
<path d="M558.36 35.64H564.84" stroke="#809FB8" stroke-width="1.62" stroke-linecap="round" stroke-linejoin="round"/>
<path d="M25.2938 86.4H23.9978V79.4534L22.5981 80.9179L21.8335 80.1273L24.1533 77.7556H25.2938V86.4ZM33.0234 86.4H26.9322V85.3761C30.1722 82.8878 31.6626 81.5918 31.6626 80.231C31.6626 79.2201 30.8202 78.7795 29.9778 78.7795C28.9539 78.7795 28.1623 79.2072 27.632 79.8422L26.8674 78.9998C27.5802 78.1056 28.7595 77.626 29.9648 77.626C31.52 77.626 32.9845 78.5073 32.9845 80.231C32.9845 81.9158 31.3645 83.4321 28.9928 85.2595H33.0234V86.4ZM34.7049 85.1947L35.4696 84.3134C36.0398 85.0132 36.8174 85.402 37.8283 85.402C38.9558 85.402 39.7075 84.6633 39.7075 83.7172C39.7075 82.6804 38.9688 82.0195 37.8542 82.0195C37.1025 82.0195 36.4805 82.2528 35.9102 82.7971L34.9771 82.499V77.7556H40.4462V78.8961H36.2731V81.6566C36.6878 81.2419 37.4136 80.892 38.256 80.892C39.7075 80.892 41.0164 81.8899 41.0164 83.6654C41.0164 85.4409 39.6686 86.5555 37.8412 86.5555C36.3638 86.5555 35.3789 86.0371 34.7049 85.1947ZM48.2319 86.4H46.7545L44.6679 83.7043L43.7219 84.6633V86.4H42.5555V77.7556H43.7219V83.3155L46.7415 80.1403H48.206L45.5103 82.9785L48.2319 86.4ZM25.2938 119.88H23.9978V112.933L22.5981 114.398L21.8335 113.607L24.1533 111.236H25.2938V119.88ZM26.8544 115.564C26.8544 113.426 27.8394 111.106 30.237 111.106C32.6346 111.106 33.6195 113.426 33.6195 115.564C33.6195 117.703 32.6346 120.035 30.237 120.035C27.8394 120.035 26.8544 117.703 26.8544 115.564ZM32.2976 115.564C32.2976 113.879 31.7663 112.259 30.237 112.259C28.7077 112.259 28.1763 113.879 28.1763 115.564C28.1763 117.249 28.7077 118.882 30.237 118.882C31.7663 118.882 32.2976 117.249 32.2976 115.564ZM34.8151 115.564C34.8151 113.426 35.8001 111.106 38.1977 111.106C40.5953 111.106 41.5802 113.426 41.5802 115.564C41.5802 117.703 40.5953 120.035 38.1977 120.035C35.8001 120.035 34.8151 117.703 34.8151 115.564ZM40.2583 115.564C40.2583 113.879 39.7269 112.259 38.1977 112.259C36.6684 112.259 36.137 113.879 36.137 115.564C36.137 117.249 36.6684 118.882 38.1977 118.882C39.7269 118.882 40.2583 117.249 40.2583 115.564ZM48.7892 119.88H47.3118L45.2252 117.184L44.2791 118.143V119.88H43.1127V111.236H44.2791V116.795L47.2988 113.62H48.7633L46.0676 116.459L48.7892 119.88ZM24.594 153.36H23.1684L26.538 145.856H21.976V144.716H28.0413V145.61L24.594 153.36ZM29.1743 152.155L29.9389 151.273C30.5091 151.973 31.2867 152.362 32.2976 152.362C33.4251 152.362 34.1768 151.623 34.1768 150.677C34.1768 149.64 33.4381 148.979 32.3235 148.979C31.5718 148.979 30.9498 149.213 30.3795 149.757L29.4464 149.459V144.716H34.9155V145.856H30.7424V148.617C31.1571 148.202 31.8829 147.852 32.7253 147.852C34.1768 147.852 35.4858 148.85 35.4858 150.625C35.4858 152.401 34.1379 153.515 32.3106 153.515C30.8331 153.515 29.8482 152.997 29.1743 152.155ZM42.7012 153.36H41.2238L39.1373 150.664L38.1912 151.623V153.36H37.0248V144.716H38.1912V150.275L41.2108 147.1H42.6753L39.9797 149.939L42.7012 153.36ZM22.3908 185.635L23.1554 184.753C23.7257 185.453 24.5032 185.842 25.5141 185.842C26.6416 185.842 27.3933 185.103 27.3933 184.157C27.3933 183.12 26.6546 182.459 25.5401 182.459C24.7884 182.459 24.1663 182.693 23.596 183.237L22.6629 182.939V178.196H28.1321V179.336H23.9589V182.097C24.3736 181.682 25.0994 181.332 25.9418 181.332C27.3933 181.332 28.7023 182.33 28.7023 184.105C28.7023 185.881 27.3544 186.995 25.5271 186.995C24.0496 186.995 23.0647 186.477 22.3908 185.635ZM29.9043 182.524C29.9043 180.386 30.8893 178.066 33.2869 178.066C35.6845 178.066 36.6695 180.386 36.6695 182.524C36.6695 184.663 35.6845 186.995 33.2869 186.995C30.8893 186.995 29.9043 184.663 29.9043 182.524ZM35.3475 182.524C35.3475 180.839 34.8162 179.219 33.2869 179.219C31.7576 179.219 31.2262 180.839 31.2262 182.524C31.2262 184.209 31.7576 185.842 33.2869 185.842C34.8162 185.842 35.3475 184.209 35.3475 182.524ZM43.8784 186.84H42.401L40.3145 184.144L39.3684 185.103V186.84H38.202V178.196H39.3684V183.755L42.388 180.58H43.8525L41.1569 183.419L43.8784 186.84ZM22.1964 216.004C22.1964 213.866 23.1813 211.546 25.5789 211.546C27.9765 211.546 28.9615 213.866 28.9615 216.004C28.9615 218.143 27.9765 220.475 25.5789 220.475C23.1813 220.475 22.1964 218.143 22.1964 216.004ZM27.6396 216.004C27.6396 214.319 27.1082 212.699 25.5789 212.699C24.0496 212.699 23.5183 214.319 23.5183 216.004C23.5183 217.689 24.0496 219.322 25.5789 219.322C27.1082 219.322 27.6396 217.689 27.6396 216.004Z" fill="#99B2C6"/>
<path fill-rule="evenodd" clip-rule="evenodd" d="M62.6401 83.16V82.08H572.4V83.16H62.6401ZM62.6401 116.64V115.56H572.4V116.64H62.6401ZM62.6401 150.12V149.04H572.4V150.12H62.6401ZM62.6401 183.6V182.52H572.4V183.6H62.6401ZM62.6401 217.08V216H572.4V217.08H62.6401Z" fill="#F1F5F7"/>
<path d="M70.3298 242.209L70.9519 241.224C71.3148 241.639 71.7943 242.002 72.5071 242.002C73.505 242.002 74.1271 241.328 74.1271 240.317V234.356H75.4231V240.33C75.4231 242.248 74.2049 243.155 72.5978 243.155C71.6906 243.155 70.926 242.883 70.3298 242.209ZM82.3502 243H81.1839V242.313C80.6914 242.857 79.9785 243.155 79.1361 243.155C78.0993 243.155 76.9589 242.456 76.9589 241.082C76.9589 239.656 78.0864 239.034 79.1361 239.034C79.9785 239.034 80.7043 239.306 81.1839 239.864V238.827C81.1839 238.049 80.5488 237.583 79.6546 237.583C78.9418 237.583 78.3326 237.855 77.7754 238.412L77.2699 237.609C77.9697 236.922 78.8251 236.585 79.836 236.585C81.1968 236.585 82.3502 237.181 82.3502 238.775V243ZM81.1839 241.626V240.563C80.8339 240.097 80.2248 239.851 79.5768 239.851C78.7344 239.851 78.1382 240.356 78.1382 241.095C78.1382 241.834 78.7344 242.339 79.5768 242.339C80.2248 242.339 80.8339 242.093 81.1839 241.626ZM89.6111 243H88.4447V238.995C88.4447 237.959 87.9133 237.622 87.1098 237.622C86.3841 237.622 85.7231 238.062 85.3861 238.529V243H84.2197V236.74H85.3861V237.622C85.8008 237.116 86.6303 236.585 87.6023 236.585C88.9242 236.585 89.6111 237.285 89.6111 238.607V243ZM127.535 243H126.239V234.356H132.045V235.496H127.535V238.023H131.955V239.164H127.535V243ZM133.026 239.864C133.026 238.049 134.335 236.585 136.162 236.585C138.042 236.585 139.208 238.049 139.208 239.967V240.252H134.257C134.348 241.315 135.126 242.196 136.383 242.196C137.044 242.196 137.769 241.937 138.236 241.458L138.78 242.222C138.158 242.831 137.277 243.155 136.266 243.155C134.4 243.155 133.026 241.834 133.026 239.864ZM136.162 237.544C134.905 237.544 134.309 238.555 134.244 239.41H138.067C138.042 238.581 137.484 237.544 136.162 237.544ZM141.833 243H140.667V234.356H141.833V237.647C142.326 236.974 143.065 236.585 143.881 236.585C145.514 236.585 146.667 237.868 146.667 239.877C146.667 241.924 145.501 243.155 143.881 243.155C143.039 243.155 142.3 242.728 141.833 242.106V243ZM141.833 238.555V241.211C142.144 241.717 142.857 242.119 143.57 242.119C144.736 242.119 145.462 241.186 145.462 239.877C145.462 238.568 144.736 237.622 143.57 237.622C142.857 237.622 142.144 238.049 141.833 238.555ZM192.214 243H190.918V236.131L188.119 243H187.575L184.775 236.131V243H183.479V234.356H185.333L187.847 240.563L190.361 234.356H192.214V243ZM199.138 243H197.972V242.313C197.479 242.857 196.767 243.155 195.924 243.155C194.887 243.155 193.747 242.456 193.747 241.082C193.747 239.656 194.874 239.034 195.924 239.034C196.767 239.034 197.492 239.306 197.972 239.864V238.827C197.972 238.049 197.337 237.583 196.443 237.583C195.73 237.583 195.121 237.855 194.563 238.412L194.058 237.609C194.758 236.922 195.613 236.585 196.624 236.585C197.985 236.585 199.138 237.181 199.138 238.775V243ZM197.972 241.626V240.563C197.622 240.097 197.013 239.851 196.365 239.851C195.522 239.851 194.926 240.356 194.926 241.095C194.926 241.834 195.522 242.339 196.365 242.339C197.013 242.339 197.622 242.093 197.972 241.626ZM202.174 243H201.008V236.74H202.174V237.699C202.654 237.077 203.392 236.598 204.222 236.598V237.777C204.09 237.749 203.955 237.736 203.82 237.738C203.237 237.738 202.446 238.179 202.174 238.645V243ZM248.314 243H246.888L246.188 241.211H241.951L241.251 243H239.825L243.259 234.356H244.879L248.314 243ZM245.813 240.058L244.063 235.483L242.326 240.058H245.813ZM250.491 242.093V245.385H249.325V236.74H250.491V237.635C250.726 237.311 251.034 237.048 251.39 236.866C251.746 236.683 252.139 236.587 252.539 236.585C254.172 236.585 255.325 237.816 255.325 239.864C255.325 241.911 254.172 243.155 252.539 243.155C251.722 243.155 250.997 242.78 250.491 242.093ZM254.107 239.864C254.107 238.568 253.394 237.622 252.228 237.622C251.515 237.622 250.802 238.036 250.491 238.542V241.199C250.802 241.691 251.515 242.119 252.228 242.119C253.394 242.119 254.107 241.173 254.107 239.864ZM257.971 243H256.805V236.74H257.971V237.699C258.451 237.077 259.189 236.598 260.019 236.598V237.777C259.887 237.749 259.752 237.736 259.617 237.738C259.034 237.738 258.243 238.179 257.971 238.645V243ZM304.534 243H303.238V236.131L300.439 243H299.895L297.095 236.131V243H295.799V234.356H297.653L300.167 240.563L302.681 234.356H304.534V243ZM311.458 243H310.292V242.313C309.799 242.857 309.087 243.155 308.244 243.155C307.207 243.155 306.067 242.456 306.067 241.082C306.067 239.656 307.194 239.034 308.244 239.034C309.087 239.034 309.812 239.306 310.292 239.864V238.827C310.292 238.049 309.657 237.583 308.763 237.583C308.05 237.583 307.441 237.855 306.883 238.412L306.378 237.609C307.078 236.922 307.933 236.585 308.944 236.585C310.305 236.585 311.458 237.181 311.458 238.775V243ZM310.292 241.626V240.563C309.942 240.097 309.333 239.851 308.685 239.851C307.842 239.851 307.246 240.356 307.246 241.095C307.246 241.834 307.842 242.339 308.685 242.339C309.333 242.339 309.942 242.093 310.292 241.626ZM313.017 245.449L313.198 244.4C313.341 244.464 313.561 244.503 313.717 244.503C314.144 244.503 314.429 244.361 314.624 243.894L314.987 243.065L312.408 236.74H313.652L315.609 241.652L317.566 236.74H318.823L315.738 244.192C315.336 245.177 314.65 245.527 313.742 245.54C313.548 245.54 313.198 245.501 313.017 245.449ZM354.37 242.209L354.992 241.224C355.355 241.639 355.834 242.002 356.547 242.002C357.545 242.002 358.167 241.328 358.167 240.317V234.356H359.463V240.33C359.463 242.248 358.245 243.155 356.638 243.155C355.731 243.155 354.966 242.883 354.37 242.209ZM366.753 243H365.587V242.145C365.107 242.663 364.317 243.155 363.358 243.155C362.023 243.155 361.362 242.482 361.362 241.16V236.74H362.528V240.771C362.528 241.808 363.047 242.119 363.85 242.119C364.576 242.119 365.237 241.704 365.587 241.237V236.74H366.753V243ZM373.993 243H372.827V238.995C372.827 237.959 372.296 237.622 371.492 237.622C370.766 237.622 370.105 238.062 369.768 238.529V243H368.602V236.74H369.768V237.622C370.183 237.116 371.013 236.585 371.985 236.585C373.307 236.585 373.993 237.285 373.993 238.607V243ZM410.53 242.209L411.152 241.224C411.515 241.639 411.994 242.002 412.707 242.002C413.705 242.002 414.327 241.328 414.327 240.317V234.356H415.623V240.33C415.623 242.248 414.405 243.155 412.798 243.155C411.891 243.155 411.126 242.883 410.53 242.209ZM422.913 243H421.747V242.145C421.267 242.663 420.477 243.155 419.518 243.155C418.183 243.155 417.522 242.482 417.522 241.16V236.74H418.688V240.771C418.688 241.808 419.207 242.119 420.01 242.119C420.736 242.119 421.397 241.704 421.747 241.237V236.74H422.913V243ZM425.928 243H424.762V234.356H425.928V243ZM470.794 243H469.368L468.668 241.211H464.431L463.731 243H462.305L465.739 234.356H467.359L470.794 243ZM468.293 240.058L466.543 235.483L464.806 240.058H468.293ZM477.045 243H475.878V242.145C475.399 242.663 474.608 243.155 473.649 243.155C472.315 243.155 471.654 242.482 471.654 241.16V236.74H472.82V240.771C472.82 241.808 473.338 242.119 474.142 242.119C474.868 242.119 475.529 241.704 475.878 241.237V236.74H477.045V243ZM478.841 244.607L479.398 243.752C479.917 244.348 480.552 244.581 481.407 244.581C482.379 244.581 483.351 244.115 483.351 242.793V241.976C482.871 242.598 482.133 243.052 481.29 243.052C479.67 243.052 478.504 241.859 478.504 239.812C478.504 237.803 479.67 236.585 481.29 236.585C482.107 236.585 482.846 236.974 483.351 237.647V236.74H484.517V242.754C484.517 244.905 482.949 245.54 481.407 245.54C480.357 245.54 479.593 245.32 478.841 244.607ZM483.351 241.082V238.542C483.027 238.036 482.314 237.622 481.614 237.622C480.448 237.622 479.722 238.529 479.722 239.812C479.722 241.108 480.448 242.015 481.614 242.015C482.314 242.015 483.027 241.587 483.351 241.082ZM520.988 241.782L521.727 240.784C522.31 241.432 523.243 242.002 524.448 242.002C525.848 242.002 526.34 241.289 526.34 240.667C526.34 239.76 525.355 239.501 524.254 239.216C522.867 238.853 521.26 238.451 521.26 236.688C521.26 235.263 522.517 234.226 524.319 234.226C525.654 234.226 526.703 234.654 527.468 235.431L526.716 236.39C526.055 235.691 525.148 235.379 524.215 235.379C523.256 235.379 522.595 235.872 522.595 236.598C522.595 237.375 523.528 237.622 524.604 237.894C526.016 238.27 527.662 238.71 527.662 240.551C527.662 241.898 526.729 243.155 524.396 243.155C522.854 243.155 521.727 242.598 520.988 241.782ZM528.749 239.864C528.749 238.049 530.058 236.585 531.885 236.585C533.764 236.585 534.931 238.049 534.931 239.967V240.252H529.98C530.071 241.315 530.848 242.196 532.105 242.196C532.766 242.196 533.492 241.937 533.959 241.458L534.503 242.222C533.881 242.831 533 243.155 531.989 243.155C530.123 243.155 528.749 241.834 528.749 239.864ZM531.885 237.544C530.628 237.544 530.032 238.555 529.967 239.41H533.79C533.764 238.581 533.207 237.544 531.885 237.544ZM537.556 242.093V245.385H536.39V236.74H537.556V237.635C537.791 237.311 538.099 237.048 538.455 236.866C538.811 236.683 539.204 236.587 539.604 236.585C541.237 236.585 542.39 237.816 542.39 239.864C542.39 241.911 541.237 243.155 539.604 243.155C538.787 243.155 538.062 242.78 537.556 242.093ZM541.172 239.864C541.172 238.568 540.459 237.622 539.293 237.622C538.58 237.622 537.867 238.036 537.556 238.542V241.199C537.867 241.691 538.58 242.119 539.293 242.119C540.459 242.119 541.172 241.173 541.172 239.864Z" fill="#99B2C6"/>
<path d="M76.6799 147.96C76.6799 146.814 77.1351 145.715 77.9452 144.905C78.7554 144.095 79.8542 143.64 80.9999 143.64H87.4799C88.6257 143.64 89.7245 144.095 90.5346 144.905C91.3448 145.715 91.7999 146.814 91.7999 147.96V216H76.6799V147.96ZM102.6 169.56C102.6 168.414 103.055 167.315 103.865 166.505C104.675 165.695 105.774 165.24 106.92 165.24H113.4C114.546 165.24 115.644 165.695 116.455 166.505C117.265 167.315 117.72 168.414 117.72 169.56V216H102.6V169.56ZM128.52 111.24C128.52 110.094 128.975 108.995 129.785 108.185C130.595 107.375 131.694 106.92 132.84 106.92H139.32C140.466 106.92 141.564 107.375 142.375 108.185C143.185 108.995 143.64 110.094 143.64 111.24V216H128.52V111.24ZM154.44 149.04C154.44 147.894 154.895 146.795 155.705 145.985C156.515 145.175 157.614 144.72 158.76 144.72H165.24C166.386 144.72 167.484 145.175 168.295 145.985C169.105 146.795 169.56 147.894 169.56 149.04V216H154.44V149.04ZM180.36 149.04C180.36 147.894 180.815 146.795 181.625 145.985C182.435 145.175 183.534 144.72 184.68 144.72H191.16C192.306 144.72 193.404 145.175 194.215 145.985C195.025 146.795 195.48 147.894 195.48 149.04V216H180.36V149.04ZM206.28 115.56C206.28 114.414 206.735 113.315 207.545 112.505C208.355 111.695 209.454 111.24 210.6 111.24H217.08C218.226 111.24 219.324 111.695 220.135 112.505C220.945 113.315 221.4 114.414 221.4 115.56V216H206.28V115.56Z" fill="#EDE6FD"/>
<path d="M232.2 102.6C232.2 101.454 232.655 100.355 233.465 99.5453C234.275 98.7351 235.374 98.28 236.52 98.28H243C244.146 98.28 245.244 98.7351 246.055 99.5453C246.865 100.355 247.32 101.454 247.32 102.6V216H232.2V102.6Z" fill="#B79DF5"/>
<path d="M258.12 138.24C258.12 137.094 258.575 135.995 259.385 135.185C260.196 134.375 261.294 133.92 262.44 133.92H268.92C270.066 133.92 271.165 134.375 271.975 135.185C272.785 135.995 273.24 137.094 273.24 138.24V216H258.12V138.24ZM284.04 123.12C284.04 121.974 284.495 120.875 285.305 120.065C286.116 119.255 287.214 118.8 288.36 118.8H294.84C295.986 118.8 297.085 119.255 297.895 120.065C298.705 120.875 299.16 121.974 299.16 123.12V216H284.04V123.12ZM309.96 141.48C309.96 140.334 310.415 139.235 311.225 138.425C312.036 137.615 313.134 137.16 314.28 137.16H320.76C321.906 137.16 323.005 137.615 323.815 138.425C324.625 139.235 325.08 140.334 325.08 141.48V216H309.96V141.48ZM335.88 155.52C335.88 154.374 336.335 153.275 337.145 152.465C337.956 151.655 339.054 151.2 340.2 151.2H346.68C347.826 151.2 348.925 151.655 349.735 152.465C350.545 153.275 351 154.374 351 155.52V216H335.88V155.52ZM361.8 152.28C361.8 151.134 362.255 150.035 363.065 149.225C363.876 148.415 364.974 147.96 366.12 147.96H372.6C373.746 147.96 374.845 148.415 375.655 149.225C376.465 150.035 376.92 151.134 376.92 152.28V216H361.8V152.28ZM387.72 147.96C387.72 146.814 388.175 145.715 388.985 144.905C389.796 144.095 390.894 143.64 392.04 143.64H398.52C399.666 143.64 400.765 144.095 401.575 144.905C402.385 145.715 402.84 146.814 402.84 147.96V216H387.72V147.96ZM413.64 123.12C413.64 121.974 414.095 120.875 414.905 120.065C415.716 119.255 416.814 118.8 417.96 118.8H424.44C425.586 118.8 426.685 119.255 427.495 120.065C428.305 120.875 428.76 121.974 428.76 123.12V216H413.64V123.12ZM439.56 123.12C439.56 121.974 440.015 120.875 440.825 120.065C441.636 119.255 442.734 118.8 443.88 118.8H450.36C451.506 118.8 452.605 119.255 453.415 120.065C454.225 120.875 454.68 121.974 454.68 123.12V216H439.56V123.12ZM465.48 141.48C465.48 140.334 465.935 139.235 466.745 138.425C467.556 137.615 468.654 137.16 469.8 137.16H476.28C477.426 137.16 478.525 137.615 479.335 138.425C480.145 139.235 480.6 140.334 480.6 141.48V216H465.48V141.48ZM491.4 155.52C491.4 154.374 491.855 153.275 492.665 152.465C493.476 151.655 494.574 151.2 495.72 151.2H502.2C503.346 151.2 504.445 151.655 505.255 152.465C506.065 153.275 506.52 154.374 506.52 155.52V216H491.4V155.52ZM517.32 152.28C517.32 151.134 517.775 150.035 518.585 149.225C519.396 148.415 520.494 147.96 521.64 147.96H528.12C529.266 147.96 530.365 148.415 531.175 149.225C531.985 150.035 532.44 151.134 532.44 152.28V216H517.32V152.28ZM543.24 147.96C543.24 146.814 543.695 145.715 544.505 144.905C545.316 144.095 546.414 143.64 547.56 143.64H554.04C555.186 143.64 556.285 144.095 557.095 144.905C557.905 145.715 558.36 146.814 558.36 147.96V216H543.24V147.96Z" fill="#EDE6FD"/>
<g filter="url(#filter0_dd_103_771)">
<path d="M273.24 49.68H205.2C201.621 49.68 198.72 52.5812 198.72 56.16V75.6C198.72 79.1788 201.621 82.08 205.2 82.08H273.24C276.819 82.08 279.72 79.1788 279.72 75.6V56.16C279.72 52.5812 276.819 49.68 273.24 49.68Z" fill="#17181A"/>
<path d="M218.884 67.0788C218.884 68.1156 218.214 69.0984 216.573 69.228V70.2H215.806V69.2388C214.693 69.1632 213.873 68.7204 213.322 68.1048L213.937 67.2732C214.359 67.7376 214.996 68.1588 215.806 68.256V65.9016C214.704 65.6208 213.549 65.2212 213.549 63.8604C213.549 62.748 214.467 61.9164 215.806 61.8192V60.8256H216.573V61.83C217.469 61.9164 218.182 62.262 218.722 62.8128L218.085 63.612C217.674 63.18 217.145 62.9208 216.573 62.8236V64.9296C217.696 65.232 218.884 65.6424 218.884 67.0788ZM214.661 63.7848C214.661 64.3032 215.158 64.5408 215.806 64.7244V62.7804C215.115 62.8344 214.661 63.2232 214.661 63.7848ZM216.573 66.1068V68.256C217.458 68.1588 217.782 67.6296 217.782 67.176C217.782 66.5604 217.253 66.312 216.573 66.1068ZM225.003 69.12H219.927V68.2668C222.627 66.1932 223.869 65.1132 223.869 63.9792C223.869 63.1368 223.167 62.7696 222.465 62.7696C221.612 62.7696 220.953 63.126 220.51 63.6552L219.873 62.9532C220.467 62.208 221.45 61.8084 222.454 61.8084C223.75 61.8084 224.971 62.5428 224.971 63.9792C224.971 65.3832 223.621 66.6468 221.644 68.1696H225.003V69.12ZM226.027 68.0724L226.632 67.3704C227.085 67.9212 227.831 68.2884 228.641 68.2884C229.634 68.2884 230.228 67.8132 230.228 67.0572C230.228 66.258 229.58 65.9232 228.533 65.9232C228.241 65.9232 227.863 65.9232 227.755 65.934V64.9512C227.874 64.962 228.252 64.962 228.533 64.962C229.407 64.962 230.12 64.638 230.12 63.8928C230.12 63.1584 229.429 62.7696 228.576 62.7696C227.82 62.7696 227.226 63.0612 226.697 63.6012L226.124 62.9316C226.664 62.2944 227.517 61.8084 228.673 61.8084C230.142 61.8084 231.2 62.532 231.2 63.7416C231.2 64.746 230.347 65.2752 229.634 65.4048C230.315 65.4696 231.308 66.0312 231.308 67.1652C231.308 68.3748 230.304 69.2496 228.673 69.2496C227.42 69.2496 226.491 68.7204 226.027 68.0724ZM232.458 68.5584C232.458 68.1912 232.761 67.8888 233.128 67.8888C233.495 67.8888 233.808 68.1912 233.808 68.5584C233.808 68.9256 233.495 69.2388 233.128 69.2388C232.761 69.2388 232.458 68.9256 232.458 68.5584ZM240.065 69.12H234.989V68.2668C237.689 66.1932 238.931 65.1132 238.931 63.9792C238.931 63.1368 238.229 62.7696 237.527 62.7696C236.674 62.7696 236.015 63.126 235.572 63.6552L234.935 62.9532C235.529 62.208 236.512 61.8084 237.516 61.8084C238.812 61.8084 240.032 62.5428 240.032 63.9792C240.032 65.3832 238.682 66.6468 236.706 68.1696H240.065V69.12ZM241.467 68.1156L242.104 67.3812C242.579 67.9644 243.227 68.2884 244.069 68.2884C245.009 68.2884 245.635 67.6728 245.635 66.8844C245.635 66.0204 245.02 65.4696 244.091 65.4696C243.465 65.4696 242.946 65.664 242.471 66.1176L241.693 65.8692V61.9164H246.251V62.8668H242.773V65.1672C243.119 64.8216 243.724 64.53 244.426 64.53C245.635 64.53 246.726 65.3616 246.726 66.8412C246.726 68.3208 245.603 69.2496 244.08 69.2496C242.849 69.2496 242.028 68.8176 241.467 68.1156ZM247.727 65.5236C247.727 63.7416 248.548 61.8084 250.546 61.8084C252.544 61.8084 253.365 63.7416 253.365 65.5236C253.365 67.3056 252.544 69.2496 250.546 69.2496C248.548 69.2496 247.727 67.3056 247.727 65.5236ZM252.263 65.5236C252.263 64.1196 251.821 62.7696 250.546 62.7696C249.272 62.7696 248.829 64.1196 248.829 65.5236C248.829 66.9276 249.272 68.2884 250.546 68.2884C251.821 68.2884 252.263 66.9276 252.263 65.5236ZM254.627 70.524L254.174 70.146C254.519 69.93 254.854 69.498 254.908 69.1416C254.887 69.1416 254.8 69.1632 254.746 69.1632C254.411 69.1632 254.163 68.904 254.163 68.5476C254.163 68.1804 254.455 67.8888 254.822 67.8888C255.221 67.8888 255.578 68.2128 255.578 68.7852C255.578 69.4872 255.178 70.1352 254.627 70.524ZM258.303 69.12H257.223V63.3312L256.056 64.5516L255.419 63.8928L257.352 61.9164H258.303V69.12ZM259.959 68.4072L260.478 67.5972C260.845 68.0076 261.277 68.2776 261.99 68.2776C263.372 68.2776 263.955 66.96 263.955 65.6856V65.4372C263.621 65.9232 262.843 66.5064 261.968 66.5064C260.672 66.5064 259.571 65.718 259.571 64.1844C259.571 62.8992 260.575 61.7976 262.163 61.7976C264.236 61.7976 265.046 63.5364 265.046 65.5236C265.046 67.5324 264.042 69.2388 261.99 69.2388C261.083 69.2388 260.424 68.904 259.959 68.4072ZM263.923 64.6056C263.858 63.774 263.394 62.7588 262.217 62.7588C261.191 62.7588 260.672 63.5148 260.672 64.152C260.672 65.1132 261.385 65.5668 262.238 65.5668C262.897 65.5668 263.556 65.1888 263.923 64.6056Z" fill="white"/>
<path d="M241.812 87.264C241.51 87.6664 241.119 87.993 240.669 88.2179C240.219 88.4429 239.723 88.56 239.22 88.56C238.717 88.56 238.221 88.4429 237.771 88.2179C237.321 87.993 236.93 87.6664 236.628 87.264L232.74 82.08H245.7L241.812 87.264Z" fill="#17181A"/>
</g>
<defs>
<filter id="filter0_dd_103_771" x="192.24" y="47.52" width="93.96" height="51.84" filterUnits="userSpaceOnUse" color-interpolation-filters="sRGB">
<feFlood flood-opacity="0" result="BackgroundImageFix"/>
<feColorMatrix in="SourceAlpha" type="matrix" values="0 0 0 0 0 0 0 0 0 0 0 0 0 0 0 0 0 0 127 0" result="hardAlpha"/>
<feOffset dy="2.16"/>
<feGaussianBlur stdDeviation="2.16"/>
<feColorMatrix type="matrix" values="0 0 0 0 0.0705882 0 0 0 0 0.0705882 0 0 0 0 0.0901961 0 0 0 0.06 0"/>
<feBlend mode="normal" in2="BackgroundImageFix" result="effect1_dropShadow_103_771"/>
<feColorMatrix in="SourceAlpha" type="matrix" values="0 0 0 0 0 0 0 0 0 0 0 0 0 0 0 0 0 0 127 0" result="hardAlpha"/>
<feOffset dy="4.32"/>
<feGaussianBlur stdDeviation="3.24"/>
<feColorMatrix type="matrix" values="0 0 0 0 0.0705882 0 0 0 0 0.0705882 0 0 0 0 0.0901961 0 0 0 0.08 0"/>
<feBlend mode="normal" in2="effect1_dropShadow_103_771" result="effect2_dropShadow_103_771"/>
<feBlend mode="normal" in="SourceGraphic" in2="effect2_dropShadow_103_771" result="shape"/>
</filter>
</defs>
</svg>
