<svg width="14" height="14" viewBox="0 0 14 14" fill="none" xmlns="http://www.w3.org/2000/svg">
<path d="M7.48843 6.34873C7.49159 6.28264 7.48133 6.21659 7.45822 6.15459C7.4351 6.09259 7.39964 6.03593 7.35399 5.98804C7.30833 5.94015 7.25342 5.90203 7.1926 5.87598C7.13178 5.84993 7.06628 5.8365 7.00011 5.8365C6.93395 5.8365 6.86848 5.84993 6.80766 5.87598C6.74684 5.90203 6.69193 5.94015 6.64627 5.98804C6.60062 6.03593 6.56515 6.09259 6.54204 6.15459C6.51893 6.21659 6.50863 6.28264 6.51179 6.34873V10.2553C6.51179 10.3848 6.56324 10.509 6.65482 10.6006C6.7464 10.6922 6.8706 10.7436 7.00011 10.7436C7.12962 10.7436 7.25383 10.6922 7.3454 10.6006C7.43698 10.509 7.48843 10.3848 7.48843 10.2553V6.34873Z" fill="#809FB8"/>
<path fill-rule="evenodd" clip-rule="evenodd" d="M6.99943 2.22787e-08C6.08018 7.32741e-05 5.16994 0.181211 4.32069 0.533061C3.47144 0.884911 2.6998 1.40059 2.04985 2.05065C1.39989 2.70071 0.88435 3.47243 0.532635 4.32174C0.18092 5.17105 -7.32658e-05 6.08131 2.2248e-08 7.00057C7.33103e-05 7.91982 0.181194 8.83004 0.533044 9.67929C0.884894 10.5285 1.40057 11.3002 2.05063 11.9501C2.70069 12.6001 3.47241 13.1156 4.32171 13.4674C5.17102 13.8191 6.08131 14.0001 7.00056 14C8.85707 13.9999 10.6375 13.2622 11.9501 11.9494C13.2628 10.6365 14.0001 8.85596 14 6.99944C13.9998 5.14293 13.2622 3.36251 11.9493 2.04986C10.6365 0.737215 8.85595 -0.00014799 6.99943 2.22787e-08ZM0.97664 6.99944C0.97664 5.4021 1.61117 3.87017 2.74067 2.74068C3.87016 1.61118 5.40209 0.97664 6.99943 0.97664C8.59678 0.97664 10.1287 1.61118 11.2582 2.74068C12.3877 3.87017 13.0222 5.4021 13.0222 6.99944C13.0222 8.59679 12.3877 10.1287 11.2582 11.2582C10.1287 12.3877 8.59678 13.0222 6.99943 13.0222C5.40209 13.0222 3.87016 12.3877 2.74067 11.2582C1.61117 10.1287 0.97664 8.59679 0.97664 6.99944Z" fill="#809FB8"/>
<path d="M7.65144 4.39545C7.65115 4.56833 7.58216 4.73399 7.45971 4.85603C7.33725 4.97806 7.17134 5.04646 6.99847 5.04617C6.82559 5.04587 6.65991 4.97691 6.53787 4.85446C6.41584 4.73201 6.34744 4.56608 6.34774 4.3932C6.34803 4.22033 6.41702 4.05466 6.53947 3.93263C6.60011 3.8722 6.67203 3.8243 6.75117 3.79168C6.83031 3.75905 6.91511 3.74234 7.00071 3.74249C7.08631 3.74264 7.17102 3.75964 7.25005 3.79253C7.32908 3.82542 7.40088 3.87356 7.46131 3.93419C7.52173 3.99483 7.5696 4.06677 7.60222 4.14591C7.63485 4.22505 7.65159 4.30985 7.65144 4.39545Z" fill="#809FB8"/>
</svg>
