<svg width="38" height="38" viewBox="0 0 38 38" fill="none" xmlns="http://www.w3.org/2000/svg">
<path d="M6.72873 5.34767e-06H31.2713C32.1565 -0.00112535 33.0327 0.177059 33.8471 0.523844C34.6641 0.869915 35.4065 1.37883 36.0308 2.0194C36.6588 2.66383 37.1544 3.42505 37.4897 4.26004C37.8282 5.09933 38.0015 5.99613 38 6.9011V31.0989C38.0015 32.0039 37.8282 32.9007 37.4897 33.74C37.1544 34.5749 36.6588 35.3362 36.0308 35.9806C35.4096 36.6193 34.6672 37.1278 33.8471 37.4762C33.0327 37.8229 32.1565 38.0011 31.2713 38H6.72873C5.84355 38.0011 4.96729 37.8229 4.15286 37.4762C3.3328 37.1278 2.59043 36.6193 1.96921 35.9806C1.34123 35.3362 0.845614 34.5749 0.510305 33.74C0.171807 32.9007 -0.00146911 32.0039 9.38223e-06 31.0989V6.9011C-0.00146911 5.99613 0.171807 5.09933 0.510305 4.26004C0.845614 3.42505 1.34123 2.66383 1.96921 2.0194C2.59043 1.38067 3.3328 0.872248 4.15286 0.523844C4.96729 0.177059 5.84355 -0.00112535 6.72873 5.34767e-06Z" fill="#17181A"/>
<path d="M15.3587 30.59C16.4086 30.59 17.4156 30.1729 18.158 29.4305C18.9004 28.688 19.3175 27.6811 19.3175 26.6312V22.6737H15.3587C14.8327 22.664 14.3101 22.7593 13.8214 22.9538C13.3326 23.1483 12.8875 23.4383 12.5121 23.8068C12.1367 24.1753 11.8386 24.6149 11.635 25.1C11.4315 25.5851 11.3266 26.1058 11.3266 26.6319C11.3266 27.1579 11.4315 27.6787 11.635 28.1638C11.8386 28.6488 12.1367 29.0885 12.5121 29.457C12.8875 29.8255 13.3326 30.1154 13.8214 30.31C14.3101 30.5045 14.8327 30.5997 15.3587 30.59Z" fill="#0ACF83"/>
<path d="M11.3998 18.715C11.3998 17.665 11.8169 16.6581 12.5593 15.9157C13.3017 15.1733 14.3087 14.7562 15.3586 14.7562H19.3174V22.6737H15.3586C14.3087 22.6737 13.3017 22.2566 12.5593 21.5142C11.8169 20.7718 11.3998 19.7649 11.3998 18.715Z" fill="#A259FF"/>
<path d="M11.3998 10.7987C11.3998 9.7488 11.8169 8.74188 12.5593 7.99946C13.3017 7.25705 14.3087 6.83996 15.3586 6.83996H19.3174V14.7562H15.3586C14.8388 14.7564 14.324 14.6541 13.8437 14.4553C13.3634 14.2565 12.927 13.9651 12.5594 13.5976C12.1918 13.2301 11.9002 12.7937 11.7012 12.3135C11.5022 11.8333 11.3998 11.3185 11.3998 10.7987Z" fill="#F24E1E"/>
<path d="M19.3159 6.83996H23.2747C24.3118 6.85917 25.2999 7.28461 26.0265 8.02481C26.7531 8.76501 27.1602 9.76083 27.1602 10.7981C27.1602 11.8353 26.7531 12.8311 26.0265 13.5713C25.2999 14.3115 24.3118 14.737 23.2747 14.7562H19.3159V6.83996Z" fill="#FF7262"/>
<path d="M27.2335 18.715C27.2335 19.7649 26.8164 20.7718 26.074 21.5142C25.3316 22.2566 24.3247 22.6737 23.2747 22.6737C22.2248 22.6737 21.2179 22.2566 20.4754 21.5142C19.733 20.7718 19.3159 19.7649 19.3159 18.715C19.3159 17.665 19.733 16.6581 20.4754 15.9157C21.2179 15.1733 22.2248 14.7562 23.2747 14.7562C24.3247 14.7562 25.3316 15.1733 26.074 15.9157C26.8164 16.6581 27.2335 17.665 27.2335 18.715Z" fill="#1ABCFE"/>
</svg>
