<svg width="38" height="38" viewBox="0 0 38 38" fill="none" xmlns="http://www.w3.org/2000/svg">
<path d="M19 0C8.50657 0 0 8.50929 0 19C0 29.4907 8.50657 38 19 38C29.4934 38 38 29.4907 38 19C38 8.50929 29.4934 0 19 0ZM28.2693 27.3872C27.9639 27.9301 27.4035 28.2286 26.824 28.2286C26.5431 28.2274 26.2668 28.1574 26.0191 28.025C23.6466 26.6959 21.026 25.869 18.3203 25.5959C15.6146 25.3227 12.8816 25.6091 10.2912 26.4371C9.42537 26.7085 8.49298 26.2335 8.21612 25.3649C7.93655 24.4964 8.41698 23.56 9.28691 23.2886C12.3161 22.325 15.4742 21.9856 18.6635 22.3114C21.8473 22.6371 24.8642 23.5872 27.6341 25.1479C28.4308 25.5822 28.7158 26.5865 28.2693 27.3872ZM30.5439 21.6194C30.2507 22.1894 29.6739 22.5014 29.0781 22.5014C28.8136 22.5028 28.5525 22.4424 28.3155 22.3249C25.4015 20.8006 22.2213 19.8515 18.9484 19.5293C15.6554 19.1902 12.3279 19.485 9.1458 20.3979C8.72545 20.5166 8.27527 20.4648 7.89274 20.2539C7.51021 20.0431 7.2261 19.6901 7.10193 19.2714C6.98026 18.8499 7.03084 18.3974 7.24254 18.0131C7.45425 17.6289 7.80978 17.3445 8.23108 17.2221C11.8175 16.1878 15.5691 15.8515 19.2823 16.2315C23.0009 16.6115 26.5539 17.6701 29.8449 19.3936C30.6511 19.8143 30.9673 20.8051 30.5439 21.6194ZM31.3677 16.815C31.1193 16.815 30.8696 16.7607 30.6307 16.6386C27.1656 14.9141 23.416 13.8334 19.5646 13.4493C15.7063 13.0496 11.8076 13.3578 8.06007 14.3586C7.63735 14.471 7.1873 14.4113 6.80854 14.1925C6.42977 13.9737 6.15318 13.6137 6.0393 13.1914C5.80316 12.3092 6.32699 11.4 7.21185 11.1693C11.3448 10.0624 15.6455 9.72204 19.9011 10.165C24.1816 10.5993 28.2869 11.78 32.1046 13.68C32.9216 14.0872 33.2527 15.0914 32.8469 15.9057C32.5592 16.4892 31.9743 16.815 31.3677 16.815Z" fill="#1ED760"/>
</svg>
