<svg width="53" height="53" viewBox="0 0 53 53" fill="none" xmlns="http://www.w3.org/2000/svg">
<g filter="url(#filter0_d_103_681)">
<path d="M39.7501 1.9875H13.2501C7.76176 1.9875 3.31259 6.43667 3.31259 11.925V38.425C3.31259 43.9133 7.76176 48.3625 13.2501 48.3625H39.7501C45.2384 48.3625 49.6876 43.9133 49.6876 38.425V11.925C49.6876 6.43667 45.2384 1.9875 39.7501 1.9875Z" fill="white"/>
<path d="M39.7501 1.9875H13.2501C7.76176 1.9875 3.31259 6.43667 3.31259 11.925V38.425C3.31259 43.9133 7.76176 48.3625 13.2501 48.3625H39.7501C45.2384 48.3625 49.6876 43.9133 49.6876 38.425V11.925C49.6876 6.43667 45.2384 1.9875 39.7501 1.9875Z" stroke="#D9E1E7" stroke-width="1.32184"/>
<path d="M19.8751 24.0713V18.7713C19.8751 17.5338 19.8751 16.915 20.1136 16.4433C20.3256 16.0272 20.6701 15.6894 21.0809 15.4774C21.5579 15.2376 22.1674 15.2375 23.4129 15.2375H28.7129M28.7129 15.2375C28.9485 15.2319 29.1839 15.2524 29.415 15.2985C29.6396 15.3528 29.8544 15.4422 30.0511 15.5635C30.2764 15.6999 30.4619 15.8908 30.8461 16.2724L34.3043 19.724C34.6753 20.1056 34.8741 20.2964 35.0066 20.519C35.1278 20.7167 35.2172 20.9322 35.2716 21.1577C35.3129 21.3904 35.3352 21.6262 35.3379 21.8625M28.7129 15.2375V18.3288C28.7129 19.5663 28.7128 20.1838 28.9513 20.6555C29.1614 21.0731 29.5006 21.4118 29.9185 21.6214C30.3823 21.8625 31.005 21.8625 32.2373 21.8625H35.3379M35.3379 21.8625V31.5827C35.3379 32.8176 35.3378 33.4338 35.086 33.9068C34.8807 34.323 34.546 34.6614 34.1321 34.8714C33.6551 35.1125 33.0323 35.1125 31.8001 35.1125H27.5998M23.1876 27.3825L25.4004 29.5913M17.6623 35.1125V32.3513L25.9435 24.07L28.7129 26.8313L20.4316 35.1125H17.6623Z" stroke="#99B2C6" stroke-width="1.98276" stroke-linecap="round" stroke-linejoin="round"/>
</g>
<defs>
<filter id="filter0_d_103_681" x="-0.000123796" y="-7.16966e-07" width="53.0002" height="53" filterUnits="userSpaceOnUse" color-interpolation-filters="sRGB">
<feFlood flood-opacity="0" result="BackgroundImageFix"/>
<feColorMatrix in="SourceAlpha" type="matrix" values="0 0 0 0 0 0 0 0 0 0 0 0 0 0 0 0 0 0 127 0" result="hardAlpha"/>
<feOffset dy="1.32184"/>
<feGaussianBlur stdDeviation="1.32184"/>
<feColorMatrix type="matrix" values="0 0 0 0 0.0627451 0 0 0 0 0.0941176 0 0 0 0 0.156863 0 0 0 0.05 0"/>
<feBlend mode="normal" in2="BackgroundImageFix" result="effect1_dropShadow_103_681"/>
<feBlend mode="normal" in="SourceGraphic" in2="effect1_dropShadow_103_681" result="shape"/>
</filter>
</defs>
</svg>
