<svg width="38" height="38" viewBox="0 0 38 38" fill="none" xmlns="http://www.w3.org/2000/svg">
<path d="M18.9999 37.9998C29.4933 37.9998 37.9998 29.4905 37.9998 18.9999C37.9998 8.50923 29.4933 0 18.9999 0C8.50652 0 0 8.50923 0 18.9999C0 29.4905 8.50652 37.9998 18.9999 37.9998Z" fill="#F1F5F7"/>
<path d="M18.1743 18.9999H37.9994C37.9994 17.2899 37.7714 15.6206 37.3452 14.0463H18.1743V18.9999ZM18.1743 9.09283H35.2105C34.0489 7.19506 32.5655 5.51417 30.8269 4.12567H18.1743V9.09283ZM18.9995 37.9998C23.4712 37.9998 27.5806 36.4526 30.8269 33.874H7.17201C10.4183 36.4526 14.5277 37.9998 18.9995 37.9998ZM2.78849 28.907H35.2105C36.1556 27.3666 36.8746 25.6984 37.3452 23.9535H0.65372C1.13007 25.7177 1.85478 27.3871 2.78849 28.907Z" fill="#D80027"/>
<path d="M8.801 2.97213H10.5327L8.92177 4.13924L9.53655 6.02568L7.92703 4.85856L6.31609 6.02568L6.84813 4.3971C5.42932 5.57949 4.18794 6.95983 3.16215 8.49568H3.71721L2.69257 9.24208C2.53243 9.51351 2.37908 9.7849 2.23251 10.0563L2.72239 11.5628L1.80907 10.8978C1.58107 11.3864 1.37342 11.8749 1.18749 12.3771L1.72624 14.0328H3.71721L2.10628 15.1999L2.72239 17.0999L1.11145 15.9327L0.146531 16.6249C0.0501749 17.412 0 18.1992 0 18.9999H18.9999V0C15.2461 0 11.7473 1.08571 8.801 2.97213ZM9.53655 17.0999L7.92703 15.9327L6.31609 17.0999L6.93088 15.1999L5.32135 14.0328H7.31224L7.92703 12.1464L8.54181 14.0328H10.5327L8.92177 15.1999L9.53655 17.0999ZM8.92177 9.67638L9.53655 11.5628L7.92703 10.3956L6.31609 11.5628L6.93088 9.67638L5.32135 8.49568H7.31224L7.92703 6.60924L8.54181 8.49568H10.5327L8.92177 9.67638ZM16.3521 17.0999L14.7425 15.9327L13.1316 17.0999L13.7464 15.1999L12.1355 14.0328H14.1264L14.7425 12.1464L15.3573 14.0328H17.3483L15.7373 15.1999L16.3521 17.0999ZM15.7373 9.67638L16.3521 11.5628L14.7425 10.3956L13.1316 11.5628L13.7464 9.67638L12.1355 8.49568H14.1264L14.7425 6.60924L15.3573 8.49568H17.3483L15.7373 9.67638ZM15.7373 4.13924L16.3521 6.02568L14.7425 4.85856L13.1316 6.02568L13.7464 4.13924L12.1355 2.97213H14.1264L14.7425 1.07211L15.3573 2.97213H17.3483L15.7373 4.13924Z" fill="#0052B4"/>
</svg>
