<svg width="53" height="53" viewBox="0 0 53 53" fill="none" xmlns="http://www.w3.org/2000/svg">
<g filter="url(#filter0_d_103_685)">
<path d="M39.7501 1.9875H13.2501C7.76176 1.9875 3.31259 6.43667 3.31259 11.925V38.425C3.31259 43.9133 7.76176 48.3625 13.2501 48.3625H39.7501C45.2384 48.3625 49.6876 43.9133 49.6876 38.425V11.925C49.6876 6.43667 45.2384 1.9875 39.7501 1.9875Z" fill="white"/>
<path d="M39.7501 1.9875H13.2501C7.76176 1.9875 3.31259 6.43667 3.31259 11.925V38.425C3.31259 43.9133 7.76176 48.3625 13.2501 48.3625H39.7501C45.2384 48.3625 49.6876 43.9133 49.6876 38.425V11.925C49.6876 6.43667 45.2384 1.9875 39.7501 1.9875Z" stroke="#D9E1E7" stroke-width="1.32184"/>
<path d="M34.7812 17.9975L34.0922 29.0678C33.9199 31.8954 33.8405 33.3092 33.125 34.3268C32.7805 34.8289 32.33 35.2529 31.8 35.5723C30.74 36.2162 29.3222 36.2162 26.4867 36.2162C23.6512 36.2162 22.2334 36.2162 21.1734 35.571C20.6529 35.2476 20.2023 34.8231 19.8484 34.3228C19.1462 33.3052 19.0535 31.8888 18.8812 29.056L18.2187 17.9975M16.5625 17.9975H36.4375M30.9785 17.9975L30.2233 16.4432C29.7198 15.4097 29.468 14.893 29.044 14.571C28.9484 14.4988 28.8462 14.4354 28.7391 14.3816C28.2621 14.1338 27.6925 14.1338 26.5398 14.1338C25.3605 14.1338 24.7774 14.1338 24.2872 14.3922C24.1812 14.4491 24.0752 14.5154 23.9824 14.5896C23.5452 14.9248 23.2934 15.4601 22.8164 16.5307L22.1407 17.9975M23.744 30.1438V23.5188M29.2559 30.1438V23.5188" stroke="#99B2C6" stroke-width="1.98276" stroke-linecap="round"/>
</g>
<defs>
<filter id="filter0_d_103_685" x="-0.000123796" y="-7.16966e-07" width="53.0002" height="53" filterUnits="userSpaceOnUse" color-interpolation-filters="sRGB">
<feFlood flood-opacity="0" result="BackgroundImageFix"/>
<feColorMatrix in="SourceAlpha" type="matrix" values="0 0 0 0 0 0 0 0 0 0 0 0 0 0 0 0 0 0 127 0" result="hardAlpha"/>
<feOffset dy="1.32184"/>
<feGaussianBlur stdDeviation="1.32184"/>
<feColorMatrix type="matrix" values="0 0 0 0 0.0627451 0 0 0 0 0.0941176 0 0 0 0 0.156863 0 0 0 0.05 0"/>
<feBlend mode="normal" in2="BackgroundImageFix" result="effect1_dropShadow_103_685"/>
<feBlend mode="normal" in="SourceGraphic" in2="effect1_dropShadow_103_685" result="shape"/>
</filter>
</defs>
</svg>
